<?xml version="1.0" encoding="UTF-8"?>
<svg id="Layer_2" data-name="Layer 2" xmlns="http://www.w3.org/2000/svg" viewBox="0 0 403.91 61.87">
  <defs>
    <style>
      .cls-1 {
        fill: #231f20;
      }
    </style>
  </defs>
  <g id="text">
    <g>
      <path class="cls-1" d="M284.47,51.46c2.41-8.67,5.23-17.23,8.46-25.63,1.62-4.22,3.35-8.4,5.19-12.53.41-.92.8-1.85,1.24-2.74.02-.04.41-.82.47-.78.13.1-1.67.18-1.44.02-.05.03.75,2.7.79,2.88.28,1.15.53,2.3.75,3.46,1.72,8.84,2.08,17.88,3.87,26.72.37,1.81.77,3.65,1.94,5.13.65.82,1.57,1.62,2.63,1.76s2.18-.45,3.03-1.08c3.23-2.38,4.01-6.83,5.09-10.44,3.03-10.24,6.07-20.49,9.1-30.73.92-3.09-3.91-4.41-4.82-1.33-2.14,7.23-4.28,14.45-6.42,21.68-1.06,3.57-2.12,7.15-3.17,10.72-.52,1.75-1.08,5.58-3.13,6.32l1.93.25c-.69-.4-.85-1.36-1.03-2.11-.35-1.49-.62-3.01-.88-4.51-.52-3.05-.89-6.13-1.25-9.2-.75-6.32-1.44-12.69-3.04-18.87-.69-2.67-2.12-6.1-5.57-5.28-2.94.69-3.94,4.53-4.99,6.93-2.56,5.84-4.94,11.75-7.11,17.75-2.42,6.68-4.57,13.46-6.47,20.3-.86,3.11,3.96,4.43,4.82,1.33h0Z"/>
      <path class="cls-1" d="M350.98,29.6c1.66.74,2.41,3.15,3.18,4.66,1.08,2.11,2.11,4.24,3.08,6.4.5,1.1.98,2.2,1.44,3.32s.8,2.29,1.47,3.26c1.64,2.35,4.66,2.16,6.15-.21,1.31-2.07,1.86-4.81,2.57-7.13.43-1.42.86-2.84,1.32-4.24.19-.59.4-1.17.61-1.75.24-.68-.07.09.08-.22.08-.15.15-.31.23-.46h-4.32c.06.1.27.52.11.16-.17-.4.05.23.08.33.15.56.25,1.14.34,1.72,0,0,.06.41.03.17-.04-.28.03.27.04.32.04.32.08.64.11.96.08.72.15,1.44.23,2.15.25,2.37.24,5.26,1.46,7.39,1.03,1.8,3.13,3.17,5.24,2.56,1.92-.56,3.06-2.68,3.94-4.33,1.79-3.32,2.85-6.98,3.97-10.56s2.43-7.57,5.1-10.51c2.16-2.38-1.37-5.92-3.54-3.54-4.71,5.18-5.92,12.07-8.24,18.44-.52,1.43-1.13,2.81-1.88,4.13-.14.24-1.16,1.49-1.12,1.73-.01-.08,1.11-.12,1.09-.11.13-.12.02.1-.13-.2-.05-.09-.17-.28-.24-.37.22.27.13.39.04,0-.05-.22-.11-.44-.16-.66-.1-.44-.22-1.21-.25-1.41-.12-.84-.26-2.34-.38-3.44-.24-2.32-.17-5.46-1.52-7.48-1.02-1.53-3.33-1.7-4.32,0-1.29,2.22-1.87,4.99-2.61,7.43-.44,1.43-.87,2.87-1.35,4.29-.18.55-.37,1.09-.59,1.62.26-.66-.24.3-.12.24l1.26-.34c.85.67,1.09.72.71.17-.05-.13-.1-.25-.15-.38-.19-.43-.36-.88-.54-1.31-.42-1-.84-2-1.28-2.99-.79-1.81-1.62-3.6-2.49-5.37s-1.71-3.47-2.66-5.15c-.83-1.47-1.9-2.92-3.48-3.63-1.23-.55-2.69-.36-3.42.9-.62,1.07-.34,2.87.9,3.42h0Z"/>
      <path class="cls-1" d="M398.2,4.93c-.77.15-.59-.31-.19.54.32.69.44,1.53.58,2.27.29,1.55.36,3.13.35,4.7-.03,3.44-.62,6.83-1.28,10.21-1.38,7.11-2.97,14.21-1.78,21.47.22,1.33,1.87,2.08,3.08,1.75,1.42-.39,1.97-1.74,1.75-3.08-1.26-7.71,1.35-15.46,2.53-23.01.63-4.04.95-8.07.38-12.13-.51-3.61-2.13-8.45-6.74-7.54-1.33.26-2.08,1.84-1.75,3.08.38,1.38,1.75,2.01,3.08,1.75h0Z"/>
      <path class="cls-1" d="M397.12,59.92s.05,0,.07-.01l-.66.09c.07,0,.15,0,.22,0l-.66-.09c.09.01.18.04.26.07l-.6-.25c.08.04.16.08.23.14l-.51-.39c.06.05.12.11.17.17l-.39-.51c.05.07.09.13.13.21l-.25-.6c.03.07.05.14.06.21l-.09-.66c.01.08.01.15,0,.23l.09-.66c-.01.08-.03.15-.06.22l.25-.6c-.03.08-.08.15-.13.22l.39-.51c-.05.07-.11.13-.18.18l.51-.39c-.07.05-.14.1-.22.13l.6-.25c-.08.03-.16.06-.25.07l.66-.09c-.07,0-.14,0-.21,0l2.41,1.84c-.08-.2-.13-.4-.16-.62l.09.66c-.03-.24-.03-.49,0-.74l-.09.66c.01-.08.03-.15.04-.23.1-.33.12-.66.04-1-.02-.33-.11-.64-.3-.93-.16-.29-.37-.53-.64-.7-.24-.22-.52-.37-.85-.45l-.66-.09c-.45,0-.87.12-1.26.34l-.51.39c-.31.31-.52.68-.64,1.1-.08.34-.12.7-.15,1.05-.01.14-.01.28,0,.42.02.34.07.69.14,1.03.03.14.07.28.12.42l.25.6c.16.29.37.53.64.7.16.15.34.26.55.32.3.16.62.23.96.22.06,0,.11,0,.17,0,.24-.02.49-.06.73-.1.03,0,.07-.01.1-.02.02,0,.05-.02.07-.02.22-.08.44-.18.66-.28.05-.03.11-.05.16-.09.19-.13.38-.28.56-.43.02-.02.05-.04.07-.06.12-.11.21-.25.31-.38s.2-.25.28-.38c.01-.03.03-.05.04-.08.1-.22.2-.44.28-.67.02-.05.03-.11.04-.16.04-.23.08-.48.09-.72,0-.03,0-.07,0-.1,0-.13-.04-.29-.05-.41s-.03-.27-.06-.4c0-.02-.01-.05-.02-.07-.08-.23-.18-.45-.28-.67-.02-.05-.05-.1-.08-.14-.02-.02-.03-.05-.05-.07-.14-.19-.28-.39-.44-.56-.04-.04-.08-.08-.12-.11-.17-.14-.36-.29-.55-.42-.03-.02-.05-.04-.08-.05s-.06-.03-.09-.05c-.21-.1-.44-.2-.67-.28-.06-.02-.12-.04-.18-.05-.67-.12-1-.14-1.67,0-.33.08-.61.23-.85.45-.27.18-.49.41-.64.7-.18.29-.28.6-.3.93-.07.33-.06.66.04,1l.25.6c.22.38.52.67.9.9l.6.25c.44.12.89.12,1.33,0h0Z"/>
      <path class="cls-1" d="M334.98,30.53c3.78-1.17,6.17,3.13,6.93,6.48.43,1.91.67,4.07-.18,5.9-.77,1.67-2.19,2.85-3.75,3.66-2.82,1.46-6.64,1.38-8.97-.7-1.26-1.13-2.06-2.44-2.46-4.05-.34-1.34-.31-2.8.36-4.22.89-1.88,2.49-3.34,4.14-4.59.96-.73,1.96-1.47,3-2.08.83-.49,1.38-.71,2-.27,1.1.78,2.78.2,3.42-.9.73-1.25.21-2.64-.9-3.42-2.9-2.05-6.22-.36-8.74,1.4-2.3,1.61-4.49,3.33-6.18,5.59-3.37,4.53-2.83,10.53.64,14.82s9.5,5.41,14.49,3.48c2.66-1.03,4.93-2.73,6.57-5.07,1.92-2.75,2.15-6.09,1.66-9.31s-1.69-6.56-4.03-8.93-6.04-3.64-9.35-2.62c-3.06.95-1.76,5.78,1.33,4.82h0Z"/>
    </g>
    <path class="cls-1" d="M4.88,56.8c1.46-7.75,5.12-14.69,8.69-21.64,3.91-7.6,7.82-15.21,11.74-22.81h-4.32c4.54,6.42,7.48,13.79,8.96,21.5.76,3.94,1.06,7.93,1.02,11.93-.05,4.4-.29,8.85.97,13.12.91,3.08,5.74,1.77,4.82-1.33-1.25-4.21-.77-8.62-.79-12.94s-.46-8.42-1.28-12.54c-1.58-7.93-4.71-15.66-9.38-22.27-1.01-1.43-3.39-1.8-4.32,0-3.99,7.75-7.97,15.5-11.96,23.25C5.34,40.23,1.56,47.48.05,55.47c-.25,1.33.37,2.7,1.75,3.08,1.22.34,2.82-.41,3.08-1.75h0Z"/>
    <path class="cls-1" d="M15.05,33.68c4.74,2.45,10.01,3.26,15.26,2.27,1.29-.24,2.14-1.86,1.75-3.08-.45-1.38-1.7-2.01-3.08-1.75-.3.06-.61.11-.91.16.55-.08-.2.02-.25.02-.54.05-1.07.08-1.61.09s-1.08,0-1.61-.04c-.27-.02-.54-.04-.81-.07-.11-.01-.23-.02-.34-.04.28.04.27.04-.02,0-1.07-.19-2.13-.42-3.17-.76-.52-.17-1.04-.36-1.55-.57.4.17-.18-.09-.27-.13-.29-.13-.57-.28-.86-.42-1.16-.6-2.77-.34-3.42.9-.61,1.15-.34,2.78.9,3.42h0Z"/>
    <path class="cls-1" d="M43,34.46c.44-.01.1.05-.05-.1.26.26.05-.04.34.24.34.33.7.95.98,1.5.71,1.4,1.21,2.94,1.78,4.42,1.37,3.54,2.62,7.16,4.14,10.64.71,1.62,1.99,2.91,3.85,2.93,2.05.02,3.4-1.7,4.47-3.21,1.98-2.8,3.56-5.83,4.88-8.99,1.48-3.55,2.21-7.43,3.95-10.86.61-1.2.32-2.71-.9-3.42-1.11-.65-2.81-.31-3.42.9-1.92,3.78-2.72,7.98-4.38,11.88-.77,1.82-1.69,3.58-2.7,5.28-.52.87-1.07,1.72-1.65,2.55-.2.29-.6.64-.76.95-.09.17,1.46.73,1.31.21-.24-.81-.68-1.65-1-2.46-.42-1.08-.84-2.17-1.26-3.25-.81-2.1-1.62-4.2-2.43-6.3-1.25-3.24-2.89-8.03-7.16-7.91-3.21.09-3.22,5.09,0,5h0Z"/>
    <path class="cls-1" d="M77.47,32.72v-.34c-.16.39-.16.47-.04.22-.31.05.22-.17.07-.1.31-.13.53-.33.82-.45,1.06-.42,2.53-.86,3.68-.69,1.92.29,2.86,2.86,3.34,4.45.8,2.65,1.05,5.41,1.15,8.16.05,1.4.07,2.79.07,4.19,0,.85.17,2.19-.42,2.89s-1.96,1.03-2.77,1.35c-1.32.53-2.69,1.05-4.1,1.27-1.49.23-3.44.15-4.07-1.36s.53-3.44,1.96-4.09c.96-.44,2.04-.54,3.09-.61s2.55-.39,3.6-.18c.78.15,1.93.82,2.55,1.31.69.55.8,1.72,1.1,2.66.82,2.57,2.12,4.69,5.04,4.91,1.35.1,2.5-1.22,2.5-2.5,0-1.44-1.15-2.4-2.5-2.5.15.01.32.06.41.19-.45-.63.18.42-.22-.33-.19-.36-.35-.89-.51-1.41-.48-1.55-.88-3.15-2.06-4.34-.99-1-2.27-1.61-3.53-2.18-1.75-.8-3.24-.78-5.14-.68-3.7.18-7.39.68-9.75,3.87-1.97,2.66-2.36,6.47-.33,9.21s5.5,3.44,8.76,2.94c1.65-.25,3.22-.8,4.76-1.42,1.7-.69,3.6-1.31,4.89-2.68,2.47-2.63,1.81-7.17,1.69-10.48-.13-3.75-.49-7.66-1.93-11.16s-4.32-6.76-8.61-6.45c-3.6.26-8.62,1.96-8.49,6.35.09,3.21,5.09,3.22,5,0h0Z"/>
    <path class="cls-1" d="M100.92,30.17c-.73-.19-.4-.64-.39-.08,0,.29.14.6.17.87.14,1.15.13,2.34.12,3.5-.02,2.19-.17,4.38-.2,6.57-.06,4.13.36,8.36,2.38,12.04,1.55,2.82,5.87.3,4.32-2.52-2.11-3.86-1.75-8.57-1.59-12.8.1-2.44.21-4.91-.08-7.34-.25-2.15-1.08-4.43-3.4-5.05-3.11-.83-4.44,3.99-1.33,4.82h0Z"/>
    <path class="cls-1" d="M101.61,16.74s-.02-.07-.02-.11l.09.66s0-.08,0-.13l-.09.66s.02-.09.04-.13l-.25.6s.04-.07.06-.1l-.39.51s.07-.08.11-.11l-.51.39s.09-.06.13-.08l-.6.25c.06-.03.12-.04.19-.05l-.66.09c.06,0,.12,0,.18,0l-.66-.09c.06,0,.12.02.17.05l-.6-.25s.08.04.12.07l-.51-.39s.06.06.09.09l-.39-.51s.06.09.08.13l-.25-.6c.04.09.06.18.07.28l-.09-.66c.01.11.01.22,0,.33l.09-.66c-.02.13-.06.26-.11.38l.25-.6c-.06.14-.14.28-.24.4l.39-.51c-.1.12-.2.23-.32.32l.51-.39c-.08.06-.17.12-.27.16l.6-.25c-.08.03-.15.05-.24.07l.66-.09c-.1.01-.2.01-.3,0l.66.09c-.11-.01-.21-.04-.31-.08l.6.25c-.09-.04-.17-.09-.25-.14l.51.39c-.06-.05-.12-.1-.17-.16l.39.51s-.07-.1-.09-.15l.25.6c-.02-.06-.04-.11-.05-.17l.09.66c0-.06,0-.11,0-.16l-.09.66c0-.07.03-.14.05-.2.1-.33.12-.66.04-1-.02-.33-.11-.64-.3-.93-.16-.29-.37-.53-.64-.7-.24-.22-.52-.37-.85-.45l-.66-.09c-.45,0-.87.12-1.26.34l-.51.39c-.31.31-.52.68-.64,1.1-.02.05-.04.11-.05.16-.04.22-.08.49-.1.71,0,.03,0,.06,0,.1,0,.13.03.28.05.39s.03.26.05.39c0,.03.01.05.02.08.08.21.17.44.27.65.02.04.05.09.07.13.12.18.28.38.42.54.02.02.04.05.06.07.18.18.39.32.59.47.05.03.09.06.14.09.23.12.48.22.72.31.05.02.11.04.17.05.15.04.32.05.47.07.16.02.33.06.49.05.27,0,.54-.06.8-.1.06,0,.11-.02.17-.04.02,0,.05-.02.07-.03.21-.08.44-.17.64-.27.06-.03.12-.07.17-.11.22-.16.44-.32.64-.5.06-.05.11-.1.16-.16.18-.2.34-.42.5-.64.05-.06.09-.13.13-.2.14-.24.23-.51.33-.76.03-.07.06-.15.08-.22.07-.27.09-.55.12-.83,0-.08.02-.15.01-.23,0-.14-.03-.29-.05-.43-.02-.13-.03-.28-.06-.41-.03-.17-.11-.33-.18-.49-.06-.14-.1-.28-.19-.41-.06-.09-.18-.24-.21-.28,0,0-.14-.19-.21-.27-.02-.02-.03-.03-.05-.05,0,0-.02-.01-.02-.02-.13-.11-.38-.31-.52-.4-.02-.01-.03-.02-.05-.03s-.04-.02-.05-.03c-.16-.08-.45-.2-.62-.26-.01,0-.02,0-.04-.01-.29-.09-.6-.13-.9-.12-.24.01-.49.05-.72.09-.02,0-.05,0-.07.01s-.04.01-.07.02c-.22.07-.44.17-.65.27-.04.02-.09.04-.13.07-.18.12-.38.27-.54.42-.02.02-.04.03-.05.05,0,0-.01.01-.02.02-.09.11-.32.4-.4.52-.01.02-.02.04-.04.06,0,.01-.01.02-.02.03-.08.16-.2.45-.26.61,0,.02-.01.04-.02.06,0,0,0,.02,0,.03-.04.17-.08.52-.09.69,0,.02,0,.05,0,.07,0,.01,0,.02,0,.03.01.19.06.51.09.7,0,.03.01.06.02.09.08.33.23.61.45.85.18.27.41.49.7.64.29.18.6.28.93.3.33.07.66.06,1-.04l.6-.25c.38-.22.67-.52.9-.9l.25-.6c.12-.44.12-.89,0-1.33h0Z"/>
    <path class="cls-1" d="M111.96,7.39c1.19,1.72,1.42,3.81,1.63,5.84.25,2.43.45,4.86.59,7.29.29,5.03.28,10.06.13,15.1-.24,8.09.07,19.68,9.11,23.11,1.26.48,2.74-.53,3.08-1.75.39-1.41-.48-2.59-1.75-3.08-3.01-1.15-4.4-5.16-4.99-8.01-.92-4.47-.45-9.14-.36-13.66s-.04-9.45-.38-14.16c-.18-2.43-.38-4.86-.72-7.26-.29-2.09-.8-4.19-2.02-5.96-.77-1.11-2.19-1.62-3.42-.9-1.1.64-1.67,2.3-.9,3.42h0Z"/>
    <path class="cls-1" d="M134.09,31.74c1.4-1.95,3.39-3.63,5.69-4.38.95-.31,2.05-.68,2.99-.18,1.02.53,1.88,1.6,2.54,2.52,3.05,4.22,3.9,10.1,1.74,14.9-.93,2.07-2.44,4.03-4.64,4.82-1.93.69-4.37.45-5.84-1.1-1.74-1.82.73-3.54,2.26-4.46,2.13-1.29,4.59-1.91,7.04-2.26.99-.14,2.59-.57,3.29.35.56.74.86,1.93,1.19,2.85,1.15,3.19,3.01,5.91,6.41,6.92,3.09.92,4.41-3.9,1.33-4.82-2.92-.87-3.11-4.79-4.38-7.06-.86-1.54-2.23-2.79-3.98-3.2s-3.69-.09-5.5.19c-3.69.58-7.21,1.89-10.1,4.29-3.07,2.54-4.36,6.57-1.75,9.95,2.19,2.84,5.96,4.07,9.44,3.6,3.67-.5,6.68-2.81,8.64-5.87,3.99-6.24,3.55-14.84-.39-20.98-1.13-1.77-2.54-3.42-4.27-4.63-1.89-1.32-4.09-1.44-6.29-.94-4.05.92-7.35,3.66-9.73,6.97-.79,1.1-.19,2.78.9,3.42,1.26.74,2.63.2,3.42-.9h0Z"/>
    <path class="cls-1" d="M169.13,7.48c2,1.88,2.7,4.6,2.87,7.27.21,3.34-.17,6.7-.74,9.99-.63,3.65-1.48,7.26-2.15,10.91-.61,3.31-1.27,6.78-1.11,10.16s1.4,6.62,4.57,8.11c2.9,1.37,6.53,1.37,9.56.4s5.85-3.03,7.24-5.99,1.51-6.13.14-8.98c-2.99-6.25-11.34-6.36-16.69-3.42-2.82,1.55-.3,5.87,2.52,4.32,2.97-1.63,8.19-2.17,9.77,1.47,1.91,4.37-2.71,8.01-6.64,8.25-2.05.12-4.47-.11-5.18-2.34s-.23-5.11.1-7.44c.89-6.18,2.57-12.21,3.31-18.41s.73-13.32-4.04-17.81c-2.34-2.2-5.89,1.33-3.54,3.54h0Z"/>
    <path class="cls-1" d="M199.44,7.41c3.34,7.8,2.01,16.84.98,24.97-.55,4.38-1.41,9-.77,13.41.58,3.97,3.11,7.69,7.37,8.03,1.35.11,2.5-1.23,2.5-2.5,0-1.44-1.15-2.39-2.5-2.5-.99-.08-1.73-1.36-2.05-2.18-.7-1.75-.58-3.77-.46-5.61.26-4.18.91-8.33,1.39-12.5.92-7.99,1.08-16.12-2.14-23.65-.53-1.24-2.36-1.52-3.42-.9-1.28.75-1.43,2.17-.9,3.42h0Z"/>
    <path class="cls-1" d="M217.3,42.71c6.56.99,13.17-1.21,17.79-6.02,2.35-2.44,4.19-6.16,2.07-9.37-1.05-1.59-2.73-2.07-4.52-2.3-1.51-.2-3.04-.36-4.56-.34-3.26.05-6.57,1.03-8.82,3.51s-3.24,5.51-3.74,8.62c-.56,3.44-.76,7.13.56,10.43,1.09,2.74,3.14,5.07,5.82,6.35,6.85,3.27,14.1-1,17.15-7.41.58-1.22.34-2.7-.9-3.42-1.09-.64-2.84-.33-3.42.9-1.57,3.31-4.87,6.78-8.86,6.03-4.45-.83-5.94-5.06-5.77-9.12.16-3.78,1.1-9.27,5.31-10.52,2.08-.62,4.35-.39,6.47-.13.31.04,1.09,0,1.28.24-.28-.33-.1.44-.08.32-.19.96-.58,1.64-1.26,2.38-3.29,3.58-8.3,5.76-13.2,5.02-1.33-.2-2.69.33-3.08,1.75-.32,1.18.4,2.87,1.75,3.08h0Z"/>
  </g>
</svg>