<?xml version="1.0" encoding="UTF-8"?>
<svg data-bbox="9.576 4.218 407.52 63.684" viewBox="0 0 436.05 71.87" xmlns="http://www.w3.org/2000/svg" data-type="color">
    <g>
        <path d="M14.6 64.35c1.06-8.29 2.35-16.55 3.86-24.77.75-4.1 1.56-8.19 2.42-12.27s1.57-7.91 2.67-11.77c.39-1.36.91-2.75 2.14-3.57s2.71-1.04 4.09-1.22c3.2-.41 7.03-.59 9.79 1.39 4.43 3.18 3.82 9.92.86 13.83-2.08 2.74-5.22 4.75-8.43 5.92s-7.06 1.89-10.15-.07c-2.73-1.72-5.24 2.6-2.52 4.32 6.94 4.38 16.63.68 22.3-4.21 5.68-4.9 8.15-13.28 4.23-20.06-2.11-3.64-5.79-5.64-9.89-6.17-3.84-.49-8.44-.18-11.98 1.5-4.21 2-5.2 6.5-6.15 10.64-1.08 4.7-2.08 9.41-3.02 14.14a491 491 0 0 0-5.23 32.36c-.17 1.34 1.27 2.5 2.5 2.5 1.49 0 2.33-1.15 2.5-2.5Z" fill="#231f20" data-color="1"/>
        <path d="M38.46 58.2c.14-2.64.83-5.22 1.79-7.7.44-1.14.96-2.26 1.53-3.35.27-.52.56-1.04.88-1.54.14-.23.29-.46.45-.68.04-.05.46-.61.26-.36.69-.86 1.3-1.44 2.05-1.87.46-.26.5-.29 1.18-.46.18-.04.15-.03-.1 0 .11-.01.23-.02.34-.02.12 0 .89.1.37 0 .23.04.45.12.68.17.48.11-.2-.16.26.1.2.11.4.23.59.34.48.29-.17-.25.2.17.11.12.43.51.18.15.12.17.23.36.32.55-.3-.64.04.49 0 .07s-.14.78 0 .09c-.25 1.33.37 2.7 1.75 3.08 1.22.34 2.82-.41 3.08-1.75.65-3.43-1.45-6.25-4.59-7.46s-6.17-.1-8.54 1.96-3.74 4.91-4.93 7.66c-1.5 3.48-2.52 7.06-2.72 10.86-.07 1.35 1.2 2.5 2.5 2.5 1.41 0 2.43-1.15 2.5-2.5Z" fill="#231f20" data-color="1"/>
        <path d="M61.16 55.52c2.92-.56 5.91.46 8.85.18s5.56-1.3 7.23-3.69 1.44-5.51.11-7.97-3.98-4.22-6.78-4.78-6.32-.55-8.94.67c-2.83 1.32-3.72 4.79-4.33 7.59-1.21 5.48-.84 11.72 3.06 16.08 3.65 4.08 10.46 5.92 15.16 2.55 1.1-.79 1.62-2.18.9-3.42-.63-1.08-2.32-1.69-3.42-.9-2.39 1.71-5.45 1.23-7.82-.56-3.04-2.31-3.78-6.43-3.43-10.18.18-1.92.63-4.07 1.42-5.84.38-.85.78-.94 1.67-1.1.96-.17 1.95-.23 2.92-.21 1.74.04 3.64.48 4.77 1.84.87 1.05 1.23 2.45.56 3.45-.82 1.2-2.79 1.52-4.33 1.52-3.03 0-5.9-.64-8.93-.07-1.33.25-2.08 1.85-1.75 3.08.38 1.39 1.74 2 3.08 1.75Z" fill="#231f20" data-color="1"/>
        <path d="M90.61 53.87h10.8c1.31 0 2.56-1.15 2.5-2.5s-1.1-2.5-2.5-2.5h-10.8c-1.31 0-2.56 1.15-2.5 2.5s1.1 2.5 2.5 2.5" fill="#231f20" data-color="1"/>
        <path d="M138.9 36.98c-2.91-.3-5.94-.05-8.59 1.27s-4.55 4.05-5.28 7.01-.87 6.11-.56 9.06c.36 3.34 1.6 6.44 4.27 8.59 4.77 3.84 11.84 4.37 17.1 1.15 5.07-3.1 7.73-9.23 6.86-15.06-.99-6.65-6.76-11.52-13.25-12.34-1.34-.17-2.5 1.27-2.5 2.5 0 1.49 1.15 2.33 2.5 2.5 3.69.46 7.07 3.48 8.09 7.05s-.26 7.73-3.11 10.22-7.72 2.96-11.15 1.05c-1.95-1.09-3.16-2.66-3.65-4.84s-.34-4.58-.09-6.78c.23-2.07.82-4.34 2.72-5.48s4.43-1.13 6.64-.91c1.35.14 2.5-1.25 2.5-2.5 0-1.47-1.15-2.36-2.5-2.5Z" fill="#231f20" data-color="1"/>
        <path d="M163.55 62.73c-.14-2.95-.02-5.92.48-8.84s1.16-5.79 2.44-8.36c1.02-2.03 2.62-4.07 5-4.46 1.55-.26 3.49.68 3.53 2.38.08 3.21 5.08 3.22 5 0-.09-3.52-2.75-6.55-6.19-7.25-3.66-.75-7.43 1.06-9.74 3.88-2.44 2.98-3.65 6.77-4.48 10.48-.89 3.99-1.25 8.09-1.06 12.17.15 3.2 5.15 3.22 5 0Z" fill="#231f20" data-color="1"/>
        <path d="M197.5 40.57c-2.75-1.12-5.93-.12-8.03 1.85s-3.18 4.96-3.53 7.81c-.64 5.18 1.55 10.9 6.54 13.12 5.31 2.36 11.23.3 13.43-5.18s-.42-11.76-1.41-17.45c-1.21-6.99-.93-14.25.67-21.15.73-3.13-4.09-4.47-4.82-1.33-1.21 5.19-1.76 10.55-1.54 15.88.11 2.74.43 5.47.9 8.16.45 2.54 1.19 5.01 1.71 7.54.66 3.2.8 8.4-3.21 9.41-3.54.9-6.46-1.94-7.2-5.19-.66-2.94.64-10.48 5.15-8.65 1.25.51 2.75-.55 3.08-1.75.39-1.43-.49-2.56-1.75-3.08Z" fill="#231f20" data-color="1"/>
        <path d="M214.41 49.05c5.98 1.18 14.02-.65 16.91-6.63 1.47-3.04.79-6.47-1.97-8.5-2.47-1.82-5.91-2.06-8.75-1.04-6.42 2.32-9.04 8.7-9.7 15.03-.54 5.24.42 11.74 5.43 14.6 3.24 1.86 7.18 1.52 10.47.01s5.85-4.38 8.08-7.2c.84-1.06 1.03-2.5 0-3.54-.87-.87-2.69-1.06-3.54 0-2.57 3.24-6.07 7.57-10.73 6.98-3.62-.45-4.72-4.37-4.84-7.48-.15-3.89.51-8.7 3.31-11.63 1.28-1.34 3.03-2.37 4.93-2.39 1.27-.02 3.32.55 3.11 2.18-.24 1.91-2.62 3.31-4.18 3.99-2.24.98-4.81 1.25-7.2.78-1.32-.26-2.7.38-3.08 1.75-.34 1.23.41 2.81 1.75 3.08Z" fill="#231f20" data-color="1"/>
        <path d="M248.91 58.76c-.5-6.45-.52-13.28.77-19.65.41-2.01 1.16-4.19 3.56-4.18s4.06 1.99 4.88 3.99c.51 1.25 1.66 2.14 3.08 1.75 1.18-.32 2.26-1.82 1.75-3.08-1.42-3.45-3.93-6.64-7.78-7.45s-7.43.77-9.14 4.18-1.86 7.65-2.15 11.39c-.33 4.35-.3 8.71.03 13.05.1 1.35 1.07 2.5 2.5 2.5 1.27 0 2.6-1.15 2.5-2.5" fill="#231f20" data-color="1"/>
        <path d="M297.65 55.68c2.41-8.67 5.23-17.23 8.46-25.63 1.62-4.22 3.35-8.4 5.19-12.53.41-.92.8-1.85 1.24-2.74.02-.04.41-.82.47-.78.13.1-1.67.18-1.44.02-.05.03.75 2.7.79 2.88.28 1.15.53 2.3.75 3.46 1.72 8.84 2.08 17.88 3.87 26.72.37 1.81.77 3.65 1.94 5.13.65.82 1.57 1.62 2.63 1.76s2.18-.45 3.03-1.08c3.23-2.38 4.01-6.83 5.09-10.44 3.03-10.24 6.07-20.49 9.1-30.73.92-3.09-3.91-4.41-4.82-1.33l-6.42 21.68c-1.06 3.57-2.12 7.15-3.17 10.72-.52 1.75-1.08 5.58-3.13 6.32l1.93.25c-.69-.4-.85-1.36-1.03-2.11-.35-1.49-.62-3.01-.88-4.51-.52-3.05-.89-6.13-1.25-9.2-.75-6.32-1.44-12.69-3.04-18.87-.69-2.67-2.12-6.1-5.57-5.28-2.94.69-3.94 4.53-4.99 6.93-2.56 5.84-4.94 11.75-7.11 17.75-2.42 6.68-4.57 13.46-6.47 20.3-.86 3.11 3.96 4.43 4.82 1.33Z" fill="#231f20" data-color="1"/>
        <path d="M364.17 33.82c1.66.74 2.41 3.15 3.18 4.66 1.08 2.11 2.11 4.24 3.08 6.4.5 1.1.98 2.2 1.44 3.32s.8 2.29 1.47 3.26c1.64 2.35 4.66 2.16 6.15-.21 1.31-2.07 1.86-4.81 2.57-7.13.43-1.42.86-2.84 1.32-4.24.19-.59.4-1.17.61-1.75.24-.68-.07.09.08-.22.08-.15.15-.31.23-.46h-4.32c.06.1.27.52.11.16-.17-.4.05.23.08.33.15.56.25 1.14.34 1.72 0 0 .06.41.03.17-.04-.28.03.27.04.32.04.32.08.64.11.96.08.72.15 1.44.23 2.15.25 2.37.24 5.26 1.46 7.39 1.03 1.8 3.13 3.17 5.24 2.56 1.92-.56 3.06-2.68 3.94-4.33 1.79-3.32 2.85-6.98 3.97-10.56s2.43-7.57 5.1-10.51c2.16-2.38-1.37-5.92-3.54-3.54-4.71 5.18-5.92 12.07-8.24 18.44-.52 1.43-1.13 2.81-1.88 4.13-.14.24-1.16 1.49-1.12 1.73-.01-.08 1.11-.12 1.09-.11.13-.12.02.1-.13-.2-.05-.09-.17-.28-.24-.37.22.27.13.39.04 0-.05-.22-.11-.44-.16-.66-.1-.44-.22-1.21-.25-1.41-.12-.84-.26-2.34-.38-3.44-.24-2.32-.17-5.46-1.52-7.48-1.02-1.53-3.33-1.7-4.32 0-1.29 2.22-1.87 4.99-2.61 7.43-.44 1.43-.87 2.87-1.35 4.29-.18.55-.37 1.09-.59 1.62.26-.66-.24.3-.12.24l1.26-.34c.85.67 1.09.72.71.17-.05-.13-.1-.25-.15-.38-.19-.43-.36-.88-.54-1.31-.42-1-.84-2-1.28-2.99q-1.185-2.715-2.49-5.37c-1.305-2.655-1.71-3.47-2.66-5.15-.83-1.47-1.9-2.92-3.48-3.63-1.23-.55-2.69-.36-3.42.9-.62 1.07-.34 2.87.9 3.42Z" fill="#231f20" data-color="1"/>
        <path d="M411.38 9.15c-.77.15-.59-.31-.19.54.32.69.44 1.53.58 2.27.29 1.55.36 3.13.35 4.7-.03 3.44-.62 6.83-1.28 10.21-1.38 7.11-2.97 14.21-1.78 21.47.22 1.33 1.87 2.08 3.08 1.75 1.42-.39 1.97-1.74 1.75-3.08-1.26-7.71 1.35-15.46 2.53-23.01.63-4.04.95-8.07.38-12.13-.51-3.61-2.13-8.45-6.74-7.54-1.33.26-2.08 1.84-1.75 3.08.38 1.38 1.75 2.01 3.08 1.75Z" fill="#231f20" data-color="1"/>
        <path d="M410.3 64.14s.05 0 .07-.01l-.66.09h.22l-.66-.09c.09.01.18.04.26.07l-.6-.25c.08.04.16.08.23.14l-.51-.39c.06.05.12.11.17.17l-.39-.51c.05.07.09.13.13.21l-.25-.6q.045.105.06.21l-.09-.66c.01.08.01.15 0 .23l.09-.66c-.01.08-.03.15-.06.22l.25-.6c-.03.08-.08.15-.13.22l.39-.51q-.075.105-.18.18l.51-.39a1 1 0 0 1-.22.13l.6-.25c-.08.03-.16.06-.25.07l.66-.09h-.21l2.41 1.84c-.08-.2-.13-.4-.16-.62l.09.66c-.03-.24-.03-.49 0-.74l-.09.66c.01-.08.03-.15.04-.23.1-.33.12-.66.04-1-.02-.33-.11-.64-.3-.93a1.9 1.9 0 0 0-.64-.7 1.9 1.9 0 0 0-.85-.45l-.66-.09c-.45 0-.87.12-1.26.34l-.51.39a2.5 2.5 0 0 0-.64 1.1c-.08.34-.12.7-.15 1.05q-.015.21 0 .42c.02.34.07.69.14 1.03q.045.21.12.42l.25.6c.16.29.37.53.64.7.16.15.34.26.55.32.3.16.62.23.96.22h.17c.24-.02.49-.06.73-.1.03 0 .07-.01.1-.02.02 0 .05-.02.07-.02.22-.08.44-.18.66-.28.05-.03.11-.05.16-.09.19-.13.38-.28.56-.43.02-.02.05-.04.07-.06.12-.11.21-.25.31-.38s.2-.25.28-.38c.01-.03.03-.05.04-.08.1-.22.2-.44.28-.67.02-.05.03-.11.04-.16.04-.23.08-.48.09-.72v-.1c0-.13-.04-.29-.05-.41s-.03-.27-.06-.4c0-.02-.01-.05-.02-.07-.08-.23-.18-.45-.28-.67a.6.6 0 0 0-.08-.14c-.02-.02-.03-.05-.05-.07-.14-.19-.28-.39-.44-.56-.04-.04-.08-.08-.12-.11a8 8 0 0 0-.55-.42c-.03-.02-.05-.04-.08-.05s-.06-.03-.09-.05c-.21-.1-.44-.2-.67-.28-.06-.02-.12-.04-.18-.05-.67-.12-1-.14-1.67 0-.33.08-.61.23-.85.45-.27.18-.49.41-.64.7q-.27.435-.3.93c-.07.33-.06.66.04 1l.25.6c.22.38.52.67.9.9l.6.25c.44.12.89.12 1.33 0Z" fill="#231f20" data-color="1"/>
        <path d="M348.16 34.75c3.78-1.17 6.17 3.13 6.93 6.48.43 1.91.67 4.07-.18 5.9-.77 1.67-2.19 2.85-3.75 3.66-2.82 1.46-6.64 1.38-8.97-.7-1.26-1.13-2.06-2.44-2.46-4.05-.34-1.34-.31-2.8.36-4.22.89-1.88 2.49-3.34 4.14-4.59.96-.73 1.96-1.47 3-2.08.83-.49 1.38-.71 2-.27 1.1.78 2.78.2 3.42-.9.73-1.25.21-2.64-.9-3.42-2.9-2.05-6.22-.36-8.74 1.4-2.3 1.61-4.49 3.33-6.18 5.59-3.37 4.53-2.83 10.53.64 14.82s9.5 5.41 14.49 3.48c2.66-1.03 4.93-2.73 6.57-5.07 1.92-2.75 2.15-6.09 1.66-9.31s-1.69-6.56-4.03-8.93-6.04-3.64-9.35-2.62c-3.06.95-1.76 5.78 1.33 4.82Z" fill="#231f20" data-color="1"/>
    </g>
</svg>
