<?xml version="1.0" encoding="UTF-8"?>
<svg data-bbox="8.602 7.519 760.551 122.365" viewBox="0 0 777.73 137.36" xmlns="http://www.w3.org/2000/svg" data-type="color">
    <g>
        <path d="M13.18 40.01c13.19-8.73 29.59-7.23 44.67-8.08 17.23-.98 34.31-3.8 50.98-8.27 3.88-1.04 2.23-7.07-1.66-6.03-17.96 4.82-36.32 7.65-54.91 8.3-14.48.51-29.69.37-42.23 8.68-3.34 2.21-.21 7.63 3.15 5.4" fill="#231f20" data-color="1"/>
        <path d="M92.95 61.1c-9.03 3.85-13.63 19.43-5.55 26.09 9.01 7.43 25.91 8.27 35.49 1.57 8.44-5.9 10.58-19.05 1.52-25.42-10.04-7.05-25.13-7.8-35.49-1.25-3.39 2.14-.26 7.55 3.15 5.4 7.01-4.43 15.37-4.46 23.06-1.76 3.42 1.2 7.51 2.89 8.71 6.65s-.7 8.04-3.5 10.49c-5.93 5.19-16.05 4.76-23.09 2.49-5.37-1.74-8.76-4.29-7.21-10.38.93-3.67 2.4-6.91 6.07-8.48s.51-6.96-3.15-5.4Z" fill="#231f20" data-color="1"/>
        <path d="M145.53 83.95c-.17-5.64-.21-11.28-.06-16.91.12-4.62-.38-14.17 5.95-14.83 5.63-.59 8.68 6.82 9.67 11.31 1.07 4.88.89 9.96.72 14.92h6.25c-.73-5.45-.68-10.9.62-16.27 1.03-4.26 5.7-17.65 11.05-9.14 2.77 4.4 2.24 10.69 2.22 15.66-.02 5.29.09 10.47 1.37 15.63.97 3.9 7 2.25 6.03-1.66-2.62-10.51 3.61-36.68-12.79-38.66-6.5-.78-9.65 4.69-11.79 9.97-3.15 7.78-4.09 16.17-2.97 24.48.52 3.87 6.11 4.15 6.25 0 .36-10.75-.72-33.1-16.45-32.74-6.22.14-10.32 5.59-11.57 11.21-1.91 8.6-1.02 18.32-.76 27.04.12 4.01 6.37 4.03 6.25 0Z" fill="#231f20" data-color="1"/>
        <path d="M205.47 78.91c-.33-5.32-.43-10.64-.21-15.96.12-2.81.29-5.63.59-8.43.26-2.45 1.27-10.57 5.98-5.61 3.34 3.52 3.57 11.15 4.2 15.65.82 5.86 1.4 11.75 1.83 17.65l6.14-.83c-1.51-6.61-1.81-13.35-1.36-20.11.32-4.89 3.15-17.5 10.73-12.01 5.12 3.71 3.55 11.51 2.9 16.83-.67 5.53-.66 10.47 1.52 15.64 1.56 3.69 6.94.51 5.4-3.15-3.65-8.66 2.05-18.28-1-27.18-1.93-5.62-7.24-10.41-13.48-9.46-16.64 2.53-13.27 29.97-10.73 41.1.77 3.38 6.4 2.72 6.14-.83-.65-8.82-1.43-17.82-3.2-26.49-1.16-5.69-3.75-13.91-10.49-15.02-6.49-1.07-9.69 5.15-10.45 10.52-1.29 9.14-1.32 18.51-.75 27.71.25 4 6.5 4.02 6.25 0Z" fill="#231f20" data-color="1"/>
        <path d="M325.5 75.99c13.11-20.81 25.46-42.08 37.03-63.78h-5.4c3.81 8.71 8.69 16.72 14.51 24.22 1.33 1.71 3.91.83 4.91-.63 2.06-3.01 4.12-6.02 6.19-9.03.31-.45 2.26-4.12 2.81-4.1 1.74.03 2.26 3.16 2.68 4.38 2.14 6.25 3.2 12.88 3.26 19.48s-1.25 13.13-2.81 19.68c-1.4 5.9-2.29 11.68-.28 17.54 1.29 3.78 7.33 2.16 6.03-1.66-3.03-8.86 1.92-18.54 2.91-27.49.92-8.31.28-16.8-1.81-24.9-1.22-4.72-3.4-14.8-10.25-13.94-2.43.31-3.75 1.93-5.12 3.75-3.18 4.22-6.01 8.77-9 13.13l4.91-.63c-5.48-7.07-9.94-14.77-13.53-22.96-.95-2.16-4.37-1.92-5.4 0-11.57 21.7-23.92 42.97-37.03 63.78-2.15 3.41 3.26 6.55 5.4 3.15Z" fill="#231f20" data-color="1"/>
        <path d="M411.48 62.77c5.22-6.74 16.54-12.86 22.76-3.53 2.71 4.07 4.54 10.39 2.01 14.95s-7.97 4.18-12.66 4.11c-2.17-.03-5.39.31-7.32-.74-1.85.02-2.66-.99-2.44-3.02.91-.6 1.87-1.08 2.89-1.46 4.03-1.7 9.18-2.97 13.08-.34 5.47 3.69 7.14 11.01 12.85 14.79 3.36 2.23 6.5-3.18 3.15-5.4-5.47-3.62-7-10.88-12.49-14.6-5.97-4.04-13.47-2.57-19.68.11-4.15 1.79-8.74 5.49-6.77 10.53 2.65 6.78 13.6 6.45 19.48 6.37 6.88-.1 12.8-1.6 15.89-8.41 2.72-6 1.21-13.15-1.84-18.74-7.63-14.01-24.98-9.83-33.33.95-2.43 3.14 1.96 7.6 4.42 4.42Z" fill="#231f20" data-color="1"/>
        <path d="M460.98 80.31c-.21-7.22-.67-14.48-.63-21.71.03-4.05 1.56-6.04 5.28-7.55 3.33-1.35 9.29-3.42 11.29.8 1.72 3.63 7.11.47 5.4-3.15-4.22-8.93-17.94-5.77-24.06-.57-3.48 2.96-4.19 6.81-4.13 11.19.09 6.99.41 13.99.61 20.98.12 4.01 6.37 4.03 6.25 0Z" fill="#231f20" data-color="1"/>
        <path d="M493.93 76.81c-.34-7-.14-14.07 1.06-20.99.65-3.79 1.51-8.05 4.88-10.41 3.57-2.5 7.26-1.59 8.9 2.44 1.98 4.86.78 10.6.56 15.68-.21 4.9.29 9.57 2.74 13.89 1.99 3.5 7.39.35 5.4-3.15-3.87-6.8-.9-15.14-1.51-22.52-.5-6.06-3.58-13.33-10.43-14.09-18.98-2.11-18.4 27.37-17.84 39.16.19 4 6.44 4.03 6.25 0Z" fill="#231f20" data-color="1"/>
        <path d="M565.39 27.51c8.22-6.58 19.64-5.94 29.37-3.92 10.78 2.23 21.28 5.72 32.43 5.06 4-.24 4.02-6.49 0-6.25-22.07 1.31-46.18-15.35-66.22.69-3.14 2.51 1.31 6.91 4.42 4.42" fill="#231f20" data-color="1"/>
        <path d="M589.7 22.61c7.81 6.43 8.4 16.96 7.55 26.36-1.07 11.84-4.1 23.57-6.47 35.21-.8 3.93 5.22 5.61 6.03 1.66 2.71-13.3 6.36-26.83 6.94-40.44.42-9.89-1.64-20.62-9.63-27.2-3.08-2.54-7.53 1.86-4.42 4.42Z" fill="#231f20" data-color="1"/>
        <path d="M620.87 61.7c1.71-3.34 7.69-4.65 11.23-4.74 6.18-.16 7.47 5.87 6.95 10.82-.43 4.12-1.28 9.89-4.44 12.87-2.77 2.62-7.43 3.55-11.13 3.41-1.48-.05-4.46-.2-5.36-1.7-2.13-3.54 1.63-3.93 3.63-4.46 3.94-1.04 9.37-2.83 13.35-1.24 5.34 2.14 6.67 8.93 12.57 10.95 3.81 1.3 5.45-4.73 1.66-6.03-3.03-1.04-4.47-4.41-6.45-6.7s-4.17-3.91-7.1-4.62c-5.81-1.41-14.39.38-19.71 2.94-4.72 2.27-6.67 7.42-3.68 11.99 3.15 4.82 9.52 5.54 14.74 4.87 6.29-.81 12.11-3.52 15.02-9.41 2.75-5.56 4.32-14.03 2.68-20.13s-6.51-9.97-12.75-9.82c-5.75.14-13.81 2.35-16.62 7.83-1.83 3.57 3.56 6.74 5.4 3.15Z" fill="#231f20" data-color="1"/>
        <path d="M665 82.1c-.25-7.41-.42-15.38 2.17-22.45 1.5-4.1 4.15-6.05 8.25-7.19 2.12-.59 4.43-1.22 6.57-.45 2.39.86 2.99 2.28 4.07 4.54 1.74 3.63 7.13.46 5.4-3.15-1.97-4.12-4.62-7.66-9.5-8.02-5.06-.37-11.4 1.28-15.41 4.44-8.82 6.96-8.14 22.28-7.8 32.28.14 4.01 6.39 4.03 6.25 0" fill="#231f20" data-color="1"/>
        <path d="M716.32 51.85c-11.39-2.95-20.75 5.81-23.25 16.46-1.18 5.06-1.22 10.72 2.22 14.93 3.33 4.07 8.95 5.89 14.04 6.18 10.44.6 20.74-6.49 21.32-17.49.52-9.81-9.66-21.56-19.8-20.86-3.99.27-4.02 6.53 0 6.25 6.11-.42 13.24 7.2 13.57 13.21.42 7.57-6.62 12.57-13.55 12.68-3.29.05-7.33-.78-9.88-3.01-3.16-2.76-2.67-7.34-1.69-11 1.85-6.93 7.6-13.32 15.35-11.31 3.9 1.01 5.56-5.02 1.66-6.03Z" fill="#231f20" data-color="1"/>
        <path d="M743.17 27.23c4.84 1.25 4.79 10.9 4.91 14.72.18 5.54-.37 11.07-1.01 16.57-1.21 10.52-2.55 20.84-1.02 31.41.57 3.97 6.6 2.28 6.03-1.66-1.95-13.45 1.54-26.83 2.18-40.24.39-8.24.88-24.15-9.43-26.83-3.9-1.01-5.56 5.02-1.66 6.03" fill="#231f20" data-color="1"/>
        <path d="M734.04 49.5c9.8.58 21.46-8.04 30.5-2.32 3.41 2.16 6.55-3.25 3.15-5.4-11.07-7-22.16 2.15-33.66 1.46-4.02-.24-4 6.01 0 6.25Z" fill="#231f20" data-color="1"/>
        <path d="M255.13 50.97c-.49 10.01.72 31.03 15.97 28.25s15.51-20.1 14.53-31.74l-6.14.83c2.08 7.36 1.54 14.92 1.18 22.46-.38 8.11-.84 16.22-1.31 24.32-.47 8.09-2.02 14.81-5.57 22.11-1.74 3.59-3.85 7.58-8.56 6.02-4.25-1.41-5.39-6.18-4.71-10.16s-5.35-5.62-6.03-1.66c-1.3 7.65 1.61 16.16 9.92 18.12 10.04 2.38 14.27-7.42 17.45-15 4.35-10.38 3.92-22 4.52-33.06.62-11.44 2.31-23.63-.86-34.83-.93-3.27-6.44-2.79-6.14.83.69 8.22 1.82 20.6-7.27 24.87-11.36 5.33-11.02-15.24-10.72-21.37.2-4.02-6.06-4.01-6.25 0Z" fill="#231f20" data-color="1"/>
        <path d="M54.1 31.01c-1.84 27.11 2.51 54.3 12.76 79.47 1.5 3.68 7.55 2.07 6.03-1.66C62.82 84.1 58.54 57.64 60.35 31.01c.27-4.01-5.98-4-6.25 0" fill="#231f20" data-color="1"/>
    </g>
</svg>
