<?xml version="1.0" encoding="UTF-8"?>
<svg id="boarder" xmlns="http://www.w3.org/2000/svg" xmlns:xlink="http://www.w3.org/1999/xlink" viewBox="0 0 216 360">
  <defs>
    <style>
      .cls-1 {
        fill: none;
      }

      .cls-2 {
        fill: #ccc86d;
      }

      .cls-3 {
        fill: #d0cd88;
      }

      .cls-4 {
        fill: #b3af62;
      }

      .cls-5 {
        fill: #dbdac1;
      }

      .cls-6 {
        fill: #231f20;
      }

      .cls-7 {
        fill: #ee98bc;
      }

      .cls-8 {
        fill: #3d8abd;
      }

      .cls-9 {
        fill: #d8b6d6;
      }

      .cls-10 {
        fill: #fff;
      }

      .cls-11 {
        fill: #fbae48;
      }

      .cls-12 {
        fill: #ee352f;
      }

      .cls-13 {
        fill: #801c46;
      }

      .cls-14 {
        fill: #ae4d76;
      }

      .cls-15 {
        fill: #61b792;
      }

      .cls-16 {
        fill: #883c5c;
      }

      .cls-17 {
        fill: #a5a258;
      }

      .cls-18 {
        fill: #cb9dc8;
      }

      .cls-19 {
        clip-path: url(#clippath);
      }

      .cls-20 {
        fill: #408a6b;
      }
    </style>
    <clipPath id="clippath">
      <path class="cls-1" d="M0,15.06v329.88c0,8.32,6.94,15.06,15.49,15.06h185.02c8.56,0,15.49-6.74,15.49-15.06V15.06c0-8.32-6.94-15.06-15.49-15.06H15.49C6.94,0,0,6.74,0,15.06Z"/>
    </clipPath>
  </defs>
  <g class="cls-19">
    <path class="cls-9" d="M30.73,2.9c33.47,1.21,66.97,1.23,100.43,0,16.41-.61,32.79-1.56,49.17-2.7,1.32-.09,3.29.12,4.6-.21-5.76-.89-8.72-3.42-8.89-7.62.08.95.15,1.9.21,2.86.27,4.13.36,8.27.26,12.41-.19,7.82-1.04,15.05-2.64,22.66,8.83-1.15,17.67-2.31,26.5-3.46-3.56-6.66-5.79-14.54-6.23-21.63-.56-9.01-8.87-16.97-18.35-13.98-15.26,4.81-29.79,4.87-46.46,3.51-16.68-1.37-33.22-4.17-49.94-5.15-7.95-.47-15.94-.52-23.88.22-9.45.89-21.95,1.62-29.1,8.73-7.12,7.07-8.18,18.87-9.16,28.35-1.01,9.81-.25,19.46,1.35,29.17,1.74,10.57,17.48,14.16,24.24,6.4,6.31-7.25,13.21-13.27,16.48-22.64,3.49-9.97,1.93-20.53-2.67-29.81-7.28-14.68-31.52-4.44-26.5,11.17,1.42,4.41,1.71,7.93.78,11.87-2.26,9.6,6.96,22.33,17.84,17.84,17.9-7.38,36.21-13.64,54.88-18.75-3.72-8.83-7.45-17.67-11.17-26.5C62.32,22.34,32.79,40.18,3.94,59.08c-6.01,3.94-8.92,11.32-5.93,18.11,2.6,5.92,10.36,11.23,17.11,8.4,20.36-8.54,39.01-19.83,57.85-31.25,17.94-10.88,35.7-21.12,54.91-26.93-3.72-8.83-7.45-17.67-11.17-26.5C79.8,21.15,42.86,41.51,8.51,65.93c-4.8,3.42-7.84,8.32-6.92,14.45.84,5.61,4.73,10.54,10.39,12.05,17.37,4.64,35.98-3.8,51.91-10.16,16.03-6.4,31.65-13.73,47.06-21.48,29.07-14.62,58.23-30.96,88.07-42.43-3.72-8.83-7.45-17.67-11.17-26.5C134.34,29.69,76.87,61.29,19.49,92.76c-12.14,6.66-7.24,28.18,7.32,27.02s27.86-6.77,41.46-12.25c13.77-5.55,27.54-11.09,41.31-16.64,27.23-10.97,54.47-21.93,81.7-32.9,7.26-2.92,12.37-9.67,10.13-17.84-1.99-7.26-10.38-12.62-17.84-10.13-49.54,16.53-98.93,33.54-148.14,51.01-15.59,5.53-12.68,27.21,3.85,28.48,37.3,2.87,74.76,2.11,111.91-2.26-1.28-9.49-2.57-18.99-3.85-28.48-37.9,13.46-75.79,26.93-113.69,40.39,3.72,8.83,7.45,17.67,11.17,26.5,59.83-29.59,119.67-59.18,179.5-88.77-4.88-8.35-9.76-16.69-14.64-25.04-62.76,32.84-132.47,51.44-192.09,91.45-13.78,9.25-5.13,29.8,11.17,26.5,67.1-13.58,133.03-32.58,197.07-56.78-2.57-9.32-5.14-18.64-7.71-27.96-66.05,27.52-133.46,51.58-201.39,74.01,3.72,8.83,7.45,17.67,11.17,26.5,51.28-27.05,106.81-45.34,164.34-54.56l-7.71-27.96c-55.5,13.7-110.15,30.67-163.65,50.82,3.72,8.83,7.45,17.67,11.17,26.5,57.88-28.74,118.01-52.58,179.82-71.46-2.57-9.32-5.14-18.64-7.71-27.96-33.77,12.59-66.92,26.91-99.15,43.03-15.56,7.78-30.91,15.98-46.03,24.58-7.56,4.3-15.06,8.71-22.5,13.21-8.6,5.2-18.01,12.42-16.91,23.79.9,9.31,8.54,16.57,18.35,13.98,59.88-15.77,115.26-44.85,175.2-60.44-3.72-8.83-7.45-17.67-11.17-26.5-24.12,15.23-47.89,23.53-75.17,32.31-27.2,8.75-54.63,16.91-80.63,28.95-15.12,7-29.06,15.61-42.2,25.83-4.45,3.46-5.06,11.15-3,15.84,2.41,5.49,7.29,8.55,13.25,8.91,18.28,1.12,36.89-3.94,54.45-8.52,16.34-4.26,32.46-9.28,48.49-14.57,32.7-10.79,65.04-22.7,98.23-31.94,7.54-2.1,12.21-10.27,10.13-17.84s-10.17-11.85-17.84-10.13c-30.69,6.9-60.88,15.89-90.31,27.01-29.31,11.07-59.53,23.11-85.04,41.63-4.72,3.42-9.22,10.15-6.66,16.37,3.47,8.45,9.41,13.94,18.55,15.77,8.11,1.63,16.73,1.34,24.91.47,17.03-1.81,33.56-6.26,49.95-11.07,32.22-9.47,63.7-21.22,95.15-32.97,15.32-5.72,12.9-27.28-3.85-28.48-34.09-2.44-69.03,2.23-101.19,13.88-30.71,11.12-57.56,30.41-89.55,36.22-15.91,2.89-12.46,30.05,3.85,28.48-2.66-.39-4.74-1.67-6.25-3.85-.39-1.44-.36-1.35.09.27.27,1.61.34,1.94.21,1-.23-1.73-.08-.6.46,3.41.77,4.95,2.55,9.46,5.86,13.3,5.71,6.63,14.53,9.15,23.08,8.57,16.2-1.1,32.94-6.74,48.29-11.72,16.33-5.3,32.32-11.74,47.85-19.07,7.63-3.6,15.06-7.57,22.5-11.54,3.07-1.64,6.48-3.45,8.78-4.29,1.57-.57,3.15-1.09,4.77-1.49,1.07-.27,2.15-.5,3.24-.68-1.1.24-.73.27,1.12.08-3.42-8.25-6.84-16.5-10.25-24.75-6.27,5.91-15.25,10.77-23.37,13.52-10.49,3.55-21.46,5.5-32.39,7-24.33,3.33-48.1,6.71-71.36,14.99-11.54,4.11-25.73,7.98-28.92,21.5-3.54,15.01,10.82,24.91,23.74,26.89,24.82,3.82,50.41-2.99,74.16-9.85,12.64-3.65,25.1-7.89,37.33-12.71,6.85-2.7,13.65-5.57,20.38-8.57,2.79-1.25,5.57-2.53,8.34-3.83,1.23-.58,2.94-1.09,4.02-1.92.89-.45.94-.45.16,0-4.21.47-7.37-1.5-9.47-5.93v-7.71c-.51,3.59,3.95-4.43.09-.25-1.19,1.28-2.48,2.43-3.73,3.65-1.94,1.87.69-.25-1.72,1.4-1.22.84-2.46,1.66-3.73,2.42-6.09,3.65-8.66,4.55-15.21,6.49-6.15,1.82-12.41,2.99-18.73,4.04-1.79.25-2.01.29-.66.12-.97.13-1.93.25-2.9.36-1.94.23-3.87.45-5.81.65-4.2.43-8.41.79-12.62,1.06-16.22,1.07-32.49,1.07-48.73.43s-33.85-2.84-50.63.85c-8.06,1.77-11.57,10.48-10.13,17.84,3.21,16.42,16.82,28.05,31.9,33.62,17.21,6.35,36.19,2.7,53.24-2.26,17.66-5.14,35.22-10.14,53.33-13.5s35.75-5.21,54.01-6l-13.98-18.35c-.48,2.83,1.6-1.23-.11.88.27-.71.72-1.24,1.35-1.59.89-.62.73-.54-.47.25-2.96.75,2.24-.25-1.2.52-1.07.24-2.12.55-3.19.79-1.07.19-.86.19.62-.01-.63.07-1.27.13-1.91.16-1.53.07-3.06.15-4.59.19-3.97.11-7.94.08-11.9,0-15.13-.32-30.19-1.4-45.32-.42-29.37,1.89-58.38,8.75-87.94,6.52-7.82-.59-14.5,7.09-14.5,14.5,0,8.34,6.66,13.91,14.5,14.5,32.78,2.47,64.88-6.26,97.53-6.95,16.55-.35,33.07,1.46,49.62.79,14.33-.58,32.68-5.86,35.48-22.41,1.49-8.78-3.76-18.8-13.98-18.35-34.67,1.5-69.28,7.02-102.59,16.81-8.01,2.35-15.95,4.99-24.12,6.78-3.33.73-5.64,1.18-8.83,1.41-2.43.17-4.88.22-7.32.11-.62-.03-5.06-.68-2.04-.11-1.36-.26-2.7-.54-4.03-.91-.52-.14-5.54-1.97-3.04-.88-2.5-1.09-4.91-2.49-7.11-4.1,2.19,1.62-1.21-1.29-1.63-1.67-.47-.47-.92-.96-1.35-1.46.89,1.22.86,1.15-.1-.22-.65-1.15-1.38-2.22-1.89-3.44,1.17,2.78-.37-2.27-.49-2.87l-10.13,17.84c7.84-1.72,17.01-1.23,25.59-.72,9.35.55,18.7,1.04,28.06,1.23,19.16.4,38.37-.22,57.4-2.59,16.38-2.04,32.42-5.11,47.25-12.69s39.57-29.29,19.43-45.18c-9.8-7.73-20.45-3.43-30.4,1.28-7.88,3.73-15.49,7.03-23.5,10.15-16.53,6.44-33.47,11.81-50.69,16.09-8.23,2.04-17.35,4.23-25.29,5.26s-16.98,1.74-23.97-.6c-1.58-.53.04.04.31.13-3.37-1.13-.1-.62-.19-.1-.48,2.79,6.34,12.75-1.35,13.56.58-.06,1.13-.82,1.72-.95.2-.05,1.78-.76,3.42-1.4,2.28-.89,4.57-1.74,6.87-2.56,8.63-3.08,17.44-5.67,26.35-7.77,38.92-9.18,82.41-5.82,113.57-35.19,9-8.48,2.23-25.21-10.25-24.75-18,.66-32.8,10.91-48.42,18.67-14.39,7.15-28.78,13.07-44.04,18.2-7.84,2.63-15.77,5-23.76,7.11-3.85,1.01-7.72,1.97-11.6,2.86-2.39.55-4.78,1.1-7.18,1.57-.42.08-4.42.44-1.53.29-.91.08-1.82.11-2.74.1-1.77-.11-1.79-.08-.07.07l-1.22-.35c.85.17,1.6.54,2.26,1.11,1.65,3.33,2.09,3.79,1.29,1.4-.28-1.6-.35-1.93-.22-.99.3,1.5-.68-5.33-.94-6.33-2.47-9.59-11.19-18.73-21.8-17.71,1.28,9.49,2.57,18.99,3.85,28.48,31.54-5.72,58.72-24.79,87.83-35.59,30.88-11.46,62.4-15.82,95.2-13.47-1.28-9.49-2.57-18.99-3.85-28.48-27.82,10.39-55.66,20.78-84.03,29.6-13.97,4.34-28.1,8.57-42.44,11.54-6.36,1.32-11.84,2.16-18.36,2.42-3.72.15-7.46.11-11.18-.2,3.43.29-1.1-.25-1.02-.37.99-1.46,4.96,7.06,4.14,5.06l-6.66,16.37c24.07-17.48,52.2-29.01,79.86-39.37,28.87-10.81,58.48-19.58,88.56-26.35-2.57-9.32-5.14-18.64-7.71-27.96-32.59,9.07-64.36,20.72-96.45,31.35-16.02,5.31-32.14,10.37-48.46,14.68-15.8,4.18-32.14,8.97-48.55,7.96,3.42,8.25,6.84,16.5,10.25,24.75-1.12.87,1.68-1.23,2.07-1.51,1.47-1.07,2.96-2.11,4.47-3.14,2.79-1.89,5.63-3.7,8.51-5.44,5.99-3.6,12.17-6.88,18.47-9.89,11.58-5.54,22.56-9.65,35.79-14.19,26.21-8.97,53.01-16.25,78.75-26.57,15.26-6.12,30.15-13.04,44.06-21.82,13.76-8.69,5.05-30.72-11.17-26.5-59.94,15.59-115.32,44.67-175.2,60.44l18.35,13.98c-.45,1.58-1.17,3.03-2.15,4.38,1.14-1.05,1.37-1.28.68-.71-.7.55-.42.38.84-.48,1.06-.65,2.12-1.29,3.19-1.94,3.19-1.93,6.39-3.84,9.6-5.74,6.96-4.1,13.97-8.12,21.02-12.05,14.11-7.86,28.43-15.36,42.92-22.5,28.49-14.04,57.48-26.53,87.22-37.62,7.33-2.73,12.33-9.81,10.13-17.84-2.04-7.41-10.32-12.42-17.84-10.13-64.15,19.6-126.66,44.55-186.74,74.38-14.51,7.21-4.31,32.33,11.17,26.5,53.5-20.15,108.15-37.12,163.65-50.82,7.6-1.88,12.16-10.43,10.13-17.84-2.26-8.24-10.08-11.37-17.84-10.13-59.79,9.59-117.72,29.24-171.26,57.49-14.39,7.59-4.53,31.69,11.17,26.5,67.93-22.44,135.34-46.49,201.39-74.01,7.22-3.01,12.39-9.61,10.13-17.84-1.93-7.02-10.47-12.91-17.84-10.13-64.04,24.2-129.97,43.2-197.07,56.78,3.72,8.83,7.45,17.67,11.17,26.5,59.71-40.07,128.72-58.29,192.09-91.45,6.94-3.63,9.02-13.31,5.2-19.84-4.18-7.15-12.79-8.69-19.84-5.2-59.83,29.59-119.67,59.18-179.5,88.77-14.58,7.21-4.37,32.03,11.17,26.5,37.9-13.46,75.79-26.93,113.69-40.39,6.78-2.41,11.5-8.48,10.39-15.91-.97-6.43-6.99-13.43-14.24-12.57-37.15,4.37-74.61,5.13-111.91,2.26,1.28,9.49,2.57,18.99,3.85,28.48,49.22-17.48,98.6-34.48,148.14-51.01-2.57-9.32-5.14-18.64-7.71-27.96-26.62,10.72-53.24,21.44-79.86,32.16-13.16,5.3-26.32,10.6-39.47,15.9-11.75,4.73-25.27,11.72-37.43,12.69,2.44,9.01,4.88,18.01,7.32,27.02,57.38-31.47,114.85-63.07,168.36-100.9,5.88-4.16,9-11.14,5.93-18.11-2.67-6.06-10.26-11.03-17.11-8.4-30.62,11.77-59.47,27.27-88.64,42.13-13.54,6.9-28.19,14.15-41.57,19.77-7.09,2.97-14.29,5.7-21.58,8.17-3.92,1.33-7.89,2.68-11.91,3.67-3.41.83-5.23,1.06-7.93.34,1.15,8.83,2.31,17.67,3.46,26.5,34.35-24.42,71.29-44.78,108.18-65.03,14.33-7.86,4.64-31.28-11.17-26.5-20.98,6.34-40.27,16.85-58.96,28.11-17.32,10.44-36.35,22.75-53.8,30.07,3.72,8.83,7.45,17.67,11.17,26.5,28.85-18.9,58.38-36.73,88.53-53.48,14.43-8.01,4.65-30.84-11.17-26.5-18.67,5.11-36.98,11.37-54.88,18.75,5.95,5.95,11.89,11.89,17.84,17.84,2.14-9.08,2.09-18.36-.78-27.29-8.83,3.72-17.67,7.45-26.5,11.17-.81-1.64.61,2.06.66,2.29-.32-1.52-.06.02,0,.73.1,1.22-.38,3.13-.73,3.78-1.25,2.34-.98,1.8-3.38,4.32-1.96,2.05-3.97,4.04-5.83,6.19l24.24,6.4c-1.01-6.15-1.15-14.44-.32-21.46,0-.02,1.53-10.21,2.13-10.17-1.07,1.24-2.15,2.47-3.22,3.71-1.17.52-.91.51.76-.02,1.67-.26,3.36-.69,5.02-1,11.92-2.27,28.64-1.07,42.22.34,30.12,3.14,60.68,8.78,90.34-.55-6.12-4.66-12.24-9.32-18.35-13.98.79,12.87,4.1,24.88,10.19,36.27,5.7,10.66,23.94,8.72,26.5-3.46,2.09-9.97,3.44-20.18,3.68-30.37.2-8.63.99-19.72-3.72-27.33-6.71-10.87-18.47-9.28-29.32-8.55-9.17.62-18.35,1.14-27.53,1.57-38.04,1.79-76.15,1.95-114.21.58-7.83-.28-14.5,6.87-14.5,14.5,0,8.09,6.64,14.22,14.5,14.5h0Z"/>
    <path class="cls-8" d="M187.53,341.79c-70.82-7.84-142.18-15.6-213.46-9.37,4.17,7.27,8.35,14.55,12.52,21.82,4.23-7.96,8.45-15.92,12.68-23.88,2.11-3.98,4.23-7.96,6.34-11.94.88-1.65,2.07-3.36,2.72-5.12.6-1.64,1.07-.53-.12-.41-.33.03-6.31,1.99-6.33,2.03-.04.07-3.37-2.03.82.44.68.4,1.34.81,2,1.23,1.7,1.08,3.37,2.22,5.08,3.29,3.47,2.19,7.01,4.26,10.61,6.24,7.78,4.27,15.84,7.95,24.02,11.37,32.33,13.5,66.84,19.86,101.53,23.59,20.78,2.24,41.65,3.42,62.51,4.6v-29c-73.96-.62-148.46-1.29-220.15-20.75-1.28,9.49-2.57,18.99-3.85,28.48,37.78.1,75.48,3.53,112.74,9.64,18.64,3.06,37.08,7.03,55.62,10.6,19.65,3.78,39.72,6.73,59.75,4.76,7.17-.71,13.34-4.97,14.24-12.57.84-7.08-3.3-13.94-10.39-15.91-78.16-21.72-158.95-31.19-239.32-40.64v29c74.54.9,149.01,5.39,223.12,13.43v-29c-70.7-6.65-141.26-14.67-211.64-24.07v29c68.65-1.41,137.34-.16,205.9,3.75,16.18.92,19.91-25.14,3.85-28.48-63.03-13.13-126.24-26.08-190.46-31.83-7.09-.63-13.46,6-14.24,12.57-.77,6.43,3.17,14.83,10.39,15.91,57.54,8.59,115.35,15.3,173.34,19.95v-29c-53.26.89-106.52-1.94-159.39-8.47v29c73.75-2.3,147.56-1.57,221.25,2.18v-29c-69.87-3.3-139.75-6.61-209.62-9.91v29c60.21-5.02,120.43-10.03,180.64-15.05,7.8-.65,14.5-6.2,14.5-14.5s-6.66-13.95-14.5-14.5c-73.14-5.11-146.59-4.94-219.7.51-7.81.58-14.5,6.25-14.5,14.5,0,7.4,6.65,15.08,14.5,14.5,73.12-5.44,146.56-5.61,219.7-.51v-29c-60.21,5.02-120.43,10.03-180.64,15.05-7.8.65-14.5,6.2-14.5,14.5s6.65,14.13,14.5,14.5c69.87,3.3,139.75,6.61,209.62,9.91,7.83.37,14.5-6.93,14.5-14.5,0-8.18-6.65-14.1-14.5-14.5-73.69-3.75-147.5-4.48-221.25-2.18-7.83.24-14.5,6.49-14.5,14.5,0,8.64,6.69,13.54,14.5,14.5,52.86,6.53,106.13,9.36,159.39,8.47,7.83-.13,14.5-6.57,14.5-14.5,0-8.37-6.66-13.87-14.5-14.5-55.41-4.45-110.65-10.7-165.63-18.91-1.28,9.49-2.57,18.99-3.85,28.48,61.62,5.52,122.27,18.2,182.75,30.8,1.28-9.49,2.57-18.99,3.85-28.48-68.56-3.91-137.25-5.16-205.9-3.75-7.83.16-14.5,6.55-14.5,14.5,0,8.7,6.7,13.46,14.5,14.5,70.38,9.39,140.95,17.42,211.64,24.07,7.81.73,14.5-7.19,14.5-14.5,0-8.54-6.68-13.65-14.5-14.5-74.11-8.04-148.58-12.52-223.12-13.43-7.84-.1-14.5,6.73-14.5,14.5,0,8.6,6.69,13.58,14.5,14.5,77.83,9.15,155.87,18.56,231.61,39.61,1.28-9.49,2.57-18.99,3.85-28.48-18.89,1.86-37.38-.8-55.87-4.48-18.52-3.68-36.99-7.5-55.65-10.47-38.57-6.15-77.52-9.95-116.59-10.05-16.31-.04-19.74,24.17-3.85,28.48,74.16,20.13,151.54,21.14,227.86,21.79,7.84.07,14.5-6.71,14.5-14.5,0-8.22-6.65-14.06-14.5-14.5-37.24-2.11-74.7-4.14-111.14-12.67-16.42-3.85-33.52-9.14-48.17-15.84-7.72-3.53-15.25-7.5-22.5-11.93-8.44-5.16-16.57-11.48-27.1-9.87-12.76,1.95-17.26,14.16-22.61,24.24s-10.26,19.33-15.4,28.99c-4.74,8.93.96,22.83,12.52,21.82,71.28-6.23,142.64,1.53,213.46,9.37,7.8.86,14.5-7.28,14.5-14.5,0-8.56-6.68-13.63-14.5-14.5h0Z"/>
    <path class="cls-18" d="M171.84,256.84c-16.42-7.02-33.76-8.04-51.4-9.02-16.84-.93-33.76-1.1-50.39,2.19-7.68,1.52-19.85,3.56-24.08,10.84-3.15,5.42-1.7,12.35,3.25,16.13,3.7,2.83,8.78,3.56,13.23,4.59,17.82,4.13,36.19,6.2,54.48,6.25,9.85.03,19.79-.26,29.55-1.69,4.23-.62,8.24-1.63,12.19-3.27,2.17-.9,4.28-1.83,6.24-3.12.66-.44,1.28-.91,1.92-1.39,4.72-3.51,1.75-.78-1.22-1.7l-6.95-17.09,4.95-2.86c-14.95.35-15,23.62,0,23.27,6.52-.15,11.71-3.16,15.15-8.67,4.11-6.57,0-14.93-6.95-17.09-10.56-3.28-16.05,5.86-25.21,8.27-8.55,2.25-17.97,1.99-26.74,2.06-10.28.08-20.6-.38-30.81-1.68-4.65-.59-9.27-1.4-13.87-2.32-3.9-.78-9.9-1.39-13.03-2.75l4.17,4.17-.45-.78v11.74l.39-.7-4.17,4.17c5.25-2.88,15.39-4.52,22.47-5.22,8.63-.85,17.33-.87,25.99-.57,15.96.55,34.58-.09,49.55,6.3,5.77,2.47,12.47,1.72,15.92-4.17,2.86-4.89,1.64-13.44-4.17-15.92h0Z"/>
    <path class="cls-7" d="M47.81,267.58c1.55,8.62,9.78,12.38,17.68,13.27,10.39,1.16,20.48,2.4,30.77,4.32,20.63,3.84,41.66,1.8,61.99-3.14,7.26-1.77,16.92-4.55,20.3-12.02s-2.59-14.36-9.43-16.91c-19.93-7.42-42.2-2.78-62.85-3.1-11.49-.18-23.48-1.39-34.87.45-4.87.79-9.58,2.45-13.45,5.58-1.73,1.4-3.3,3.04-4.5,4.93-1.14,1.79-1.52,4.02-2.7,5.72l2.39-1.84-.87.26,3.08.4-.83-.63,1.84,2.39c-3.16-10,22.41-10.77,27.63-11.32,11.16-1.18,22.37-1.79,33.58-2.19,5.45-.19,10.9-.33,16.35-.46,5.09-.12,10.5-.7,15.49.53,5.38,1.32,10.65,4,15.69,6.25,2.26,1.01,4.93,1.9,6.97,3.3,1.74,1.19,2.38,1.49,1.24,3.3-.85,1.35-2.47,2.01-3.82,2.73-4.54,2.43-.51,9.34,4.04,6.91s9.39-6.33,8.7-12.24c-.75-6.4-8.07-8.66-13.1-10.9-5.86-2.62-12.19-5.9-18.48-7.29-7.25-1.59-15.15-.63-22.51-.44-15.38.4-30.77,1.01-46.07,2.71-10.84,1.21-28.74,1.19-33.18,13.74-1.37,3.89-1.15,10.85,4.43,11.07,2.12.08,3.94-1.33,4.91-3.1,1.82-3.32,2.35-6.06,5.72-8.39,5.48-3.78,12.74-3.74,19.12-3.81,8.37-.1,16.74.27,25.11.36,15.21.17,30.57-2.37,45.71-.2,4.12.59,20.12,2.18,17.18,9.27-2.23,5.38-13.75,7.02-18.47,7.99-16.99,3.48-34.3,5.86-51.52,2.87-8.21-1.43-16.33-3.34-24.62-4.26-6.83-.75-19.33.83-20.97-8.23-.91-5.06-8.62-2.92-7.71,2.13h0Z"/>
    <path class="cls-15" d="M78.78,255.17c-6.7-1.63-13.81.33-18.34,5.68-4.39,5.18-4.13,11.73,2.98,13.66,9.26,2.52,19.33,3.21,28.83,4.49s18.5,2.25,27.97,1.76c16.38-.86,33.79-.64,47.62-10.64,2.2-1.59,5.3-3.41,5.55-6.41.29-3.45-3.16-6.05-5.75-7.73-7.33-4.72-17.01-4.44-25.4-4.65-22.78-.57-45.56,1.69-68.25,3.39-5.1.38-5.14,8.39,0,8,15.58-1.17,31.17-2.52,46.79-3.16,7.8-.32,15.61-.43,23.41-.17,6.16.2,18.19-.64,21.82,5.81l-.4-3.08c.49-1.42-1.48.86-1.8,1.1-.97.71-1.97,1.38-2.99,2.01-2.34,1.46-4.79,2.77-7.39,3.7-4.21,1.51-8.62,2.02-13.06,2.36-9.56.73-19.2,1.82-28.79,1.67-10.65-.16-21.36-2.21-31.88-3.77-.97-.14-14.94-1.7-14.98-2.61.05,1.21,2.33-1.13,2.27-1.09,1.07-.77,1.89-1.57,3.14-2.12,2.15-.94,4.26-1.06,6.53-.51,5,1.22,7.13-6.49,2.13-7.71h0Z"/>
    <path class="cls-11" d="M69.58,272.15c11.43,1.95,22.96,2.64,34.54,2.77,10.91.12,21.98.44,32.79-1.17,5.34-.8,10.64-1.85,15.96-2.81,3.61-.65,9.88-.79,10.18-5.72.49-8.06-15.42-7.97-20.5-8.34-12.09-.89-24.17-1.51-36.28-.6-5.31.4-10.61.83-15.92,1.09-5.64.28-11.59-.14-17.17.85-3.55.63-7.5,2.23-9.15,5.69-1.56,3.28-.21,6.57,2.88,8.22,3.92,2.09,9.41,2.37,13.74,2.96,5.6.76,11.22,1.13,16.87,1.12,12.87-.03,26.07,1.13,38.88-.12,6.02-.59,12-1.59,17.92-2.78,4.51-.9,10.31-.89,12.21-5.74.54-1.38-.17-2.86-1.03-3.89-2.15-2.6-6.71-3.28-9.74-4.36-4.86-1.72-6.96,6.01-2.13,7.71,1.45.51,5.22,1.1,6.21,2.3l-1.03-3.89-.25.64,1.84-2.39c-2.64,1.54-7.07,1.7-10.07,2.27-3.99.77-8.01,1.46-12.05,1.92-7.06.8-14.03.71-21.11.35s-14.37.05-21.58-.03c-3.62-.04-7.24-.24-10.85-.61s-7.72-1.93-11.31-1.83l-1.73-.39c-.22,1.74.4,2.05,1.86.91,1.96,0,4.04-.46,6.03-.52,3.58-.11,7.16-.2,10.74-.38,7.05-.35,14.08-1.09,21.13-1.43,7.84-.38,15.69-.04,23.51.44,3.65.22,7.32.41,10.96.77,2.55.25,8.22.33,10.23,2.16l-1.17-2.83.05.74,1.98-3.45c-2.27,1.74-7.02,1.59-9.82,2.09-3.25.59-6.49,1.2-9.75,1.74-7.33,1.22-14.63,1.3-22.04,1.33-14.61.07-29.29-.03-43.73-2.5-5.04-.86-7.2,6.85-2.13,7.71h0Z"/>
    <path class="cls-12" d="M82.58,271.11c21.89,2.2,44.08-7.7,65.64-1.3v-7.71c-9.98,2.98-20.26,3.33-30.6,3.63s-20.37,1.56-30.03-1.04c-4.98-1.34-7.1,6.37-2.13,7.71,10.43,2.81,21.49,1.63,32.15,1.33s22.08-.74,32.73-3.91c3.8-1.13,3.81-6.58,0-7.71-22.45-6.67-45.06,3.29-67.76,1.01-5.12-.51-5.08,7.49,0,8h0Z"/>
    <path class="cls-2" d="M52.35,245.43c-2.07-1.59-2.56-3.97-2.44-6.41l-10.25,2.78c6.29,11.19,15.47,20.13,28.76,21.31,4.9.43,7.05-6.22,3.89-9.39-4.89-4.89-6.67-11.03-5.8-17.82.28-2.21-1.9-4.89-4.04-5.3-3.56-.7-6.02-3.67-5.07-7.35l-10.8-1.46c.44,9.95,3.45,19.36,9.18,27.54l8.64-6.67c-3.69-3.3-5.84-7.06-6.83-11.89-1.43-6.93-12.03-4-10.61,2.92,1.35,6.54,4.68,12.3,9.66,16.75,4.39,3.92,12.42-1.27,8.64-6.67-4.64-6.62-7.31-13.88-7.68-21.99-.27-6.02-9.21-7.68-10.8-1.46-2.35,9.16,3.27,19.03,12.76,20.88l-4.04-5.3c-1.22,9.52,2.28,18.86,9.02,25.6l3.89-9.39c-9.15-.81-15.09-8.44-19.26-15.86-2.78-4.95-9.99-2.48-10.25,2.78-.33,6.67,2.73,11.95,7.89,15.91,5.61,4.31,11.1-5.24,5.55-9.5h0Z"/>
    <path class="cls-2" d="M47.68,201.11c3.62,4.78,3.97,7.76.57,12.67-2.72,3.92-5.13,7.76-6.47,12.39-2.6,9.02-1.32,18.56,3.04,26.78,3.32,6.26,12.82.7,9.5-5.55-4.61-8.68-3.41-18.39,2.14-26.28,2.5-3.56,4.99-7.1,5.46-11.55.55-5.21-1.66-9.94-4.74-14.01-4.22-5.57-13.78-.09-9.5,5.55h0Z"/>
    <path class="cls-17" d="M76.62,263.47c10.56,8.72,23.78,10.9,37.15,9.81,11.61-.94,26.42-1.72,35-10.65,4.9-5.11-2.86-12.9-7.78-7.78-6.24,6.5-18.82,6.74-27.22,7.43-10.12.83-21.2.17-29.38-6.59-5.42-4.48-13.24,3.26-7.78,7.78h0Z"/>
    <path class="cls-3" d="M82.39,196.86c-7.17,6.21-13.08,14.38-15.37,23.7-2.65,10.79.52,20.99,4.47,31l9.19-5.35c-2.23-1.94-3.36-3.86-3.43-6.82-.16-7.07-10.91-7.09-11,0-.07,5.33,1.02,11.12,4.15,15.56,3.38,4.8,8.88,4.99,14.25,5.6,13.05,1.47,26.2,1.32,39.31,1.17l-1.46-10.8c-6.54,2-12.69,1.76-19.12-.56-5.9-2.14-9.64,7.08-4.24,10.05,14.61,8.03,30.22,2.85,44.39-3.41,6.87-3.03,12.29-6.63,14.72-14.09,2.43-7.45,2.7-16.1,2.11-23.85-.51-6.7-1.01-16.4-5.45-21.81-4.82-5.87-13.31-3.27-19.03-.37-7.3,3.7-13.76,7.42-22.04,8.6-4.13.59-17.26,2.13-19.36-3.33l-5.3,6.96c7.72.84,15.52,2.06,23.3,2.2s15.47-1.51,23.04-3.31c.74-.18,3.28-1.06,3.66-.79.43.31.47,4.3.55,5.08.4,4.01.59,8.04.57,12.07s-.08,8.03-.71,11.92-2.45,5.34-5.91,6.73c-7.07,2.84-14.67,4.49-22.29,3.71-4-.41-7.95-1.41-11.81-2.52-2.67-.77-8.48-1.5-10.43-3.52s-1.65-7.1-1.84-9.71c-.25-3.34-.74-7.2-.02-10.51.42-1.97.26-1.65,1.76-1.44,1.42.2,3.11,1.38,4.46,1.93,3.43,1.39,6.95,2.49,10.58,3.2,12.94,2.52,31.31,2.42,38.91-10.43l-10.25-2.78c-.11,6.8-.33,13.6-.7,20.39-.12,2.2.46,6.97-1.32,8.33-2.03,1.55-6.69,1.35-9.13,1.44-6.43.24-12.86-.82-18.86-3.17-1.97-.77-5.12-1.81-6.12-3.87-1.26-2.6.14-6.42.86-8.96l-5.3,4.04c15.13,1.67,31.14,9.53,45.14-.54l-8.08-6.21c-.94,3.8-1.91,7.59-2.91,11.37-.23.87-.46,1.74-.7,2.62-.05.78-.55.82-1.49.11-1.38.22-4-1.09-5.28-1.46-7.6-2.19-15.09-4.73-22.49-7.55l-1.46,10.8c14.75-.74,29.51-.58,44.24.48l-1.46-10.8c-10.39,2.81-20.79,5.62-31.18,8.43-6.83,1.84-3.93,12.46,2.92,10.61,10.39-2.81,20.79-5.62,31.18-8.43,6.22-1.68,4.56-10.37-1.46-10.8-14.73-1.06-29.49-1.22-44.24-.48-6.41.32-7.2,8.62-1.46,10.8,5.4,2.06,10.85,3.98,16.37,5.71,4.93,1.55,10.43,3.81,15.64,4.03,11.45.48,12.35-14.3,14.38-22.51,1.06-4.28-3.97-9.16-8.08-6.21-11.5,8.27-27.06.42-39.59-.96-2.38-.26-4.7,1.9-5.3,4.04-2.39,8.43-2.6,17.51,5.49,22.85s18.35,7.12,27.5,7.1c7.98-.02,19.23-.78,22.05-9.8,1.42-4.53,1.09-10.02,1.31-14.7.26-5.56.42-11.12.51-16.69s-7.51-7.41-10.25-2.78c-4.19,7.08-15.85,6.68-22.9,5.93-4.56-.49-9.14-1.7-13.39-3.42-4.13-1.67-7.94-4.06-12.56-2.71-7.87,2.29-8.73,11.55-8.57,18.39.18,7.99-.07,19.83,8.02,24.19,7.84,4.23,18.5,6.35,27.29,7.19,9.47.9,19.23-1.37,27.87-5.19s10.99-10.87,11.69-19.82c.39-4.94.45-9.91.2-14.86s-.27-10.4-1.75-14.95c-3.64-11.22-17.27-5.14-25.19-3.63-11.63,2.22-23.41.11-35.03-1.16-3.36-.37-6.51,3.84-5.3,6.96,4.45,11.53,18.15,12.67,28.91,11.53,6.36-.67,12.44-2.21,18.3-4.78,3.09-1.35,5.94-3.06,8.89-4.66,1.35-.74,3.09-1.87,4.65-2.1,2.48-.37,1.61-1.04,2.45,1.36,2.27,6.44,2.68,13.92,2.44,20.69-.21,5.92-.29,14.17-5.83,17.67s-12.88,6.06-19.27,7.7-13.6,1.79-19.73-1.58l-4.24,10.05c8.13,2.94,16.71,3.09,24.96.56,5.82-1.78,4.89-10.88-1.46-10.8-9.28.11-18.57.21-27.84-.26-4.54-.23-9.09-.56-13.59-1.17-4.95-.68-5.33-5.5-5.27-9.9h-11c.13,5.74,2.28,10.81,6.65,14.6,3.71,3.22,11.39.22,9.19-5.35-3.16-8.01-6.58-16.44-4.47-25.15,1.84-7.6,6.73-13.81,12.54-18.85,5.36-4.65-2.45-12.4-7.78-7.78h0Z"/>
    <path class="cls-5" d="M162.79,213.46c1.63-.92,3.51-1.72,5.03-2.83,2.07-.9,2.27-1.16.6-.79-1.45-.08-1.47.3-.06,1.15,1.46,2.41,3.61,4.31,4.98,6.88,2.56,4.81,3.78,10.27,3.67,15.7-.09,4.69-1.2,11.95-5.06,15.18-2.94,2.46-4.53-.37-6.94-2.04s-4.96-2.65-7.94-2.31c-5.48.63-7.4,6.94-2.78,10.25,3.64,2.61,7.29,5.22,10.93,7.83,5.76,4.13,11.26-5.41,5.55-9.5-3.64-2.61-7.29-5.22-10.93-7.83l-2.78,10.25c1.99-.23,3.53,2.01,5.07,3.09,1.81,1.27,3.69,2.05,5.89,2.3,4.58.51,9.06-1.46,12.18-4.78,5.9-6.27,8.11-16.19,7.79-24.57s-3.11-17.03-8.22-23.9c-2.29-3.08-5.37-7.22-9.21-8.36-4.69-1.39-9.49,2.61-13.33,4.77-6.17,3.47-.63,12.97,5.55,9.5h0Z"/>
    <path class="cls-5" d="M93.53,201.84c9.61,3.81,19.91.91,29.57-1.24,6.12-1.36,22.94-2.17,22.23-11.41-.32-4.14-3.85-6.18-7.54-6.91-4.87-.96-10.02-1.4-14.98-1.59s-9.92.13-14.72,1.28c-5.3,1.27-9.54,4.52-14.63,6.14l5.35,9.19c4.98-4.38,10.81-7.99,17.59-5.71v-10.61c-9.37,2.03-18.32,5.22-26.94,9.4-6.37,3.09-.8,12.58,5.55,9.5,7.77-3.77,15.87-6.47,24.31-8.29,5.63-1.22,4.81-8.98,0-10.61-10.61-3.58-20.43,1.63-28.29,8.54-4.13,3.63.23,10.83,5.35,9.19,6.9-2.2,12.22-6.34,19.7-6.94,3.36-.27,6.75-.15,10.11.11,1.52.12,8.73.05,9.74,1.19l-1.61-3.89.02.89,1.61-3.89c-1.31,1.48-7.02,1.86-8.96,2.29-3.41.76-6.82,1.52-10.23,2.27-6.85,1.52-13.55,3.16-20.31.48s-9.44,8.02-2.92,10.61h0Z"/>
    <path class="cls-4" d="M122.96,177.37c0-.12.01-.23.03-.35l-.2,1.46c.04-.23.1-.45.18-.66l-.55,1.31c.12-.27.25-.51.42-.75l-.86,1.11c.18-.23.38-.43.6-.62l-1.11.86c.23-.18.47-.32.74-.44l-1.31.55c.27-.11.54-.18.83-.22l-1.46.2h.17c-1.58-.92-3.17-1.83-4.75-2.74l.08.16-.55-1.31c.06.17.11.33.14.51l-.2-1.46c.03.24.03.47,0,.71l.2-1.46c-.04.18-.08.34-.14.51l.55-1.31c-.08.17-.16.31-.26.46l.86-1.11c-.12.14-.23.26-.37.38l1.11-.86c-.15.11-.29.2-.45.28l1.31-.55c-.23.09-.44.16-.68.2l1.46-.2c-.18.02-.35.02-.53,0l1.46.2c-.18-.03-.34-.07-.52-.12-1.31-.44-3.07-.13-4.24.55s-2.23,1.98-2.53,3.29c-.69,3.03.92,5.8,3.84,6.77,2.64.87,6.01.02,7.85-2.08,1.28-1.46,1.89-3.02,2.07-4.94.14-1.49-.34-2.84-.97-4.16-.76-1.61-2.99-2.87-4.75-2.72-2.26.18-4.34.93-5.95,2.58s-2.41,3.7-2.53,5.98c-.07,1.36.66,2.94,1.61,3.89s2.52,1.67,3.89,1.61c3.11-.14,5.34-2.42,5.5-5.5h0Z"/>
    <path class="cls-7" d="M103.55,228.58c-.01-.17-.03-.35-.03-.52,0-.1,0-.21,0-.31v.12c-.31.34.08-.19-.08.08-.11.17.18-.12-.12.08.05-.03.43-.25.18-.13s.17-.04.22-.06c.34-.12-.17-.03.03-.01.14,0,.3,0,.44,0-.29-.01.02,0,.15.03.16.03.32.08.48.12.32.09.63.21.94.33.61.24,1.21.51,1.84.69,1.23.36,2.64.45,3.86.02.71-.25,1.38-.65,1.87-1.24.23-.28.47-.59.67-.9.12-.19-.26.22.02,0-.1.08-.63.27-.28.22l-2.53-1.93c.04.94.04,1.88-.03,2.82-.04.53.08-.19-.02.21-.04.16-.08.32-.12.48-.1.45.13-.26-.05.11-.12.19-.11.18.03-.03-.07.08-.15.15-.24.21h2.83c-.05-.04-.33-.35-.16-.12.16.21-.03-.07-.05-.12-.04-.09-.18-.44-.02-.03-.04-.1-.08-.2-.12-.3-.28-.68-.56-1.3-1.08-1.82-.93-.93-2.31-1.26-3.58-1.1-1.34.17-2.56.68-3.75,1.32-.57.3-1.12.64-1.67.98-.27.17-.54.33-.81.5-.24.14-.11.01-.07.05.37-.09.66.02.89.31.23.11.39.27.48.5v1.06l.02-.14c.14-1.03-.25-2.2-1.4-2.46-.94-.21-2.31.29-2.46,1.4-.16,1.16.14,2.23,1.18,2.89.94.59,2.05.5,3.02.04,1.25-.59,2.35-1.46,3.6-2.05.04-.02.44-.19.21-.1.12-.05.23-.09.35-.13.26-.09.52-.13.78-.21-.4.11-.11.01.03,0,.13,0,.26,0,.4,0-.34,0-.12-.12,0,.02.11.03.1.02-.03-.03-.14-.07-.13-.06.03.02.33.18-.18-.14,0,.02.15.12-.16-.32,0,.04.09.2.07.11,0-.04.07.15.12.3.18.45.29.7.6,1.4,1.21,1.89.9.72,1.92.76,2.83,0,1.84-1.54,1.69-4.47,1.6-6.63-.06-1.42-1.23-2.12-2.53-1.93-.95.14-1.6.88-2.13,1.62-.07.1-.15.21-.22.31.27-.39-.01-.02-.09.06.21-.23.09-.08-.11.03.22-.13.2-.07-.03-.01s-.28.05-.02.03c-.16.01-.33.02-.49.02s-.33-.02-.5-.03c.36.04.06,0-.12-.05-.68-.16-1.33-.45-1.97-.71-1.47-.58-3.13-.99-4.68-.45-.91.32-1.66.85-2.21,1.64s-.67,1.88-.59,2.86c.08,1.04.86,2.05,2,2,1.01-.05,2.09-.88,2-2h0Z"/>
    <path class="cls-7" d="M135.76,222.17c-1.1-.66-2.45-.45-3.4.37-.71.61-1.03,1.55-1.18,2.45-.17,1.05-.35,2.19.24,3.15s1.79,1.48,2.92,1.33c1.06-.14,1.88-.72,2.48-1.6.25-.36.41-.77.58-1.18.06-.16.12-.31.17-.47.02-.06.2-.56.11-.34s.14-.25.17-.3c.08-.12.06-.1-.06.07-.18.12-.21.14-.09.06.13-.07.09-.06-.12.04-.11.03-.23.03-.34,0-.12,0-.22-.04-.33-.1-.21-.17-.26-.2-.16-.09.1.11.06.07-.1-.13.04.06.08.12.11.18.07.12.15.24.23.35.35.5.65.8,1.15,1.15,1.09.76,2.59-.04,2.94-1.2.09-.3.19-.6.3-.89-.1.26,0-.01.06-.13.07-.14.14-.28.21-.42.13-.25.28-.49.43-.73.09-.13.18-.26.27-.39l.11-.15c-.19.33-.51.5-.97.5l-1.01-.27c-.43-.53-.56-.64-.4-.35.06.12.12.25.18.37.09.19.18.37.26.56.2.44.4.88.59,1.32-.12-.29.09.23.12.29.1.26.21.51.31.77.08.19.15.39.22.58.05.13.1.26.14.39.11.37.14.25.1-.37l.51-.88,1.76-.25c.19.17.23.2.12.1-.04-.04-.24-.29-.1-.08.17.24-.06-.13-.09-.18.13.22.07.2,0-.03s-.12-.46-.17-.7-.01-.11,0,.05c-.01-.16-.03-.32-.05-.48-.1-1.04-.85-2.05-2-2-1,.04-2.1.88-2,2,.17,1.81.57,3.93,2.38,4.82,1.58.78,3.56-.12,3.59-2,.02-.96-.57-2.02-.93-2.9-.39-.96-.8-1.91-1.24-2.84-.57-1.23-1.54-2.27-3.06-1.85-1.12.31-1.81,1.4-2.37,2.35-.5.85-.89,1.78-1.17,2.72l2.94-1.2.19.14c-.12-.13-.12-.13-.02,0,.18.22-.01-.03-.04-.08-.18-.29-.37-.55-.58-.82-.42-.52-1.02-.9-1.67-1.05-1.64-.37-3.23.7-3.89,2.17-.15.34-.29.7-.42,1.05-.04.11-.08.22-.12.33-.12.35.11-.16-.02.04-.05.08-.11.19-.16.28-.08.17.23-.18-.03.02.13-.1.23-.16.39-.22-.3.11.12-.02.26,0,.18.03.32.1.47.21s.57.56.45.73c.04-.06.03-.3.03-.38-.02.37,0-.05.02-.13.02-.12.09-.75.19-.79-.02,0-.13.26-.17.3-.3.32-.98.37-1.33.15.9.54,2.24.23,2.74-.72s.24-2.16-.72-2.74h0Z"/>
    <path class="cls-7" d="M154.94,220.23c-.02-.07-.04-.15-.05-.22l.07.53c-.02-.15-.02-.3,0-.46l-.07.53c.02-.13.06-.25.1-.37l-.2.48c.06-.14.14-.27.23-.39l-.31.4c.07-.08.14-.15.22-.22l-.4.31c.11-.08.22-.15.34-.2l-.48.2c.13-.05.25-.09.38-.11l-.53.07c.16-.02.32-.02.48,0l-.53-.07c.13.02.26.06.38.1l-.48-.2c.35.16.67.36,1.04.49.62.23,1.42.16,1.98-.2.75-.47,1.1-1.3,1.51-2.05l-3.66-.48c.27.9.63,1.78,1.04,2.62l2.26-2.94c-1.32-.39-2.9-.6-4.08.28-.57.42-1.01.92-1.36,1.54-.21.38-.39.79-.65,1.15l.31-.4s-.07.08-.11.11l.4-.31-.06.04.48-.2-.07.02.53-.07h-.09c.18.03.35.05.53.07l-.09-.02.48.2c-.4-.17-.77-.42-1.15-.64-.91-.52-2.23-.25-2.74.72s-.26,2.19.72,2.74c.35.2.7.42,1.07.6,1.1.56,2.32.35,3.08-.63.43-.56.67-1.23,1.09-1.8l-.31.4c.11-.14.22-.26.36-.37l-.4.31c.11-.08.22-.15.35-.21l-.48.2c.14-.05.27-.09.42-.12l-.53.07c.24-.03.47-.03.71,0l-.53-.07c.36.05.72.15,1.07.25.77.23,1.63-.1,2.1-.72.51-.67.52-1.48.16-2.22-.12-.24-.23-.48-.33-.73l.2.48c-.19-.46-.36-.93-.51-1.42-.23-.77-.87-1.33-1.66-1.43s-1.6.25-1.99.95c-.23.41-.44.86-.7,1.25l.31-.4-.06.06.4-.31-.07.04.48-.2s-.09.03-.14.03l.53-.07h-.07c.18.02.35.04.53.07-.08-.02-.15-.04-.23-.07l.48.2c-.34-.16-.64-.34-1-.48-.32-.12-.66-.16-.99-.19-.68-.04-1.47.15-2.03.53-1.3.88-1.95,2.45-1.52,3.99.28,1.01,1.43,1.73,2.46,1.4s1.7-1.38,1.4-2.46h0Z"/>
    <path class="cls-7" d="M77.05,223.52c-.08.65-.14,1.31-.06,1.97.07.57.15,1.04.37,1.57s.48.93.87,1.36c.48.52,1.28.7,1.95.51.71-.2,1.15-.73,1.4-1.4.29-.8.57-1.61.88-2.4l-.2.48s.03-.07.06-.1l-.31.4.04-.04-.4.31.05-.03-1.01.27h.06c-.18-.03-.35-.06-.53-.08h.06c-.16-.05-.32-.12-.48-.19.04.02.08.04.12.07l-.4-.31c.07.07.13.14.19.22l-.31-.4c.24.32.4.69.59,1.04.31.57.73,1.14,1.29,1.49.69.42,1.59.48,2.3.07.28-.16.52-.37.74-.61.36-.38.71-.76,1.07-1.14l-3.34-.88c.05.19.1.37.12.56l-.07-.53c.04.33.04.66,0,.99l.07-.53c-.05.3-.12.59-.24.87l.2-.48c-.03.08-.07.15-.1.23-.24.49-.35,1-.2,1.54.13.46.49.97.92,1.2.46.25,1.03.37,1.54.2.47-.15.97-.45,1.2-.92.64-1.31.84-2.77.42-4.19-.2-.67-.71-1.21-1.4-1.4s-1.46,0-1.95.51c-.43.45-.83.95-1.29,1.37l.4-.31s-.07.05-.11.06l.48-.2h-.06c.18-.01.35-.03.53-.06h-.08c.18.02.35.04.53.06l-.07-.03.48.2-.07-.05.4.31c-.1-.08-.18-.17-.26-.27l.31.4c-.27-.36-.44-.77-.67-1.16-.5-.89-1.31-1.71-2.4-1.66-.9.04-1.63.58-1.97,1.4-.13.32-.25.64-.37.97l-.61,1.67,3.34-.88c-.05-.05-.1-.11-.14-.16l.31.4c-.13-.17-.23-.35-.31-.55l.2.48c-.1-.25-.16-.5-.2-.76l.07.53c-.09-.67-.02-1.34.06-2.01.06-.47-.27-1.09-.59-1.41-.35-.35-.92-.61-1.41-.59s-1.05.19-1.41.59l-.31.4c-.18.31-.27.65-.27,1.01h0Z"/>
    <path class="cls-7" d="M66.89,220.84c.12.07.24.14.35.23l-.4-.31c.17.13.31.28.44.44l-.31-.4c.14.19.26.39.35.6l-.2-.48c.09.22.15.44.19.67l-.07-.53c.03.23.03.46,0,.7l.07-.53c-.01.07-.02.14-.04.21l3.93.53c.03-.7.06-1.4.08-2.1.06-1.46-1.77-2.57-3.01-1.73-.05.04-.11.07-.17.1l.48-.2c-.08.03-.16.05-.24.07l.53-.07c-.11.01-.21.01-.32,0l.53.07c-.09-.02-.16-.04-.25-.07l.48.2c-.08-.04-.15-.08-.22-.13l.4.31c-.07-.05-.12-.11-.18-.18l.31.4c-.05-.07-.08-.13-.12-.2l.2.48c-.09-.23-.14-.47-.17-.71l.07.53c-.07-.59-.09-1.17-.06-1.76.03-.49-.24-1.07-.59-1.41s-.92-.61-1.41-.59c-1.13.05-1.94.88-2,2-.03.52-.02,1.05.04,1.57.08.73.16,1.41.54,2.06.8,1.37,2.81,1.9,4.15.99l-3.01-1.73c-.03.7-.06,1.4-.08,2.1-.04.99.79,1.84,1.73,1.96s1.98-.46,2.19-1.43c.44-1.97-.4-4.13-2.22-5.11-.47-.25-1.02-.34-1.54-.2-.46.13-.97.49-1.2.92-.49.93-.27,2.21.72,2.74h0Z"/>
    <path class="cls-6" d="M75.74,263.61c8.68,5.82,18.48,9.19,28.94,9.62,4.75.19,9.5-.15,14.21-.71s9.67-1.15,14.41-2.12c5.42-1.11,10.74-3.1,14.85-6.93.94-.88-.47-2.29-1.41-1.41-3.54,3.31-8.1,5.09-12.77,6.15s-9.27,1.59-13.91,2.17c-9.03,1.12-18.23,1.49-27.09-.91-5.81-1.57-11.22-4.24-16.21-7.59-1.07-.72-2.07,1.01-1.01,1.73h0Z"/>
    <path class="cls-6" d="M77.18,262.33v-1.24c0-.26-.11-.53-.29-.71-.09-.1-.2-.17-.32-.21-.12-.06-.25-.09-.39-.09-.26.01-.53.1-.71.29s-.29.44-.29.71v1.24c0,.26.11.53.29.71.09.1.2.17.32.21.12.06.25.09.39.09.26-.01.53-.1.71-.29s.29-.44.29-.71h0Z"/>
    <path class="cls-6" d="M149.2,262.33v-2.72c0-.52-.46-1.02-1-1s-1,.44-1,1v2.72c0,.52.46,1.02,1,1s1-.44,1-1h0Z"/>
    <path class="cls-6" d="M155.72,204.18c-.38-1.02-.7-2.08-1.19-3.05s-1.2-1.89-1.88-2.76c-1.82-2.34-4.39-4.23-7.43-4.41-.54-.03-1,.48-1,1,0,.57.46.97,1,1,2.49.15,4.63,1.95,6.05,3.87.54.74,1.12,1.48,1.53,2.3.04.08.08.16.12.24.11.23-.04-.1.04.09.07.17.13.34.2.51.21.57.42,1.15.63,1.73.19.51.68.85,1.23.7.49-.13.89-.72.7-1.23h0Z"/>
    <path class="cls-6" d="M155.96,247.25c3.49-5.84,4.96-12.13,5.2-18.9s-1.68-13.13-4.05-19.52c-.44-1.2-2.38-.68-1.93.53,2.25,6.07,4.16,11.99,3.99,18.55s-1.55,12.66-4.94,18.34c-.66,1.11,1.07,2.11,1.73,1.01h0Z"/>
    <path class="cls-6" d="M148.49,260.38c2.29-2.67,4.47-5.38,6.3-8.39.67-1.1-1.06-2.11-1.73-1.01-1.75,2.88-3.79,5.44-5.98,7.99-.35.41-.4,1.01,0,1.41.36.36,1.06.41,1.41,0h0Z"/>
    <path class="cls-6" d="M66.07,231.86c.12-7.77,1.89-15.52,6.09-22.14,3.62-5.7,8.9-10.39,15.29-12.72,1.2-.44.68-2.37-.53-1.93-6.78,2.47-12.37,7.3-16.28,13.32-4.52,6.97-6.44,15.23-6.56,23.46-.02,1.29,1.98,1.29,2,0h0Z"/>
    <path class="cls-6" d="M66.47,240.51c-.08-.28-.14-.56-.2-.85-.03-.14-.05-.27-.07-.41-.01-.08-.02-.15-.03-.23-.02-.16.02.15,0-.01-.07-.64-.11-1.28-.13-1.92-.05-1.74.01-3.48.03-5.22.01-1.29-1.99-1.29-2,0-.03,3.03-.32,6.22.47,9.18.33,1.24,2.26.71,1.93-.53h0Z"/>
    <path class="cls-6" d="M76.81,259.49c-2.24-.8-4.25-2.21-5.55-4.13-1.11-1.65-1.65-3.24-2.37-5.05-.2-.5-.67-.85-1.23-.7-.48.13-.9.73-.7,1.23.78,1.96,1.48,3.97,2.7,5.71,1.64,2.34,3.95,3.91,6.62,4.87.51.18,1.09-.21,1.23-.7.15-.55-.19-1.05-.7-1.23h0Z"/>
    <path class="cls-6" d="M64.96,233.16c-1.02-1.07-2.16-1.94-3.53-2.51-.8-.33-1.8-.46-2.52-.96-.97-.67-1.12-2.19-1.24-3.24-.26-2.13-.12-4.25.51-6.3s1.9-3.97,2.79-6.01c.75-1.72,1.11-3.59,1.26-5.46.14-1.69.14-3.49-.28-5.14s-1.18-3.23-1.94-4.74-1.64-3.04-2.76-4.35c-1-1.18-2.28-2.15-3.39-3.22-.93-.9-2.34.52-1.41,1.41,1.03.99,2.18,1.89,3.14,2.94s1.71,2.35,2.38,3.61c.82,1.55,1.62,3.18,2.06,4.88s.34,3.5.15,5.18c-.25,2.18-.97,4-2,5.91s-1.84,3.75-2.28,5.78-.44,4.09-.15,6.14c.18,1.28.47,2.68,1.36,3.67.72.8,1.7,1.1,2.69,1.42,1.49.49,2.66,1.26,3.75,2.4.89.93,2.3-.48,1.41-1.41h0Z"/>
    <path class="cls-6" d="M84.77,260.88c18.68,3.77,38.96,6.82,56.75-2,1.15-.57.14-2.3-1.01-1.73-17.26,8.55-37.11,5.45-55.21,1.8-1.26-.25-1.79,1.67-.53,1.93h0Z"/>
    <path class="cls-6" d="M86.99,196.91c4.71,7.15,13.59,6.47,21.1,6.16,8.22-.33,16.52-.87,24.52-2.89,4.44-1.12,8.75-2.73,12.77-4.93,1.13-.62.12-2.34-1.01-1.73-6.72,3.66-14.21,5.52-21.77,6.47-3.81.48-7.65.75-11.48.94s-7.8.51-11.66.29c-4.16-.23-8.37-1.72-10.75-5.33-.71-1.07-2.44-.07-1.73,1.01h0Z"/>
    <path class="cls-6" d="M51.94,191.2l-4.13,2-1,.48c-.19.09-.38.19-.57.28,0,0-.3.13-.29.11,0,0,.12.04.12.05.04.03.07.07.08.12,0,.11,0,.11,0-.01-.12.19.09-.05.01.01.08-.08.13-.16.24-.26.86-.78,2.06-1.43,3.21-1.69,1.04-.24,2.15-.13,3.04.52.44.32,1.11.07,1.37-.36.3-.51.08-1.05-.36-1.37-2.26-1.65-5.33-.83-7.47.59-1.1.73-2.51,1.81-1.89,3.31.3.72,1,1.14,1.78,1.08s1.48-.53,2.16-.85l4.71-2.27c.49-.23.62-.93.36-1.37-.29-.5-.88-.59-1.37-.36h0Z"/>
    <path class="cls-6" d="M44.18,195.16c2.24,2.63,4.67,5.41,5.8,8.74,1.21,3.57.1,6.97-1.51,10.22-2.81,5.68-6.33,11.02-8.52,16.99-.95,2.6-1.67,5.39-1.57,8.17.12,3.13,1.08,6.24,2.67,8.94,3.16,5.37,8.76,9.28,14.4,11.66,3.45,1.46,7.13,2.4,10.89,2.46,3.13.04,6.23.14,9.32-.38,1.27-.22.73-2.14-.53-1.93-2.62.45-5.24.33-7.88.31-3.51-.03-6.83-.66-10.11-1.92-5.78-2.23-11.66-6.21-14.68-11.76-6.48-11.92,4.44-23.31,8.78-33.86,1.38-3.34,1.73-6.79.37-10.2s-3.72-6.15-6.03-8.87c-.83-.98-2.24.44-1.41,1.41h0Z"/>
    <path class="cls-6" d="M154.49,205.41c5.36,1.4,8.65-4.19,13.16-5.78,3.3-1.17,5.57,1.24,7.06,3.93,1.97,3.55,3.75,7.25,5.36,10.97,3.33,7.64,5.64,16.26,3.66,24.57-.93,3.89-2.84,7.38-5.19,10.58s-4.89,6.31-7.79,8.84c-1.49,1.3-3.4,2.24-5.32,1.28-1.57-.79-2.63-2.43-3.62-3.82-1.99-2.8-5.33-5.81-8.95-3.99-1.15.58-.14,2.3,1.01,1.73,1.88-.95,3.89.56,5.13,1.9,1.17,1.26,1.99,2.8,3.15,4.07,2.34,2.57,5.62,3.32,8.62,1.33,1.49-.99,2.69-2.33,3.89-3.64,1.42-1.55,2.82-3.12,4.13-4.77,2.52-3.15,4.74-6.55,6.1-10.37,2.93-8.23,1.38-17.29-1.67-25.25-1.59-4.15-3.57-8.15-5.58-12.11-1.47-2.9-3.13-6.43-6.55-7.37-2.99-.82-5.75.83-8.09,2.52s-4.97,4.23-7.99,3.44c-1.25-.32-1.78,1.6-.53,1.93h0Z"/>
    <path class="cls-6" d="M156.76,211.91c2.37.53,4.68.07,7-.44s4.97-1.15,7.2.12,3.37,3.84,3.57,6.38c.1,1.22.14,2.46.45,3.65.29,1.12.71,2.21,1.03,3.33,1.27,4.46,1.33,8.82.42,13.36-.26,1.31-.51,2.52-.5,3.86,0,1.41.12,2.79-.5,4.1-1.04,2.2-3.12,3.72-5.12,4.98-.53.34-1.08.66-1.62.99-.78.46-1.29.71-2.17.27-1.36-.69-2.43-2.13-3.6-3.09-1.99-1.63-4.65-2.83-7.21-1.8-1.18.48-.66,2.41.53,1.93,3.16-1.28,5.6,1.67,7.74,3.51.9.77,1.96,1.74,3.2,1.8,1.16.06,2.21-.71,3.16-1.28,2.16-1.3,4.33-2.75,5.86-4.78.73-.97,1.33-2.07,1.58-3.26.31-1.48.05-2.98.17-4.48s.57-2.91.79-4.36c.2-1.34.34-2.69.38-4.04.05-2.23-.23-4.45-.74-6.62-.62-2.58-1.61-4.97-1.81-7.64s-.84-5.02-2.68-7c-1.97-2.13-4.7-2.79-7.51-2.44-3,.37-6.04,1.71-9.08,1.02-1.25-.28-1.79,1.64-.53,1.93h0Z"/>
    <path class="cls-6" d="M87.58,192.61c-.63,1.57-1.17,3.37-.48,5.01s2.43,2.45,4.13,2.72c2.16.35,4.4.16,6.58.22,2.57.06,5.13.22,7.69.39,10.05.67,20.24,1.51,29.97-1.69,3.8-1.25,8.77-2.85,9.95-7.18.48-1.78.5-4.18,0-5.95-.54-1.89-3.03-2.5-4.64-3.14-9.09-3.6-19.54-4.61-29.24-3.79-8.56.72-19.78,3.77-23.53,12.5-.5,1.17,1.22,2.19,1.73,1.01,2.88-6.69,10.82-9.75,17.49-10.95,4.27-.77,8.65-.88,12.98-.7s8.86.65,13.18,1.69c2.05.49,4.07,1.11,6.05,1.85.95.36,1.9.74,2.82,1.17.39.18.77.31,1.04.65.37.46.34,1.11.39,1.69.15,1.89.11,3.93-1.23,5.43s-3.43,2.31-5.28,3.01c-8.37,3.17-17.05,3.32-25.87,2.78-4.89-.3-9.77-.73-14.66-.8-2.01-.03-4.33.28-6.24-.46-2.28-.89-1.57-3.17-.86-4.94.48-1.19-1.45-1.71-1.93-.53h0Z"/>
    <path class="cls-6" d="M115.43,179.36c-.97.1-1.13-1.49-1.29-2.16-.23-.99-.45-2.08-.14-3.07.33-1.06,1.34-1.68,2.27-2.18s2.03-.89,3.11-.99c2.01-.18,3.95.59,4.94,2.42s.05,3.59-1.44,4.8c-2.01,1.64-4.65,2.43-7.23,2.39-1.29-.02-1.29,1.98,0,2,3.06.05,6.09-.95,8.49-2.85,1.08-.86,2.01-1.97,2.41-3.32.38-1.27.18-2.62-.39-3.8-1.22-2.55-4.03-3.88-6.78-3.64s-6.26,1.69-7.25,4.45c-.55,1.54-.19,3.27.2,4.8s1.24,3.34,3.1,3.15c.54-.06,1-.42,1-1,0-.5-.46-1.06-1-1h0Z"/>
    <path class="cls-6" d="M82.51,223.46c-.26-.18-.64-.67-.89-1.02-.35-.48-.69-.99-1.12-1.4-1.02-.98-2.45-1.1-3.5-.07s-1.29,2.68-1.1,4.07c.21,1.51,1.16,2.78,2.34,3.7.69.54,1.49.91,2.38.78.41-.06.78-.24,1.13-.47.16-.1.32-.2.48-.31.09-.06.15-.03.07-.06l-.7-.7c.28,1.28.22,3.44,1.83,3.89,1.75.49,2.27-1.88,2.59-3.07.42-1.55.79-3.14,1-4.73.09-.68.1-1.44-.29-2.03-.47-.71-1.35-.9-2.08-.46-.69.41-.96,1.15-1.36,1.8-.13.22-.18.15.03.17.28.02-.14-.12-.24-.17-.39-.21-.73-.46-1.05-.76-.95-.87-2.37.54-1.41,1.41.62.56,1.34,1.11,2.14,1.38s1.56-.08,2.06-.75c.2-.27.36-.57.52-.87.06-.11.3-.45.3-.49-.21.05-.41-.02-.6-.21,0-.06,0-.02.03.11-.02.08,0,.21,0,.29,0,.34-.08.67-.14,1.01-.29,1.62-.66,3.23-1.14,4.8-.02.05-.24.75-.29.72.05.02.6-.35.58-.05,0-.05-.08-.12-.1-.17-.33-.71-.29-1.61-.45-2.36-.07-.33-.38-.61-.7-.7-.81-.22-1.44.14-2.09.57-.18.12-.33.24-.55.23-.27-.01-.57-.25-.77-.42-1.08-.88-1.77-2.04-1.57-3.47.07-.48.24-1.1.65-1.38.16-.11.18-.1.31-.05-.15-.06.11.08.12.08-.08-.05.18.16.21.2.83.84,1.33,1.94,2.33,2.65.44.31,1.11.08,1.37-.36.29-.5.08-1.06-.36-1.37h0Z"/>
    <path class="cls-6" d="M108.17,225.48c-2.08-2.71-6.37-3.04-8.94-.82-1.16,1-1.91,2.54-1.75,4.09.19,1.88,1.58,3.15,3.41,3.39s3.88-.14,5.56-1.03c.45-.24,1.55-1.33,2.08-1.07.18.09.32.72.4.9.21.47.49.89.89,1.23.6.51,1.46.78,2.24.61.94-.2,1.52-.95,2.04-1.7,1.07-1.54,1.68-3.51,1.52-5.39-.18-2.08-1.93-3.11-3.91-2.54-.91.26-1.67.87-2.27,1.58-.13.16-.26.32-.39.48-.1.13-.2.26-.3.39-.17.16-.2.21-.09.14-.04,0-.75-.67-.97-.78-1.14-.6-2.15,1.12-1.01,1.73.51.27.88.75,1.43.95.64.23,1.33.09,1.82-.38.88-.82,1.41-2.23,2.81-2.26.62-.01.83.22.88.82.06.74-.04,1.48-.25,2.19-.19.66-1.17,3.29-2.17,2.71-.54-.31-.62-1.11-.91-1.62-.33-.58-.9-.96-1.56-1.05-1.46-.2-2.44.94-3.66,1.49s-2.99.92-4.35.53c-1.2-.34-1.53-1.63-1.1-2.7,1.01-2.48,5.15-3.04,6.8-.9.33.43.86.65,1.37.36.42-.24.69-.94.36-1.37h0Z"/>
    <path class="cls-6" d="M134.99,221.63c-.91-.08-1.85-.11-2.71.25-.93.39-1.5,1.17-1.87,2.08-.73,1.8-.72,3.97.57,5.51,1.16,1.39,3.02,1.78,4.64.99.7-.34,1.3-.89,1.87-1.42.51-.47,1.18-1.32,1.89-1.46h-.53c-.06,0-.02-.18,0-.01,0,.06.09.17.12.22.11.2.21.39.34.57.27.39.59.75.95,1.06.77.64,1.69,1.08,2.68,1.22,2.39.33,2.99-2.57,2.99-4.4,0-2.04-.65-4.33-1.67-6.1-.52-.9-1.4-1.55-2.48-1.41-1,.13-1.8.84-2.29,1.68-.29.5-.6,1.08-.81,1.61-.08.19.14.12,0,.09s-.24-.11-.36-.16c-.27-.13-.54-.26-.82-.36-1.14-.41-2.43-.39-3.57,0-1.21.41-.69,2.34.53,1.93.65-.22,1.31-.3,1.99-.15s1.26.61,1.96.73c1.78.31,2.11-1.66,2.85-2.77.22-.33.62-.8,1.02-.5.47.35.73,1.37.92,1.89.49,1.34.83,2.76.69,4.2-.05.49-.16,1.42-.53,1.78-.01.01.21.08-.12,0-.1-.03-.2-.04-.3-.06-.33-.08-.63-.21-.93-.38-.5-.3-.91-.71-1.2-1.21-.32-.55-.62-1.17-1.29-1.35-1.23-.34-2.45,1.01-3.25,1.77-.68.64-1.55,1.6-2.59,1.45-1.54-.23-1.95-2.06-1.68-3.34.13-.6.35-1.43.91-1.77s1.43-.21,2.08-.15c1.28.12,1.27-1.88,0-2h0Z"/>
    <path class="cls-6" d="M155.42,215.64c-1.79,0-3.47.85-4.53,2.3-1,1.37-1.32,3.32-.75,4.92.64,1.78,2.36,2.71,4.18,2.06.84-.3,1.54-.84,2.12-1.52.3-.36.57-.73.84-1.12.12-.18.25-.36.37-.54.03-.04.28-.3.17-.25l-.5.14c-.12,0-.25-.17-.19-.02.02.05.12.11.16.16.08.09.14.17.2.27.19.31.3.65.54.93.56.63,1.52.69,2.05-.02.92-1.23.45-3.12-.06-4.4-.26-.66-.56-1.32-.74-2.01-.14-.56-.2-1.13-.4-1.67-.23-.62-.58-1.19-1.16-1.52-.77-.44-1.66-.2-2.01.64-.18.43-.22.9-.21,1.37,0,.31.05.64-.02.93-.05.21-.04.21-.21.25-.42.08-.83-.02-1.25.16-.5.21-.85.66-.7,1.23.13.47.73.91,1.23.7.44-.19.96-.04,1.43-.19.51-.16.94-.53,1.19-1,.22-.43.32-.91.33-1.4.01-.39-.15-1.02.1-1.35l-.36.36.09-.06-.5.14c-.16-.07-.16-.06-.02.02-.04-.02-.04,0,.02.04.04.05.09.13.13.24.06.14.12.42.17.61.15.66.27,1.31.51,1.95.26.69.58,1.36.78,2.07.09.31.15.62.16.94,0,.12,0,.25,0,.37-.02.1-.04.21-.07.31-.07.18-.07.2,0,.08l.44-.26h.07c.17.04.34.09.5.13.09.04-.06-.13-.09-.19-.09-.18-.17-.35-.28-.52-.26-.38-.58-.75-.96-1-.41-.27-.91-.36-1.36-.13-.4.21-.63.6-.89.96-.66.96-1.63,2.65-3.04,2.38-.62-.12-.87-.81-.97-1.36-.12-.66-.03-1.38.23-2,.55-1.31,1.88-2.12,3.28-2.12,1.29,0,1.29-2,0-2h0Z"/>
    <path class="cls-6" d="M70.55,217.93c.13,1.49-.48,2.85-1.11,4.16-.21.43-.43,1.07-.86,1.33-.03.02-.23.1-.23.1-.05.02-.17-.04-.09,0-.06-.03-.17-.19-.22-.34-.18-.56.02-1.31.04-1.95.02-.75-.28-1.45-.28-2.19,0-.49.23-.96.53-1.35.2-.26.43-.49.66-.71.1-.1.2-.19.31-.28.07-.06.14-.12.21-.18.08-.09-.02-.08-.3.02l-.44-.26c-.21-.18-.03-.31-.08-.13-.03.1,0,.24-.02.34-.03.26-.11.54-.21.79-.13.33-.32.62-.32.99,0,.43.24.85.61,1.07,1.17.7,2.66-.7,3.44-1.46.93-.9-.49-2.31-1.41-1.41-.26.25-.53.49-.82.69-.15.1-.31.2-.46.3-.16.08-.18.1-.08.06-.24.05-.13.07.32.07l.36.36c.28.39-.09.64.1.34.07-.11.11-.26.16-.38.08-.19.14-.38.19-.58.11-.45.18-.94.14-1.4-.12-1.17-1.28-1.78-2.27-1.07-1.33.96-2.62,2.45-2.61,4.17,0,.47.12.93.21,1.39s.07.92.03,1.4c-.09.89-.1,1.78.37,2.57s1.3,1.22,2.2,1.1,1.65-.77,2.12-1.55c.53-.87.94-1.86,1.3-2.81.38-1.02.61-2.11.52-3.2-.05-.54-.43-1-1-1-.51,0-1.05.46-1,1h0Z"/>
    <path class="cls-6" d="M174.93,257.1c3.83,2.6,5.37,7.67,3.37,11.88-1.67,3.51-4.93,6.1-8.16,8.1-8.49,5.27-18.41,7.27-28.25,8.13-24.13,2.12-48.71.54-72.44-4.25-5.93-1.2-12.58-2.39-17.21-6.6-2.18-1.99-3.76-4.67-3.8-7.69-.05-3.24,1.96-5.56,4.25-7.6.96-.86-.46-2.27-1.41-1.41-2.01,1.78-3.93,3.86-4.57,6.55s-.13,5.33,1.07,7.68c2.55,4.97,8.05,7.62,13.17,9.14,6.3,1.87,12.94,2.91,19.43,3.92s12.99,1.78,19.52,2.31c13.18,1.06,26.46,1.13,39.65.16,10.76-.79,21.65-2.63,31.04-8.25,4-2.39,8.05-5.6,9.83-10.06,2-5.04-.05-10.72-4.47-13.72-1.07-.72-2.07,1.01-1.01,1.73h0Z"/>
    <g>
      <g>
        <path class="cls-14" d="M93.83,116.87c.94.57,1.97.97,2.92,1.51.23.13.45.27.66.42.36.25-.44-.4-.1-.07.08.08.16.14.24.22s.15.16.22.23c.34.33-.33-.49-.07-.1.14.21.27.43.37.66l-.25-.6c.11.27.19.54.23.84l-.09-.66c.02.21.02.42,0,.63l.09-.66c-.04.22-.1.43-.18.64l.25-.6c-.07.15-.22.32-.26.47.26-.32.31-.39.13-.2.35-.23.41-.28.18-.16l.6-.25-.13.03.66-.09h-.13c.22.03.44.05.66.08l-.13-.04.6.25c-.08-.04-.16-.08-.24-.13-.37-.2.31.29.16.12-.05-.06-.12-.11-.18-.17-.14-.15-.22-.38.11.17-.2-.33-.4-.64-.56-1l.25.6c-.67-1.62-.82-3.41-1.81-4.9-.72-1.09-2.24-1.66-3.42-.9-.53.34-1,.86-1.15,1.49-.16.69-.04,1.28.25,1.93.66,1.47,1.31,2.94,1.97,4.41.23.51.96,1.03,1.49,1.15.63.14,1.37.12,1.93-.25.72-.48,1.38-1.09,1.73-1.89l-3.42.9c.28.13.23.26-.13-.13l-.25-.32c.04.07.08.13.11.21l-.25-.6c.06.15.1.29.12.45l-.09-.66c0,.16,0,.3,0,.46l.09-.66c-.06.36-.17.69-.31,1.03l.25-.6c-.05.11-.21.57-.33.61.03-.01.39-.44.12-.19.46-.43.31-.22.09-.11l.6-.25c-.12.05-.23.08-.36.11l.66-.09c-.08.01-.16.01-.25,0l.66.09c-.08,0-.16-.03-.24-.06l.6.25-.1-.07.9.9-.06-.09.25.6-.02-.11.09.66v-.12c-.03.22-.06.44-.09.66.08-.5.2-1,.16-1.5-.04-.53-.13-1.05-.3-1.56-.23-.69-.49-1.37-.76-2.05-.54-1.4-1.12-2.78-1.7-4.16-.26-.63-.53-1.13-1.15-1.49-.54-.31-1.33-.45-1.93-.25s-1.19.57-1.49,1.15-.51,1.32-.25,1.93c.48,1.15.97,2.31,1.43,3.47s1,2.29,1.21,3.48l-.09-.66c.02.2.03.4.02.6l.09-.66c-.14.89-.25,1.71.2,2.54.51.93,1.53,1.41,2.55,1.46,1.46.06,2.71-.83,3.49-2.01.59-.89,1.01-2.16.96-3.23-.06-1.32-.73-2.76-1.99-3.34-.6-.27-1.26-.47-1.93-.25-.58.19-1.24.57-1.49,1.15-.03.08-.07.16-.11.24-.14.22-.08.16.17-.18-.06.07-.12.13-.18.19.34-.25.4-.3.19-.15l3.42.9c-.66-1.47-1.31-2.94-1.97-4.41l-4.32,2.52c.18.28.34.57.47.87l-.25-.6c.25.6.41,1.22.58,1.85.2.75.45,1.46.76,2.18.75,1.72,2.61,3.66,4.68,3.1s3.22-3.02,2.94-5.06c-.23-1.69-1.18-3.11-2.52-4.15-1.24-.96-2.7-1.48-4.04-2.28-1.12-.68-2.8-.28-3.42.9s-.3,2.7.9,3.42h0Z"/>
        <path class="cls-14" d="M98.14,127.04l.1-.04-.6.25c1.38-.58,2.82-.99,4.3-1.25l-3.08-3.08c-.33,1.27-.68,2.54-1.11,3.78l.25-.6s-.04.08-.06.11l.39-.51-.05.04,1.1-.64-.08.03.66-.09h-.09c.22.03.44.06.66.09-1.42-.22-2.84-.53-4.25-.8l.6,4.57c.05-.04.11-.07.17-.09l-.6.25c.68-.23,1.42-.33,2.12-.49s1.43-.35,2.16-.45l-.66.09c.18-.02.36-.03.54-.04.66-.05,1.23-.21,1.76-.61.42-.33.67-.74.96-1.17l-.39.51s.05-.06.08-.09l-.51.39s.07-.05.1-.06l-3.76-2.16c0,.23-.03.46-.05.69l.09-.66c-.09.65-.26,1.28-.52,1.89l.25-.6c-.2.45-.44.88-.72,1.28-.35.51-.41,1.35-.25,1.93s.61,1.21,1.15,1.49c.58.31,1.28.46,1.93.25s1.1-.59,1.49-1.15c1.04-1.49,1.57-3.31,1.63-5.12.03-.87-.5-1.73-1.24-2.16-.39-.23-.81-.34-1.26-.34-.45,0-.87.12-1.26.34-.44.19-.86.68-1.1,1.07-.07.12-.13.25-.21.36l.39-.51s-.05.06-.09.09l.51-.39-.05.03.6-.25-.09.03.66-.09c-.62.08-1.24.11-1.85.24-.46.09-.93.2-1.39.31s-.89.2-1.34.3c-.61.14-1.22.24-1.77.58-.86.53-1.33,1.48-1.19,2.49.06.45.21.82.49,1.18.31.4.78.8,1.3.9.79.15,1.57.3,2.36.45.41.08.82.16,1.24.23.19.04.37.07.56.11.67.11,1.25.13,1.88-.14.56-.23.98-.63,1.29-1.15.18-.3.28-.67.39-1.01.12-.37.23-.74.34-1.11.23-.76.44-1.52.64-2.29.23-.87,0-1.8-.64-2.43-.31-.31-.68-.52-1.1-.64-.44-.12-.89-.12-1.33,0-1.74.3-3.37.85-4.99,1.54-.53.23-1,.96-1.15,1.49-.16.6-.09,1.4.25,1.93s.86,1,1.49,1.15l.66.09c.45,0,.87-.12,1.26-.34h0Z"/>
        <path class="cls-16" d="M83.83,133.37c2.55-.14,5.13-.3,7.62-.89,1.17-.28,2.32-.68,3.43-1.15.3-.13.16-.12.49-.1-.29-.02.24.06.33.09.14.04.25.09.48.21.22.11.94.7.37.15l-.64-1.1.07.21v-1.33c.39-.52.44-.61.15-.28l-.18.19c-.18.19-.36.38-.54.57s-.37.37-.56.54c-.01.01-.6.51-.29.27-.2.15-.42.29-.64.42-.05.03-.69.31-.32.17-.64.23-.79.21-1.42.18-1.85-.09-4.51-.76-6.17-1.77l-1.26,4.66c2.7-.13,5.47-.2,8.13-.71,1.32-.25,2.51-.81,3.55-1.67.41-.34.76-.72,1.12-1.1.21-.23.41-.45.63-.67.07-.07.65-.54.39-.36l-3.76-2.16c-.01.31,0,.32.03.05-.03.16-.07.31-.13.46.21-.55-.43.55-.09.14-.07.08-.72.65-.41.43-.14.09-.28.18-.42.26-.24.11-.29.15-.16.1-1.1.5-2.39.47-3.82.48-1.25.02-2.29.94-2.46,2.17-.15,1.11.56,2.56,1.79,2.74,2.4.36,4.48-.24,6.62-1.32.79-.4,1.56-.82,2.26-1.37.46-.36.85-.77,1.17-1.27.17-.27.31-.59.41-.89l.07-.21c.11-.42,0-.26-.35.47,1.35-1.24.7-3.78-1.1-4.18-1.63-.36-3.29-.39-4.91.04-.98.26-1.96.72-2.49,1.63s-.54,2.1,0,3.02c1.14,1.96,3.34,1.27,5.05.7.4-.13.08-.07.47-.09.19-.01.38-.01.58,0,.32.02.38.03.19.01.17.03.35.08.52.13l-.98-1.01c-.05-.16-.05-.31-.02-.47.13-.24.12-.24-.02.01.48-.28-.46.33-.18.13.12-.11.08-.08-.14.07-.14.08-.28.15-.43.22.41-.18-.34.1-.43.13-.27.08-.55.15-.82.22-1.4.33-2.59.53-3.98.59-2.72.11-5.09-.37-7.33-2-1.09-.79-2.79-.19-3.42.9-.74,1.26-.2,2.62.9,3.42,2.32,1.68,5.15,2.47,7.98,2.66s5.77-.19,8.36-1.08c1.23-.42,2.43-1.03,3.29-2.03,1.14-1.34,1.64-3.27.75-4.88-.84-1.52-2.62-1.94-4.22-2.02-.78-.04-1.63.08-2.38.27-.65.17-1.27.47-1.94.57h1.33l-.16-.02,1.1.64-.13-.1.64,1.1v.84c-.21.37-.42.74-.64,1.1-.62.29-.71.36-.25.2l.28-.07c.19-.05.38-.08.57-.11-.14.03-.12.03.05.01.71-.04.95-.02,1.49.1l-1.1-4.18c-.41.37-.68.85-.84,1.37-.14.44-.1.32.13.02-.21.19-.21.21,0,.06-.13.09-.26.17-.39.25-.3.18-.61.34-.91.51-.67.36-1.19.63-1.81.83-.18.06-.37.11-.55.16-.31.05-.37.07-.17.06-.19.02-.38.03-.56.03-.31-.03-.38-.02-.19.01l-.66,4.91c2.25-.03,4.63-.15,6.62-1.33s3.39-3.25,3.39-5.6c0-1.78-2.17-3.27-3.76-2.16-.95.67-1.68,1.47-2.49,2.29-.42.44-.35.4-.82.67s.12.03-.4.15c-.27.06-.52.14-.79.19-.07.01-.8.12-.41.07-.26.03-.53.06-.8.09-.58.06-1.17.11-1.75.15-1.28.09-2.56.16-3.84.22-2.45.12-3.44,3.33-1.26,4.66,1.43.88,3.05,1.44,4.68,1.81,1.53.35,3.17.72,4.74.64s3.09-.64,4.37-1.61c1.15-.86,2.53-2.02,3.21-3.3.62-1.17.46-2.63-.52-3.56-.54-.51-1.28-.84-1.95-1.14-1.81-.8-3.5-.79-5.32-.07-2.98,1.18-5.74,1.37-8.89,1.55-1.3.07-2.56,1.1-2.5,2.5.06,1.29,1.1,2.58,2.5,2.5h0Z"/>
      </g>
      <path class="cls-20" d="M49.5,125.65c-1.14,2.91-4.73,4.76-6.73,7.07-1.68,1.94-3.1,4.21-3.91,6.65s-1.06,5.04-.59,7.59c.55,2.94,3.41,6.9,1.88,9.83l6.4,2.7c.72-2.86,1.61-6.92-.68-9.31-2.17-2.26-5.22-1.26-7.1.79-.77.84-1.38,2.26-.9,3.41l.63,1.51c.99,2.4,5.03,3.93,6.4.84,1.09-2.45,1.95-4.85.85-7.44-.42-.99-.84-1.62-1.68-2.32-1.32-1.1-4.91-.87-2.01-3.53l-5.5-4.24c-1.66,3.3-1.67,6.36.14,9.58,1.65,2.94,6.73,1.74,6.52-1.77s1.23-5.61,1.95-8.71c.57-2.42-.76-3.11-1.26-5.26-.34-1.46-1.89-2.61-3.37-2.57l-.71.02c-1.63.04-2.85,1.07-3.37,2.57l-.43.68,6.4,2.7c-.01.06,6.62-1.6,7.65-1.88,3.72-1.01,3.09-7.12-.93-6.87-3.45.21-6.43.63-9.43,2.43-3.86,2.32-.34,8.37,3.53,6.04,1.94-1.16,3.71-1.34,5.9-1.48l-.93-6.87c-4.24,1.15-11.44,1.55-12.54,6.77-.84,3.97,4.1,5.94,6.4,2.7.55-.77.82-1.45,1.13-2.35l-3.37,2.57.71-.02-3.37-2.57c.33,1.42,1.05,2.3,1.74,3.55l-.35-2.7c-.36,1.93-1.74,3.57-2.15,5.54s-.29,3.82-.17,5.72l6.52-1.77-.14-2.52c1.77-3.53-2.5-6.99-5.5-4.24-2.54,2.33-4.45,5.44-3.46,9,.36,1.3,1.04,2.48,2.06,3.37.53.46,1.17.71,1.73,1.09,1.05.7,2.1-.31,1.41,1.24l6.4.84-.63-1.51-.9,3.41.87-.94-2.47,1.03,1.07-.13-2.47-1.03c-.75.7-1.05,1.63-.89,2.78-.95,3.73,4.51,6.32,6.4,2.7,1.25-2.41,1.62-4.55,1.2-7.25-.55-3.53-2.99-6.74-2.21-10.44,1.37-6.49,8.69-9.07,11.05-15.12,1.64-4.2-5.13-6.02-6.75-1.86h0Z"/>
      <path class="cls-20" d="M49.53,165.6c-1.38,2.2-1.73,4.67-1.3,7.2l3.08-3.08c.21.17.4.37.57.59l-4.82,1.33c1.39,3.48,2.91,7.36,2.2,11.18-.31,1.65-1.01,2.98-2.06,4.27-1.18,1.45-2.36,2.91-2.71,4.8-.45,2.38,2.29,4.26,4.18,2.43.82-.79,1.65-1.59,2.47-2.38.53-.51,1.22-1.52,1.93-1.75.81-.27,1.73-.13,2.56-.46.93-.36,1.73-.91,2.45-1.61,2.18-2.14,5.22-7.15,2.07-9.71-1.05-.85-2.5-1.03-3.54,0-1.73,1.73-2.46,4.2-1.86,6.59.09.36.1.92.27.05.27-1.42,0,.01-.22-.2-.03.01-.06.04-.08.06-.24.24,0,.44.74.57,1.41,1,.58.75.81.34.64-1.19-.01-2.66-.07-3.85-.03-.67.48-1.19.88-1.75.62-.86,1.16-1.77,1.42-2.81.63-2.48-.1-4.87-1.67-6.81-.85-1.05-2.65-.88-3.54,0-1.05,1.05-.84,2.47,0,3.54.27.34.02.95-.24,1.22h3.54c-.26-.31-.31-.87-.41-1.25-.18-.69-.36-1.35-.65-2-.66-1.49-1.7-2.46-3.22-3.03-1.15-.43-2.52.39-2.95,1.45-.5,1.24,0,2.35,1.02,3.12,1.8,1.34,1.24,4.57.98,6.42-.19,1.34.33,2.69,1.75,3.08,1.17.32,2.89-.4,3.08-1.75.64-4.52.72-9.08-3.28-12.07l-1.93,4.57c-.44-.16-.16-.22-.02.16.2.51.3,1.04.44,1.57.32,1.24.83,2.28,1.65,3.27s2.66.9,3.54,0c2.3-2.38,2.23-5.78.24-8.29l-3.54,3.54c1.42,1.75-.67,3.46-1.41,4.91s-.84,2.73-.5,4.26c.27,1.25-.35,2.44-.06,3.72.34,1.51,1.51,2.66,3.06,2.87s2.9-.55,4.01-1.53c1.25-1.11,1.76-2.52,1.35-4.15-.23-.91-.31-1.54.41-2.26h-3.54c.72.59-.35-.52-.11-.61-.01,0-.21.67-.19.63-.22.51-.57,1.01-.87,1.48-.45.7-1.01,1.49-1.83,1.72-.72.2-1.52.08-2.25.32-.92.3-1.65.91-2.34,1.56-1.32,1.22-2.59,2.5-3.88,3.75l4.18,2.43c.32-1.69,1.76-2.89,2.73-4.24,1.21-1.7,1.91-3.7,2.2-5.76.63-4.48-.71-8.78-2.35-12.9-1.18-2.95-5.48-1.88-4.82,1.33.29,1.42,1.49,2.64,2.92,2.9,1.98.36,3.41-1.12,3.08-3.08-.2-1.2.17-2.34.8-3.35,1.72-2.73-2.6-5.24-4.32-2.52h0Z"/>
      <path class="cls-20" d="M31.6,157.3c.18.31.36.62.5.94.11.24.14.83.18.31l.73-1.77-.17.2,1.1-.64c.08-.03.42.19-.23-.13-.39-.19-.81-.39-1.22-.53-1.06-.35-2.16-.34-3.17.15-1.66.8-2.96,2.49-3.93,4-.66,1.03-.32,2.91.9,3.42,1.36.58,2.97,1.21,4.28.16,1.21-.96,1.18-2.75,1.4-4.16.36-2.37-2.22-4.28-4.18-2.43-.89.84-1.78,1.68-2.67,2.51-1.51,1.43-.52,3.49,1.1,4.18,2.77,1.17,5.33,2.46,7.48,4.6,1.09,1.09,2.11,2.25,3.18,3.36.9.94,1.9,1.86,2.43,3.08.99,2.28.82,4.97,1.34,7.37.28,1.31.76,2.64,1.53,3.75s1.97,1.83,2.7,2.92l1.49-3.67c.32-.08.46.25.39,0-.04-.16-.44-.44-.55-.57-.35-.41-.64-.86-.92-1.32-.6-1-1.1-2.06-1.6-3.11-1.22-2.6-5.31-.75-4.57,1.93.34,1.21.54,2.39.59,3.64l3.16-2.41c.13.04.28.31.3.13.04-.25-.05-.73-.06-.98-.04-.9-.11-1.8-.43-2.65-.65-1.72-1.84-2.58-3.28-3.58l.9.9-.16-.21.34,1.26-.04-.32-.34,1.26c-.52.3-.61.39-.27.27.17-.04.33-.1.49-.18.42-.16.78-.35,1.13-.64.75-.64,1.23-1.53,1.28-2.53.08-1.69-.85-3.07-1.85-4.35-1.72-2.2-3.99-3.87-5.76-6.02-.86-1.05-1.26-2.45-2.26-3.37-1.44-1.33-3.86-1.05-4.86.67-1.08,1.84.33,3.47,1.46,4.8.5.59.98,1.27,1.66,1.68.47.28.96.43,1.51.47l.39.05c1.13.01,1.09-.82-.14-2.51h2.52c-.24-.13-.48-.26-.73-.39-1.19-.64-2.72-.3-3.42.9-.75,1.28-.19,2.61.9,3.42s2.46,1.16,3.65,1.83c.49.28.9.6,1.27,1.02.16.18.29.35.42.55.2.31.32,1.11.28.26l.34-1.26c.45-.73.78-.92.98-.56-.26.04-.36,0-.31-.1.1-.08-.12-.38-.1-.35l-2.82,3.67c.34.1.75.18,1.06.36.53.3.4.38.32.17-.18-.45-.09.27-.12.5-.06.48-.07.9,0,1.38.26,1.63,1.33,2.85,2.58,3.84,1.06.84,2.5,1.03,3.54,0,.87-.87,1.06-2.69,0-3.54-.37-.3-.7-.64-1.07-.94-.28-.22-.18-.61-.13-.04-.09-.93.23-1.75-.05-2.71-.64-2.22-2.78-3.25-4.82-3.86-2.29-.69-3.64,1.81-2.82,3.67s2.77,2.92,4.7,2.88c2.14-.04,4.21-1.76,3.61-4.06-.44-1.68-1.72-3.25-3.05-4.31-1.52-1.21-3.42-1.59-4.95-2.74l-2.52,4.32c1.19.64,2.27,1.04,3.52.24,1.04-.67,1.69-1.85,1.7-3.09,0-1.14-.55-2.2-1.46-2.88-1.07-.8-2.05-.59-3.27-.74l1.26.34c-.29-.15-1.33-1.38-1.59-1.98l.34,1.26.02-.31-.73,1.77.16-.2-1.1.64h-.14c-.42-.1-.84-.22-1.26-.33l-.2-.23c.08.17.16.33.25.5.14.28.29.55.46.82.34.55.74,1.07,1.14,1.57.74.94,1.58,1.79,2.44,2.62s1.66,1.57,2.44,2.4c.37.39.74.8,1.06,1.23.15.2.27.42.42.63.51.68-.23.26.18-.3l.9-.9c-.49.34-1.29.48-1.85.89-.78.59-1.36,1.52-1.38,2.51-.02.85.32,1.69.93,2.3.39.39,1,.55,1.36.94.78.85.34,2.61.62,3.67.42,1.63,1.59,2.88,3.19,3.37,1.51.46,3.23-.81,3.16-2.41-.07-1.68-.31-3.35-.76-4.97l-4.57,1.93c1.51,3.19,3.96,8.38,8.32,7.3,1.5-.37,2.38-2.34,1.49-3.67-.79-1.18-1.98-1.94-2.79-3.06-.72-.99-.93-2.27-1.12-3.45-.44-2.83-.51-5.72-2.05-8.24-.84-1.38-2-2.52-3.11-3.67-1.22-1.28-2.38-2.63-3.68-3.83-2.6-2.39-5.67-3.77-8.89-5.12l1.1,4.18c.89-.84,1.78-1.68,2.67-2.51l-4.18-2.43c-.14.9-.15,2.02-.5,2.86l1.75-1.75c.66,0,.8-.04.42-.1l.9,3.42c.2-.32,1.81-2.2,1.87-2.09-.77.02-.95.08-.56.18.07,0,.12.02.17.06.15.12.47.22.64.3.67.29,1.3.53,2.05.55,1.58.04,3.08-.83,3.36-2.48.24-1.4-.65-2.93-1.32-4.1-1.59-2.8-5.91-.28-4.32,2.52h0Z"/>
      <path class="cls-13" d="M85.9,117.98c.67,1.83,1.34,3.67,2,5.51.27.71.53,1.44.76,2.16.21-1.43-.26-1.61-1.38-.54-2.94.14-7.56,2.96-10.48,1.22l2.07,2.69c.24,1.28,1.33-.62,1.68-1.01.56-.61,1.16-1.18,1.78-1.74,1.48-1.35,3.07-2.71,4.74-3.83.86-.58,2.22-.72.47-1.26-1.44-.45-1.5.37-2.78.98s-3.9,1.37-5.34,1.12l1.99,7.52c2.8-3.34,5.93-6.06,9.7-8.27-2.2-1.69-4.41-3.39-6.61-5.08-.4,1.24-3.29,2.93-4.27,3.71-1.89,1.5-3.84,2.93-5.81,4.33-4.7,3.35-.71,10.34,4.54,7.77,3.86-1.88,7.62-3.91,11.32-6.09,4.98-2.94.46-10.72-4.54-7.77-3.7,2.18-7.46,4.21-11.32,6.09l4.54,7.77c4.83-3.44,12.32-7.48,14.21-13.42,1.21-3.79-3.32-7.02-6.61-5.08-4.38,2.57-8.25,5.78-11.52,9.67-1.96,2.34-1.64,6.87,1.99,7.52,7.8,1.4,20.13-3.38,18.62-13.06-.73-4.7-4.94-7.53-9.55-6.05-4.09,1.31-8.04,4.96-11.04,7.91s-6.89,7.45-4.41,11.73,9.41,3.13,13.41,2.56c4.31-.61,9.6-1.88,12.22-5.72,2.94-4.31-.14-9.49-1.69-13.74-1.96-5.4-10.66-3.07-8.68,2.39h0Z"/>
      <path class="cls-20" d="M49.67,157.98c.24.66,3.63-.27,4.7-.79,3.54-1.72,1.06-7.69-2.7-6.4-1.56.54-3.12,1.07-4.67,1.61-4.35,1.5-2.53,7.38,1.86,6.75,1.68-.24,3.3-.56,5.01-.45l-2.47-1.03.57.52-1.03-2.47.07.6c.4,3.63,5.92,5.09,6.87.93.21-.92.43-1.85.64-2.77.54-2.33-1.05-4.27-3.37-4.43-.81-.06-1.62-.11-2.43-.17l.93,6.87c1.98-.53,3.91-1.15,5.45-2.56,1.79-1.64,2.19-5.39,4.68-6.07l-3.41-5.85c-2.31,2.07-4.63,4.13-6.94,6.2-2.64,2.36.14,6.8,3.41,5.85s5.83-2.2,7.92-5.08c1.81-2.5,2.46-3.36,5.49-4.14,1.55-.4,2.71-.59,4.06-1.51,3.37-2.3,1.21-7.05-2.7-6.4s-7.76,1.58-11.56,2.84c-4.26,1.41-2.43,8.17,1.86,6.75,3.8-1.26,7.61-2.18,11.56-2.84l-2.7-6.4c-2.56,1.75-5.81,1.21-8.41,3.34-2.88,2.35-3.4,5.52-7.38,6.68l3.41,5.85c2.31-2.07,4.63-4.13,6.94-6.2,2.67-2.38-.15-6.74-3.41-5.85-2.1.57-3.78,1.46-5.15,3.2-1.87,2.36-1.58,4.52-4.98,5.44-3.95,1.07-2.9,6.61.93,6.87.81.06,1.62.11,2.43.17l-3.37-4.43c-.21.92-.43,1.85-.64,2.77l6.87.93c-.67-6.07-6.62-4.55-11.01-3.92l1.86,6.75c1.56-.54,3.12-1.07,4.67-1.61l-2.7-6.4c-.65.31-2.67-.3-3.56-.13-1.21.23-2.18.74-3.05,1.59-2.03,1.99-2.23,4.67-1.31,7.24,1.5,4.21,8.27,2.4,6.75-1.86h0Z"/>
      <path class="cls-20" d="M68.66,126.41c-8.16,4.44-15.21,10.76-20.54,18.37-2.81,4.02-5.3,8.3-5.85,13.25-.28,2.52-.33,5.16-.08,7.69s1.17,4.99,1.84,7.52c.76,2.89,1.05,5.88.88,8.87-.14,2.49-.57,4.95,1.22,6.98.51.57,1.62.59,2.12,0,1.34-1.57.68-3.3.21-5.1-.59-2.26-1.06-4.54-1.41-6.85-.68-4.47-.89-9.03-.56-13.53.61-8.13,3.23-16.22,8.26-22.72,1.33-1.72,2.84-3.33,4.49-4.76s4.03-3.06,6.28-2.03c.65.3,1.28.24,1.82-.23.35-.31.71-.4,1.17-.47l-.8-2.89c-1.98.56-3.96,1.12-5.93,1.68-1.31.37-1.54,2.68,0,2.89,3.29.46,6.51-.12,9.36-1.89,1.2-.74.79-2.89-.76-2.8l-5.93.37.76,2.8c1.73-.92,3.52-1.65,5.41-2.21s1.08-3.32-.8-2.89c-1.24.28-2.47.56-3.71.85l1.46,2.51c1.1-1.08,2.19-2.16,3.29-3.25,1.19-1.18-.36-3.3-1.82-2.36-2.31,1.49-4.51,3.13-6.61,4.89l2.36,1.82c1.25-2.75,3.81-4.32,6.3-5.83l-1.82-2.36c-2.21,2.14-4.33,4.37-6.36,6.68l2.51,1.46c.59-1.63,1.74-2.88,3.24-3.71l-1.51-2.59c-2.62,1.52-5.08,3.28-7.38,5.25l2.51,1.46c.37-1.88,2.63-3.15,4.12-4.13,1.86-1.22,3.85-2.23,5.93-3.02,1.79-.68,1.01-3.58-.8-2.89-2.6.99-5.09,2.23-7.38,3.82-1.95,1.35-4.27,2.94-4.76,5.43-.3,1.5,1.35,2.45,2.51,1.46,2.11-1.8,4.37-3.39,6.77-4.78,1.67-.97.18-3.52-1.51-2.59-2.21,1.22-3.77,3.14-4.62,5.5-.51,1.4,1.54,2.57,2.51,1.46,2.03-2.32,4.15-4.54,6.36-6.68,1.22-1.18-.35-3.24-1.82-2.36-2.91,1.75-5.93,3.71-7.38,6.9-.71,1.56,1.01,2.94,2.36,1.82,1.91-1.6,3.91-3.07,6-4.42l-1.82-2.36c-1.1,1.08-2.19,2.16-3.29,3.25s.04,2.83,1.46,2.51c1.24-.28,2.47-.56,3.71-.85l-.8-2.89c-2.12.63-4.17,1.47-6.12,2.51-1.28.68-.73,2.89.76,2.8l5.93-.37-.76-2.8c-2.1,1.31-4.57,1.93-7.04,1.59v2.89c1.98-.56,3.96-1.12,5.93-1.68s1.07-3.18-.8-2.89c-.97.15-1.76.6-2.49,1.24l1.82-.23c-4.25-1.94-8.12.71-11.12,3.61s-5.46,6.29-7.36,9.96c-4.19,8.07-5.64,17.29-5.1,26.31.16,2.67.48,5.34.94,7.98.24,1.35.51,2.69.83,4.02.15.63.31,1.25.47,1.87.04.15.56,1.57.44,1.71h2.12c-1.18-1.34-.35-4.19-.3-5.8.06-2.39-.17-4.8-.65-7.14s-1.52-4.71-1.95-7.14-.35-4.74-.22-7.08c.13-2.48.61-4.83,1.7-7.07.95-1.95,2.1-3.82,3.31-5.62,2.37-3.52,5.16-6.75,8.26-9.65,3.55-3.32,7.51-6.15,11.78-8.47,1.7-.92.18-3.51-1.51-2.59h0Z"/>
    </g>
    <g>
      <path class="cls-6" d="M49.14,189.42c-.09-4.82-1.49-9.46-2.56-14.13s-1.57-9.33-1.17-14.09c.6-7.04,3.11-14.68,7.79-20.12,2.78-3.23,6.42-5.54,10.21-7.43,1.15-.57.14-2.3-1.01-1.73-3.59,1.79-7.07,3.97-9.85,6.89-1.91,2-3.39,4.35-4.66,6.8-4.27,8.24-5.52,17.67-3.95,26.78.98,5.68,3.07,11.2,3.19,17.02.02,1.29,2.02,1.29,2,0h0Z"/>
      <path class="cls-6" d="M75.76,122.36c1.43-2.77,3.53-5.13,6.15-6.81,1.27-.82,2.64-1.47,4.08-1.92.62-.19,1.25-.34,1.88-.45.36-.06.75-.06,1.1-.14,0,0-.15-.19-.16-.2.06.13.07.28.1.41.1.48.12.96.28,1.43.24.69.76,1.03,1.17,1.6.43.61.55,1.35.78,2.05.19.58.43,1.14.58,1.72.33,1.26-.76,2.12-1.7,2.8-1.32.97-2.86,1.58-4.45,1.93-4.14.91-8.58,0-12.72-.46-1.28-.14-1.27,1.86,0,2,4.35.49,8.9,1.35,13.25.39,1.85-.41,3.65-1.17,5.17-2.31,1.2-.9,2.51-2.11,2.54-3.72.01-.6-.16-1.19-.35-1.74-.28-.83-.51-1.69-.81-2.51s-.83-1.39-1.37-2.09c-.38-.5-.32-1.11-.47-1.7-.4-1.7-1.75-1.65-3.21-1.42-1.74.27-3.42.86-4.99,1.64-3.67,1.82-6.72,4.87-8.59,8.51-.59,1.14,1.14,2.16,1.73,1.01h0Z"/>
      <path class="cls-6" d="M72.04,126.24c3.85,1.81,7.7,3.61,11.54,5.42,1.53.72,3.09,1.56,4.81,1.71s3.36-.42,4.83-1.24c1.31-.73,2.98-1.68,3.66-3.08.62-1.28.06-2.74-.95-3.64-.83-.74-2-.81-3.06-.76-1.12.05-2.7.52-3.75.02-1.15-.56-2.17,1.17-1.01,1.73,1.8.87,3.7.11,5.59.25.37.03.69.08.98.34.77.69.42,1.37-.22,1.94-1.05.94-2.49,1.78-3.83,2.21-2.97.96-6-1.17-8.6-2.39l-8.98-4.21c-1.16-.54-2.18,1.18-1.01,1.73h0Z"/>
      <path class="cls-6" d="M95.11,115.63c.27.19.34.24.56.43.09.08.18.16.26.25.04.04.07.08.11.12.09.09.01.04-.02-.03.05.09.11.18.16.28.03.06.06.11.08.17.03.07.05.12,0,.02.09.25.17.51.23.77.01.06.03.12.04.19,0,.02.03.21.02.1s0,.09,0,.11c0,.06,0,.13.01.19.01.26,0,.52-.02.77,0,.02-.03.21-.01.11s-.02.09-.02.11c-.02.13-.05.26-.09.38s-.07.25-.11.37c-.02.06-.04.12-.07.18-.06.17.1-.21-.03.08-.21.48-.15,1.1.36,1.37.44.23,1.14.15,1.37-.36.59-1.31.78-2.72.48-4.13-.13-.59-.35-1.24-.7-1.73-.43-.6-1.01-1.04-1.61-1.46-.43-.3-1.13-.09-1.37.36-.27.51-.1,1.05.36,1.37h0Z"/>
      <path class="cls-6" d="M89.81,113.31c1.29,0,1.29-2,0-2s-1.29,2,0,2h0Z"/>
      <path class="cls-6" d="M92.42,123.44c.06-.06.12-.11.19-.16-.16.13.07-.04.11-.07.18-.12.36-.23.55-.32.39-.2.56-.26,1.04-.41.44-.14.89-.24,1.35-.32.1-.02.2-.03.3-.05-.16.02.14-.02.18-.02.23-.02.45-.04.68-.05.38-.02.76.02,1.14.03.15,0-.19-.04-.02,0,.05.01.1.02.15.03.02,0,.15,0,.07,0-.07,0,.02,0,.05.03,0,0-.23-.21-.19-.23-.02.01,0,.44,0,.49-.03,1.04-.07,2.07-.49,3.03-.11.24-.22.48-.35.71-.06.11-.13.23-.2.34-.03.04-.05.08-.08.12-.08.13.09-.1,0,.01-.03.03-.06.07-.09.1-.02.02-.19.18-.08.09.07-.06-.13.08-.17.1.17-.09-.08.02-.16.03.21-.03-.15-.02-.2-.03-.54-.05-1,.49-1,1,0,.58.46.95,1,1,1.31.11,2.23-.8,2.79-1.89.32-.62.6-1.27.76-1.95s.23-1.44.26-2.16c.04-.77.14-1.65-.46-2.25-.48-.48-1.17-.56-1.81-.61-1.1-.08-2.23.07-3.29.33-1.23.3-2.47.79-3.41,1.66-.4.37-.37,1.04,0,1.41.4.4,1.02.37,1.41,0h0Z"/>
      <path class="cls-6" d="M73.08,124.18c-2.59.93-5.33,1.71-7.55,3.39-1.98,1.5-3.6,3.44-5.71,4.77-1.09.68-.08,2.42,1.01,1.73,2.08-1.31,3.67-3.16,5.58-4.67,2.1-1.66,4.72-2.4,7.2-3.29,1.2-.43.68-2.37-.53-1.93h0Z"/>
      <path class="cls-6" d="M72.5,128.49c-2.95,1.91-6.62,2.14-9.86,3.34-3.45,1.29-6.3,3.55-9.04,5.97-.97.85.45,2.26,1.41,1.41,2.7-2.38,5.53-4.62,9-5.74,3.17-1.03,6.64-1.41,9.49-3.25,1.08-.7.08-2.43-1.01-1.73h0Z"/>
      <path class="cls-6" d="M45.73,155.48c-.43-3.11-2.12-5.86-2.71-8.93s.21-6.31,2.05-8.9c1.74-2.44,4.19-3.94,6.61-5.6s3.71-3.88,2.44-6.67c-.32-.7-1.38-.6-1.73,0-.71,1.22-1.44,2.38-2.73,3.07-1.13.61-2.43.88-3.67,1.15-2.34.5-4.88.86-6.85,2.34-1.31.99-2.89,3.36-.81,4.44,1.85.96,4.13-.33,4.17-2.4.01-.57-.47-.95-1-1-.42-.04-.8,0-1.19.16-.71.29-.98,1.07-.44,1.67,2.25,2.52-1.83,4.3-3.38,5.71-1.7,1.54-2.87,3.64-2.64,5.98.19,2.01,1.41,4.55,3.39,5.36.81.33,1.85.25,2.29-.61s-.08-1.83-.69-2.45l-1.41,1.41c.53.43,1.1.95,1.24,1.65s-.24,1.48-.36,2.19c-.17,1.02.09,2.02.75,2.82,1.56,1.89,3.93,1.3,5.01-.7l-1.83-.77c-.46,1.33-1.84,3.59-.86,4.94.71.98,2.18,1.47,3.25.85s.11-2.37-1.01-1.73c-.12.07-.55-.17-.59-.25-.08-.17.21-.63.28-.82.29-.82.57-1.64.86-2.46.37-1.07-1.29-1.76-1.83-.77-.47.87-1.28,1.22-1.88.24-.48-.78.01-1.64.16-2.44.3-1.68-.5-3.12-1.78-4.16-.98-.8-2.34.48-1.41,1.41.23.45.4.37.51-.22-.24-.13-.44-.3-.62-.5-.32-.32-.58-.7-.8-1.09-.45-.78-.71-1.67-.7-2.58.04-2.05,1.57-3.59,3.13-4.73,1.28-.93,2.78-1.81,3.35-3.38s.07-3.11-1.01-4.32l-.44,1.67c.21-.12.43-.15.66-.09l-1-1c-.01.65-1.64,1.19-.76.11.51-.62,1.27-1.04,2.01-1.35,1.52-.63,3.17-.88,4.77-1.22s3.12-.71,4.46-1.53c1.42-.87,2.3-2.2,3.13-3.6h-1.73c.82,1.79-.5,3.11-1.9,4.05-1.17.79-2.37,1.51-3.48,2.39-2.13,1.68-3.97,3.78-5.07,6.28s-1.39,5.29-.86,7.98c.6,3.07,2.28,5.82,2.71,8.93.18,1.27,2.1.73,1.93-.53h0Z"/>
      <path class="cls-6" d="M45.71,159.75c-1.03-1.27-.57-3.14.87-3.87,1.31-.66,3.01-.11,4.41-.52,2.74-.79,4.37-3.29,5.75-5.6,1.5-2.53,3.2-4.59,5.79-6.06s5.26-2.15,8.06-2.53l-.97-1.67c-1.25,1.1-2.47,1.05-4.03,1.23-1.31.15-2.28.97-3.2,1.85s-2.08,1.99-2.6,3.23c-.24.57-.33,1.15-.22,1.76.09.53.56,1.24.44,1.76l.46-.6c.29-.01.15.2-.44.63l-1.5-.86-.06.4c-.44.81.28,1.63,1.13,1.47,1.29-.24,1.65-1.88.59-2.66-1.15-.84-2.47.11-3.16,1.06-.82,1.12-1.08,2.49-1.32,3.82-.11.64-.22,1.29-.4,1.93-.09.32-.2.64-.35.93-.1.2-.22.39-.36.57-.32.19-.29.39.09.6-.37-1.08-1.88-.87-1.96.27-.03.37-.05.73-.08,1.1-.06.85,1.15,1.34,1.71.71,1.33-1.49.26-3.41-1.67-3.33-2.26.09-3.82,3.09-6.09,1.33l-.71,1.71c.22.03.41-.03.58-.18l1.5-.86c-.72-.43-1.68-1.28-2.58-1.03-.75.21-1.18,1.02-1.13,1.76.06.94.74,1.66,1.36,2.29.99,1.02,2,2.03,3,3.05.9.92,2.32-.49,1.41-1.41-.83-.85-1.66-1.69-2.5-2.54-.2-.2-.93-1.2-1.15-1.23-1.25-.16.42.74.57.83.59.35,1.6-.09,1.5-.86-.17-1.42-1.21-1.97-2.58-1.82-.74.08-1.47,1.11-.71,1.71,1.13.87,2.44,1.46,3.89,1.09.69-.17,1.29-.53,1.88-.92.31-.21.62-.43.95-.6.26-.14.87-.2,1.04-.4l1.71.71c.03-.37.05-.73.08-1.1l-1.96.27c.34,1.02,1.34,1.51,2.35,1.02.91-.44,1.51-1.46,1.87-2.37.42-1.07.56-2.2.77-3.32.1-.53.2-1.06.39-1.57.11-.3.24-.61.43-.88l.22-.29c.31-.16.31-.37.01-.62l.29-.71-.03.03,1.13,1.47c.25-.47.37-.88.33-1.41-.06-.68-.83-1.34-1.5-.86-1.38.98-.71,2.74.83,3.03.6.11,1.37.11,1.83-.37.64-.68.27-1.65.05-2.41-.21-.7-.27-1.11.15-1.77.34-.54.83-1.02,1.26-1.47.67-.7,1.47-1.68,2.45-1.92s2.05-.04,3.07-.4c.9-.31,1.66-.81,2.37-1.43.84-.74-.1-1.79-.97-1.67-3.16.43-6.29,1.35-9.03,3.02-2.95,1.81-4.69,4.32-6.46,7.22-.92,1.5-2.01,3.1-3.7,3.8-1.59.66-3.38.02-4.99.72-2.89,1.27-3.51,4.8-1.6,7.16.81,1,2.22-.42,1.41-1.41h0Z"/>
      <path class="cls-6" d="M48.09,190.93c1.24-1.4,2.27-2.95,3.17-4.59s2.08-3.57,2.39-5.5-.34-3.83-.99-5.57c-.7-1.85-1.61-3.59-2.73-5.22l-.86,1.5c.88-.03,1.41-.58,1.76-1.34.58-1.24,1.1-2.37,1.99-3.44.81-.98-.54-2.38-1.41-1.41-1.14,1.26-3.58,4.97-1.09,6.15,1.1.52,2.24.45,3.25,1.27.92.74,1.42,1.81,1.5,2.97l1.5-.86c-.31-.2-.55-.56-.03-.63l-1.13-1.47c-.42.87-.66,1.78-.37,2.73.12.4.4.66.57,1.01.21.43.26-.03.11.68-.06.28-.18.57-.28.84-.7,1.93-2.77,4.04-2.43,6.22.26,1.68,1.98,2.29,3.45,1.65.78-.34,1.39-1,1.58-1.84s-.51-2.11.5-2.54l-1.37-1.37c-.5.69-1.42,1.56-1.46,2.47-.04.84.72,1.22,1.1,1.85s.35.77-.22,1.3c-.31.28-.63.54-.99.75-.54.32-2.34,1.1-2.61.06-.19-.74-1.14-.96-1.67-.44-1.08,1.06-1.9,2.25-2.46,3.66-.48,1.2,1.46,1.71,1.93.53.43-1.08,1.13-1.97,1.95-2.78l-1.67-.44c.75,2.87,4.43,2,6.17.71.9-.66,2.32-1.85,2.12-3.11-.1-.61-.58-1.05-.97-1.49-.15-.17-.3-.34-.45-.51-.17-.02-.17-.1.02-.23.08-.4.71-.99.95-1.33.66-.92-.57-1.71-1.37-1.37-1.06.45-1.6,1.56-1.55,2.68.03.54.34,1.7-.61,1.67s0-1.55.21-1.92c.81-1.46,1.6-2.89,2.06-4.5.17-.59.33-1.19.07-1.78-.39-.86-1.12-1.03-.58-2.17.4-.84-.26-1.6-1.13-1.47-.94.14-1.76.96-1.92,1.9-.18,1.11.63,1.85,1.47,2.39.62.39,1.55-.11,1.5-.86-.13-1.97-1.02-3.69-2.65-4.82-.37-.26-.77-.47-1.19-.65-.49-.21-1.14-.25-1.6-.49-.34-.18-.22.11-.31-.28-.05-.22.23-.84.3-.99.29-.65.72-1.23,1.2-1.75l-1.41-1.41c-.57.69-1.1,1.39-1.54,2.17-.07.12-.98,2.03-.8,2.03-.71.02-1.31.85-.86,1.5.98,1.42,1.82,2.94,2.45,4.55s1.34,3.46.99,5.14c-.33,1.6-1.33,3.16-2.11,4.59-.82,1.49-1.73,2.9-2.86,4.18-.85.96.56,2.38,1.41,1.41h0Z"/>
      <path class="cls-6" d="M49.37,189.71c-2.28-3.67-4.04-7.62-5.18-11.8-1.04-3.83-1.98-7.29-4.81-10.24-1.18-1.23-2.5-2.29-3.8-3.39-.66-.55-1.31-1.11-1.93-1.7-.31-.3-.62-.6-.92-.91-.23-.24-.6-.88-.89-1.01-.16-.32-.29-.23-.38.26.29-.17.58-.32.89-.44.46-.18.94-.3,1.42-.4.77-.15,1.53-.21,2.14-.77,1.04-.96.81-2.55-.05-3.52-.41-.46-1.3-.36-1.57.2-.39.8-.92,1.51-1.8,1.79-.78.25-1.63.09-2.43.2-1.46.21-2.58,1.21-2.58,2.75s1.01,2.76,2.12,3.63c.75.58,1.56,1.08,2.29,1.7.09.08.87.95.98.93.95-.19-.29-.92-.47-1.14l-1.41,1.41c.88,1.08,2.33,1.71,3.61.93l-1.21-.16c.11.06.19.14.25.24l.29-.71c-1.02,1.25-.39,2.6.92,3.34.84.48,1.63.86,2.36,1.53.3.28.59.58.86.89.22.24.41.51.57.8.51.2.52.21.04.02l.46,1.13.28-.43-1.57-1.21c-.47,1.06-.26,3.24,1.47,2.76s.82-2.95.16-3.91l-1.37,1.37c.56.39,1.02,1.05,1.15,1.74.17.88-.11,1.16-.74,1.57-.8.52-.9,1.35-.45,2.16,1.42,2.48,4.26,4.12,4.51,7.22l1.86-.5c-.59-.91-1.11-1.85-1.53-2.85-.16-.38-.49-.77-.96-.73-.79.07-1.31.57-1.31,1.39,0,.89.65,1.52,1.39,1.88,2.32,1.12,3.88,2.81,5.53,4.77.83.99,2.24-.43,1.41-1.41-1-1.19-2.01-2.39-3.2-3.4-.35-.3-2.77-2.21-3.13-1.71l-.86.5h.18c-.32-.26-.64-.5-.96-.75.49,1.16,1.04,2.27,1.73,3.33.5.77,1.95.55,1.86-.5-.12-1.57-.72-2.98-1.61-4.28-.46-.68-1-1.31-1.53-1.94-.2-.24-1.69-1.76-1.64-1.9l-.46.6c.54-.39,1.07-.53,1.46-1.13s.53-1.32.5-2.02c-.06-1.53-.95-2.89-2.18-3.74-.81-.57-1.93.56-1.37,1.37.2.29.74,1.02.54,1.4l.6-.46-.21.06.77.1.12.04c.46-1.05-.66-1.95-1.57-1.21-.45.36-.65.77-.79,1.31-.11.41.07.92.46,1.13.93.49,2.23.65,2.86-.41.69-1.16-.19-2.51-.92-3.39-.93-1.12-2.11-2.1-3.42-2.74-.19-.1-.39-.18-.59-.26-.31-.02-.34-.13-.1-.3.01-.25.17-.47.14-.75-.05-.58-.42-1.04-.84-1.41-.33-.29-.82-.4-1.21-.16-.48.3-.92-.29-1.18-.61-.81-1-2.2.42-1.41,1.41s2.82,1.98,3.78.56c1.09-1.61-1.63-3.35-2.67-4.11-.86-.63-2-1.23-2.44-2.27-.76-1.83,1.32-1.44,2.44-1.56,1.77-.19,3.15-1.3,3.92-2.88l-1.57.2c.79.89-1.35.96-1.82,1.09-.77.2-1.72.53-2.34,1.03-1.24,1.01-.26,2.31.54,3.22,2.19,2.48,5.02,4.27,7.29,6.67,2.83,3,3.39,6.72,4.54,10.52s2.88,7.55,5.01,10.98c.68,1.09,2.41.09,1.73-1.01h0Z"/>
    </g>
    <g>
      <rect class="cls-10" x="23.46" y="308.83" width="169.08" height="26.58"/>
      <path class="cls-6" d="M192.04,309.33v25.58H23.96v-25.58h168.08M193.04,308.33H22.96v27.58h170.08v-27.58h0Z"/>
    </g>
    <path class="cls-6" d="M191.04,26.13v307.77H24.96V26.13h166.08M193.04,24.13H22.96v311.77h170.08V24.13h0Z"/>
    <path class="cls-6" d="M47.09,312.43c.15,6.19-.9,12.32-3.1,18.11-.46,1.2,1.48,1.73,1.93.53,2.25-5.94,3.33-12.29,3.17-18.64-.03-1.28-2.03-1.29-2,0h0Z"/>
    <path class="cls-6" d="M48.86,314.09c1.45-.41,3.31-1,4.69-.05,1.19.83,1.06,2.62.99,3.89s-.34,3.01-1.47,3.87c-.86.66-2.07.77-2.75-.02-.35-.41-1.05-.36-1.41,0-.4.4-.36,1.01,0,1.41.96,1.1,2.55,1.35,3.9.93,1.55-.48,2.59-1.68,3.16-3.16s.69-3.21.58-4.77c-.12-1.69-.78-3.31-2.37-4.1-1.88-.93-3.93-.48-5.85.06-1.24.35-.71,2.28.53,1.93h0Z"/>
    <path class="cls-6" d="M59.04,323.96c.04-.09.09-.18.15-.25-.03.04-.09.1.03-.01.21-.19-.15.07.1-.07.06-.03.11-.06.17-.09-.15.07.04,0,.08-.02.08-.02.16-.04.24-.05-.19.03.46.03.27,0,.33.05.42.07.69.27s.48.52.64.86c.57,1.29.45,3.32-.6,4.44-.5.53-1.16.85-1.84.83-.59-.02-1.15-.4-1.41-.95-.18-.39-.19-1.03.36-1.05.78-.02,1.51.02,2.22.31.19.08.48.28.63.49.27.41.34.92.49,1.37.39,1.12,1.14,2.01,2.37,2.14.54.06,1-.5,1-1,0-.59-.46-.94-1-1,.11.01.04.03-.03-.03.05.04-.12-.11-.15-.14-.1-.12-.22-.35-.27-.5-.2-.58-.33-1.19-.63-1.74-.56-1-1.63-1.56-2.72-1.75-1.17-.2-2.69-.42-3.61.49s-.94,2.36-.36,3.45,1.68,1.75,2.86,1.88,2.44-.4,3.33-1.22c1.78-1.65,2.12-4.64,1.19-6.8-.52-1.21-1.53-2.14-2.85-2.32-1.19-.16-2.51.34-3.07,1.46-.24.48-.13,1.08.36,1.37.44.26,1.13.13,1.37-.36h0Z"/>
    <path class="cls-6" d="M81.06,325.2c1.94.43,4.3-.04,5.69-1.55.41-.44.69-.97.71-1.58s-.28-1.18-.67-1.64c-.56-.66-1.42-1.11-2.26-1.31-1.75-.42-3.77.15-4.64,1.83-.48.91-.58,1.95-.57,2.96.01.96,0,2.06.54,2.9.67,1.04,1.95,1.39,3.1,1.61,1.32.25,2.63.26,3.96.07.54-.07.83-.76.7-1.23-.16-.58-.69-.77-1.23-.7-.72.1-1.64.1-2.43,0-.14-.02-.28-.04-.46-.07-.22-.04-.44-.09-.66-.15-.37-.1-.72-.2-.94-.31-.09-.05-.18-.1-.26-.16.11.09-.01-.03-.03-.04-.19-.25.07.15-.08-.12s.02.09-.04-.08c-.06-.16-.09-.32-.12-.49-.03-.19,0,.23,0-.09,0-.1-.02-.21-.02-.31-.02-.37-.03-.74-.03-1.11,0-.18,0-.36.02-.53,0-.09.01-.18.02-.26-.02.17.02-.12.03-.15.08-.39.16-.63.3-.87.04-.07.09-.15.14-.22-.12.16,0,.01.03-.03.05-.05.1-.1.15-.15.06-.06.2-.14.05-.05.12-.08.27-.14.39-.23s-.2.06.03-.01c.07-.02.13-.04.2-.06s.13-.04.2-.05c0,0,.27-.05.12-.03s.11,0,.12,0c.08,0,.17,0,.26,0s.17,0,.26,0c0,0,.28.03.12,0s.12.02.12.02c.07.01.14.03.21.05.14.04.28.08.41.13.15.06-.2-.11.04.02.09.05.18.09.27.14.06.04.12.08.18.11.23.14-.09-.08.04.02s.25.22.36.35c.09.12-.05-.15.06.1l.05.09c-.03-.06-.04-.06-.01,0v.05s0-.09.01-.13c-.01.06-.03.13-.05.19.03-.07.03-.08,0-.02-.02.03-.15.19-.05.08-.07.08-.14.15-.22.22-.15.14-.17.15-.38.28-.4.25-.61.35-1,.47-.2.06-.41.11-.61.15s-.1.02-.05.01c-.14.02-.28.03-.42.03-.21,0-.42,0-.63-.01-.07,0-.14-.01-.21-.02.09.01.08,0-.05-.01-.07-.01-.14-.03-.21-.04-.51-.11-1.11.15-1.23.7-.12.51.15,1.11.7,1.23h0Z"/>
    <path class="cls-6" d="M98.13,320.81c-.2.65-.37,1.32-.52,1.98s-.31,1.42-.37,2.13c-.07.9.44,1.6,1.28,1.88.57.19,1.24.25,1.84.2,1.37-.1,2.63-.72,3.4-1.88.69-1.04.83-2.47.19-3.57-.69-1.18-2.23-1.92-3.56-1.44-.49.18-.87.69-.7,1.23.16.48.7.89,1.23.7.09-.03.2-.04.29-.08.12-.05-.2,0-.07.01.04,0,.09,0,.13,0s.09,0,.13,0c.14,0-.25-.06-.04,0,.09.02.19.06.28.08.13.02-.16-.09-.06-.03.05.03.1.05.15.07.06.03.16.13.23.14-.02,0-.17-.15-.04-.03.03.03.07.06.1.09s.06.06.09.1c.02.02.04.05.07.08.05.06.03.03-.05-.07.04,0,.12.19.14.23,0,0,.06.11.06.12,0,0-.07-.2-.03-.05.03.09.05.18.07.27.06.23,0-.16,0-.02,0,.06,0,.12,0,.18,0,.08.02.22-.02.29l.02-.12s-.01.07-.02.11c-.01.05-.02.09-.03.14-.03.09-.06.18-.09.27-.05.14.12-.21,0,0-.03.05-.06.11-.09.16-.05.08-.11.16-.16.25-.08.12.16-.17,0,0-.03.04-.06.07-.1.11-.07.07-.14.14-.21.2-.12.11.03-.02.03-.02,0,.01-.18.12-.19.13-.09.06-.18.11-.28.15-.04.02-.1.05-.14.07.2-.06.07-.03.02-.01-.21.07-.47.18-.69.17.21,0,.09-.01.03,0-.05,0-.11,0-.16.01-.12,0-.24,0-.36,0-.11,0-.21,0-.32-.02-.03,0-.2-.03-.07,0,.15.03-.11-.02-.14-.03-.1-.02-.2-.04-.3-.07-.05-.02-.15-.09-.06-.02l.05.02c-.09-.06-.08-.05.03.02.06.05.09.12.12.19-.07-.15.01.06,0,.05-.02-.01.01-.52,0-.19.01-.29.1-.6.15-.89s.12-.59.18-.89c.14-.62.31-1.24.49-1.84.15-.5-.18-1.11-.7-1.23s-1.07.16-1.23.7h0Z"/>
    <path class="cls-6" d="M113.46,314.47c.05-1.6-1.75-2.46-3.13-1.98-1.77.61-1.99,2.76-2.14,4.34-.21,2.18-.28,4.38-.22,6.57.03,1,.16,2.02.13,3.02-.01.43-.27,1.69-.94,1.18-.43-.33-1.11-.07-1.37.36-.31.51-.07,1.04.36,1.37,1.24.94,2.99.1,3.59-1.18.39-.82.38-1.74.33-2.62-.06-.99-.11-1.99-.12-2.99-.02-1.96.06-3.91.25-5.86.06-.66.09-1.55.52-2.09.14-.18.29-.28.52-.25.09.01.19.04.26.1.09.08-.04-.09-.04.01-.04,1.29,1.96,1.29,2,0h0Z"/>
    <path class="cls-6" d="M107.17,321.05c.17-.03.35-.06.52-.08.08-.01.05,0-.07,0,.05,0,.11-.01.16-.02.08,0,.16-.02.24-.03.34-.04.67-.06,1.01-.07.69-.03,1.38-.02,2.06.04.52.04,1.02-.49,1-1-.03-.58-.44-.96-1-1-1.49-.12-2.98-.02-4.46.23-.52.09-.85.75-.7,1.23.18.56.68.79,1.23.7h0Z"/>
    <path class="cls-6" d="M122.79,315.71c.79,1.78.31,3.86-.12,5.66-.51,2.16-1.02,4.33-.51,6.54.29,1.25,2.22.72,1.93-.53-.51-2.2.31-4.4.75-6.53s.56-4.16-.32-6.15c-.22-.49-.94-.61-1.37-.36-.51.3-.58.87-.36,1.37h0Z"/>
    <path class="cls-6" d="M124.26,316.08c1.09-1.11,2.45-1.48,3.97-1.48,1.76,0,3.53.11,5.3.17,1.29.05,1.29-1.95,0-2-1.94-.07-3.92-.25-5.86-.16-1.84.08-3.53.72-4.83,2.06-.9.92.51,2.34,1.41,1.41h0Z"/>
    <path class="cls-6" d="M124.61,321.33c.21-.04.42-.08.63-.11-.22.03.08,0,.1,0,.09,0,.18-.02.27-.03.41-.03.82-.04,1.23-.02.2,0,.4.02.59.04.09,0,.18.02.27.03-.22-.03.1.02.14.02.41.07.81.16,1.2.28.5.15,1.11-.18,1.23-.7s-.16-1.07-.7-1.23c-1.79-.53-3.68-.58-5.5-.21-.51.1-.86.74-.7,1.23.18.54.68.81,1.23.7h0Z"/>
    <path class="cls-6" d="M134.83,315.89c.4,1.99.41,4.07,0,6.06s-1.41,3.95-1.1,6.11c.08.53.76.83,1.23.7.57-.16.78-.69.7-1.23-.15-1.01.23-2.03.53-2.98s.58-1.94.73-2.95c.32-2.09.27-4.17-.15-6.24-.25-1.26-2.18-.73-1.93.53h0Z"/>
    <path class="cls-6" d="M139.89,322.57c-1.37.08-2.02,1.36-2.09,2.59-.04.63.07,1.27.35,1.84.32.65.94,1.05,1.6,1.28,1.2.42,2.69.34,3.66-.54.84-.77,1.17-2.13.77-3.2-.5-1.33-1.8-2.18-3.21-2.18-.52,0-1.02.46-1,1s.44,1,1,1c.1,0,.19,0,.28.01.13,0-.21-.04-.08,0,.05.01.1.02.15.03.08.02.16.05.24.07s.1.08-.06-.03c.05.03.12.06.17.08.07.04.14.09.22.13.14.09-.04-.02-.05-.04.02.03.07.06.1.08.07.06.14.13.2.2l.02.02c.05.07.05.06,0,0-.05-.07-.05-.07,0,0,.02.03.03.05.05.08.02.04.04.07.06.11s.07.16.02.02c-.06-.16,0,.03.01.05.01.04.02.08.03.11s.02.08.03.12c.04.16-.01-.07-.01-.09-.01.09.01.2,0,.3,0,.02-.02.09,0,.12-.03-.15.04-.2,0-.09-.02.09-.04.17-.07.26-.01.04-.03.07-.04.11-.04.13.12-.23.02-.05-.04.08-.09.15-.13.23-.09.14-.06-.01.03-.04-.01,0-.07.08-.08.09-.03.03-.06.05-.08.08-.11.11.04-.04.07-.04-.06.01-.14.1-.2.13-.03.01-.22.08-.08.04s-.05.01-.09.02c-.06.02-.12.03-.18.04-.04,0-.19,0-.05,0s-.01,0-.05,0c-.06,0-.12,0-.18,0-.1,0-.2,0-.29-.01-.04,0-.11-.02-.15-.02.13.02.16.02.08,0-.03,0-.07-.01-.1-.02-.18-.03-.36-.09-.54-.14-.22-.07.14.08.02,0-.04-.02-.08-.04-.12-.06s-.08-.05-.12-.07c-.06-.04-.04-.02.07.05-.03-.02-.05-.04-.08-.07-.03-.03-.06-.07-.09-.1-.09-.09.1.2.02,0-.02-.04-.04-.08-.07-.12-.07-.14.02.05.02.05-.03,0-.07-.23-.07-.26,0,0-.03-.13-.03-.14.02.15.02.17.01.06v-.07c-.02-.21.02-.43,0-.64,0,.02-.05.26-.01.1.01-.06.02-.11.04-.17.02-.08.09-.2.09-.27,0,.02-.11.22-.03.08.03-.05.05-.1.08-.15.01-.02.05-.07.06-.09-.02.06-.16.16-.04.06.09-.08.09-.03-.07.04.03-.01.08-.04.11-.07.1-.07-.25.08-.08.03s-.26.02-.06,0c.52-.03,1.03-.44,1-1-.02-.52-.44-1.03-1-1h0Z"/>
    <path class="cls-6" d="M145.02,322.78c1.45,1.16,1.51,3.36,2.61,4.86.41.56,1.03.63,1.57.2.33-.26.54-.6.83-.89,0,0,.23-.22.24-.19-.03.02-.06.01-.09-.02-.1-.04-.11-.03-.04,0,0,0,.03.03.04.05.05.05.01.01.08.11.04.07.08.13.13.2.11.17.22.33.34.49.37.47.9.8,1.51.56.48-.19.74-.67,1.03-1.08s.56-.82.82-1.23c.53-.84,1.01-1.7,1.46-2.58.58-1.14-1.14-2.16-1.73-1.01-.39.76-.8,1.5-1.25,2.23-.22.35-.44.7-.67,1.04-.12.18-.25.36-.37.54-.06.09-.13.18-.19.27-.13.16-.13.18,0,.04l.77-.1c.3.07.17.15.15.06-.01-.07-.12-.18-.16-.25-.13-.2-.26-.4-.41-.59-.34-.42-.82-.7-1.37-.73-.59-.03-1.13.24-1.56.62-.36.32-.6.74-.98,1.04l1.57.2c-1.2-1.63-1.26-3.92-2.93-5.26-.42-.34-1-.41-1.41,0-.35.35-.42,1.07,0,1.41h0Z"/>
    <path class="cls-6" d="M157.47,325.9c1.81.28,3.6-.18,5.02-1.35.77-.63,1.5-1.66.91-2.67-.22-.37-.58-.66-.92-.93-.42-.33-.87-.63-1.4-.76-.88-.21-1.85,0-2.6.51s-1.28,1.27-1.59,2.15c-.28.8-.39,1.74-.32,2.58.08,1.02.55,1.84,1.44,2.36,1.83,1.05,4.18.92,6.05.08.48-.21.63-.95.36-1.37-.32-.5-.86-.59-1.37-.36-.3.13.09-.03-.09.04-.08.03-.16.06-.24.09-.15.05-.29.09-.44.13s-.3.07-.45.09c-.32.06.1,0-.09.01-.12.01-.24.02-.36.03-.31.01-.61,0-.92-.03-.21-.02-.08-.01-.04,0-.08-.01-.17-.03-.25-.05-.18-.04-.36-.08-.54-.14-.06-.02-.13-.04-.19-.06-.01,0-.32-.12-.11-.03-.11-.05-.22-.1-.32-.16-.06-.04-.12-.08-.19-.12-.13-.08.14.15-.04-.04-.04-.04-.08-.08-.12-.13.13.15-.02-.04-.04-.08.09.16-.08-.36-.05-.16-.02-.17-.02-.34-.02-.5,0-.13,0-.26.01-.39,0-.08.01-.16.02-.24,0-.05,0-.1.01-.15-.02.1-.01.1,0-.02.05-.29.12-.57.21-.84.06-.18.02-.07,0-.03.04-.09.08-.17.13-.26.08-.14.16-.28.26-.41-.12.15.01,0,.04-.04.05-.05.11-.1.16-.16.02-.02.15-.12,0-.01.05-.04.1-.07.15-.1.07-.05.16-.09.23-.13.03-.02.18-.08,0,0,.15-.06.31-.1.46-.13.15-.03-.22-.01.04,0,.06,0,.12,0,.17,0,.25,0-.11-.05.03,0,.07.02.14.03.21.06-.04-.01-.15-.08.04.02.06.03.12.06.18.1.09.05.17.11.25.17-.12-.09.11.1.12.1.11.1.22.19.33.29l.03.03c.08.08.08.08,0,0-.04-.13-.04-.22-.04-.34,0,.21.03-.03-.03.06-.08.14.15-.14-.05.07-.11.11-.22.22-.34.33.01-.01-.22.18-.12.1.07-.06-.14.1-.16.12-.14.1-.29.19-.44.27-.05.03-.11.06-.17.09-.06.03-.11.05-.17.08.08-.03.09-.04.02,0-.16.06-.32.12-.49.17-.15.04-.3.08-.46.11.01,0-.29.05-.14.03.1-.02-.2.02-.24.02-.16.01-.31.01-.47,0-.08,0-.16,0-.23-.01-.04,0-.36-.05-.15-.01-.51-.08-1.1.13-1.23.7-.11.48.15,1.15.7,1.23h0Z"/>
    <path class="cls-6" d="M167.39,326.72c.03-.81-.08-1.63-.04-2.44,0-.1.01-.19.02-.29.01-.25-.04.22,0-.03.03-.15.06-.3.1-.44.02-.07.04-.14.07-.21.02-.05.03-.09.05-.14l-.04.1c.03-.14.15-.31.23-.42.02-.03.04-.06.06-.09-.08.1-.09.12-.04.06.05-.05.1-.11.15-.16.03-.03.21-.15.09-.08-.13.07.11-.06.13-.07.15-.1-.21.05-.02,0,.06-.01.12-.03.18-.05.18-.05-.23,0-.02,0,.06,0,.12,0,.18,0,.03,0,.06,0,.09,0,.08,0,.04,0-.11-.02.02.02.15.03.18.04.18.05.05.05-.01-.02.03.03.11.06.16.08.18.11,0,.04-.01-.02,0,0,.11.12.12.12-.09-.13-.11-.15-.05-.06.02.02.03.05.04.07.04.07.02.03-.04-.11.01.04.03.08.04.11.14.5.71.87,1.23.7s.85-.69.7-1.23c-.24-.84-.96-1.46-1.81-1.62-.94-.18-1.85.09-2.53.78s-.95,1.52-1.07,2.41c-.13,1,.02,2.01-.01,3.01-.02.52.47,1.02,1,1,.56-.03.98-.44,1-1h0Z"/>
    <path class="cls-6" d="M178.53,322.98c.24-1.48-.9-2.7-2.32-2.95s-2.96.35-3.8,1.56c-.48.68-.57,1.54-.17,2.28.34.63.96,1.06,1.54,1.45s1.18.71,1.78,1.05c.13.07.28.15.39.24-.08-.07.05.05.05.05.08.09.05.04.03.04-.01,0-.03-.13-.02-.11,0,.01,0,.2,0,.04,0,.11-.04.11-.09.17-.14.16-.4.29-.62.37-.32.11-.65.19-.98.18-.23,0-.46-.08-.6-.17.06.04-.3-.28-.15-.15-.02-.02-.09-.18-.02-.01-.02-.06-.04-.3-.03-.09-.03-.54-.44-1-1-1-.52,0-1.03.46-1,1,.08,1.52,1.55,2.52,3,2.42,1.38-.09,3.16-.75,3.44-2.29.33-1.76-1.43-2.38-2.63-3.12-.28-.17-.55-.35-.81-.53-.12-.08-.15-.11-.26-.21-.04-.04-.09-.08-.13-.12,0,0-.2-.23-.12-.14,0-.01-.12-.16-.03-.04-.03-.05,0-.12-.02-.06-.05.11.06-.09.08-.12.07-.13.27-.34.41-.42.48-.29.98-.43,1.44-.31.07.02.14.04.21.07.08.03-.01-.02.1.06.06.04.12.07.18.11-.1-.08.04.04.07.07.02.02.14.17.08.08s.06.11.07.14c-.06-.14,0,.01-.01.01v-.09c-.01.12,0,.12,0,0-.09.53.14,1.08.7,1.23.48.13,1.14-.16,1.23-.7h0Z"/>
    <path class="cls-6" d="M73.35,324.91c-.59.35-1.48.98-2.21.66-.59-.26-.57-1.31-.63-1.86-.07-.65-.07-1.28.58-1.6.5-.25,1.07-.23,1.56.05,1.45.81,1.69,2.69,1.76,4.18.08,1.63.26,3.68-1.15,4.85-.58.48-1.48.7-2.17.34-.62-.32-.87-1.03-.65-1.67.43-1.22-1.5-1.74-1.93-.53s-.02,2.54.86,3.4,2.26,1.15,3.49.85,2.33-1.25,2.91-2.4c.64-1.27.7-2.63.67-4.02-.06-2.48-.41-5.53-2.92-6.78-2.28-1.14-5.13.29-5.04,2.97.04,1.4.24,3.18,1.58,3.94,1.43.82,3.01.13,4.29-.63,1.11-.66.1-2.39-1.01-1.73h0Z"/>
    <path class="cls-10" d="M8.79,9.92v340.16h198.43V9.92H8.79ZM193.04,335.91H22.96V24.09h170.08v311.81Z"/>
    <path class="cls-10" d="M-19.56-18.43v396.85l255.12-1.37V-18.43H-19.56ZM193.04,335.91H22.96V24.09h170.08v311.81Z"/>
  </g>
</svg>