<?xml version="1.0" encoding="UTF-8"?>
<svg id="boarder" xmlns="http://www.w3.org/2000/svg" xmlns:xlink="http://www.w3.org/1999/xlink" viewBox="0 0 216 360">
  <defs>
    <style>
      .cls-1 {
        fill: none;
      }

      .cls-2 {
        fill: #7fa293;
      }

      .cls-3 {
        fill: #58595b;
      }

      .cls-4 {
        fill: #d1d3d4;
      }

      .cls-5 {
        fill: #708a9b;
      }

      .cls-6 {
        fill: #bcbec0;
      }

      .cls-7 {
        fill: #231f20;
      }

      .cls-8 {
        fill: #b3af66;
      }

      .cls-9 {
        fill: #6d6e71;
      }

      .cls-10 {
        fill: #414042;
      }

      .cls-11 {
        fill: #d4cf78;
      }

      .cls-12 {
        fill: #84a395;
      }

      .cls-13 {
        fill: #cf605d;
      }

      .cls-14 {
        fill: #fff;
      }

      .cls-15 {
        fill: #c0ad94;
      }

      .cls-16 {
        fill: #808285;
      }

      .cls-17 {
        fill: #6f767b;
      }

      .cls-18 {
        fill: #e6e7e8;
      }

      .cls-19 {
        fill: #9bb1c0;
      }

      .cls-20 {
        fill: #939598;
      }

      .cls-21 {
        clip-path: url(#clippath);
      }

      .cls-22 {
        fill: #a7a9ac;
      }
    </style>
    <clipPath id="clippath">
      <path class="cls-1" d="M0,15.06v329.88c0,8.32,6.94,15.06,15.49,15.06h185.02c8.56,0,15.49-6.74,15.49-15.06V15.06c0-8.32-6.94-15.06-15.49-15.06H15.49C6.94,0,0,6.74,0,15.06Z"/>
    </clipPath>
  </defs>
  <g class="cls-21">
    <path class="cls-12" d="M18.86,4.27v32.28c0,6.94-2.11,17.22,7.43,18.49,3.64.49,7.63.01,11.31,0,5.58-.03,11.15-.11,16.73-.24,11.15-.26,22.29-.73,33.43-1.38,8.32-.48,8.37-13.49,0-13-10.81.63-21.62,1.09-32.44,1.36-5.25.13-10.49.21-15.74.25-2.32.02-4.63.03-6.95.03-.94,0-1.9-.07-2.83.02-.7.07-1.83-.32-1,.28l2.99,3.88c-.5-1.34.08-4.03.1-5.69.04-3.89,0-7.79,0-11.69V4.27c0-8.36-13-8.38-13,0h0Z"/>
    <path class="cls-2" d="M20.89,59.8l.28,29.99c.06,6.01,9.33,9.42,12.11,3.28,3.48-7.68,5.2-15.77,4.24-24.2-.14-1.12-.3-2.24-.48-3.36-.06-1.48-.27-.97-.62,1.53.13.2,5.55-.55,5.9-.58,5.25-.48,10.51-.87,15.77-1.19,19.09-1.17,38.22-1.4,57.34-1.56.86,0,6.61.55,7.02-.01l-1.81-5.86c-.95.34-1.9.66-2.86.96-4.27,1.33-8.67,2.28-13.09,2.91-7.83,1.12-15.79,1.3-23.68,1.57-16.95.58-33.68,1.56-49.37,8.59l9.55,3.88c-.81-3.63,13.16-3.29,15.2-3.42,7.75-.53,15.51-.92,23.27-1.17,7.76-.25,15.53-.35,23.3-.31,6.86.04,14.16-.15,20.54,2.76,7.56,3.45,14.17-7.75,6.56-11.23-8.98-4.1-18.34-4.5-28.07-4.54-10.68-.04-21.36.19-32.03.69-13.55.64-46.34-1.83-41.3,20.66,1,4.47,5.95,5.5,9.55,3.88,14.45-6.47,30.7-6.37,46.22-6.93,7.94-.29,15.86-.74,23.72-1.92,6.69-1,15.37-2.17,20.87-6.4,5.88-4.53,5.15-13.3-1.9-16.16-3.35-1.36-7.16-1.01-10.69-.98-4.62.04-9.23.08-13.85.13-18.46.23-36.92.71-55.32,2.2-7.44.61-20.75-.64-22.97,8.84-.86,3.66.47,7.43.54,11.12.08,4.66-.83,9.26-2.76,13.52l12.11,3.28-.28-29.99c-.08-8.36-13.08-8.38-13,0h0Z"/>
    <path class="cls-6" d="M36.76,91.39c13.98-3.92,28.18-5.71,42.69-5.4,4.12.09,7.52-4.24,6.27-8.23-5.58-17.8.15-35.63.87-53.67.14-3.46-3.09-6.57-6.5-6.5-14.89.31-29.77,1.08-44.67,1.38-3.64.08-6.32,2.92-6.5,6.5-.87,17.43-1.06,34.88-.57,52.33.13,4.48,4.03,7.06,8.23,6.27,7.72-1.46,15.41-3.04,23.07-4.76,6.53-1.47,14.2-2.23,16.11-9.86,1.75-6.97,1.85-14.79,2.6-21.94.6-5.76,3.54-15.43-1.07-20.16s-14.24-1.67-19.91-.87c-3.67.52-7.33,1.1-10.97,1.76-2.95.53-6.22.87-8.41,3.19-4.03,4.25-2.86,13.12-2.65,18.47.29,7.67,1.39,15.3,3.11,22.77.91,3.95,6.13,6.14,9.55,3.88,6.7-4.41,14.05-9.68,18.85-16.23,5.08-6.93,2.58-14.57-2.33-20.85-5.38-6.88-12.34-6.69-17.04.61s-6.66,15.3-7.03,23.57c-.23,5.3,7.52,9.02,11.1,4.6,6.88-8.5,13.14-17.4,18.65-26.85,3.82-6.54-4.81-12.74-10.21-7.88-8.37,7.54-10.64,20.23-5.88,30.37,1.19,2.53,3.34,4.26,4.64,6.61l.55.68c-.08-1.13-.51-1.3-1.29-.51-1.27-.07-3.26.86-4.49,1.15-7.32,1.73-14.29,4.14-21.19,7.13-7.66,3.32-1.04,14.52,6.56,11.23,7.12-3.08,14.52-4.42,21.84-6.74,5.85-1.86,11.48-6.43,11.37-13.15-.1-5.94-5.44-8.59-7-13.82s.2-10.27,4.06-13.74l-10.21-7.88c-4.95,8.48-10.44,16.59-16.62,24.22l11.1,4.6c.17-3.83.86-7.58,2.25-11.18.37-.96,3.19-5.08,3-5.83-4.78-1.16-6.09-.71-3.94,1.33.48.64.91,1.32,1.29,2.03,1.43,3.39-2.18,5.41-4.63,7.64-3.13,2.85-6.46,5.36-10,7.69,3.18,1.29,6.37,2.59,9.55,3.88-1.11-4.85-1.97-9.73-2.37-14.7s.6-10.16-.19-14.78c.51-3.17-.23-2.59-2.21,1.73,1.21-.23,2.43-.46,3.64-.68,2.43-.44,4.87-.84,7.31-1.22s4.96-.73,7.45-1.03c1.23-.15,2.45-.29,3.68-.42,2.05.11,2.42-.07,1.12-.55l-2.99-3.88c.82,1.94-.2,5.14-.4,7.23-.24,2.52-.5,5.03-.76,7.55-.57,5.41-.58,11.5-1.93,16.78-.23.91-.17,1,.2.27.57-.65.36-.74-.65-.27-.91-.2-2.9.68-3.82.89-2.87.66-5.74,1.3-8.62,1.92-5.76,1.24-11.53,2.4-17.32,3.49l8.23,6.27c-.49-17.45-.3-34.9.57-52.33l-6.5,6.5c14.89-.31,29.77-1.08,44.67-1.38l-6.5-6.5c-.77,19.37-6.41,37.97-.4,57.12l6.27-8.23c-15.59-.33-31.13,1.66-46.15,5.87-8.04,2.25-4.63,14.8,3.46,12.54h0Z"/>
    <path class="cls-12" d="M110.16,29.39c0,3.38.76,7.77-.02,11.04l2.99-3.88c-1.73.85-4.59.95-6.49,1.18-1.19.13-2.39.23-3.59.3-3.05-.33-2.66.74,1.17,3.21.45-.28-.01-6.46.01-7.26.03-1.02-.2-4.9.14-5.45l-3.88,2.99c1.46-.41,3.1-.25,4.61-.23,1.14.02,2.27.06,3.41.13,2.24.59,2.34.04.27-1.63-1.11-2.37-1.77-2.38-1.97-.02-.27.87-.54,1.74-.82,2.62-.5,1.62-.78,3.67-1.57,5.15l3.88-2.99,2.23.04c-.81-.26-1.62-.51-2.44-.75-1.36-.4-2.73-.78-4.12-1.07-2.78-.58-5.61-.9-8.45-.93l6.27,8.23c.5-1.88,1.62-3.75,2.03-5.58l.75-1.33-2.94-1.01,1.06-2.09c-.83.51-1.65,1.03-2.48,1.54-4.68,2.92-9.36,5.84-14.04,8.75l9.78,5.61c-.27-5.16-1.41-12.59.37-17.52l-4.54,4.54c1.92-.58,17.71-.59,18.01-1.75l-1.51-1.76.02.85c-.34.7.07,2.65.17,3.44.34,2.85,1.4,4.81,3.21,7.04,3.88,4.79,10.71.42,11.1-4.6s.93-9.47,2.62-14.06h-12.54c1.65,8.2,2.77,16.43,3.38,24.76s13.61,8.36,13,0c-.69-9.48-1.97-18.9-3.84-28.22-1.37-6.83-10.52-5.49-12.54,0s-2.62,11.57-3.09,17.52l11.1-4.6c.92,1.13.5.09.43-1.29-.06-1.23-.11-2.46-.38-3.66-.6-2.69-1.89-5.08-4.18-6.69-4.94-3.47-12.73-1.21-18.29-.7-5.74.52-13.21-.22-15.02,6.73-1.59,6.11-.8,13.73-.47,19.96.25,4.73,5.39,8.35,9.78,5.61,5.78-3.6,12.29-6.84,17.64-11.07,5.01-3.97,5.53-10.18,2.08-15.46-3.22-4.93-9.48-6.59-14.53-3.42-4.88,3.06-7.26,9.69-8.66,14.99-1.09,4.11,2.02,8.19,6.27,8.23,5.29.05,12.01,4.18,17.02,1.91,5.06-2.29,6.41-11.32,7.62-16.15,1.67-6.64-1.58-11.05-8.26-11.89-5.09-.64-13.65-1.96-17.74,1.93s-2.99,12.03-3,16.95c-.01,6.32,1.19,12.56,8.62,13.41,5.43.62,14.04-.31,18.98-2.79,6.5-3.27,4.41-12.86,4.39-18.84-.02-8.36-13.02-8.38-13,0h0Z"/>
    <path class="cls-15" d="M22.79,97.38c.19,3.59.37,7.17.56,10.76.18,3.39,2.86,6.66,6.5,6.5,3.37-.15,6.69-2.86,6.5-6.5s-.37-7.17-.56-10.76c-.18-3.39-2.86-6.66-6.5-6.5-3.37.15-6.69,2.86-6.5,6.5h0Z"/>
    <path class="cls-19" d="M24.66,53.62c26.59-.21,53.17-.16,79.76.16,7.48.09,14.95.2,22.43.34,2.74.05,3.5-4.42.66-4.91-6.46-1.12-12.96-.9-19.48-.52s-13.39.73-20.1.96c-13.36.45-26.73.54-40.1.27-7.47-.15-14.94-.43-22.4-.8-3.22-.16-3.21,4.84,0,5,26.37,1.34,52.81,1.28,79.17-.22,7.16-.41,14.46-1.09,21.57.14l.66-4.91c-26.58-.47-53.17-.68-79.75-.62-7.48.02-14.95.06-22.43.12-3.22.03-3.22,5.03,0,5h0Z"/>
    <path class="cls-19" d="M36.14,55.16c-1.34,13.85-2.68,27.7-4.02,41.56-.27,2.79,4.35,3.42,4.91.66,2.9-14.36,5.35-28.81,7.36-43.32l-4.82-1.33c-1.27,9.46-2.55,18.92-3.82,28.38-.18,1.34.32,2.68,1.75,3.08,1.16.32,2.89-.4,3.08-1.75,1.27-9.46,2.55-18.92,3.82-28.38.18-1.34-.32-2.68-1.75-3.08-1.17-.32-2.89.4-3.08,1.75-2.01,14.51-4.46,28.96-7.36,43.32l4.91.66c1.34-13.85,2.68-27.7,4.02-41.56.13-1.35-1.24-2.5-2.5-2.5-1.46,0-2.37,1.15-2.5,2.5h0Z"/>
    <path class="cls-19" d="M60.89,54.73v14.52c-.01,1.25.02,2.52.93,3.49s2.27,1.25,3.5,1.53c1.02.23,2.16.52,3.21.45,1.75-.12,2.94-1.42,3.11-3.13.23-2.28.04-4.67.04-6.97s.18-4.54-.04-6.76-1.39-4.64-3.96-4.72c-2.29-.08-3.8,1.84-4.2,3.92-.48,2.49-.35,5.2-.31,7.72.04,2.72.21,5.44.49,8.15.14,1.34,1.05,2.5,2.5,2.5,1.24,0,2.64-1.15,2.5-2.5-.31-2.94-.48-5.9-.5-8.86,0-1.48.02-2.96.09-4.44.02-.35.03-.71.05-1.06,0-.13.02-.26.03-.39-.04.29-.04.29.02-.01.03-.11.25-.73.03-.26l.1-.19c.15-.25.15-.24-.02.03-.58.29-.89.64-1.56.21-.11-.06-.21-.14-.28-.24-.11-.15-.1-.12.03.1-.11-.26-.12-.24-.03.04l.05.23c-.12-.49,0,.13.02.26.06,1.5,0,3.01,0,4.52s0,2.86,0,4.29c0,.72,0,1.43,0,2.15,0,.42,0,.83,0,1.25,0,.18,0,.36,0,.54-.02.45,0,.36.07-.29l.9-.9c.74-.1.88-.15.43-.15.21.03.13,0-.24-.05-.34-.06-.68-.13-1.02-.2-.45-.1-.9-.21-1.35-.33-.2-.05-.39-.11-.58-.17l.99,1.26c.11-.08,0-1.19,0-1.35v-1.09c0-.91,0-1.82,0-2.72v-10.35c.01-1.35-1.14-2.5-2.49-2.5s-2.5,1.14-2.5,2.5h0Z"/>
    <path class="cls-19" d="M86.83,55.12c0,4.45-.01,8.89-.02,13.34,0,1.4.22,2.78,1.52,3.57,1.08.66,2.41.46,3.61.41,2.33-.1,5.71.32,6.64-2.43.33-.97.16-1.93.06-2.92-.12-1.13-.24-2.26-.37-3.4-.23-2.16-.47-4.32-.7-6.48-.25-2.32-.49-5.07-3.2-5.79-2.38-.64-4.81,1.1-5.42,3.38-.34,1.26-.2,2.48-.03,3.74s.35,2.46.53,3.69c.36,2.49.72,4.98,1.08,7.47.19,1.3,1.9,2.13,3.08,1.75,1.42-.46,1.95-1.68,1.75-3.08-.48-3.32-.96-6.64-1.44-9.97-.12-.84-.15-1-.19-1.9,0-.05-.04-.49-.01-.13,0-.06-.03-.42,0-.16-.01-.1.33-.39-.04,0,.18-.2.16-.09-.02,0-.42.22-.19.03-.04.02-.21.01-.36.05-.57-.02-.32-.11-.43-.35-.68-.55-.16-.13-.05-.25.02.03.04.15.07.3.1.46-.03-.14-.06-.52,0,.11.05.46.1.93.15,1.39.36,3.29.71,6.59,1.07,9.88.04.33.06.66.1.98.08.57-.04-.03.05-.04l1.44-1.2h-.22c-.87-.04-1.78.09-2.65.13-.68.03-1.58-.08-2.23.09,2.4-.64,1.54,2.6,1.64,1.27.02-.21,0-.43,0-.64v-1.43c0-3.86.01-7.73.02-11.59,0-1.31-1.15-2.56-2.5-2.5s-2.5,1.1-2.5,2.5h0Z"/>
    <path class="cls-19" d="M113.15,54.73v10.91c0,1.77-.27,3.81.22,5.53.52,1.84,2.22,3.11,4.15,3,1.78-.1,3.39-1.14,4.17-2.75s.79-3.32.83-5.04c.09-3.64.18-7.27.27-10.91.05-2.1-.1-4.3-2.29-5.26-1.74-.77-3.59-.24-5.23.54-1.22.58-1.54,2.33-.9,3.42.73,1.25,2.2,1.48,3.42.9.26-.12.27-.13.04-.02.15-.06.3-.11.45-.15.15-.04.3-.08.46-.11-.25.03-.28.04-.1.03.19,0,.15-.01-.14-.04.41.13.27.03-.41-.29-.17-.17-.26-.39-.28-.64,0,.19.01.37,0,.56-.01,1.67-.08,3.34-.13,5.01s-.08,3.34-.13,5.01c-.02.83-.04,1.67-.06,2.5-.02.73-.01,1.33-.12,1.8-.09.37-.02.32-.2.55.14-.16.12-.14-.08.06.07-.11.17-.17.3-.18-.54,0,.36.14-.22.04.31-.03.57.08.8.33.06.07.12.13.17.2.02.16.03.16.01-.02,0-.14,0-.28,0-.42,0-.48,0-.97,0-1.45v-2.54c0-3.51,0-7.03,0-10.54,0-1.35-1.15-2.5-2.5-2.5s-2.5,1.14-2.5,2.5h0Z"/>
    <path class="cls-19" d="M125.39,27.39c-.06,10.54-.05,21.08.03,31.62.04,4.38-.62,9.39,2.61,12.88,2.84,3.06,7.49,3.48,11.38,3.82s7.53-3.72,7.5-7.5c-.11-13.61-.23-27.22-.34-40.82-.08-9.65-15.08-9.67-15,0,.11,13.61.23,27.22.34,40.82l7.5-7.5c-.64-.03-1.26-.14-1.87-.33-2.61-.83-1.63.69,2.93,4.55.56-.56-.04-4.19-.05-4.94-.03-3.62-.05-7.25-.07-10.87-.03-7.25-.01-14.49.03-21.74.05-9.65-14.95-9.67-15,0h0Z"/>
    <path class="cls-18" d="M144.84,31.31l-.04,34.9c0,3.22,2.32,6.45,5.51,7.23,7.43,1.83,14.94,3.14,22.54,4,6.72.76,14.76,2.1,21.44.53,7.11-1.68,8.38-8.25,9.26-14.42,1.1-7.73,1.97-15.49,2.51-23.28.43-6.32.39-12.86-4.65-17.48-4.6-4.23-10.97-4.74-16.89-5.18-12.19-.91-31.92-5.17-36.07,10.86,3.67-1.49,7.34-2.99,11.02-4.48-.67-.56-1.2-1.23-1.58-2.02-3.76-6.06-14.3-3.92-13.98,3.79.6,14.07.66,28.14.18,42.22-.13,3.91,3.55,7.7,7.5,7.5,5.46-.28,10.92-.55,16.38-.83,1.85-.09,6.14.51,7.71-.39,1.44.13,1.33-.2-.33-1.01-1.13-1.35-1.54-1.38-1.24-.09-.38.71.05,3.24-.07,4.05l11.02-4.48.33.89c-3.11-7.85-14-6.73-14.73,1.99-.43,5.07.13,10.13,1.25,15.09.53,2.31,1.24,4.56,1.93,6.83.34,1.1.52,2.31.86,3.38.49,1.53-.18.52.37.2l10.26,10.26c8.23-12.07,8.64-27.64,1.98-40.48l-2.69,10.26.79-.53-3.79,1.02c-2.44-3.72-3.88-4.42-4.32-2.12-.25.82-.52,1.63-.82,2.44-.57,1.55-1.21,3.02-1.95,4.5-1.53,3.08-3.37,5.96-5.37,8.75-2.16,3.01-.8,8.77,2.69,10.26,3.68,1.58,6.74,3.87,8.18,7.74,1.81,4.88,8.5,7.9,12.54,3.31.48-.59.99-1.15,1.53-1.68,1.31-1,.54-1.62-2.3-1.85l-1.02-3.79c1-1.45.98-1.53-.05-.25-.64.81-1.27,1.63-1.87,2.47-1.17,1.96-1.76,4.17-1.95,6.43-.33,3.79.63,7.57.89,11.34.64,9.34-.54,18.42-3.29,27.35,3.08-1.75,6.15-3.49,9.23-5.24-1.17-.44-2.27-1.03-3.27-1.78-.43-.28-.81-.61-1.15-1-.85-1.04-.93-.7-.24,1.03,1.07-2.24,1.79-4.78,2.71-7.08,1.99-4.95,4.05-9.91,5.36-15.1,2.86-11.34,1.6-23.49.09-34.95-2.64-20.02-13.61-37.61-31.98-46.75-7.28-3.62-15.61,5.64-9.09,11.78s18.05,12.94,27.42,10.53c9.83-2.52,8.89-17.88,7.34-25.59-1.87-9.29-11.53-18.87-21.55-14.02s-3.64,17.51,1.46,23.7c2.76,3.35,6.25,6.66,10.56,7.73,5.32,1.32,10.91-1.86,12.28-7.24,2.17-8.54-5.04-17.45-11.8-21.69-7.11-4.45-21.55-7.62-24.1,3.55-2.02,8.85,5.38,17.43,13.76,19.12,10.34,2.09,24.56-5.04,26.97-15.88,2.37-10.64-11.21-20.09-19.27-11.33-6.53,7.09,4.05,17.73,10.61,10.61l-.03.06-3.79,1.02c-.49-1.26-1.28-2.36-2.35-3.3-.57.65-1.2,1.23-1.89,1.74-1.37,1.04-3.05,1.96-4.75,2.29-1.39.27-2.13-.03-3.42-.28-.41-.24-.75-.56-1.01-.95-.29-1.01-.38-.73-.27.86l-4.48,3.45c2.29-.53,5.43,1.11,7.21,2.48.94.72,1.88,1.7,2.58,2.66.52.78.98,1.6,1.38,2.44.86-1.42,1.86-2.74,2.99-3.98h3.99c-2.68-.45-7.29-6.54-6.99-9.28l-2.2,5.3c-2.33,0-2.99.32-1.98.99.39.26.67.62.85,1.07.42,1.46.74,2.63.86,4.16.13,1.71.07,3.47,0,5.18l-.1,1.76c-.52,2.51-.06,2.39,1.38-.34l3.79-1.02c-5.57.07-10.85-2.67-14.82-6.4l-9.09,11.78c8.21,4.08,14.92,10.16,19.41,18.2,5.46,9.8,6.04,21.4,6.61,32.36.63,11.95-3.44,21.7-7.7,32.63-1.91,4.91-2.86,9.58.16,14.3s8.41,7.74,13.59,9.67c3.88,1.44,8.12-1.64,9.23-5.24,2.38-7.74,3.78-15.81,3.98-23.91.09-3.72-.08-7.43-.5-11.13-.29-2.63-1.13-5.03.04-7.29,1.76-3.39,3.6-4.8,3.29-9-.26-3.4-2.28-6.53-5.22-8.27-6.88-4.06-13.86-.4-18.59,4.98,4.18,1.1,8.36,2.21,12.54,3.31-2.75-7.42-7.67-13.53-15.07-16.7l2.69,10.26c4.74-6.6,9.89-15.45,10.59-23.74s-7.74-16.17-15.66-10.84c-3.49,2.35-4.66,6.47-2.69,10.26,4.3,8.29,3.2,17.75-1.98,25.34-4.35,6.37,4.07,13.89,10.26,10.26s7.98-10.33,6.6-17.04c-1.52-7.42-4.24-13.64-3.59-21.41-4.91.66-9.82,1.33-14.73,1.99,1.42,3.59,3.14,6.13,6.57,8.07,3.77,2.14,10.3.46,11.02-4.48,1.14-7.79,1.47-19.55-8.37-21.72-4.11-.91-8.94,0-13.12.22-5.14.26-10.28.52-15.41.78l7.5,7.5c.48-14.07.42-28.15-.18-42.22-4.66,1.26-9.32,2.52-13.98,3.79,1.9,3.07,4.11,5.22,6.96,7.4,3.89,2.98,9.92-.25,11.02-4.48.74-2.87,20.05-.09,23.42.28,3.13.35,4.98-.09,4.98,3.09.01,4.37-.56,8.82-.99,13.16-.44,4.5-.97,8.99-1.67,13.45-.14,1.05-.32,2.09-.53,3.13,3.54-1.73,4.13-2.44,1.78-2.16-1.67-.79-5.69-.11-7.6-.2-9.48-.49-18.8-1.97-28.02-4.24l5.51,7.23.04-34.9c.01-9.65-14.99-9.67-15,0h0Z"/>
    <g>
      <path class="cls-7" d="M126.48,25.84c.15,11.62.75,23.24,1.81,34.82.3,3.28.64,6.56,1.01,9.84.07.63,1.07.64,1,0-1.32-11.55-2.18-23.15-2.59-34.77-.12-3.3-.19-6.59-.24-9.89,0-.64-1.01-.64-1,0h0Z"/>
      <path class="cls-7" d="M126.45,52.99H25.43c-.64,0-.64,1,0,1h101.02c.64,0,.64-1,0-1h0Z"/>
      <path class="cls-7" d="M34.58,53.62c.27,15.51.27,31.02-.02,46.52-.08,4.39-.19,8.79-.31,13.18-.02.64.98.64,1,0,.44-15.5.61-31.01.5-46.52-.03-4.4-.09-8.79-.17-13.19-.01-.64-1.01-.64-1,0h0Z"/>
      <path class="cls-7" d="M42.21,56.13c0,9.47,0,18.94,0,28.41,0,.64,1,.64,1,0,0-9.47,0-18.94,0-28.41,0-.64-1-.64-1,0h0Z"/>
      <path class="cls-7" d="M61.84,55.34c-.04,3.16-.05,6.32-.01,9.49.02,1.54.05,3.08.08,4.62.03,1.21-.17,2.73.7,3.7.43.48,1.14-.23.71-.71s-.36-1.17-.38-1.75c-.02-.75-.04-1.5-.06-2.25-.03-1.46-.05-2.91-.07-4.37-.03-2.91-.02-5.83.02-8.74,0-.64-.99-.64-1,0h0Z"/>
      <path class="cls-7" d="M70.87,54.9c0,6.18,0,12.35,0,18.53,0,.64,1,.64,1,0,0-6.18,0-12.35,0-18.53,0-.64-1-.64-1,0h0Z"/>
      <path class="cls-7" d="M87.42,54.68v16.99c0,.64,1,.64,1,0v-16.99c0-.64-1-.64-1,0h0Z"/>
      <path class="cls-7" d="M96.64,54.68c-.02,5.89.33,11.78,1.04,17.64.08.63,1.08.64,1,0-.71-5.85-1.06-11.74-1.04-17.64,0-.64-1-.64-1,0h0Z"/>
      <path class="cls-7" d="M113.71,55.34c-.21,5.37-.12,10.75.27,16.11.05.64,1.05.64,1,0-.39-5.36-.48-10.74-.27-16.11.03-.64-.97-.64-1,0h0Z"/>
      <path class="cls-7" d="M119.99,56c.18,5.15.37,10.29.55,15.44.02.64,1.02.64,1,0-.18-5.15-.37-10.29-.55-15.44-.02-.64-1.02-.64-1,0h0Z"/>
      <path class="cls-7" d="M144.45,25.15c-.45,13.58-.9,27.23.59,40.76.41,3.74.97,7.46,1.71,11.14.13.63,1.09.36.96-.27-2.65-13.23-2.89-26.77-2.6-40.22.08-3.81.21-7.62.34-11.42.02-.64-.98-.64-1,0h0Z"/>
      <path class="cls-7" d="M151.16,66.48c9.08,0,18.16,0,27.25,0s18.08,0,27.12,0h15.37c.64,0,.64-1,0-1-9.08,0-18.16,0-27.25,0s-18.08,0-27.12,0h-15.37c-.64,0-.64,1,0,1h0Z"/>
      <path class="cls-7" d="M177.02,105.95h48.65c.64,0,.64-1,0-1h-48.65c-.64,0-.64,1,0,1h0Z"/>
      <path class="cls-7" d="M187.9,149.83h35.04c.64,0,.64-1,0-1h-35.04c-.64,0-.64,1,0,1h0Z"/>
      <path class="cls-7" d="M24.96,48.53c13.19.27,26.39.46,39.58.57s26.39.15,39.59.1c7.41-.02,14.82-.07,22.23-.14.64,0,.64-1.01,0-1-13.19.13-26.39.18-39.59.15s-26.39-.13-39.59-.31c-7.41-.1-14.82-.23-22.23-.38-.64-.01-.64.99,0,1h0Z"/>
      <path class="cls-7" d="M128.16,47.65c-.49-1.77-1.58-2.86-3.09-3.82-1.66-1.06-3.73-2.49-3.81-4.64-.12-2.98.11-5.99.2-8.96.04-1.46.11-2.93.08-4.39h-1c.39,7.51.2,15.02.01,22.54-.02.64.98.64,1,0,.19-7.51.38-15.02-.01-22.54-.03-.64-1.01-.65-1,0,.05,2.97-.13,5.95-.22,8.92-.04,1.33-.09,2.66-.07,3.98.01,1.12.19,2.05.88,2.96.6.79,1.28,1.49,2.07,2.09.75.56,1.58.99,2.32,1.57.86.67,1.38,1.53,1.67,2.57.17.62,1.14.36.96-.27h0Z"/>
      <path class="cls-7" d="M30.44,47.78c.07-15.19.14-30.38.21-45.57l.06-12.86c0-.64-1-.64-1,0-.07,15.19-.14,30.38-.21,45.57-.02,4.29-.04,8.57-.06,12.86,0,.64,1,.64,1,0h0Z"/>
      <path class="cls-7" d="M30.24,91.81c.04-9.86.09-19.72.13-29.58l.04-8.45c0-.64-1-.64-1,0-.04,9.86-.09,19.72-.13,29.58l-.04,8.45c0,.64,1,.64,1,0h0Z"/>
      <path class="cls-7" d="M83.13,48.72c.03-8.5.02-16.99-.02-25.49s-.11-16.91-.21-25.36c-.06-4.79-.13-9.58-.2-14.37-.01-.64-1.01-.64-1,0,.14,8.5.24,16.99.32,25.49s.12,16.91.13,25.36c0,4.79,0,9.58-.01,14.37,0,.64,1,.64,1,0h0Z"/>
      <path class="cls-7" d="M82.97,72.92c.07-6.38.15-12.76.18-19.14,0-.64-1-.64-1,0-.03,6.38-.11,12.76-.18,19.14,0,.64.99.64,1,0h0Z"/>
      <path class="cls-7" d="M34.41,32c-.8,1.36-1.62,3.03-.88,4.6.6,1.28,2.05,1.88,3.31,2.31.68.24,1.44.34,2.07-.08.49-.33.79-.86.95-1.41.36-1.25.14-2.73-.36-3.9-.32-.75-.86-1.4-1.62-1.73s-1.6-.33-2.26.14c-.22.16-.32.44-.18.68.13.22.46.34.68.18.94-.67,2.01.16,2.42,1.03s.61,2.03.43,2.98c-.07.38-.19.78-.47,1.06-.36.36-.85.26-1.3.11-.93-.31-2.08-.72-2.64-1.58-.82-1.25.05-2.78.7-3.9.32-.56-.54-1.06-.86-.5h0Z"/>
      <path class="cls-7" d="M41.87-19.69c0,6.04,0,12.09,0,18.13V2.91c0,1.24-.12,2.56.15,3.79.23,1.05.87,1.86,1.91,2.2,1.25.42,2.69.49,4,.66,5.86.78,11.8,1.02,17.71.71,1.03-.05,2.44.07,3.16-.83s.48-2.57.5-3.67c.05-3.02.09-6.04.13-9.06.09-6.78.16-13.56.2-20.34,0-.28-.23-.49-.5-.5-4.68-.13-9.37-.09-14.05.13-2.3.11-4.59.26-6.89.45-1.19.1-2.37.21-3.56.34-.82.09-2.04,0-2.74.53-.82.62-.57,1.98-.57,2.87,0,1.37,0,2.74,0,4.1,0,.64,1,.64,1,0,0-1.08,0-2.16,0-3.23,0-.54,0-1.08,0-1.62,0-.42-.15-1.19.32-1.4.43-.19,1.04-.15,1.5-.2.53-.06,1.06-.11,1.59-.16,1.06-.1,2.13-.2,3.19-.29,4.3-.35,8.61-.54,12.93-.59,2.42-.03,4.85,0,7.27.07l-.5-.5c-.04,5.67-.09,11.33-.16,16.99-.03,2.81-.07,5.62-.11,8.43-.02,1.41-.04,2.81-.07,4.22-.01.66,0,1.33-.04,2-.05.75-.41,1.08-1.14,1.16-2.73.3-5.55.25-8.28.2s-5.51-.22-8.25-.51c-1.41-.15-2.81-.33-4.21-.54-1.08-.16-2.67-.15-3.2-1.31-.47-1-.31-2.31-.31-3.38V-.57c0-6.37,0-12.75,0-19.12,0-.64-1-.64-1,0h0Z"/>
      <path class="cls-7" d="M44.08,5.64c.8.6,1.8.91,2.79.84.49-.03.94-.15,1.39-.34s.92-.49,1.42-.57c1.06-.17,2.04.67,3.05.85s1.82-.21,2.7-.57c.48-.2.97-.37,1.5-.34.58.03,1.14.25,1.68.44.99.34,1.93.51,2.97.36,2.1-.31,3.89-1.59,5.95-2.04.63-.14.36-1.1-.27-.96-1.98.44-3.7,1.64-5.69,2s-3.81-1.26-5.84-.63c-.89.28-1.76.92-2.74.78s-1.73-.76-2.68-.88c-1.08-.14-1.84.49-2.82.79s-2.08.05-2.92-.58c-.52-.39-1.01.48-.5.86h0Z"/>
      <path class="cls-7" d="M29.62,91.81c1.33,0,2.66,0,3.99,0,.41,0,.69-.56.35-.85-.85-.73-1.92-1.14-3.04-1.12-.64.01-.65,1,0,1,1.04,0,2.07,0,3.11,0,.64,0,.64-1,0-1-1.04,0-2.07,0-3.11,0v1c.85-.02,1.69.27,2.33.82l.35-.85c-1.33,0-2.66,0-3.99,0-.64,0-.64,1,0,1h0Z"/>
      <path class="cls-7" d="M46.66,4.46V-12.25c0-.64-1-.64-1,0V4.46c0,.64,1,.64,1,0h0Z"/>
      <path class="cls-7" d="M50.59,1.72c-.3-6.97-.06-13.95.7-20.88.07-.64-.93-.63-1,0-.76,6.93-1,13.91-.7,20.88.03.64,1.03.64,1,0h0Z"/>
      <path class="cls-7" d="M56.74,1.29v-11.38c0-.64-1-.64-1,0V1.29c0,.64,1,.64,1,0h0Z"/>
    </g>
    <path class="cls-4" d="M24.02,322.46c61.92,1.07,124.15,1.84,185.37-8.98,6.21-1.1,7.43-11,1.79-13.71-13.5-6.47-28.1-8.2-42.93-8.25-15.72-.05-31.44,1.01-47.12,2.06-32,2.16-64.13,4.63-96.1.84,2.41,3.16,4.82,6.33,7.23,9.49-.74,2.45-1.47.29.63.7.94.18,2.67-.14,3.55-.16,3.17-.09,6.34-.13,9.51-.17,6.99-.09,13.98-.11,20.97-.12,14.3-.02,28.61.03,42.9-.3,28.13-.66,56.33-2.94,83.72-9.68,6.95-1.71,7.35-13,0-14.46-55.87-11.16-112.83-4.19-169.27-7.34v15c63.56-1.04,126.97-14.71,190.54-6.68v-15c-35.92,1.62-71.84,3.24-107.77,4.87-17.8.8-35.59,1.61-53.39,2.41-8.52.38-17.42.06-25.85,1.38-6.83,1.07-12.14,5.15-12.59,12.37-.27,4.33,3.67,7.12,7.5,7.5,58.08,5.78,116.08-4.18,174.19-3.67l-5.3-12.8c-9.86,9.37-23.11,13.28-36.13,16-14.82,3.1-29.88,5.05-44.88,7.05-30.81,4.1-61.92,8.22-90.88,20.1-7.23,2.96-7.2,15.02,1.99,14.73,61.1-1.88,122.2-3.76,183.3-5.64l-1.99-14.73c-58.97,8.19-118.75,6.66-178.1,5.23-8.26-.2-10.45,13.18-1.99,14.73,32.91,6.04,66.34,8.04,99.76,8.28,16.57.12,33.14-.15,49.71-.46,7.26-.14,15.02.23,18.99-7.07,3.62-6.65,4.9-15.45,7.02-22.68-4.18,1.1-8.36,2.21-12.54,3.31,1.71,2.07,3.12,4.47,4.07,6.98.47,1.24.84,2.53,1.12,3.83.19.71.32,1.43.36,2.16,0,1.71.91,1.12,2.74-1.78-.4-.42-7.15.61-8.1.6-3.58-.06-6.98-.59-10.46-1.45,1.49,3.67,2.99,7.34,4.48,11.02,8.59-16.05,17.18-32.09,25.77-48.14h-12.95c3.11,5.26,4.82,10.79,5.04,16.91.36,9.62,15.36,9.67,15,0-.32-8.76-2.63-16.93-7.09-24.48-2.78-4.71-10.26-5.04-12.95,0-8.59,16.05-17.18,32.09-25.77,48.14-2.22,4.14-.38,9.82,4.48,11.02,5.88,1.45,11.99,2.24,18.05,1.91,5.58-.3,12.13-.76,15.25-6.12,2.73-4.68,1.49-11.16,0-16.08-1.72-5.69-4.66-10.57-8.42-15.11s-11.07-1.69-12.54,3.31c-1.08,3.7-2.17,7.4-3.25,11.11-.54,1.85-1.08,3.7-1.63,5.55-.23.78-1.87,3.91-.18,2.48s-1.62-.51-2.59-.48c-1.95.05-3.89.07-5.84.11-3.9.07-7.79.14-11.69.2-14.62.23-29.25.35-43.87.13-29.47-.45-58.95-2.33-87.97-7.66l-1.99,14.73c60.79,1.47,121.7,2.62,182.09-5.77,8.41-1.17,6.34-14.99-1.99-14.73-61.1,1.88-122.2,3.76-183.3,5.64l1.99,14.73c30.02-12.32,62.29-16.26,94.2-20.54,28.32-3.8,62.46-5.72,84.31-26.47,4.79-4.55,1.06-12.75-5.3-12.8-58.11-.51-116.11,9.45-174.19,3.67l7.5,7.5c-.29,4.7-2.07,1.96.42,2.26,1.33.16,2.88-.11,4.24-.17l11.86-.54c7.91-.36,15.82-.71,23.73-1.07,16.15-.73,32.3-1.46,48.45-2.19,31.97-1.44,63.93-2.89,95.9-4.33,9.89-.45,9.36-13.82,0-15-63.58-8.03-126.99,5.64-190.54,6.68-9.71.16-9.6,14.46,0,15,55.01,3.07,110.85-4.07,165.28,6.81v-14.46c-29.85,7.35-60.53,8.99-91.16,9.34-15.26.17-30.52.05-45.78.16-11.04.08-30.62-3.12-34.82,10.71-1.56,5.12,2.6,8.94,7.23,9.49,30.67,3.64,61.51,1.52,92.21-.57,15.23-1.04,30.48-2.06,45.75-2.29,13.71-.21,28.01.12,40.62,6.16l1.79-13.71c-59.83,10.58-120.87,9.49-181.38,8.44-9.66-.17-9.66,14.83,0,15h0Z"/>
    <path class="cls-22" d="M23.38,273.91c-3.89,6.57-8.33,13.05-11.71,19.89-3.14,6.36-2.69,14.6,4.79,17.49,3.38,1.31,7.31.95,10.88,1.03,3.94.09,7.89.18,11.83.26,8.55.18,17.1.34,25.65.46,32.2.43,64.43.21,96.56-2.14,7.86-.57,15.71-1.28,23.54-2.13,7.13-.77,14.81-1.06,21.67-3.31,12.14-3.99,19.76-16.03,12.57-28.09-8.06-13.53-25.09-12.16-38.64-11.6-15.79.65-31.55,1.68-47.3,2.96-36.36,2.95-72.59,7.2-108.83,11.29-8.19.92-10.44,11.93-1.99,14.73,28.96,9.62,60.71,7.61,90.73,6.06,32.08-1.66,64.05-5.09,95.79-10.07,3.67-.58,5.82-4.91,5.37-8.23-.54-3.98-3.6-6.04-7.37-6.5-30.94-3.81-62.18-4.91-93.31-3.15-15.58.88-31.11,2.5-46.55,4.73-7.21,1.04-14.38,2.38-21.59,3.36-3.7.5-7.42.87-11.15,1.03-1.87.08-3.75.1-5.62.06-.94-.01-1.88-.05-2.81-.11-1.37-.54-.77.21,1.82,2.24-2.41,3.16-4.82,6.33-7.23,9.49,50.81-5.9,101.99-8.09,153.12-6.57,9.66.29,9.65-14.71,0-15-51.13-1.53-102.31.67-153.12,6.57-4.63.54-8.79,4.38-7.23,9.49,2.31,7.56,9.41,8.82,16.4,8.91,8.19.1,16.35-1.07,24.42-2.33,16.9-2.64,33.75-5.04,50.82-6.3,34.01-2.5,68.21-1.58,102.05,2.58l-1.99-14.73c-30.41,4.77-61.06,7.94-91.8,9.53-28.7,1.48-59.05,3.67-86.74-5.52l-1.99,14.73c51.27-5.77,102.58-11.94,154.16-14.16,6.3-.27,26.23-3.85,28.31,5.48,1.54,6.87-18.4,7.06-21.93,7.44-25.8,2.8-51.74,3.99-77.68,4.33-14.47.19-28.94.12-43.41-.08-7.24-.1-14.47-.23-21.71-.38-3.62-.07-7.23-.15-10.85-.23-1.31-.03-2.63-.06-3.94-.09-1.31-.03-2.63-.06-3.94-.09-2.76-.38-2.66.05.32,1.29l1.02,3.79c-.26-2.74,3.16-6.56,4.52-8.87,2.36-3.99,4.72-7.97,7.08-11.96,4.93-8.33-8.04-15.88-12.95-7.57h0Z"/>
    <path class="cls-7" d="M25.47,92.52c2.45.12,4.9,0,7.32-.36.27-.04.41-.38.35-.62-.08-.29-.35-.39-.62-.35-2.33.34-4.7.44-7.06.32-.64-.03-.64.97,0,1h0Z"/>
    <path class="cls-10" d="M175.6,295.93h10.17c3.99,0,8.01.28,10.78-3.2,2.39-3,2.02-6.78,2.02-10.39s0-7.27.01-10.91c0-4.65-4.83-8.8-9.49-7.23-3.96,1.33-7.75,1.99-11.93,1.97s-7.41,3.45-7.5,7.5c-.07,3.4-.09,6.8-.05,10.21.08,6.21,6.19,8.65,11.29,6.48,4.66-1.99,9.32-3.98,13.98-5.96,3.73-1.59,4.55-7.08,2.69-10.26-2.25-3.86-6.52-4.29-10.26-2.69-4.66,1.99-9.32,3.98-13.98,5.96l11.29,6.48c-.04-3.4-.03-6.8.05-10.21l-7.5,7.5c5.4.03,10.8-.79,15.91-2.51l-9.49-7.23c0,5.33.37,10.83-.08,16.15l1.02-3.79-.35.61,4.48-3.45c1.13-.02,1.22-.02.28-.02h-1.91c-1.27,0-2.54,0-3.82,0h-7.63c-9.65,0-9.67,14.99,0,15h0Z"/>
    <path class="cls-10" d="M13.28,272.95c0,4.24.29,8.58-.01,12.81l1.02-3.79-.23.46,2.69-2.69-.43.22,3.79-1.02c-3.2.31-6.83.53-10.03.23l3.79,1.02-.49-.37,3.71,6.48c-.16-2.05.31-4.24.52-6.29.12-1.14.24-2.28.36-3.42s1.18-3.54-.2-.94l-2.69,2.69.75-.39-3.79,1.02c2.81-.22,5.54.21,8.27.85,3.94.93,8.12-1.23,9.23-5.24,1.04-3.8-1.28-8.3-5.24-9.23-6.65-1.56-18.1-3.82-20.55,5.12-.87,3.15-.86,6.86-1.19,10.11-.39,3.78-1.29,7.99,1.74,11.02,2.73,2.73,6.22,2.64,9.79,2.54,3.22-.09,7.14.32,10.03-1.34,3.73-2.15,4.2-5.93,4.19-9.81,0-3.35-.02-6.69-.02-10.04-.02-9.65-15.02-9.67-15,0h0Z"/>
    <g>
      <path class="cls-11" d="M27.37,250.05c34.7,1.4,69.44,1.86,104.16,1.32,17.53-.27,35.05-.79,52.56-1.57,6.53-.29,13.73.75,15.05-7.26.96-5.81,3.54-15.38-1.15-20.16-2.58-2.63-6.54-2.88-9.99-3.21s-8.01-1.11-11,.89c-5.75,3.86-.05,14.53-9.05,15.67l3.59,8.67c1.6-1.86,3.15-3.81,4.88-5.56.74-.75,1.52-1.61,2.4-2.19.6-.52,1.29-.84,2.06-.96.97-.04,1.5-.62,1.61-1.75-2.39,1.25-3.21,4.69-1.82,6.95l.07.12,7.98-6.16c-3.74-4.69-8.93.65-11.88,3.1-5.03,4.19,2.19,11.34,7.19,7.19,1.35-1.13,2.71-2.25,4.06-3.38l-3.59,1.49h.41c-1.2-.51-2.4-1-3.59-1.5l.23.28c3.62,4.55,10.95-1.31,7.98-6.16l-.07-.12-1.82,6.95c7.42-3.89,5.31-14.33-2.13-16.78-9.15-3-15.88,5.17-21.13,11.27-2.51,2.91-1.19,9.28,3.59,8.67,8.13-1.03,14.99-6.62,16.14-15.06.12-.89.28-1.85.15-2.74-.22-1.58.5-2.51-1.44-.41-2.16,2.35.25,1.32,2.42,1.44,1.22.07,2.49.11,3.69.31,2.47.39,1.43,1.12,1.14,3.75-.34,3.02-.37,6.43-1.34,9.32l2.34-3.04c1.29-.2,1.28-.25-.03-.14-.99.05-1.98.09-2.97.14-1.65.08-3.3.15-4.96.22-3.3.14-6.61.28-9.91.4-6.94.26-13.88.49-20.83.68-13.89.37-27.78.59-41.67.65-27.78.12-55.57-.4-83.33-1.52-6.54-.26-6.53,9.9,0,10.16h0Z"/>
      <path class="cls-11" d="M39.1,239.4c-5.18-5.18-6.94-12.2-4.89-19.22,1.11-3.79-2.56-7.19-6.25-6.25-6.36,1.62-15.13,1.84-16.54,9.6-.62,3.41-.32,7.12-.1,10.56.21,3.14.18,6.88,2.52,9.32,3.87,4.04,13.46,3.61,17.62.45,6.6-5-.66-13.22-3.62-18.2-2.44-4.1-7.69-2.65-9.29,1.21-2.71,6.56-4.08,13.35-4.36,20.43-.14,3.59,3.34,5.41,6.43,4.9,4.24-.7,11.68-.3,12.89-5.6,1.09-4.78-5.05-10.79-7.49-14.44-3.62-5.41-12.43-.32-8.78,5.13,2.29,3.41,5.16,6.84,6.97,10.52l-.51-3.92-.06.4,2.34-3.04c-1.99.86-5.82.77-8.06,1.14,2.14,1.63,4.29,3.27,6.43,4.9.24-6.2,1.63-12,4-17.73-3.1.4-6.19.81-9.29,1.21.89,1.49,1.77,2.98,2.66,4.47.26.44,1.97,3.74,2.28,2.86l2.34-3.04c-.99.75-2.07.87-3.32.88l-2.41-.2,1.02.13c-.58-2.51-.34-5.64-.3-8.18.01-.96.74-3.34-.42-2.06-1.3,1.43,1.41.18,2.06.02,2.57-.65,5.13-1.31,7.7-1.96-2.08-2.08-4.17-4.17-6.25-6.25-3.04,10.42-.16,21.45,7.51,29.11,4.63,4.63,11.82-2.56,7.19-7.19h0Z"/>
    </g>
    <path class="cls-11" d="M41.17,91.66c13.94-8.59,30.87-9.13,46.76-9.52,17.96-.44,36.01-.85,53.88,1.32,9.89,1.2,19.69,3.31,29.12,6.58,2.13.74,3.85-1.87,2.82-3.67-1.14-2-2.28-4-3.43-6-1.25-2.17-2.78-3.25-5.27-3.53-4.74-.53-9.5-.88-14.24-1.32-9.41-.87-18.81-1.83-28.23-2.53-18.19-1.34-36.42-.43-54.34,3.05-9.95,1.94-19.74,4.65-29.28,8.09l3.08,3.08c.32-2.13,2-3.02,4.27-3.65,3.12-.88,6.4-.9,9.67-1.18,8.19-.7,16.39-1.41,24.58-2.11,1.24-.11,2.3-.87,2.46-2.17.13-1.11-.55-2.56-1.79-2.74-9.01-1.33-18.03-1.31-27.03.06l1.33,4.82c14.9-3.32,30.22-3.53,45.42-3.43,14.46.09,29.05.18,43.35,2.49,8.08,1.31,16.04,3.34,23.65,6.38l-1.75-3.08c.07-.29.74-.46.97-.41-1.32-.27-2.7.38-3.08,1.75-.34,1.24.42,2.8,1.75,3.08,2.3.47,4.6-.7,5.18-3.08.35-1.42-.46-2.56-1.75-3.08-13.8-5.51-28.66-7.61-43.42-8.44-7.33-.41-14.68-.52-22.02-.58-7.73-.06-15.47-.09-23.19.27-8.88.42-17.76,1.38-26.45,3.32-1.32.29-2.09,1.82-1.75,3.08.39,1.43,1.74,1.95,3.08,1.75,8.04-1.22,16.33-1.24,24.37-.06l.66-4.91c-9.01.78-18.02,1.55-27.04,2.33-5.68.49-15.2.96-16.3,8.3-.25,1.69,1.08,3.79,3.08,3.08,16.29-5.88,33.35-9.63,50.62-11,8.76-.69,17.55-.79,26.32-.31s18.1,1.45,27.14,2.28c5.2.48,10.4.96,15.6,1.44,1.24.11,2.48.23,3.71.34.48.04.97.1,1.44.16.02,0,.5.2.29.06-.12-.08.2.32.26.41,1.38,2.09,2.51,4.38,3.75,6.55l2.82-3.67c-17.32-6-35.73-7.93-53.97-8.33-9.21-.2-18.42-.03-27.62.19-8.41.2-16.83.38-25.18,1.5-9.41,1.26-18.69,3.76-26.84,8.77-2.74,1.68-.23,6.01,2.52,4.32h0Z"/>
    <path class="cls-11" d="M31.98,214.3l-.66-12.69c-.22-4.15-.3-8.34-.76-12.48-.77-6.93-3.35-14.81-10.23-17.92-3.78-1.71-8.3-1.79-11.86.53-2.01,1.31-1.31,4.68,1.26,4.66,3.01-.03,6.07,0,9.07.38,2.23.29,4.73.87,6.41,2.47,3.28,3.1,3.2,8.27,3.02,12.44l3.76-2.16c-1.76-1.33-2.81-3.54-3.82-5.44-1.19-2.22-2.4-4.52-4.23-6.28-2.22-2.14-5.01-3.06-8.04-3.33s-6.06.19-8.99-.62c-3.11-.86-4.43,3.96-1.33,4.82s6.06.6,9.12.72c2.51.1,4.68.69,6.35,2.63,1.47,1.71,2.41,3.93,3.51,5.9,1.28,2.3,2.79,4.33,4.9,5.92,1.61,1.22,3.69-.47,3.76-2.16.24-5.52-.19-11.94-4.49-15.98-4.89-4.6-12.75-4.37-19.01-4.31l1.26,4.66c2.83-1.85,6.5-1.26,9.06.81,2.9,2.34,4.34,5.97,5.07,9.52.91,4.4.88,9.01,1.11,13.48l.75,14.43c.17,3.2,5.17,3.22,5,0h0Z"/>
    <path class="cls-11" d="M179.19,221.96c-.03-10.35-.06-20.69-.09-31.04,0-2.29-.24-4.75.41-6.97.46-1.57,1.44-2.86,2.61-3.97,1.3-1.23,2.82-2.18,4.37-3.04.85-.48,1.72-.92,2.59-1.36.34-.17.69-.22.85-.36.32-.09.38-.09.18-.02-.25-.06-.49-.14-.72-.24l-.64-1.1c.53-1.05.56-1.31.09-.78-.14.06-.27.14-.39.25-.43.31-.88.6-1.32.9-.83.59-1.64,1.21-2.42,1.85-1.61,1.32-3.04,2.79-4.29,4.45-2.8,3.73-3.63,8.14-3.66,12.72-.06,9.84.33,19.71.51,29.55.06,3.21,5.06,3.22,5,0-.15-8.61-.31-17.21-.46-25.82-.07-3.67-.39-7.67,1.19-11.1,1.38-2.98,3.87-5.33,6.5-7.22,1.44-1.04,3.33-1.9,4.01-3.65.77-1.96-.31-4.13-2.35-4.67-1.69-.45-3.3.27-4.77,1.01s-2.94,1.51-4.32,2.41c-2.69,1.74-5.28,3.98-6.65,6.95-1.72,3.74-1.34,7.95-1.33,11.96.03,9.77.05,19.53.08,29.3,0,3.22,5.01,3.22,5,0h0Z"/>
    <path class="cls-8" d="M167.85,157.99c8.35,7.45,16.88,14.7,25.58,21.73,1.02.82,2.54,1.07,3.54,0,2.85-3.07,1.01-7.07-1.67-9.55-1.47-1.36-3.22-2.43-4.84-3.59-1.81-1.29-3.62-2.58-5.44-3.86-6.22-4.42-13.6-10.86-21.84-8.51-2.3.66-2.46,4.25,0,4.82,3.04.71,6.09,1.42,9.13,2.13l.66-4.91c-19.73-.75-39.49-.96-59.23-.62s-39.32,1.24-58.93,2.67c-5.52.4-11.04.85-16.55,1.34-2.42.22-4.99.73-7.43.56-.44-.03-1.39-.23-1.67-.36-.17-.08-.31-.18-.47-.27.23.13-.02-.17-.02-.04,0,.05.12.15.11.22-.02.51.04-.35.05-.36l-1.84,2.41c8.47-1.45,17.21-1.26,25.62.49l.66-4.91c-8.68-.61-17.35-1.22-26.03-1.83l2.16,1.24c.1.21-.05.49,0,.62-.16.16-.13.13.08-.1.22-.2.27-.25.15-.14.6-.44,1.31-.66,2.03-.82,1.97-.42,4.58-.21,6.73-.27,5.21-.13,10.42-.22,15.62-.19,10.32.07,20.67.66,30.83,2.54l.66-4.91c-13.2,1.33-26.48,1.78-39.74,1.35v5c15.81-1.46,31.64-2.66,47.49-3.58s31.14-2,46.68-1.44c8.51.31,16.97,1.27,25.22,3.41l.66-4.91c-22.14.06-44.27.71-66.39,1.63-10.44.43-20.88.84-31.31,1.46-9.21.55-18.46,1.41-27.49,3.37-10.02,2.17-19.83,5.84-28.23,11.81l3.42,3.42c3.79-6.43,8.93-11.99,15.1-16.19l-3.03-3.93c-8.22,8.44-16.1,17.21-23.62,26.28-1.63,1.97-.09,4.63,2.43,4.18,10.31-1.83,13.99-13.37,20.91-19.49,1.69-1.5,3.62-2.52,6.09-2.86,1.34-.19,2.07-1.9,1.75-3.08-.4-1.44-1.73-1.93-3.08-1.75-10.33,1.44-14.24,13.11-20.95,19.25-1.75,1.61-3.58,2.66-6.06,3.1l2.43,4.18c7.52-9.07,15.4-17.84,23.62-26.28,1.91-1.97-.61-5.58-3.03-3.93-6.88,4.7-12.66,10.8-16.89,17.99-1.2,2.04,1.31,4.92,3.42,3.42,14.74-10.48,33.07-13.16,50.7-14.34,21.04-1.41,42.17-2.07,63.25-2.66,12.31-.35,24.63-.56,36.94-.59,2.79,0,3.43-4.19.66-4.91-15.06-3.91-30.72-4.02-46.16-3.46-15.8.57-31.6,1.5-47.37,2.65-9.07.66-18.14,1.41-27.2,2.25-3.16.29-3.27,4.89,0,5,13.26.43,26.54-.02,39.74-1.35,1.24-.12,2.3-.86,2.46-2.17.14-1.14-.55-2.51-1.79-2.74-9.16-1.7-18.46-2.45-27.77-2.66-4.56-.1-9.11-.09-13.67-.01-2.36.04-4.72.09-7.08.15-2.11.05-4.28-.03-6.37.26-3.92.55-8.28,3.51-6.23,7.93.38.82,1.33,1.18,2.16,1.24,8.68.61,17.35,1.22,26.03,1.83,2.79.2,3.42-4.33.66-4.91-9.34-1.95-18.88-2.1-28.28-.49-1.17.2-1.71,1.39-1.84,2.41-.53,4.16,4.32,5.82,7.62,5.82,2.34,0,4.73-.4,7.06-.61,2.55-.23,5.1-.44,7.66-.65,10.21-.83,20.44-1.52,30.67-2.05,20.46-1.07,40.96-1.55,61.45-1.44,11.57.07,23.13.32,34.69.76,2.8.11,3.42-4.27.66-4.91-3.04-.71-6.09-1.42-9.13-2.13v4.82c2.84-.81,5.63.08,8.17,1.42,2.9,1.53,5.53,3.54,8.2,5.44,2.89,2.05,5.77,4.1,8.66,6.15,1.15.82,2.38,1.6,3.25,2.75.22.29.46.67.59,1.01.17.46-.09.14.09.54,0-.02-.01-.17-.03-.16h3.54c-8.7-7.04-17.23-14.28-25.58-21.73-2.39-2.14-5.94,1.39-3.54,3.54h0Z"/>
    <path class="cls-20" d="M47.72,105.33c23.15-11.85,52.36-10.97,77.66-9.69,6.91.35,13.83.92,20.67,1.96,3.06.47,12.22.75,13.08,3.76.64,2.24-.34,5.3-.12,7.67.24,2.69.89,5.34,2.27,7.68s3.24,3.99,5.58,5.11c1.66.79,3.28,1.14,5.12,1.25h1.39c1.94.18,1.89-.19-.13-1.11l-1.02-3.79c.3,2.24-.87,4.12-1.76,6.14-1.28,2.89-2.53,5.81-3.93,8.65-.92,1.88-1.79,4.03-3.7,5.07-2.21,1.21-5.74,1.02-8.17,1.22-13.84,1.12-27.74,1.16-41.62,1.01-27.62-.3-55.23-.76-82.85-1.15l6.48,3.71c-4.8-7.02-7.99-14.77-8.84-23.28l-5.51,7.23c4.17-.73,8.34-1.47,12.51-2.2s8.33-.98,11.42-3.88c2.51-2.35,3.29-5.72,3.42-9.02.11-2.85-.59-3.08,2.24-4.77,5.49-3.28,13.19-3.77,19.39-4.53,8.43-1.02,16.94-1.46,25.43-1.67s16.31-.26,24.43.18c5.81.32,12.01,1,17.26,3.7s7.63,7.79,11.11,12.45c2.08,2.79,4.43,5.3,7.54,6.95,1.41.75,3.1,1.32,4.65,1.69,1.12.19,2.24.37,3.37.54,1.83.31,2.22.43,1.17.38l-1.02-3.79c-.25-1.9,3.63-1.46.74-1.72-.99-.09-2.38.3-3.41.39-2.61.23-5.22.44-7.83.65-5.88.46-11.76.85-17.64,1.18-11.45.66-22.9,1.1-34.36,1.4s-22.28.44-33.42.51c-5.9.04-11.8.05-17.7.05-2.62,0-5.24,0-7.86,0-1.44,0-3.62-.49-4.91-.01-1.85.68-1.8-2.18,1.1,1.84l1.02,3.79-2.43,3.91,1.84-.46c1.17-.03,2.54-.61,3.69-.87,2.77-.62,5.55-1.19,8.34-1.7,4.92-.91,9.87-1.65,14.84-2.21,10.68-1.2,21.43-1.76,32.17-1.91s20.92.11,31.37.55c4.9.21,9.81.38,14.69.79,2.58.22,5.13.53,7.67,1.07,1.51.32,5.2.66,6.26,1.84l-2.2-5.3c.14,1.62-5.26,3.26-6.27,3.55-3.56,1.01-7.18,1.28-10.85,1.51-9.56.61-19.42,1.08-28.9-.64-9.43-1.71-18.05-5.6-26.65-9.66-4.51-2.13-9.03-4.27-13.54-6.4-2.26-1.07-4.51-2.13-6.77-3.2-1.13-.53-2.26-1.07-3.38-1.6-1.92-1.17-2.21-1.13-.86.1l.76,5.78c-3.22,2.62-3.39,3.43-.51,2.42,1.26-.26,2.51-.51,3.77-.76,1.89-.37,3.78-.72,5.67-1.06,4.39-.78,8.8-1.48,13.22-2.07,8.26-1.1,16.58-1.86,24.9-2.32,17.3-.96,34.64-.56,51.89,1.1l-3.79-13.98c-14.36,7.88-30.98,9.48-46.64,4.79v14.46c10.25-3.42,20.72-5.94,31.4-7.55,4-.61,6.24-5.66,5.24-9.23-1.2-4.28-5.19-5.85-9.23-5.24-10.68,1.62-21.15,4.14-31.4,7.55-6.95,2.32-7.29,12.28,0,14.46,19.46,5.84,40.41,3.47,58.2-6.3,7.03-3.86,3.13-13.31-3.79-13.98-28.19-2.7-56.49-1.86-84.5,2.29-8.06,1.19-35.47,2.43-28.15,17.2,2.5,5.04,9.93,7.02,14.7,9.28,6.18,2.92,12.36,5.88,18.56,8.77,12.63,5.89,25.1,10.22,39.12,11.08,11.64.71,25.61,1.01,36.83-2.74,8.57-2.86,23.84-15.46,12.2-24.42-4.67-3.6-11.95-4.49-17.65-5.23-6.63-.86-13.32-1.08-19.99-1.36-27.82-1.17-55.86-.91-83.31,4.27-5.36,1.01-12.06,1.5-16.79,4.42-5.67,3.5-6.43,11.28-1.27,15.58,4.43,3.7,10.96,2.78,16.3,2.79,7.21.01,14.42,0,21.63-.03,28.82-.16,57.66-.84,86.41-3.04,9.47-.72,27.67-.21,26.48-14.39-.59-7.01-6.74-10.14-12.85-11.33-2.39-.46-3.64-.63-5.25-2.51s-2.81-4.3-4.25-6.38c-7.51-10.82-18.91-14.91-31.59-16.3-14.41-1.58-29.42-.94-43.85.06-7.49.51-14.98,1.33-22.37,2.64-5.81,1.03-11.8,2.33-16.81,5.62s-8.31,8.13-8.64,14.16v1.43c-.2,2.37.33,2.02,1.57-1.05-.1-.21-4.62.81-5.36.94-4.17.73-8.34,1.47-12.51,2.2-2.95.52-5.81,4.21-5.51,7.23.64,6.43,1.9,12.58,4.34,18.58,2.05,5.03,5.2,14.12,11.03,15.72,3,.82,6.68.33,9.8.38,3.58.05,7.15.1,10.73.15,7.48.1,14.96.21,22.43.31,27.76.39,55.79,1.83,83.5-.43,6.08-.5,12.41-.82,17.54-4.48s7.58-9.79,10.12-15.45c2.11-4.71,5.07-9.71,5.04-15.02-.03-6.8-5.47-11.15-11.92-11.3-.62-.01-2.2.44-2.05.41,1.79-.28.08,2.08.51-.59.36-2.25.33-4.97.2-7.22-.36-6.01-3.42-11.02-8.84-13.77s-12.14-3.3-18.06-4.12c-6.94-.97-13.9-1.66-20.89-2.04-28.52-1.54-60.18-1.61-86.18,11.69-8.6,4.4-1.02,17.35,7.57,12.95h0Z"/>
    <path class="cls-4" d="M26.05,264.82c57.97,1.79,116,.45,173.82-4l-1.99-14.73c-14.34,4.28-28.99,7.28-43.89,8.75-9.41.92-9.83,15.24,0,15,16.58-.4,32.54-4.54,47.27-12.17l-9.09-11.78c-9.22,9.54-24.52,10-36.89,11.46-17.19,2.03-34.44,3.58-51.73,4.27-16.92.68-33.89.53-50.78-.82-7.91-.63-15.89-1.36-23.7-2.81-6.51-1.21-12.82-2.98-17.5-7.89-2.43,4.18-4.86,8.36-7.3,12.54,9.51,3.73,19.01,7.48,28.53,11.19,8.27,3.22,16.56,5.13,24.81.81,8.55-4.48.98-17.43-7.57-12.95-5.13,2.69-14.08-2.65-18.77-4.49-7.67-3.01-15.34-6.01-23.01-9.02-7.36-2.89-12.07,7.53-7.3,12.54,11.41,11.96,29.55,12.96,45,14.49,19.13,1.89,38.39,2.19,57.59,1.42,18.93-.76,37.8-2.54,56.6-4.86,15.19-1.87,31.43-3.66,42.64-15.27,6.03-6.24-1.57-15.67-9.09-11.78-12.34,6.39-25.81,9.79-39.69,10.12v15c16.24-1.6,32.24-4.61,47.88-9.28,7.79-2.32,6.74-15.4-1.99-14.73-57.82,4.45-115.85,5.79-173.82,4-9.66-.3-9.65,14.7,0,15h0Z"/>
    <path class="cls-13" d="M184.55,182.03c-4.5,10.59-11.27,40.05,6.85,42.36,7.82,1,12.58-5.75,12.91-12.84.19-4.04-.49-8.21-.81-12.22-.16-1.96-.31-3.92-.47-5.89-.1-1.31-.21-2.62-.31-3.92.14-2.23-.55-1.6-2.05,1.9l-3.79,1.02,1.12-.08-3.79-1.02c-.48-1.04-.52-1-.13.1.27.85.51,1.71.72,2.58.35,1.41.66,2.83.88,4.27.49,3.21.52,6.46.41,9.7-.33,9.65,14.67,9.64,15,0,.27-7.94-.2-18.63-4.75-25.53-4.75-7.21-15.76-6.49-18.18,2.35-1.1,4.02-.16,8.49.17,12.55s-.05,9.01,1,12.96c.11.56.06,1.1-.15,1.61,4.88.62,6.8-.51,5.75-3.4.31-1.58-.27-3.74-.25-5.36.07-4.62,1-9.31,2.81-13.57,1.6-3.76,1.09-7.99-2.69-10.26-3.13-1.88-8.68-1.03-10.26,2.69h0Z"/>
    <path class="cls-13" d="M8.88,192.92c2.39,1.77,4.25,4.35,5.36,7.09.68,1.69.61,3.58,1.16,5.22-.29,2.23.23,2.04,1.56-.56-.45.15-.9.27-1.36.36-.13.03-.27.06-.4.09,2.24,2.96,3.08,3.01,2.54.16.58-1.85-.07-4.95-.09-6.91-.07-4.94-.13-9.88-.2-14.82-.11-8.3-12.67-10.38-14.73-1.99S0,198.2.93,206.65c.44,4.03,3.13,7.5,7.5,7.5,3.71,0,7.95-3.45,7.5-7.5-.79-7.17-.47-14.1,1.25-21.11l-14.73-1.99c.07,5.27.14,10.54.21,15.8.06,4.13-.54,9.16.92,13.11,2.88,7.79,11.54,8.78,18.46,6.29,8.82-3.17,9.36-11.78,7.49-19.91-1.81-7.86-6.72-14.17-13.09-18.89-3.28-2.43-8.34-.52-10.26,2.69-2.27,3.79-.55,7.86,2.69,10.26h0Z"/>
    <path class="cls-16" d="M170.88,284.2c.16,0,.31,0,.47.01l-1.99-.27c.2.03.38.08.56.15l-1.79-.76c.18.08.35.17.51.29l-1.52-1.17c.12.1.23.2.34.32.68.73,1.48,1.25,2.41,1.55.89.47,1.86.68,2.89.65,1.03.04,2-.18,2.89-.65.93-.3,1.73-.82,2.41-1.55,1.31-1.43,2.29-3.31,2.2-5.3l-.27-1.99c-.36-1.27-1-2.37-1.93-3.31-.08-.09-.16-.17-.25-.25-.48-.42-1.08-.88-1.61-1.25-.43-.3-.91-.46-1.4-.67s-.9-.43-1.4-.52c-.73-.14-1.69-.34-2.52-.29-1.03-.04-2,.18-2.89.65-.93.3-1.73.82-2.41,1.55-.73.68-1.25,1.48-1.55,2.41-.47.89-.68,1.86-.65,2.89l.27,1.99c.36,1.27,1,2.37,1.93,3.31,1.42,1.3,3.32,2.31,5.3,2.2h0Z"/>
    <path class="cls-3" d="M36.02,179.15c13.28.11,26.6.21,39.79-1.48,10.69-1.37,21.23-1.36,31.99-1.73s21.23-1.01,31.96-.7c6.12.18,12.21.43,18.32-.05,5.04-.39,11.08-.74,14.07,4.2l2.69-10.26c-13.42,6.25-17.96,21.14-19.17,34.77-.33,3.67-.45,7.35-.7,11.02-.09,1.33-.08,2.71-.46,4-.49,1.66.14-.22.35-.3-1,.38-2.26.45-3.32.62-8,1.28-16.22,1.35-24.31,1.18-16.18-.33-32.28-1.61-48.48-1.25-7.97.18-15.94.61-23.88,1.28-1.22.1-5.59-.12-6.33.58l-.61.05,2.46,2.56c.14-.09-.19-2.64-.2-2.9-.2-4.21.05-8.41.26-12.61.79-15.69-.68-32.04-14.52-41.86l-1.79,13.71c19.63-4.93,40.03-5.49,59.87-1.46-1.49-3.67-2.99-7.34-4.48-11.02-.62,1.07-6.71,2.5-8.4,3.03-3.66,1.15-7.4,2.09-11.17,2.81-7.75,1.46-15.75,1.74-23.61,1.12-3.43-.27-6.63-1.01-9.85.6-3.87,1.93-5.79,6.16-4.74,10.4,1.93,7.8,10.43,8.3,17.08,7.73,14.89-1.3,28.06-8.07,42.05-12.68,15.46-5.09,30.7-4.28,46.45-.91,4.65.99,9.27,2.11,13.87,3.28.23.06,1.8.64,2.09.54.98-.35-.98-1.21-.84-1.27-.29.11-1.34,5.1-1.56,5.68-3.23,8.63-5.07,16.09-3.37,25.38.67,3.66,4.84,5.83,8.23,5.37,3.9-.53,6.14-3.59,6.5-7.37,1.01-10.66,3.97-21.1,8.64-30.74l-13.71-5.78c-1.24,5.27-2.48,10.53-3.72,15.8-.66,2.79-1.31,5.58-1.97,8.36-.38,1.6-.52,5.02-1.6,6.33,1.03-1.26-1.11-.21-1.88-.09-1.23.19-2.47.3-3.71.44-2.62.3-5.24.6-7.86.87-5.9.62-11.8,1.17-17.71,1.66-11.16.91-22.35,1.56-33.54,1.96s-22.73,1.22-33.88.34l3.79,1.02,1.02,1.1,1.02,3.79c-.53-4.23-.37-8.62-.16-12.87.07-1.33-.33-5.22.47-6.24-.87.58-.52.53,1.04-.13,1.22-.35,2.44-.7,3.66-1.04,8.56-2.38,17.21-4.47,25.91-6.26s17.4-3.29,26.18-4.45c4.28-.57,8.58-1.1,12.88-1.42,2.36-.18,4.74-.3,7.11-.25,1.18.02,2.36.08,3.54.18,1.57.31,1.16-.03-1.23-1.02l-1.02-3.79c.85,8.04.6,16.33.49,24.41l5.51-7.23c-12.85,5.34-26.44,8.14-40.26,9.38-6.98.62-13.99.93-21,1.12-3.22.09-6.48.28-9.71.19-2.76-.08-3.32.06-3.24-2.83.04-1.34.28-2.67.57-3.98l-1.23,1c.81-.22,1.63-.42,2.45-.59,3.42-.79,6.87-1.48,10.31-2.15,7.49-1.46,15.02-2.72,22.58-3.72,13.89-1.84,28.85-3.99,42.87-3.16l-3.79-1.02.73.38-3.45-4.48.29.83v-3.99c-1.9,13.22-23.92,12.51-33.47,13.24-16.02,1.23-32.08,1.89-48.16,2.02,1.26,4.66,2.52,9.32,3.79,13.98,5.71-3.32,12.68-4.45,19.05-5.97,6.57-1.57,13.17-2.98,19.8-4.23,13.56-2.57,27.23-4.42,40.98-5.63-1.26-4.66-2.52-9.32-3.79-13.98-10.17,5.23-20.56,9.92-31.24,14.01-8.93,3.41-5.05,17.92,3.99,14.46,11.88-4.54,23.51-9.69,34.82-15.52,6.41-3.3,3.65-14.63-3.79-13.98-15.07,1.33-30.1,3.35-44.97,6.17-7.26,1.37-14.49,2.94-21.68,4.68s-14.37,3.32-20.76,7.03-3.67,14.04,3.79,13.98c11.57-.1,23.14-.45,34.69-1.12,11.44-.66,23.17-1.09,34.46-3.14,9.52-1.73,18.76-6.31,24.02-14.71,2.13-3.41,4.03-8.13,2.62-12.12-2.17-6.15-8.14-5.99-13.61-5.8-23.31.82-46.6,3.68-69.42,8.47-4.96,1.04-10.2,1.73-13.69,5.77-3.22,3.73-3.94,10-3.81,14.76.32,11.52,9.28,16.4,19.75,16.34,24.68-.14,50.41-1.64,73.45-11.22,3.15-1.31,5.46-3.62,5.51-7.23.07-5.41.06-10.82-.09-16.23s.45-11.64-3.97-15.41c-6.98-5.95-20.65-2.94-28.93-1.95-21.61,2.59-44.38,6-65,13.22-11.1,3.89-11.08,14.73-11.19,24.85-.05,4.58-.55,10.22,2.48,14.01,3.77,4.71,10.82,3.62,16.16,3.61,22.73-.05,45.46-1.15,68.09-3.3,6.23-.59,12.46-1.25,18.67-2.01,5.81-.71,11.7-1.51,15.16-6.86,2.99-4.63,3.62-10.82,4.86-16.07,1.46-6.19,2.92-12.39,4.38-18.58,1.86-7.9-9.85-13.75-13.71-5.78-5.89,12.17-9.4,24.84-10.69,38.31,4.91-.66,9.82-1.33,14.73-1.99-1.28-7.01,1.78-12.48,3.92-18.9,1.94-5.83,2.7-13.16-2.13-17.85s-12.81-5.16-18.74-6.51c-7.74-1.77-15.57-3.21-23.48-3.92-14.54-1.29-28.16,1.41-41.72,6.53-6.21,2.34-12.35,4.91-18.7,6.88-3.11.97-6.27,1.82-9.48,2.36-1.48.25-2.95.41-4.45.49-.81.05-1.63.08-2.45.08-2.83-.39-2.37.45,1.37,2.53l-.76,5.78.49-.98-4.48,3.45c1.74-.68,5.7.4,7.62.49,2.66.14,5.32.16,7.98.07,5.68-.18,11.38-.85,16.96-1.91,5.23-.99,10.38-2.4,15.37-4.23,5.05-1.85,10.34-3.59,13.16-8.5,2.27-3.96.35-10.04-4.48-11.02-22.53-4.57-45.54-4.14-67.85,1.46-6.72,1.69-6.78,10.17-1.79,13.71,11.82,8.39,6.39,28.68,6.79,40.55.24,7.31,2.02,15.1,10.56,16.15,3.63.45,7.44-.33,11.08-.63,4.45-.36,8.91-.63,13.37-.84,17.19-.78,34.24.14,51.41.79,8.48.32,16.99.4,25.44-.44,7.35-.73,16.52-1.02,20.57-8.29s2.25-17.94,3.5-26.16c1.16-7.59,4.03-14.87,11.34-18.27,3.64-1.69,4.64-7.05,2.69-10.26-3.22-5.31-8.09-8.8-13.97-10.69-6.69-2.14-13.52-.59-20.36-.64-12.61-.1-25.09-.76-37.69.15-11.42.82-22.92-.02-34.28,1.57-14.21,1.99-28.45,2.06-42.78,1.93-9.65-.08-9.66,14.92,0,15h0Z"/>
    <path class="cls-18" d="M99.16,78.6c8.56,0,17.12,0,25.68,0,3.22,0,3.22-5,0-5-8.56,0-17.12,0-25.68,0-3.22,0-3.22,5,0,5h0Z"/>
    <path class="cls-22" d="M28.71,179.48c.75,9.78,1.5,19.57,2.25,29.35l1.11,14.43c.18,2.39.31,4.8.56,7.19.24,2.21.74,4.34,2.23,6.06,2.85,3.31,8.18,4.03,12.26,4.54,4.65.58,9.36.77,14.04.92,9.73.31,19.46.06,29.18-.45,10.78-.57,21.54-1.43,32.3-2.23l-1.26-4.66c-2.66,1.13-5.56,1.89-8.43,2.23-3.14.36-3.28,4.82,0,5,8.69.48,17.35-.5,25.99-1.4,4.4-.46,8.81-.9,13.23-1.1,2.16-.1,4.33-.14,6.5-.1s4.19.38,6.24.03c3.82-.65,6-5.02,7.39-8.23,1.55-3.59,2.44-7.32,2.95-11.19,1.06-8.03.22-16.12.54-24.19.18-4.43.72-8.9,2.26-13.08,1.15-3.1,3.23-6.44,6.46-7.65l-1.93-4.57c-8.48,3.84-11.9,13.88-13.84,22.26-1.19,5.13-1.88,10.35-2.52,15.57-.59,4.81-.98,9.7-1.95,14.46-.79,3.88-2.11,8.13-5.95,9.95l3.03,3.93c4.95-6.27,8.55-13.43,10.44-21.21h-4.82c1.28,3.21.44,6.47-1.11,9.44s-3.56,6.16-6.23,8.13c-3.11,2.29-7.22,1.31-10.78.95-4.37-.44-8.74-.88-13.12-1.32v5c6.67.02,13.35.05,20.02.07,3.25.01,3.18-4.79,0-5-25.63-1.69-51.29.04-76.91.94-6.29.22-12.58.39-18.87.45-2.97.03-5.95.11-8.91-.07-2.41-.14-4.87-.56-6.94-1.87-4.18-2.64-5.69-8.85-6.27-13.42-.71-5.58-.3-11.23-.25-16.83.1-10.45-1.75-22.38-11.06-28.69-2.67-1.81-5.17,2.52-2.52,4.32,7.54,5.11,8.64,15.61,8.59,23.94-.04,5.68-.44,11.39.22,17.05s2.2,11.52,6.11,15.74,9.75,4.81,15.18,4.84c6.42.04,12.85-.1,19.27-.29,12.91-.38,25.82-1.06,38.73-1.47,14.54-.47,29.11-.6,43.64.36v-5c-6.67-.02-13.35-.05-20.02-.07-1.35,0-2.5,1.15-2.5,2.5,0,1.46,1.15,2.36,2.5,2.5,4.95.5,9.9,1,14.85,1.5,2.37.24,4.72.5,7.08.08,2.11-.38,3.96-1.4,5.61-2.75,3.06-2.51,5.59-6.27,7.28-9.82,1.86-3.89,2.88-8.37,1.23-12.53-.41-1.04-1.22-1.84-2.41-1.84-1.07,0-2.15.77-2.41,1.84-1.67,6.89-4.75,13.43-9.16,19-1.75,2.22.36,5.19,3.03,3.93,8.24-3.89,8.73-15.14,9.68-22.93,1.19-9.79,1.97-20.13,5.89-29.29,1.79-4.19,4.43-8.08,8.69-10.01,2.55-1.16.73-5.56-1.93-4.57-7.25,2.71-10.39,10.39-11.59,17.51-1.38,8.2-.61,16.47-.8,24.73-.16,7.09-1.05,14.92-5.37,20.82-1.08,1.48-2.15,1.27-3.86,1.18-2.16-.12-4.33-.14-6.5-.1-4.26.08-8.51.43-12.75.85-9.76.96-19.53,2.28-29.36,1.74v5c3.83-.44,7.41-1.4,10.96-2.91,2.28-.97,1.12-4.84-1.26-4.66-18.48,1.38-37,2.99-55.55,2.81-4.62-.05-9.23-.2-13.84-.51-4.21-.28-8.64-.5-12.6-2.09-1.54-.62-2.47-1.47-2.85-3.11-.46-1.98-.42-4.12-.58-6.14l-1.09-14.18c-.81-10.53-1.61-21.06-2.42-31.59-.1-1.35-1.08-2.5-2.5-2.5-1.27,0-2.6,1.15-2.5,2.5h0Z"/>
    <path class="cls-22" d="M163.46,165.19c6.63-.47,13.35,2.56,17.14,8.01.77,1.11,2.19,1.62,3.42.9,1.1-.64,1.67-2.31.9-3.42-4.78-6.89-13.04-11.08-21.46-10.49-1.35.09-2.5,1.08-2.5,2.5,0,1.28,1.15,2.6,2.5,2.5h0Z"/>
    <path class="cls-22" d="M37.23,161.91c-3.98,2.2-7.64,5-10.81,8.27-1.7,1.75-.01,4.92,2.43,4.18,1.22-.37,2.45-.76,3.58-1.36s2.1-1.44,2.99-2.33c.38-.38.76-.77,1.15-1.15.2-.19.41-.38.62-.56.12-.1.25-.21.37-.31-.16.12-.16.13-.02.03.46-.33.93-.63,1.42-.91.25-.14.5-.27.75-.39.15-.07.29-.14.44-.2-.23.1-.2.09.07-.02,1.17-.45,1.97-1.43,1.79-2.74-.15-1.15-1.21-2.26-2.46-2.17-5.96.44-10.42,4.25-15.26,7.32-1.1.7-1.65,2.26-.9,3.42.71,1.1,2.24,1.65,3.42.9,2.19-1.4,4.27-2.97,6.5-4.3.52-.31,1.04-.61,1.58-.88.3-.15.6-.3.91-.44.04-.02.47-.21.21-.1s.17-.07.22-.08c.58-.23,1.18-.42,1.79-.57.32-.08.65-.13.98-.2.37-.09-.39.03,0,0,.19-.02.37-.04.56-.05l-.66-4.91c-2.42.94-4.52,2.29-6.36,4.12-.38.38-.76.77-1.16,1.14-.2.18-.4.36-.61.54.37-.3-.25.17-.34.22-.24.15-.5.28-.75.41-.27.12-.3.14-.07.04-.11.05-.23.09-.34.13-.58.21-1.16.39-1.75.57l2.43,4.18c.74-.76,1.51-1.5,2.3-2.21.4-.35.8-.7,1.21-1.04.22-.18.44-.36.67-.54.06-.05.61-.47.27-.21,1.7-1.29,3.49-2.44,5.35-3.47,1.15-.63,1.62-2.3.9-3.42s-2.19-1.57-3.42-.9h0Z"/>
    <path class="cls-10" d="M111.52,179.14c0,6.29,0,12.57,0,18.86,0,1.39-.22,3.03.48,4.29.93,1.67,2.62,1.7,4.32,1.64,3.13-.1,6.27-.2,9.4-.29s6.27-.16,9.4-.29c1.57-.07,3.02-.64,3.52-2.28.42-1.41.09-3.22.07-4.67-.04-3.14-.03-6.27.04-9.41.03-1.48.07-2.97.13-4.45,0,0,.03-1.12.08-1.11h0c-.44.32-.51.42-.21.33.12.13,1.29-.12,1.45-.13,3.37-.29,6.76-.48,10.14-.57,1.03-.03,2.22-.44,2.76.57.24.45.4.95.55,1.43.06.2.13.84.24.99-.01.17,0,.15.07-.06-.16.2.02.11.54-.27l2.5,2.5c-.2-1.88-.45-3.85-1.55-5.45-1.29-1.88-3.22-2.59-5.41-2.84-4.61-.52-9.33-.11-13.84.91-2.28.52-2.49,4.48,0,4.82,6.12.85,12.22.66,18.37.36l-.66-4.91c-5.57,1.41-11.14,2.81-16.72,4.22-2.89.73-2.02,4.67.66,4.91,5.55.5,11.07-.4,16.53-1.29l-1.33-4.82c-4.27.85-8.58,1.51-12.92,1.91-.42.04-1.1.15-1.36.05-.64-.25-1.14-1.04-1.78-1.37-1.87-.97-4.08-.24-5.07,1.6-.9,1.68-.68,3.85-.74,5.7-.03.95-.06,1.9-.09,2.85,0,.14-.09,1.8-.06,1.8l.43-.62c-.14.05-.28.09-.43.11-.99-.06-2.27.4-3.25.56s-1.93.3-2.9.44c-2.2.32-4.4.57-6.61.8l2.5,2.5c.02-3.4-.07-6.76-.65-10.12-.45-2.63-1.39-5.82-.28-8.4l-2.82,1.15c7.78,2.66,16.09,1.99,24.12,1.21l-1.26-4.66c-5.39,3.44-10.75,7.22-13.2,13.37-.1.24-.22.5-.3.74-.18.54-.22.04.14.12-.67-.14-1.29-.17-1.94-.45-1.1-.48-2.16-1.3-2.83-2.3-.14-.21-.4-.58-.38-.84,0,.07-.03.25.05.12.26-.46,1-.83,1.43-1.05.56-.28,1.2-.47,1.82-.54.33-.04.68-.04,1.01,0,.1,0,.2,0,.29.02.71.24.56-.09-.45-1l.34-1.26c-.16.33-1.05.68-1.47.87-.7.33-1.44.57-2.18.76-.4.1-.83.21-1.24.26-.14.02-.81-.02-.86.03-.13-.09-.07-.04.18.15.55.32.56.85.03,1.6.21-.02.82-.49,1.02-.6,2.43-1.28,5.62-1.38,8.13-.26l1.26-4.66c-2.46.06-4.92.12-7.38.18-1.31.03-2.62.07-3.94.1-.49.01-.98.03-1.48.04-.28,0-.87-.09-1.02-.04.86,1.09.99,1.98.39,2.66.12-.05.25-.07.38-.07.44,0,.93-.08,1.37-.1,1.22-.06,2.45-.03,3.67.08,2.22.19,4.39.76,6.49,1.51l-.6-4.57c-4.3,3.19-8.62,6.62-10.28,11.93-.68,2.16,1.83,3.82,3.67,2.82,4.12-2.22,7.93-4.96,11.39-8.11,2.15-1.96-.59-5.25-3.03-3.93-3.4,1.84-6.8,3.69-10.2,5.53l3.67,2.82c.19-.63.63-1.28,1.27-1.54,1.25-.51,2.13-1.67,1.75-3.08-.33-1.19-1.82-2.25-3.08-1.75-2.34.94-4.01,2.59-4.77,5.03-.67,2.16,1.82,3.83,3.67,2.82,3.4-1.84,6.8-3.69,10.2-5.53l-3.03-3.93c-3.15,2.88-6.62,5.31-10.37,7.33l3.67,2.82c1.23-3.93,4.81-6.59,7.98-8.94,1.76-1.3,1.53-3.81-.6-4.57-3.16-1.13-6.52-1.74-9.88-1.79-2.73-.04-7.61,0-7.79,3.77-.19,3.97,4.31,3.82,7.03,3.76,3.61-.09,7.22-.18,10.82-.27,2.28-.06,3.66-3.59,1.26-4.66-2.96-1.32-6.04-1.73-9.24-1.13-2.69.5-7.1,2.12-7.1,5.42,0,1.71,1.17,3.2,2.74,3.79s3.18.33,4.74-.02c2.64-.59,7.5-2.23,7.43-5.6-.08-3.79-4.94-4.04-7.66-3.45-2.91.63-6.34,2.86-6.5,6.12-.15,3.07,2.58,5.85,5.07,7.25,2.74,1.54,6.72,2.39,8.84-.57.86-1.19,1.19-2.69,1.93-3.97s1.62-2.32,2.64-3.33c2.24-2.22,4.89-3.93,7.53-5.61,1.92-1.23,1.37-4.91-1.26-4.66-7.6.74-15.43,1.49-22.79-1.03-.93-.32-2.41.19-2.82,1.15-1.49,3.46-1.17,6.86-.53,10.49s.8,6.97.78,10.56c0,1.25,1.16,2.64,2.5,2.5,4.43-.45,8.86-1.04,13.24-1.82,2.34-.42,4.19-1.55,4.47-4.1.22-2.05.16-4.15.23-6.21.01-.41.24-2.04.12-2.18.77.89-1.69.51-1.66.49.01-.01.56.5.67.59,1.7,1.42,3.39,1.46,5.51,1.25,4.54-.45,9.05-1.12,13.52-2.02,1.32-.26,2.09-1.84,1.75-3.08-.39-1.42-1.74-1.97-3.08-1.75-5.03.83-10.08,1.58-15.2,1.11l.66,4.91c5.57-1.41,11.14-2.81,16.72-4.22,2.69-.68,2.19-5.05-.66-4.91-5.66.27-11.41.6-17.04-.18v4.82c3.36-.76,6.77-1.06,10.21-.9,1.01.05,2.88-.13,3.59.79.51.66.59,1.85.68,2.67.15,1.35,1.03,2.49,2.5,2.5,2.7.01,4.55-2.41,4.38-5.01-.13-1.99-1.03-4.48-2.4-5.96-1.78-1.92-4.21-1.76-6.61-1.69s-5,.2-7.49.38c-2.25.17-5.48-.1-7.16,1.7s-1.34,4.42-1.4,6.6c-.08,2.56-.12,5.11-.12,7.67,0,1.32,0,2.64.02,3.96,0,.66.02,1.32.03,1.98,0,.33.01.66.02.99-.04.66.02.66.17,0l.9-.9c.62-.11.72-.15.29-.12-.25,0-.49.02-.74.02-.41.01-.82.03-1.24.04-.91.03-1.81.06-2.72.09-1.73.05-3.46.11-5.19.16s-3.46.11-5.19.16c-.82.03-1.65.05-2.47.08-.7.02-1.89.23-2.43.08l1.1.64c.23.69.33.8.29.35v-.73c0-.41,0-.82,0-1.22v-2.69c0-1.8,0-3.59,0-5.39v-10.78c0-3.22-5-3.22-5,0h0Z"/>
    <path class="cls-10" d="M115.11,177.98c13.35-.98,26.72,3.4,39.95.11,2.34-.58,2.42-4.29,0-4.82-8.23-1.82-16.64-1.97-24.94-.52-1.33.23-2.08,1.86-1.75,3.08.39,1.41,1.74,1.98,3.08,1.75,7.37-1.29,14.98-1.09,22.28.52v-4.82c-12.7,3.16-25.78-1.23-38.62-.29-1.35.1-2.5,1.08-2.5,2.5,0,1.28,1.15,2.6,2.5,2.5h0Z"/>
    <path class="cls-10" d="M137.17,194.67l-.02,7.36c0,2.33-.2,4.76.21,7.07.73,4.17,4.72,6.94,5.1,11.25.12,1.35,1.06,2.5,2.5,2.5,1.31,0,2.56-1.14,2.5-2.5-.21-4.83-.42-9.66-.63-14.5-.1-2.21-.16-4.41-.96-6.5s-2.02-3.99-3.3-5.84c-.76-1.11-2.19-1.61-3.42-.9-1.1.64-1.67,2.3-.9,3.42,1.09,1.59,2.29,3.22,2.94,5.05s.59,3.82.67,5.75c.2,4.5.39,9.01.59,13.51h5c-.2-2.32-.91-4.45-2.02-6.49-.95-1.74-2.47-3.32-3.06-5.22-.62-1.99-.23-4.54-.22-6.61l.02-7.36c0-3.22-4.99-3.22-5,0h0Z"/>
    <path class="cls-10" d="M147.43,206.89c6.3-.07,12.6-.03,18.89.11l-2.5-2.5c.1,6.33-.24,12.67-1.11,18.94l2.41-1.84c-2.8.03-5.59-.02-8.38-.16-.81-.04-7.9-.33-7.92-.63l.61.54c.07.19.08.19.03.02,0,0-.02.02-.02-.23,0-.71-.07-1.42-.09-2.12-.05-1.35-.08-2.71-.09-4.06-.02-2.84.05-5.67.19-8.5l-2.5,2.5c3.72.13,7.44.26,11.16.4.9.03,1.8.09,2.69.1.54,0,.06-.13-.11-.16l-.11-.12c.14.26.15.29.04.09.02.09.2,1.03.15.6.04.37.07.75.09,1.13.06.94.09,1.89.08,2.83s-.06,1.89-.14,2.83c-.03.36-.15.78-.12,1.13-.01.12-.03.24-.06.36,1.41-.7,1.68-1,.82-.89-1.78-.1-3.57.05-5.36-.05-.45-.03-.89-.06-1.34-.09-1.43-.12.6-.07.35.76.08-.27-.2-1.05-.25-1.33-.06-.39-.13-.77-.19-1.16-.32-1.93-.64-3.86-.96-5.79l-1.75,3.08c2.3-.5,4.63-.67,6.98-.53.3.02.64.09.94.07l.37.04-1.49-1.78c-.27.27-.35,1.55-.43,1.92-.14.64-.29,1.28-.43,1.92-.06.26-.12.51-.17.77-.04.19-.09.38-.13.58-.1.36-.02.27.24-.26l1.1-.64c.48-.01.48-.04,0-.1-.24-.05-.47-.09-.71-.14-.47-.1-.95-.21-1.42-.32-.94-.23-1.87-.49-2.8-.76l1.49,3.67c.91-1.37,2.3-2.21,3.97-2.58l-2.43-4.18c-1.9,1.76-4.17,3.01-6.39,4.32-2.37,1.4-5.72,2.96-5.85,6.09-.04,1.01.8,2.22,1.84,2.41.8.15,1.6.29,2.4.44,1.66.3,3.06-.69,3.16-2.41.18-3.06.23-6.13.14-9.2s-5.09-3.22-5,0,.04,6.13-.14,9.2l3.16-2.41c-.8-.15-1.6-.29-2.4-.44l1.84,2.41c-.03.67-.41.64-.02.41-.27.16.27-.2.33-.24.49-.35,1-.68,1.51-1,.98-.61,1.98-1.19,2.97-1.78,2.11-1.25,4.18-2.59,5.98-4.27,1.92-1.79-.11-4.69-2.43-4.18-2.89.64-5.32,2.44-6.95,4.88-.92,1.38.03,3.23,1.49,3.67,1.16.35,2.33.66,3.51.93,1.28.29,2.79.78,4.08.4,1.65-.49,2.03-2.08,2.36-3.55.3-1.34.62-2.69.91-4.03.32-1.51.24-3.05-1.11-4.03-1.08-.79-2.57-.78-3.86-.84-2.66-.12-5.34.16-7.94.73-1.42.31-1.96,1.8-1.75,3.08.31,1.86.62,3.73.93,5.59s.41,3.99,2.28,5.02c.86.48,1.9.51,2.86.58s1.91.12,2.87.15c.89.02,1.79.03,2.68,0,1.05-.02,2.21.03,3.17-.47,1.97-1.03,1.99-3.4,2.15-5.35.15-1.82.17-3.65.05-5.48-.11-1.67-.24-3.43-1.29-4.8-1.25-1.64-3.03-1.71-4.93-1.78-4.23-.15-8.47-.3-12.7-.45-1.4-.05-2.43,1.19-2.5,2.5-.16,3.15-.23,6.31-.18,9.47.02,1.61.07,3.22.15,4.83.08,1.47.26,2.93,1.41,3.99,1.29,1.19,3.24,1.12,4.88,1.27,1.55.14,3.11.26,4.67.36,3.25.19,6.5.27,9.75.24.98,0,2.26-.76,2.41-1.84.93-6.72,1.39-13.48,1.29-20.27-.02-1.37-1.13-2.47-2.5-2.5-6.3-.14-12.6-.18-18.89-.11-3.22.04-3.22,5.04,0,5h0Z"/>
    <path class="cls-10" d="M141.6,193.6c2.31.08,4.62.06,6.92-.1,1.23-.08,2.46-.21,3.68-.36,1.13-.14,2.55-.15,3.63-.54.12-.02.25-.04.38-.06-.16-.12-.19-.13-.11-.04.39.16.86.9,1.15,1.2.74.8,1.47,1.61,2.18,2.44,1.42,1.66,2.78,3.37,4.06,5.14l2.16-3.76c-4.17.41-8.36.57-12.55.44-1.03-.03-2.05-.08-3.08-.14-.35-.02-.69-.05-1.04-.06-.71-.03-.06.12-.28-.21-1.15-1.73-2.04-3.72-3.04-5.54l-2.16,3.76c3.16-.1,6.33-.21,9.49-.31.92-.03,2.07-.32,2.74.26.95.83,1.68,1.79,2.8,2.42l.6-4.57c-3.09.42-6.32.38-9.4-.1-1.33-.21-2.69.34-3.08,1.75-.33,1.18.4,2.87,1.75,3.08,4.05.63,8,.65,12.06.1,2.21-.3,2.31-3.6.6-4.57-1-.57-1.7-1.66-2.66-2.35-1.35-.98-2.85-1.1-4.46-1.05-3.48.11-6.96.23-10.44.34-1.91.06-3.09,2.07-2.16,3.76,1.08,1.97,2.04,4.13,3.31,5.99,1.55,2.27,4.06,2.24,6.55,2.37,4.82.24,9.65.11,14.45-.36,1.68-.17,3.39-2.07,2.16-3.76-1.49-2.05-3.05-4.06-4.7-5.98-.8-.94-1.62-1.86-2.47-2.76-.9-.97-1.82-2-3.16-2.32s-2.75.08-4.11.29c-1.22.19-2.46.33-3.69.44-2.69.23-5.38.29-8.08.19-3.22-.11-3.21,4.89,0,5h0Z"/>
    <path class="cls-10" d="M44.53,211.81c-.45,2.25-.85,4.51-1.17,6.78-.31,2.13-.92,4.57-.47,6.72.91,4.31,6.05,4.88,9.62,5.42,4.34.67,9,1.23,13.39.82,2.27-.21,4-1.31,4.68-3.56.62-2.07.86-4.36.93-6.51s-.13-4.4-1.57-6.17c-1.16-1.43-2.86-2.26-4.58-2.82-4.11-1.35-8.63-1.66-12.89-2.27-1.15-.17-2.24-.32-3.23.44s-1.26,2.02-1.49,3.2c-.42,2.1-.69,4.32-.55,6.47s1,4.17,3.04,5.26c1.87,1,4.04,1.62,6.07,2.17s4.3.99,6.49,1.26c2.48.3,4.13-1.3,4.46-3.69.59-4.31-2.7-7.78-6.55-9.06s-8.87-1.45-11.3,2.17c-2.11,3.14-2.46,8.99,2.05,10.12,4.22,1.06,7.83-2.76,7.25-6.87-.29-2.05-1.51-3.8-3.27-4.89-1.61-1-4.15-1.62-5.97-.88-2.25.92-2.14,3.67-1.17,5.51.86,1.64,2.52,2.93,4.35,3.27,3.95.73,8.6-2.18,8.65-6.46.05-4.53-5.52-5.91-8.25-2.73-2.91,3.39-.09,8.17,3.58,9.44,3.13,1.08,7.15-.16,8.71-3.18.99-1.92.89-4.35-.62-5.97s-3.87-1.87-5.88-2.11c-2.31-.29-4.57-.17-6.87.15-1.07.15-1.84,1.42-1.84,2.41,0,1.12.78,2.09,1.84,2.41,3.77,1.16,7.54,2.33,11.31,3.49.43.13.87.32,1.32.41.38.08.03.08-.04-.07.28.62.26,1.41.53,2.06.82,2,2.6,3.09,4.75,2.67.8-.16,1.57-.96,1.75-1.75.54-2.42.8-4.89.74-7.37l-3.76,2.16c1.34.94-.9,3.94-1.45,4.76-1.79,2.68,2.54,5.19,4.32,2.52,1.24-1.86,2.42-3.89,2.44-6.19s-.97-4.13-2.78-5.41c-1.56-1.1-3.81.37-3.76,2.16.05,2.05-.12,4.04-.56,6.04l1.75-1.75-.32.06h1.33s.13.33.16.12-.17-.84-.21-1.05c-.18-.77-.47-1.5-.95-2.12-1.11-1.44-2.94-1.78-4.59-2.29-3.54-1.09-7.08-2.18-10.62-3.28v4.82c1.66-.23,3.4-.23,5.07-.03.81.1,1.61.27,2.4.48.16.04.48.36.32.09-.1-.17-.06-.05-.08.04-.09.48-.59.8-1.12.96-.78.24-1.64.21-2.29-.3-.3-.24-.46-.51-.67-.83-.05-.07-.07-.3-.07-.35,0-.03-.09.16-.12.11-.05-.11.29-.05.14-.12-.16-.02-.15-.02.02-.02.3,0,.19-.04-.35-.14-.81-.29.3-.47-.39.04-.75.56-1.2,1.38-2.33,1.24-.72-.08-1.26-.64-1.2-1.32l-.34,1.26.08-.19-.9.9c-.54.13-.55.18-.02.14.16-.02.32,0,.48.07.41.09.81.24,1.14.5.45.36.77.93.73,1.51-.03.43-.17.74-.57.93-.23.11-.47.03-.6.04-.11.01.33.32.27.34.04-.01.4-2.36.51-2.58.31-.6.73-.86,1.4-.94,1.73-.2,3.95.14,5.48.98.71.39,1.3.89,1.69,1.6.2.37.23.73.38,1.12-.04.13-.05.27-.02.42-.12.43.22.24,1-.56-.27-.19-1.15-.15-1.46-.21-.6-.1-1.2-.21-1.8-.34-1.12-.24-2.23-.52-3.32-.84s-2.18-.68-3.25-1.1c-.65-.25-1.17-.35-1.3-1.08-.39-2.13.1-4.98.78-7l-.64,1.1.18-.22-1.1.64c-.17.05-.49-.09-.04.04.21.07.48.07.7.1.47.07.94.14,1.4.21,1.09.16,2.18.32,3.27.48,2.02.3,4.06.58,6.04,1.09,1.08.28,2.78.63,3.42,1.67.35.57.32,1.28.32,1.93,0,1.08-.05,2.16-.19,3.23-.11.85-.36,1.68-.48,2.52-.08.53-.22.32.07.24-.1.03-.39.03-.54.04-2.06.09-4.15.02-6.21-.11s-4.05-.35-6.06-.67c-1.56-.26-3.46-.38-4.88-1.12-.58-.3-.53-.49-.49-1.22.05-1.02.22-2.05.35-3.06.33-2.44.76-4.86,1.24-7.27.27-1.32-.38-2.7-1.75-3.08-1.23-.34-2.81.42-3.08,1.75h0Z"/>
    <path class="cls-10" d="M39.1,220.32c4.36-.17,7.54-3.43,10.44-6.33s5.62-6.01,8.87-8.52,7.33-4.23,10.98-6.37c3.53-2.07,6.66-4.74,9.72-7.45,3.33-2.95,6.61-5.94,10.5-8.16l-3.76-2.16c-.43,3.57-3.38,6.52-6.22,8.42-3.81,2.54-8.16,4.1-12.08,6.45-7.2,4.33-12.38,11.05-18.65,16.5-1.63,1.42-3.36,2.73-5.22,3.84-.53.32-1.08.65-1.66.89-.23.1-1.42.28-1.57.45.41-.5,1.32,2.68,1.51,1.42.03-.17-.03-.38-.04-.56-.09-.83-.29-1.44-.65-2.2-.58-1.22-2.32-1.54-3.42-.9-1.24.73-1.48,2.2-.9,3.42.18.38.08,1.57.46,2.23.67,1.19,1.96,1.65,3.27,1.55,2.66-.2,5.04-1.6,7.2-3.07,3.91-2.67,7.28-6,10.61-9.34s6.42-6.53,10.21-9.06c4.21-2.81,9.07-4.45,13.3-7.22,4.58-3,8.18-7.27,8.86-12.84.24-1.96-2.27-3.01-3.76-2.16-6.79,3.86-11.78,10.02-18.21,14.35-3.46,2.33-7.34,3.92-10.86,6.15s-6.46,5.1-9.34,8.04c-1.53,1.57-3.05,3.16-4.66,4.66-1.35,1.26-2.96,2.87-4.92,2.95-3.21.12-3.22,5.12,0,5h0Z"/>
    <path class="cls-9" d="M48.7,211.54c3.93-.48,7.92-.4,11.8.42,2.01.42,3.98,1.01,5.89,1.76s3.78,1.45,5.84.82c1.89-.58,3.32-2.03,4.86-3.19s3.25-2.32,4.94-3.38c3.33-2.09,6.8-3.93,10.31-5.71,1.79-.91,3.59-1.79,5.39-2.68,1.65-.82,3.47-1.52,5-2.54,1.84-1.23,2.52-3.5,1.44-5.49-.98-1.79-2.92-2.68-4.93-2.54s-4.04.99-5.94,1.67-3.73,1.38-5.57,2.13c-3.69,1.49-7.34,3.08-10.99,4.66-8.02,3.45-16.17,6.72-24.81,8.22-1.33.23-2.08,1.86-1.75,3.08.4,1.44,1.73,1.94,3.08,1.75,7.62-1.08,15.19-2.47,22.7-4.17l-1.93-4.57c-1.85,1.01-3.69,2.03-5.54,3.04-1.65.9-4.47,1.82-4.99,3.84-.57,2.19,1.4,3.77,3.43,3.75,1.74-.02,3.61-1.05,5.17-1.73,6.46-2.78,12.1-7.05,18.12-10.62,3.36-1.99,6.82-3.75,10.58-4.86,3.08-.91,1.77-5.73-1.33-4.82-6.18,1.82-11.67,5.2-17.05,8.66-2.64,1.7-5.28,3.41-8.03,4.93-1.39.77-2.81,1.5-4.26,2.15-.59.26-1.19.5-1.79.73-.37.14-.75.27-1.13.4-1.03.35-.19-.08.51.58l.64,1.1-.06-.17v1.33l.04-.2-.64,1.1c.16-.2,1.34-.77,1.83-1.03l2.34-1.29c1.56-.86,3.12-1.72,4.69-2.58,2.55-1.4.78-5.18-1.93-4.57-7.51,1.7-15.08,3.1-22.7,4.17l1.33,4.82c14.16-2.45,26.78-9.63,40.13-14.55,1.52-.56,3.04-1.1,4.59-1.58.41-.13.85-.3,1.28-.35l.2-.03c.47.05.57.04.3-.05.04-.04-.04.02,0-.02.49-.74.54-1.08.15-1.01-.23.13-.47.25-.71.37-3.18,1.62-6.4,3.16-9.58,4.78s-6.32,3.28-9.35,5.14c-1.39.85-2.75,1.74-4.08,2.67-1.53,1.08-2.93,2.34-4.47,3.39-.5.34-.92.59-1.52.55-.96-.07-2.01-.72-2.9-1.06-1.99-.75-4.04-1.33-6.13-1.73-4.11-.79-8.3-.97-12.46-.47-1.34.16-2.5,1.03-2.5,2.5,0,1.22,1.15,2.67,2.5,2.5h0Z"/>
    <path class="cls-10" d="M71.3,215.99c1.86,3.09.78,6.9-.23,10.1-.71,2.25,2.61,4.45,4.18,2.43,5.24-6.75,10.61-13.76,17.73-18.65,6.46-4.43,13.86-7.6,18.42-14.27.86-1.25.04-3.4-1.49-3.67-4-.71-6.79,1.69-9.2,4.57-1.02,1.23-2.08,2.32-3.42,3.19-1.43.93-2.96,1.68-4.45,2.5-6.43,3.52-12.01,8.51-17.71,13.07l3.93.51.05.05v1.33c.09-.43,1.53-1.26,1.94-1.56.85-.64,1.7-1.26,2.57-1.87,1.91-1.36,3.87-2.66,5.86-3.9,3.92-2.44,7.98-4.64,12.15-6.62,1.22-.58,1.54-2.33.9-3.42-.73-1.25-2.2-1.48-3.42-.9-4.93,2.33-9.69,4.98-14.26,7.96-2.22,1.45-4.39,2.97-6.5,4.56s-5.52,3.84-3.6,6.89c.93,1.48,2.65,1.52,3.93.51,5.15-4.12,10.19-8.59,15.94-11.87,2.71-1.55,5.57-2.83,7.9-4.98,1.17-1.08,2.08-2.41,3.17-3.57.68-.72,1.8-1.83,2.92-1.63l-1.49-3.67c-4.21,6.16-11.75,8.93-17.61,13.17-7.06,5.11-12.46,11.91-17.76,18.73l4.18,2.43c1.42-4.53,2.31-9.66-.28-13.95-1.66-2.75-5.98-.24-4.32,2.52h0Z"/>
    <path class="cls-22" d="M119.85,223.07c4.78-.1,9.56-.05,14.33.17,1.31.06,2.56-1.19,2.5-2.5-.06-1.4-1.1-2.44-2.5-2.5-4.77-.21-9.55-.27-14.33-.17-1.31.03-2.56,1.13-2.5,2.5s1.1,2.53,2.5,2.5h0Z"/>
    <path class="cls-5" d="M113.97,212.24c.22,2.33.64,4.63,1.36,6.85.2.62.58,1.16,1.15,1.49.54.31,1.33.45,1.93.25,1.24-.4,2.18-1.74,1.75-3.08-.53-1.64-.91-3.32-1.14-5.02l.09.66c-.05-.39-.09-.78-.13-1.16-.06-.68-.24-1.27-.73-1.77-.43-.43-1.15-.76-1.77-.73s-1.32.24-1.77.73c-.42.46-.79,1.12-.73,1.77h0Z"/>
    <path class="cls-5" d="M119.68,218.5c4.74-.12,9.49-.2,14.23-.24,1.83-.02,3.2-2.13,2.16-3.76-1.84-2.89-3.54-5.87-5.1-8.93-.54-1.06-1.77-1.33-2.82-1.15-3.28.56-6.83.72-10.28.52-1.71-.1-2.73,1.67-2.41,3.16.52,2.47,1.33,4.82,2.32,7.14.53,1.24,2.36,1.52,3.42.9,1.28-.75,1.43-2.17.9-3.42-.74-1.72-1.4-3.95-1.82-5.94l-2.41,3.16c3.89.23,7.77-.04,11.61-.69l-2.82-1.15c1.56,3.06,3.26,6.04,5.1,8.93l2.16-3.76c-4.74.05-9.49.13-14.23.24-1.31.03-2.56,1.13-2.5,2.5s1.1,2.53,2.5,2.5h0Z"/>
    <path class="cls-18" d="M119.75,209.12c-.34.4-.64.79-.77,1.32s-.13,1.04-.02,1.58c.17.85.74,1.54,1.44,2.03.98.69,2.23.65,3.36.52,1.03-.12,2.06-.28,3.06-.55s1.99-.67,2.96-1.1l.51-.39c.24-.23.42-.49.52-.8.21-.49.3-1.11.13-1.63-.24-.7-.62-1.27-1.27-1.67-.48-.29-1.01-.4-1.56-.44-.51-.04-1.03-.02-1.55-.02-1.11-.01-2.22-.02-3.33-.03-1.31-.01-2.56,1.16-2.5,2.5s1.1,2.49,2.5,2.5c.83,0,1.66.02,2.49.02.79,0,1.6-.04,2.38.03l-.66-.09c.08.01.15.03.23.06l-.6-.25.06.04-.51-.39.05.05-.39-.51.04.06-.25-.6.02.07,1.15-2.82c-.12.05-.24.1-.35.15l.6-.25c-1.31.54-2.68.92-4.09,1.11l.66-.09c-.6.08-1.23.17-1.83.1l.66.09c-.11-.02-.21-.05-.32-.08l.6.25c-.1-.04-.18-.09-.27-.15l.51.39s-.09-.08-.12-.13l.39.51s-.07-.1-.09-.15l.25.6c-.04-.09-.06-.16-.07-.25l.09.66c0-.06,0-.11,0-.17l-.09.66c0-.06.02-.11.05-.16l-.25.6.04-.07-.39.51.06-.07c.44-.51.73-1.07.73-1.77,0-.61-.27-1.35-.73-1.77s-1.1-.76-1.77-.73c-.63.03-1.34.23-1.77.73h0Z"/>
    <path class="cls-17" d="M43.14,102.2c19.92-6.32,40.65-7.37,61.41-6.8,10.12.28,20.24.87,30.34,1.52,10.62.69,21.03,1.9,31.07,5.62,9.06,3.36,12.97-11.13,3.99-14.46-10.36-3.84-21.35-5.19-32.32-5.98s-22.05-1.4-33.08-1.7c-22-.6-44.29.65-65.4,7.34-9.17,2.91-5.25,17.39,3.99,14.46h0Z"/>
    <path class="cls-7" d="M42.5,242.46c32.03.81,64.09.45,96.09-1.09,8.95-.43,17.9-.96,26.85-1.57,1.08-.07,1.09-1.77,0-1.69-31.97,2.19-64.01,3.22-96.05,3.07-8.96-.04-17.93-.18-26.89-.41-1.09-.03-1.09,1.67,0,1.69h0Z"/>
    <path class="cls-7" d="M169.49,235.8c5.5-4.6,6.13-12.33,6.22-19.02.13-9.46-.1-18.93.18-28.39.04-1.37.19-2.72.85-3.94.53-.99,1.31-1.82,2.06-2.65,1.83-2.02,3.67-4.04,5.51-6.06.73-.8-.46-2.01-1.2-1.2-1.62,1.78-3.24,3.56-4.86,5.35-1.26,1.38-2.63,2.76-3.36,4.52-.79,1.91-.71,4.04-.72,6.07-.01,2.47-.03,4.94-.04,7.42-.03,4.78-.06,9.56-.08,14.34-.02,3.94.08,7.92-.54,11.82s-2.04,7.87-5.22,10.54c-.84.7.37,1.89,1.2,1.2h0Z"/>
    <path class="cls-7" d="M194,175.6c-7.57,2.89-13.89,9.21-14.39,17.62-.16,2.66.06,5.35.16,8.01s.21,5.38.31,8.08c.16,4.18.01,8.93,3.76,11.66,3.31,2.41,7.81,2.44,11.72,2.76,2.65.22,5.39.65,8.05.62,2.08-.02,3.64-1.08,4.61-2.9,2.27-4.24,1.76-9.72,1.77-14.36.02-5.54.04-11.08.06-16.62.02-4.61.9-10.69-3.63-13.57-1.87-1.19-4.16-1.6-6.34-1.76-2.38-.17-4.84.04-6.88,1.37-.91.59-.06,2.06.85,1.46,1.75-1.14,3.79-1.28,5.83-1.15,1.78.11,3.64.41,5.22,1.27,3.99,2.17,3.27,7.29,3.25,11.13-.02,4.8-.04,9.59-.06,14.39-.02,4.53.39,9.34-.53,13.81-.37,1.79-1,4.35-2.94,5.04-1,.35-2.16.15-3.19.06-1.22-.1-2.44-.2-3.66-.3-3.79-.31-8.06-.19-11.6-1.75-1.7-.75-3.06-1.97-3.75-3.72-.77-1.97-.75-4.15-.83-6.23-.18-4.62-.39-9.25-.53-13.87s.54-8.65,3.35-12.33c2.49-3.25,6.01-5.65,9.81-7.1,1.01-.39.57-2.02-.45-1.63h0Z"/>
    <path class="cls-7" d="M43.59,239.01c-2.42,1.67-5.5.09-6.89-2.17-1.61-2.62-1.81-5.93-2.18-8.91-.86-6.89-1.47-13.8-1.77-20.74-.14-3.42-.21-6.85-.19-10.28s.28-6.64.16-9.94c-.2-5.36-2.32-9.7-6.17-13.38-4.05-3.86-8.98-6.7-12.71-10.9-.72-.82-1.92.38-1.2,1.2,3.46,3.91,7.96,6.64,11.83,10.09,1.91,1.7,3.67,3.6,4.87,5.87,1.53,2.91,1.76,6.18,1.7,9.41-.12,7.13-.22,14.22.19,21.35s1.03,14.01,2.07,20.93c.46,3.04,1.31,6.36,3.87,8.33,2.07,1.59,5.02,2.15,7.27.59.89-.62.05-2.08-.85-1.46h0Z"/>
    <path class="cls-7" d="M9.14,175.45c5.41,2.55,11.41,5.39,14.54,10.77,1.78,3.07,2.32,6.65,2.62,10.14.33,3.79.57,7.59.84,11.38.11,1.54.51,3.35.11,4.87-.46,1.79-2.55,2.31-4.08,2.8-3.59,1.16-7.41,1.83-11.19,1.8-1.53-.01-3.18-.19-4.45-1.13s-1.85-2.36-2.21-3.8c-.85-3.38-.8-7.12-.94-10.58-.32-8.59.05-17.2,1.1-25.74.13-1.08-1.56-1.07-1.69,0-1.05,8.62-1.43,17.31-1.09,25.98.14,3.64.09,7.59,1.08,11.13.89,3.18,3.08,5.28,6.39,5.71,3.73.49,7.82-.2,11.43-1.15,3.01-.79,7-1.7,7.43-5.36.22-1.88-.13-3.87-.27-5.75-.16-2.18-.32-4.36-.48-6.54-.28-3.8-.44-7.7-1.67-11.34-2.56-7.63-9.78-11.44-16.61-14.66-.98-.46-1.84,1-.85,1.46h0Z"/>
    <path class="cls-7" d="M13.77,169.57c2.42-1.27,3.68-3.66,4.87-6s2.38-4.37,4.53-5.83c4.03-2.73,9.28-2.99,14-2.88s9.54.81,14.32,1.01c7.44.31,14.93.11,22.38.14,15.78.07,31.56.06,47.33-.19,7.99-.13,15.98-.31,23.96-.55,3.99-.12,7.99-.26,11.98-.41,3.78-.14,7.59-.5,11.37-.46,4.21.04,8.03,3.28,11.24,5.65,5.68,4.19,11.38,8.27,17.66,11.53.97.5,1.82-.96.85-1.46-5.8-3.01-11.14-6.7-16.39-10.58-3.25-2.41-6.64-5.26-10.6-6.41-2.48-.72-5.12-.32-7.65-.21-3.99.17-7.98.32-11.98.46-7.99.27-15.97.49-23.96.64-16.12.32-32.24.38-48.36.33-8.11-.03-16.21-.07-24.32-.12-5-.03-9.94-.63-14.93-.93-5.34-.32-11.15-.38-16.07,2.02-2.27,1.1-4.16,2.8-5.49,4.95-1.67,2.7-2.59,6.27-5.59,7.85-.97.51-.11,1.97.85,1.46h0Z"/>
    <path class="cls-7" d="M25.46,251.93c23.36-.14,46.72-.28,70.08-.41s46.44-.08,69.65-.44c12.38-.19,24.84-.9,36.85-4.09,1.05-.28.61-1.91-.45-1.63-10.79,2.87-21.95,3.71-33.08,3.97s-22.88.21-34.32.27c-23.11.14-46.22.27-69.33.41-13.14.08-26.27.15-39.41.23-1.09,0-1.09,1.7,0,1.69h0Z"/>
    <path class="cls-7" d="M165.62,269.13c-1.63.39-2.28,2.44-2.59,3.89-.35,1.62-.34,3.31.06,4.91.79,3.19,3.18,5.73,6.32,6.7s6.32.27,8.55-1.99c2.13-2.16,3.13-5.51,2-8.4-1.26-3.22-4.75-5.42-8.21-5-1.07.13-1.08,1.83,0,1.69,2.42-.3,4.87.87,6.15,2.96s.97,4.7-.42,6.69c-3.13,4.49-9.97,3.09-12.2-1.52-.65-1.35-.89-2.88-.79-4.37.05-.71.19-1.41.41-2.09.19-.6.48-1.67,1.18-1.84,1.06-.25.61-1.89-.45-1.63h0Z"/>
    <path class="cls-7" d="M25.75,268.85c5.34,7.48,15.12,7.93,23.5,7.57,12.36-.54,24.71-1.19,37.06-1.83,12.49-.65,24.97-1.33,37.45-2.04,12.38-.71,24.74-1.68,37.14-1.78,6.54-.05,13.14-.19,19.55-1.6,4.79-1.05,9.64-3.08,12.15-7.54.53-.95-.93-1.81-1.46-.85-2.27,4.03-6.67,5.76-10.97,6.73-5.6,1.25-11.38,1.48-17.1,1.55s-11.82.18-17.74.53-11.9.71-17.85,1.05c-23.89,1.38-47.79,2.64-71.69,3.78-9.28.44-22.33,2.34-28.59-6.42-.63-.88-2.1-.03-1.46.85h0Z"/>
    <path class="cls-7" d="M31.45,178.89c2.73,1.92,3.72,5.26,4.16,8.42.54,3.88.52,7.86.71,11.76.22,4.48.44,8.96.65,13.44s.28,8.65.66,12.95c.28,3.14,1.2,6.28,4.11,7.94s6.44,1.42,9.64,1.31c8.88-.33,17.75-.59,26.64-.78,17.84-.39,35.69-.5,53.54-.34,6.27.06,12.54.38,18.8.4,2.75,0,5.52-.1,8.23-.62,2.17-.41,4.49-1.13,6.12-2.7,2.37-2.3,2.49-6.5,2.81-9.58.43-4.25.42-8.54.51-12.81.16-7.38.67-15.13,4.29-21.73.87-1.6,1.92-3.07,3.15-4.42.73-.8-.46-2.01-1.2-1.2-10.71,11.77-6.53,28.69-8.81,42.98-.28,1.73-.47,3.86-1.65,5.24-.65.77-1.58,1.3-2.5,1.69-2.39,1-5.08,1.26-7.64,1.39-5.53.27-11.1-.21-16.63-.27-17.43-.21-34.87-.16-52.3.15-8.8.16-17.59.38-26.39.67-3.86.13-7.83.56-11.69.25-1.7-.13-3.49-.52-4.84-1.61-1.42-1.14-2.04-2.87-2.33-4.62-.32-1.92-.31-3.89-.41-5.83-.11-2.24-.22-4.48-.33-6.72-.21-4.31-.42-8.63-.63-12.94-.2-4.08-.28-8.18-.63-12.25-.26-2.97-.75-6.08-2.35-8.66-.74-1.19-1.7-2.17-2.84-2.97-.89-.63-1.74.84-.85,1.46h0Z"/>
    <path class="cls-7" d="M101.83,237.1c-.44-.72,1.08-1.01,1.48-1.04,1.25-.11,2.51-.18,3.76-.26.61-.04,1.21-.08,1.82-.1.05,0,.28-.03.26-.02-.02,0-.07-.08-.06-.09.01-.08.03.13.01.01,0,.08,0,.16.01.24,0,.82-.15,1.69.54,2.31.81.72,2.01-.47,1.2-1.2-.14-.13-.01.1-.06-.08-.04-.14,0,0-.01-.16,0-.22.02-.45.02-.67.02-.54-.04-1.11-.42-1.53-.48-.54-1.18-.53-1.85-.49-.79.04-1.58.09-2.37.14s-1.58.11-2.37.16c-.68.05-1.38.09-2.03.35-1.27.5-2.18,1.99-1.4,3.28.56.93,2.03.08,1.46-.85h0Z"/>
    <path class="cls-7" d="M42.99,80.68c16.31-3.81,32.94-6.23,49.67-7.21,16.64-.97,33.36-.53,49.92,1.31,9.39,1.05,18.73,2.56,27.97,4.51,1.06.22,1.52-1.41.45-1.63-16.46-3.48-33.21-5.55-50.02-6.18-16.9-.63-33.84.19-50.59,2.44-9.36,1.26-18.65,2.97-27.84,5.12-1.06.25-.61,1.88.45,1.63h0Z"/>
    <path class="cls-7" d="M169.98,84.74c2.56,5.55-.44,11.87.76,17.68.46,2.2,1.45,4.4,3.24,5.84,2.08,1.67,4.68,1.7,7.21,1.94,2.99.29,5.25,1.66,5.46,4.86.18,2.73-.81,5.38-1.68,7.91-1.19,3.42-2.37,6.83-3.56,10.25s-2.03,6.83-3.75,9.85c-3.24,5.7-10.03,7.91-15.9,9.76-1.04.33-.59,1.96.45,1.63,5.35-1.69,11.18-3.61,15.03-7.93,2.16-2.43,3.22-5.41,4.27-8.44,1.27-3.65,2.53-7.3,3.8-10.95,1.57-4.52,5.17-11.62,1.66-16.11-1.79-2.29-4.65-2.44-7.32-2.66-2.96-.25-5.33-1.27-6.58-4.11-2.87-6.54,1.39-13.82-1.64-20.38-.46-.99-1.92-.13-1.46.85h0Z"/>
    <path class="cls-7" d="M41.51,79.81c-3.56,4.4-5.2,9.79-5.77,15.35-.3,2.92-.32,5.86-.19,8.79s.81,6.13-2.22,7.78c-2.62,1.42-5.73,1-8.55,1.69-2.61.64-4.71,2.3-6.04,4.62-3.17,5.49-1.32,12.35.48,17.97,2.16,6.73,5.41,13.09,9.59,18.79.64.87,2.11.03,1.46-.85-3.66-5-6.62-10.49-8.71-16.32-1.98-5.51-4.51-12.84-1.53-18.42,1.46-2.73,3.82-4.06,6.84-4.45,2.55-.33,5.17-.34,7.46-1.66s3.13-3.43,3.08-5.94c-.05-2.82-.31-5.61-.22-8.43.2-6.27,1.48-12.75,5.51-17.75.68-.84-.51-2.05-1.2-1.2h0Z"/>
    <path class="cls-7" d="M37.18,92.96c15.87-7.59,33.65-9.08,51-9.21,8.77-.07,17.53.2,26.3.24,9.66.05,19.33-.27,28.98.38,9.48.64,20.05,1.84,27.61,8.19.46.38,1.26.3,1.42-.37,1.06-4.67-.18-9.54-3.36-13.13-.72-.82-1.92.38-1.2,1.2,2.76,3.12,3.84,7.42,2.92,11.48l1.42-.37c-6.51-5.47-14.98-7.27-23.22-8.19-9.96-1.11-20-.9-30-.87-18.16.06-36.46-1.21-54.52,1.19-9.75,1.3-19.31,3.76-28.2,8.01-.98.47-.12,1.93.85,1.46h0Z"/>
    <path class="cls-7" d="M24.39,163.59h5.62c.44,0,.87-.39.85-.85s-.37-.85-.85-.85h-5.62c-.44,0-.87.39-.85.85s.37.85.85.85h0Z"/>
    <path class="cls-7" d="M41.9,163.92c30.9-1.33,61.84-1.79,92.76-1.38,8.65.11,17.29.3,25.93.55,1.09.03,1.09-1.66,0-1.69-30.92-.89-61.85-.92-92.77-.07-8.64.24-17.28.54-25.92.91-1.09.05-1.09,1.74,0,1.69h0Z"/>
    <path class="cls-7" d="M173.39,164.35c1.45.62,2.7,1.56,3.94,2.51,1.48,1.14,2.95,2.27,4.42,3.41,2.9,2.24,5.81,4.48,8.71,6.71.86.66,1.71-.81.85-1.46-2.9-2.24-5.81-4.48-8.71-6.71-1.43-1.1-2.86-2.2-4.29-3.3-1.29-.99-2.57-1.97-4.07-2.62-.99-.43-1.85,1.03-.85,1.46h0Z"/>
    <path class="cls-7" d="M27.42,273.96c-.05,4.58-.06,9.16-.15,13.74-.02,1.12-.21,1.82-1.26,2.37-.94.49-1.94.88-2.94,1.26-2.08.8-4.21,1.43-6.37,1.93-1.06.24-.61,1.88.45,1.63,2.41-.55,4.77-1.28,7.06-2.2,1.78-.72,4.17-1.4,4.63-3.53.24-1.1.13-2.3.14-3.42l.04-3.73.09-8.05c.01-1.09-1.68-1.09-1.69,0h0Z"/>
    <path class="cls-7" d="M174.82,295.02c5.11.25,10.23.1,15.31-.49,2.33-.27,4.68-.59,6.98-1.07,1.87-.39,3.66-1.02,5.02-2.41.76-.78-.44-1.98-1.2-1.2-1.34,1.37-3.19,1.78-5.01,2.12-2.4.45-4.82.78-7.24,1.03-4.6.46-9.23.56-13.85.34-1.09-.05-1.09,1.64,0,1.69h0Z"/>
    <path class="cls-7" d="M43.93,210.31c-.68,3.14-1.1,6.33-1.22,9.54-.09,2.52-.64,6.01,1.93,7.47,5.1,2.89,11.61,3.26,17.33,3.32,3,.04,6.21.24,9.17-.37,2.53-.52,4.57-2.02,6.26-3.92s3.06-4.15,4.79-6.06,3.76-3.59,5.89-5.07c4.25-2.96,8.9-5.28,13.23-8.12,2.09-1.37,4.12-2.87,5.94-4.59s3.86-3.76,4.41-6.23c.46-2.11-.5-4.61-2.74-5.17-1.16-.29-2.34.09-3.5-.03-1.37-.14-1.73-1.79-2.98-2.3-1.04-.42-2.19-.28-3.27-.14-1.69.23-3.35.61-4.99,1.07-3.19.91-6.28,2.12-9.38,3.28-7.26,2.7-14.52,5.4-21.79,8.1-3.71,1.38-7.42,2.76-11.13,4.14-3.01,1.12-6.35,2.02-8.72,4.3-.79.76.41,1.95,1.2,1.2,2.04-1.95,4.92-2.73,7.51-3.69,2.94-1.09,5.87-2.18,8.81-3.27,5.87-2.18,11.74-4.37,17.61-6.55,5.68-2.11,11.36-4.57,17.23-6.11,1.42-.37,2.87-.7,4.33-.86.45-.05.94-.12,1.39-.05.97.16,1.15.74,1.72,1.4.65.76,1.47,1.11,2.46,1.17,1.17.07,2.64-.45,3.68.25,2.64,1.77-.25,5.37-1.63,6.87-1.56,1.69-3.32,3.17-5.18,4.5-3.81,2.73-7.98,4.89-11.96,7.35s-7.63,5.13-10.49,8.74c-1.44,1.82-2.71,3.81-4.35,5.46-2,2.01-4.32,2.82-7.13,2.95-6.08.27-12.57.29-18.47-1.37-1.51-.43-3.2-.91-4.52-1.76s-.98-3.12-.96-4.5c.04-3.53.45-7.04,1.19-10.5.23-1.06-1.4-1.52-1.63-.45h0Z"/>
    <path class="cls-7" d="M144.74,202.05c-.13,4.16-.14,8.33,0,12.49.07,2.08.18,4.16.32,6.24.09,1.33-.08,3.28.88,4.38,1.03,1.18,2.96.88,4.35.89,2.14.02,4.28.04,6.42.05,1.99.01,3.98.02,5.97.03,1.53,0,2.64-.07,4.05-.68,1-.44.14-1.89-.85-1.46-1.28.56-2.5.46-3.88.45-1.76,0-3.52-.02-5.28-.03s-3.52-.03-5.28-.04c-.84,0-1.68-.01-2.52-.03-1.01-.01-1.8-.04-1.99-1.19-.26-1.6-.25-3.3-.33-4.92-.1-1.85-.17-3.7-.21-5.55-.08-3.55-.06-7.09.05-10.64.04-1.09-1.66-1.09-1.69,0h0Z"/>
    <path class="cls-7" d="M145.35,202.55c7.33-.26,14.67-.15,21.99.33,1.09.07,1.08-1.62,0-1.69-7.32-.48-14.66-.59-21.99-.33-1.09.04-1.09,1.73,0,1.69h0Z"/>
    <path class="cls-7" d="M145.85,200.54c-2.9-3.2-5.03-6.96-6.31-11.09l-.59,1.04c4.97-1.1,10.03-1.72,15.13-1.8.54,0,1.13-.07,1.67,0,.9.1,1.36.45,1.95,1.09.85.93,1.69,1.88,2.51,2.83,1.7,1.98,3.35,4,4.94,6.07.66.85,2.13,0,1.46-.85-1.68-2.18-3.41-4.33-5.21-6.41-.93-1.07-1.85-2.16-2.83-3.18-.91-.95-1.76-1.23-3.07-1.24-5.71-.05-11.44.64-17.01,1.87-.44.1-.72.62-.59,1.04,1.36,4.41,3.65,8.41,6.75,11.84.73.81,1.93-.39,1.2-1.2h0Z"/>
    <path class="cls-7" d="M145.92,222.58l-4.15-7.7c-1.35-2.5-3.09-5.06-3.32-7.96s.1-5.76.2-8.59c.1-2.99.2-5.98.31-8.97.04-1.09-1.66-1.09-1.69,0-.11,3.07-.21,6.15-.32,9.22s-.52,6.18-.11,9.16c.37,2.66,1.86,5.02,3.11,7.34,1.5,2.79,3,5.58,4.51,8.36.52.96,1.98.11,1.46-.85h0Z"/>
    <path class="cls-7" d="M155.51,194.27c-1,.15-2.01-.15-3.02.01-.9.15-1.72.64-2.13,1.47s-.66,2.01-.19,2.88c.44.8,1.32,1.15,2.15,1.38,2.06.58,4.3.81,6.43.51.8-.11,1.63-.38,2.2-.98.61-.65.81-1.58.54-2.43-.3-.96-1.04-1.71-1.96-2.08-1.05-.43-2.19-.38-3.3-.3s-1.09,1.77,0,1.69,2.75-.28,3.47.81-.41,1.53-1.31,1.65c-1.53.2-3.13.07-4.62-.25-.61-.13-1.38-.23-1.9-.6-.43-.3-.23-.98-.05-1.39.25-.57.83-.72,1.41-.74.93-.03,1.82.14,2.75,0,.45-.07.7-.64.59-1.04-.13-.48-.59-.66-1.04-.59h0Z"/>
    <path class="cls-7" d="M150.36,188.47c-1.72.02-3.94.86-4.7,2.53-.41.89-.04,1.84.79,2.33s1.9.52,2.83.6c1.11.1,2.23.12,3.34.16s2.21.2,3.28-.06c.85-.21,1.66-.75,2.03-1.56s.27-1.84-.39-2.48c-.77-.75-2.15-.83-3.16-.97-1.27-.18-2.54-.26-3.83-.23-1.09.02-1.09,1.71,0,1.69,1.03-.02,2.06.02,3.09.14.47.05.94.13,1.41.21.36.07.88.09,1.19.29.58.37-.1,1.02-.5,1.18-.82.34-1.85.14-2.71.11-.98-.04-1.95-.06-2.93-.12-.84-.05-1.89-.03-2.68-.37-.29-.12-.3-.12-.16-.35.17-.28.52-.54.79-.71.69-.46,1.47-.69,2.3-.7,1.09-.01,1.09-1.71,0-1.69h0Z"/>
    <path class="cls-7" d="M117.79,224.34c6.53.23,13.06.46,19.59.69.48.02.82-.4.85-.85.08-1.46.16-2.92.23-4.39.06-1.09-1.64-1.09-1.69,0-.08,1.46-.16,2.92-.23,4.39l.85-.85c-6.53-.23-13.06-.46-19.59-.69-1.09-.04-1.09,1.66,0,1.69h0Z"/>
    <path class="cls-7" d="M117.85,222.48c0-.9.1-1.76.38-2.62.23-.71.35-.95,1.07-1.1.38-.08.82-.04,1.2-.06,1.86-.08,3.73-.09,5.59-.03,3.79.11,7.56.5,11.29,1.14,1.07.18,1.52-1.45.45-1.63-4.54-.78-9.13-1.21-13.74-1.23-1.13,0-2.26.01-3.39.06-.86.03-1.92-.08-2.72.28-1.59.72-1.83,3.71-1.82,5.2,0,1.09,1.7,1.09,1.69,0h0Z"/>
    <path class="cls-7" d="M138.34,218.19l-4.37-7.46c-.73-1.24-1.45-2.49-2.18-3.73-.57-.96-1.09-1.65-2.27-1.75-2.72-.23-5.55,0-8.28,0-1.41,0-2.83-.02-4.24.01-.99.02-1.7.34-1.91,1.38s1.42,1.52,1.63.45c.04-.22.09-.15.06-.14.16-.09.66,0,.85,0,.57,0,1.13,0,1.7,0,1.13,0,2.26,0,3.39,0s2.26,0,3.39,0c.99,0,2.67-.32,3.54.13.83.42,1.4,2.04,1.88,2.84l1.75,2.98,3.6,6.15c.55.94,2.02.09,1.46-.85h0Z"/>
    <path class="cls-7" d="M118.78,217.64c.48-3.95-.66-7.83-1.8-11.57-.32-1.04-1.95-.6-1.63.45,1.1,3.61,2.2,7.31,1.74,11.12-.05.45.43.85.85.85.5,0,.79-.39.85-.85h0Z"/>
    <path class="cls-7" d="M114.86,208.16c.01,1.35-.48,2.63-.66,3.96s0,2.58.18,3.87c.39,2.81.78,5.63,1.17,8.44.15,1.07,1.78.62,1.63-.45-.38-2.71-.75-5.42-1.13-8.14-.18-1.33-.37-2.64-.1-3.98.25-1.24.61-2.43.6-3.71,0-1.09-1.7-1.09-1.69,0h0Z"/>
    <g>
      <path class="cls-7" d="M80.6,223.4c2.97,1.8,6.4,2.47,9.8,2.87s7.18.77,10.52-.62c1.57-.65,2.98-1.61,4.29-2.68s2.62-2.22,3.67-3.54c.95-1.18,1.66-2.62,1.55-4.17s-.98-2.61-2.26-3.36c-1.7-.99-3.59-1.73-5.43-2.4s-3.97-1.54-6-1.02c-.53.13-.3.95.23.82,1.72-.44,3.51.29,5.11.86s3.11,1.2,4.61,1.93c1.3.63,2.62,1.35,2.87,2.91s-.6,3.09-1.62,4.24c-1.95,2.21-4.43,4.36-7.15,5.55-3.07,1.34-6.5,1.06-9.74.7-3.46-.38-6.99-.99-10.01-2.83-.47-.28-.89.45-.43.73h0Z"/>
      <path class="cls-7" d="M81.1,221.09c6.6,4.35,14.74,6.3,22.59,5.36,2.9-.35,6.74-1.14,7.81-4.3,1.33-3.94-2.7-7.02-5.7-8.6-4-2.1-8.52-2.45-12.95-2.53-.55-.01-.55.84,0,.85,3.64.07,7.34.29,10.78,1.62,1.73.67,3.45,1.63,4.86,2.84s2.53,2.84,2.38,4.73c-.27,3.41-4.56,4.24-7.28,4.56-3.6.42-7.28.23-10.82-.54-4-.87-7.82-2.47-11.24-4.72-.46-.3-.88.43-.43.73h0Z"/>
      <path class="cls-7" d="M83.86,219.16c3.05,2.78,6.59,4.97,10.44,6.46,1.95.75,3.97,1.32,6.03,1.69s4.34.64,6.48.37c1.91-.24,3.81-.98,5.13-2.43,1.38-1.53,1.71-3.6,1.49-5.59s-1.26-3.45-3.13-4.27c-2.01-.88-4.2-1.45-6.35-1.84-5.03-.93-10.23-.73-15.17.58-.53.14-.3.96.23.82,4.03-1.07,8.24-1.38,12.39-.92,2.05.23,4.08.65,6.05,1.25,1.78.54,4.06,1.13,4.82,3.04.69,1.74.57,4.2-.47,5.78s-2.92,2.44-4.75,2.72c-2.03.31-4.16.08-6.18-.26-1.83-.31-3.62-.77-5.37-1.38-4.08-1.43-7.85-3.68-11.04-6.59-.4-.37-1,.23-.6.6h0Z"/>
      <path class="cls-7" d="M78.41,223.37c4.88,5.47,12.45,6.8,19.41,7.36.54.04.54-.8,0-.85-6.74-.54-14.08-1.81-18.81-7.11-.36-.41-.96.19-.6.6h0Z"/>
    </g>
    <path class="cls-7" d="M118.67,208.66c-.1,1.46.07,2.96.54,4.35.21.62.45,1.32.84,1.85.48.65,1.18.69,1.93.65,3.2-.17,6.38-.53,9.54-1.05.43-.07.74-.65.59-1.04-.48-1.29-.96-2.58-1.44-3.87-.24-.63-.43-1.31-.73-1.92-.31-.64-.84-.74-1.5-.72-2.8.07-5.6.14-8.4.21-1.09.03-1.09,1.72,0,1.69,2.46-.06,4.91-.12,7.37-.18.31,0,.61-.02.92-.02.15,0,.31,0,.46-.01-.32-.19-.4-.15-.23.12,0,.25.23.62.32.86l.32.86c.43,1.15.85,2.29,1.28,3.44l.59-1.04c-2.63.43-5.27.74-7.93.92-.31.02-.62.04-.92.06-.14,0-.71.12-.8.06-.15-.09-.28-.56-.35-.72-.12-.29-.22-.59-.32-.89-.36-1.18-.47-2.38-.39-3.6.08-1.09-1.62-1.08-1.69,0h0Z"/>
    <path class="cls-7" d="M129.95,219.93l.03,2.21c0,.45.38.86.85.85.72-.02,1.44-.03,2.15-.05l1.06-.02c.5-.01,1.02-.1,1.29-.59.2-.35.21-.78.24-1.18.03-.35.03-.71,0-1.06-.05-.55-.29-1.02-.85-1.21-.35-.12-.79-.09-1.15-.11-.8-.04-1.59-.09-2.39-.13-.44-.02-.87.41-.85.85.02.48.37.82.85.85.74.04,1.49.08,2.23.12.21.01.41.02.62.03.08,0,.15.01.23.01.1,0,.08,0-.05,0-.12-.04-.21-.12-.28-.23-.04-.06-.06-.13-.06-.21,0,.04,0,.09.01.13,0,.08,0,.15.01.23,0,.19,0,.38,0,.57,0,.09-.01.18-.02.27,0,.04-.05.35-.01.15,0,.03-.04.13-.03.16.04-.13.12-.23.23-.3.06-.04.12-.06.2-.06-.04.03-.24,0-.3,0h-.23c-.2,0-.39.01-.59.02-.77.02-1.54.03-2.31.05l.85.85-.03-2.21c0-.44-.39-.87-.85-.85s-.85.37-.85.85h0Z"/>
    <path class="cls-7" d="M110.61,178.53c-.29,8.14-.15,16.29.41,24.42.04.59.51.91,1.07.82,8.13-1.35,16.42.54,24.59.03,1.08-.07,1.09-1.76,0-1.69-8.34.52-16.74-1.34-25.04.03l1.07.82c-.56-8.13-.7-16.28-.41-24.42.04-1.09-1.66-1.09-1.69,0h0Z"/>
    <path class="cls-7" d="M111.67,178.54c8.9-.01,17.8-.03,26.7-.04,4.41,0,8.82-.01,13.22-.02,1.12,0,2.39-.17,3.49,0,.64.09.6-.07.74.65.08.43.05.97.06,1.41.08,2.2.09,4.41.04,6.61-.02,1.09,1.67,1.09,1.69,0,.05-2.36.04-4.72-.06-7.08-.07-1.6,0-3.2-1.97-3.29-4.8-.22-9.67.01-14.47.02-9.81.01-19.63.03-29.44.04-1.09,0-1.09,1.7,0,1.69h0Z"/>
    <path class="cls-7" d="M111.79,177.78c1.23-.8,1.36-2.02,1.99-3.23.56-1.1,1.73-.89,2.79-.9,1.16,0,2.32,0,3.49-.01,4.65-.01,9.3-.03,13.95-.04,4.33-.01,8.7-.18,13.02,0,3.17.14,6.87.68,8.75,3.55.59.91,2.06.06,1.46-.85-1.89-2.9-5.17-3.93-8.46-4.27-4.54-.47-9.22-.14-13.77-.13-5.15.02-10.29.03-15.44.05-1.16,0-2.32,0-3.49.01-.96,0-1.97-.03-2.79.55-1.3.93-1.09,2.99-2.35,3.8-.91.59-.06,2.06.85,1.46h0Z"/>
    <path class="cls-7" d="M123.35,182.52c-1.54-.12-2.92.8-3.75,2.05-.92,1.4-1.12,3.18-1.33,4.8-.23,1.81.03,3.44,1.15,4.92.92,1.22,2.14,2.15,3.56,2.71,2.98,1.19,6.62.38,8.79-2,1.02-1.12,1.71-2.53,1.87-4.04.18-1.67-.37-3.3-1.2-4.73-.9-1.53-2.14-3.12-3.72-3.99-1.73-.95-3.75-.97-5.67-.94-1.09.02-1.09,1.71,0,1.69,1.3-.02,2.64-.05,3.9.34s2.24,1.31,3.05,2.34c1.61,2.05,2.7,4.64,1.3,7.11-1.23,2.17-3.82,3.37-6.28,3.03-2.33-.32-4.94-2.22-5.15-4.72-.12-1.43.2-3.14.64-4.5.41-1.27,1.38-2.5,2.84-2.38,1.09.09,1.08-1.61,0-1.69h0Z"/>
    <path class="cls-7" d="M153.25,187.61c.3-3-1.2-5.97-4.02-7.2s-6.11-.46-8.2,1.79c-1.56,1.67-2.34,4.01-2.08,6.28.05.46.35.84.85.85.42,0,.9-.39.85-.85-.34-2.98,1.42-6.03,4.4-6.82,2.05-.54,4.36.23,5.59,1.99.82,1.17,1.06,2.55.92,3.96-.11,1.08,1.59,1.08,1.69,0h0Z"/>
    <path class="cls-7" d="M46.1,211c6.69-.29,13.36.68,19.67,2.93,1.37.49,2.83.98,4.01,1.85,1.28.95,1.81,2.39,2,3.92.33,2.67.43,7.16-2.87,7.96-1.06.26-.61,1.89.45,1.63,3.52-.86,4.28-4.65,4.23-7.78-.05-3.34-.93-6.27-4.08-7.88-3.42-1.75-7.38-2.77-11.14-3.48-4.04-.76-8.16-1.05-12.27-.87-1.09.05-1.09,1.74,0,1.69h0Z"/>
    <path class="cls-7" d="M75.77,212.21c7.88-4.82,15.86-9.49,23.92-13.99.95-.53.1-2-.85-1.46-8.07,4.51-16.04,9.17-23.92,13.99-.93.57-.08,2.03.85,1.46h0Z"/>
    <path class="cls-7" d="M52.35,206.7c7.03-5.4,14.29-10.5,21.76-15.26,3.29-2.1,6.79-3.97,9.89-6.35,1.34-1.03,2.56-2.17,3.57-3.53.85-1.14,2.08-2.92,1.32-4.39-.62-1.2-2.1-1.49-3.33-1.54-1.98-.09-4,.09-5.96.38-4.04.59-7.94,1.85-11.67,3.47-3.49,1.52-6.8,3.42-10.15,5.22-2.72,1.46-5.44,2.95-7.99,4.7-2.69,1.85-5.16,4-7.27,6.49-1.21,1.43-2.32,2.94-3.34,4.51-1.12,1.72-2.23,3.45-2.43,5.53-.11,1.08,1.59,1.08,1.69,0,.18-1.78,1.35-3.38,2.31-4.84.85-1.3,1.76-2.56,2.76-3.75,1.71-2.05,3.65-3.9,5.78-5.5,4.53-3.4,9.74-5.86,14.71-8.54,6.51-3.51,14.2-6.47,21.73-5.97.9.06,1.85.25,1.59,1.35-.19.8-.9,1.67-1.41,2.3-1.03,1.27-2.29,2.34-3.61,3.29-2.89,2.07-6.04,3.8-9.04,5.71-7.48,4.76-14.73,9.86-21.76,15.26-.85.65,0,2.13.85,1.46h0Z"/>
    <path class="cls-7" d="M38.07,215.67c1.97.5,4.04.26,5.85-.65.4-.2.54-.79.3-1.16-.26-.41-.73-.52-1.16-.3-1.37.69-3.04.86-4.54.48-.43-.11-.94.14-1.04.59s.13.93.59,1.04h0Z"/>
    <path class="cls-7" d="M87.59,179.02c.64,1.1,1.28,2.21,1.92,3.31.36.63.98,1.35.56,2.06-.26.44-.6.86-.92,1.27-1.34,1.75-2.87,3.37-4.51,4.85-3.29,2.95-7.14,5.26-11.29,6.81-1.01.38-.57,2.01.45,1.63,4.72-1.76,9.05-4.42,12.72-7.87,1.77-1.67,3.46-3.53,4.82-5.56.76-1.13.72-2.07.08-3.25-.76-1.38-1.59-2.73-2.38-4.1-.55-.94-2.01-.09-1.46.85h0Z"/>
    <path class="cls-7" d="M38.34,222.72c1.05.24,2.04-.03,3-.45.87-.38,1.71-.85,2.52-1.34.38-.23.55-.77.3-1.16s-.75-.55-1.16-.3c-.74.45-1.5.87-2.28,1.24-.08.04-.16.07-.24.11.07-.03.05-.02-.04.02-.05.02-.11.04-.16.06-.19.07-.39.13-.59.18-.08.02-.17.04-.25.05.15-.02-.17,0-.2.01-.09,0-.17,0-.25,0-.1-.01-.11,0-.03,0-.06,0-.11-.02-.17-.03-.43-.1-.94.13-1.04.59-.1.43.13.94.59,1.04h0Z"/>
    <path class="cls-7" d="M26.96,321.1c17.82,0,35.64,0,53.46,0s35.81,0,53.71,0,35.64,0,53.46,0h113.67c1.29,0,1.29-2,0-2h-107.18c-17.82,0-35.64,0-53.46,0s-35.64,0-53.46,0c-17.82,0-35.64,0-53.46,0-2.25,0-4.5,0-6.75,0-1.29,0-1.29,2,0,2h0Z"/>
    <g>
      <path class="cls-20" d="M157.81,164.75c2.33,1.36,4.06,3.31,5.19,5.75l1.91-2.49c-1.78-.45-3.02-1.57-3.76-3.24l-2.32,2.32c1.69.76,2.63,2.52,4.22,3.44,2.33,1.34,4.38.04,6.24-1.44,4.25-3.37,7.96-7.34,11.16-11.72.5-.68.17-1.72-.44-2.18-.72-.55-1.55-.4-2.22.13-2.4,1.9-4.62,4.01-6.61,6.33-.95,1.1-1.84,2.25-2.69,3.43-.33.46-1.83,2.85-2.35,2.6l.61,2.32c2.48-3.47,5.27-6.69,8.34-9.66,2.8-2.71,5.77-5.27,7.94-8.54,1.09-1.64,1.93-3.42,1.49-5.42s-1.83-4.06-2.8-5.94c-1.05-2.04-2.1-4.07-3.14-6.11-.49-.95-1.67-2.93-.72-3.89h-2.4c1.26,1.56,1.51,3.76,1.85,5.67.44,2.46.89,4.93,1.33,7.39.38,2.1.88,4.22,1.05,6.35.13,1.73.09,3.61-1.18,4.93-1.51,1.57.88,3.97,2.4,2.4,3.53-3.68,1.97-9.19,1.18-13.63-.52-2.86-1.03-5.72-1.55-8.58-.46-2.53-1.04-4.89-2.68-6.93-.57-.71-1.81-.6-2.4,0-2.83,2.87-.39,6.86,1.09,9.74,1.05,2.04,2.09,4.07,3.14,6.11.49.95,1.15,1.93,1.45,2.96.32,1.11-.23,1.96-.81,2.88-2.13,3.36-5.3,5.9-8.1,8.66-3.09,3.04-5.88,6.36-8.4,9.89-.5.7-.16,1.95.61,2.32,3.73,1.78,5.88-2.43,7.77-4.87,2.31-3,5.03-5.67,7.99-8.02l-2.66-2.05c-2.68,3.66-5.8,7-9.27,9.92-1.06.9-2.54,2.82-3.94,1.72-1.31-1.03-2.21-2.43-3.78-3.13s-3.02.73-2.32,2.32c1.07,2.41,3.24,4.16,5.79,4.8,1.52.38,2.52-1.18,1.91-2.49-1.36-2.93-3.62-5.34-6.41-6.97-1.89-1.1-3.6,1.83-1.71,2.92h0Z"/>
      <path class="cls-7" d="M155.71,163.79c1.42,2.34,3.05,4.56,4.89,6.59,1.29,1.43,3.13,4.09,5.19,2.41,2.23-1.81,4.23-4.03,6.23-6.09s4.07-4.28,6.02-6.5c1.77-2.01,3.69-4.05,4.93-6.45s1.58-5.06,1.32-7.71c-.28-2.81-1.1-5.52-1.98-8.19-.95-2.89-1.94-5.77-2.96-8.64-.34-.96-.57-2.48-1.81-2.6-1.02-.1-2.01.87-2.72,1.5-1.72,1.51-2.75,4.16-.9,6,.77.77,1.97-.43,1.2-1.2s-.57-1.8-.03-2.6c.29-.43.69-.79,1.08-1.12.2-.17.42-.32.62-.48.47-.37.28-.39.52-.17.3.28.43,1.2.56,1.59.19.53.37,1.06.56,1.59.4,1.13.79,2.27,1.18,3.41,1.4,4.13,3.16,8.5,3.07,12.93-.1,4.77-3.32,8.12-6.31,11.49s-6.01,6.52-9.19,9.6c-.45.43-.89.86-1.35,1.29-.23.21-.45.43-.68.64-.34.31-.47.61-.93.47-.93-.28-1.95-1.8-2.59-2.51-1.68-1.88-3.16-3.92-4.47-6.08-.56-.93-2.03-.08-1.46.85h0Z"/>
      <path class="cls-7" d="M159.97,162.67c1.29,1.93,2.9,3.55,4.82,4.85.32.21.76.11,1.03-.13,2.81-2.64,5.63-5.28,8.44-7.91,2.31-2.17,5.11-4.26,6.09-7.41.91-2.95.34-6.26-.45-9.18-.88-3.26-2.32-6.35-4.2-9.15-.6-.9-2.07-.05-1.46.85,1.73,2.57,3.06,5.36,3.91,8.33s1.49,6.2.43,9.08-4.11,4.95-6.24,6.94c-2.57,2.41-5.15,4.83-7.72,7.24l1.03-.13c-1.68-1.13-3.09-2.55-4.22-4.24-.6-.9-2.07-.06-1.46.85h0Z"/>
    </g>
    <g>
      <path class="cls-20" d="M30.71,130.25c-6.85,3.12-10.59,11.24-8.81,18.49l3.27-.9c-.88-2.27-2.6-6.38,0-8.25,1.74-1.25.19-4.08-1.71-2.92-2.78,1.7-3.51,5-2.9,8.04.68,3.4,3.32,5.84,5.21,8.59,2.09,3.07,2.79,6.81,4.75,9.94s4.75,5.55,6.41,8.83l2.66-2.05c-5.35-5.48-9.66-11.95-12.58-19.03l-3.1,1.31c3.26,6.26,6.52,12.51,9.78,18.77.64,1.23,1.22,3.1,2.52,3.78,1.42.75,2.79-.13,3.7-1.21,2.27-2.68,4.48-5.43,6.71-8.15.96-1.17.1-3.46-1.65-2.83-3.77,1.36-6.9,3.94-8.84,7.47-1.05,1.91,1.88,3.62,2.92,1.71,1.5-2.73,3.87-4.85,6.81-5.91l-1.65-2.83c-1.87,2.27-3.75,4.55-5.62,6.82-.27.33-1.34,1.28-1.37,1.65-.23.18-.14.24.26.18.4.15.49.08.27-.18.01-.29-.43-.82-.58-1.1l-2.07-3.97c-2.76-5.3-5.52-10.6-8.29-15.9-.87-1.67-3.83-.49-3.1,1.31,3.15,7.65,7.67,14.6,13.45,20.53,1.39,1.42,3.51-.38,2.66-2.05-1.45-2.86-3.75-5.09-5.62-7.66-1.99-2.74-2.82-5.94-4.29-8.95s-3.78-5.01-5.32-7.77c-1.03-1.85-1.63-5.07.54-6.39l-1.71-2.92c-4.11,2.96-3.13,7.98-1.55,12.07.77,2,3.8,1.26,3.27-.9-1.45-5.89,1.79-12.18,7.26-14.66,1.98-.9.26-3.82-1.71-2.92h0Z"/>
      <path class="cls-7" d="M46.28,164.29c-2.9,3.34-5.79,6.67-8.69,10.01l1.33.17c-2.61-4.06-5.21-8.11-7.82-12.17-2.45-3.81-5.24-7.57-7.22-11.65-1.66-3.41-2.02-7.08-.73-10.68s3.79-6.3,6.94-8.14c.94-.55.09-2.01-.85-1.46-6.47,3.79-10.36,11.62-7.75,18.94,1.62,4.54,4.76,8.57,7.35,12.59,2.88,4.48,5.75,8.95,8.63,13.43.28.43.96.6,1.33.17,2.9-3.34,5.79-6.67,8.69-10.01.71-.82-.48-2.02-1.2-1.2h0Z"/>
      <path class="cls-7" d="M42.02,163.91c-2.01,1.41-3.86,3-5.52,4.8l1.45.6c.27-2.3-.84-4.32-1.96-6.24-1.32-2.26-2.66-4.51-3.99-6.76-1.23-2.09-2.49-4.18-3.7-6.28s-2.48-4.42-2.44-6.94c.04-2.18,1.07-4.26,2.61-5.77,1.45-1.43,3.5-2.1,4.87-3.6,1-1.1,1.58-2.98.18-4.02-1.04-.77-2.69-.71-3.37.47-.55.95.92,1.8,1.46.85.34-.58,1.08.17,1.05.58-.03.45-.49.9-.79,1.18-.69.65-1.56,1.11-2.36,1.61-1.42.9-2.66,1.98-3.62,3.37-1.9,2.77-2.15,6.16-.97,9.26,1.42,3.72,3.85,7.13,5.87,10.55,1.08,1.83,2.16,3.66,3.24,5.49,1.13,1.92,2.5,3.89,2.23,6.23-.09.74.98,1.1,1.45.6,1.57-1.7,3.29-3.2,5.18-4.53.89-.62.04-2.09-.85-1.46h0Z"/>
    </g>
    <path class="cls-7" d="M191.04,26.13v307.77H24.96V26.13h166.08M193.04,24.13H22.96v311.77h170.08V24.13h0Z"/>
    <path class="cls-7" d="M98.87,29.14c.93,1.09,1.31,2.53,1.54,3.91.27,1.59.39,3.23.97,4.75.12.32.51.47.77.2.95-.95,1.66-2.12,2.06-3.41s.36-2.77.92-4.04c.26-.58.63-1.11,1.2-1.43.52-.29.05-1.09-.47-.8-1.16.65-1.72,1.94-1.98,3.19-.15.73-.23,1.46-.39,2.19-.14.65-.37,1.28-.68,1.86-.35.66-.79,1.25-1.31,1.78l.77.2c-1.13-2.97-.55-6.51-2.75-9.06-.16-.19-.49-.17-.65,0-.19.19-.16.46,0,.65h0Z"/>
    <path class="cls-7" d="M109.56,29.08c.4,1.53.21,3.12.03,4.66s-.36,3.19-.02,4.77c.13.58,1.02.33.89-.25-.34-1.54-.11-3.14.07-4.69s.33-3.18-.08-4.74c-.15-.57-1.04-.33-.89.25h0Z"/>
    <path class="cls-7" d="M98.12,38.33c1.89.08,3.77.29,5.65.51,2.03.23,4.07.59,6.12.56,1.37-.02,2.74-.21,4.04-.68.56-.2.32-1.09-.25-.89-2.73.98-5.57.61-8.37.27-2.39-.29-4.78-.59-7.19-.69-.59-.02-.59.9,0,.92h0Z"/>
    <path class="cls-7" d="M97.72,29.44c4.93-1.24,10.04.07,15.03-.56.58-.07.59-1,0-.92-5.08.63-10.26-.67-15.28.59-.58.14-.33,1.04.25.89h0Z"/>
    <path class="cls-14" d="M8.79,9.92v340.16h198.43V9.92H8.79ZM193.04,335.91H22.96V24.09h170.08v311.81Z"/>
    <path class="cls-14" d="M-19.56-18.43v396.85l255.12-1.37V-18.43H-19.56ZM193.04,335.91H22.96V24.09h170.08v311.81Z"/>
  </g>
</svg>