<?xml version="1.0" encoding="UTF-8"?>
<svg xmlns="http://www.w3.org/2000/svg" xmlns:xlink="http://www.w3.org/1999/xlink" viewBox="0 0 216 360">
  <defs>
    <style>
      .cls-1 {
        fill: none;
      }

      .cls-2 {
        fill: #58595b;
      }

      .cls-3 {
        fill: #d1d3d4;
      }

      .cls-4 {
        fill: #deb5b3;
      }

      .cls-5 {
        fill: #85c556;
      }

      .cls-6 {
        fill: #bcbec0;
      }

      .cls-7 {
        fill: #79a894;
      }

      .cls-8 {
        fill: #231f20;
      }

      .cls-9 {
        fill: #6d6e71;
      }

      .cls-10 {
        fill: #fadcb4;
      }

      .cls-11 {
        fill: #97d1b8;
      }

      .cls-12 {
        fill: #f1f2f2;
      }

      .cls-13 {
        clip-path: url(#clippath-1);
      }

      .cls-14 {
        fill: #fff;
      }

      .cls-15 {
        fill: #64a8d3;
      }

      .cls-16 {
        fill: #808285;
      }

      .cls-17 {
        fill: #a85451;
      }

      .cls-18 {
        fill: #aec5d4;
      }

      .cls-19 {
        fill: #b8b475;
      }

      .cls-20 {
        fill: #e6e7e8;
      }

      .cls-21 {
        fill: #9c8364;
      }

      .cls-22 {
        fill: #99866e;
      }

      .cls-23 {
        fill: #ccbaa1;
      }

      .cls-24 {
        clip-path: url(#clippath);
      }

      .cls-25 {
        fill: #c73833;
      }
    </style>
    <clipPath id="clippath">
      <path class="cls-1" d="M-283.46,15.06v329.88c0,8.32,6.94,15.06,15.49,15.06H-82.96c8.56,0,15.49-6.74,15.49-15.06V15.06c0-8.32-6.94-15.06-15.49-15.06h-185.02c-8.56,0-15.49,6.74-15.49,15.06Z"/>
    </clipPath>
    <clipPath id="clippath-1">
      <path class="cls-1" d="M0,15.06v329.88c0,8.32,6.94,15.06,15.49,15.06h185.02c8.56,0,15.49-6.74,15.49-15.06V15.06c0-8.32-6.94-15.06-15.49-15.06H15.49C6.94,0,0,6.74,0,15.06Z"/>
    </clipPath>
  </defs>
  <g id="bkg">
    <path class="cls-9" d="M-30.13,236.3c31.4,1.64,62.86,1.11,94.29.66,31.21-.45,62.46-.82,93.62,1.12,17.46,1.09,34.89,2.92,52.14,5.88,1.06.18,2.15-.28,2.46-1.4.26-.96-.33-2.28-1.4-2.46-30.91-5.29-62.27-7.06-93.59-7.42-31.44-.36-62.88.63-94.32.73-17.74.05-35.49-.18-53.21-1.11-2.57-.13-2.57,3.87,0,4h0Z"/>
  </g>
  <g id="boarder">
    <g class="cls-24">
      <path class="cls-25" d="M-103.39,204.79c2,.12,3.91.03,5.9-.35.35-.07,1.11-.08,1.39-.31.77-.63.79.4.22-.17-.83.17-1.62-.01-2.36-.56-1.89-.97-2.29-.97-1.21,0,.17.53.98,1.26,1.31,1.73,1.27,1.82,2.39,3.8,3.31,5.83,3.78,8.3,4.93,18.14,5.32,27.17.75,17.19-4.07,32.76-16.18,45.23-5.08,5.23-.03,14.77,7.3,12.54,16.73-5.09,32.67-12.43,49.41-17.44,14.32-4.29,33.56-4.15,44.46-15.68,6.19-6.54,8.06-15.1,9.9-23.62,1.28-5.96,2.76-11.98,3.15-18.08.78-12.1-6.24-22.16-12.67-31.76-3.93,3.03-7.85,6.06-11.78,9.09,3.3,3.68,7.14,7.51,9.95,11.34.69.93,1.62,2.37,2.17,3.61.17.38-.14-.49.22.83.38,1.4.17.34.22.82.42,3.8-.38,7.73-1.03,11.46-.99,5.66-1.45,12.8-5.34,17.36-4.13,4.84-11.64,6.15-17.52,7.44-6.87,1.5-13.87,2.57-20.48,5.06-11.46,4.3-21.83,15.03-34.34,15.83,2.41,3.16,4.82,6.33,7.23,9.49.37-2.05,3.89-3.95,5.54-5.17,2.76-2.05,5.62-3.97,8.56-5.76,5.55-3.39,11.39-6.38,17.47-8.7,13.32-5.08,27.46-7.48,40.8-12.49,9.04-3.4,5.57-16.22-3.99-14.46-24.84,4.57-47.89,16.6-73.04,19.65l3.79,13.98c22.61-13.72,46.82-24.17,72.32-31.17,7.88-2.16,6.66-15.6-1.99-14.73-28.01,2.82-54.06,13.89-81.63,18.84,1.93,4.57,3.85,9.14,5.78,13.71,9.76-6.18,20.99-9.3,31.94-12.67,11.9-3.66,23.89-7,35.95-10.04,8.43-2.13,6.27-14.35-1.99-14.73-18.7-.87-37.22,2.12-55.61,5.15,1.33,4.82,2.66,9.64,3.99,14.46,23.83-6.77,48.18-11.31,72.52-15.79-1.33-4.82-2.66-9.64-3.99-14.46-15.77,3.1-31.54,6.2-47.31,9.3-12.09,2.38-29.04,2.84-35.93,14.88,4.66,1.26,9.32,2.52,13.98,3.79-.81-7.8-1.59-15.6-2.42-23.4-.67-6.29-1.37-12.51-3.94-18.36-2.44-5.53-6.77-10.33-13.38-9.04-4.98.97-8.5,4.91-13,6.97-8.21,3.75-2.02,15.16,5.78,13.71,15.35-2.86,31.5-.51,46.99-.15,7.13.17,14.35.08,21.37-1.32,5.8-1.16,13.5-3.91,15.51-10.06,1.41-4.31-2.47-9.96-7.23-9.49l-.32.03c-5.57.55-9.46,5.97-6.48,11.29,2.45,4.37,6.93,9.12,12.43,7.75,2.41-.6,4.12-2.15,5.53-4.11.27-.37.57-.73.77-1.14,1.26-2.65,1.56.38-2.55,1.24h-3.99c-3.22-.73-4.2-2.31-2.96-4.73-.73.77-1.5,1.51-2.29,2.22-1.51,1.35-3.11,2.52-4.82,3.61-3.52,2.23-7.26,4.02-11.2,5.38-9.46,3.26-19.42,4.52-29.31,5.69.66,4.91,1.33,9.82,1.99,14.73,19.02-3.15,38.04-6.3,57.07-9.45,3.95-.65,6.29-5.66,5.24-9.23-1.8-6.1-4.38-12.02-7.97-17.29-3.02-4.43-6.89-9.98-12.58-10.89-4.63-.74-8.5,2.4-9.74,6.77-.45,1.58-.58,3.31-.7,4.94-.06.71-.15,1.54-.11,2.26.17,2.61-2.02,1.74,2.01-3.39h10.61l1.72,2.86c-2.7-7.62-14.93-6.91-14.73,1.99-.02-.8,4.96-3.55,3.02-3.46-.9.04-2.3.99-3.06,1.57-1.41,1.08-2.39,2.35-3.06,4-.45,1.11-.89,2.59-.81,3.81.26,3.91,2.56-2.89,2.81-2.29-.04-.1-7.91,2.07-8.27,2.17-10.74,2.72-21.57,5.09-32.46,7.16l9.23,5.24c-1.74-8.25-3.48-16.5-5.22-24.75-2.41,3.16-4.82,6.33-7.23,9.49,17.62-.61,35.14-2.26,52.58-4.78-2.82-3.67-5.65-7.34-8.47-11.02-3.87,6.83-8.43,13.19-14.11,18.65-2.2,2.11-4.68,4.09-7.8,4.52-1.66.23-7.87-.1-8.65-1.83l.76,5.78c-1.31,1.82-1.25,1.92.17.28l1.14-1.12c1.15-1.11,2.35-2.19,3.6-3.18,2.63-2.09,5.52-3.88,8.49-5.44,5.84-3.09,12.17-4.85,18.7-5.78l-7.3-12.54c-6.66,6.34-16.63,7.77-23.64,13.96-5.42,4.79-.53,12.1,5.3,12.8,5.16.62,10.31,1.24,15.47,1.86l-1.99-14.73c-7.34,2.52-14.75,4.78-22.25,6.79-9.32,2.49-5.36,16.97,3.99,14.46,7.5-2.01,14.91-4.27,22.25-6.79,8.37-2.87,6.28-13.74-1.99-14.73-5.16-.62-10.31-1.24-15.47-1.86,1.77,4.27,3.54,8.54,5.3,12.8,6.94-6.13,16.75-7.41,23.64-13.96,5.98-5.7-.51-13.5-7.3-12.54-10.38,1.47-20.53,5.4-29.1,11.48-3.97,2.82-8.26,6.02-11.24,9.92-3.96,5.18-2.56,11.33,2.85,14.83,8.92,5.76,21.24,6.18,30.1.2,9.34-6.32,16.56-16.59,22.04-26.26,3.52-6.22-2.26-11.91-8.47-11.02-16.11,2.33-32.33,3.68-48.59,4.24-5.08.17-8.26,4.64-7.23,9.49,1.74,8.25,3.48,16.5,5.22,24.75.88,4.19,5.44,5.96,9.23,5.24,13.55-2.57,27.58-5.07,40.73-9.32,2.24-.72,4.24-1.58,5.81-3.4,1.14-1.32,1.81-2.67,2.2-4.36l.27-1.99c.17-2.7-1.03-1.87-3.61,2.5,5.22.07,7.54-6.88,7.45-10.85-4.91.66-9.82,1.33-14.73,1.99.56,1.6,1.1,2.44,2.14,3.76,2.29,2.94,8.32,2.92,10.61,0,1.8-2.3,2.18-4.08,2.38-6.9.06-.83.15-1.74.12-2.57.09-.96.09-1.06.01-.3.83-2.85-1.02-1.7-5.57,3.45l-3.79-1.02c5.75,2.77,9.2,12.67,10.87,18.32,1.75-3.08,3.49-6.15,5.24-9.23-19.02,3.15-38.04,6.3-57.07,9.45-8.25,1.37-6.42,15.72,1.99,14.73,19.6-2.31,39.88-5.13,55.33-18.54,6.17-5.36,10.14-14.42,2.87-21.04-2.76-2.52-6.84-3-10.03-1-1.42.89-2.56,2.22-3.42,3.65-.18.31-.46.64-.59.98-.69,1.91-2.9-.22,2.66-1.64h3.99c2.86,2.51,3.48,2.7,1.86.57-.27-1.38-.71-1.86-1.34-1.42-2.16,3.76-4.32,7.52-6.48,11.29l.32-.03c-2.41-3.16-4.82-6.33-7.23-9.49,1.45-4.42,2.99-3.25-.06-1.82-.03.01-1.89.67-2.51.83-2.52.69-5.07,1.01-7.67,1.19-6.59.45-13.23.18-19.82-.1-14.45-.62-29.01-1.72-43.33.95l5.78,13.71c1.6-.73,3.05-1.61,4.5-2.61.85-.58,3.57-1.85,4.03-2.71,1.48-.72-.04-1.28-4.55-1.67.49.78.94,1.59,1.33,2.43.83,1.91,1.27,4.07,1.65,6.1,1.8,9.59,2.19,19.61,3.19,29.32.72,6.96,9.99,10.76,13.98,3.79,2.27-3.96,8.43-4.34,12.48-5.14,6.76-1.34,13.52-2.66,20.27-3.99,13.84-2.72,27.68-5.44,41.51-8.16,9.49-1.87,5.44-16.2-3.99-14.46-24.34,4.48-48.69,9.02-72.52,15.79-9.47,2.69-5.36,16,3.99,14.46,17.11-2.81,34.23-5.42,51.62-4.61-.66-4.91-1.33-9.82-1.99-14.73-12.69,3.2-25.29,6.73-37.78,10.61-11.54,3.59-23.41,7.11-33.7,13.62-7.44,4.71-2.46,15.19,5.78,13.71,26.18-4.71,51.08-15.63,77.65-18.31-.66-4.91-1.33-9.82-1.99-14.73-26.67,7.32-52.26,18.33-75.91,32.68-5.84,3.55-4.01,14.92,3.79,13.98,26.61-3.23,50.8-15.36,77.03-20.19l-3.99-14.46c-15.57,5.85-32.07,8.53-47.37,15.19-7.1,3.09-13.89,6.85-20.25,11.27-5.72,3.98-13.88,8.72-15.23,16.14-.81,4.46,1.98,9.83,7.23,9.49,16.12-1.03,26.88-12.91,41.64-17.5,15.21-4.73,34.92-4.19,44.42-19.3,4-6.35,5.08-13.96,6.31-21.21.85-5,1.79-10.14,1.22-15.22-1.21-10.75-9.99-18.48-16.83-26.11-5.63-6.28-16.54,1.98-11.78,9.09,5.25,7.84,11.21,15.63,10.62,24.19-.35,5.12-1.85,10.49-2.95,15.63-1.41,6.56-2.46,13.89-8.55,17.8-5.3,3.41-12.14,4.15-18.19,5.34-7.6,1.5-15.08,3.48-22.43,5.92-14.72,4.88-28.93,11.14-43.79,15.66l7.3,12.54c15.98-16.45,22.25-37.83,20.27-60.45-1.04-11.86-3.06-24.28-9.46-34.55-2.26-3.62-5.37-8.47-9.8-9.63-3.3-.87-6.44.63-9.32.46-9.64-.58-9.61,14.42,0,15h0Z"/>
      <path class="cls-8" d="M-113.61,299.52c15.96-4.42,31.82-9.24,47.46-14.7,13.9-4.85,27.61-10.22,41.11-16.07,6.71-2.91,13.37-5.93,19.98-9.04,3.43-1.61,6.84-3.25,10.25-4.9.79-.38,1.58-.77,2.37-1.16.87-.43,1.96-.79,2.75-1.35,1.13-.81,1.04-3.13,1.22-4.41,1-7.08,1.64-14.22,1.95-21.37s.33-14.15-.56-21.15c-1.01-7.89-2.99-15.96-6.97-22.9-1.28-2.23-2.98-4.39-5.83-4.03-2.26.29-4.18,1.76-6.34,2.38-1.28.37-2.56.44-3.87.14-1.64-.37-2.65,1.84-1.16,2.74,2.54,1.53,5.3,2.61,8.2,3.21,2.36.49,4.79.68,7.14,1.23,2.3.54,4.31,1.55,5.96,3.26,2.37,2.44,4.04,5.73,5.5,8.77,5.9,12.27,6.85,27.09-.34,39.03-3.54,5.87-8.84,10.75-15.28,13.21l1.46,2.51c10.75-10.63,17.55-25.29,17.92-40.48.11-4.54.14-9.95-3.25-13.44-1.31-1.36-2.98-2.36-4.56-3.36-2.31-1.47-4.59-2.98-6.71-4.72-3.27-2.68-6.48-5.15-10.46-6.7-3.92-1.53-8.29-1.93-12.3-.53-1.81.63-1.03,3.53.8,2.89,6.87-2.41,13.81,1.35,18.96,5.72,2.14,1.81,4.39,3.47,6.75,4.99,1.49.97,3.16,1.9,4.5,2.99,3.05,2.49,3.27,6.41,3.29,10.22.04,7.02-1.3,13.94-3.87,20.46-2.93,7.44-7.5,14.21-13.18,19.82-1,.99.01,3.06,1.46,2.51,12.63-4.82,20.88-17.18,22.37-30.38.85-7.57-.47-15.34-3.26-22.4-1.41-3.55-3.14-6.98-5.25-10.17-1.63-2.47-3.71-4.71-6.43-5.98-2.56-1.19-5.3-1.51-8.06-1.94-3.5-.54-6.78-1.49-9.84-3.33l-1.16,2.74c2.39.54,4.7.24,6.96-.68,1.42-.58,3.12-1.77,4.62-1.8,1.89-.03,3.1,3.31,3.82,4.76,1.53,3.08,2.64,6.35,3.51,9.67,3.06,11.64,2.98,23.76,2.2,35.69-.42,6.39-1.08,12.77-2.1,19.1l.69-.9c-14.76,7.27-29.69,14.21-44.9,20.49-15.56,6.42-31.4,12.14-47.43,17.27-10.23,3.27-20.53,6.3-30.87,9.16-1.86.51-1.07,3.41.8,2.89h0Z"/>
    </g>
    <g class="cls-13">
      <path class="cls-16" d="M33.41,51.79c26.18-.03,52.37-.05,78.55-.08,12.93-.01,25.85-.03,38.78-.04,6.63,0,13.26-.01,19.89-.02h8.95c1.66-.01,3.31-.01,4.97-.01h1.99c5.27.35,3.09-1.48-6.54-5.51-.77-2.86-1.55-5.72-2.32-8.58l.06,1.18c.77-2.86,1.55-5.72,2.32-8.58l-.52,1.03c2.03-2.03,4.07-4.07,6.1-6.1l5.49-1.39c-1.28.04-2.57.08-3.85.12-1.6.05-3.21.1-4.81.14-3.21.09-6.42.18-9.63.27-7.07.19-14.14.37-21.21.58-13.81.41-27.62.92-41.41,1.79-13.43.85-26.84,2.04-40.19,3.76-13.58,1.76-28.18,3.06-41.3,7.16-8.6,2.69-15.07,9.02-17.52,17.8-1.8,6.46-2.44,13.51-3.45,20.14-2.25,14.83-4.16,29.77-4.63,44.77s.82,28.45,2.94,42.63c2.06,13.78,4.27,24.11,4.96,36.83.84,15.53-.18,31.1.07,46.64s1.28,31.11,2.99,46.58c1.06,9.59,6.95,16.38,17,17,53.48,3.3,107.03,5.21,160.61,5.72,8.89.08,17.41-7.88,17-17s-7.47-16.91-17-17c-53.58-.51-107.13-2.42-160.61-5.72,5.67,5.67,11.33,11.33,17,17-2.14-19.35-3.18-38.79-3.04-58.26s.2-39.44-2.77-59.33c-2.84-18.97-5.66-33.44-5.2-53.17.22-9.63,1.08-19.23,2.23-28.79.43-3.61.24-2.02.14-1.22.17-1.28.35-2.55.54-3.82.28-1.91.56-3.82.86-5.73.79-5.08,1.54-10.18,2.52-15.23.07-.38.54-3.02.64-3l-1.13,1.79c-.56,1.48-1.6,2.47-3.11,2.97-4.32,2.59,1.05.42,2.6.09,5.01-1.07,10.05-2.03,15.11-2.89,10.06-1.72,15.84-2.47,25.93-3.52,18.84-1.96,37.76-2.95,56.68-3.62,9.64-.34,19.28-.6,28.92-.86s19.95.88,28.87-1.58c17.13-4.72,18.11-29.26,2.53-36.5-9.87-4.58-23.03-2.59-33.72-2.58-44.41.04-88.83.09-133.24.13-8.89,0-17.41,7.81-17,17s7.47,17.01,17,17h0Z"/>
      <path class="cls-16" d="M22.89,219.16c29.26.86,58.53,1.08,87.8.62,14.47-.23,28.93-.62,43.39-1.18,7.23-.28,14.46-.6,21.68-.96,3.61-.18,7.23-.37,10.84-.57,1.97-.11,3.94-.22,5.91-.34,1.43-.08,6.41.65,1.97-.51-2.5-1.46-5-2.91-7.5-4.37l.84.83c-1.66-4.01-3.32-8.01-4.98-12.02.61,5.52-.36,11.53-.66,17.08s-.3,11.06-.94,16.5c.77-2.86,1.55-5.72,2.32-8.58l-.42.85c2.03-2.03,4.07-4.07,6.1-6.1l-1.02.5c2.86-.77,5.72-1.55,8.58-2.32-.33,0-4.55-.27-2.21.02-1.83-.23-3.67-.62-5.48-.96-3.41-.65-6.81-1.34-10.23-1.92-7.85-1.33-15.76-2.37-23.68-3.14-14.45-1.42-28.97-1.82-43.49-1.84-29.15-.05-58.31,1.37-87.43-.53-6.62-.43-15.4,5.54-16.39,12.48-.78,5.43-1.52,10.86-1.94,16.33-.4,5.13-1.19,11.09.35,16.08,2.46,7.93,9.74,13.25,18.01,13.48,4.64.13,9.66-1.33,14.23-2.07,2.14-.31,2.52-.37,1.16-.18.95-.12,1.9-.23,2.85-.34,2.22-.25,4.44-.47,6.66-.66,4.45-.38,8.91-.65,13.38-.85,9.27-.43,18.56-.56,27.84-.79,19.37-.48,38.27-2.47,57.47-5-1.61.21,3.48-.42,4.21-.51,2.27-.26,4.53-.5,6.81-.69,4.29-.36,8.61-.64,12.92-.5,1.14.03,2.27.11,3.4.22-1.72-.21-1.57-.11.47.28,4.27,1.09-1.7-.16,1.7.61,1.61,1.06,1.61,1.01,0-.13,1.32,1.41,1.34,1.33.08-.23.94,1.69.95,1.6.03-.28-.08-2.32-.19-2.55-.33-.7.77-2.86,1.55-5.72,2.32-8.58l-.55,1.06c2.03-2.03,4.07-4.07,6.1-6.1,1.54-.37,3.09-.73,4.63-1.1-1.32.02-2.64.05-3.96.07-1.32.02-2.64.05-3.96.07-3.3.06-6.6.12-9.9.18-7.16.13-14.32.27-21.48.35-13.63.16-27.26.14-40.88-.52-25.54-1.24-51.34-7.52-76.95-5.1-6.74.64-13.92,1.44-20.38,3.6-11.63,3.89-17.98,14.14-15.81,26.27,2.51,14.04,11.49,27.35,26.37,29.77,13.09,2.13,26.34.62,39.46-.4,13.61-1.06,27.21-2.17,40.78-3.62,14.42-1.54,28.82-3.4,43.11-5.88,6.33-1.1,12.62-2.4,18.92-3.69,3.08-.63,6.16-1.3,9.28-1.72-.81.11-2.47.19,1.06-.08,2.17-.17,4.33-.28,6.5-.24.57.01,4.46.22,1.95-.07,1.27.15,2.53.69,3.79.83,1.64.18-2.18-2.12.29.14-1-.92-1.71-1.44-2.39-2.6-2.7-4.59-.75-6.66,1.17-10.1l1.04-.42c-1.05.34-2.12.61-3.21.82-4.71,1.02,2.82-.03-2.56.28-6.36.36-12.67.29-19.03-.23-7.27-.6-12.33-1.36-18.29-2.17-26.81-3.62-53.85-6.26-80.92-4.5-13.86.9-28.53,2.25-41.9,6.2-8.41,2.48-16.03,8.21-18.29,17.08-2.7,10.59,3.07,21.02,12.81,25.45,7.38,3.36,15.34,4.61,23.42,4.01,4.35-.32,8.68-1.02,13-1.63,3.79-.53,4.54-.64,9.13-1.21,14.97-1.84,30-3.2,45.06-4.09,15.06-.89,30.14-1.29,45.23-1.21,7.8.04,15.6.19,23.4.51,3.79.16,7.59.36,11.37.66,1.26.1,2.52.21,3.78.33,1.26.12,2.52.25,3.77.4,2.14.26,2.51.3,1.13.13,8.76,1.25,18.7-2.14,20.91-11.87,1.83-8.03-2.46-19.57-11.87-20.91-39.83-5.68-81.3-3.94-121.26-.26-10.55.97-21.08,2.21-31.58,3.62-2.7.36-5.4.74-8.11,1.11-.47.06-3.31.37-.55.07-1.14.12-2.27.26-3.41.34-1.96.15-4.01-.09-5.94.12-1.77.19-.2.06.38.16-.23-.04-4.04-.55-2.72-.57,6.49-.1,5.55,21.13-.1,20.23-1.11-.18.39.01,1.04-.1,2.5-.43,4.98-1.12,7.47-1.6,2.18-.43,4.38-.81,6.57-1.17.28-.04,4.12-.64,2.45-.4-.92.13,3.35-.41,3.41-.42,9.48-1.07,19.03-1.54,28.57-1.57,18.83-.05,39.53,1.86,56.97,4.16,3.7.49,10.57,1.46,15.55,2.07,5.06.62,10.14,1.15,15.23,1.38,9.65.45,20.53.35,29.67-3.04,12.8-4.74,21.42-16.25,19.55-30.17-1.55-11.51-11.7-19.59-22.51-22.19-20.56-4.93-41.87,2.62-62.11,5.96-11.07,1.83-18.66,2.78-30.23,4.01-11.31,1.21-22.64,2.18-33.98,3.08-10.73.86-21.53,2.05-32.3,2.04-2.42,0-4.84-.26-7.26-.27-2.48,0,2.51.79.18-.03-1.87-.67,1.29,1.2,1.74,1.54-.66-.5-2.49-1.53,0,.13-.92-.62-.9-1.89-.14.1-.35-.92-.66-1.86-.95-2.79l-.43-1.4c-.71-3.02-.74-2.08-.08,2.81-1.46,2.5-2.91,5-4.37,7.5-1.39.68-2.78,1.37-4.17,2.05,1.04-.33,2.09-.63,3.15-.87,1.19-.3,2.4-.56,3.61-.8-.58.12,5.35-.87,3.19-.58s3.81-.33,3.22-.29c6.15-.47,12.33-.4,18.48-.04,12.46.72,24.81,2.64,37.23,3.88,26.18,2.62,52.53,2.11,78.8,1.64,14.93-.27,39.24,2.95,41.97-17.39,2.11-15.7-9.64-28.63-23.73-33.55-12.26-4.28-26.34-2.43-38.92-.83-14.15,1.8-24.85,3.57-39.56,4.37-14.07.77-28.17.76-42.24,1.29-7.02.27-14.03.67-21.02,1.37-4.68.47-9.35,1.07-14.01,1.76-1.26.19-2.52.38-3.78.58-1.26.21-2.52.43-3.77.66-3.83.63-2.49.7,4.04.19,2.5,1.46,5,2.91,7.5,4.37l-.67-.7c1.46,2.5,2.91,5,4.37,7.5.51,3.47.56-2.37.57-2.48.08-1.52.18-3.04.29-4.56s.25-3.04.41-4.55c.05-.51.7-5.46.31-2.74-5.46,4.16-10.93,8.32-16.39,12.48,27.18,1.77,54.4.66,81.6.54,13.23-.06,26.48.12,39.69,1.03,13.64.94,22.82,2.54,36.32,5,8.17,1.48,16.89,3.39,24.51-1.01,9.53-5.5,8.97-16.68,9.47-26.21.35-6.46.87-12.94,1.04-19.41.31-12.54-7.75-21.55-20.45-21.66-13.07-.11-26.35,1.46-39.41,1.99-13.8.55-27.61.96-41.42,1.21-30.91.57-61.83.38-92.73-.53-8.9-.26-17.4,8.01-17,17,.42,9.43,7.47,16.72,17,17h0Z"/>
      <path class="cls-9" d="M51.64,15.56c-.54,21.39-1.15,42.78-1.75,64.17-.61,21.63-1.19,43.27-1.67,64.91s-.84,43.66-.98,65.49-.07,43.3.32,64.95,1.08,42.69,2.21,64.02c.14,2.65.29,5.31.44,7.96s4.15,2.58,4,0c-1.24-21.35-2.03-42.72-2.5-64.09s-.6-43.25-.51-64.87.41-43.66.86-65.48,1.01-43.32,1.61-64.98c.59-21.36,1.22-42.72,1.77-64.08.07-2.66.14-5.32.2-7.97s-3.94-2.57-4,0h0Z"/>
      <path class="cls-9" d="M111.04,4.67c-.55,22.44-.89,44.88-1.13,67.32s-.38,44.71-.52,67.06c-.14,22.35-.28,44.7-.53,67.05s-.59,44.86-1.14,67.28-1.29,44.69-2.34,67.02c-.13,2.74-.26,5.48-.4,8.22-.13,2.57,3.87,2.57,4,0,1.13-22.41,1.94-44.84,2.54-67.27.6-22.34.98-44.69,1.24-67.03s.42-44.7.57-67.05.27-44.87.49-67.31c.22-22.36.53-44.72,1.02-67.07.06-2.74.12-5.49.19-8.23.06-2.57-3.94-2.57-4,0h0Z"/>
      <path class="cls-9" d="M172.78,6.98c-.03,22.12-.18,44.24-.46,66.35-.28,22.12-.68,44.23-1.2,66.35s-1.18,44.39-1.96,66.58c-.78,22.11-1.67,44.21-2.7,66.3-1.02,22.1-2.17,44.18-3.44,66.27-.16,2.74-.32,5.48-.48,8.22-.15,2.57,3.85,2.56,4,0,1.3-22.08,2.48-44.17,3.54-66.26,1.05-22.09,1.98-44.19,2.79-66.3s1.49-44.38,2.05-66.57c.56-22.11.99-44.23,1.3-66.34.31-22.12.49-44.24.55-66.35,0-2.74.01-5.49.02-8.23,0-2.57-4-2.58-4,0h0Z"/>
      <path class="cls-9" d="M-7.9,260.72c31.4,1.64,62.86,1.11,94.29.66,31.21-.45,62.46-.82,93.62,1.12,17.46,1.09,34.89,2.92,52.14,5.88,1.06.18,2.15-.28,2.46-1.4.26-.96-.33-2.28-1.4-2.46-30.91-5.29-62.27-7.06-93.59-7.42-31.44-.36-62.88.63-94.32.73-17.74.05-35.49-.18-53.21-1.11-2.57-.13-2.57,3.87,0,4h0Z"/>
      <path class="cls-9" d="M6.93,213.12c30.1-.24,60.21-.22,90.31.05,29.94.27,59.87.79,89.8,1.57,16.96.44,33.92.96,50.87,1.56,2.57.09,2.57-3.91,0-4-30.09-1.06-60.18-1.88-90.28-2.43-29.93-.55-59.87-.85-89.81-.9-16.96-.03-33.93.03-50.89.16-2.57.02-2.58,4.02,0,4h0Z"/>
      <path class="cls-9" d="M6.94,145.74c31.38,1.13,62.78.74,94.16.44,31.35-.3,62.73-.5,94.05,1.04,17.52.86,35.02,2.27,52.42,4.5,1.07.14,2-1.02,2-2,0-1.19-.92-1.86-2-2-31.08-3.97-62.42-5.33-93.73-5.65-31.39-.33-62.78.36-94.17.43-17.58.04-35.16-.12-52.73-.75-2.57-.09-2.57,3.91,0,4h0Z"/>
      <path class="cls-9" d="M12.28,76.01c27.81.28,55.61.39,83.42.34,27.81-.05,55.61-.27,83.42-.64,15.65-.21,31.3-.48,46.95-.79,2.57-.05,2.58-4.05,0-4-27.8.56-55.61.96-83.41,1.2-27.81.24-55.61.31-83.42.21-15.65-.05-31.3-.16-46.95-.31-2.57-.03-2.58,3.97,0,4h0Z"/>
      <path class="cls-9" d="M31.65-19.11c-.54,21.39-1.15,42.78-1.75,64.17-.61,21.63-1.19,43.27-1.67,64.91-.48,21.83-.84,43.66-.98,65.49s-.07,43.3.32,64.95,1.08,42.69,2.21,64.02c.14,2.65.29,5.31.44,7.96s4.15,2.58,4,0c-1.24-21.35-2.03-42.72-2.5-64.09-.47-21.62-.6-43.25-.51-64.87s.41-43.66.86-65.48,1.01-43.32,1.61-64.98c.59-21.36,1.22-42.72,1.77-64.08.07-2.66.14-5.32.2-7.97s-3.94-2.57-4,0h0Z"/>
      <path class="cls-9" d="M88.81-29.99c-.54,22.44-.74,44.88-.73,67.32s.2,44.71.43,67.06.49,44.7.63,67.05.15,44.86-.13,67.28c-.28,22.35-.85,44.69-1.86,67.02-.12,2.74-.26,5.48-.39,8.22-.13,2.57,3.87,2.57,4,0,1.12-22.41,1.79-44.84,2.14-67.27.35-22.34.39-44.69.29-67.03s-.35-44.7-.59-67.05c-.24-22.44-.46-44.87-.51-67.31-.05-22.36.08-44.72.54-67.07.06-2.74.12-5.49.18-8.23.06-2.57-3.94-2.57-4,0h0Z"/>
      <path class="cls-9" d="M150.55-27.68c-.03,22.12-.03,44.24-.06,66.35-.03,22.12-.09,44.23-.25,66.35-.15,22.19-.4,44.39-.8,66.58-.4,22.1-.94,44.21-1.7,66.3s-1.72,44.19-2.96,66.27c-.15,2.74-.31,5.48-.47,8.22-.15,2.57,3.85,2.56,4,0,1.3-22.07,2.33-44.16,3.14-66.26.81-22.09,1.4-44.19,1.84-66.3s.71-44.38.89-66.57.26-44.23.3-66.34c.04-22.12.04-44.24.06-66.35,0-2.74,0-5.49,0-8.23,0-2.57-4-2.58-4,0h0Z"/>
      <path class="cls-9" d="M-15.3,172.18c30.1-.24,60.21-.22,90.31.05,29.94.27,59.87.79,89.8,1.57,16.96.44,33.92.96,50.87,1.56,2.57.09,2.57-3.91,0-4-30.09-1.06-60.18-1.88-90.28-2.43-29.93-.55-59.87-.85-89.81-.9-16.96-.03-33.93.03-50.89.16-2.57.02-2.58,4.02,0,4h0Z"/>
      <path class="cls-9" d="M-15.66,96.51c31.38,1.13,62.78.74,94.16.44,31.35-.3,62.73-.5,94.05,1.04,17.52.86,35.02,2.27,52.42,4.5,1.07.14,2-1.02,2-2,0-1.19-.92-1.86-2-2-31.08-3.97-62.42-5.33-93.73-5.65-31.39-.33-62.78.36-94.17.43-17.58.04-35.16-.12-52.73-.75-2.57-.09-2.57,3.91,0,4h0Z"/>
      <path class="cls-9" d="M-9.95,41.35c27.81.28,55.61.39,83.42.34,27.81-.05,55.61-.27,83.42-.64,15.65-.21,31.3-.48,46.95-.79,2.57-.05,2.58-4.05,0-4-27.8.56-55.61.96-83.41,1.2-27.81.24-55.61.31-83.42.21-15.65-.05-31.3-.16-46.95-.31-2.57-.03-2.58,3.97,0,4h0Z"/>
      <path class="cls-9" d="M73.3-69.51c-.28,11.2-.61,22.4-.96,33.6-.38,12.21-.79,24.42-1.21,36.63-.44,13.08-.9,26.15-1.34,39.23s-.91,27.26-1.34,40.88-.85,27.84-1.22,41.76-.7,27.76-.97,41.65-.48,27.44-.61,41.16-.18,26.46-.12,39.69c.05,12.42.2,24.84.49,37.26.27,11.48.65,22.95,1.22,34.41.13,2.62.27,5.23.42,7.85s4.15,2.58,4,0c-.65-11.18-1.1-22.36-1.42-33.56-.35-12.2-.55-24.4-.65-36.6-.11-13.07-.1-26.14-.01-39.21.09-13.62.27-27.25.51-40.87s.55-27.83.9-41.75.75-27.77,1.17-41.65c.42-13.72.86-27.45,1.32-41.17.44-13.24.9-26.47,1.35-39.71.42-12.43.85-24.86,1.25-37.29.37-11.48.72-22.97,1.03-34.45.07-2.62.14-5.24.2-7.86s-3.94-2.57-4,0h0Z"/>
      <path class="cls-9" d="M131.57-80.4c-.29,11.81-.53,23.63-.76,35.44-.24,12.77-.46,25.55-.66,38.33-.22,13.61-.42,27.22-.61,40.83s-.4,28.14-.6,42.21-.42,28.83-.64,43.24-.46,28.89-.72,43.33c-.26,14.16-.53,28.31-.84,42.47s-.63,27.51-1.01,41.27c-.36,12.98-.76,25.96-1.22,38.94-.43,12.08-.91,24.16-1.48,36.23-.13,2.77-.26,5.55-.4,8.32-.13,2.57,3.87,2.57,4,0,.59-11.8,1.1-23.6,1.55-35.41.48-12.77.9-25.53,1.28-38.3.4-13.6.75-27.21,1.06-40.81s.61-28.13.88-42.2.52-28.82.75-43.24c.23-14.44.45-28.89.66-43.33.21-14.16.41-28.32.61-42.48.2-13.76.4-27.52.61-41.28.2-12.99.41-25.97.64-38.96.22-12.09.46-24.17.73-36.26.06-2.78.13-5.55.2-8.33.06-2.57-3.94-2.57-4,0h0Z"/>
      <path class="cls-9" d="M188.82-78.08c-.03,24.06-.03,48.13-.06,72.19-.03,26.48-.09,52.96-.24,79.45s-.39,54.77-.79,82.15c-.38,26.66-.91,53.32-1.69,79.97-.71,24.31-1.63,48.62-2.96,72.91-.15,2.72-.3,5.44-.46,8.16-.15,2.57,3.85,2.56,4,0,1.41-24.02,2.39-48.06,3.15-72.1.84-26.46,1.4-52.93,1.82-79.4.43-27.38.7-54.77.88-82.15.17-26.67.25-53.34.29-80.01.04-24.33.04-48.66.06-72.99,0-2.73,0-5.45,0-8.18,0-2.57-4-2.58-4,0h0Z"/>
      <path class="cls-9" d="M8.14,191.2c31.4,1.64,62.86,1.11,94.29.66,31.21-.45,62.46-.82,93.62,1.12,17.46,1.09,34.89,2.92,52.14,5.88,1.06.18,2.15-.28,2.46-1.4.26-.96-.33-2.28-1.4-2.46-30.91-5.29-62.27-7.06-93.59-7.42-31.44-.36-62.88.63-94.32.73-17.74.05-35.49-.18-53.21-1.11-2.57-.13-2.57,3.87,0,4h0Z"/>
      <path class="cls-9" d="M22.97,119.56c30.1-.24,60.21-.22,90.31.05,29.94.27,59.87.79,89.8,1.57,16.96.44,33.92.96,50.87,1.56,2.57.09,2.57-3.91,0-4-30.09-1.06-60.18-1.88-90.28-2.43-29.93-.55-59.87-.85-89.81-.9-16.96-.03-33.93.03-50.89.16-2.57.02-2.58,4.02,0,4h0Z"/>
      <path class="cls-9" d="M22.98,60.68c31.38,1.13,62.78.74,94.16.44,31.35-.3,62.73-.5,94.05,1.04,17.52.86,35.02,2.27,52.42,4.5,1.07.14,2-1.02,2-2,0-1.19-.92-1.86-2-2-31.08-3.97-62.42-5.33-93.73-5.65-31.39-.33-62.78.36-94.17.43-17.58.04-35.16-.12-52.73-.75-2.57-.09-2.57,3.91,0,4h0Z"/>
      <path class="cls-9" d="M-1.62,287.22c27.66.4,55.33.8,82.99-.04,27.43-.83,54.71-3.61,82.08-5.35,15.46-.99,30.96-1.55,46.45-1.02,2.57.09,2.57-3.91,0-4-27.56-.94-55.05,1.6-82.49,3.75-27.41,2.14-54.82,3.13-82.31,3.13-15.57,0-31.15-.23-46.72-.46-2.57-.04-2.58,3.96,0,4h0Z"/>
      <path class="cls-9" d="M-4.29,306.63c30.46.52,60.92.61,91.38.27,30.46-.34,60.91-1.12,91.35-2.32,16.96-.67,33.96-1.5,50.92-.33,2.57.18,2.56-3.82,0-4-15.14-1.04-30.32-.5-45.47.11-15.12.61-30.24,1.14-45.37,1.55-30.45.83-60.91,1.22-91.37,1.19-17.14-.02-34.29-.18-51.43-.47-2.57-.04-2.58,3.96,0,4h0Z"/>
      <path class="cls-17" d="M187.88,53.28c-21.14,2.08-42.32,3.56-63.54,4.43,1.3,3.13,2.59,6.26,3.89,9.39,2.15-1.94,5.42-1.78,8.13-1.88,3.5-.13,7.01-.19,10.52-.22,7.02-.05,14.03.12,21.04.44v-11c-18.07,1.27-36.08-1.68-54.15-.81-8.54.41-16.82,2.44-25.3,3.15-9.1.76-18.29.01-27.42.13-6.92.09-17.14-1.22-22.86,3.47-5.38,4.4-5.08,11.75-5.1,18.06-.07,18.71.15,37.41.65,56.11.57,21.32,1.52,42.63,2.81,63.93,2.32-1.77,4.64-3.54,6.96-5.3l-.82-.34c-1.87-.76-3.95.24-5.35,1.41-3.65,3.06-3.42,9.8-3.44,14.06-.04,6.67.1,13.32,1.27,19.91s10.4,4.37,10.8-1.46c.46-6.63-1.52-13.18-1.06-19.81h-11c.73,19.77,1.45,39.53,2.18,59.3.27,7.47-.71,17.15,8.86,18.45,4.61.62,9.63.11,14.28.13,4.94.02,9.87.04,14.81.07,39.49.18,78.99.36,118.48.54,7.08.03,7.09-10.97,0-11-35.87-.16-71.75-.33-107.62-.49-8.89-.04-17.77-.08-26.66-.12-1.97,0-3.95-.02-5.92-.03-1.32,0-2.63-.01-3.95-.02-2.28-.25-2.61-.12-.99.37-.69-1.26-.17-4.56-.22-5.93-.08-2.31-.17-4.61-.25-6.92-.67-18.12-1.33-36.24-2-54.36-.26-7.12-10.51-7.03-11,0-.46,6.63,1.52,13.18,1.06,19.81,3.6-.49,7.2-.97,10.8-1.46-.86-4.85-.88-9.86-.88-14.77,0-1.92-.12-3.9.04-5.81.05-.58-.02-1.21.11-1.79.42-1.85,2.33-2.79.08-.9-1.78.47-3.57.94-5.35,1.41l.82.34c3.24,1.32,7.16-2.03,6.96-5.3-2.07-34.07-3.24-68.19-3.44-102.32-.05-7.9-.86-16.37.09-24.22.5-4.11,3.06-3.58,6.64-3.74,4.02-.18,8.05-.28,12.07-.31,8.51-.06,17.07.6,25.56-.11,7.86-.66,15.54-2.54,23.41-3.05,18.69-1.2,37.34,2.02,56.04.7,7.03-.49,7.13-10.67,0-11-8.92-.41-17.85-.55-26.78-.36-7.43.16-14.86-.02-20.69,5.24-3.5,3.15-.78,9.58,3.89,9.39,21.22-.87,42.41-2.35,63.54-4.43,6.98-.69,7.05-11.69,0-11h0Z"/>
      <path class="cls-3" d="M186.33,57.24c.27,19.08.53,38.16.8,57.24l.23,16.43h5c-1.1-13.96-2.17-28.03-.41-41.99h-5c-.28,22.49.04,44.99.97,67.47.27,6.39.58,12.77.95,19.15.83-.83,1.67-1.67,2.5-2.5-5.19.1-5.07,6.2-5.06,9.91.02,5.38.04,10.75.09,16.13.1,10.58.33,21.17.87,31.74.31,6.03.73,12.05,1.28,18.06.12,1.34,1.06,2.5,2.5,2.5,1.33,0,2.53-1.14,2.5-2.5-.38-16.95-.77-33.89-1.15-50.84-.38-17.03-.77-34.06-1.15-51.09-.22-9.55-.43-19.11-.65-28.66-.07-3.22-4.89-3.22-5,0-.67,20.13,1.72,40.16,4.13,60.11.61-.8,1.22-1.61,1.84-2.41-1.29.31-2.57.62-3.86.93,1.05.8,2.11,1.61,3.16,2.41-1.78-14.22-.68-28.56.37-42.79,1.07-14.49,2.13-28.99,3.2-43.48.59-8.05,1.13-16.1,1.81-24.14.11-1.35-1.23-2.5-2.5-2.5-1.45,0-2.38,1.15-2.5,2.5-1.23,14.41-2.16,28.85-3.22,43.28s-2.42,28.79-2.96,43.21c-.3,7.99-.19,15.99.8,23.93.2,1.62,1.43,2.83,3.16,2.41,1.29-.31,2.57-.62,3.86-.93.96-.23,1.96-1.36,1.84-2.41-2.41-19.94-4.8-39.98-4.13-60.11h-5c.38,16.95.77,33.89,1.15,50.84.38,17.03.77,34.06,1.15,51.09.22,9.55.43,19.11.65,28.66h5c-1.79-19.61-2.12-39.3-2.21-58.98-.01-2.81-.02-5.62-.03-8.44,0-.89-.06-1.91.1-2.65.05-.24.32-.91.32-.93-.03-.12.13-.16.01-.03-.06.07-.27.18-.36.18,1.29-.02,2.58-1.13,2.5-2.5-1.28-22.46-1.96-44.95-2.02-67.45-.02-6.39.02-12.78.1-19.17.02-1.35-1.16-2.5-2.5-2.5-1.49,0-2.33,1.15-2.5,2.5-1.77,13.96-.69,28.02.41,41.99.11,1.35,1.07,2.5,2.5,2.5,1.34,0,2.52-1.14,2.5-2.5-.27-19.08-.53-38.16-.8-57.24l-.23-16.43c-.04-3.21-5.04-3.22-5,0h0Z"/>
      <path class="cls-12" d="M67.56,79.15c20.35.67,40.73.07,61-1.9,9.91-.96,19.88-3.06,29.84-3.31,1.13-.03,9.07.99,8.82,1.24-.81-1.28-1.62-2.55-2.43-3.83l.07,1.37c-.17,1.15.11,2.77.16,3.98.12,2.98.24,5.96.36,8.95.81,20.45,1.97,40.94,1.77,61.42-.2,20.01-1.86,39.92-1.53,59.95.38,23.29,2.44,46.46,5.73,69.51,3.54-4.64,7.07-9.28,10.61-13.92-4.55.25-8.61-1.61-12.88-3-4.7-1.53-9.49-2.84-14.36-3.68-9.95-1.71-19.52-1.71-29.42.46-8.98,1.97-17.14,3.76-26.39,3.9-9.55.15-19.48.5-28.89-1.29,2.69,3.54,5.38,7.07,8.08,10.61-2.28-32.33-1.45-64.68,2.22-96.87.93-8.15,1.9-16.32,2.03-24.53s-.94-16.29-2.04-24.41c-2.11-15.59-2.79-31.28-2.07-46.99-3.67,3.67-7.33,7.33-11,11,33.47,1.22,66.97.94,100.41-.83-3.67-3.67-7.33-7.33-11-11-3.18,30.35-3.82,60.86-3.87,91.35-.02,15.1.09,30.21.07,45.31s.7,30.25-.71,45.1l1.5-5.55-.32.7c1.32-1.32,2.63-2.63,3.95-3.95l-.94.47c1.85-.5,3.7-1,5.55-1.5-13.34.06-26.79-1.77-40.17-1.96-6.51-.09-13.03-.07-19.54.08-3.58.08-7.16.19-10.74.34-1.63.07-3.25.15-4.88.23l-1.95.1c-1.42.08-1.6.06-.55-.07,1.62.94,3.24,1.89,4.85,2.83,1.22,3.15,1.73,3.76,1.51,1.82-.05-.93-.07-1.86-.06-2.79,0-1.86.06-3.72.17-5.57.19-3.41.55-6.81.94-10.2.79-6.95,1.68-13.89,2.64-20.82,2-14.43,4.15-28.84,6.25-43.25,2.16-14.84,4.9-29.73,6.26-44.67,1.36-14.95-1.36-29.07-10.76-40.99-6.32-8.02-18.42-.81-18.78,7.78-.62,15.1-1.24,30.21-1.87,45.31h22c.09-8.39.17-16.79.26-25.18.02-1.47-.6-5.83-.03-6.9.42-.8,4.03-1.69,5.33-2.13,6.86-2.3,13.96-3.88,21.19-4.35,3.95-.26,7.91-.27,11.86-.03.6.04,9.68,1.1,9.61,1.28-.06.14-2.5-1.97-2.47-1.98-.33.16.04,4.94.04,5.48.02,4.32.02,8.64.03,12.96,0,8.64-.02,17.28-.07,25.91-.1,16.94-.3,33.89-.61,50.83-.17,9.3-.37,18.6-.6,27.9-.12,4.98-.26,9.96-.4,14.95-.07,2.32-.14,4.65-.21,6.97-.03,1-.06,1.99-.09,2.99-.02.66-.04,1.33-.06,1.99-.12,1.93.07,1.34.55-1.78,2.19-1.69,4.38-3.37,6.57-5.06,1.77.06,1.51-.05-.78-.32-1.27-.21-2.54-.43-3.81-.64-1.9-.32-3.81-.64-5.71-.96-4.44-.74-8.89-1.49-13.33-2.23-8.89-1.49-17.78-2.98-26.67-4.47,2.69,3.54,5.38,7.07,8.08,10.61-2.07-18.93-1.34-37.95.62-56.86,1.95-18.74,4.5-37.56,7.86-56.1.7-3.88,1.7-8.03,2.33-11.72,0-.03-1.2,1.17-1.22,1.18.8-.33,1.61-.81,2.4-1.18,1.95-.91,3.94-1.76,5.96-2.5,2.03-.75,4.09-1.42,6.19-1.93.44-.11,2.84-.66,2.77-.57-.19.28-5.44-5.48-5.79-5.29-.56.3-.1,12.27-.22,13.76-1.51,18.04-6.98,35.73-5.92,53.98.58,9.9,2.81,19.6,6.02,28.96,1.65,4.8,3.52,9.52,5.43,14.22,1.41,3.47,4.73,8.52,4.26,12.18l1.5-5.55c1.06-2.12,1.86-1.05-.31-.35-1.74.56-3.42,1.29-5.17,1.85s-3.51,1.04-5.29,1.47c-.59.14-1.19.27-1.78.41-2.2.43-2.39.48-.57.14,1.62.94,3.24,1.89,4.85,2.83.53,1.97.53,2,0,.1-.3-1.25-.55-2.51-.76-3.78-.31-2.21-.41-4.46-.52-6.69-.21-4.5-.29-9.02-.34-13.53-.1-9.34.05-18.68.45-28.01.81-18.65,2.61-37.25,5.5-55.69.85-5.41-.92-10.78-6.37-12.98-4.56-1.83-11.55-.6-13.74,4.5-6.34,14.82-7.63,30.36-9.47,46.22-1.85,15.99-3.97,31.94-6.77,47.8-1.31,7.44-4.31,15.75-4.14,23.32.21,9.71,8.45,16.71,18.12,13.91,7.1-2.06,14.23-6.3,20.57-10.02,6.87-4.03,13.28-8.67,19.54-13.59,3.37-2.64,3.84-8.44,2.27-12.02-1.91-4.34-5.49-6.23-10.05-6.76-8.58-1-16.99-.43-25.47,1.14-5.31.98-8.63,7.1-7.88,12.07.87,5.78,5.2,8.92,10.8,9.54,8.77.96,17.52,1.06,26.31.29,5.92-.52,11-4.68,11-11,0-5.55-5.05-11.52-11-11-8.79.77-17.53.68-26.31-.29l2.92,21.61c6.5-1.2,13.08-1.12,19.62-.36-2.59-6.26-5.19-12.52-7.78-18.78-4.76,3.74-9.87,7.09-15.09,10.15-2.52,1.48-5.08,2.88-7.68,4.21-1.56.8-3.13,1.56-4.72,2.31-.87.41-4.62,1.12-2.28,1.14,1.85.5,3.7,1,5.55,1.5l-.91-.52c1.32,1.32,2.63,2.63,3.95,3.95.56,1.03.68,2.06.36,3.07.27-1.26.53-2.52.79-3.78.52-2.52,1.01-5.05,1.49-7.59.84-4.43,1.62-8.87,2.35-13.32,1.63-9.87,3.01-19.78,4.3-29.7s2.29-19,3.39-28.51c.92-7.99,2-16.42,5.19-23.88-6.7-2.83-13.4-5.65-20.11-8.48-5.23,33.41-7.76,67.32-6.48,101.14.3,8.07.42,17.78,4.98,24.77,5.8,8.89,16.56,6.96,25.25,4.43,7.42-2.16,16.58-4.81,20.38-12.14,4.22-8.14-.82-16.82-3.89-24.41-5.7-14.11-10.86-28.41-10.42-43.83s4.88-31.61,6.09-47.56c.58-7.71,1.63-18.31-4.01-24.48-6.16-6.74-15.45-5.38-23.36-2.99-6.94,2.1-16.25,5.07-21.4,10.49-5.54,5.83-6.16,15.61-7.46,23.15-3.32,19.24-5.98,38.71-8.03,58.12-2.04,19.23-2.84,38.58-.73,57.84.49,4.44,3.04,9.76,8.08,10.61,12.06,2.02,24.13,4.04,36.19,6.06,11.07,1.85,30.37,8.74,34.33-6.87,1.42-5.59.73-12.17.89-17.9.19-6.64.36-13.28.52-19.93.3-12.62.54-25.24.72-37.87.36-24.92.49-49.83.39-74.75-.02-6-.2-11.75-3.75-16.83-3.39-4.86-8.7-6.85-14.33-7.72-12.29-1.91-24.5-1.69-36.74.53-11.36,2.06-26.91,5.53-32.28,16.96-2.98,6.35-2.38,13.72-2.45,20.56s-.15,14.2-.22,21.31c-.15,14.21,21.42,14.11,22,0,.62-15.1,1.24-30.21,1.87-45.31-6.26,2.59-12.52,5.19-18.78,7.78,8,10.14,4.34,26.47,2.67,37.99-2.17,14.92-4.34,29.83-6.51,44.75-2.17,14.92-4.36,29.84-6.2,44.8-.84,6.82-1.74,13.67-1.87,20.55-.16,8.39.42,18.13,9.84,21.21,6.11,2,13.74.47,20.07.28,7.81-.23,15.63-.29,23.45-.18,7.17.1,14.33.34,21.49.73,3.9.21,7.8.46,11.7.76,4.35.33,8.49,1.09,12.53-1.03,7.49-3.94,6.83-12.05,7.02-19.34.21-8.2.31-16.41.37-24.61.1-15.43,0-30.86-.03-46.3-.06-34.1.3-68.24,3.86-102.18.6-5.71-5.53-11.29-11-11-33.44,1.77-66.94,2.05-100.41.83-6.14-.22-10.74,5.23-11,11-.75,16.41.13,32.69,2.33,48.96s1.56,31.03-.25,46.98c-3.66,32.19-4.49,64.55-2.22,96.87.32,4.53,3.16,9.68,8.08,10.61,19.85,3.76,42.18,3.44,61.78-1.36,9.04-2.21,17.36-3,26.55-1,9.79,2.13,19.25,7.31,29.46,6.75,7.82-.42,11.64-6.65,10.61-13.92-2.96-20.76-4.55-41.73-4.93-62.7-.39-21.34,1.47-42.57,1.53-63.88s-1.23-44.29-2.1-66.4c-.19-4.85.03-10.14-2.28-14.56-2.73-5.21-7.65-8.13-13.18-9.71-9.99-2.86-20.27-.84-30.32.41-24.45,3.06-49.1,4.12-73.73,3.31-14.16-.46-14.14,21.54,0,22h0Z"/>
      <path class="cls-18" d="M118.92,106.16c11.2-3.29,22.43,3.01,24.48,14.45,1.23,6.86.52,15.5-1.59,22.17-1.31,4.13-4.79,8.49-8.73,10.99-9.36,5.96-22.27,4.99-31.42-3.08-8.37-7.39-14.52-22.33-10.67-32.14,2.08-5.29,7.26-9.12,12.01-10.83,8-2.88,16.84-2.5,25.11-1.13,6.65,1.09,13.45-1.74,15.38-8.73,1.64-5.98-2.03-14.27-8.73-15.38-23-3.78-48.34-1.6-62.8,19.1-13.41,19.19-5.76,47.12,8.69,63.42,14.92,16.83,40.21,22.37,60.57,12.79,21.96-10.34,29.67-34.85,27.21-57.68-2.95-27.34-29.37-45.94-56.16-38.06-15.4,4.53-8.85,28.66,6.65,24.11h0Z"/>
      <path class="cls-6" d="M119.05,96.06c-.27.04-.51.14-.75.25-.17.07-.33.16-.47.27-.21.16-.41.31-.58.52s-.33.41-.44.65l-.1.24c-.04.13-.05.27-.02.4,0,.09.02.17.07.25.04.12.11.23.21.32.13.12.28.2.44.26.13.04.27.05.4.02.13,0,.26-.05.37-.12.27-.12.55-.24.82-.36.12-.06.21-.15.28-.26.09-.1.15-.21.18-.34.07-.24.04-.56-.1-.77s-.34-.4-.6-.46l-.27-.04c-.18,0-.35.05-.5.14-.27.12-.55.24-.82.36l1.37,1.37c.07-.14.15-.27.24-.39l-.16.2c.11-.15.25-.28.39-.39l-.2.16c.15-.12.32-.22.5-.29l-.24.1c.16-.07.34-.12.51-.14.13-.03.24-.09.34-.18.11-.07.19-.16.26-.28.13-.21.18-.53.1-.77s-.23-.48-.46-.6l-.24-.1c-.18-.05-.35-.05-.53,0h0Z"/>
      <g>
        <path class="cls-23" d="M154.27,103.17c-6.48-7.69-17-8.8-26.46-10.22-4.2-.63-7.8,4.04-4.38,7.52,3.51,3.57,6.34,7.34,10.95,9.61,4.17,2.05,8.67,2.89,13.29,2.55,5.74-.42,5.79-9.42,0-9-8.49.62-12.41-3.97-17.87-9.52l-4.38,7.52c7.63,1.14,17.29,1.73,22.49,7.91,3.74,4.44,10.07-1.96,6.36-6.36h0Z"/>
        <path class="cls-23" d="M86.33,73.46c-.08,5.33,2.01,10.49,6.18,13.91,1.88,1.54,3.99,2.69,6.33,3.36,2.46.7,5.09.3,7.49,1.07,3.47,1.11,7.52-3.43,5.08-6.61-3.88-5.06-8.13-9.66-13.04-13.74-4.42-3.68-10.82,2.66-6.36,6.36s8.25,7.5,11.63,11.92l5.08-6.61c-3-.96-6.3-.22-9.12-1.74-3-1.61-4.32-4.62-4.27-7.92.09-5.79-8.91-5.8-9,0h0Z"/>
        <path class="cls-20" d="M85.3,92.3c5.57,5.59,16.39,8.25,23.91,6.22-1.14-1.95-2.27-3.9-3.41-5.85-.53.64-1.77,2.6-2.5,2.99-1.05.55-4.41-.06-5.35-.2-1.87-.28-8.87-1.15-8.78-3.81s-3.08-4.51-5.27-3.02c-2.95,2.01-3.78,5.33-1.42,8.28,2.76,3.44,7.58,2.94,11.11,4.91l.84-6.4c-2.1.77-3.4-.43-4.92-1.48-3.72-2.56-7.22,3.5-3.53,6.04,3.19,2.2,6.51,3.58,10.31,2.18,2.69-.98,3.64-4.84.84-6.4-2.33-1.3-8.52-1.62-9.59-4.15l.35,2.7.25-1.12-1.61,2.09.9-.62c-1.76-1.01-3.51-2.01-5.27-3.02-.22,6.73,6,8.85,11.57,10.1,3.18.72,6.83,1.36,10.09,1.01s4.87-2.69,6.91-5.13c2.15-2.57.18-6.82-3.41-5.85-4.98,1.34-13.38-.69-17.1-4.42-3.18-3.19-8.14,1.75-4.95,4.95h0Z"/>
        <path class="cls-20" d="M116.91,103.2c.73,3.89,2.81,7.36,5.93,9.82,3.27,2.58,8.05,2.39,8.42,7.31.86-1.12,1.71-2.25,2.57-3.37-2.2.62-5.01-2.75-6.38-4.17-2.04-2.12-3.84-4.53-4.11-7.57-1.76,1.01-3.51,2.01-5.27,3.02,3.81,2.94,7.61,5.87,11.42,8.81,3.56,2.75,7.05-3.33,3.53-6.04-3.81-2.94-7.61-5.87-11.42-8.81-2.05-1.58-5.49.55-5.27,3.02.49,5.44,3.19,9.68,7.08,13.42,3.42,3.28,7.24,6.48,12.27,5.07,1.39-.39,2.68-1.86,2.57-3.37-.32-4.25-1.83-8.21-5.78-10.3-1.81-.95-3.84-1.27-5.46-2.59-1.93-1.56-2.9-3.72-3.35-6.11-.83-4.42-7.58-2.55-6.75,1.86h0Z"/>
        <path class="cls-10" d="M116.48,86.59c-8.01,9.48-7.32,23.84-17.01,31.93-3.46,2.89,1.51,7.82,4.95,4.95,4.48-3.74,6.69-7.43,8.66-12.83,2.25-6.19,4.05-14,8.35-19.09,2.89-3.42-2.04-8.4-4.95-4.95h0Z"/>
        <path class="cls-22" d="M111.77,92.04c.47,1.79,2.02,2.98,3.72,3.52.91.29,1.86.4,2.8.49,1.01.1,2.02.16,3.03.1.54-.03,1-.44,1-1,0-.52-.46-1.03-1-1-1.59.1-3.31,0-4.86-.39-1.2-.31-2.43-.98-2.76-2.25s-2.26-.72-1.93.53h0Z"/>
        <path class="cls-22" d="M108.34,99.53c1.09,0,2.18-.01,3.27-.02.53,0,1.07-.02,1.6,0,.35,0,.64.02.92.24.33.26.58.63.86.94.31.36.65.69,1,1.01.72.66,1.51,1.24,2.34,1.75l.24-1.83c-.75.21-1.48-.36-2.06-.76-.81-.55-1.63-1.1-2.46-1.61-1.69-1.04-3.43-1.98-5.17-2.93l-.77,1.83c3.41,1.14,6.83,2.25,10.25,3.34,1.23.39,1.76-1.54.53-1.93-3.43-1.09-6.84-2.2-10.25-3.34-1.08-.36-1.76,1.29-.77,1.83,1.91,1.04,3.82,2.09,5.67,3.25,1.63,1.02,3.48,2.85,5.57,2.26.84-.24.97-1.38.24-1.83-.84-.51-1.62-1.11-2.32-1.8s-1.21-1.53-2.04-2.01c-.92-.53-2.04-.4-3.06-.39-1.19,0-2.38.01-3.58.02-1.29,0-1.29,2.01,0,2h0Z"/>
        <path class="cls-22" d="M119.61,86.57c1.12,0,2.24,0,3.37,0,.6,0,1.34.11,1.88-.15.79-.38.82-1.47.23-2.03-.43-.41-1.1-.46-1.66-.56s-1.17-.17-1.75-.23c-1.09-.1-2.19-.12-3.29-.05-.52.03-1.03.44-1,1,.02.52.44,1.03,1,1,1-.06,2-.05,3,.03.5.04.93.09,1.34.15.23.04.46.07.68.12.11.02.23.04.34.07.06.01.12.03.17.04-.31-.12-.44-.38-.41-.77l.26-.44c.44-.13.55-.19.35-.18h-.12c-.1,0-.2,0-.3,0h-.6c-.38,0-.76,0-1.14,0-.78,0-1.56,0-2.34,0-.52,0-1.02.46-1,1s.44,1,1,1h0Z"/>
        <path class="cls-6" d="M110.68,93.86c-.15.08-.29.18-.42.28-.2.15-.39.3-.57.47-.29.29-.55.63-.76.98-.13.22-.17.52-.1.77.03.13.09.24.18.34.07.11.16.19.28.26.23.12.51.18.77.1s.46-.23.6-.46c.08-.14.18-.28.28-.41l-.16.2c.19-.25.42-.47.67-.66l-.2.16c.14-.11.29-.21.45-.3.22-.12.39-.36.46-.6.04-.13.05-.27.02-.4,0-.13-.05-.26-.12-.37-.14-.21-.34-.4-.6-.46s-.53-.04-.77.1h0Z"/>
        <path class="cls-6" d="M122.07,91.82l.93-2.84-1.96-.27c.07,1.13.15,2.27.22,3.4.03.52.44,1.03,1,1,.51-.02,1.04-.44,1-1-.07-1.13-.15-2.27-.22-3.4-.03-.5-.36-.91-.87-.98s-.94.24-1.1.72l-.93,2.84c-.16.5.19,1.11.7,1.23.55.12,1.06-.17,1.23-.7h0Z"/>
        <path class="cls-6" d="M117.38,85.97c-1.32.45-2.47,1.37-3.15,2.6-.2.36-.17.79.08,1.11s.66.46,1.05.36c1.29-.32,2.42-1.16,3.13-2.28.28-.44.11-1.12-.36-1.37-.49-.26-1.07-.11-1.37.36-.07.11-.15.22-.23.32l.16-.2c-.22.28-.47.53-.76.75l.2-.16c-.28.22-.59.4-.92.54l.24-.1c-.21.09-.42.16-.64.21l1.13,1.47c.11-.21.24-.4.39-.59l-.16.2c.24-.31.52-.59.83-.83l-.2.16c.31-.24.65-.44,1.01-.59l-.24.1c.11-.05.22-.09.33-.13.25-.08.46-.23.6-.46.13-.21.18-.53.1-.77s-.23-.48-.46-.6-.52-.19-.77-.1h0Z"/>
        <path class="cls-20" d="M107.71,100.23v.05c0-.09.02-.18.03-.27-.06.39-.16.77-.31,1.14l.1-.24c-.16.38-.37.74-.62,1.06l.16-.2c-.21.27-.46.52-.73.75-.48.39-.34,1.31.2,1.57.26.13.52.21.82.21s.55-.08.82-.2c.39-.17.74-.52.94-.89s.3-.74.37-1.14c.06-.32.11-.64.23-.95l-.1.24c.05-.13.12-.25.2-.36l-.16.2c.05-.06.1-.12.16-.17.39-.36.39-1.06,0-1.41-.41-.38-1-.38-1.41,0s-.63.89-.75,1.41c-.1.42-.13.85-.29,1.25l.1-.24c-.05.12-.11.23-.19.33l.16-.2c-.06.08-.13.15-.21.21l.2-.16c-.08.06-.17.11-.26.15l.24-.1c-.07.02-.13.04-.2.06l.27-.04c-.07,0-.13.01-.2,0l.27.04c-.07,0-.13-.03-.2-.05l.24.1-.04-.02.2,1.57c.52-.43.96-.97,1.29-1.56.37-.68.57-1.38.67-2.14.03-.23-.13-.55-.29-.71-.17-.17-.46-.3-.71-.29s-.53.1-.71.29l-.16.2c-.09.16-.14.32-.14.5h0Z"/>
        <path class="cls-20" d="M114.95,103.37c-.21,1-.51,1.97-.89,2.91h1.93c-.04-.2,0,.24,0,.04,0-.04,0-.08,0-.12,0-.19-.06.22,0,.04.01-.05.02-.09.04-.14,0-.02.01-.04.02-.05.03-.07.01-.04-.04.11.03-.02.05-.1.07-.13.1-.16,0,.03-.04.04.03,0,.1-.1.12-.12l-1.67-.97c-.17.76-.34,1.52-.51,2.28h1.93s-.02-.08-.03-.12c-.05-.21.01.17,0,.05,0-.09-.02-.19-.02-.28s0-.19,0-.28c0-.03.02-.18,0-.02-.02.18,0-.03.01-.05.03-.17.09-.34.15-.51.04-.12-.1.2-.01.04.02-.04.04-.07.06-.11.05-.09.1-.18.16-.27.29-.44.1-1.13-.36-1.37-.5-.27-1.06-.11-1.37.36-.61.91-.77,2.04-.54,3.1.09.41.54.75.96.73s.87-.29.96-.73c.17-.76.34-1.52.51-2.28.09-.42-.06-.92-.46-1.13s-.88-.16-1.21.16c-.63.59-.85,1.46-.67,2.29.09.41.55.75.96.73.18,0,.35-.05.5-.14.24-.13.36-.36.46-.6.39-.94.69-1.91.89-2.91.11-.51-.15-1.1-.7-1.23-.5-.11-1.12.15-1.23.7h0Z"/>
        <path class="cls-20" d="M112.94,110.06l-1.41,2.73c-.19.36-.18.78.08,1.11.11.14.24.24.4.31.22.09.41.09.65.05.9-.14,1.68-.78,2.15-1.53s.65-1.77.37-2.64c-.16-.5-.7-.87-1.23-.7s-.81.68-.7,1.23c.02.08.03.15.04.23l-.04-.27c.04.3.04.59,0,.89l.04-.27c-.04.31-.12.61-.24.9l.1-.24c-.12.27-.26.53-.45.77l.16-.2s-.06.07-.09.11c-.17.21-.29.43-.29.71,0,.25.11.54.29.71.37.34,1.06.43,1.41,0,.44-.53.78-1.13.96-1.8s.18-1.38.04-2.06l-1.93.53c.03.11.06.22.08.34l-.04-.27c.02.19.02.38,0,.57l.04-.27c-.03.22-.09.42-.17.62l.1-.24c-.09.2-.2.39-.33.56l.16-.2c-.13.16-.27.31-.43.43l.2-.16c-.15.12-.31.21-.49.29l.24-.1c-.15.06-.31.11-.48.13l1.13,1.47,1.41-2.73c.24-.46.14-1.11-.36-1.37-.46-.24-1.11-.14-1.37.36h0Z"/>
        <path class="cls-20" d="M105.74,105.96c0,.13-.02.26-.04.39l.04-.27c-.06.43-.18.85-.35,1.25l.1-.24c-.1.23-.21.47-.36.68l.16-.2s-.04.05-.07.07l.2-.16s-.05.04-.08.05l.24-.1h-.05c.09,0,.18-.01.27-.02-.03,0-.07,0-.1,0l.27.04c-.09-.02-.17-.05-.25-.08l.24.1c-.32-.14-.61-.31-.89-.52l.2.16c-.15-.12-.3-.24-.42-.39l.16.2s-.03-.05-.05-.08l.1.24s-.03-.06-.03-.1l.04.27c0-.06,0-.1,0-.16l-.04.27c.01-.05.03-.1.05-.15l-.1.24c.04-.09.09-.16.15-.24l-.16.2c.35-.44.76-.83,1.2-1.18l-.2.16c.16-.13.33-.24.51-.36l-1.21-.16.03.03-.16-.2s.03.05.04.07l-.1-.24s.03.08.03.12l-.04-.27s0,.08,0,.13l.04-.27c-.01.08-.03.15-.06.22l.1-.24c-.04.09-.09.17-.14.24l.16-.2c-.14.17-.31.32-.46.49-.29.35-.45.7-.49,1.16-.02.24.13.54.29.71s.46.3.71.29c.58-.03.95-.44,1-1v-.05c0,.09-.02.18-.03.27,0-.06.03-.12.05-.17l-.1.24c.03-.07.07-.13.12-.2l-.16.2c.24-.31.57-.55.76-.91.14-.27.22-.54.23-.85,0-.39-.16-.71-.4-1-.14-.16-.37-.25-.57-.28-.21-.03-.45,0-.64.12-.54.35-1.06.76-1.5,1.22-.24.25-.48.52-.66.81-.29.48-.34,1.09-.04,1.58.21.34.56.6.87.83.23.17.47.31.73.43.18.08.37.18.56.21.35.07.7.04,1-.16.34-.22.55-.59.72-.95.34-.73.54-1.49.59-2.3.03-.52-.48-1.02-1-1-.57.03-.97.44-1,1h0Z"/>
        <path class="cls-20" d="M102.12,108.81c-.43.43-.8.93-1.09,1.47-.31.57-.62,1.25-.66,1.91-.05.91.71,1.52,1.54,1.65.72.11,1.46,0,2.08-.42.43-.3.67-.89.36-1.37s-.86-.6-1.37-.36c-.41.2-.81.39-1.22.59-.49.24-.61.93-.36,1.37.13.22.24.47.4.67.3.39.83.49,1.3.37.6-.15.95-.7,1.28-1.17.28-.39.54-.78.81-1.17s.55-.83.7-1.31c.35-1.13-.36-2.48-1.63-2.48-.65,0-1.21.41-1.57.92-.15.21-.25.46-.35.7-.07.16-.13.32-.16.49-.12.66.02,1.34.63,1.71.39.23.91.2,1.3-.02.28-.15.49-.43.66-.69.28-.44.11-1.12-.36-1.37-.49-.26-1.07-.11-1.37.36-.02.03-.04.06-.06.1.1-.12.11-.14.05-.07-.06.06-.05.05.02,0,.11-.1.25-.15.41-.14.19,0,.36.08.5.22.11.16.14.19.09.11l.07.16c-.02-.1-.02-.06.01.13,0-.04,0-.11,0-.15-.03.18-.03.22-.01.11,0-.03.02-.07.02-.1.02-.05.04-.1.06-.16.02-.04.03-.09.05-.13-.06.13-.06.15-.02.05.03-.06.06-.12.1-.18.02-.04.05-.08.08-.12-.08.1-.09.12-.05.07.2-.15-.14.08.03-.03s-.18.05,0,0c-.16.02-.19.02-.08.02-.16-.03-.19-.03-.09,0l-.14-.06c.09.06.06.04-.08-.06.13.11-.11-.21-.01,0,.04.07.02.03-.04-.11.01.03.02.07.03.11.06.18,0-.22,0-.05-.02.26.06-.14,0,.05-.02.05-.06.28,0,.03-.02.08-.08.16-.11.22-.17.3-.37.59-.57.88-.21.32-.43.63-.65.94-.05.07-.09.13-.14.2-.03.04-.06.09-.1.13.09-.12.11-.14.04-.05-.05.05-.21.17.01.01-.09.05-.07.04.08-.03.38.04.48.03.31-.02l.6.46c-.11-.19-.21-.38-.32-.57l-.36,1.37c.41-.2.81-.39,1.22-.59l-1.01-1.73c-.08.06-.17.1-.25.15-.1.06.2-.06.03-.01-.04.01-.08.03-.13.04-.05.01-.11.02-.16.03-.12.03.25,0,.04-.01-.04,0-.09,0-.13,0-.04,0-.23-.02-.06,0s-.04-.01-.06-.02c-.04-.01-.08-.02-.13-.04-.18-.05.13.08.04.02-.03-.02-.13-.1-.02,0,.09.08.16.16.2.27.01.05.03.21.03.07,0,.24-.01.12,0,.04.01-.05.03-.11.05-.16.03-.1.06-.2.1-.29.02-.04.03-.09.05-.13.04-.12-.09.19,0,.02.09-.19.18-.37.28-.55.06-.1.12-.2.18-.29.03-.04.05-.08.08-.11.02-.03.14-.19.04-.06-.09.11.01-.01.03-.03.04-.04.07-.09.11-.13.08-.09.15-.17.23-.25.37-.37.4-1.05,0-1.41s-1.02-.4-1.41,0h0Z"/>
        <path class="cls-20" d="M110.79,114.52l-.93.72c-.27.21-.57.4-.79.67-.18.22-.34.45-.4.74-.07.35-.04.71.14,1.03.23.4.66.68,1.11.76.35.07.7.08,1.05.07s.72-.05,1.05-.18c.46-.18.86-.45,1.13-.88.19-.31.29-.72.28-1.08-.04-.9-.58-1.71-1.46-1.98-.5-.15-1.11.18-1.23.7s.16,1.07.7,1.23c.04.01.07.02.11.04l-.24-.1c.07.03.13.07.2.12l-.2-.16c.07.05.13.12.18.18l-.16-.2c.06.08.11.16.14.25l-.1-.24c.04.1.07.2.08.31l-.04-.27c.01.11.01.21,0,.32l.04-.27c-.01.09-.03.17-.07.25l.1-.24c-.03.07-.07.14-.11.2l.16-.2c-.06.07-.12.13-.2.19l.2-.16c-.08.06-.16.11-.25.15l.24-.1c-.16.07-.33.11-.51.13l.27-.04c-.33.04-.67.05-1,.01l.27.04c-.11-.02-.22-.04-.32-.08l.24.1c-.06-.02-.11-.05-.16-.09l.2.16s-.06-.05-.08-.08l.16.2s-.04-.06-.06-.1l.1.24s-.03-.08-.03-.12l.04.27s0-.07,0-.11l-.04.27s.02-.09.04-.14l-.1.24c.03-.06.06-.11.1-.16l-.16.2c.22-.27.53-.46.79-.67l.93-.72c.19-.15.29-.48.29-.71,0-.25-.11-.54-.29-.71s-.44-.3-.71-.29l-.27.04c-.17.05-.32.13-.44.26h0Z"/>
        <path class="cls-20" d="M108.12,119.03c-.76.37-1.39.97-1.85,1.68-.22.34-.16.81.08,1.11.22.29.69.51,1.05.36.72-.3,1.37-.68,1.95-1.2.29-.26.59-.56.75-.93.23-.54.13-1.11-.28-1.53-.33-.35-.85-.5-1.32-.43-.44.06-.83.29-1.13.61-.22.23-.4.49-.61.73-.22.26-.45.51-.69.75-.27.28-.56.55-.85.81-.14.12-.29.25-.43.37-.07.06-.14.11-.21.17-.11.09.14-.1.02-.02-.05.04-.1.08-.15.11-.22.16-.38.33-.46.6-.07.24-.04.56.1.77.27.41.92.69,1.37.36,1.2-.89,2.23-1.91,3.17-3.06.05-.06.09-.11.15-.17.03-.03.06-.06.09-.09.06-.05.06-.06,0,0-.07.05-.07.05,0,0,.09-.05.07-.04-.07.03.1-.03.07-.02-.11.01.08,0,.07,0-.03,0-.1-.02-.11-.01-.03,0-.16-.07-.19-.08-.1-.03-.17-.11-.27-.26-.29-.45-.02-.08-.02-.15,0-.23.06-.14.07-.17.01-.07.15-.23.02-.03-.04.02-.12.12-.24.24-.36.34-.04.04-.24.23-.05.05-.06.06-.14.1-.2.15-.14.09-.28.18-.43.26-.07.04-.15.08-.22.12-.05.02-.35.15-.09.05l1.13,1.47c.04-.06.09-.18.15-.22-.08.1-.1.13-.05.07.02-.03.04-.05.07-.08.1-.12.21-.23.33-.33.04-.04.1-.11.15-.13-.11.09-.13.1-.04.04.04-.03.07-.05.11-.08.13-.09.27-.16.41-.23.47-.23.64-.94.36-1.37-.31-.48-.86-.61-1.37-.36h0Z"/>
        <path class="cls-12" d="M122.2,104.4c-.86,2.35.93,4.4,2.66,5.71,1.88,1.42,3.68,2.87,5.31,4.57.89.93,2.31-.49,1.41-1.41-1.53-1.58-3.19-3.02-4.96-4.32-1.23-.9-3.16-2.23-2.5-4.02.19-.51-.21-1.1-.7-1.23-.56-.15-1.04.19-1.23.7h0Z"/>
        <path class="cls-12" d="M103.74,94.28c-1.24,0-2.47.01-3.71.01-.45,0-.82.04-1.21-.21s-.74-.59-1.18-.8c-.97-.48-2-.36-3.04-.5-.94-.12-1.84-.53-2.56-1.14-.98-.83-2.4.58-1.41,1.41.85.72,1.82,1.28,2.92,1.55.55.14,1.12.19,1.68.22s1.1.02,1.58.27c.45.24.79.62,1.24.85.52.26,1.06.34,1.63.34,1.35.01,2.71-.01,4.06-.02s1.29-2.01,0-2h0Z"/>
        <path class="cls-21" d="M126.45,98.65c2.18-.15,4.41-.31,6.58.05,2.19.36,3.94,1.36,5.66,2.71,3.24,2.55,6.69,4.46,10.74,5.36,1.25.28,1.79-1.65.53-1.93-2.1-.47-4.13-1.19-6.02-2.23-1.91-1.05-3.52-2.46-5.28-3.72-3.62-2.58-7.96-2.53-12.21-2.24-1.28.09-1.29,2.09,0,2h0Z"/>
        <path class="cls-21" d="M108.86,88.1c-1.61-3.05-3.41-6.28-6.45-8.12-1.67-1.01-3.69-1.15-5.36-2.13-1.77-1.04-3.11-2.94-4.47-4.44-.87-.95-2.28.46-1.41,1.41,1.34,1.47,2.61,3.11,4.22,4.3s3.63,1.35,5.4,2.24c3.09,1.55,4.81,4.82,6.35,7.75.6,1.14,2.33.13,1.73-1.01h0Z"/>
        <path class="cls-20" d="M101.02,115.97c.1-.02.21-.05.31-.06l-.27.04c.11-.01.21-.02.31,0l-.27-.04c.07.01.14.03.21.05l-.24-.1s.08.04.12.07l-.2-.16s.07.06.1.1l-.16-.2s.05.07.07.12l-.1-.24s.03.08.04.13l-.04-.27s0,.06,0,.1l.04-.27s-.01.06-.03.09l.1-.24s-.02.04-.04.06l.16-.2c-.14.18-.35.32-.53.47s-.36.3-.54.45c-.37.31-.74.63-1.12.94l1.57,1.21c.49-.64.74-1.45.79-2.25.02-.25-.12-.54-.29-.71s-.46-.3-.71-.29c-.57.03-.96.44-1,1,0,.07-.01.14-.02.21l.04-.27c-.04.28-.11.56-.22.83l.1-.24c-.11.25-.24.49-.41.7-.14.18-.17.56-.1.77s.18.38.36.52.39.22.61.21c.28-.01.49-.11.71-.29.36-.3.72-.61,1.08-.91s.71-.57,1.04-.88c.59-.57.54-1.51-.05-2.06-.3-.29-.69-.42-1.1-.45-.28-.02-.58.05-.85.11-.51.12-.86.73-.7,1.23.17.53.68.82,1.23.7h0Z"/>
      </g>
      <path class="cls-3" d="M39.7,65.46c.63,36.45,1.25,72.89,1.88,109.34.29,17.17.54,34.34.99,51.5.24,9.03.52,18.05.86,27.07.15,4.09.47,8.1-.1,12.14-.23,1.65.2,3.77-.3,5.29,1.12-.86,2.25-1.71,3.37-2.57l-.19-.02,3.37,4.43c.25-1.1-.15-6.33.33-6.75-1.99-.82-3.98-1.65-5.97-2.47.38,4.15.25,8.1-.57,12.21-.87,4.4,5.87,6.28,6.75,1.86.93-4.7,1.25-9.29.82-14.07-.28-3.06-3.6-4.56-5.97-2.47-2.84,2.5-1.39,6.62-2.13,9.84-.55,2.39,1.07,4.2,3.37,4.43l.19.02c1.56.16,2.93-1.21,3.37-2.57.58-1.79.1-3.69.35-5.52.45-3.37.58-6.44.45-9.91-.35-9.02-.65-18.05-.9-27.07-.5-17.8-.76-35.6-1.06-53.4-.64-37.1-1.27-74.21-1.91-111.31-.08-4.5-7.08-4.51-7,0h0Z"/>
      <path class="cls-4" d="M138.36,206.67c7.84-.63,16.04-2,23.91-1.49,5.96.39,14.48,4.38,18.56-1.8-3.73-1.01-7.45-2.02-11.18-3.03.15,13.79,1.03,27.53,2.64,41.23,2.53-1.93,5.06-3.86,7.6-5.79-12.77-2.57-26.05.38-38.79,1.94l6,6c-.76-6.41-1.52-12.82-2.28-19.23-.69-5.78-2.61-12.73-1.91-18.5-.99,1.73-1.98,3.45-2.97,5.18l-1.42.35c.98.05,1.95.1,2.93.16,1.3.07,2.6.14,3.91.21,2.93.16,5.86.31,8.79.47,1.07.06,3.78.62,4.88.26,1.36.23,1.32.02-.12-.63-1.33-1.17-1.54-.86-.61.94.18,2.4,1.3,5.03,1.74,7.41.39,2.12,1.42,5.45.43,7.53-.58,1.22-3.46,3.12-4.91,2.6s-2.29-4.18-2.72-5.5c-.93-2.89-1.06-5.7-1.63-8.63-.5-2.53-.07-2.22,2.79-3.25,2.21-.79,4.75-1.63,7.1-1.74-1.39.06-.84-1.34-.6.99.15,1.43.65,2.92.9,4.35.46,2.69.72,5.4.83,8.12.03.72-.35,3.72.03,4.44-.24,1.13,0,1.2.75.22,1.1-.52,1.02-.97-.24-1.33-1.2-1.94-2.82-3.02-3.7-5.32-.46-1.22-.31-5.87-.8-6.36-1.77-.1-3.54-.2-5.31-.3l.47,1.52c.19.76.26,1.53.2,2.31-.19,1.11.06,1.08.76-.09,1.54-.2,3.08-.4,4.62-.6l-1.12-.24,3.59,2.76c-1.55-2.06,1.16-6.29,2.56-7.73,5.38-5.55-3.1-14.04-8.49-8.49-3.91,4.04-6.3,9.2-6.31,14.88s3.15,11.98,9.77,10.39c11.13-2.67,7.84-26.36-3.67-25.76-13.68.71-9.24,21.28-4.03,28.17,3.16,4.18,7.84,7.94,13.38,7.51,6.44-.5,9.39-5.62,9.58-11.53.29-9.36.21-30.37-13.17-29.91-5.4.18-11.79,2.01-16.45,4.8-5.77,3.45-5.84,9.64-5.12,15.64,1.36,11.36,6.82,26.06,20.96,21.95,5.13-1.49,9.93-5.33,11.52-10.56,1.83-5.98,0-13.12-1.49-18.99-1.56-6.19-3.61-10.88-10.51-11.51-4.53-.41-9.13-.49-13.67-.73-3.23-.17-7.15-1.07-10.31-.16-8.11,2.33-4.58,13.07-3.89,18.94.99,8.33,1.98,16.66,2.97,25,.35,2.91,2.48,6.43,6,6,11.38-1.39,24.21-4.66,35.6-2.36,3.39.68,8.08-1.63,7.6-5.79-1.61-13.69-2.49-27.44-2.64-41.23-.07-6.15-7.96-7.91-11.18-3.03l-.26.39,3.59-2.76c-2.07.31-5.8-1.13-7.94-1.4-3.05-.38-6.01-.5-9.08-.34-6.14.32-12.29.96-18.42,1.45-7.65.61-7.71,12.62,0,12h0Z"/>
      <path class="cls-20" d="M45.96,66.36c-.65,35.56.08,71.12,2.13,106.62.47,8.14.98,16.29.83,24.45-.16,8.93-1.21,17.8-1.95,26.7-1.44,17.26.29,34.18,1.79,51.37.61,7,11.62,7.06,11,0-1.5-17.19-3.23-34.11-1.79-51.37.71-8.58,1.73-17.14,1.93-25.75s-.32-16.94-.81-25.39c-2.05-35.5-2.77-71.06-2.13-106.62.13-7.08-10.87-7.08-11,0h0Z"/>
      <path class="cls-5" d="M159.34,128.83c1.86,2.53,2.46,5.89,1.14,8.82,1.22.51,2.44,1.03,3.66,1.54,1.29-3.54,2.3-7.52.08-10.92-1.22-1.87-4.23-.71-3.66,1.54.92,3.58-.06,6.75-1.37,10.09s-2.05,6.84-2.42,10.54-.64,7.08,0,10.6c.15.83.38,1.61.62,2.42.05.17.14.87.26.99-.09.18-.05.16.14-.04.34-.23.22-.26-.35-.09-1.88.39-2.64,2.58-1.28,3.98l2.83-2.83c-4.65-3.79-5.24-10.15-4.01-15.67.75-3.33,2-6.52,3.29-9.67s2.78-6.57,4.4-9.75l-3.66-.48c.2,1.32-.28,2.68-.68,3.91-.46,1.39-.92,2.78-1.32,4.19-.83,2.93-1.46,5.91-1.9,8.92-.86,5.99-1.01,12.02-.35,18.04,1.24-.34,2.48-.67,3.73-1.01-1.37-2.53-1.69-5.68-2-8.5-.16-1.49-.27-2.98-.33-4.47-.02-.5-.35-2.6.21-2.89,2.3-1.17.27-4.62-2.02-3.45-1.54.78-2.1,2.42-2.22,4.05-.14,1.92.07,3.92.25,5.83.36,3.85.78,8,2.64,11.46.9,1.66,3.95,1,3.73-1.01-.67-6.1-.58-12.3.42-18.36.5-3,1.19-5.97,2.08-8.88s2.08-5.71,1.61-8.88c-.25-1.7-2.92-1.93-3.66-.48-1.81,3.56-3.39,7.22-4.89,10.92-1.42,3.5-2.81,7.07-3.47,10.8-1.14,6.45-.04,13.84,5.31,18.21,1.96,1.6,4.66-.94,2.83-2.83l-.14-.15.59,1.41.02-.23-.59,1.41.16-.18-.88.51c.84-.18,1.5-.21,2.17-.81.57-.51.99-1.19,1.18-1.93.46-1.72-.45-3.43-.8-5.08-.72-3.49-.23-7.18.13-10.68.18-1.75.42-3.49.91-5.19s1.18-3.24,1.79-4.84c1.36-3.58,1.84-7.2.88-10.96-1.22.51-2.44,1.03-3.66,1.54,1.59,2.44.42,5.36-.48,7.84-.77,2.11,2.72,3.61,3.66,1.54,1.89-4.17,1.62-9.11-1.14-12.86-.64-.87-1.73-1.3-2.74-.72-.86.5-1.36,1.86-.72,2.74h0Z"/>
      <path class="cls-11" d="M161.49,118.67c-1.76,2.97-2.05,6.17.27,8.91,1.1,1.3,3.53.27,3.41-1.41-.07-1.05.07-2.09,0-3.13l-3.73,1.01c1.87,2.9,4.38,6.73,3.87,10.36-.28,2.02-1.49,3.81-2.4,5.58-.99,1.93-1.79,3.96-2.32,6.06-1.07,4.23-1.21,8.67-.84,13,.19,2.21.5,4.41.88,6.59.23,1.29.75,3.15-.34,4.15,1.05.13,2.09.27,3.14.4-.63-1.18-1.26-2.36-1.89-3.54-1.08-2.02-4.25-.63-3.66,1.54.42,1.52.83,3.05,1.25,4.57l2.46-2.46c-.21-.04-.41-.09-.62-.13-2.51-.54-3.58,3.32-1.06,3.86.21.04.41.09.62.13,1.47.31,2.88-.92,2.46-2.46s-.83-3.05-1.25-4.57c-1.22.51-2.44,1.03-3.66,1.54.63,1.18,1.26,2.36,1.89,3.54s2.23,1.24,3.14.4c2.61-2.39,1.68-6.06,1.19-9.12-.58-3.55-.88-7.17-.69-10.77s.95-7.15,2.56-10.36c1.53-3.07,3.47-6.07,3.14-9.66-.36-3.89-2.34-7.47-4.42-10.69-1-1.56-3.87-1.09-3.73,1.01.07,1.05-.07,2.09,0,3.13l3.41-1.41c-1.08-1.28-.39-2.81.35-4.06,1.32-2.22-2.14-4.23-3.45-2.02h0Z"/>
      <path class="cls-7" d="M166.52,139.87c-.43,8.66,2.06,18.48-2.98,26.24,1.24.34,2.48.67,3.73,1.01.59-7.95-5.34-17.45,1.81-23.85l-3.41-1.41c-.44,5.86-1.04,11.7-1.81,17.52h4c.03-.64.05-1.27.08-1.91.11-2.57-3.89-2.57-4,0-.03.64-.05,1.27-.08,1.91-.05,1.08.95,2,2,2,1.2,0,1.86-.92,2-2,.77-5.82,1.37-11.66,1.81-17.52.14-1.84-2.22-2.48-3.41-1.41-3.54,3.17-5.08,7.74-4.76,12.42s2.13,9.42,1.78,14.26c-.15,2.1,2.72,2.56,3.73,1.01,5.51-8.49,3.06-18.8,3.52-28.26.13-2.57-3.87-2.57-4,0h0Z"/>
      <path class="cls-11" d="M160.2,121.79c-1.11,3.13-2.43,6.18-3.94,9.14-.25.48-.13,1.09.36,1.37.45.26,1.12.12,1.37-.36,1.59-3.11,2.98-6.32,4.15-9.61.18-.51-.2-1.09-.7-1.23-.55-.15-1.05.19-1.23.7h0Z"/>
      <path class="cls-2" d="M71.18,188.36c5.93-.82,11.98-.06,17.59,1.95l1.33-4.82c-3.6-1.25-7.31-2.04-11.1-2.43-3.03-.31-7.3-.4-8.23,3.33-.36,1.44.47,2.54,1.75,3.08,3.87,1.62,7.86-.11,11.71-.84,3.98-.76,7.9,1.91,11.8.28,2.29-.95,2.43-3.91,0-4.82-1.88-.71-3.8-1.22-5.78-1.53s-3.44,1.08-3.08,3.08c.65,3.52,3.85,6.28,7.41,6.49,3.67.21,6.88-2.32,8.04-5.7.37-1.08-.26-2.24-1.15-2.82-2.34-1.55-6.41-.93-6.69,2.35s2.86,4.7,5.69,4.6c4.41-.16,9.25-1.93,10.67-6.52.41-1.33-.49-2.68-1.75-3.08-3.66-1.15-7.59.43-9.64,3.61-.82,1.28-.06,3.37,1.49,3.67,4.42.85,8.91-.13,12.45-2.95,3.33-2.65,5.21-6.68,5.47-10.89.12-1.84-2.23-3.18-3.76-2.16-2.22,1.49-3.85,3.71-4.28,6.38-.5,3.14,3.74,4.42,4.82,1.33,1.58-4.53,3.09-9.08,3.64-13.87.25-2.17.15-4.27.03-6.44-.07-1.33-.26-2.95.76-3.94-1.39-.37-2.79-.74-4.18-1.1.63,2.03.58,3.93-.12,5.93,1.64.22,3.27.44,4.91.66-.1-2.63-.21-5.26-.31-7.89l-1.84,2.41c.41-.09.63.03,1.01.17,1.27.47,2.74-.52,3.08-1.75.38-1.39-.47-2.61-1.75-3.08s-2.42-.43-3.67-.17c-1.03.22-1.88,1.37-1.84,2.41.1,2.63.21,5.26.31,7.89.11,2.88,3.98,3.32,4.91.66s1-5.79.12-8.59c-.56-1.81-2.79-2.43-4.18-1.1-3.34,3.2-1.89,7.98-2.1,12.05-.26,4.96-2,9.76-3.62,14.41,1.61.44,3.21.89,4.82,1.33.22-1.38.79-2.6,1.98-3.4-1.25-.72-2.51-1.44-3.76-2.16-.36,5.79-5.87,10.12-11.59,9.02l1.49,3.67c.87-1.36,2.51-1.78,3.99-1.32l-1.75-3.08c-.38,1.22-1.59,1.95-2.94,2.36-.75.23-1.5.39-2.26.45-.51.04-1.08-.05-1.57.04s-.14-.25-.12.13c.22.13.3.32.22.59-.03.48.01.53.13.14l-.64,1.1c-.44.54-.87-.03-.2.41l-1.15-2.82c-.43,1.26-1.86,2.22-3.22,2.03-1.46-.21-2.34-1.47-2.59-2.82l-3.08,3.08c1.98.32,3.9.83,5.78,1.53v-4.82c-1.75.73-3.43.13-5.2-.23-1.98-.4-3.82-.49-5.81-.19-3.21.5-6.65,2.32-9.85.98l1.75,3.08c-.03.12-.39.24-.38.37,0-.12.33-.14.38-.14.31-.03.7-.07,1.08-.06,1.32.04,2.66.18,3.97.39,2.77.43,5.48,1.13,8.12,2.05,1.28.44,2.73-.51,3.08-1.75.38-1.38-.47-2.62-1.75-3.08-6.52-2.33-13.42-2.89-20.25-1.95-1.34.19-2.07,1.9-1.75,3.08.4,1.44,1.73,1.93,3.08,1.75h0Z"/>
      <path class="cls-19" d="M72.02,184.89c6.4-1.23,12.85-2.39,19.39-1.54v-5c-7.61.77-15.21,1.55-22.82,2.32l.66,4.91c9.66-3.87,20.44-.31,30.32-3.38,2.57-.8,2.27-5.17-.66-4.91-2.55.22-4.96.99-7.04,2.5-1.9,1.38-1.4,4.67,1.26,4.66,5.5-.02,10.67-2.01,14.86-5.53,2.22-1.86-.62-5.3-3.03-3.93-1.83,1.04-3.65,2.08-5.48,3.12-1.73.99-1.59,4.21.6,4.57,3.59.58,7.19.32,10.57-1.09,1.15-.48,1.99-1.41,1.79-2.74-.17-1.12-1.2-2.31-2.46-2.17-1.67.18-3.33.37-5,.55.59,1.42,1.18,2.85,1.77,4.27,1.94-2.24,4.41-3.96,6-6.51,1.48-2.37,2.04-5.15,2.19-7.9.29-5.2-1.13-10.65.87-15.64-1.64-.22-3.27-.44-4.91-.66.28,6.23-.08,12.46-1.18,18.6,1.52-.2,3.05-.4,4.57-.6-1.32-2.77-2.72-5.8-2.69-8.93s2.08-5.07,4.19-7.04h-3.54c.36.29.73.57,1.09.86,1.06.84,2.5,1.03,3.54,0,.87-.87,1.07-2.69,0-3.54-.36-.29-.73-.57-1.09-.86-1.09-.86-2.45-1.01-3.54,0-3.02,2.82-5.43,5.86-5.64,10.16s1.61,8.19,3.36,11.87c.89,1.88,4.2,1.48,4.57-.6,1.18-6.58,1.66-13.25,1.36-19.93-.13-2.95-3.88-3.22-4.91-.66-1.98,4.94-.99,10.3-1.01,15.46,0,2.18-.19,4.46-1.27,6.41-1.32,2.39-3.73,3.94-5.5,5.98-1.26,1.45-.57,4.53,1.77,4.27,1.67-.18,3.33-.37,5-.55l-.66-4.91c-2.51,1.04-5.21,1.53-7.91,1.09l.6,4.57c1.83-1.04,3.65-2.08,5.48-3.12l-3.03-3.93c-3.16,2.66-7.21,4.05-11.32,4.07l1.26,4.66c1.35-.98,2.84-1.67,4.52-1.81l-.66-4.91c-9.86,3.07-20.58-.52-30.32,3.38-1.15.46-1.99,1.42-1.79,2.74.17,1.12,1.2,2.3,2.46,2.17,7.61-.77,15.21-1.55,22.82-2.32,3.25-.33,3.17-4.59,0-5-6.95-.9-13.91.41-20.72,1.72-1.33.26-2.08,1.85-1.75,3.08.38,1.39,1.74,2,3.08,1.75h0Z"/>
      <path class="cls-12" d="M60.84,138.18c6.22,4.29,9.3,12.49,15.77,16.41,1.44.87,3.62.98,5.05,0,2.93-2.02,4.93-5.33,7.13-8.09,2.63-3.3,5.26-6.6,7.88-9.9,3.97-4.98-3.06-12.11-7.07-7.07-2.22,2.79-4.45,5.59-6.67,8.38-1.82,2.28-3.97,6.43-6.31,8.05h5.05c-3.03-1.84-5.89-6.55-8.22-9.28s-4.61-5.11-7.55-7.13c-5.31-3.66-10.32,5-5.05,8.63h0Z"/>
      <path class="cls-15" d="M60.84,132.46c6.22,4.29,9.3,12.49,15.77,16.41,1.44.87,3.62.98,5.05,0,2.93-2.02,4.93-5.33,7.13-8.09,2.63-3.3,5.26-6.6,7.88-9.9,3.97-4.98-3.06-12.11-7.07-7.07-2.22,2.79-4.45,5.59-6.67,8.38-1.82,2.28-3.97,6.43-6.31,8.05h5.05c-3.03-1.84-5.89-6.55-8.22-9.28s-4.61-5.11-7.55-7.13c-5.31-3.66-10.32,5-5.05,8.63h0Z"/>
      <g>
        <rect class="cls-14" x="23.46" y="308.83" width="169.08" height="26.58"/>
        <path class="cls-8" d="M192.04,309.33v25.58H23.96v-25.58h168.08M193.04,308.33H22.96v27.58h170.08v-27.58h0Z"/>
      </g>
      <path class="cls-8" d="M33.61,63.96c-.46,28.42-.58,56.85-.33,85.27.24,28.26.83,56.51,1.77,84.76.53,15.95,1.17,31.89,1.92,47.84.09,1.92,3.09,1.93,3,0-1.34-28.39-2.33-56.8-2.96-85.22-.63-28.25-.91-56.51-.84-84.77.04-15.96.19-31.92.45-47.87.03-1.93-2.97-1.93-3,0h0Z"/>
      <path class="cls-8" d="M38.18,283.82c20.96,1.13,41.95,1.85,62.94,2.14,20.99.3,41.99.18,62.98-.35,11.78-.3,23.56-.73,35.33-1.29,1.92-.09,1.93-3.09,0-3-20.97,1-41.96,1.58-62.95,1.75-20.99.17-41.99-.08-62.97-.74-11.78-.37-23.55-.88-35.32-1.51-1.93-.1-1.92,2.9,0,3h0Z"/>
      <path class="cls-8" d="M35.5,63.75c19.35-2.29,38.77-4.06,58.21-5.32,19.36-1.25,38.76-1.98,58.17-2.19,10.98-.12,21.96-.07,32.95.14,1.93.04,1.93-2.96,0-3-19.48-.37-38.98-.23-58.45.44-19.39.67-38.77,1.85-58.1,3.55-10.94.96-21.87,2.09-32.77,3.38-1.89.22-1.92,3.23,0,3h0Z"/>
      <path class="cls-8" d="M212.02,50.45c-3.89.36-7.77.86-11.6,1.59-3.58.68-7.41,1.39-10.77,2.84-2.03.88-3.6,2.34-4.31,4.46-.91,2.71-.63,5.83-.67,8.63-.2,16.6-.44,33.2-.62,49.8-.36,32.32-1.22,64.74.92,97.02,1.19,17.94,3.37,35.83,7.15,53.42.27,1.26,2.2.73,1.93-.53-6.6-30.73-8.21-62.24-8.39-93.6-.19-31.88.49-63.78.89-95.65.06-4.48.11-8.96.16-13.45.03-2.38-.07-5.3,1.81-7.08,1.12-1.06,2.65-1.51,4.09-1.94,1.98-.58,3.98-1.09,6-1.53,4.42-.96,8.91-1.58,13.42-2,1.27-.12,1.28-2.12,0-2h0Z"/>
      <path class="cls-8" d="M40.53,67.98c1.93,0,1.93-3,0-3s-1.93,3,0,3h0Z"/>
      <path class="cls-8" d="M54.51,277.6c7.55,4.12,15.95,6.48,24.55,6.75,4.63.15,9.25-.26,13.86-.67s9.18-.83,13.77-1.24c18.26-1.61,36.6-2.95,54.94-2.23,10.33.41,20.62,1.49,30.75,3.53,1.89.38,2.69-2.51.8-2.89-17.85-3.6-36.12-4.27-54.27-3.6-9.06.34-18.1.99-27.13,1.75-9.16.77-18.33,1.93-27.51,2.31-9.91.41-19.5-1.53-28.24-6.3-1.7-.93-3.21,1.66-1.51,2.59h0Z"/>
      <path class="cls-8" d="M51.14,63.67c17.24.15,34.47-1.27,51.64-2.64,17.7-1.42,35.41-3.03,53.16-3.44,4.67-.11,9.44-.31,14.1.1,4.29.38,10.01,2.42,10.5,7.46.19,1.9,3.19,1.92,3,0-.41-4.19-3.39-7.44-7.19-9.04-4.31-1.81-9.19-1.61-13.77-1.61-8.73,0-17.45.42-26.15.97-18.73,1.18-37.41,3.03-56.14,4.21-9.7.62-19.43,1.07-29.15.98-1.93-.02-1.93,2.98,0,3h0Z"/>
      <path class="cls-8" d="M55.25,63.96c-.19,11.26-.26,22.51-.31,33.77-.07,15.28-.09,30.57-.07,45.85.02,16.75.08,33.5.18,50.25.1,15.7.24,31.4.46,47.09.17,11.82.35,23.63.74,35.44.04,1.07.07,2.15.11,3.22.05,1.28,2.05,1.29,2,0-.42-11.25-.61-22.51-.78-33.76-.23-15.28-.38-30.56-.49-45.84-.12-16.75-.19-33.5-.21-50.25-.03-15.7-.02-31.4.04-47.1.05-11.82.11-23.64.28-35.46.02-1.08.03-2.15.05-3.23.02-1.29-1.98-1.29-2,0h0Z"/>
      <path class="cls-8" d="M50.18,61.91c-1.55,8.23-1.54,16.48-1.17,24.81.42,9.25.54,18.49.71,27.75.34,18.96.68,37.93,1.01,56.89.19,10.73.38,21.46.57,32.19,0,.34.18.7.5.86-.41-.21-.23-.52-.31-.25.01-.04.03.2.04.43.05.64.05,1.29.06,1.93.01,1.82-.04,3.64-.09,5.46-.1,3.82-.3,7.65-.22,11.47.02.84-.16,2.61.77,3.08l-.5-.86c.07,13.43-1.14,26.84-.74,40.27.14,4.87.46,9.73.87,14.58.11,1.27,2.11,1.28,2,0-.65-7.75-1.04-15.52-.94-23.3.08-6.19.44-12.37.64-18.55.14-4.33.2-8.66.18-13,0-.34-.19-.71-.5-.86.41.21.23.52.31.25-.01.04-.03-.2-.04-.43-.05-.64-.05-1.29-.06-1.93-.01-1.82.04-3.64.09-5.46.1-3.82.3-7.65.22-11.47-.02-.84.16-2.61-.77-3.08l.5.86c-.34-18.88-.67-37.76-1.01-56.64-.17-9.4-.33-18.8-.5-28.2s-.2-18.68-.6-28-.85-18.88.92-28.26c.24-1.26-1.69-1.8-1.93-.53h0Z"/>
      <path class="cls-8" d="M49.57,276.94c-.75-17.19-1.19-34.38-1.37-51.59s.04-33.51.13-50.27c.04-7.61.08-15.22-.09-22.82-.18-8.19-.94-16.35-1.44-24.53-.65-10.81-.48-21.65-.61-32.48-.12-10.24-.1-20.58-1.11-30.78-.08-.83-.18-1.65-.29-2.48-.17-1.27-2.1-.73-1.93.53.56,4.09.7,8.25.87,12.37.22,5.57.33,11.15.41,16.73.15,10.13-.02,20.28.37,30.41.32,8.16,1.11,16.29,1.51,24.45s.34,15.51.32,23.26c-.03,16.4-.32,32.79-.21,49.18.11,17.19.48,34.37,1.16,51.55.08,2.16.17,4.32.27,6.48.06,1.28,2.06,1.29,2,0h0Z"/>
      <path class="cls-8" d="M40.62,66.28c-.6,20.88-.1,41.68.89,62.54.81,17.19,1.73,34.36,1.67,51.58,0,1.42-.02,2.84-.07,4.25-.02.47-.03.93-.07,1.4-.02.24,0,.73-.1.75.08-.01.5-.86.18-.31-.2.34-.14.09-.27.47-.05.15-.06.35-.08.5-.05.41-.07.83-.09,1.24-.22,4.25-.22,8.52-.26,12.78-.16,14.77-.16,29.55-.1,44.32.03,6.59.07,13.18.16,19.76.05,3.42-.06,6.91.29,10.32.04.38.06.85.37,1.12.97.84,2.39-.57,1.41-1.41-.02-.02.35.51.23.36-.06-.07.05-.37,0,.1.01-.15-.03-.33-.04-.48-.03-.53-.06-1.06-.08-1.59-.07-1.89-.11-3.78-.14-5.67-.11-6.09-.15-12.17-.18-18.26-.08-14.93-.08-29.86.04-44.79.04-4.97.07-9.95.23-14.92.02-.64.04-1.27.08-1.91.01-.21.03-.41.04-.61,0-.08.02-.17.02-.25,0-.21-.06.06,0,.04.01,0,.01-.09.02-.1-.12.13-.56.99-.21.37.18-.3.3-.52.37-.87.18-.92.16-1.89.19-2.82.45-15.77-.48-31.62-1.23-47.37-.98-20.6-1.87-41.17-1.48-61.79.06-2.92.13-5.84.21-8.75.04-1.29-1.96-1.29-2,0h0Z"/>
      <path class="cls-8" d="M124.11,94.78c.06-.4.1-.78.05-1.18s-.12-.78-.27-1.15c-.03-.13-.09-.24-.18-.34-.07-.11-.16-.19-.28-.26-.21-.13-.53-.18-.77-.1s-.48.23-.6.46-.2.53-.1.77c.11.27.19.55.23.84l-.04-.27c.04.3.04.6,0,.9l.04-.27s0,.04,0,.06c-.04.13-.05.27-.02.4,0,.13.05.26.12.37.12.21.36.41.6.46.26.06.54.05.77-.1.2-.13.42-.35.46-.6h0Z"/>
      <path class="cls-8" d="M113.22,90.25c-.24,1,.41,1.81,1.01,2.55.62.77,1.36,1.36,2.34,1.61s2.03.2,3.03.16c1.2-.05,2.4-.15,3.59-.31.63-.08.64-1.08,0-1-1.82.24-3.74.45-5.58.31-.82-.07-1.58-.32-2.17-.91-.48-.47-1.43-1.4-1.25-2.14.15-.63-.81-.89-.96-.27h0Z"/>
      <g>
        <path class="cls-8" d="M103.79,103.87c-2.51,2.52-4.05,5.74-5.08,9.11-.52,1.71-.92,3.45-1.28,5.2-.32,1.56-.81,3.29-.36,4.87,1.05,3.68,5.67,2.31,8.2,1.27,2.94-1.2,5.59-3.09,7.67-5.49,2.4-2.76,4.07-6.11,4.68-9.72.21-1.26-1.72-1.8-1.93-.53-.91,5.4-4.3,10.16-9.05,12.87-1.19.68-2.45,1.22-3.76,1.6-1.12.32-3.26,1.05-3.85-.41-.49-1.21.1-2.88.35-4.08.3-1.44.63-2.88,1.03-4.29.94-3.31,2.32-6.51,4.78-8.98.91-.91-.5-2.33-1.41-1.41h0Z"/>
        <path class="cls-8" d="M117.56,108.13c-.37-1.23.38-2.37,1.01-3.38.75-1.2,1.25-2.37,1.59-3.75.6-2.39,1.8-4.41,3.73-5.96.42-.34.35-1.06,0-1.41-.41-.42-1-.34-1.41,0-2.18,1.75-3.57,4.15-4.24,6.84-.18.72-.35,1.44-.7,2.1s-.77,1.27-1.14,1.91c-.73,1.27-1.19,2.73-.76,4.18.37,1.23,2.3.71,1.93-.53h0Z"/>
        <path class="cls-8" d="M105.17,104.83c1.05-.65,1.87-1.57,2.34-2.71.53-1.28.25-2.73.8-3.98s1.53-2.5,2.29-3.69c.42-.65.82-1.3,1.25-1.94.3-.45.63-.95,1.18-1.11,1.23-.36.71-2.3-.53-1.93-1.34.4-2.05,1.53-2.77,2.64-.85,1.32-1.71,2.64-2.54,3.96-.37.58-.71,1.19-.92,1.85-.22.71-.24,1.46-.31,2.2-.12,1.25-.71,2.32-1.79,2.98s-.09,2.4,1.01,1.73h0Z"/>
        <path class="cls-8" d="M122.95,95.49c9.2-1.14,18.92.76,26.77,5.8,2.15,1.38,3.45,3.21,4.53,5.5.11.23.35.53.33.78-.03.34-.02.17-.32.4-.46.35-1.16.55-1.69.75-1.06.38-2.16.65-3.26.84-2.31.39-4.68.41-7.02.38-2.4-.04-4.89.09-6.98-1.27-2.25-1.46-4.23-3.56-6.13-5.43s-3.83-3.94-5.63-6.02c-.84-.98-2.25.44-1.41,1.41,1.89,2.2,3.88,4.32,5.95,6.35,1.9,1.85,3.84,3.81,6.04,5.31s4.72,1.59,7.3,1.64c2.67.06,5.35.04,7.99-.36,1.25-.19,2.49-.48,3.68-.91,1.03-.37,2.44-.8,3.19-1.64.67-.75.41-1.62.05-2.44-.55-1.25-1.15-2.5-1.94-3.62-1.54-2.18-3.79-3.57-6.11-4.8-2.38-1.26-4.88-2.3-7.45-3.09-5.77-1.78-11.9-2.31-17.88-1.57-1.26.16-1.28,2.16,0,2h0Z"/>
        <path class="cls-8" d="M113.25,90.35c.5-2.48-1.03-4.39-2.54-6.18-1.72-2.02-3.53-3.96-5.44-5.8s-3.92-3.58-6.01-5.21c-1.93-1.52-3.93-2.98-6.22-3.91-1.71-.7-4.91-1.66-6.55-.36-.76.6-.74,1.52-.73,2.4.02,1.51.09,3.02.24,4.52.47,4.7,2.08,9.64,6.23,12.34,2.35,1.53,5.19,2.05,7.9,2.58,3.24.63,6.5,1.16,9.76,1.69,1.26.21,1.8-1.72.53-1.93-4.46-.73-9.03-1.31-13.4-2.49-2.03-.55-3.92-1.39-5.39-2.93-1.38-1.44-2.3-3.28-2.86-5.18-.67-2.25-.87-4.6-.96-6.93-.02-.55-.06-1.11-.05-1.67.02-.74,0-.92.79-.94,1.09-.04,2.16.18,3.18.53,3.98,1.37,7.45,4.62,10.51,7.4,1.75,1.59,3.42,3.25,5.01,4.99.85.92,1.68,1.86,2.47,2.83.85,1.03,1.89,2.3,1.6,3.73-.25,1.26,1.68,1.79,1.93.53h0Z"/>
        <path class="cls-8" d="M112.21,90.6c.62-.21,1.25-.36,1.89-.45l-.27.04c.56-.07,1.12-.1,1.68-.08.52.02,1.02-.47,1-1-.02-.56-.44-.98-1-1-1.3-.04-2.61.15-3.84.57-.49.17-.87.69-.7,1.23.16.49.7.88,1.23.7h0Z"/>
        <path class="cls-8" d="M113.65,89.57c.72-.54,1.48-1.03,2.27-1.46.39-.21.79-.41,1.19-.59.1-.05.21-.09.31-.14-.22.09.12-.05.16-.06.21-.08.43-.16.64-.24.49-.17.87-.69.7-1.23-.16-.48-.7-.89-1.23-.7-1.81.64-3.51,1.53-5.05,2.69-.22.16-.38.33-.46.6-.07.24-.04.56.1.77.27.41.92.69,1.37.36h0Z"/>
        <path class="cls-8" d="M124.64,93.67v-5.26c0-.52-.46-1.02-1-1s-1,.44-1,1v5.26c0,.52.46,1.02,1,1s1-.44,1-1h0Z"/>
        <path class="cls-8" d="M122.61,83.29c-1.05-.07-2.13.19-3.04.71s-1.74,1.59-1.33,2.65c.26.66.8.97,1.42,1.23.48.2.98.36,1.49.44,1.11.17,2.35.16,3.12-.8.6-.75.99-1.83,1.02-2.79.04-1.35-1.1-2.02-2.23-2.39-1.07-.35-2.21-.4-3.31-.21-.95.16-1.97.64-2.41,1.55-.53,1.1-.24,2.4.57,3.29s2.02,1.19,3.15,1.24c.52.02,1.02-.48,1-1-.03-.56-.44-.97-1-1-.09,0-.18-.01-.27-.02-.29-.01.19.04-.1,0-.15-.03-.3-.06-.44-.1-.07-.02-.14-.04-.22-.07-.05-.02-.23-.09-.05-.01-.16-.07-.32-.16-.47-.26.17.11-.05-.05-.08-.07-.05-.05-.1-.1-.15-.15-.1-.1.1.19-.02-.03-.04-.07-.08-.14-.12-.21-.09-.16-.01-.03,0,.01-.03-.08-.05-.16-.07-.24-.01-.06-.02-.3-.02-.06,0-.08,0-.16,0-.24,0-.24-.06.18.01-.05.02-.05.03-.1.05-.15-.08.22.02,0,.04-.05l.05-.07c-.07.09-.06.09.01,0,.02,0,.16-.15,0,0,.07-.05.14-.1.22-.14,0,0,.25-.12.11-.06-.1.05.18-.06.21-.07.14-.04.28-.07.42-.1,0,0,.34-.05.15-.02.09,0,.17-.02.26-.02.19-.01.38-.02.57,0,.07,0,.14,0,.21.01.04,0,.41.05.25.02.34.05.68.14,1.01.25.1.03.2.07.29.11-.15-.07.11.06.11.06.05.03.1.06.16.09.1.06.1.06.01,0,.04.04.09.08.12.12-.15-.17,0,.09-.03-.02-.04-.12-.01.22-.01-.02,0,.02-.03.32,0,.12-.01.06-.02.13-.04.19-.04.17-.08.34-.13.5-.02.05-.03.11-.05.16-.01.04-.15.37-.05.15-.06.12-.12.24-.19.36-.03.04-.19.22-.03.05-.03.04-.07.08-.11.11-.14.17.16-.07-.04.04,0,0-.22.11-.1.06.13-.05-.18.04-.17.04.09-.01.08-.01-.05,0-.07,0-.14,0-.21,0-.17,0-.34-.01-.51-.04.17.02-.05,0-.09-.02-.08-.01-.17-.03-.25-.05-.17-.04-.33-.08-.49-.13-.1-.03-.19-.07-.29-.1-.11-.04-.13-.05-.04-.02-.05-.02-.09-.04-.14-.06-.08-.04-.15-.08-.22-.11-.1-.06-.11-.07-.04,0,.04.05.07.11.08.18-.02-.06-.03-.18,0,.06,0-.11,0-.1,0,.05.03-.1.03-.1-.02.02.03-.05.05-.09.08-.14.06-.09.06-.09,0,0,.04-.04.07-.08.11-.12,0,0,.21-.17.09-.08-.1.07.17-.1.2-.12.08-.05.17-.09.26-.14.03-.02.29-.12.12-.06.18-.07.37-.13.56-.17.1-.02.19-.04.29-.06.23-.04-.09,0,.12-.01.23,0,.45-.02.68,0,.52.03,1.02-.48,1-1-.03-.57-.44-.96-1-1h0Z"/>
        <path class="cls-8" d="M124.23,84.39c4.91-.53,9.79-1.37,14.59-2.53.63-.15.36-1.11-.27-.96-4.72,1.13-9.5,1.97-14.32,2.49-.63.07-.64,1.07,0,1h0Z"/>
        <path class="cls-8" d="M121.59,82.47c-.54-1.85-1.27-3.65-1.89-5.47s-1.26-3.68-1.33-5.6c-.02-.64-1.02-.64-1,0,.07,1.95.69,3.86,1.31,5.7s1.39,3.73,1.95,5.64c.18.62,1.15.35.96-.27h0Z"/>
        <path class="cls-8" d="M110.89,92.17c0,.52-.07,1.08,0,1.6.06.44.34.64.71.85.83.47,1.44,1.2,2.34,1.56s2.02.42,3.01.49c1.16.09,2.32.12,3.48.09.64-.02.64-1.02,0-1-.96.02-1.91.01-2.87-.05s-1.87-.1-2.76-.32c-.82-.2-1.39-.7-2.05-1.21-.15-.11-.3-.23-.45-.33-.13-.08-.36-.15-.41-.27-.07-.15,0-.49,0-.66v-.77c0-.64-.99-.64-1,0h0Z"/>
        <path class="cls-8" d="M108.49,97.19h1.49c.25,0,.5-.02.74,0,.26.02.43.15.64.28.68.43,1.45.7,2.23.89,1.52.37,3.28.44,4.57,1.44.5.39,1.21-.31.71-.71-1.42-1.11-3.16-1.27-4.86-1.66-.89-.21-1.6-.54-2.39-.99-.43-.24-.87-.25-1.35-.25h-1.77c-.64,0-.64,1.01,0,1h0Z"/>
        <path class="cls-8" d="M107.94,99.9c.46-.09.92-.15,1.39-.16.26,0,.54-.03.79.03.21.05.37.2.54.33.69.55,1.43,1.02,2.23,1.38s1.62.55,2.38.92c.67.32,1.41.97,1.19,1.79-.17.62.8.89.96.27.24-.9-.15-1.81-.85-2.4-.82-.69-1.89-.9-2.86-1.29-1.03-.42-1.85-1.05-2.75-1.68s-2.3-.35-3.3-.15c-.63.12-.36,1.09.27.96h0Z"/>
        <path class="cls-8" d="M114.16,89.48c-.17,1.05.53,1.71,1.13,2.47.35.44.54.92.7,1.46.14.5.39.78.92.83,1.94.2,4.21.22,5.83-1.03.44-.34.2-1.02-.39-.91-1.66.31-3.33.58-5.01.79l.35.85c.63-.63,1.67-.81,2.51-.99,1.01-.22,2.04-.31,3.08-.3l-.25-.93c-1.75.81-3.81,1.32-5.7.7-1.49-.49-2.73-1.7-2.99-3.28-.1-.6-.93-.38-.98.13-.1.99.53,1.8,1.08,2.56.62.85,1.25,1.7,1.92,2.51.41.49,1.12-.22.71-.71-.58-.7-1.13-1.43-1.66-2.17-.47-.64-1.12-1.35-1.04-2.19l-.98.13c.3,1.88,1.82,3.31,3.56,3.94,2.17.78,4.57.18,6.6-.75.47-.22.21-.93-.25-.93-1.18,0-2.37.12-3.52.38-.98.22-2.04.48-2.78,1.21-.28.28-.09.91.35.85,1.77-.23,3.53-.51,5.28-.83l-.39-.91c-1.34,1.03-3.06,1.04-4.67.94-.14,0-.47.03-.59-.04.05.03,0-.05-.02-.1-.04-.09-.05-.21-.08-.31-.12-.39-.3-.78-.52-1.13-.35-.53-1.34-1.25-1.23-1.97.1-.63-.86-.9-.96-.27h0Z"/>
        <path class="cls-8" d="M104.82,105.5c1.93-.17,3.65.79,5.28,1.7,1.59.88,3.18,1.78,4.46,3.09.9.92,2.31-.49,1.41-1.41-1.44-1.48-3.23-2.5-5.02-3.49-1.88-1.04-3.92-2.08-6.13-1.88-.54.05-1,.42-1,1,0,.5.46,1.05,1,1h0Z"/>
        <path class="cls-8" d="M102.68,109.39c.86-.12,1.82.62,2.52,1.02.91.52,1.81,1.05,2.67,1.64,1.63,1.13,2.9,2.7,4.62,3.71,1.11.65,2.12-1.08,1.01-1.73-.9-.53-1.64-1.23-2.41-1.93-.84-.77-1.73-1.47-2.68-2.09s-1.89-1.16-2.85-1.7c-1.09-.61-2.14-1.03-3.4-.85-.54.08-.83.76-.7,1.23.16.58.69.77,1.23.7h0Z"/>
        <path class="cls-8" d="M99.82,113.66c.88,1.62,2.67,2.69,4.22,3.58,1.66.94,3.44,1.68,5.27,2.19,1.24.35,1.77-1.58.53-1.93-1.63-.46-3.18-1.09-4.66-1.92-.73-.41-1.43-.85-2.1-1.34-.61-.44-1.17-.93-1.54-1.6-.62-1.13-2.34-.12-1.73,1.01h0Z"/>
        <path class="cls-8" d="M98,119.3c.01,1.65,1.42,2.82,2.73,3.59s2.88,1.21,4.44,1.28c.52.02,1.02-.48,1-1-.03-.56-.44-.98-1-1-.16,0-.31-.02-.47-.03-.07,0-.14-.01-.21-.02-.07,0-.07,0,0,0l-.1-.02c-.29-.05-.58-.11-.87-.19-.66-.18-1.03-.33-1.6-.64-.26-.14-.51-.3-.76-.47-.07-.05-.14-.1-.21-.15-.14-.1.08.07-.04-.03-.11-.09-.22-.19-.33-.29s-.21-.21-.3-.32c-.1-.12.07.1-.02-.03-.04-.05-.07-.11-.1-.16-.04-.07-.08-.14-.11-.21.04.09.02.05,0-.02,0-.02-.07-.26-.04-.14.02.12,0-.14,0-.15,0-.52-.46-1.02-1-1s-1,.44-1,1h0Z"/>
        <path class="cls-8" d="M116.56,105.96c.28,2.32,1.44,4.43,2.39,6.54s1.81,4.57,3.25,6.47c1.31,1.73,3.3,2.84,5.25,3.7,2.1.93,4.31,1.57,6.55,2.08.89.21,1.91.47,2.74-.08s1-1.63,1.13-2.53c.34-2.39.33-4.81-.06-7.19-.17-1.01-.41-2.08-1-2.94s-1.41-1.35-2.31-1.78c-1.78-.87-3.55-1.75-5.19-2.86-1.9-1.28-3.61-2.86-4.83-4.8-1.07-1.7-1.89-4.72-4.37-4.71-.64,0-.64,1,0,1,1.02,0,1.69.92,2.15,1.71.49.85.88,1.75,1.41,2.58.94,1.48,2.15,2.77,3.51,3.87,1.36,1.1,2.85,2.02,4.39,2.85.77.41,1.55.79,2.34,1.17.86.42,1.7.86,2.19,1.72s.68,1.93.81,2.91c.16,1.12.22,2.26.21,3.39s-.09,2.25-.3,3.35c-.08.43-.16.92-.46,1.25-.38.42-.97.35-1.48.25-1.99-.39-3.99-.96-5.89-1.69-1.9-.73-3.92-1.68-5.37-3.15-1.65-1.66-2.45-4.11-3.4-6.2-.51-1.13-1.03-2.26-1.54-3.4s-.97-2.29-1.12-3.53c-.08-.63-1.08-.64-1,0h0Z"/>
        <path class="cls-8" d="M108.79,91.38c-2.82,1.02-5.86.88-8.72.11-2.83-.76-5.66-1.98-8.18-3.48-.62-.37-1.19-.79-1.77-1.23-.48-.36-.98-.71-1.57-.84-1.16-.25-2.44.24-3.45.79-2.05,1.11-3.65,3.14-4.27,5.38s.36,4.59,1.9,6.16c1.18,1.2,2.72,2,4.26,2.64,3.57,1.49,7.5,2.21,11.35,2.53,1.56.13,3.1.28,4.6-.25,1.63-.57,3.27-1.31,4.82-1.95.59-.24.33-1.21-.27-.96-1.32.55-2.62,1.12-3.95,1.63-.61.23-1.25.53-1.9.63-.49.08-1.2.02-1.75,0-3.53-.14-7.11-.74-10.48-1.81-3.28-1.04-7.12-2.78-7.73-6.61-.38-2.35,1.45-4.92,3.32-6.16.92-.62,2.37-1.37,3.5-1.01.57.19,1.04.63,1.52.99.56.42,1.14.8,1.75,1.14,2.6,1.47,5.47,2.72,8.37,3.45,2.93.74,6.05.85,8.92-.19.6-.22.34-1.18-.27-.96h0Z"/>
      </g>
      <path class="cls-8" d="M131.85,202.49c1.67,12.52,3.33,25.04,5,37.56.2,1.53.4,3.06.61,4.58.16,1.16.47,2.22,1.42,2.98,1.6,1.28,3.93,1.35,5.88,1.25,2.59-.13,5.14-.7,7.7-1.09,3.05-.46,6.12-.81,9.2-1.07,6.93-.58,13.9-.66,20.84-.26.27.02.5-.24.5-.5-.14-13.12-3.99-25.94-3.59-39.08.11-3.74.61-7.45,1.6-11.07.09-.33-.16-.61-.48-.63-9.3-.72-18.63-1.09-27.96-1.1-4.62,0-9.26.04-13.88.25-1.64.08-3.6.19-4.91,1.31-1.44,1.22-1.28,3.4-1.36,5.11-.24,5.27-.03,10.56.6,15.8.08.63,1.08.64,1,0-.53-4.42-.77-8.88-.68-13.33.02-1.15.07-2.31.13-3.46.05-.89.01-1.9.43-2.7.83-1.59,3.24-1.65,4.79-1.72,8.91-.42,17.86-.33,26.77-.01,5.03.18,10.06.47,15.07.86l-.48-.63c-3.55,12.97-.46,26.28,1.13,39.29.45,3.69.78,7.4.82,11.12l.5-.5c-5.98-.34-11.97-.33-17.94.05-2.97.19-5.94.47-8.9.84-2.73.34-5.43.83-8.15,1.24-2.14.32-4.54.6-6.64-.05-1.01-.31-1.88-.92-2.21-1.97-.2-.65-.25-1.36-.33-2.03l-.3-2.22c-.81-6.1-1.62-12.19-2.43-18.29-.91-6.84-1.82-13.67-2.73-20.51-.08-.63-1.08-.64-1,0h0Z"/>
      <path class="cls-8" d="M64.66,205.77c15.49.18,30.98.19,46.47.01,4.41-.05,8.83-.12,13.24-.2.64-.01.64-1.01,0-1-15.49.28-30.98.38-46.47.3-4.41-.02-8.83-.06-13.24-.11-.64,0-.64.99,0,1h0Z"/>
      <path class="cls-8" d="M66.3,217.26c12.02-.91,24.07-1.4,36.12-1.49,3.39-.03,6.78-.02,10.17.02.64,0,.64-.99,0-1-12.06-.14-24.13.13-36.17.8-3.37.19-6.75.41-10.12.67-.64.05-.64,1.05,0,1h0Z"/>
      <path class="cls-8" d="M69.53,227.42c13.7-.08,27.39-.17,41.09-.25,3.9-.02,7.8-.05,11.71-.07.64,0,.64-1,0-1-13.7.08-27.39.17-41.09.25-3.9.02-7.8.05-11.71.07-.64,0-.64,1,0,1h0Z"/>
      <path class="cls-8" d="M74.41,236.85h51.99c.64,0,.64-1,0-1-13.5,0-26.99,0-40.49,0h-11.5c-.64,0-.64,1,0,1h0Z"/>
      <path class="cls-8" d="M74.81,246.44c13.96.08,27.93.16,41.89.24,3.91.02,7.81.04,11.72.07.64,0,.64-1,0-1-13.96-.08-27.93-.16-41.89-.24-3.91-.02-7.81-.04-11.72-.07-.64,0-.64,1,0,1h0Z"/>
      <path class="cls-8" d="M76.03,258.6c12.99-.1,25.98-.19,38.96-.29,12.99-.1,25.98-.19,38.96-.29,7.33-.05,14.65-.11,21.98-.16.64,0,.64-1,0-1-12.99.1-25.98.19-38.96.29-12.99.1-25.98.19-38.96.29-7.33.05-14.65.11-21.98.16-.64,0-.64,1,0,1h0Z"/>
      <path class="cls-8" d="M74.41,269.65c14.09-.02,28.17-.31,42.25-.87,14.05-.56,28.09-1.38,42.11-2.48,3.59-.28,7.19-.66,10.79-.65,3.28.01,6.69.34,9.68,1.8.58.28,1.08-.58.5-.86-5.36-2.63-11.76-2.03-17.52-1.57-7.08.57-14.17,1.08-21.27,1.52-14.17.87-28.36,1.48-42.55,1.81-8,.19-15.99.28-23.99.3-.64,0-.64,1,0,1h0Z"/>
      <path class="cls-8" d="M69.96,179.89c-2.8,1.05-3.8,4.78-2.19,7.23.89,1.35,2.36,2.23,3.92,2.54.8.16,1.61.19,2.41.07.97-.14,1.86-.52,2.78-.83,1.12-.38,2.16-.49,3.32-.2,1.07.26,2.08.7,3.13,1.01,2.13.62,4.35.85,6.55.96,4.15.21,8.4.38,12.54-.15,3.83-.49,7.57-1.69,10.61-4.15,2.77-2.23,4.83-5.33,5.88-8.73.55-1.81.78-3.68.75-5.57-.03-2.3-.36-4.58-.29-6.88s.74-4.34,1.65-6.41c.78-1.77,1.67-3.55,2.04-5.46.57-2.95-.03-6.75-3.08-8.12-1.57-.71-3.44-.56-4.95.23-1.55.81-2.64,2.31-3.15,3.96-.27.86-.37,1.77-.34,2.68.02.64,1.02.64,1,0-.06-1.7.43-3.46,1.61-4.72s2.91-1.86,4.57-1.51c3.25.7,3.91,4.53,3.35,7.31-.73,3.61-3.08,6.66-3.57,10.35-.53,3.96.62,7.94-.08,11.89-.57,3.25-2.12,6.3-4.38,8.7-2.44,2.59-5.6,4.19-9.04,4.99-3.65.84-7.44.84-11.16.74-1.98-.05-3.96-.09-5.93-.27-2.01-.19-3.92-.62-5.82-1.28-.89-.31-1.79-.61-2.73-.7s-1.85.1-2.73.4c-1.65.56-3.15,1.13-4.91.71-1.44-.35-2.84-1.26-3.43-2.67-.51-1.24-.33-2.76.41-3.87.37-.56.9-1,1.53-1.24.6-.22.34-1.19-.27-.96h0Z"/>
      <path class="cls-8" d="M70.82,180.62c2.31-.23,4.64-.25,6.95-.03,1.17.11,2.33.29,3.48.52s2.26.6,3.41.8c.97.17,1.91.13,2.83-.25.86-.36,1.61-.93,2.4-1.41,1.94-1.18,4.1-1.06,6.28-1.16,2.31-.11,4.52-.72,6.72-1.39,1.57-.48,3.15-1.02,4.59-1.84,1.35-.78,2.59-1.85,3.24-3.3.85-1.9.43-3.94-.08-5.87-.33-1.24-.62-2.47-.72-3.75s-.05-2.61.1-3.9c.31-2.7,1.04-5.34,1.77-7.96.17-.62-.79-.89-.96-.27-1.19,4.27-2.4,8.73-1.79,13.2.29,2.12,1.27,4.19,1.19,6.35-.07,1.75-1.08,3.16-2.47,4.14s-2.92,1.54-4.48,2.04c-2.06.65-4.18,1.32-6.33,1.5-2.02.18-4.13-.06-6.07.63-1.76.63-3.2,2.38-5.17,2.36-1.26-.01-2.5-.51-3.72-.77s-2.41-.45-3.62-.59c-2.5-.28-5.03-.28-7.54-.03-.63.06-.64,1.07,0,1h0Z"/>
      <path class="cls-8" d="M69.48,184.07c2.55.15,5.11.3,7.66.45,2.53.15,5.07.4,7.6.36,1.24-.02,2.46-.16,3.67-.42s2.35-.5,3.58-.43c1.21.08,2.4.31,3.62.28,1.16-.02,2.31-.21,3.45-.42,1.21-.23,2.41-.49,3.64-.62s2.43-.09,3.64-.16c1.97-.1,4.09-.51,5.54-1.97,1.5-1.5,1.52-3.63,1.77-5.6.14-1.07.43-2.04.97-2.97s1.22-1.8,1.69-2.78c1.11-2.31.65-5.06.45-7.52-.11-1.35-.27-2.7-.53-4.03-.23-1.17-.91-3.07.48-3.78.57-.29.07-1.16-.5-.86-2.13,1.08-1.11,3.83-.81,5.61.4,2.36.62,4.86.61,7.26,0,1.21-.24,2.3-.84,3.36-.5.89-1.13,1.7-1.61,2.59-1.01,1.89-.8,3.95-1.3,5.97-.54,2.16-2.34,3.23-4.43,3.58-1.23.2-2.48.17-3.72.21-1.17.04-2.33.19-3.48.4-1.15.21-2.3.47-3.47.61-1.22.16-2.42.13-3.64,0s-2.32-.24-3.49-.07-2.37.54-3.59.67c-2.74.29-5.56-.05-8.31-.21-2.88-.17-5.77-.34-8.65-.51-.64-.04-.64.96,0,1h0Z"/>
      <path class="cls-8" d="M115.23,148.78c-.23.1-.36.37-.37.61,0,.22.09.44.24.59.32.3.83.29,1.24.23.44-.06.87-.33.95-.8.05-.28,0-.54-.2-.75-.13-.14-.31-.22-.48-.3-.36-.17-.77-.33-1.18-.28s-.8.24-1.03.6-.19.85.06,1.2.63.55,1.05.62c.24.04.49.06.73.01.28-.06.53-.27.6-.56s-.03-.59-.22-.81c-.17-.19-.41-.28-.64-.35-.25-.08-.56.09-.62.35-.06.28.08.53.35.62.03,0,.06.02.09.03.01,0,.11.05.03,0s.02,0,.03.01c0,0,.08.05.08.05,0,0-.1-.07-.03-.02s-.06-.1-.01-.01c0,0-.04-.12-.02-.04.01.05.01.04,0-.05,0,.05,0,.04.01-.05,0,.04-.04.06.02-.05l.04-.06c.07-.05.08-.06.04-.03.13-.06.08-.03.05-.02h-.03c-.05.02-.04.02.05,0-.03,0-.34,0-.34-.01,0,0,.12.02.02,0-.03,0-.05-.01-.08-.02-.05-.01-.11-.03-.16-.05-.11-.03.1.05,0,0-.02-.01-.04-.02-.06-.03,0,0-.07-.05-.08-.05.06.05.07.06.04.03-.01,0-.02-.02-.03-.03,0,0-.05-.06-.06-.07.03,0,.06.09.02.03-.02-.03-.03-.05-.05-.08-.05-.08.03.09,0,.02,0-.02-.01-.05-.02-.07-.03-.1,0,.12,0,.02,0-.02,0-.04,0-.06-.01.08-.02.1,0,.05,0-.01,0-.03.01-.04.01-.06.05-.03-.02.03.01-.01.03-.05.04-.07.03-.05.03,0-.03.04.02,0,.04-.04.06-.06.05-.05-.03.02-.04.03.02,0,.05-.03.07-.04.02-.01.04-.02.06-.03.03-.02.02,0-.06.02.02,0,.03-.01.05-.02.04-.01.09-.02.13-.03-.09.04-.1.01-.04,0,.03,0,.05,0,.08,0,.01,0,.1,0,.11,0,0,0-.13-.02-.03,0,.07.01.14.03.2.05.06.02.11.04.17.06.12.04-.1-.05.01,0,.02,0,.04.02.07.03.06.03.12.05.17.08.02.01.04.02.07.03.01,0,.13.07.05.02l-.03-.02s.03.03-.02-.04c.05.08-.02-.12,0-.03,0,0,0-.14,0-.06,0,.1.04-.12,0-.03,0,.01-.02.04-.02.05l.03-.07s-.02.03-.03.05c0-.06.07-.08.03-.04-.1.09.07-.03,0,0,0,0-.06.03-.06.03.07-.03.08-.03.03-.01-.02,0-.04.01-.06.02,0,0-.06.01-.06.01.08,0,.09-.01.03,0-.02,0-.04,0-.07,0-.07,0-.13,0-.2,0-.02,0-.04,0-.06,0-.02,0-.1-.02-.12,0,0,0,.13.03.04,0-.02,0-.04,0-.06-.01-.05-.02-.04-.01.04.02,0,0-.05-.03-.05-.03.05.03.09.06.11.11,0,0-.01-.02-.02-.03-.03-.05.04.13.02.05,0,.1.01.12,0,.07,0-.04,0-.03,0,.02v.05s0-.03-.03.06c-.06.07-.08.09-.04.05-.08.05-.09.07-.05.05.11-.05.2-.19.23-.3.03-.12.02-.28-.05-.39s-.17-.2-.3-.23c-.14-.03-.25,0-.39.05h0Z"/>
      <path class="cls-8" d="M160.21,120.86c.44,2.1-.08,4.19-.83,6.15s-1.67,3.81-2.48,5.73c-1.6,3.8-3,7.68-4.05,11.66s-1.77,8-1.95,12.08c-.08,1.88,0,3.8.52,5.61.46,1.57,1.28,2.95,2.36,4.17,2.24,2.54,5.61,4.47,6.63,7.89.08.27.35.41.62.35,1.63-.38,2.85-1.62,3.51-3.12.77-1.74.79-3.61.42-5.45-.45-2.24-1.37-4.34-1.87-6.57-.53-2.37-.71-4.8-.8-7.22-.09-2.27-.22-4.59.99-6.62,1.07-1.8,2.64-3.26,3.79-5.02,2.15-3.32,3.41-7.55,1.83-11.36-.88-2.12-2.47-3.89-3.21-6.08-.66-1.94-.55-4.21-2.11-5.74-.17-.17-.4-.18-.61-.08-1.05.51-1.77,1.59-2.35,2.56-.86,1.45-1.51,3.04-2.09,4.62-1.34,3.61-2.34,7.36-3.27,11.09-.4,1.59-.77,3.18-1.17,4.76-.16.62.81.89.96.27.77-3.05,1.48-6.12,2.32-9.15.97-3.5,2-7.09,3.69-10.32.56-1.08,1.27-2.4,2.41-2.96l-.61-.08c1.32,1.3,1.26,3.34,1.76,5.01.55,1.83,1.69,3.37,2.62,5.01,1,1.77,1.52,3.62,1.34,5.66s-.94,3.87-1.94,5.57-2.41,3.17-3.59,4.78-1.76,3.48-1.8,5.54c-.08,4.43.41,8.88,1.77,13.09.7,2.16,1.55,4.52,1.08,6.82-.36,1.8-1.44,3.56-3.33,4.01l.62.35c-.89-2.99-3.41-4.91-5.56-6.97-1.15-1.1-2.24-2.28-2.92-3.74-.82-1.75-1.02-3.72-1.01-5.63.02-4.11.76-8.24,1.77-12.21,1.01-3.99,2.38-7.89,3.96-11.69.9-2.17,1.96-4.28,2.79-6.48.8-2.11,1.26-4.33.79-6.57-.13-.63-1.1-.36-.96.27h0Z"/>
      <path class="cls-8" d="M168.6,133.06c-.48,5.53.95,10.97,1.54,16.43.29,2.69.39,5.45-.13,8.12s-1.73,5.12-3.08,7.47c-1.5,2.61-3.14,5.16-4.24,7.98-.23.6.73.86.96.27,1.98-5.07,5.83-9.27,7.14-14.62,1.3-5.33.14-10.85-.65-16.17-.46-3.13-.82-6.3-.55-9.47.06-.64-.95-.64-1,0h0Z"/>
      <path class="cls-8" d="M117.25,173.69l1.26-.02s.32.01.33,0c-.04.13-.53-.42-.39-.22.06.08-.05-.14.02.05.04.09.07.18.11.28.3.71.63,1.4,1.02,2.06.77,1.28,1.72,2.46,2.82,3.47.38.35,1.04.41,1.41,0,.35-.39.41-1.04,0-1.41-.56-.52-1.08-1.08-1.56-1.67-.14-.17.03.05-.09-.11-.06-.08-.12-.16-.18-.24-.12-.16-.23-.33-.34-.49-.21-.32-.41-.65-.59-.98s-.36-.68-.51-1.02c-.13-.29-.2-.62-.44-1-.6-.96-1.91-.7-2.88-.69-.52,0-1.02.46-1,1s.44,1.01,1,1h0Z"/>
      <path class="cls-8" d="M115.03,182.12c.55-.34,1.17-.74,1.8-.73.57,0,.9.6,1.32,1.06,1.02,1.13,2.3,2.05,3.69,2.66.49.22,1.07.14,1.37-.36.25-.43.14-1.15-.36-1.37-.71-.31-1.39-.7-2.01-1.17-.67-.51-1.21-1.13-1.77-1.76-.62-.71-1.48-1.13-2.43-1.06s-1.8.5-2.62,1c-1.1.67-.09,2.4,1.01,1.73h0Z"/>
      <path class="cls-8" d="M109.66,186.44c.15.04.3.09.44.14.11.04-.13-.07.03.02.08.04.15.08.23.12.12.07.24.15.36.23.16.1-.05-.05.03.02.05.05.11.09.16.14.12.1.23.22.33.33.05.05.09.11.14.16-.14-.17.03.05.04.07.18.27.31.56.46.85.34.67.81,1.23,1.46,1.62.59.35,1.26.55,1.91.72.5.14,1.11-.17,1.23-.7s-.16-1.08-.7-1.23c-.31-.08-.62-.17-.92-.28-.02,0-.25-.09-.13-.04s-.12-.06-.12-.06c-.13-.06-.25-.13-.37-.21-.04-.03-.21-.19-.07-.05-.05-.05-.11-.09-.16-.14s-.1-.1-.14-.16c.11.15-.05-.1-.06-.11-.17-.28-.3-.59-.46-.88-.65-1.22-1.83-2.13-3.16-2.49-.5-.14-1.11.17-1.23.7s.16,1.08.7,1.23h0Z"/>
      <path class="cls-8" d="M104.62,188.55c.46.49.89,1.01,1.28,1.55.21.29.4.59.6.9,0,0,.09.15.05.07,0,.01.05.17.03.07.02.11-.04.19-.1.36-.48,1.33-.37,2.86.51,4.01.33.43.86.65,1.37.36.42-.25.69-.94.36-1.37-.1-.13-.2-.27-.28-.42s-.07-.11-.12-.27c-.12-.35-.14-.46-.14-.78s.03-.44.14-.78c.13-.38.27-.76.25-1.17-.05-.8-.57-1.47-1.02-2.1s-.97-1.27-1.52-1.85c-.37-.4-1.04-.37-1.41,0-.39.39-.37,1.02,0,1.41h0Z"/>
      <path class="cls-8" d="M97.57,189.57c-.35,1.22-.36,2.56,0,3.78.09.29.21.58.31.87.04.11.07.22.1.33.02.07.04.15.05.22,0-.08,0-.05,0,.07,0,.07-.06.37,0,.15-.02.07-.15.34-.04.15-.02.05-.05.1-.08.14.08-.09.08-.1,0-.02.1-.07.11-.08.01-.02.12-.04.13-.05.02-.01-.5.15-.87.71-.7,1.23s.69.86,1.23.7c.7-.21,1.2-.75,1.43-1.44s.11-1.38-.11-2.04c-.11-.31-.23-.61-.32-.92-.05-.16-.09-.33-.12-.5-.01-.07-.03-.15-.04-.22.01.1,0-.05,0-.07-.03-.34-.03-.68,0-1.02,0-.02.02-.17,0-.07,0-.07.02-.15.04-.22.04-.19.08-.37.13-.55.14-.5-.18-1.11-.7-1.23s-1.08.16-1.23.7h0Z"/>
      <path class="cls-8" d="M88.73,187.57c-.11.51-.1,1-.05,1.52.03.31.14.76-.04,1.04-.15.24-.53.39-.79.53-.41.22-.81.45-1.15.78-1.63,1.55-1.41,3.92-1.11,5.94.08.53.75.83,1.23.7.57-.16.78-.69.7-1.23-.23-1.57-.46-3.5,1.16-4.37.79-.43,1.55-.87,1.88-1.76.15-.42.18-.88.14-1.33-.03-.42-.14-.87-.05-1.28.11-.53-.16-1.08-.7-1.23-.5-.14-1.12.17-1.23.7h0Z"/>
      <path class="cls-8" d="M82.32,186.28c-1.02-.64-2.14.17-2.41,1.2-.25.96-.25,1.99-.36,2.97-.05.41-.12.82-.23,1.23s-.18.56-.35.87c-.31.56-.71.97-1.24,1.13s-.84.7-.7,1.23.71.86,1.23.7c1.52-.47,2.51-1.81,2.95-3.29.26-.85.33-1.76.41-2.64.03-.39.06-.77.12-1.16,0-.06.16-.57.13-.61,0,.01-.04.05-.05.06-.19.02-.28.19-.51.05.46.29,1.1.1,1.37-.36.28-.48.1-1.08-.36-1.37h0Z"/>
      <path class="cls-8" d="M74.06,186.61c-1.51.01-2.79.89-3.66,2.07s-1.21,2.69-1.51,4.11c-.11.51.15,1.11.7,1.23.5.11,1.11-.15,1.23-.7.13-.63.27-1.26.46-1.87.05-.15.1-.3.15-.45.03-.07.06-.15.09-.22.06-.16-.1.2.03-.07s.27-.56.44-.81c.03-.05.06-.09.09-.13.15-.22-.13.15.04-.06.09-.1.18-.21.28-.31s.2-.19.3-.28c.08-.07.06-.04,0,0,.06-.04.11-.08.17-.12.11-.07.23-.14.35-.2.09-.05.14-.07.02-.02.06-.02.12-.05.19-.07.13-.04.26-.06.39-.1.12-.03-.18,0,.01,0,.08,0,.16,0,.24,0,.52,0,1.02-.46,1-1s-.44-1.01-1-1h0Z"/>
      <path class="cls-8" d="M78.77,179.45c-.4-.67-.79-1.35-1.2-2.02-.15-.24-.34-.47-.6-.61s-.56-.18-.86-.18c-.4,0-.79,0-1.19.01-.52,0-1.02.46-1,1s.44,1.01,1,1c.24,0,.48,0,.72,0,.23,0,.46-.02.69,0l-.27-.04s.09.02.14.04l-.24-.1s.05.03.08.05l-.2-.16s.06.06.09.09l-.16-.2c.24.32.42.69.63,1.04l.65,1.09c.27.45.91.65,1.37.36s.65-.89.36-1.37h0Z"/>
      <path class="cls-8" d="M86.57,180.04s-.09-.07-.14-.1c-.11-.08-.08-.05.01,0-.1-.06-.18-.15-.27-.22-.18-.15-.35-.3-.52-.45-.33-.3-.65-.62-.95-.95-.15-.16-.29-.33-.43-.5-.07-.09-.15-.17-.22-.27.06.09.09.12,0,.01-.03-.05-.07-.09-.1-.14-.27-.37-.52-.76-.76-1.15-.27-.45-.91-.65-1.37-.36s-.64.89-.36,1.37c1.04,1.76,2.43,3.26,4.07,4.47.2.14.55.16.77.1s.48-.24.6-.46c.28-.52.09-1.04-.36-1.37h0Z"/>
      <path class="cls-8" d="M91.7,178.76c.13-.3.18-.65.18-.98s-.05-.67-.17-.98c-.26-.68-.71-1.31-1.39-1.64-.24-.12-.5-.17-.77-.1-.23.06-.48.24-.6.46-.12.23-.18.51-.1.77.08.24.23.48.46.6.11.05.21.11.3.19l-.2-.16c.13.1.24.22.34.34l-.16-.2c.1.14.19.29.26.45l-.1-.24c.07.17.12.35.14.53l-.04-.27c.02.16.02.32,0,.48l.04-.27c-.02.16-.06.32-.13.47-.09.22-.01.57.1.77.12.21.36.41.6.46.26.06.54.05.77-.1l.2-.16c.12-.12.21-.27.26-.44h0Z"/>
      <path class="cls-8" d="M98.11,177.62c.13.11.16.13.11.08-.02-.02-.03-.03-.05-.05,0,0,.16.23.07.07-.06-.1.07.24.04.09,0-.02-.04-.12-.03-.14-.01.02.02.28.01.09,0-.04,0-.09,0-.13,0-.09,0-.18,0-.27,0-.51-.05-.99-.25-1.46-.4-.94-1.2-1.58-1.98-2.18-.19-.15-.55-.16-.77-.1-.23.06-.48.24-.6.46-.12.23-.18.51-.1.77s.24.43.46.6c.17.13-.19-.15-.02-.01.04.03.08.06.12.09.09.07.17.14.25.21.15.13.3.26.43.41.07.08.14.16.21.24.08.09-.13-.19-.03-.04.03.05.06.09.09.14.04.07.08.19.13.25-.06-.14-.07-.18-.05-.11.01.03.02.05.03.08.02.04.03.09.04.14s.02.09.03.14c.04.17,0-.18-.01-.07,0,.1,0,.19,0,.29,0,.19,0,.37.01.56.03.33.08.61.22.91s.36.5.62.68c.43.3,1.13.09,1.37-.36.27-.51.1-1.05-.36-1.37h0Z"/>
      <path class="cls-8" d="M102.72,176.66c.06-.79.04-1.58-.06-2.36,0-.14-.02-.27-.09-.39-.04-.12-.11-.23-.21-.32-.17-.17-.46-.3-.71-.29s-.53.1-.71.29c-.17.18-.33.45-.29.71.1.78.12,1.58.06,2.36-.02.24.13.54.29.71s.46.3.71.29.53-.1.71-.29.27-.43.29-.71h0Z"/>
      <path class="cls-8" d="M108.75,174.67c.36-.57.28-1.32-.08-1.86-.14-.22-.32-.43-.52-.6s-.41-.31-.61-.46l.2.16c-.16-.12-.32-.26-.44-.42l.16.2c-.05-.07-.1-.15-.14-.23l.1.24c-.03-.07-.05-.15-.06-.23l.04.27s0-.05,0-.07c-.01-.26-.1-.52-.29-.71-.17-.17-.46-.3-.71-.29s-.53.1-.71.29-.31.44-.29.71c.03.53.24.98.61,1.36.26.27.58.48.88.7l-.2-.16c.13.1.25.22.35.35l-.16-.2c.07.09.13.19.17.29l-.1-.24c.03.08.05.15.07.24l-.04-.27c0,.06,0,.11,0,.17l.04-.27c0,.06-.02.11-.05.16l.1-.24s-.03.06-.05.09c-.28.44-.11,1.12.36,1.37.49.26,1.07.11,1.37-.36h0Z"/>
      <path class="cls-8" d="M110.65,167.11c-.16-.06-.31-.12-.47-.18-.06-.02-.12-.05-.18-.07-.1-.04-.08-.03.06.03-.04-.02-.08-.03-.12-.05-.28-.12-.56-.25-.83-.38-.56-.27-1.1-.57-1.63-.9-.45-.27-1.12-.11-1.37.36s-.12,1.08.36,1.37c1.15.7,2.37,1.29,3.64,1.76.23.09.57.02.77-.1s.41-.36.46-.6c.13-.57-.17-1.03-.7-1.23h0Z"/>
      <path class="cls-8" d="M108.81,157.73s-.04,0-.06,0l.27.04c-.21-.03-.41-.09-.61-.17l.24.1c-.21-.09-.41-.21-.6-.35l.2.16c-.17-.14-.33-.29-.47-.47l.16.2c-.13-.17-.24-.35-.32-.54-.09-.21-.38-.4-.6-.46-.24-.07-.56-.04-.77.1s-.4.34-.46.6l-.04.27c0,.18.05.35.14.5.25.58.69,1.03,1.18,1.4.25.19.53.31.82.43s.6.17.92.21c.24.03.55-.13.71-.29.17-.17.3-.46.29-.71s-.1-.53-.29-.71l-.2-.16c-.16-.09-.32-.14-.5-.14h0Z"/>
      <path class="cls-8" d="M111.01,152.24s-.06-.08-.09-.12l.16.2c-.14-.19-.25-.39-.34-.6l.1.24c-.24-.59-.38-1.21-.69-1.77-.35-.63-.92-1.19-1.64-1.35-.51-.12-1.11.16-1.23.7-.12.51.15,1.1.7,1.23.07.02.14.04.21.07l-.24-.1c.11.05.21.11.3.18l-.2-.16c.12.09.22.2.31.32l-.16-.2c.15.2.27.42.36.64l-.1-.24c.14.34.24.7.37,1.05.19.5.4.92.75,1.32s1.07.38,1.41,0c.39-.42.37-.99,0-1.41h0Z"/>
      <path class="cls-8" d="M115.38,149.92c1.7.44,3.58.12,5.01-.91.83-.6,1.67-1.52,1.01-2.58-.46-.75-1.3-1.42-2.13-1.72-1.87-.67-3.86.5-5.27,1.64-.31.25-.61.53-.89.82-.34.36-.73.75-.86,1.24-.16.62.16,1.29.77,1.49.49.17,1.1.06,1.61.04,2.34-.12,4.67-.4,6.98-.82.53-.1.83-.74.7-1.23-.15-.56-.7-.8-1.23-.7-1.25.23-2.51.41-3.78.54-.63.06-1.25.12-1.88.16-.31.02-.63.04-.94.05-.24.01-.75.09-.92.03l.44.26-.06-.07.26.44c.13.5-.15.44.06.28.12-.09.22-.24.32-.35.19-.19.38-.38.59-.56.39-.34.83-.64,1.28-.9.79-.45,1.78-.84,2.57-.28.17.12.32.27.47.43.05.05.19.22.21.22-.01-.02-.02-.03-.02-.06.16-.44.15-.56-.02-.35-.18.11-.3.27-.47.38-.21.14-.42.26-.65.36-.81.36-1.76.43-2.62.21-1.25-.32-1.78,1.61-.53,1.93h0Z"/>
      <path class="cls-8" d="M120.27,148.82c.63-.59,1.42-.92,2.28-.98.49-.03.97,0,1.45.04.26.02.51.05.77.09.06,0,.2.05.26.04.05.03.07.03.06,0-.08-.13-.16-.26-.25-.39l.14-.5c-.16.37-.56.68-.83.99s-.56.63-.85.93c-.21.22-.44.52-.73.64-.33.13-.69.01-1.02-.06-1.84-.4-3.67-.41-5.51.01-1.25.29-.72,2.22.53,1.93.91-.21,1.83-.29,2.76-.25s1.76.32,2.65.41c1.88.18,3.09-1.65,4.19-2.89.35-.39.68-.79.67-1.35-.01-.46-.27-.89-.66-1.14-.67-.43-1.67-.43-2.45-.49-1.82-.13-3.54.28-4.89,1.55-.94.88.48,2.3,1.41,1.41h0Z"/>
      <path class="cls-8" d="M117.3,165.47c.71-.51,1.43-1.01,2.16-1.5.35-.23.71-.46,1.06-.69.29-.18.69-.53,1.01-.58h-.53c.24.04.66.5.89.68.43.34.86.67,1.3.99.81.59,1.65,1.15,2.51,1.68,1.1.68,2.1-1.05,1.01-1.73-.86-.53-1.69-1.09-2.51-1.68-.37-.27-.74-.55-1.1-.84-.38-.31-.76-.7-1.2-.91-1.03-.5-2.09.46-2.92,1-.91.59-1.81,1.21-2.69,1.85-.44.32-.65.87-.36,1.37.25.43.93.68,1.37.36h0Z"/>
      <path class="cls-8" d="M119.06,157.21c.82-.32,1.67-.58,2.54-.75.39-.08.77-.13,1.17-.17.21-.02.43-.03.64-.04.11,0,.21,0,.32-.01.05,0,.09,0,.14,0,.2.01.09-.06-.32-.2.02.14.23.35.31.46.13.19.27.37.41.55.24.3.49.59.75.87.59.61,1.27,1.14,1.98,1.61,1.08.71,2.08-1.02,1.01-1.73-.69-.45-1.31-.99-1.87-1.61s-.97-1.68-1.84-1.9c-.44-.11-.94-.04-1.38,0-.52.04-1.03.11-1.54.2-.98.17-1.93.44-2.86.8-.5.2-.85.67-.7,1.23.13.48.72.9,1.23.7h0Z"/>
      <path class="cls-8" d="M138.91,199.21l.1,2.47c.02.49.45,1.06,1,1,4.98-.58,9.9.45,14.86.73s9.99.16,14.75-.69c1.26-.23.73-2.15-.53-1.93-2.46.44-4.97.5-7.46.6-2.41.1-4.83.15-7.24-.01-4.8-.32-9.56-1.26-14.38-.7l1,1-.1-2.47c-.05-1.28-2.05-1.29-2,0h0Z"/>
      <path class="cls-8" d="M143.37,211.77h29.26c.64,0,.64-1,0-1h-29.26c-.64,0-.64,1,0,1h0Z"/>
      <path class="cls-8" d="M140.56,212.62v-1.08c-.34.04-.66.09-.99.13.02.05.03.1.04.16l-.02-.13c0,.07,0,.14,0,.21l.02-.13c-.01.07-.03.15-.06.22l.05-.12c-.03.07-.07.13-.11.19l.08-.1c-.04.05-.09.1-.14.14l.1-.08s-.04.03-.06.04c-.11.07-.2.17-.23.3s-.02.28.05.39.17.2.3.23.27.02.39-.05c.27-.17.45-.42.56-.71.04-.12.06-.26.07-.4s-.02-.28-.06-.41c-.04-.12-.11-.24-.23-.3-.1-.05-.21-.07-.32-.06-.24.03-.44.24-.43.49v1.08c0,.13.06.26.16.35s.23.15.35.15c.27-.01.5-.22.5-.5h0Z"/>
      <path class="cls-8" d="M191.04,26.13v307.77H24.96V26.13h166.08M193.04,24.13H22.96v311.77h170.08V24.13h0Z"/>
      <path class="cls-8" d="M52.95,331.5c1.37-6.09,3.49-11.97,6.36-17.51l-1.83-.24c2.1,5.48,4.23,11.09,4.4,17.03.04,1.28,2.04,1.29,2,0-.17-6.13-2.31-11.9-4.47-17.56-.28-.74-1.4-1.07-1.83-.24-2.94,5.69-5.15,11.74-6.56,17.99-.28,1.25,1.65,1.79,1.93.53h0Z"/>
      <path class="cls-8" d="M55.59,324.08c2.19.06,4.39-.31,6.43-1.11.49-.19.88-.68.7-1.23-.15-.47-.71-.9-1.23-.7-1.96.76-3.84,1.09-5.9,1.04-.52-.01-1.02.47-1,1s.44.98,1,1h0Z"/>
      <path class="cls-8" d="M72.97,322.13c-1.1-1.22-2.91-1.32-4.34-.68s-2.38,2.22-2.76,3.75c-.64,2.61-.08,6.69,3.28,6.94,1.95.15,3.49-1.48,4.52-2.93.31-.44.08-1.11-.36-1.37-.5-.29-1.05-.08-1.37.36-.57.81-1.45,1.8-2.39,1.94-.19.03-.37,0-.59-.05-.05-.01-.1-.03-.14-.05.02,0,.12.05.01,0-.06-.03-.11-.06-.17-.09-.01,0-.17-.11-.1-.06.04.03-.14-.13-.19-.18s-.09-.09-.13-.14c.01.02.07.1,0,0s-.13-.19-.19-.3c-.03-.04-.17-.34-.12-.22-.37-.88-.42-1.77-.27-2.71.17-1.06.56-2.24,1.39-2.87.37-.28.87-.44,1.31-.44.48,0,.84.13,1.17.49.36.4,1.05.37,1.41,0,.4-.4.36-1.01,0-1.41h0Z"/>
      <path class="cls-8" d="M78.74,325.78c2.09.45,4.21-.51,5.4-2.25.58-.84.89-1.94.76-2.96-.16-1.19-1.05-1.99-2.23-2.13-2.53-.29-3.7,2.32-4.41,4.28-.81,2.23-.95,4.98,1.08,6.61.96.78,2.23,1.12,3.42.66s1.99-1.53,2.68-2.59-1.03-2.09-1.73-1.01c-.6.93-1.51,2.27-2.71,1.66-1.42-.72-1.47-2.45-1.11-3.8.21-.82.52-1.63.89-2.39.26-.53.66-1.2,1.18-1.38.22-.08.45-.08.57-.06.24.05.31.07.38.25.19.49-.07,1.16-.31,1.58-.66,1.15-2.07,1.87-3.31,1.6-.53-.11-1.08.16-1.23.7-.14.5.17,1.12.7,1.23h0Z"/>
      <path class="cls-8" d="M100.86,319.22c-1.95-.2-3.66,1.23-4.46,2.9-.71,1.49-1.29,3.46-.77,5.09.58,1.81,2.48,2.65,4.26,2.11,1.75-.53,3.01-2.21,3.73-3.81.45-1,.67-2.06.45-3.15-.2-.99-.83-1.92-1.73-2.4-.48-.25-1.09-.12-1.37.36s-.12,1.11.36,1.37c.44.23.65.56.77,1.03.07.27.08.4.06.73s-.11.62-.22.91c-.39,1.09-1.21,2.31-2.22,2.87-.39.22-.94.32-1.33.21-.19-.05-.38-.14-.5-.25s-.09-.07-.16-.17c-.04-.06-.08-.12-.11-.19l-.05-.1c.02.06.03.05,0-.01-.15-.45-.16-1.01-.09-1.43.09-.63.28-1.27.51-1.86.49-1.25,1.49-2.36,2.86-2.22.54.06,1-.5,1-1,0-.59-.46-.94-1-1h0Z"/>
      <path class="cls-8" d="M116.18,315.09c-1.1-1.91-3.61-1.94-5.18-.61-1.72,1.47-2.12,3.88-1.91,6.02.23,2.41,1.2,4.75,1.08,7.19-.05.91-.3,2.4-1.26,2.83-.93.42-1.62-.91-1.99-1.55-.65-1.11-2.38-.11-1.73,1.01.96,1.65,2.68,3.42,4.73,2.27,2.01-1.13,2.41-3.82,2.21-5.9-.22-2.39-1.14-4.69-1.09-7.1.02-1.07.28-2.2,1.02-3,.62-.68,1.83-1.12,2.4-.14.64,1.11,2.37.11,1.73-1.01h0Z"/>
      <path class="cls-8" d="M108.49,323.49s.09-.07.13-.11c-.07.06-.09.06,0,0,.09-.07.18-.13.27-.19.19-.12.38-.23.58-.33.05-.02.1-.05.15-.07.09-.04.07-.03,0,0,.1-.04.21-.08.31-.12.22-.08.45-.14.68-.19.11-.02.22-.04.33-.06.15-.03-.17.02-.02,0,.06,0,.11-.01.17-.02.22-.02.44-.03.67-.02.11,0,.22,0,.33.02.06,0,.11.01.17.02.15.01-.17-.03-.02,0,.23.05.46.09.69.15.5.14,1.11-.17,1.23-.7s-.16-1.08-.7-1.23c-2.22-.63-4.62-.06-6.37,1.43-.4.34-.38,1.07,0,1.41.43.39.99.36,1.41,0h0Z"/>
      <path class="cls-8" d="M125.49,330.71c2.5-4.55,1.05-9.72,1.61-14.63.04-.36.04-1.26.39-1.38s1.01.16,1.36.25c1.08.29,2.1.72,2.33,1.93.37,1.95-.26,4.39-2.13,5.32-.87.43-.48,1.95.5,1.86,1.25-.1,2.95-.28,3.67.99.6,1.05.54,2.45.09,3.55-1.05,2.61-4.24,3.37-6.52,1.87-1.08-.71-2.08,1.02-1.01,1.73,3.4,2.23,8.03.73,9.46-3.06.63-1.66.57-3.78-.43-5.3-1.18-1.78-3.33-1.93-5.27-1.77l.5,1.86c3.53-1.75,4.79-8.52.76-10.39-1.58-.74-4.64-1.66-5.38.62s-.46,5.01-.4,7.38c.07,2.78.11,5.66-1.26,8.16-.62,1.13,1.11,2.14,1.73,1.01h0Z"/>
      <path class="cls-8" d="M138.31,324.14c-.24,1.21-.47,2.45-.17,3.67.24.96.88,1.9,1.76,2.37.95.51,2.11.48,3.01-.14.84-.58,1.43-1.51,1.67-2.5.31-1.31.1-2.64.19-3.96.04-.52-.49-1.02-1-1-.57.03-.96.44-1,1-.04.61-.02,1.21,0,1.82,0,.3,0,.6-.01.9-.02.33-.03.42-.1.71-.03.11-.06.22-.09.33-.02.05-.04.11-.06.16.05-.11.04-.11,0,0-.05.1-.1.21-.16.3-.02.04-.23.33-.09.15-.07.09-.15.17-.23.25-.04.04-.31.24-.11.11-.09.06-.18.11-.28.17-.1.05-.1.05.02,0-.05.02-.1.03-.15.05-.05.01-.1.03-.16.03.13-.02.14-.02.02-.01-.07,0-.38-.07-.14,0-.1-.03-.21-.05-.31-.09.23.09-.08-.06-.12-.09-.09-.06-.09-.06,0,.01-.04-.03-.08-.07-.13-.11-.08-.08-.16-.16-.23-.24.15.17-.07-.1-.09-.14-.06-.1-.11-.2-.16-.3.1.21-.04-.11-.05-.16-.04-.13-.07-.25-.09-.38-.02-.13-.03-.15-.01-.07,0-.07-.01-.15-.02-.22,0-.15,0-.3,0-.45.02-.57.12-1.02.24-1.65.1-.51-.15-1.1-.7-1.23-.5-.11-1.12.15-1.23.7h0Z"/>
      <path class="cls-8" d="M151.53,319.23c-1.78-.03-3.03,1.48-3.29,3.14-.23,1.51-.22,3.77,1.33,4.58,1.22.63,2.82.14,3.69-.85,1.2-1.38.96-3.35.71-5.01l-1.47,1.13c1.18.77,1.64,2.18,1.89,3.5.29,1.49.44,3.22-.03,4.69-.35,1.1-1.59,2.55-2.89,1.97-.88-.39-1.34-1.62-.87-2.46.63-1.12-1.1-2.13-1.73-1.01-.96,1.71-.32,3.92,1.28,5.01,1.87,1.27,4.21.24,5.4-1.45,1.36-1.9,1.19-4.52.86-6.71-.31-2.07-1.1-4.08-2.91-5.27-.81-.53-1.59.34-1.47,1.13.14.9.31,1.96-.07,2.82-.2.46-.82.95-1.36.78-.63-.2-.49-1.74-.44-2.25.07-.77.44-1.75,1.36-1.74,1.29.02,1.29-1.98,0-2h0Z"/>
      <path class="cls-8" d="M163.62,318.42c-.13-1.64-1.9-2.57-3.41-2.01-1.79.66-2.17,2.78-1.9,4.45.15.92.57,1.82,1.39,2.31.69.41,1.54.38,2.21.76.4.22.66.71.75,1.24.06.37-.04.92-.28,1.21-.72.86-2.23.59-2.74-.38-.6-1.14-2.33-.13-1.73,1.01,1.47,2.78,6.17,2.35,6.7-.9.24-1.47-.34-3.02-1.6-3.86-.67-.44-1.47-.42-2.17-.74-.56-.26-.62-1.07-.63-1.61,0-.37.03-.75.18-1.09.06-.13.13-.24.22-.34-.1.11.15-.14.08-.09.02-.01.26-.13.14-.08.24-.08.38-.07.61.02-.13-.05.02.01.04.02.28.16-.14-.1.11.08-.03-.02-.14-.09.02.03-.09-.07,0,.09,0-.03.04.54.43,1,1,1,.51,0,1.04-.46,1-1h0Z"/>
      <path class="cls-14" d="M8.79,9.92v340.16h198.43V9.92H8.79ZM193.04,335.91H22.96V24.09h170.08v311.81Z"/>
      <path class="cls-14" d="M-19.56-18.43v396.85l255.12-1.37V-18.43H-19.56ZM193.04,335.91H22.96V24.09h170.08v311.81Z"/>
    </g>
  </g>
</svg>