<?xml version="1.0" encoding="UTF-8"?>
<svg id="boarder" xmlns="http://www.w3.org/2000/svg" xmlns:xlink="http://www.w3.org/1999/xlink" viewBox="0 0 216 360">
  <defs>
    <style>
      .cls-1 {
        fill: none;
      }

      .cls-2 {
        fill: #d6dfe5;
      }

      .cls-3 {
        fill: #b39164;
      }

      .cls-4 {
        fill: #eab5b2;
      }

      .cls-5 {
        fill: #d1d3d4;
      }

      .cls-6 {
        fill: #231f20;
      }

      .cls-7 {
        fill: #857765;
      }

      .cls-8 {
        fill: #836f6f;
      }

      .cls-9 {
        fill: #5c3736;
      }

      .cls-10 {
        fill: #f1f2f2;
      }

      .cls-11 {
        fill: #948e8e;
      }

      .cls-12 {
        fill: #b2a594;
      }

      .cls-13 {
        fill: #8f8181;
      }

      .cls-14 {
        fill: #84b064;
      }

      .cls-15 {
        fill: #fff;
      }

      .cls-16 {
        fill: #857c70;
      }

      .cls-17 {
        fill: #6e5f4a;
      }

      .cls-18 {
        fill: #9b8b76;
      }

      .cls-19 {
        fill: #aec5d4;
      }

      .cls-20 {
        fill: #4f693c;
      }

      .cls-21 {
        fill: #7f996b;
      }

      .cls-22 {
        fill: #e6e7e8;
      }

      .cls-23 {
        fill: #939598;
      }

      .cls-24 {
        clip-path: url(#clippath);
      }

      .cls-25 {
        fill: #c73833;
      }

      .cls-26 {
        fill: #a7a9ac;
      }
    </style>
    <clipPath id="clippath">
      <path class="cls-1" d="M0,15.06v329.88c0,8.32,6.94,15.06,15.49,15.06h185.02c8.56,0,15.49-6.74,15.49-15.06V15.06c0-8.32-6.94-15.06-15.49-15.06H15.49C6.94,0,0,6.74,0,15.06Z"/>
    </clipPath>
  </defs>
  <g class="cls-24">
    <path class="cls-12" d="M29.97,296.76c29.47-2.51,59.23-2,88.55,1.9,14.45,1.92,28.79,4.72,42.94,8.22,12.88,3.19,27.07,8.01,39.3.17,8.65-5.54,3.3-21.09-7.32-17.36-24.12,8.46-49.89,6.35-74.78,2.98-27.58-3.73-54.89-8.13-82.65-3.52-6.92,1.15-9.29,11.45-4.19,15.88,7.32,6.36,14.42,13.57,22.33,19.2,3.54,2.52,7.77,3.73,12.08,2.83,4.64-.97,7.56-3.91,11.48-6.22,5.62-3.31,12.5-2.97,18.81-3.18,8.97-.3,16.72-1.95,25.23-4.59,9.07-2.81,17.66-.06,26.88.55,8.65.58,17.21-1.44,25.35-4.19,16.01-5.42,32.22-15.41,32.49-34.31.17-12.23-18.83-12.24-19,0-.17,11.96-18.02,16.34-27.1,18.52-7.32,1.76-14.28.71-21.62-.26-8.27-1.09-15.85-.69-23.8,1.94-6.26,2.07-11.85,3.11-18.43,3.33s-14.1.26-20.72,2.38c-3.13,1-6.22,2.37-8.94,4.22-.5.34-3.64,2.27-3.83,2.8-.32.89,1.34.75,1.66.42-.14.15-17.88-15.54-19.43-16.89-1.4,5.29-2.79,10.59-4.19,15.88,26.85-4.45,54.25,1.22,80.88,4.63,25.48,3.26,51.93,4.55,76.55-4.09-2.44-5.79-4.88-11.58-7.32-17.36-4.18,2.68-8.94,1.8-13.56.74-6.52-1.5-12.95-3.34-19.48-4.81-14.23-3.2-28.61-5.59-43.09-7.35-28.23-3.43-56.74-3.87-85.07-1.46-5.11.44-9.5,4.05-9.5,9.5,0,4.8,4.36,9.94,9.5,9.5h0Z"/>
    <path class="cls-18" d="M44.43,333.95c-3.15-.47-5.78-1.19-8.2-3.33-1.4,5.29-2.79,10.59-4.19,15.88,6.52-2.3,13.26-4.13,20.13-4.96,7.3-.88,14.63-.42,21.95-.81s14.22-1.93,21.09-4.54c5.82-2.21,11.64-4.94,17.96-4.99-.84-6.22-1.68-12.44-2.53-18.66-10.14,1.41-20.28,2.82-30.43,4.23,1.68,6.11,3.37,12.21,5.05,18.32,34.98-6.85,71.25-7.8,106.52-2.56.84-6.22,1.68-12.44,2.53-18.66-12.68-1.25-25.36-2.49-38.04-3.74.84,6.22,1.68,12.44,2.53,18.66,14.67-2.33,29.49-3.45,44.34-3.62v-19c-3.69.3-7.37.6-11.06.9-5.11.42-9.5,4.07-9.5,9.5,0,4.82,4.36,9.92,9.5,9.5,3.69-.3,7.37-.6,11.06-.9,12.01-.98,12.4-19.14,0-19-16.57.19-33.03,1.71-49.39,4.3-4.6.73-7.44,6.22-6.8,10.42.74,4.95,4.49,7.76,9.33,8.24,12.68,1.25,25.36,2.49,38.04,3.74,10.54,1.04,13.13-17.08,2.53-18.66-38.88-5.78-78.04-5-116.63,2.56-5.04.99-7.92,7.01-6.64,11.69,1.51,5.48,6.58,7.34,11.69,6.64,10.14-1.41,20.28-2.82,30.43-4.23,10.74-1.49,7.94-18.75-2.53-18.66-14.44.13-26.52,9.12-40.9,9.61-15.62.53-30.37,1.12-45.29,6.38-6.28,2.21-9.92,10.81-4.19,15.88,4.76,4.22,10.22,7.27,16.58,8.22,5.07.75,10.21-1.27,11.69-6.64,1.23-4.48-1.53-10.93-6.64-11.69h0Z"/>
    <path class="cls-7" d="M97.3,346.79c14.17-.52,28.33-.22,42.47.9v-19c-3.35-.02-5.5-1.09-8.17-3.13v16.41c4.55-2.75,10.54.23,15.01,1.93,7.28,2.77,14.38,4.78,22.22,3.48,6.28-1.04,11.93-4.13,18.46-3.37,7.11.83,13.87,4.41,20.16,7.58,10.89,5.49,20.52-10.9,9.59-16.41-7.85-3.95-15.97-7.97-24.7-9.49-9.16-1.6-16.6.54-25.36,2.7-7.52,1.86-14.58-3.08-21.62-5.02-7.88-2.17-16.19-2.14-23.34,2.19-6.64,4.02-5.54,12.18,0,16.41,5.12,3.91,11.36,5.68,17.76,5.72,12.37.08,12.04-18.05,0-19-14.14-1.12-28.3-1.42-42.47-.9-12.19.45-12.25,19.45,0,19h0Z"/>
    <path class="cls-16" d="M94.57,280.98c9.66-1.24,19.32-2.47,29.05-2.99,5.35-.28,10.74-.4,16.1.02,2.61.2,2.57.14,5.28.8.88.21,1.75.45,2.61.76-2.15-.78,1.54,1.39.03-.06-.81-1.4-1.63-2.79-2.44-4.19,1.05-5.26.92-6.02-.41-2.28-.43,1-.62,2.06-.58,3.18-.07,2.17.44,4.12,1.59,5.97,1.96,3.16,5.13,4.39,8.41,5.64,5.04,1.91,10.36,3.79,15.68,4.71,16.84,2.89,33.74-7.85,47.44-16.17,9.65-5.86,2.97-19.13-7.32-17.36-16.48,2.83-32.95,5.76-49.46,8.48-3.55.58-6.7.83-10.22-.16-3.94-1.12-7.67-2.52-11.73-3.16-8.2-1.29-16.3-.71-24.56-.71-8.25,0-16.4-1.2-24.59-2.01-8.28-.82-16.54-.3-24.82-.88s-15.24-3.08-23.35-2.32c-7.97.75-15.71,3.07-23.7,3.46-12.17.58-12.24,19.59,0,19,8.34-.4,16.34-2.83,24.61-3.53,8.24-.7,16.13,2.15,24.35,2.49,8.31.34,16.51.11,24.81.98,8.18.86,16.3,1.91,24.55,1.79,7.78-.11,15.61-.86,23.19,1.26,4.44,1.24,8.56,2.84,13.2,3.26,3.86.35,7.7-.25,11.51-.85,17.12-2.67,34.17-5.85,51.24-8.78-2.44-5.79-4.88-11.58-7.32-17.36-9.44,5.73-19.46,12.54-30.71,13.86-1.2.14-2.45.18-3.65.15-.59-.01,1.68.4-.13-.09s-3.63-.94-5.42-1.48c-2.09-.64-4.17-1.32-6.24-2.05-.78-.27-1.57-.53-2.33-.84-.62-.25-2.21-1.41-.46-.31l3.41,3.41-.32-.57,1.3,4.79-.71,2.85.96-2.27c.32-1.04.56-2.12.6-3.22.1-2.64-.65-5.02-2.21-7.15-2.2-3-5.74-4.58-9.15-5.78-6.11-2.14-13.07-2.44-19.49-2.49-12.92-.11-25.79,1.58-38.58,3.23-5.09.66-9.5,3.9-9.5,9.5,0,4.62,4.38,10.16,9.5,9.5h0Z"/>
    <path class="cls-21" d="M24.74,209.15c14.25,1.87,28.42-.37,42.53-2.4,13.69-1.97,27.23-2.37,41.04-2.39,28.32-.04,56.47-2.86,84.61-5.79l-2.53-18.66c-29.83,10.31-61.47,12-92.49,16.42-32.01,4.56-63.27,12.92-94.45,21.3-11.9,3.2-6.84,20.74,5.05,18.32,48.32-9.83,96.77-21.66,145.82-27.24l-2.53-18.66c-49.36,11.82-99.55,19.69-150.17,23.45l2.53,18.66c25.37-5.94,50.44-13.04,75.15-21.3,10.49-3.51,8.06-17.65-2.53-18.66-19.59-1.87-39.54,1-57.79,8.39-11.11,4.5-7.18,21.05,5.05,18.32,18.45-4.11,37.08-6.94,55.92-8.42-1.6-5.9-3.2-11.8-4.79-17.7-15.29,7.51-31.03,13.88-47.22,19.17-11.59,3.79-6.91,21.16,5.05,18.32,17.71-4.2,35.42-8.4,53.14-12.6-1.68-6.11-3.37-12.21-5.05-18.32-25.2,6.18-50.2,13.11-74.97,20.79-8.88,2.75-9.18,15.69,0,18.32,9.73,2.79,19.6,2.18,29.54,1.19,10.5-1.04,20.99-2.27,31.45-3.63,21.13-2.74,42.18-5.96,63.21-9.37,10.63-1.72,8.04-18.99-2.53-18.66-32.92,1.02-65.73,5.16-97.88,12.3-7.48,1.66-9.82,14.05-2.27,17.36,13.45,5.9,30.32,2.98,44.53,1.59,16.2-1.58,32.31-4.04,48.39-6.6,31.61-5.02,63.1-10.76,94.59-16.49,5.05-.92,7.91-7.05,6.64-11.69-1.47-5.35-6.61-7.51-11.69-6.64-64.27,11.08-128.54,22.15-192.81,33.23,2.44,5.79,4.88,11.58,7.32,17.36,7.26-5.36,16.02-7.75,24.47-10.58,9.01-3.01,18.06-5.89,27.15-8.64,18.79-5.68,37.75-10.8,56.84-15.35,37.98-9.05,76.49-15.86,115.28-20.28-.84-6.22-1.68-12.44-2.53-18.66-33.67,7.86-68.5,11.25-102.69,16.07-34.89,4.91-69.77,9.83-104.66,14.74-20.08,2.83-40.15,5.66-60.23,8.49-10.51,1.48-8.13,19.63,2.53,18.66,79.6-7.26,159.24-15.88,239.12-19.2l-2.53-18.66c-75.58,16.83-151.16,33.66-226.74,50.49-10.67,2.38-7.97,18.45,2.53,18.66,36.65.72,73.07-3.7,109.37-8.25,36.61-4.59,73.22-9.18,109.83-13.77,5.09-.64,9.5-3.91,9.5-9.5,0-5.23-4.35-9.4-9.5-9.5-67.38-1.34-135.78-.9-201.25,17.03-10.52,2.88-8.09,18.26,2.53,18.66,62.93,2.4,124.77-11.33,187.13-17.19l-2.53-18.66c-52.04,8.61-104.36,15.4-156.88,20.38-11.97,1.14-12.45,18.76,0,19,57.2,1.11,114.32-2.56,171.37-6.28-.84-6.22-1.68-12.44-2.53-18.66-42.26,8.04-84.99,12.89-127.72,17.66-5.1.57-9.5,3.96-9.5,9.5,0,4.92,4.35,9.79,9.5,9.5,46.1-2.58,92.04-7.05,137.8-13.22-1.68-6.11-3.37-12.21-5.05-18.32-20.82,5.65-42.09,7.85-63.63,6.72,1.6,5.9,3.2,11.8,4.79,17.7,19.19-11.05,41.21-16.39,62.22-22.89,10.52-3.26,8.06-17.87-2.53-18.66-17.54-1.31-35.08-2.61-52.62-3.92l2.53,18.66c26.55-7.7,53.5-13.87,80.76-18.49,10.95-1.85,7.72-18.25-2.53-18.66-13.31-.54-26.62-.68-39.93-.45l2.53,18.66c10-3.5,20-7,30-10.5,4.83-1.69,10.23-2.81,12.92-7.64,2.61-4.69.92-11.66-4.26-13.88-4.38-1.88-7.81-1.42-11.51,1.49l-.43.33c-4.04,3.17-3.32,10.11,0,13.44,3.99,3.99,9.38,3.18,13.44,0l.43-.33c-3.84.5-7.67.99-11.51,1.49l.61.26c-1.46-1.89-2.91-3.78-4.37-5.68l.24.62.96-7.32-.6.83,3.41-3.41c-5.17,2.43-11.16,3.86-16.56,5.75-5.94,2.08-11.88,4.15-17.82,6.23-9.71,3.4-8.71,18.86,2.53,18.66,13.31-.24,26.62-.09,39.93.45-.84-6.22-1.68-12.44-2.53-18.66-27.26,4.62-54.21,10.79-80.76,18.49-10.64,3.09-7.95,17.88,2.53,18.66,17.54,1.31,35.08,2.61,52.62,3.92-.84-6.22-1.68-12.44-2.53-18.66-22.58,6.99-46.13,12.93-66.76,24.81-8.48,4.88-4.34,17.22,4.79,17.7,23.11,1.21,46.34-1.34,68.68-7.4,4.95-1.34,7.99-6.75,6.64-11.69-1.51-5.49-6.58-7.32-11.69-6.64-44.06,5.94-88.36,10.05-132.75,12.54v19c44.4-4.97,88.85-9.98,132.77-18.34,10.46-1.99,8.16-19.36-2.53-18.66-57.05,3.72-114.17,7.39-171.37,6.28v19c54.2-5.15,108.21-12.18,161.93-21.06,10.47-1.73,8.15-19.66-2.53-18.66-62.36,5.86-124.21,19.59-187.13,17.19.84,6.22,1.68,12.44,2.53,18.66,63.87-17.49,130.48-17.66,196.2-16.35v-19c-36.61,4.59-73.22,9.18-109.83,13.77-36.3,4.55-72.72,8.97-109.37,8.25l2.53,18.66c75.58-16.83,151.16-33.66,226.74-50.49,10.4-2.32,8.2-19.11-2.53-18.66-79.89,3.32-159.53,11.94-239.12,19.2l2.53,18.66c70.1-9.88,140.2-19.75,210.3-29.63,19.18-2.7,38.4-5.26,57.28-9.67,10.19-2.38,8.27-19.89-2.53-18.66-40.49,4.61-80.69,11.51-120.33,20.96-19.71,4.7-39.27,10-58.66,15.91-9.69,2.95-19.34,6.05-28.93,9.3-8.74,2.96-17.9,5.73-25.41,11.28-8.72,6.45-3.58,19.24,7.32,17.36,64.27-11.08,128.54-22.15,192.81-33.23-1.68-6.11-3.37-12.21-5.05-18.32-29.54,5.38-59.08,10.75-88.72,15.55-14.4,2.33-28.83,4.63-43.33,6.25-7.17.8-14.35,1.43-21.55,1.82-3.93.21-7.86.37-11.79.41-2.32.02-5.26.36-7.47-.61-.76,5.79-1.51,11.58-2.27,17.36,30.55-6.79,61.55-10.66,92.83-11.62-.84-6.22-1.68-12.44-2.53-18.66-19.35,3.14-38.72,6.17-58.16,8.69-9.81,1.27-19.64,2.43-29.48,3.43-8.8.89-17.83,2.16-26.46-.32v18.32c24.78-7.68,49.78-14.62,74.97-20.79,11.88-2.91,6.85-21.14-5.05-18.32-17.71,4.2-35.42,8.4-53.14,12.6,1.68,6.11,3.37,12.21,5.05,18.32,17.73-5.79,35.02-12.86,51.76-21.08,8.3-4.08,4.5-18.43-4.79-17.7-20.51,1.61-40.89,4.62-60.97,9.1,1.68,6.11,3.37,12.21,5.05,18.32,16.92-6.85,34.56-9.45,52.73-7.71-.84-6.22-1.68-12.44-2.53-18.66-24.71,8.26-49.78,15.36-75.15,21.3-10.26,2.4-8.28,19.46,2.53,18.66,52.28-3.89,104.23-11.93,155.22-24.13,10.16-2.43,8.29-19.89-2.53-18.66-50.78,5.78-100.84,17.75-150.87,27.92,1.68,6.11,3.37,12.21,5.05,18.32,31.17-8.38,62.44-16.74,94.45-21.3,31.02-4.42,62.64-6.1,92.49-16.42,4.45-1.54,7.53-5.58,6.8-10.42-.64-4.26-4.57-8.73-9.33-8.24-28.14,2.93-56.29,5.75-84.61,5.79-14.24.02-28.15.55-42.27,2.52-13.75,1.92-27.4,4.09-41.3,2.27-5.1-.67-9.5,4.84-9.5,9.5,0,5.69,4.39,8.83,9.5,9.5h0Z"/>
    <path class="cls-17" d="M80.45,274.48c-.21-2.09.52-1.97,2.56-1.88,2.53.11,4.91.86,7.48.73,2.16-.11,4.28-.57,6.32-1.3,1.36-.49,4.24-2.58,5.51-2.55-1.41-.59-2.83-1.17-4.24-1.76,2.43,2.17,3.81,5.61,6.3,7.66,1.03,2.08,1.61,1.79,1.73-.84,1.37-1.96.99-2.77-1.15-2.43-1.37-.5-3.97-.45-5.41-.41-3.29.09-6.5,1-9.8,1.09-3.82.11-7.38-.62-11-1.82v11.57c7.89-3.24,16.16-4.57,24.63-3.2,7.55,1.22,10.81-10.34,3.19-11.57-10.58-1.71-21.04-.9-31.01,3.2-5.36,2.2-5.99,9.58,0,11.57,5.13,1.7,10.6,2.56,16.02,2.16,2.67-.2,5.3-.9,7.97-1s5.34.64,8.03.67c4.43.05,8.72-2.09,9.82-6.66,1.19-4.98-2.81-8.61-5.62-12.18-2.72-3.46-5.35-8.39-10.41-8.07-4.81.3-8.24,4.2-13.35,3.84-5.22-.36-9.92-1.61-14.52,1.77-3.56,2.62-5.48,7.03-5.05,11.42.76,7.61,12.77,7.69,12,0h0Z"/>
    <g>
      <path class="cls-3" d="M77.09,282.87c6.76.04,13.49.45,20.19,1.39,1.77.25,3.67.78,5.46.44,1.29-.25,5.95-3.6,6.59-2.8l4.24-5.5c-6.85-3.45-12.22.66-19.02,1.91-4.42.81-2.55,7.56,1.86,6.75,4.04-.74,9.57-4.66,13.63-2.61,3.67,1.85,6.73-2.43,4.24-5.5-1.57-1.93-3.74-2.87-6.25-2.57-2.79.34-4.35,2.99-6.84,3.44-2.98.54-7.62-1.06-10.64-1.34-4.48-.41-8.97-.59-13.47-.61-4.51-.03-4.51,6.97,0,7h0Z"/>
      <path class="cls-3" d="M99.54,264.47c3.33,1.68,6.48,3.65,9.44,5.91,1.5,1.15,3.92.23,4.79-1.26,1.05-1.8.25-3.64-1.26-4.79-2.96-2.27-6.11-4.24-9.44-5.91-4.01-2.02-7.56,4.02-3.53,6.04h0Z"/>
    </g>
    <path class="cls-19" d="M34.98,52.93c25.2.93,50.43,1.12,75.64.53,12.44-.29,24.88-.78,37.31-1.44,6.21-.33,12.43-.72,18.63-1.14,3.27-.23,6.53-.46,9.8-.72,1.31-.1,2.61-.21,3.92-.31.89-.09,1.78-.16,2.67-.2,2.33-.06.98-.43-4.04-1.11-2.03-2.03-4.07-4.07-6.1-6.1l-1.31-5.15-.05,1.25c-.52,1.36-.24,3.49-.35,4.92-.19,2.63-.4,5.25-.61,7.88-.45,5.58-.93,11.16-1.42,16.74-1,11.49-2.02,22.98-2.81,34.48-1.55,22.61-2.1,45.29.07,67.88l12.48-16.39c-4.33,1.18,1.23.64-1.21.29-1.35-.19-2.79-.01-4.16-.2,2.82.4-.08-.11-.53-.22-1.4-.34-2.83-.58-4.24-.85-7.78-1.51-14.83-2.08-22.66-.8-5.43.89-10.52,2.8-15.74,4.46-2.2.7-4.43,1.27-6.67,1.85-4.82,1.24,2.36.19-2.58.37-1.79.06-3.56.15-5.35.12-11.47-.18-21.03-2.93-34.24-3.94-5.48-.42-10.86-.21-16.31.47-3.93.49-7.84,1.08-11.75,1.74-1.2.2-2.41.41-3.61.61-.15.03-5.49.78-2.71.45-2.75.33-5.53.54-8.3.49-.96-.02-1.91-.1-2.87-.14-4.38-.15,2,.72-.47-.09-1.08-.35-2.35-.64-3.46-.86-.75-.15-2.97-1.24.11.22-1.02-.49-2.02-1.23-3.05-1.65-1.02-.67-.8-.46.66.64-.53-.44-1.03-.91-1.5-1.42-2.35-1.61,3.28,2.61-.4-.54-.54-.47-1.13-3-.2-.09-.38-1.2-.59-2.51-1-3.69-.86-2.44,0,3.68-.12-.87-.15-5.65.08-11.22.43-16.86.76-12.33,1.82-24.64,3.16-36.92.64-5.82,1.33-11.63,2.1-17.43-.3,2.22.25-1.78.31-2.25.23-1.61.46-3.22.69-4.83s2.22-7.97,1.54-9.03c1.6,2.49-3.36,4.4-4.5,5.4-1.58,1.37,1.06-.1,1.77-.36-2.74,1.01-1.89.09-.5.12,1.6.03,3.22-.13,4.82-.13,2.89,0,5.78.14,8.66.38,4.17.35,5.07.51,7.95.95,13.4,2.07,26.7,4.47,40.24,5.47,12.41.92,24.87,1.02,37.32.96,5.91-.03,11.81-.09,17.72-.12,3.28-.02,6.56-.02,9.84,0,1.31,0,2.62.02,3.93.03,1.31.01,2.62.03,3.93.06-3.78-3.82-7.57-7.63-11.35-11.45-.97,1.78-.46,7.16-.61,9.18-.22,2.96-.46,5.92-.72,8.88-.57,6.57-1.21,13.14-1.92,19.69-1.44,13.17-2.57,22.7-4.75,35.69-.18,1.07-.4,2.14-.57,3.2-.57,3.67-.48.85.16.5.73-.4,3.29-3.75,1.05-1.16.35-.41,3.46-1.01.1-.11-5.64,1.5-11.46,2.35-17.21,3.29-12.42,2.03-21.38,3.21-34.26,4.51-14.27,1.44-28.59,2.4-42.93,2.88-6.73.22-13.49.46-20.22.34-1.18-.02-3.89-.61-.21.24-.66-.1-1.31-.25-1.95-.46-1.23-.37-.85-.23,1.15.43,1.58,1.99,3.16,3.98,4.74,5.97l.35,1.4c-.23,1.84-.14,1.75.26-.26l.47-1.83c7-27.75,14.9-55.37,15.72-84.19-7.17,5.46-14.35,10.93-21.52,16.39,22.83,3.52,45.59,7.41,68.28,11.72,5.43,1.03,10.86,2.08,16.29,3.16,2.87.57,5.74,1.15,8.61,1.73,2.52.51,6.12,2.03,8.6,1.76l1.17.27c-2.87-3.55-5.73-7.09-8.6-10.64-.58.77,0,3.88,0,4.8,0,2.56,0,5.11,0,7.67,0,2.88,0,5.75,0,8.63,0,1.6,0,3.2,0,4.8,0,.64,0,1.28,0,1.92-.12,3.75.97,1.47,3.27-6.82,2.5-1.46,5-2.91,7.5-4.37-3.83,1.61-8.28,1.99-12.36,2.78-4.52.87-9.04,1.72-13.57,2.54-8.73,1.58-17.48,3.07-26.24,4.46-18.27,2.9-32.82,4.86-51.16,6.93,5.67,5.67,11.33,11.33,17,17,.06-1.69.16-3.36.29-5.04.41-5.2-.73,2.96.31-2.15.62-3.03,1.31-6.02,2.23-8.98.42-1.34.9-2.66,1.37-3.98,1.25-3.53-.64.92.93-2.13s3.12-5.96,4.97-8.78c.21-.32,2.69-3.83,1.56-2.32-.89,1.19,1.77-2.05,2.15-2.46.87-.94,1.81-1.8,2.72-2.7,2.69-2.63-1.52.79,1.43-.96,3.49-2.08-2.76.32,1.67-.79.68-.17,5.3-.75,2.27-.53,3.19-.23,6.4-.13,9.6-.1,29.47.29,58.17-6.49,84.78-19.01-6.87-8.9-13.73-17.8-20.6-26.7-5.89,7.62-12.49,14.63-19.81,20.9-.99.85-2,1.66-2.99,2.49-2.35,1.97.64-.38-.87.69-1.91,1.36-3.78,2.76-5.72,4.06-4.1,2.76-8.34,5.31-12.7,7.63-2.06,1.1-4.15,2.16-6.27,3.16-.94.44-1.89.87-2.83,1.3-4.48,2.04,1.69-.56-.97.42-4.65,1.71-9.24,3.45-14.01,4.81-4.5,1.28-9.06,2.35-13.66,3.18-1.28.23-2.57.41-3.85.63-2.8.49,4.03-.39-.89.1-2.59.26-5.18.48-7.77.63,2.86,10.56,5.72,21.12,8.58,31.68,13.04-8.85,23.21-12.51,37.29-17.78,8.01-3,13.37-9.8,12.18-18.65-1.19-8.84-8.15-13.93-16.7-14.74-9.9-.94-19.81-1.17-29.75-.7-8.87.42-17.42,7.52-17,17,.4,8.85,7.49,17.45,17,17,9.94-.47,19.84-.24,29.75.7-1.51-11.13-3.01-22.26-4.52-33.39-15.64,5.85-31.52,11.78-45.42,21.21-6.05,4.11-10.22,11.75-7.81,19.2,2.22,6.86,8.76,12.92,16.39,12.48,44.97-2.57,88.67-24.11,116.38-59.96,5.25-6.79,6.96-15.04,1.33-22.32-5.45-7.06-14.14-8.04-21.93-4.38-1.64.77-3.28,1.54-4.94,2.26,2-.87-2.9,1.15-3.47,1.37-3.38,1.29-6.8,2.48-10.26,3.55-7.2,2.24-14.54,4.02-21.98,5.3-1.78.31-3.57.61-5.36.84,2.78-.36-2.71.25-2.67.25-3.6.35-7.22.59-10.83.71-8.34.29-16.51-.26-24.8,1.06-16.06,2.57-27.88,15.2-35.86,28.57-8.19,13.73-12.41,29.44-12.96,45.36-.29,8.44,8.06,18.01,17,17,19.47-2.2,38.9-4.8,58.25-7.84,9.09-1.43,18.16-2.96,27.22-4.59,8.72-1.57,18.62-2.32,26.89-5.49,6.77-2.6,11.48-7.38,13.46-14.38,1.39-4.92.72-10.78.72-15.85-.01-9.71,1.8-21.66-2.62-30.56-5.19-10.46-17.21-11.53-27.36-13.57-8.93-1.79-17.87-3.52-26.82-5.2-20.79-3.88-41.63-7.41-62.53-10.63-10.98-1.69-21.18,4.37-21.52,16.39-.42,14.75-2.26,25.26-5.69,40.24-3.05,13.32-7.52,26.48-9.97,39.92-1.94,10.63.69,20.96,9.98,27.36,5.84,4.02,12.85,5.09,19.81,5.18,14.64.2,29.37-.58,43.97-1.63,15.5-1.11,30.94-2.85,46.34-4.99,6.46-.9,12.9-1.88,19.33-2.98,7.24-1.23,14.91-2.18,21.38-5.96,14.82-8.66,15.49-25.24,17.57-40.49,2.17-15.89,4.03-31.81,5.39-47.78.51-6.04,1.48-12.31,1.19-18.37-.61-13.05-10.17-20.59-22.59-21.25-14.37-.76-28.91.1-43.3.05-7.2-.02-14.41-.14-21.61-.5-3.27-.16-6.53-.36-9.79-.63-1.96-.16-3.91-.34-5.86-.54.31.03-5.74-.65-3.28-.34-15.55-1.97-30.94-5.96-46.71-5.78-6.94.08-14.05.85-20.29,4.1C6.67,42.58,2.33,50.22.93,59.24c-2.32,14.99-4.21,30.06-5.7,45.16-1.38,13.91-2.98,28.09-2.91,42.08.09,15.55,5.48,30.18,18.95,38.89,13.79,8.91,30.26,8.1,45.73,5.66,8.13-1.28,11.11-2.23,19.01-2.14,3.63.04,7.25.37,10.85.8-3.12-.37,2.81.41,2.71.39,2.41.36,4.81.73,7.22,1.07,8,1.14,16.13,2.36,24.24,1.8,8.8-.61,16.55-2.97,24.88-5.61,1.1-.35,2.19-.7,3.3-1,.77-.22,6.87-1.09,3.87-.94,1.43-.07,2.84-.04,4.27.05,1.22.11,1.14.09-.26-.06,1.14.2,2.27.41,3.4.65,9.25,1.81,18.07,3.34,27.37.81,6.63-1.8,13.18-9.09,12.48-16.39-3.85-40.09,1.07-80.14,4.24-120.09.92-11.57,2.76-25.38-9.59-31.96-9.48-5.05-22.11-1.93-32.34-1.26-19.94,1.31-39.9,2.14-59.88,2.48-22.6.39-45.2.14-67.79-.69-8.9-.33-17.4,8.05-17,17,.43,9.49,7.47,16.65,17,17h0Z"/>
    <g>
      <path class="cls-20" d="M75.7,255.6c-1.09-9.92,1.7-20.24-1.55-29.92-2.84-8.47-9.82-14.15-16.38-19.76-3.52-3.01-7.13-6.11-9.86-9.89l-3.93,3.03c6.46,5.34,12.99,10.77,18.31,17.29,2.42,2.96,4.55,6.25,6.06,9.78,1.72,4.02,2.41,8.35,2.62,12.69.25,5.32-.08,10.65.21,15.98.17,3.2,5.18,3.22,5,0-.53-9.68.9-19.7-2.61-28.99-3.03-8-8.65-14.65-14.78-20.48-3.61-3.43-7.44-6.63-11.28-9.8-.96-.79-2.25-1.02-3.28-.2-.9.71-1.38,2.2-.64,3.23,4.96,6.86,11.99,11.6,18.02,17.41,2.8,2.7,5.37,5.66,7.01,9.22,1.99,4.32,2.22,9.2,2.14,13.88-.1,5.52-.66,11.04-.05,16.54.15,1.34,1.04,2.5,2.5,2.5,1.24,0,2.65-1.15,2.5-2.5h0Z"/>
      <path class="cls-20" d="M56.65,243.62c-1.19-10.1-.63-20.33,1.8-30.22,1.2-4.91,2.79-9.73,3.72-14.7s1.29-10.42,1.19-15.66c-.11-5.85-.71-11.68-1.31-17.5-1.42.59-2.85,1.18-4.27,1.77.68.58.81,1.28.94,2.16.24,1.56.38,3.13.57,4.7.37,3.05.73,6.1,1.1,9.15.15,1.24.84,2.3,2.17,2.46,1.24.15,2.37-.57,2.74-1.79,1.75-5.75,1.87-11.66.95-17.57-.85-5.48-2.5-11.12-.94-16.63-1.64-.22-3.27-.44-4.91-.66-.2,6.36-.39,12.71-.59,19.07-.09,2.87,4.11,3.32,4.91.66,1.11-3.69,2.48-7.28,4.13-10.76l-4.66-1.26c-.64,7.74-1.63,15.45-2.98,23.1-.68,3.83-1.44,7.64-2.29,11.43s-2.18,7.84-1,11.75c.93,3.07,5.75,1.76,4.82-1.33-.52-1.71-.29-3.39.08-5.11.41-1.89.87-3.76,1.28-5.65.81-3.72,1.53-7.45,2.17-11.2,1.3-7.62,2.27-15.29,2.91-23,.2-2.43-3.61-3.47-4.66-1.26-1.84,3.86-3.41,7.85-4.64,11.95,1.64.22,3.27.44,4.91.66.2-6.36.39-12.71.59-19.07.09-2.85-4.15-3.35-4.91-.66-1.64,5.8-.37,11.67.64,17.45s1.03,11.22-.65,16.75c1.64.22,3.27.44,4.91.66-.43-3.54-.85-7.09-1.28-10.63-.36-3.03-.27-6.75-2.79-8.91-1.46-1.25-4.51-.58-4.27,1.77,1.04,10.12,2.2,20.51.52,30.63-.83,5-2.38,9.83-3.64,14.73s-2.17,10.21-2.6,15.41c-.47,5.77-.35,11.56.33,17.31.16,1.34,1.04,2.5,2.5,2.5,1.23,0,2.66-1.15,2.5-2.5h0Z"/>
      <path class="cls-20" d="M46.31,238.57c.24-5.84-1.2-11.65-4.01-16.76-2.85-5.18-7.26-9.27-10.17-14.39-5.15-9.05-3.98-19.73-4.17-29.72-.05-2.81-.36-5.57.23-8.34s1.07-5.27.75-8.04c-.37-3.19-4.65-3.23-5,0-.59,5.49-1.6,10.96-1.84,16.49-.12,2.65,0,5.29.35,7.92.4,3.02,1.33,5.88,1.89,8.86.49,2.59.28,5.29.46,7.91.2,2.92.79,5.66,2.28,8.2,2.9,4.93,6.75,9.25,9.44,14.32,3.23,6.09,2.81,13.18,5.42,19.48.52,1.25,1.66,2.14,3.08,1.75,1.18-.32,2.27-1.82,1.75-3.08-2.35-5.67-2.18-12-4.53-17.68-2.23-5.39-5.96-9.85-9.16-14.66-1.48-2.21-2.81-4.33-3.16-7.02s-.16-5.17-.38-7.74c-.26-3.07-1.28-5.95-1.84-8.97-.46-2.46-.66-4.96-.64-7.46.04-6.14,1.24-12.23,1.89-18.32h-5c.28,2.37-.07,4.41-.57,6.71-.55,2.55-.57,4.98-.47,7.57.2,5.31-.06,10.62.2,15.93s1.08,10.43,3.16,15.28c2.28,5.31,6.27,9.42,9.55,14.09,3.69,5.26,5.76,11.22,5.5,17.68-.13,3.22,4.87,3.21,5,0h0Z"/>
      <path class="cls-20" d="M149.09,159.71c.14,12.18,14.06,15.83,20.52,23.92,1.18-1.18,2.36-2.36,3.54-3.54-4.14-3.8-8.28-7.59-12.42-11.39-1.98-1.82-3.97-3.62-5.93-5.47-.81-.77-4.17-3.21-3.29-4.53,1.78-2.69-2.55-5.2-4.32-2.52s-.47,5.84,1.51,8.07,4.46,4.3,6.71,6.36c4.73,4.34,9.46,8.68,14.19,13.02,2.42,2.22,5.51-1.06,3.54-3.54-3.22-4.04-7.78-6.68-11.86-9.74-3.39-2.55-7.15-6.08-7.2-10.64-.04-3.22-5.04-3.22-5,0h0Z"/>
      <path class="cls-20" d="M131.43,144.65c2.32,7.41,2,15.21,2.85,22.85.79,7.12,2.59,14,7.17,19.66,1.56,1.93,5.01-.15,4.18-2.43-4.81-13.28-8.19-27.03-10.09-41.02-.18-1.34-1.9-2.07-3.08-1.75-1.44.4-1.93,1.73-1.75,3.08,1.9,13.99,5.28,27.75,10.09,41.02,1.39-.81,2.79-1.62,4.18-2.43-4.01-4.96-5.31-11.55-5.87-17.75-.68-7.55-.57-15.25-2.86-22.56-.96-3.06-5.79-1.75-4.82,1.33h0Z"/>
      <path class="cls-20" d="M97.63,106.04c-.16,20.57,4.3,40.85,4.38,61.41.04,10.08-1.11,20.08-4.3,29.67s-7.86,18.77-10.09,28.71c-2.6,11.6-2.29,23.55-1.92,35.35l4.27-1.77c-1.1-1.24-1.52-2.84-1.85-4.43-.4-1.91-.61-3.85-.69-5.81-.15-3.91.23-7.81.99-11.64,1.6-8.14,4.55-15.93,7.27-23.74,5.58-16.03,9.09-32.62,9.91-49.6.45-9.45.08-18.92-1.08-28.31-.17-1.34-1.03-2.5-2.5-2.5-1.22,0-2.67,1.15-2.5,2.5,2.1,16.93,1.6,34.17-1.61,50.94-1.63,8.5-3.98,16.81-6.81,24.98-2.76,7.96-5.8,15.89-7.46,24.18-.92,4.62-1.45,9.37-1.16,14.09s.88,9.39,3.96,12.87c1.43,1.62,4.33.34,4.27-1.77-.33-10.39-.71-20.93,1.17-31.21s6.25-19.19,9.69-28.7c3.48-9.63,5.15-19.67,5.41-29.89s-.75-20.52-1.84-30.72c-1.23-11.5-2.59-23.02-2.5-34.61.03-3.22-4.97-3.22-5,0h0Z"/>
      <path class="cls-20" d="M109.43,261.07c.38-8.61.76-17.23,1.14-25.84.38-8.67.9-17.41-.74-25.99-1.57-8.21-5-15.94-7.93-23.73-2.98-7.94-5.78-15.95-8.38-24.02-2.94-9.11-5.62-18.3-8.05-27.55-1.52.64-3.05,1.28-4.57,1.93,3.28,7.22,6.58,14.45,9.29,21.91,2.71,7.44,4.55,15.12,6.66,22.74,1.06,3.81,2.2,7.6,3.61,11.3s3.08,7.32,4.39,11.06,2.05,7.38,2.31,11.25.2,7.99.21,11.98c.01,4.61.02,9.21.04,13.82.01,4.23.63,8.99-.97,13-.5,1.25.55,2.75,1.75,3.08,1.43.39,2.57-.49,3.08-1.75,1.49-3.73,1.17-7.92,1.16-11.86-.01-4.28-.02-8.56-.03-12.83-.02-8.12.5-16.56-1.61-24.49-1.02-3.83-2.6-7.47-4.1-11.12-1.56-3.79-2.92-7.65-4.09-11.58-2.28-7.73-4.01-15.61-6.61-23.23-3.01-8.82-6.89-17.32-10.75-25.8-1.2-2.63-5.27-.74-4.57,1.93,4.29,16.28,9.35,32.36,15.17,48.16,2.89,7.85,6.35,15.57,8.42,23.69,2.09,8.18,1.85,16.56,1.48,24.92-.43,9.68-.86,19.36-1.28,29.03-.14,3.22,4.86,3.21,5,0h0Z"/>
      <path class="cls-20" d="M97.01,163.88c-2.52-6.42-6.42-12.11-11.42-16.86-1.56-1.48-4.25-.43-4.27,1.77-.06,8.3,4.83,15.66,11.66,20.06,1.69,1.09,3.65-.37,3.76-2.16.52-8.09-4.27-15.1-7.47-22.16-.75-1.64-1.39-3.33-1.86-5.07-.5-1.86-.53-3.64-.73-5.54-.28-2.56-1.63-4.34-3.69-5.8-1.79-1.27-4.28-2.78-6.22-.88-1.92,1.88-1.33,5.21-.03,7.26,1.44,2.28,3.8,3.72,6.08,5.05,1.29.76,3.38.12,3.67-1.49.69-3.82-.6-7.54-3.51-10.13-2.4-2.13-5.95,1.39-3.54,3.54,1.49,1.33,2.59,3.2,2.22,5.27,1.22-.5,2.45-1,3.67-1.49-1.27-.74-2.59-1.47-3.64-2.51-.41-.41-.82-.88-1.03-1.44-.07-.18-.08-.39-.12-.58-.13-.54.37-.49-.14-.02l-1.1.64c-.87-.21-1.02-.18-.45.1.22.13.44.26.66.39.32.2.65.39.95.62.44.34.92.74,1.12,1.28.32.83.16,1.84.24,2.71.07.82.18,1.63.33,2.44.61,3.4,2.03,6.63,3.52,9.72,2.74,5.7,6.5,11.53,6.08,18.11l3.76-2.16c-5.36-3.46-9.22-9.24-9.18-15.75l-4.27,1.77c4.34,4.12,7.93,9.05,10.13,14.65.49,1.26,1.67,2.13,3.08,1.75,1.2-.33,2.24-1.81,1.75-3.08h0Z"/>
    </g>
    <path class="cls-25" d="M180.08,204.79c2,.12,3.91.03,5.9-.35.35-.07,1.11-.08,1.39-.31.77-.63.79.4.22-.17-.83.17-1.62-.01-2.36-.56-1.89-.97-2.29-.97-1.21,0,.17.53.98,1.26,1.31,1.73,1.27,1.82,2.39,3.8,3.31,5.83,3.78,8.3,4.93,18.14,5.32,27.17.75,17.19-4.07,32.76-16.18,45.23-5.08,5.23-.03,14.77,7.3,12.54,16.73-5.09,32.67-12.43,49.41-17.44,14.32-4.29,33.56-4.15,44.46-15.68,6.19-6.54,8.06-15.1,9.9-23.62,1.28-5.96,2.76-11.98,3.15-18.08.78-12.1-6.24-22.16-12.67-31.76-3.93,3.03-7.85,6.06-11.78,9.09,3.3,3.68,7.14,7.51,9.95,11.34.69.93,1.62,2.37,2.17,3.61.17.38-.14-.49.22.83.38,1.4.17.34.22.82.42,3.8-.38,7.73-1.03,11.46-.99,5.66-1.45,12.8-5.34,17.36-4.13,4.84-11.64,6.15-17.52,7.44-6.87,1.5-13.87,2.57-20.48,5.06-11.46,4.3-21.83,15.03-34.34,15.83,2.41,3.16,4.82,6.33,7.23,9.49.37-2.05,3.89-3.95,5.54-5.17,2.76-2.05,5.62-3.97,8.56-5.76,5.55-3.39,11.39-6.38,17.47-8.7,13.32-5.08,27.46-7.48,40.8-12.49,9.04-3.4,5.57-16.22-3.99-14.46-24.84,4.57-47.89,16.6-73.04,19.65l3.79,13.98c22.61-13.72,46.82-24.17,72.32-31.17,7.88-2.16,6.66-15.6-1.99-14.73-28.01,2.82-54.06,13.89-81.63,18.84,1.93,4.57,3.85,9.14,5.78,13.71,9.76-6.18,20.99-9.3,31.94-12.67,11.9-3.66,23.89-7,35.95-10.04,8.43-2.13,6.27-14.35-1.99-14.73-18.7-.87-37.22,2.12-55.61,5.15,1.33,4.82,2.66,9.64,3.99,14.46,23.83-6.77,48.18-11.31,72.52-15.79-1.33-4.82-2.66-9.64-3.99-14.46-15.77,3.1-31.54,6.2-47.31,9.3-12.09,2.38-29.04,2.84-35.93,14.88,4.66,1.26,9.32,2.52,13.98,3.79-.81-7.8-1.59-15.6-2.42-23.4-.67-6.29-1.37-12.51-3.94-18.36-2.44-5.53-6.77-10.33-13.38-9.04-4.98.97-8.5,4.91-13,6.97-8.21,3.75-2.02,15.16,5.78,13.71,15.35-2.86,31.5-.51,46.99-.15,7.13.17,14.35.08,21.37-1.32,5.8-1.16,13.5-3.91,15.51-10.06,1.41-4.31-2.47-9.96-7.23-9.49l-.32.03c-5.57.55-9.46,5.97-6.48,11.29,2.45,4.37,6.93,9.12,12.43,7.75,2.41-.6,4.12-2.15,5.53-4.11.27-.37.57-.73.77-1.14,1.26-2.65,1.56.38-2.55,1.24h-3.99c-3.22-.73-4.2-2.31-2.96-4.73-.73.77-1.5,1.51-2.29,2.22-1.51,1.35-3.11,2.52-4.82,3.61-3.52,2.23-7.26,4.02-11.2,5.38-9.46,3.26-19.42,4.52-29.31,5.69.66,4.91,1.33,9.82,1.99,14.73,19.02-3.15,38.04-6.3,57.07-9.45,3.95-.65,6.29-5.66,5.24-9.23-1.8-6.1-4.38-12.02-7.97-17.29-3.02-4.43-6.89-9.98-12.58-10.89-4.63-.74-8.5,2.4-9.74,6.77-.45,1.58-.58,3.31-.7,4.94-.06.71-.15,1.54-.11,2.26.17,2.61-2.02,1.74,2.01-3.39h10.61l1.72,2.86c-2.7-7.62-14.93-6.91-14.73,1.99-.02-.8,4.96-3.55,3.02-3.46-.9.04-2.3.99-3.06,1.57-1.41,1.08-2.39,2.35-3.06,4-.45,1.11-.89,2.59-.81,3.81.26,3.91,2.56-2.89,2.81-2.29-.04-.1-7.91,2.07-8.27,2.17-10.74,2.72-21.57,5.09-32.46,7.16l9.23,5.24c-1.74-8.25-3.48-16.5-5.22-24.75-2.41,3.16-4.82,6.33-7.23,9.49,17.62-.61,35.14-2.26,52.58-4.78-2.82-3.67-5.65-7.34-8.47-11.02-3.87,6.83-8.43,13.19-14.11,18.65-2.2,2.11-4.68,4.09-7.8,4.52-1.66.23-7.87-.1-8.65-1.83l.76,5.78c-1.31,1.82-1.25,1.92.17.28l1.14-1.12c1.15-1.11,2.35-2.19,3.6-3.18,2.63-2.09,5.52-3.88,8.49-5.44,5.84-3.09,12.17-4.85,18.7-5.78l-7.3-12.54c-6.66,6.34-16.63,7.77-23.64,13.96-5.42,4.79-.53,12.1,5.3,12.8,5.16.62,10.31,1.24,15.47,1.86l-1.99-14.73c-7.34,2.52-14.75,4.78-22.25,6.79-9.32,2.49-5.36,16.97,3.99,14.46,7.5-2.01,14.91-4.27,22.25-6.79,8.37-2.87,6.28-13.74-1.99-14.73-5.16-.62-10.31-1.24-15.47-1.86,1.77,4.27,3.54,8.54,5.3,12.8,6.94-6.13,16.75-7.41,23.64-13.96,5.98-5.7-.51-13.5-7.3-12.54-10.38,1.47-20.53,5.4-29.1,11.48-3.97,2.82-8.26,6.02-11.24,9.92-3.96,5.18-2.56,11.33,2.85,14.83,8.92,5.76,21.24,6.18,30.1.2,9.34-6.32,16.56-16.59,22.04-26.26,3.52-6.22-2.26-11.91-8.47-11.02-16.11,2.33-32.33,3.68-48.59,4.24-5.08.17-8.26,4.64-7.23,9.49,1.74,8.25,3.48,16.5,5.22,24.75.88,4.19,5.44,5.96,9.23,5.24,13.55-2.57,27.58-5.07,40.73-9.32,2.24-.72,4.24-1.58,5.81-3.4,1.14-1.32,1.81-2.67,2.2-4.36l.27-1.99c.17-2.7-1.03-1.87-3.61,2.5,5.22.07,7.54-6.88,7.45-10.85-4.91.66-9.82,1.33-14.73,1.99.56,1.6,1.1,2.44,2.14,3.76,2.29,2.94,8.32,2.92,10.61,0,1.8-2.3,2.18-4.08,2.38-6.9.06-.83.15-1.74.12-2.57.09-.96.09-1.06.01-.3.83-2.85-1.02-1.7-5.57,3.45l-3.79-1.02c5.75,2.77,9.2,12.67,10.87,18.32,1.75-3.08,3.49-6.15,5.24-9.23-19.02,3.15-38.04,6.3-57.07,9.45-8.25,1.37-6.42,15.72,1.99,14.73,19.6-2.31,39.88-5.13,55.33-18.54,6.17-5.36,10.14-14.42,2.87-21.04-2.76-2.52-6.84-3-10.03-1-1.42.89-2.56,2.22-3.42,3.65-.18.31-.46.64-.59.98-.69,1.91-2.9-.22,2.66-1.64h3.99c2.86,2.51,3.48,2.7,1.86.57-.27-1.38-.71-1.86-1.34-1.42-2.16,3.76-4.32,7.52-6.48,11.29l.32-.03c-2.41-3.16-4.82-6.33-7.23-9.49,1.45-4.42,2.99-3.25-.06-1.82-.03.01-1.89.67-2.51.83-2.52.69-5.07,1.01-7.67,1.19-6.59.45-13.23.18-19.82-.1-14.45-.62-29.01-1.72-43.33.95l5.78,13.71c1.6-.73,3.05-1.61,4.5-2.61.85-.58,3.57-1.85,4.03-2.71,1.48-.72-.04-1.28-4.55-1.67.49.78.94,1.59,1.33,2.43.83,1.91,1.27,4.07,1.65,6.1,1.8,9.59,2.19,19.61,3.19,29.32.72,6.96,9.99,10.76,13.98,3.79,2.27-3.96,8.43-4.34,12.48-5.14,6.76-1.34,13.52-2.66,20.27-3.99,13.84-2.72,27.68-5.44,41.51-8.16,9.49-1.87,5.44-16.2-3.99-14.46-24.34,4.48-48.69,9.02-72.52,15.79-9.47,2.69-5.36,16,3.99,14.46,17.11-2.81,34.23-5.42,51.62-4.61-.66-4.91-1.33-9.82-1.99-14.73-12.69,3.2-25.29,6.73-37.78,10.61-11.54,3.59-23.41,7.11-33.7,13.62-7.44,4.71-2.46,15.19,5.78,13.71,26.18-4.71,51.08-15.63,77.65-18.31-.66-4.91-1.33-9.82-1.99-14.73-26.67,7.32-52.26,18.33-75.91,32.68-5.84,3.55-4.01,14.92,3.79,13.98,26.61-3.23,50.8-15.36,77.03-20.19l-3.99-14.46c-15.57,5.85-32.07,8.53-47.37,15.19-7.1,3.09-13.89,6.85-20.25,11.27-5.72,3.98-13.88,8.72-15.23,16.14-.81,4.46,1.98,9.83,7.23,9.49,16.12-1.03,26.88-12.91,41.64-17.5,15.21-4.73,34.92-4.19,44.42-19.3,4-6.35,5.08-13.96,6.31-21.21.85-5,1.79-10.14,1.22-15.22-1.21-10.75-9.99-18.48-16.83-26.11-5.63-6.28-16.54,1.98-11.78,9.09,5.25,7.84,11.21,15.63,10.62,24.19-.35,5.12-1.85,10.49-2.95,15.63-1.41,6.56-2.46,13.89-8.55,17.8-5.3,3.41-12.14,4.15-18.19,5.34-7.6,1.5-15.08,3.48-22.43,5.92-14.72,4.88-28.93,11.14-43.79,15.66l7.3,12.54c15.98-16.45,22.25-37.83,20.27-60.45-1.04-11.86-3.06-24.28-9.46-34.55-2.26-3.62-5.37-8.47-9.8-9.63-3.3-.87-6.44.63-9.32.46-9.64-.58-9.61,14.42,0,15h0Z"/>
    <path class="cls-23" d="M156.25,203.41c8.2-1.31,15.59,4.91,18.57,12.08,4.01,9.64.36,19.85,1.45,29.84s14.07,9.7,15,0c.69-7.18.94-14.36.76-21.57-4.27,1.77-8.54,3.54-12.8,5.3,5.43,6.1,4.01,15.48,1.69,22.59-3.28,10.06-8.85,19.17-11.23,29.56-1.69,7.38,6.95,12.41,12.54,7.3,6.92-6.33,11.74-14.47,14.07-23.55,2.04-7.96-9.81-13.63-13.71-5.78-6.22,12.55-15.57,32.36-32.62,30.97-7.36-.6-12.7-6.63-16.55-12.4-4.91-7.36-7.78-14.66-8.73-23.49-.86-7.97-2.43-18.08.2-25.81s9.16-14.85,14.94-20.38c5.01-4.8,11.73-9.37,18.25-4.52,6.43,4.79,10,13.36,12.15,20.81,3.49,12.12,6.58,32.95-5.23,41.84-2.95,2.22-6.53,3.44-10.05,4.39-3.14.84-8.34,2.86-11.43,1.44-5.77-2.65-9.1-13.16-9.75-18.82-.89-7.74,1.39-15.86,6.14-22.03,2.16-2.8,4.9-5.22,7.83-7.18,1.81-1.22,3.71-2.3,5.65-3.3,1.39-.72,4.02-2.62,5.54-2.52.59.04-2.47-2.31.69.26.34.28.64,1.06.84,1.44.78,1.49,1.14,3.29,1.46,4.95.87,4.52,1.04,9.27,1.17,13.86.27,9.67-.48,19.35-2.59,28.8-1.18,5.28-4.34,18.55-12.44,16.54-3.67-.91-5.26-6.87-6.18-9.93-1.5-4.98-2.28-10.15-3.09-15.27-.86-5.47-1.71-10.94-2.27-16.46-.41-4.06-1.79-10.07.22-13.88,1.69-3.21,6.35-6.08,9.18-8.25,3.74-2.86,7.72-5.36,12.24-6.75,7.88-2.41,6.72-14.98-1.99-14.73-10.38.3-14.85,8.56-17.49,17.45-2.67,8.95-4.63,18.11-6.06,27.34-1.54,9.91-2.56,19.9-3.12,29.91-.45,8.08-1.38,19.05,8.89,21.19,8.17,1.7,15.5-5.11,20.14-11.01,5.39-6.87,9.3-15.03,12.46-23.14,5.56-14.25,4.47-32.58-8.18-43-3.7-3.05-9.12-2.94-11.78,1.52-1.9,3.19-2.14,6.73-2.16,10.36-.02,3.44-.64,6.65-1.16,10.06-1.46,9.53-2.45,19.11-2.93,28.74-.43,8.55,12.52,10.05,14.73,1.99,3.5-12.73,6.13-25.64,7.9-38.71,1.28-9.44-11.01-13.23-14.46-3.99-6.23,16.67-10.22,33.85-12.39,51.5-.9,7.29,8.41,8.75,12.8,5.3,10.4-8.16,12.78-22.1,12.95-34.57.13-9.66-14.87-9.66-15,0-.12,8.84-1.16,18.16-8.55,23.96,4.27,1.77,8.54,3.54,12.8,5.3,2-16.25,6.13-32.19,11.86-47.51-4.82-1.33-9.64-2.66-14.46-3.99-1.77,13.08-4.41,25.99-7.9,38.71,4.91.66,9.82,1.33,14.73,1.99.41-8.28,1.13-16.55,2.39-24.75.54-3.49,1.41-6.99,1.66-10.52.11-1.52-.53-5.18.15-6.32-3.93.51-7.85,1.01-11.78,1.52,7.62,6.28,8.4,16.42,5.49,25.22-1.69,5.09-4.15,10.02-6.76,14.7-1.19,2.13-2.44,4.31-3.96,6.23-.93,1.18-2.01,2.34-3.12,3.36-.55.5-2.47,1.49-2.68,2.03-1.22.47-.82.99,1.19,1.58,1.6,1.83,2.2,1.74,1.8-.27.55-1.09.14-3.48.2-4.67.15-3.12.34-6.23.57-9.34.49-6.48,1.16-12.96,2.16-19.38s2.15-12.27,3.63-18.32c.53-2.15,2.76-15.38,5.46-15.45l-1.99-14.73c-5.82,1.78-10.96,4.63-15.82,8.26-4.47,3.34-9.41,6.87-12.87,11.31-7.95,10.22-3.92,25.72-2.2,37.44s2.89,26.55,11.14,36.2c8.12,9.51,22.29,8.43,30.76-.1,8.38-8.44,10.4-21.55,11.86-32.82,1.62-12.58,1.82-25.97-.65-38.47-1.13-5.72-3.79-11.85-8.77-15.23-5.8-3.94-11.39-2.6-17.35.03-10.54,4.65-20.17,11.71-25.84,21.95-5.71,10.32-7.32,22.63-4.21,34.02,2.7,9.92,10.01,23.22,21.05,25.43,5.55,1.11,11.55-.41,16.94-1.8,5.54-1.43,10.99-3.56,15.6-7,9.27-6.94,13.15-17.8,14.09-29,.99-11.77-1.08-24.52-5.45-35.47s-10.65-21.19-21.49-25.63c-11.75-4.82-23.22,1.17-31.72,9.32-8.31,7.96-17.31,18.66-19.61,30.24-1.37,6.92-.88,14.27-.38,21.26s1.13,14.66,3.56,21.48c4.11,11.52,12.12,24.03,22.83,30.42,11.27,6.73,25.34,4.95,35.97-2.21,11.42-7.71,17.99-19.86,23.96-31.9-4.57-1.93-9.14-3.85-13.71-5.78-1.73,6.75-5.08,12.23-10.21,16.93l12.54,7.3c2.81-12.24,10.28-22.87,12.72-35.2,2.23-11.29.81-22.72-7.04-31.54-4.33-4.87-12.96-1.01-12.8,5.3.18,7.21-.07,14.39-.76,21.57h15c-.81-7.48,1.06-14.88.43-22.35-.56-6.67-2.43-13.35-6.07-19.03-7.34-11.44-20.02-17.13-33.37-15-3.99.64-6.24,5.63-5.24,9.23,1.19,4.26,5.19,5.88,9.23,5.24h0Z"/>
    <path class="cls-26" d="M163.3,327.52c3.04-1.89,6.31-3.04,9.93-2.78,3.66.26,6.98,1.7,10.72,1.34l-2.78-10.25c-2.58,1.23-5.88.33-8.59.06-2.86-.28-5.54-.14-8.34.56-6.86,1.71-3.96,12.33,2.92,10.61,3.35-.84,6.7.16,10.08.3,3.44.14,6.39-.55,9.48-2.03,4.81-2.3,2.6-10.77-2.78-10.25-4.56.44-9.01-1.66-13.69-1.27s-8.69,1.83-12.5,4.21c-6,3.74-.48,13.26,5.55,9.5h0Z"/>
    <path class="cls-10" d="M23.11,297.97c11.49,9.13,21.88,19.43,31.12,30.83l5.35-9.19c-9.6-1.32-19.21-2.05-28.91-1.83-1.35.03-4.93.88-6.05.21.76.45-2.06-3.98-2.47-4.63-2.65-4.17-5.29-8.34-7.94-12.52l-1.97,7.53c2.2-1.44,4.52-2.96,6.99-3.91,3.35-1.3,4.39.69,6.9,2.93,4.65,4.16,9.31,8.32,13.96,12.48.81-3.06,1.62-6.13,2.43-9.19-2.52.37-5.05.74-7.57,1.1-1.69.25-4.05,1.1-5.68.83-1.92-.32-1.88-.98-2.98-2.96-1.17-2.1-2.21-4.26-3.2-6.44l-6.21,8.08c3.43.97,6.35,2.71,8.5,5.63,3.14,4.25,10.06,3.03,10.25-2.78.25-7.53-.69-14.97-2.77-22.21-.78-2.71-3.93-4.84-6.77-3.84-9.86,3.47-19.66,7.1-29.39,10.89-3.94,1.53-5.34,5.89-2.43,9.19,3.89,4.41,7.78,8.82,11.67,13.24,3.3,3.74,6.19,8.61,11.62,8.91s11.59-.57,17.26-.91c6.1-.36,12.2-.73,18.3-1.09,7.03-.42,7.08-11.42,0-11-10.28.61-20.55,1.23-30.83,1.84-3.24.19-3.12,1-4.68-1.11s-3.48-3.95-5.19-5.88c-3.46-3.92-6.92-7.84-10.37-11.77l-2.43,9.19c9.74-3.79,19.53-7.43,29.39-10.89-2.26-1.28-4.51-2.56-6.77-3.84,1.82,6.37,2.59,12.66,2.37,19.29,3.42-.93,6.83-1.85,10.25-2.78-3.89-5.27-8.73-8.88-15.07-10.68-4.99-1.41-8.11,3.92-6.21,8.08,2.27,4.98,5.08,12.8,10.84,14.66,3.02.97,6.64-.04,9.66-.48,3.79-.55,7.57-1.1,11.36-1.66,4.08-.6,5.28-6.64,2.43-9.19-6.45-5.77-12.83-12.9-20.01-17.72-6.77-4.55-15.27.62-21.17,4.5-2.41,1.58-3.63,4.91-1.97,7.53,2.98,4.69,5.96,9.39,8.93,14.08,2.52,3.98,4.66,7.71,9.69,8.38,4.84.64,10.03-.19,14.93-.08,6.15.14,12.3.6,18.39,1.44,5.51.76,8.99-4.71,5.35-9.19-9.24-11.4-19.63-21.7-31.12-30.83-5.49-4.36-13.32,3.37-7.78,7.78h0Z"/>
    <path class="cls-9" d="M145.85,196.26c3.72-1.52,7.81-1.99,11.81-1.8,5.02.24,8.04,2.61,11.23,6.32,6.4,7.44,11.94,14.03,14.28,23.83s2.23,19.31,1.8,28.89c-.5,10.9-2.58,21.81-9.71,30.42-2.85,3.44,2.07,8.42,4.95,4.95,7.85-9.47,10.82-20.81,11.62-32.9.79-11.91.73-24.61-2.69-36.14-3.07-10.34-10.03-19.13-17.66-26.58-7.08-6.91-18.58-7.38-27.49-3.73-4.11,1.68-2.31,8.46,1.86,6.75h0Z"/>
    <path class="cls-14" d="M31.81,209.3c-.24-5.82-.49-11.65-.73-17.47-.19-4.64.49-10.85-3.95-13.78-1.62-1.07-3.75.35-3.76,2.16-.11,14.22,4.18,28.03,4.34,42.23l4.27-1.77c-1.52-1.46-1.93-3.59-2.35-5.57-.56-2.67-1.04-5.37-1.37-8.08-.69-5.55-.94-11.15-.77-16.74.1-3.22-4.9-3.22-5,0-.19,6.14.15,12.27.98,18.35.39,2.88.87,5.75,1.51,8.58.58,2.58,1.52,5.12,3.46,6.99,1.53,1.48,4.29.44,4.27-1.77-.16-14.2-4.45-28.01-4.34-42.23l-3.76,2.16c1.13.75,1.17,2.72,1.24,3.95.14,2.49.21,4.99.31,7.48.22,5.17.43,10.33.65,15.5.13,3.21,5.13,3.22,5,0h0Z"/>
    <g>
      <path class="cls-20" d="M63.72,274.02c1.03-10.99-1.61-22.37,1.15-33.19,2.37-9.3,9.41-15.83,15.89-22.45,3.7-3.78,7.3-7.71,10.07-12.25,1.49-2.45-1.91-5.01-3.93-3.03-6.98,6.84-13.96,13.83-19.37,22.01-2.67,4.04-4.9,8.39-6.45,12.98-1.74,5.17-2.42,10.62-2.63,16.05-.25,6.3.08,12.61-.21,18.91-.15,3.22,4.85,3.21,5,0,.49-10.62-.91-21.55,2.12-31.9,2.55-8.72,7.92-16.29,13.9-23,3.56-4,7.37-7.78,11.19-11.52l-3.93-3.03c-4.92,8.09-12.65,13.87-18.59,21.14-3.21,3.92-5.88,8.2-7.4,13.06-1.69,5.42-1.95,11.21-1.85,16.85.11,6.45.65,12.91.05,19.36-.13,1.35,1.24,2.5,2.5,2.5,1.46,0,2.37-1.15,2.5-2.5h0Z"/>
      <path class="cls-20" d="M82.77,259.81c1.2-12,.6-24.14-1.72-35.98-1.17-5.95-2.81-11.8-3.83-17.79-1.01-5.95-1.26-12.01-1.17-18.04.11-6.94.71-13.86,1.31-20.77.19-2.23-2.83-3.21-4.27-1.77-2.68,2.68-2.46,7.02-2.82,10.53-.42,4.1-.83,8.21-1.25,12.31,1.64-.22,3.27-.44,4.91-.66-1.69-6.55-1.66-13.22-.68-19.88s2.33-13.79.67-20.67c-.66-2.73-4.98-2.16-4.91.66.2,7.54.39,15.08.59,22.61,1.64-.22,3.27-.44,4.91-.66-1.16-4.58-2.62-9.08-4.38-13.46-.46-1.15-1.42-1.99-2.74-1.79-1.15.17-2.26,1.2-2.17,2.46.64,9.14,1.62,18.25,2.94,27.31.65,4.46,1.38,8.91,2.19,13.35.41,2.23.88,4.45,1.28,6.68.36,2.02.56,4.08.04,6.09-.81,3.12,4.01,4.45,4.82,1.33,1.16-4.5-.12-9.06-.96-13.49s-1.65-9.2-2.34-13.82c-1.36-9.1-2.33-18.26-2.97-27.44-1.64.22-3.27.44-4.91.66,1.76,4.39,3.23,8.88,4.38,13.46.69,2.72,4.98,2.17,4.91-.66-.2-7.54-.39-15.08-.59-22.61-1.64.22-3.27.44-4.91.66,1.59,6.6-.07,13.41-.95,19.99s-.78,13.8.96,20.56c.31,1.19,1.55,1.97,2.74,1.79,1.31-.2,2.04-1.18,2.17-2.46.37-3.62.74-7.24,1.1-10.86.18-1.77.36-3.54.54-5.31.11-1.07.17-2.33.96-3.13l-4.27-1.77c-1.06,12.16-2.1,24.44-.5,36.6.81,6.1,2.35,12.05,3.67,18.05s2.16,11.66,2.56,17.58c.46,6.78.34,13.59-.34,20.35-.13,1.35,1.25,2.5,2.5,2.5,1.46,0,2.37-1.15,2.5-2.5h0Z"/>
      <path class="cls-20" d="M93.12,253.82c-.23-6.61,1.18-13.19,4.29-19.05,3.13-5.91,7.55-11.04,10.15-17.24,4.84-11.54,3.69-24.23,3.93-36.44.07-3.51.26-6.88-.34-10.36-.5-2.92-.95-5.54-.65-8.53h-5c.58,6.41,1.57,12.81,1.83,19.24.12,2.99.05,5.98-.26,8.96-.35,3.33-1.26,6.51-1.8,9.8-1,6.19.36,12.73-2.59,18.49-3.01,5.86-6.94,11.21-9.52,17.29-1.55,3.66-2.39,7.44-2.99,11.36s-1.13,8.14-2.49,12.03c-.45,1.27.51,2.74,1.75,3.08,1.38.38,2.63-.47,3.08-1.75,2.39-6.81,2.12-14.22,4.55-21.02,2.24-6.28,6.35-11.69,9.46-17.52,1.6-3,2.62-5.92,2.98-9.31s.17-6.65.45-9.97,1.3-6.36,1.76-9.56.71-6.41.68-9.64c-.07-7.19-1.24-14.33-1.89-21.48-.29-3.22-4.68-3.2-5,0-.29,2.87.03,5.62.56,8.44s.59,5.28.49,8.05c-.23,6.33.04,12.67-.2,19-.22,5.92-.98,11.81-3.14,17.36-2.35,6.02-6.71,10.98-9.79,16.61-3.72,6.77-5.57,14.45-5.29,22.17.11,3.21,5.11,3.22,5,0h0Z"/>
      <path class="cls-20" d="M165.81,155.36c1.23,5.46-1.53,10.88-4.41,15.34-3.15,4.87-6.72,9.41-8.69,14.94-.95,2.67,3.26,4.42,4.57,1.93,3.52-6.71,7.04-13.43,10.56-20.14,1.61-3.08,3.39-6.16,4.67-9.39,1.11-2.81,1.32-6.13-.97-8.41-2.28-2.27-5.82,1.26-3.54,3.54,1.13,1.13-.47,3.9-1.11,5.19-1.45,2.95-3,5.86-4.53,8.77-3.13,5.98-6.27,11.95-9.4,17.93,1.52.64,3.05,1.28,4.57,1.93,2-5.6,6.06-10.16,9.1-15.2,3.22-5.32,5.41-11.5,4-17.74-.71-3.14-5.53-1.81-4.82,1.33h0Z"/>
      <path class="cls-20" d="M178.59,131.08c-.45,16.46,8.1,33.43,2.2,49.62,1.64.22,3.27.44,4.91.66,1.06-16.69.62-33.46-1.32-50.07-.16-1.34-1.04-2.5-2.5-2.5-1.23,0-2.66,1.15-2.5,2.5,1.94,16.61,2.38,33.38,1.32,50.07-.08,1.23,1.01,2.32,2.17,2.46,1.29.15,2.3-.59,2.74-1.79,6.13-16.8-2.49-33.93-2.02-50.95.09-3.22-4.91-3.22-5,0h0Z"/>
      <path class="cls-20" d="M31.8,96.66c.17,24.35-4.29,48.46-4.38,72.8-.04,12.03,1.07,24.11,4.22,35.74,3.15,11.6,7.98,22.71,10.27,34.54,2.6,13.45,2.18,27.26,1.82,40.88-.03,1.09.8,2.13,1.84,2.41,1.15.32,2.15-.25,2.82-1.15,2.81-3.75,3.23-9.09,3.52-13.6.32-4.85-.01-9.71-.67-14.52-1.37-9.92-4.34-19.52-7.17-29.1-5.69-19.24-9.39-38.81-10.22-58.88-.46-11.25-.1-22.53,1.08-33.73.14-1.34-1.25-2.5-2.5-2.5-1.47,0-2.36,1.15-2.5,2.5-2.07,19.8-1.55,39.8,1.42,59.49,1.47,9.72,3.57,19.33,6.25,28.78s5.82,18.88,7.77,28.56c1.05,5.25,1.72,10.58,1.68,15.94-.02,2.64-.19,5.29-.61,7.89-.38,2.38-.89,4.69-2.36,6.65l4.66,1.26c.33-12.36.59-24.75-1.14-37.03-1.69-11.95-6.06-23.1-9.62-34.57-3.55-11.45-5.27-23.13-5.52-35.11s.77-24.31,1.86-36.41c1.23-13.59,2.58-27.2,2.48-40.86-.02-3.22-5.02-3.22-5,0h0Z"/>
      <path class="cls-20" d="M29.99,280.51l-1.13-30.36c-.37-9.88-1.03-19.95.57-29.76s4.95-18.7,7.87-27.9c3-9.46,5.81-18.99,8.41-28.57,2.95-10.84,5.63-21.74,8.06-32.71.71-3.19-3.68-4.3-4.82-1.33-3.41,8.88-6.82,17.77-9.6,26.87-2.79,9.11-4.62,18.44-6.81,27.7-1.1,4.65-2.32,9.27-3.83,13.81s-3.09,8.61-4.31,13.02c-2.6,9.39-2.33,19.13-2.35,28.79-.01,5.4-.02,10.81-.04,16.21s-.57,10.97,1.15,16.03c1.03,3.03,5.86,1.73,4.82-1.33-1.46-4.28-.99-9.03-.98-13.48.01-4.83.02-9.66.03-14.49.02-9.34-.59-19.01,1.59-28.16,1.06-4.45,2.65-8.74,4.14-13.06,1.5-4.35,2.79-8.75,3.9-13.21,2.28-9.15,3.99-18.44,6.6-27.51,2.93-10.14,6.71-20.01,10.49-29.86l-4.82-1.33c-4.34,19.54-9.49,38.9-15.45,58.02-2.91,9.32-6.38,18.55-8.34,28.14-2.03,9.95-1.83,20.05-1.45,30.13.42,11.45.85,22.89,1.28,34.34.12,3.21,5.12,3.22,5,0h0Z"/>
      <path class="cls-20" d="M42.24,166.71c2.14-6.48,5.6-12.48,10.13-17.58l-4.27-1.77c.05,7.3-3.34,14.61-9.18,19.07l3.76,2.16c-.43-7.84,3.35-15.01,6.23-22.07,1.47-3.59,2.8-7.28,3.37-11.14.16-1.05.29-2.1.35-3.16.05-.93-.02-1.88.19-2.79.18-.78.63-1.33,1.2-1.87.3-.29.62-.54.96-.79.29-.22,1.39-.65.54-.61l-1.26-.34c-.91-.4-.23-.84-.38-.09-.06.29-.04.57-.11.86-.16.7-.53,1.38-.97,1.94-1.01,1.28-2.39,2.22-3.72,3.14,1.22.5,2.45,1,3.67,1.49-.38-2.42.55-4.95,2.22-6.7,2.22-2.33-1.31-5.87-3.54-3.54-3,3.15-4.17,7.3-3.51,11.56.24,1.54,2.45,2.35,3.67,1.49,3.91-2.71,8.62-6.83,6.99-12.22-.39-1.3-1.37-2.36-2.75-2.56-1.39-.2-2.49.58-3.55,1.36-2,1.47-3.79,3.22-4.35,5.74-.49,2.19-.25,4.49-.65,6.7s-1.01,4.27-1.74,6.34c-1.48,4.21-3.41,8.23-5.01,12.39-1.82,4.74-3.16,9.74-2.87,14.85.09,1.68,2.14,3.4,3.76,2.16,7.28-5.56,11.71-14.18,11.66-23.39-.01-2.07-2.79-3.43-4.27-1.77-5.13,5.76-9,12.46-11.42,19.78-1.01,3.06,3.81,4.37,4.82,1.33h0Z"/>
    </g>
    <g>
      <path class="cls-14" d="M125.82,199.26c-1.11-4.37,3.27-8.46,5.71-11.54,3.28-4.14,6.17-8.55,8.78-13.13s5.01-9.34,7.36-14.09c2.49-5.02,4.98-10.05,7.07-15.25,4.28-10.65,5.6-21.84,5.98-33.24s.3-23.39-.18-35.07c-.55-13.2-1.64-26.38-3.26-39.49l-4.66,1.26c6.91,8.96,5.7,20.76,4.51,31.3-1.36,12.03-2.06,24.08-1.98,36.19.08,11.04.64,22.27-1.4,33.19-1,5.38-2.65,10.6-5.15,15.47s-5.7,9.53-8.9,14.07c-1.91,2.7-3.82,5.4-5.73,8.1-1.81,2.55-3.86,5.07-5.26,7.88-.98,1.96-3.01,6.58.38,7.54,1.06.3,2.05-.12,2.78-.88.15-.16.28-.34.42-.51.06-.07.17-.16.21-.25.18-.35-.45.31-.71.36h-1.33.05c-.37-.2-.74-.42-1.1-.63-.42-1.49-.63-1.93-.64-1.33-.01.21,0,.12.05-.27-.03.08-.05.17-.06.26-.11.66.23-.35-.09.24s-.62,1.15-.98,1.71c-.99,1.57-2.06,3-3.11,4.3-1.18,1.46-2.42,2.89-3.76,4.22-.29.29-.59.57-.9.85-.15.13-.91.73-.38.34-.21.15-.44.28-.64.43-.47.37.52-.08-.12.04l2.43.64c.27.29.27.57.34.94-.09-.48.07.55,0,0-.05-.34-.07.12.02-.04s.19-.32.28-.48c.34-.56,1-1.27,1.67-1.98,1.38-1.47,3.02-2.91,4-4.71,1.58-2.92,3-5.91,4.69-8.78,1.75-2.97,3.63-5.85,5.63-8.65.78-1.1.19-2.78-.9-3.42-1.26-.73-2.63-.21-3.42.9-2,2.8-3.88,5.69-5.63,8.65s-3.11,5.86-4.69,8.78c-.08.16-.63.94-.38.63-.27.34-.56.66-.85.97-.78.85-1.6,1.67-2.38,2.52-1.36,1.48-3.01,3.31-3.04,5.45-.01,1.02.39,2.05,1.13,2.76,1.11,1.06,2.56.79,3.75.1,1.4-.81,2.61-2.04,3.71-3.2,2.72-2.86,5.32-6.05,7.32-9.46.89-1.53,1.95-3.65.92-5.38-.92-1.55-2.95-1.62-4.21-.47-.18.17-.34.36-.5.55-.08.1-.18.2-.26.31-.37.52-.64.03.71-.31h1.33-.04c.5.37,1,.75,1.49,1.14l.29,1.06v-.13c0,.09-.01.19-.02.28.04-.21.08-.41.14-.61.13-.5.28-1,.49-1.47.49-1.12,1.16-2.17,1.84-3.18,1.54-2.29,3.18-4.52,4.77-6.77,3.09-4.37,6.26-8.7,9.18-13.19s5.38-9,7.21-13.92,2.91-10.17,3.57-15.42c1.31-10.44.77-20.98.76-31.47-.01-11.35.71-22.65,1.99-33.92,1.28-11.37,2.25-24.18-5.19-33.82-.69-.89-1.65-1.47-2.82-1.15-.97.27-1.97,1.34-1.84,2.41,2.89,23.44,4.08,47.08,3.54,70.7-.26,11.26-.99,22.47-4.9,33.14-1.92,5.25-4.39,10.26-6.87,15.26s-4.71,9.51-7.29,14.15c-2.86,5.13-6.01,10.12-9.74,14.68-3.53,4.31-7.54,9.26-6.03,15.21.79,3.12,5.61,1.8,4.82-1.33h0Z"/>
      <path class="cls-14" d="M133.7,182.42c.22-5.19.21-10.51-2.49-15.14-1.26-2.15-2.93-4.05-4.62-5.87-1.78-1.92-3.6-3.85-5.8-5.3-2.06-1.35-4.59-2.25-7.07-2.14-2.58.12-5.34,1.97-4.42,4.89.32,1.01.99,1.98,1.51,2.89.57,1.01,1.17,2.01,1.81,2.99,1.22,1.87,2.6,3.69,4.24,5.22,2.02,1.87,4.21,2.85,6.64,4.02,2.23,1.07,3.33,3.03,4.11,5.31,1.52-.64,3.05-1.28,4.57-1.93-2.36-4.02-4.86-7.8-8.55-10.72-3.12-2.48-6.84-4.6-9.1-7.98-.94,1.22-1.88,2.45-2.82,3.67,4.98,1.43,8.94,4.98,11.1,9.67.56,1.23,2.34,1.53,3.42.9,1.26-.74,1.46-2.19.9-3.42-2.68-5.82-7.96-10.21-14.09-11.97-2.01-.58-4.05,1.83-2.82,3.67,2.45,3.67,6.03,6.03,9.47,8.67,1.61,1.24,3.14,2.6,4.41,4.2,1.44,1.81,2.6,3.84,3.76,5.83,1.39,2.38,5.51.82,4.57-1.93-.64-1.87-1.43-3.66-2.65-5.23-1.38-1.78-3.13-2.81-5.17-3.68-3.41-1.45-5.79-3.92-7.79-7-.49-.76-.96-1.53-1.41-2.32-.17-.29-1.14-2.49-1.41-2.52l-.33.92c-.57.81-.57,1.09-.01.83.05.02.34,0,.26,0,.4-.03.78.01,1.17.08.95.17,1.83.56,2.65,1.05,1.77,1.05,3.19,2.56,4.58,4.05s2.87,3.02,4.02,4.75c2.71,4.09,2.57,8.8,2.37,13.52-.14,3.22,4.86,3.21,5,0h0Z"/>
      <path class="cls-14" d="M157.43,141.78c5.11-1.88,9.79-4.63,13.89-8.23,2.12-1.87,3.99-3.98,5.79-6.14,1.92-2.3,3.8-4.55,3.95-7.68.09-1.92-2.19-3.08-3.76-2.16-4.86,2.84-9.47,6.1-13.78,9.73-2.07,1.74-4.09,3.56-5.98,5.5-1.9,1.94-3.56,4.11-4.3,6.76-.7,2.5,2.37,4.05,4.18,2.43,7.91-7.08,15.67-14.33,23.25-21.76,2.3-2.26-1.23-5.79-3.54-3.54-7.58,7.43-15.34,14.69-23.25,21.76,1.39.81,2.79,1.62,4.18,2.43.58-2.06,2.05-3.61,3.54-5.08,1.85-1.83,3.78-3.57,5.77-5.24,3.89-3.25,8.08-6.13,12.45-8.68l-3.76-2.16c-.09,1.93-2.16,3.77-3.33,5.15-1.63,1.91-3.33,3.75-5.24,5.39-3.34,2.88-7.25,5.16-11.39,6.69-1.27.47-2.13,1.69-1.75,3.08.33,1.22,1.8,2.22,3.08,1.75h0Z"/>
      <path class="cls-14" d="M159.59,84.17c-.81-4.08-3.07-7.91-6.29-10.55-1.75-1.43-4.4-3.29-6.46-1.22-1.01,1.01-1.13,2.56-.47,3.79.56,1.05,1.56,1.62,2.5,2.28,1.74,1.23,3.2,2.88,4.53,4.53s2.5,3.39,3.09,5.39c.67,2.28.71,4.7.7,7.06,0,2.53-.17,5.07-.53,7.57-.19,1.33.33,2.69,1.75,3.08,1.17.32,2.88-.4,3.08-1.75.46-3.19.73-6.4.7-9.63-.03-2.98-.2-6.1-1.31-8.9-1.04-2.62-2.67-4.86-4.48-7-.89-1.06-1.84-2.08-2.88-3-.52-.46-1.07-.89-1.63-1.31-.25-.19-.55-.48-.85-.6-.71-.28-.02-.53-.09.49l-.34,1.26.15-.24-.9.9.24-.15-1.26.34c-.2.02.33.22.53.36.39.27.75.57,1.1.9.72.65,1.39,1.37,1.95,2.16,1.19,1.69,1.95,3.54,2.35,5.57.26,1.33,1.84,2.09,3.08,1.75,1.38-.38,2.01-1.75,1.75-3.08h0Z"/>
    </g>
    <path class="cls-22" d="M158.63,35.3c5.51-.32,11-.13,16.45.77s8.12-7.2,2.39-8.68c-3.74-.97-7.51-1.04-11.35-.92-5.78.19-5.8,9.19,0,9,3.05-.1,5.98-.17,8.95.6l2.39-8.68c-6.26-1.03-12.5-1.46-18.84-1.09-5.76.34-5.8,9.34,0,9h0Z"/>
    <path class="cls-22" d="M146.54,28.49c-4.85.47-9.57-1.03-14.42-.81-5.78.26-5.81,8.81,0,9,3.93.13,7.83-.03,11.73-.49,2.41-.28,4.5-1.87,4.5-4.5,0-2.21-2.07-4.78-4.5-4.5-3.9.46-7.8.62-11.73.49v9c4.85-.22,9.57,1.28,14.42.81,2.42-.23,4.5-1.9,4.5-4.5,0-2.25-2.07-4.74-4.5-4.5h0Z"/>
    <path class="cls-10" d="M149.59,34.17c-9.25-1.38-12.95,7.79-16.87,14.43,2.74,1.16,5.48,2.31,8.22,3.47.81-3.02,2.65-5.11,5.43-6.5,5.18-2.59.63-10.36-4.54-7.77-4.76,2.38-8.19,6.76-9.56,11.88-1.32,4.92,5.61,7.89,8.22,3.47,1.28-2.16,2.55-4.33,3.84-6.49.55-.93,1.07-1.93,1.77-2.75.36-.42,1.4-1.01,1.11-1.06,2.4.36,4.84-.6,5.54-3.14.58-2.12-.72-5.17-3.14-5.54h0Z"/>
    <path class="cls-10" d="M157.12,30.96c-.61-4.73-.8-9.46-.55-14.22-2.56,1.06-5.12,2.12-7.68,3.18l.75.61c1.88,1.53,4.52,1.84,6.36,0,1.58-1.58,1.89-4.82,0-6.36l-.75-.61c-3.03-2.46-7.47-.92-7.68,3.18-.25,4.76-.06,9.49.55,14.22.31,2.41,1.84,4.5,4.5,4.5,2.19,0,4.82-2.07,4.5-4.5h0Z"/>
    <path class="cls-10" d="M160.5,42.33c1.14,0,2.28-.01,3.41-.02.82,0,2.22-.13,2.7.04l-1.99-1.16c-.44-.45-.32-.9-.16-.07.07.39.23.78.27,1.15.02.14-.14,1.45.09,1.05.54-.54,1.08-1.08,1.61-1.61.99-.52,1.82-.53,2.5-.02.2.15.08.03-.34-.34-.11-.21-.5-.59-.64-.8-.54-.82-.68-1.41-.88-2.47-.46-2.39-3.32-3.75-5.54-3.14-2.5.69-3.6,3.14-3.14,5.54.65,3.38,2.67,6.73,5.55,8.67,3.6,2.43,8.36,1.13,9.48-3.3.82-3.25.26-8.1-2.1-10.66-2.56-2.79-7.4-1.87-10.83-1.85-5.79.03-5.8,9.03,0,9h0Z"/>
    <path class="cls-10" d="M148.41,40.12c.21,2.48.39,5.01-.12,7.47-.22,1.04-.55,2.07-1.05,3.01l-.56.93c-1.06.82-.8,1.21.8,1.17l2.07,2.69c-.06.72.05.47.34-.76.24-.73.5-1.46.78-2.18.43-1.07.91-2.12,1.43-3.15,1.22-2.41,2.66-4.69,4.25-6.88,3.4-4.7-4.4-9.2-7.77-4.54-3.31,4.57-14.2,21.6-3.23,23.64,4.44.83,8.11-3.29,9.91-6.87,2.29-4.54,2.59-9.55,2.16-14.53-.49-5.73-9.5-5.78-9,0h0Z"/>
    <path class="cls-2" d="M51.81,65.61c-2.77.23-5.88.94-8.66.71-3.09-.26-3.73-2.55-6.02-4.14-2.47-1.73-6.65-1.6-7.79,1.66s2.34,5.6,5.06,6.25c2.1.51,4.2.09,6.15-.71.99-.4,5.8-2.68,5.67-3.53l.33-2.51c-.43.63-8.29.08-9.45.08-3.18-.02-6.36-.16-9.54-.37-4.18-.27-4.16,6.23,0,6.5,6.01.39,12.12.63,18.13.17,3.04-.23,6.62-1.05,6.92-4.74.23-2.89-2.37-5.01-5.02-5.25-2.4-.21-11.43,5.2-12.42,3.8l.33,2.51c-1.73,1.04-1.99,2.08-.79,3.11.39.55.84,1.07,1.33,1.54,1.04.93,2.33,1.54,3.68,1.86,3.81.91,8.26-.12,12.1-.44,4.14-.35,4.18-6.85,0-6.5h0Z"/>
    <path class="cls-2" d="M181.16,84.66c-1.6-1.02-2.04-.95-1.33.2.39.66.83,1.29,1.32,1.89.79.71,2.06,1.27,3.12,1.31,2.38.1,9.18-6.62,10.24-5.63l.84,3.16c-.3,1.51-6.96-2.09-8.26-1.95s-6.38,5.3-6.96,4.13v3.28l.38-.86-2.81,1.61c-1.67-1.94-3.36-3.86-5.06-5.77l-1.94,4.78c.97-.35,1.06-.32.27.07-.93.73-1.78.33-2.56-1.21-.65,1.59-1.3,3.18-1.94,4.78l1.38-.37c4.04-1.08,2.33-7.35-1.73-6.27l-1.38.37c-1.93.51-3.12,3.02-1.94,4.78,3.62,5.4,10.45,6.92,14.64.81,4-5.83-2.85-11.22-8.46-9.21-1.94.69-3.08,2.86-1.94,4.78,2.4,4.04,8.45,7.2,12.87,4.01,3.55-2.56,2.35-7.83-2.19-8.02-1.03-.04-2.37.63-2.81,1.61-2.19,4.95,2.49,8.64,7.43,7.62.97-.2,7.3-3.3,6.56-4.67-2.76-.48-3.18-.16-1.28.93.41.4.88.68,1.43.84,1.14.5,2.43.86,3.7.84,4.64-.07,9.31-4.68,8.26-9.53-1.11-5.12-7.53-5.66-10.56-1.93s-.27,8.99,4.67,7.33c5.02-1.68,4.48-8.29.26-10.49-2.47-1.29-5.19-.82-7.53.47-.83.46-2.71,2.65-3.4,2.66,1.62-.02.17-1.28-.48-1.96-4.49-4.71-9.33.83-9.3,5.63.03,4.18,6.53,4.19,6.5,0h0Z"/>
    <path class="cls-10" d="M73.76,60.25c5.37-4.18,12.29-5.66,18.92-4.32.8-2.89,1.6-5.79,2.39-8.68-3.59-.66-6.94-.77-10.58-.25s-7.6,2.4-11.17,2.41l3.89,2.23c.69,1.03.83-1.28,1.06-1.87.43-1.11.96-2.18,1.38-3.3.84-2.22,1.26-4.43,1.12-6.81-.2-3.53-5.01-6.39-7.68-3.18-4.74,5.7-6.75,12.55-9.11,19.46,2.74-.36,5.48-.72,8.22-1.07-3.73-5.83-5.45-11.54-12.33-14.31l-2.39,8.68c2.63.55,4.57,2.12,4.75,4.94l5.7-4.34c-7.53-2.47-14.68-4.96-22.67-3.3-4.45.93-4.12,7.56,0,8.68,5.01,1.37,10.11,2.3,15.29,2.71,1.06.08,2.79.5,3.82.2,1.27.18,1.28.02.04-.49-.72-.8-1.15-.71-1.29.28-1.37,1.33-2.06,5.15-2.38,6.88-.82,4.45.62,8.25.65,12.61s.84,7,4.86,9.33l2.27-8.39c1.73.84,2.35.21,1.84-1.89.17-1.11.39-2.21.66-3.31.47-1.94,1.02-5.18,2.3-6.75l-3.18,1.32c-1.09-.43-1.13-.36-.13.19.72.46,1.44.91,2.16,1.37,1.09.69,2.43,1.29,3.37,2.15,1.79,1.64,2.25,4.22,4.04,5.99,4.06,4,10.33,4.18,15.55,3.12,4.58-.93,3.98-7.43,0-8.68-3.41-1.07-7.26-2.13-9.36-5.28-2.01-3.01-2.68-7.02-4.17-10.31-1.68-3.71-7.2-2.34-8.22,1.07s-1.01,6.46,0,9.83c2.74-1.16,5.48-2.31,8.22-3.47-4.04-6.4-8.91-11.3-17-9.92-5.7.98-3.28,9.65,2.39,8.68,3.24-.55,5.42,3.54,6.83,5.78,2.65,4.2,9.73,1.57,8.22-3.47-.56-1.86-.56-3.18,0-5.04-2.74.36-5.48.72-8.22,1.07,2.11,4.67,2.93,9.81,6.73,13.56,3.31,3.26,7.85,4.8,12.18,6.16v-8.68c-1.78.36-4.95.65-6.55-.64-1.12-.9-1.53-2.89-2.3-4.07-1.23-1.87-3.16-3.09-5.01-4.27-3.72-2.38-8.78-6.7-12.57-2.03-4.37,5.38-10.16,27.12,2.22,26.5,4.34-.22,6.27-6.06,2.27-8.39-1.03-.6-.45-3.86-.66-5.16-.4-2.5-.99-4.66-.55-7.21.73-4.23,4.44-8.03,3.11-12.51-1.03-3.48-3.97-4.71-7.35-4.94-6.05-.42-11.8-1.01-17.67-2.61v8.68c6.09-1.27,12.18,1.43,17.88,3.3,2.66.87,5.88-1.5,5.7-4.34-.43-6.7-4.64-12.22-11.36-13.62-5.78-1.2-7.69,6.55-2.39,8.68,3.57,1.44,5.04,7.19,6.96,10.17,2.15,3.36,6.97,2.61,8.22-1.07,1.79-5.24,3.18-11.15,6.79-15.49l-7.68-3.18c.29,5.27-6.83,12.66-1.63,17.42,2.6,2.38,6.14.99,9.11.22,4.43-1.15,8.84-2.22,13.43-1.38,5.64,1.03,8.1-7.52,2.39-8.68-10.09-2.05-19.58.33-27.67,6.63-4.56,3.55,1.85,9.88,6.36,6.36h0Z"/>
    <path class="cls-14" d="M86.83,59.86c7.84-1.78,15.46,2.48,21.17,7.48,3.05,2.67,5.86,5.63,8.65,8.57,2.88,3.03,5.7,6.13,8.27,9.43,4.99,6.42,8.59,13.66,11.1,21.37s4.09,15.75,5.51,23.75c.87,4.88,1.7,9.78,1.81,14.75.05,2.47-.06,4.95-.34,7.4-.12,1.05-.28,2.11-.49,3.15-.1.46-.24,1.49-.67,1.79-1.1.78-1.62,2.19-.9,3.42.64,1.09,2.31,1.68,3.42.9,1.72-1.21,2.59-2.91,3-4.95.47-2.35.74-4.78.89-7.17.3-4.86-.15-9.7-.87-14.51-1.32-8.83-2.98-17.72-5.45-26.3-2.44-8.49-5.92-16.73-11.08-23.94-2.64-3.7-5.59-7.16-8.67-10.5-3.01-3.26-6.07-6.51-9.33-9.52-7.38-6.81-16.98-12.3-27.35-9.94-3.14.71-1.81,5.53,1.33,4.82h0Z"/>
    <path class="cls-11" d="M142.81,285.99c-8.3-3.04-12.24-12.86-14.82-20.58-3.14-9.37-4.85-19.64-3.09-29.47,2.94-16.4,16.52-31.07,34.15-29.37,4.27.41,6.67-5.79,3.54-8.54-3.81-3.34-9.96-3.05-12.3,1.94-1.49,3.19.22,7.75,4.32,7.52,20.76-1.14,28.27,22.2,25.9,39.03-2.16,15.34-11.83,46.06-33.07,40.21-19.77-5.45-21.51-32.54-19.53-49.17,1.06-8.88,5.29-16.47,14.04-19.48,7.35-2.53,15.6-1.35,21.82,3.38,18.32,13.94,12.38,39.78-1.45,54.36,2.79,1.62,5.57,3.24,8.36,4.86,5.84-16.37,13.36-33.23,9.53-50.99-3.12-14.45-15.67-27.05-31.16-25.92-6.38.47-6.43,10.47,0,10,13.63-1,21.59,11.8,22.19,24.05.69,14.03-5.59,27.29-10.2,40.2-1.7,4.77,5.04,8.36,8.36,4.86,16.68-17.59,22.78-45.53,5.29-64.89-15.01-16.61-44.77-14.51-53.84,7.24-4.77,11.42-4.13,25.81-2.14,37.83s8.19,24.34,19.46,30.56c10.44,5.76,22.44,4.36,31.76-2.86,10.33-8.01,15.42-21.11,18.57-33.41,3.53-13.75,4.19-29.36-3.25-41.99-6.33-10.76-17.86-18.58-30.63-17.88,1.44,2.51,2.88,5.02,4.32,7.52l-3.41.08c1.18-2.85,2.36-5.69,3.54-8.54-22.59-2.18-40.83,17.34-44.08,38.43-1.93,12.54.27,25.49,4.88,37.23,3.96,10.11,9.65,19.5,20.3,23.4,6.05,2.22,8.66-7.44,2.66-9.64h0Z"/>
    <path class="cls-4" d="M183.37,204.17c22.79-2,45.56-4.23,68.31-6.71,4.43-.48,4.48-7.49,0-7-22.75,2.48-45.51,4.71-68.31,6.71-4.45.39-4.49,7.39,0,7h0Z"/>
    <path class="cls-8" d="M113.44,237.47c26.78,5.78,49.21,23.51,76.23,28.57,3.37.63,6.05-1.4,6.33-4.82,1.86-22.84-6.64-54.22-29.18-64.94-9.68-4.6-20.96-4.12-30.45.78-4.75,2.45-8.72,6.1-11.78,10.47-3.82,5.47-5.89,12.02-10.1,17.24-2.14,2.66-1.85,7.56,2.21,8.36,23.74,4.66,46.33,13.23,67.14,25.56,3.73,2.21,8.54-1.45,7.34-5.65-2.39-8.35-5.43-16.46-8.68-24.51-2.67-6.59-4.93-14.22-10.18-19.29-9.09-8.78-25.76-9.97-36.92-5.07-5.39,2.36-10.94,6.18-8.76,12.78,1.85,5.58,6.62,10.09,11.43,13.19,12.59,8.11,28.28,6.91,41.8,12.51,4.16,1.72,7.74-3.9,5.65-7.34-6.68-10.99-16.63-19.87-28.69-24.56-14.07-5.47-24.92.8-35.24,10.24-1.93,1.76-1.93,5.31,0,7.07,7.6,6.92,17.53,5.87,26.94,7.9,10.67,2.31,20.58,7.19,28.92,14.24,4.95,4.19,11.16-2.1,7.07-7.07-11.29-13.72-24.95-26.87-43.83-27.14-6.6-.09-6.21,9.26,0,10,6.71.8,13.22,2.74,19.31,5.65,5.78,2.76,10.86-5.86,5.05-8.63-7.82-3.73-15.76-5.99-24.36-7.02v10c16.01.23,27.32,12.73,36.76,24.21,2.36-2.36,4.71-4.71,7.07-7.07-7.95-6.73-16.92-11.92-26.86-15.09-4.69-1.5-9.51-2.42-14.39-3-4.94-.59-10.71-.52-14.6-4.06v7.07c3.58-3.28,7.39-6.93,12.03-8.67,5.16-1.94,10.49-.45,15.27,1.83,8.76,4.17,15.89,10.88,20.92,19.14,1.88-2.45,3.76-4.9,5.65-7.34-9.91-4.1-20.7-4.36-30.84-7.57-4.33-1.37-8.66-3.4-11.95-6.59-.82-.79-3.43-3.93-3.37-4.18.14-.54,5.4-2.25,6.55-2.54,9.65-2.43,21.4.26,25.99,9.64,5.24,10.71,9.37,22.48,12.64,33.94,2.45-1.88,4.9-3.76,7.34-5.65-21.5-12.74-45-21.76-69.53-26.57l2.21,8.36c6-7.43,8.49-18.12,16.29-23.95,7.16-5.35,17.33-6.51,25.29-2.27,18.48,9.85,24.41,36.52,22.86,55.61l6.33-4.82c-27-5.05-49.44-22.79-76.23-28.57-6.27-1.35-8.96,8.28-2.66,9.64h0Z"/>
    <path class="cls-13" d="M115.79,239.27c11.17,3.15,22.34,6.28,33.51,9.46,5.61,1.6,11.21,3.21,16.8,4.88s12.13,2.76,17.22,5.4c-.84-1.1-1.69-2.19-2.53-3.29.32-.11.49-.38.49-.81.6-.68.43-1.02-.53-1-.74-.77-3.13-1.09-4.24-1.53-2.74-1.08-5.43-2.25-8.19-3.3-5.43-2.06-10.94-3.88-16.41-5.8-5.28-1.85-10.55-3.73-15.64-6.06-3.93-1.8-12.44-4.75-14.26-9.12l-3.84,6.77c14.5-4.18,28.84,1.23,42.19,6.76,6.81,2.82,13.01,6.24,19.5,9.66,4.79,2.53,12.06,1.27,11.76-5.52-.24-5.41-5.57-8.77-10.15-10.31-6.07-2.04-12.52-3.22-18.67-5.08-13.06-3.94-28.4-7.4-41.99-4.01-6.86,1.71-3.96,12.32,2.92,10.61,9.67-2.41,21.47-.19,30.88,2.45,4.69,1.32,9.32,2.87,14.02,4.15,2.41.66,4.85,1.18,7.29,1.76.87.21,1.75.57,2.62.72,1.49.27,1.72,1.83,2.12-.76l2.53-3.29-.92.57,4.24-.55c-2.6-.41-5.16-2.73-7.52-3.96-3.02-1.58-6.13-2.98-9.26-4.33-5.77-2.49-11.59-4.96-17.53-7.02-11.92-4.13-24.65-6-36.95-2.46-2.59.75-5,3.98-3.84,6.77,5.21,12.5,22.57,17.49,34.3,21.71,7.1,2.55,14.29,4.84,21.31,7.58,5.84,2.27,14.94,7.96,21.03,3.73,4.19-2.91,5.55-10.66,1.37-14.11-2.59-2.14-7.03-2.84-10.18-3.82-4.02-1.26-8.05-2.48-12.09-3.67-16.1-4.77-32.29-9.22-48.45-13.78-6.82-1.92-9.74,8.69-2.92,10.61h0Z"/>
    <path class="cls-5" d="M144.47,196.94c18.52-6.02,36.71,8.84,41.23,26.51.84,3.27-.42,6.52.19,9.99,1.02,5.76,1.98,11.47,2.18,17.34.32,9.38-1,19.02-5.25,27.48-4.32,8.6-11.44,15.61-20.8,18.41-9.56,2.86-18.97-.23-26.94-5.75-15.37-10.64-21.48-29.63-20.91-47.67.64-20.06,10.28-45.42,33.28-47.75,4.44-.45,4.49-7.45,0-7-23.37,2.37-36.29,23.8-39.41,45.27-3.06,21,1.76,44.63,18.28,59.13,7.85,6.89,18.29,12.32,28.98,11.92,10.89-.41,21.18-6.06,27.99-14.45,6.62-8.16,10.17-18.22,11.37-28.58.74-6.41.53-12.87-.24-19.27-.33-2.75-.75-5.5-1.24-8.22-.29-1.56-.91-3.4-.68-4.99.18-1.22.8-2.19.82-3.49.09-5.03-3.42-11.47-5.86-15.7-2.91-5.06-6.7-9.65-11.28-13.29-9.43-7.47-22.01-10.38-33.57-6.62-4.27,1.39-2.44,8.15,1.86,6.75h0Z"/>
    <path class="cls-6" d="M92.17,312.71c3.06-2.31,6.43-4.19,10.04-5.48.82-.29,1.65-.56,2.49-.79,1.11-.31,2.12-.73,2.97.26.94,1.09,1.63,1.94,3.1,2.32,1.54.41,3.19.28,4.77.25,2.15-.04,4.3-.09,6.44-.13,4.3-.09,8.59-.17,12.89-.26,1.29-.03,1.29-2.03,0-2-4.46.09-8.92.18-13.38.27-2.15.04-4.3.09-6.44.13-1.61.03-3.81.33-5.08-.88-1.17-1.11-1.58-2.39-3.48-2.35-1.73.03-3.6.81-5.21,1.4-3.63,1.34-7.02,3.2-10.11,5.53-1.01.77-.02,2.5,1.01,1.73h0Z"/>
    <path class="cls-6" d="M88.76,316.82c-9.53-.91-18.87,3.37-28.38,1.78-1.26-.21-1.8,1.72-.53,1.93,9.73,1.63,19.18-2.63,28.91-1.71,1.28.12,1.27-1.88,0-2h0Z"/>
    <path class="cls-6" d="M138.91,315.6c4.01-.54,7.75-2.14,11.69-3.01,4.08-.9,8.28-.85,12.43-.6,8.47.51,16.82,1.14,25.32.73,4.78-.23,9.55-.7,14.29-1.36,1.27-.18.73-2.1-.53-1.93-8.49,1.19-17.09,1.65-25.66,1.4-8.21-.24-16.58-1.83-24.76-.49-4.53.74-8.75,2.7-13.3,3.32-1.27.17-.73,2.1.53,1.93h0Z"/>
    <path class="cls-6" d="M19.26,338.06c2.44-5.42,9.49-4.79,14.21-3.5,3.32.9,6.56,2.06,10.01,2.41,3.45.34,6.95-.22,10.26-1.16,6.89-1.94,13.37-5.12,20.23-7.19,6.89-2.09,14.05-3.44,21.28-2.97,3.67.24,7.3.95,10.97,1.24,3.48.27,6.88-.02,10.29-.72,6.18-1.26,12.97-3.97,19.23-1.68,2.82,1.03,5.16,3.05,7.7,4.59,2.79,1.69,5.73,2.55,9,2.47,3.59-.08,7.18-.65,10.77-.89,3.65-.25,7.31-.39,10.98-.42,16.44-.16,32.85,1.79,48.8,5.79,1.87.47,2.67-2.42.8-2.89-14.49-3.63-29.4-5.62-44.34-5.88-7.48-.13-14.97.18-22.42.92-3.44.34-6.97.84-10.21-.68-2.76-1.3-5.08-3.34-7.77-4.78-6.07-3.26-12.7-1.93-19.07-.41-3.27.78-6.56,1.6-9.94,1.7-3.84.11-7.64-.57-11.44-1.03-7.35-.88-14.64-.13-21.79,1.73-7.07,1.83-13.7,4.76-20.57,7.16-3.81,1.34-7.78,2.39-11.85,2.17-3.94-.22-7.63-1.79-11.43-2.71-5.68-1.37-13.52-.92-16.28,5.22-.79,1.75,1.8,3.27,2.59,1.51h0Z"/>
    <g>
      <path class="cls-6" d="M175.01,313.64c-3.81-.44-7.59.28-11.29,1.14-2.63.61-4.96,2.12-7.02,3.83-2.17,1.81-3.53,4.9-2.1,7.6,1.44,2.73,4.75,3.53,7.6,3.26,3.71-.35,7.32-1.13,11.06-1.27,1.79-.07,3.58-.06,5.36.01s3.48.28,5.22,0c2.97-.47,5.36-2.65,5.91-5.64s-.87-5.77-3.28-7.33c-1.5-.97-3.29-1.24-5.03-1.39-2.04-.18-4.1-.23-6.15-.2-4.12.06-8.23.51-12.28,1.3-1.89.37-1.09,3.26.8,2.89,5.73-1.11,11.61-1.47,17.43-1.01,2.39.19,4.89.96,5.53,3.58.56,2.31-1.03,4.43-3.3,4.85-1.26.23-2.59.08-3.86,0-1.46-.08-2.92-.12-4.39-.11-2.98.03-5.95.27-8.91.69-2.47.35-5.52,1.39-7.86.11s-1.38-3.74.26-5.12c1.78-1.5,3.78-2.69,6.05-3.21,3.39-.78,6.77-1.38,10.25-.97,1.91.22,1.9-2.78,0-3h0Z"/>
      <path class="cls-6" d="M158.85,318.74c-.24.84-.44,1.68-.6,2.54s-.24,1.67-.07,2.5c.27,1.35,1.2,2.55,2.41,3.19.57.3,1.07-.56.5-.86-1.03-.54-1.78-1.54-1.97-2.7-.12-.71.01-1.45.15-2.15.15-.76.33-1.51.54-2.25.18-.62-.79-.88-.96-.27h0Z"/>
      <path class="cls-6" d="M161.08,317.05c-.76,3.19-1.49,7.34,1.48,9.69.5.39,1.21-.31.71-.71-2.68-2.11-1.9-5.86-1.22-8.72.15-.63-.82-.89-.96-.27h0Z"/>
      <path class="cls-6" d="M163.87,317.09c-.46,3.23-.08,6.52,1.16,9.54.24.59,1.21.33.96-.27-1.17-2.84-1.59-5.96-1.16-9.01.09-.63-.87-.9-.96-.27h0Z"/>
      <path class="cls-6" d="M166.09,315.72c-.18,3.44.2,6.9,1.13,10.22.17.62,1.14.36.96-.27-.9-3.24-1.27-6.6-1.09-9.96.03-.64-.97-.64-1,0h0Z"/>
      <path class="cls-6" d="M168.49,316.7c.54,2.95.85,5.94.94,8.94.02.64,1.02.64,1,0-.09-3.09-.42-6.16-.98-9.21-.11-.63-1.08-.36-.96.27h0Z"/>
      <path class="cls-6" d="M170.37,316.05c.26,3.47.66,6.93,1.18,10.38.1.63,1.06.36.96-.27-.51-3.35-.89-6.73-1.15-10.11-.05-.64-1.05-.64-1,0h0Z"/>
      <path class="cls-6" d="M172.05,315.72c.07,3.82.44,7.62,1.1,11.38.11.63,1.07.36.96-.27-.64-3.67-1-7.39-1.07-11.11-.01-.64-1.01-.64-1,0h0Z"/>
      <path class="cls-6" d="M174.44,314.88c.9,3.74,1.37,7.56,1.43,11.41,0,.64,1.01.64,1,0-.06-3.93-.55-7.85-1.47-11.68-.15-.63-1.11-.36-.96.27h0Z"/>
      <path class="cls-6" d="M176.44,316.19c1.42,3.11,1.93,6.57,1.51,9.96-.08.64.92.63,1,0,.44-3.57-.15-7.19-1.64-10.46-.27-.58-1.13-.08-.86.5h0Z"/>
      <path class="cls-6" d="M178.69,316.31c1.68,2.62,2.24,5.85,1.53,8.88-.15.63.82.89.96.27.78-3.29.19-6.8-1.63-9.65-.35-.54-1.21-.04-.86.5h0Z"/>
      <path class="cls-6" d="M181.24,317c1.36,2.25,2.04,5.33.29,7.59-.17.22-.21.5,0,.71.17.17.54.21.71,0,2.04-2.64,1.49-6.11-.13-8.8-.33-.55-1.2-.05-.86.5h0Z"/>
      <path class="cls-6" d="M183.05,316.33c1.2,2.53,2.62,6.08.35,8.47-.44.47.26,1.17.71.71,1.11-1.17,1.56-2.79,1.48-4.37-.1-1.88-.88-3.63-1.68-5.3-.28-.58-1.14-.07-.86.5h0Z"/>
    </g>
    <g>
      <path class="cls-6" d="M149.42,186.36c-11.38.75-21.79,8.6-28.98,16.97-8.27,9.63-12.08,21.75-12.73,34.3-.68,13.08,1.53,26.68,6.69,38.73s13.19,22.75,25.66,26.54c11.19,3.4,23.92.98,33.44-5.67,9.64-6.73,16.19-17.08,19.56-28.23,4.05-13.37,3.35-27.72.61-41.26-1.35-6.66-3.01-13.4-5.8-19.62-2.47-5.53-6.16-10.34-10.96-14.05-8.84-6.83-20.67-9.63-31.57-6.98-10.82,2.63-21.18,9.65-27.6,18.74-1.47,2.07-2.66,4.29-3.6,6.65-.72,1.79,2.18,2.57,2.89.8,3.86-9.61,13.12-16.91,22.36-21,9.69-4.29,20.59-4.22,30.09.61,4.64,2.36,8.84,5.73,11.93,9.95,3.69,5.05,5.72,11.02,7.32,17,3.48,13.01,5.48,26.8,3.31,40.21-1.77,10.95-6.41,21.65-14.25,29.63-7.72,7.87-18.4,12.35-29.48,11.67-5.45-.33-10.81-2.03-15.34-5.11-5.07-3.45-8.98-8.45-12.08-13.68-6.38-10.74-9.42-23.3-10.14-35.7s.91-24.81,7.3-35.27c2.8-4.59,6.46-8.66,10.5-12.18,4.08-3.55,8.76-6.67,13.88-8.51,2.25-.81,4.58-1.38,6.97-1.54,1.92-.13,1.93-3.13,0-3h0Z"/>
      <path class="cls-6" d="M172.45,193.98c12.63-.74,25.26-1.64,37.84-2.96,8.36-.87,16.72-1.63,25.12-2.05,9.2-.46,18.42-.73,27.63-.97,1.93-.05,1.93-3.05,0-3-13.44.35-26.91.68-40.31,1.79-8.15.68-16.28,1.68-24.43,2.38-8.61.74-17.22,1.3-25.85,1.81-1.92.11-1.93,3.11,0,3h0Z"/>
      <path class="cls-6" d="M169.85,299.52c15.96-4.42,31.82-9.24,47.46-14.7,13.9-4.85,27.61-10.22,41.11-16.07,6.71-2.91,13.37-5.93,19.98-9.04,3.43-1.61,6.84-3.25,10.25-4.9.79-.38,1.58-.77,2.37-1.16.87-.43,1.96-.79,2.75-1.35,1.13-.81,1.04-3.13,1.22-4.41,1-7.08,1.64-14.22,1.95-21.37s.33-14.15-.56-21.15c-1.01-7.89-2.99-15.96-6.97-22.9-1.28-2.23-2.98-4.39-5.83-4.03-2.26.29-4.18,1.76-6.34,2.38-1.28.37-2.56.44-3.87.14-1.64-.37-2.65,1.84-1.16,2.74,2.54,1.53,5.3,2.61,8.2,3.21,2.36.49,4.79.68,7.14,1.23,2.3.54,4.31,1.55,5.96,3.26,2.37,2.44,4.04,5.73,5.5,8.77,5.9,12.27,6.85,27.09-.34,39.03-3.54,5.87-8.84,10.75-15.28,13.21l1.46,2.51c10.75-10.63,17.55-25.29,17.92-40.48.11-4.54.14-9.95-3.25-13.44-1.31-1.36-2.98-2.36-4.56-3.36-2.31-1.47-4.59-2.98-6.71-4.72-3.27-2.68-6.48-5.15-10.46-6.7-3.92-1.53-8.29-1.93-12.3-.53-1.81.63-1.03,3.53.8,2.89,6.87-2.41,13.81,1.35,18.96,5.72,2.14,1.81,4.39,3.47,6.75,4.99,1.49.97,3.16,1.9,4.5,2.99,3.05,2.49,3.27,6.41,3.29,10.22.04,7.02-1.3,13.94-3.87,20.46-2.93,7.44-7.5,14.21-13.18,19.82-1,.99.01,3.06,1.46,2.51,12.63-4.82,20.88-17.18,22.37-30.38.85-7.57-.47-15.34-3.26-22.4-1.41-3.55-3.14-6.98-5.25-10.17-1.63-2.47-3.71-4.71-6.43-5.98-2.56-1.19-5.3-1.51-8.06-1.94-3.5-.54-6.78-1.49-9.84-3.33l-1.16,2.74c2.39.54,4.7.24,6.96-.68,1.42-.58,3.12-1.77,4.62-1.8,1.89-.03,3.1,3.31,3.82,4.76,1.53,3.08,2.64,6.35,3.51,9.67,3.06,11.64,2.98,23.76,2.2,35.69-.42,6.39-1.08,12.77-2.1,19.1l.69-.9c-14.76,7.27-29.69,14.21-44.9,20.49-15.56,6.42-31.4,12.14-47.43,17.27-10.23,3.27-20.53,6.3-30.87,9.16-1.86.51-1.07,3.41.8,2.89h0Z"/>
      <path class="cls-6" d="M149.68,192.56c-10.18.68-19.46,7.65-25.91,15.13-7.43,8.62-10.86,19.49-11.45,30.75s1.36,23.86,5.98,34.63c4.41,10.28,11.75,20.28,22.86,23.72,10.02,3.11,21.48.96,30.03-5,8.71-6.07,14.63-15.43,17.64-25.51,3.56-11.92,2.92-24.68.48-36.74-1.22-6.04-2.74-12.15-5.3-17.78-2.22-4.86-5.51-9.08-9.75-12.34-7.93-6.1-18.54-8.58-28.3-6.19-9.64,2.37-18.86,8.61-24.6,16.7-1.34,1.88-2.42,3.9-3.28,6.04-.72,1.79,2.18,2.57,2.89.8,3.43-8.54,11.68-15.01,19.89-18.64,8.57-3.79,18.22-3.72,26.62.54,4.12,2.09,7.85,5.07,10.6,8.81,3.28,4.46,5.08,9.76,6.5,15.05,3.1,11.54,4.89,23.8,3,35.71-1.54,9.71-5.61,19.22-12.52,26.34-6.93,7.15-16.56,11.2-26.56,10.52-4.84-.33-9.57-1.88-13.56-4.64-4.54-3.14-8.01-7.68-10.77-12.4-5.52-9.46-8.16-20.47-8.8-31.35-.63-10.7.79-22.05,6.45-31.35,2.47-4.07,5.7-7.67,9.27-10.8s7.75-5.94,12.27-7.6c2.04-.75,4.15-1.27,6.32-1.42,1.92-.13,1.93-3.13,0-3h0Z"/>
    </g>
    <path class="cls-6" d="M68.06,326.4c-12.71-12.83-25.31-25.76-37.8-38.8-.34-.36-.98-.56-1.46-.39-6.02,2.22-12.27,3.79-18.64,4.58-1.89.24-1.91,3.24,0,3,6.65-.83,13.15-2.37,19.44-4.69l-1.46-.39c12.49,13.04,25.09,25.97,37.8,38.8,1.36,1.37,3.48-.75,2.12-2.12h0Z"/>
    <path class="cls-6" d="M67.35,325.89c-18.97.19-37.95.03-56.91-.5-5.38-.15-10.77-.33-16.15-.54-1.93-.07-1.93,2.93,0,3,18.96.73,37.93,1.1,56.91,1.11,5.39,0,10.77-.02,16.16-.08,1.93-.02,1.93-3.02,0-3h0Z"/>
    <path class="cls-6" d="M49.57,282.4c4.18-23.85-3.26-47.38-9.12-70.27-3-11.72-5.42-23.55-6.82-35.57-1.39-11.92-1.91-23.94-1.56-35.93.4-13.61,1.92-27.18,4.56-40.54.37-1.89-2.52-2.69-2.89-.8-4.68,23.68-5.95,48.01-3.66,72.05,1.14,11.99,3.16,23.88,5.98,35.59,2.81,11.65,6.23,23.14,8.7,34.87,2.74,13.05,4.24,26.55,1.92,39.79-.33,1.89,2.56,2.7,2.89.8h0Z"/>
    <path class="cls-6" d="M63.01,275.47c.06-5.54.11-11.09.2-16.63s.33-10.76,1.6-16c2.19-9,6.97-17.17,12.72-24.36,3.35-4.18,7.02-8.09,10.85-11.82,1.38-1.35-.74-3.47-2.12-2.12-6.93,6.76-13.45,14.14-18.27,22.58-2.37,4.15-4.32,8.57-5.62,13.16-1.47,5.19-1.96,10.56-2.12,15.94-.19,6.42-.18,12.84-.25,19.26-.02,1.93,2.98,1.93,3,0h0Z"/>
    <path class="cls-6" d="M92.05,255.56c.67-12.8,6.83-24.36,12.02-35.8,2.62-5.77,4.95-11.54,5.97-17.83.97-5.98,1.02-12.03.73-18.06-.36-7.23-1.1-14.44-1.27-21.68-.04-1.93-3.04-1.93-3,0,.29,12.52,2.57,25.19.84,37.69-1.75,12.59-8.73,23.55-13.36,35.19-2.61,6.57-4.56,13.4-4.93,20.49-.1,1.93,2.9,1.92,3,0h0Z"/>
    <g>
      <path class="cls-6" d="M69.97,279.22c-.53-3.5.15-7.18,1.88-10.27.83-1.49,1.9-2.95,3.3-3.95,1.61-1.15,3.46-1.33,5.39-1.28,3.73.11,7.26.23,10.93-.69,3.58-.89,6.98-2.5,9.95-4.68,1.54-1.13.05-3.74-1.51-2.59-3.3,2.42-7.05,4.06-11.08,4.77-1.94.34-3.92.41-5.89.31-2.08-.1-4.16-.29-6.21.19-3.73.88-6.46,4.15-8.03,7.49-1.71,3.62-2.22,7.55-1.63,11.5.29,1.9,3.18,1.09,2.89-.8h0Z"/>
      <path class="cls-6" d="M67.99,281.53c3.1-.82,6.19,2.29,8.88,3.39,3.61,1.47,7.94.95,11.75.94,4.2-.02,8.47.1,12.65-.29,1.84-.17,3.6-.56,5.24-1.46,1.12-.61,3.14-2.47,4.5-1.73,1.7.92,3.22-1.67,1.51-2.59-3.62-1.95-6.56,1.9-9.93,2.59-2.11.43-4.35.35-6.49.4-2.33.05-4.66.08-6.99.09-4.08.02-8.72.66-12.45-1.33-2.99-1.6-5.91-3.83-9.49-2.88-1.86.49-1.07,3.39.8,2.89h0Z"/>
      <path class="cls-6" d="M100.53,257.81c1.45,1.28,2.89,2.56,4.34,3.84.3.26.65.44,1.06.44.37,0,.81-.16,1.06-.44.52-.57.63-1.57,0-2.12-1.45-1.28-2.89-2.56-4.34-3.84-.3-.26-.65-.44-1.06-.44-.37,0-.81.16-1.06.44-.52.57-.63,1.57,0,2.12h0Z"/>
      <path class="cls-6" d="M90.44,272.74c2.53-1.19,5.5-.67,8.17-.38s5.58.44,8.16-.83c1.15-.57.14-2.3-1.01-1.73-2.51,1.24-5.47.74-8.14.45-2.79-.31-5.59-.47-8.19.76-1.16.55-.15,2.27,1.01,1.73h0Z"/>
    </g>
    <path class="cls-6" d="M132.7,189.91c6.36-18.67,19.48-34.37,24.01-53.76,2.48-10.59,2.79-21.54,2.93-32.38s.03-22.57-.15-33.85c-.19-12.52-.03-25.18-2.3-37.55-.12-.63-.83-1.11-1.45-1.1-3.01.05-5.45,3.27-4.3,6.18.25.62.74,1.11,1.45,1.1,1.52-.01,3.03-.03,4.55-.04,1.43-.01,2.11-2.09.76-2.8-2.25-1.18-4.77-1.45-7.2-.67-1.83.59-1.05,3.49.8,2.89,1.67-.54,3.33-.45,4.89.36l.76-2.8c-1.52.01-3.03.03-4.55.04l1.45,1.1c-.41-1.04.18-2.36,1.41-2.38l-1.45-1.1c2,10.88,1.96,22,2.13,33.02s.33,22.4.25,33.6-.13,21.69-2.17,32.32c-1.89,9.84-5.9,18.84-10.56,27.65-5.08,9.61-10.62,19.03-14.14,29.36-.62,1.83,2.27,2.62,2.89.8h0Z"/>
    <path class="cls-6" d="M149.83,32.13c-8.5,1.1-15.88,7.25-18.28,15.53-.16.57.1,1.44.69,1.69,2.63,1.12,5.59.7,7.67-1.33,1.38-1.35-.74-3.47-2.12-2.12-1.02,1-2.68,1.44-4.04.87l.69,1.69c1.99-6.87,8.25-12.4,15.39-13.32.8-.1,1.5-.62,1.5-1.5,0-.73-.69-1.6-1.5-1.5h0Z"/>
    <path class="cls-6" d="M148.29,38.13c-2.79,3.41-4.98,7.23-6.45,11.39-.72,2.03-1.26,4.12-1.6,6.24-.28,1.74-.53,4.15,1.43,5.04.64.29,1.29.25,1.82-.23,2.46-2.27,4.77-4.7,6.93-7.26,1.23-1.47-.88-3.6-2.12-2.12-2.16,2.56-4.47,4.99-6.93,7.26l1.82-.23c-.36-.16-.09.07-.16-.21s0-.65.03-.94c.1-.89.3-1.79.49-2.67.39-1.71.9-3.39,1.53-5.03,1.27-3.28,3.1-6.39,5.33-9.11.52-.63.61-1.5,0-2.12-.52-.54-1.61-.63-2.12,0h0Z"/>
    <path class="cls-6" d="M157.66,37.1c.31,4.12,1.95,8.04,4.77,11.09,1.56,1.69,3.78,2.87,5.99,1.6,1.74-1,3.28-2.91,3.78-4.86.56-2.23-.23-4.76-2.28-5.94-1.68-.96-3.19,1.63-1.51,2.59.09.05.18.11.27.17-.09-.07-.07-.05.06.07.08.07.15.15.22.23-.07-.09-.06-.07.05.08.24.38.28.5.37.99-.03-.19.02.34.02.41,0,.11,0,.22-.02.32.02-.14.01-.1-.02.11-.11.46-.23.79-.46,1.2-.39.68-1.01,1.36-1.6,1.81-.72.54-1.09.54-1.85-.03-1.42-1.06-2.5-2.8-3.29-4.38-.83-1.67-1.35-3.62-1.49-5.44-.06-.81-.65-1.5-1.5-1.5-.77,0-1.56.69-1.5,1.5h0Z"/>
    <path class="cls-6" d="M154.05,35.87c4.39.08,8.78.16,13.18.25,2.04.04,4.08.08,6.12.11,1.8.03,3.95.44,5.18-1.18,2.03-2.67.25-6.47-2.06-8.27-3.1-2.4-7.22-2.01-10.78-1.07-1.87.49-1.07,3.39.8,2.89,2.59-.68,5.84-1.25,8.14.51.89.69,1.65,1.75,1.75,2.89.03.32.03,1.08-.28,1.27-.12.07-.69-.01-.86-.02-.47,0-.94-.02-1.41-.03-6.59-.12-13.18-.25-19.76-.37-1.93-.04-1.93,2.96,0,3h0Z"/>
    <path class="cls-6" d="M157.03,27.74l3.19-5.91,1.63-3.01c.5-.92.95-1.83,1.05-2.89s-.41-2.1-1.3-2.7c-.76-.51-1.74-.63-2.62-.79-1.66-.29-3.37-.51-5.05-.32-1.96.23-3.85.92-5.14,2.48-.51.63-.61,1.51,0,2.12.53.53,1.6.63,2.12,0,.98-1.19,2.3-1.61,3.82-1.67,1.67-.07,3.41.08,5,.59.12.04.17.02.27.12-.14-.14,0-.13-.09.06-.06.13-.19.6-.32.85-.53,1.03-1.1,2.04-1.65,3.06-1.16,2.15-2.33,4.31-3.49,6.46-.92,1.7,1.67,3.22,2.59,1.51h0Z"/>
    <path class="cls-6" d="M152.02,29.31c-1.34-4.58-3.79-8.81-7.13-12.24-1.55-1.59-3.28-3.04-5.44-3.72-2.06-.65-4.38-.33-5.73,1.48-1.66,2.23-.73,5.29.77,7.34.48.65,1.3.98,2.05.54.64-.38,1.02-1.4.54-2.05-.77-1.04-2.23-3.75-.38-4.52,1.6-.66,3.74.86,4.89,1.91,3.57,3.24,6.18,7.43,7.54,12.05.54,1.85,3.44,1.06,2.89-.8h0Z"/>
    <path class="cls-6" d="M150.4,26.67l-9.7.08c-2.84.02-5.76-.14-8.57.35-2.22.39-4.67,1.55-5.53,3.77-.73,1.89-.2,4.52,2.06,4.99,1.88.4,2.69-2.5.8-2.89-.32-.07-.1.05-.13,0-.09-.22-.07-.48-.02-.71.13-.7.67-1.14,1.25-1.48,1.56-.92,3.53-.95,5.29-.98,4.85-.07,9.7-.09,14.55-.13,1.93-.02,1.93-3.02,0-3h0Z"/>
    <path class="cls-6" d="M152.83,146.15c5.95-12.81,16.43-23.15,29.31-28.94-.73-.56-1.47-1.13-2.2-1.69-2.15,5.99-5.86,11.32-10.62,15.53-2.38,2.1-5.02,3.88-7.85,5.32-2.95,1.5-6.54,2.14-8.84,4.66-1.37,1.5-2.5,3.27-3.69,4.92-1.43,1.97-2.86,3.94-4.29,5.91-1.14,1.56,1.47,3.06,2.59,1.51,2.39-3.29,4.62-6.83,7.26-9.93,1.25-1.47,2.8-2.07,4.55-2.75,1.51-.58,3-1.24,4.44-2,5.69-3,10.59-7.39,14.3-12.62,2.14-3,3.81-6.3,5.05-9.76.49-1.36-1.13-2.18-2.2-1.69-13.29,5.97-24.25,16.81-30.39,30.01-.81,1.74,1.78,3.27,2.59,1.51h0Z"/>
    <path class="cls-6" d="M158.9,100.39c-.35-3.79.5-7.63-.34-11.38-.81-3.63-3.5-6.64-5.95-9.31-.61-.66-1.23-1.31-1.87-1.94-.24-.24-1.87-1.53-1.86-1.72.02-.57,1.59.48,1.77.63.61.5,1.16,1.07,1.67,1.66,2.23,2.6,3.45,5.97,3.52,9.38.04,1.93,3.04,1.93,3,0-.09-4.24-1.63-8.29-4.4-11.5-1.22-1.42-2.87-3.07-4.84-3.27-1.85-.19-3.84,1.16-3.73,3.17.06,1.06.73,1.84,1.45,2.54.86.83,1.73,1.65,2.56,2.52,1.54,1.62,3.06,3.33,4.28,5.2,2.8,4.29,1.3,9.24,1.73,14.02.17,1.91,3.18,1.93,3,0h0Z"/>
    <path class="cls-6" d="M133.29,186.5c1.73-10.4-1.15-21.09-7.88-29.2-.7-.84-2.31-.4-2.51.66l.11-.12,1.82.23c-4.73-3.81-10.76-5.34-16.74-4.21-1.23.23-1.28,1.71-.66,2.51,1.97,2.53,1.96,6.12,3.49,8.9,1.73,3.14,5.26,5.08,8.18,6.95,1.66,1.06,3.35,2.07,5.06,3.04,1.4.79,3.69,1.38,3.79,3.23s-.18,3.69-.3,5.5.03,3.9-.78,5.55-2.35,2.93-3.39,4.48c-1.12,1.68-1.71,3.68-1.14,5.67.53,1.85,3.43,1.06,2.89-.8s.77-3.36,1.85-4.64c1.17-1.37,2.34-2.73,2.91-4.47s.52-3.73.64-5.55.39-3.84.31-5.74c-.07-1.72-.7-3.13-2.15-4.09-1.7-1.13-3.62-1.98-5.37-3.03s-3.49-2.15-5.18-3.3c-1.5-1.02-3.16-2.04-4.25-3.52s-1.51-3.46-2.04-5.25-1.23-3.53-2.42-5.05l-.66,2.51c4.82-.92,9.99.35,13.82,3.43.55.44,1.17.57,1.82.23.69-.36,1.12-.91,1.27-1.68-.84.22-1.67.44-2.51.66,5.99,7.21,8.65,17.04,7.11,26.28-.31,1.89,2.58,2.7,2.89.8h0Z"/>
    <path class="cls-6" d="M82.3,259.85c-.14-7.17.4-14.36-.15-21.53s-2.56-13.73-4.36-20.53c-3.65-13.76-4.08-27.96-4.47-42.11-.23-8.24-.39-16.48-.31-24.72.02-1.93-2.98-1.93-3,0-.06,7.32.05,14.65.24,21.97s.35,14.32.85,21.46c.5,7.04,1.35,14.08,2.98,20.95,1.6,6.76,3.98,13.38,4.82,20.31.96,8.03.25,16.14.4,24.2.04,1.93,3.04,1.93,3,0h0Z"/>
    <path class="cls-6" d="M185.56,182.99c.4-16.34-.26-32.69-1.97-48.95-.2-1.9-3.2-1.92-3,0,1.71,16.26,2.36,32.61,1.97,48.95-.05,1.93,2.95,1.93,3,0h0Z"/>
    <path class="cls-6" d="M157.5,188.27c-.36-2.93,1.07-5.45,2.53-7.87,1.54-2.54,3.03-5.1,4.35-7.76,2.65-5.34,4.75-10.94,6.28-16.7.5-1.87-2.4-2.66-2.89-.8-1.58,5.95-3.77,11.71-6.59,17.18-1.35,2.63-2.93,5.11-4.4,7.67-1.44,2.52-2.65,5.31-2.28,8.27.23,1.89,3.24,1.91,3,0h0Z"/>
    <path class="cls-6" d="M28.42,277.88c-.72-20.53.29-41.12,3.05-61.48s7.23-40.44,13.36-60.03c3.45-11.05,7.44-21.92,11.93-32.59.57-1.36-1.18-2.15-2.2-1.69-4.31,1.91-7.05,6.72-6.49,11.39.14,1.19,1.15,1.79,2.26,1.3,3.66-1.62,6-5.24,6.27-9.19.13-1.93-2.87-1.92-3,0-.2,2.96-2.11,5.41-4.78,6.6.75.43,1.5.86,2.26,1.3-.45-3.76,1.54-7.27,5-8.8l-2.2-1.69c-8.02,19.06-14.41,38.8-19.1,58.94s-7.64,40.49-8.89,61.02c-.71,11.63-.86,23.29-.45,34.93.07,1.93,3.07,1.93,3,0h0Z"/>
    <path class="cls-6" d="M40.84,173.04c1.57-3.95,4.51-7.15,6.4-10.93,2.05-4.1,2.68-8.6,3.27-13.09.22-1.62-2.05-1.83-2.8-.76-4.28,6.19-7.99,12.75-11.08,19.62-.79,1.75,1.8,3.27,2.59,1.51,3.09-6.86,6.79-13.42,11.08-19.62l-2.8-.76c-.58,4.35-1.25,8.74-3.42,12.63-2,3.59-4.62,6.75-6.15,10.6-.71,1.79,2.19,2.57,2.89.8h0Z"/>
    <path class="cls-6" d="M31,211.99c.8-10.61,1.41-22.16-4.87-31.38-.86-1.26-2.68-.75-2.8.76-.58,7.46-3.64,14.68-2.28,22.24.65,3.65,2.25,7.03,3.12,10.62.94,3.88.76,7.89.6,11.85-.08,1.93,2.92,1.93,3,0,.17-3.93.29-7.89-.5-11.76-.75-3.63-2.34-7.01-3.14-10.62-1.64-7.46,1.64-14.93,2.21-22.33-.93.25-1.86.5-2.8.76,5.98,8.78,5.22,19.78,4.46,29.87-.15,1.93,2.86,1.92,3,0h0Z"/>
    <path class="cls-6" d="M30.29,61.73c1.06-.1,2.11-.19,3.17-.29.94-.09,2.01-.31,2.94-.09,1.61.38,2.08,2.29,2.4,3.69.07.28.47.4.67.18,1.66-1.87,3.86-3.19,6.3-3.7,1.2-.25,2.6-.34,3.69.33.98.59,1.56,1.93.92,2.96-.17.27.06.58.34.6,1.57.13,3.12,1.12,3.51,2.7.41,1.64-.47,3.15-2.03,3.71-1.59.57-3.47.49-5.13.49-1.98,0-3.97-.15-5.93-.42-.5-.07-.72.7-.21.77,2.44.34,4.9.49,7.36.43,1.8-.04,3.93-.03,5.43-1.19,1.35-1.05,1.75-2.94,1.13-4.5-.67-1.68-2.37-2.65-4.12-2.79l.34.6c.66-1.06.4-2.38-.35-3.32-.92-1.13-2.46-1.44-3.85-1.34-3.04.22-5.96,1.84-7.96,4.1l.67.18c-.35-1.53-.88-3.37-2.45-4.07-.96-.43-2.04-.26-3.06-.17-1.26.11-2.52.23-3.78.34-.51.05-.51.84,0,.8h0Z"/>
    <path class="cls-6" d="M174.74,86.33c-.15-1.97.23-3.94,1.14-5.69.46-.89,1.04-1.71,1.73-2.43.37-.38.81-.79,1.38-.81s1.09.29,1.55.56c.92.53,1.8,1.14,2.6,1.84s1.4,1.45,2.12,2.17c.66.66,1.43.57,2.24.26.95-.37,1.83-.89,2.73-1.37,1.75-.93,4.13-1.83,5.84-.31,1.41,1.27,2.55,3.38,2.85,5.24s-.35,3.63-1.92,4.67c-1.44.95-3.14,1.07-4.69.33-.95-.45-1.84-.88-2.92-.76-1.16.13-2.22.7-3.27,1.18-2.43,1.1-4.86,2.21-7.29,3.31-.47.21-.06.9.4.69,2.39-1.09,4.78-2.17,7.18-3.26,1.1-.5,2.33-1.22,3.58-1.14,1.1.07,2,.84,3.05,1.12,1.58.42,3.32,0,4.63-.96,1.46-1.08,2.23-2.76,2.12-4.58-.12-2.06-1.18-4.01-2.43-5.6-1.31-1.67-3.16-2.18-5.2-1.61-1.06.3-2.03.84-3,1.36-.48.26-.96.52-1.46.75-.71.32-1.39.63-2-.02-1.51-1.62-3.05-3.09-5.03-4.15-.98-.53-2-.73-2.96-.05-.9.64-1.62,1.63-2.18,2.56-1.21,2.01-1.77,4.37-1.59,6.71.04.51.84.51.8,0h0Z"/>
    <path class="cls-6" d="M148.96,152.27c.31-9.19.35-18.43-1.07-27.54s-4.58-17.43-9.22-25.27c-4.26-7.21-9.28-14.08-14.72-20.44-5.19-6.07-11-11.65-17.59-16.21-3.69-2.55-7.62-4.72-11.76-6.45-4.53-1.89-9.46-3.48-14.38-2.33-1.88.44-1.08,3.33.8,2.89,4.21-.98,8.56.59,12.42,2.18,3.47,1.43,6.79,3.25,9.93,5.3,6.36,4.16,11.96,9.39,17,15.06,5.3,5.96,10.08,12.45,14.31,19.21,4.65,7.42,8.12,15.3,9.8,23.92,1.9,9.76,1.81,19.78,1.48,29.67-.06,1.93,2.94,1.93,3,0h0Z"/>
    <path class="cls-6" d="M67.98,62.82c.29.94,1.1,1.54,2.07,1.62.4.03.79-.07,1.15-.25.57-.3.77-.86.95-1.43.46-1.41.47-3.1-.7-4.18-.55-.51-1.3-.88-2.07-.81-.9.08-1.62.53-2.12,1.28-.66,1.01-.72,2.44-.31,3.55.25.69.6,1.29,1.09,1.83s1.12.9,1.8,1.18c.33.14.86.02,1.16-.15s.61-.54.69-.9c.09-.38.07-.81-.15-1.16s-.51-.53-.9-.69l-.06-.03.36.15c-.23-.1-.45-.23-.65-.38l.3.23c-.24-.18-.44-.39-.63-.63l.23.3c-.18-.24-.33-.49-.45-.77l.15.36c-.11-.28-.19-.56-.23-.86l.05.4c-.03-.25-.03-.5,0-.75l-.05.4c.03-.23.09-.44.18-.65l-.15.36c.06-.12.12-.24.2-.35l-.23.3c.08-.1.17-.2.27-.28l-.3.23c.07-.05.14-.09.22-.13l-.36.15c.08-.03.17-.06.26-.08l-.4.05c.11-.01.22-.01.33,0l-.4-.05c.09.02.17.04.25.07l-.36-.15c.13.05.24.12.35.2l-.3-.23c.11.09.21.19.3.3l-.23-.3c.1.13.18.27.25.43l-.15-.36c.06.15.09.29.11.45l-.05-.4c.03.24.02.48,0,.71l.05-.4c-.07.48-.23.95-.39,1.41l.69-.9s-.06.04-.1.06l.36-.15c-.05.02-.1.04-.16.05l.4-.05c-.08,0-.15,0-.23,0l.4.05c-.08-.01-.15-.03-.22-.06l.36.15c-.05-.03-.1-.05-.15-.09l.3.23c-.06-.05-.11-.1-.16-.16l.23.3s-.04-.06-.06-.1l.15.36s-.03-.07-.04-.11c-.23-.75-1.06-1.3-1.85-1.05s-1.3,1.04-1.05,1.85h0Z"/>
    <path class="cls-6" d="M75.76,66.09c.25,2.21-.43,4.37.58,6.48.88,1.83,2.68,3.25,4.28,4.43s3.5,2.18,5.43,2.89c1.88.69,3.99.71,5.28-1.03.48-.65.11-1.67-.54-2.05-.76-.45-1.57-.12-2.05.54.13-.18.06.02-.05-.02.15.05-.19.02,0,.01-.17.01-.34.02-.51.01-.19,0-.09,0-.21-.02-.67-.12-1.33-.38-1.95-.66-1.45-.64-2.83-1.45-4.09-2.41-1.09-.83-2.47-1.91-3-3.22-.28-.7-.23-1.5-.19-2.24.05-.9.13-1.8.03-2.7-.09-.81-.63-1.5-1.5-1.5-.74,0-1.59.69-1.5,1.5h0Z"/>
    <path class="cls-6" d="M60.5,68.81c-.38,2.57-.78,5.15-1.15,7.72-.35,2.42-.68,4.96.25,7.3.76,1.92,2.27,3.7,4.38,4.11s4.17-.32,5.3-2.12c1.03-1.64-1.56-3.14-2.59-1.51-.53.84-1.76.93-2.6.53-1.29-.62-1.9-2.19-2.06-3.52-.23-1.92.19-3.88.47-5.77l.89-5.95c.12-.8-.2-1.61-1.05-1.85-.71-.19-1.72.24-1.85,1.05h0Z"/>
    <path class="cls-6" d="M63.81,53.44c-3.41-1.07-6.24-3.31-9.39-4.9-3.01-1.52-6.77-2.76-10.12-1.66-3.6,1.18-3.11,5.59-1.18,8.06,2.08,2.67,5.71,3.25,8.68,1.79,1.73-.86.21-3.44-1.51-2.59-1.94.96-4.32.18-5.28-1.77-.32-.65-.78-2.06-.06-2.55.89-.61,2.8-.36,3.78-.17,5.24,1.01,9.23,5.1,14.28,6.68,1.85.58,2.64-2.32.8-2.89h0Z"/>
    <path class="cls-6" d="M73.57,50.77c-.31-1.06.55-2,1.23-2.72,1.01-1.06,2.12-2.04,3.19-3.05,1.74-1.65,3.72-3.47,4.16-5.95.39-2.22-.54-4.78-2.75-5.65-2.56-1.01-4.96.82-6.52,2.7-.52.62-.61,1.51,0,2.12.53.53,1.6.63,2.12,0,.7-.85,2.58-3.05,3.76-1.72,1.11,1.26.19,3.09-.68,4.15-1.48,1.79-3.35,3.27-5.01,4.89-1.61,1.58-3.08,3.67-2.38,6.02.55,1.85,3.44,1.06,2.89-.8h0Z"/>
    <path class="cls-6" d="M68.57,49.64c.07-2.54-.18-5.36-1.77-7.45-1.84-2.42-4.76-3.1-7.66-3.22-.92-.04-1.86,0-2.61.59-.9.7-1.17,1.92-.61,2.93.25.45.78.76,1.3.74.77-.03,1.51-.31,2.03-.89s.59-1.53,0-2.12c-.55-.55-1.58-.6-2.12,0-.13.15-.09.06.05.02.17-.05-.32,0,.04,0l1.3.74c.14.28.14.55,0,.82-.04.05-.09.1-.14.13-.04.03-.08.05-.13.06.17-.04.2-.05.11-.03-.07.01.35,0,.43,0,.15,0,.31,0,.46.02.31.01.62.03.93.06.15.01.31.03.46.05-.26-.03.17.03.22.04.33.06.66.13.98.21.17.05.34.1.51.16.05.02.44.16.21.07.28.11.54.26.8.42.13.08.25.16.37.25-.18-.14.18.16.22.2.11.1.21.2.3.31.05.05.1.11.14.16-.09-.12-.08-.11.03.04.16.24.31.47.44.73.06.13.13.26.18.39-.11-.26.04.12.06.18.1.3.19.6.26.91s.13.63.17.94c-.03-.26.01.14.02.19.01.15.03.3.04.45.04.64.04,1.29.03,1.93-.02.78.71,1.54,1.5,1.5s1.48-.66,1.5-1.5h0Z"/>
    <path class="cls-6" d="M76.92,58.24c3.32-.97,6.71-1.68,10.15-2.06,1.72-.19,3.44-.3,5.17-.34,1.55-.03,3.15.17,4.69,0,1.17-.12,2.4-.66,2.76-1.89.4-1.38-.62-2.88-1.5-3.85-1.82-2.01-4.57-2.81-7.2-2.36-1.9.32-1.09,3.22.8,2.89,1.73-.29,3.61.56,4.6,1.99l.16.26c.06.31.16.35.28.11.05-.07.1-.13.17-.18.07-.05.04-.05-.09,0-.22-.09-1.12.04-1.35.03-1.31-.04-2.62-.04-3.94,0-5.24.17-10.46,1.02-15.49,2.48-1.85.54-1.06,3.44.8,2.89h0Z"/>
    <g>
      <path class="cls-26" d="M48.45,312.28c1.45-.22,3.71,1.48,5.06,1.93,1.86.63,3.9.94,5.85.96,3.78.03,7.42-1.13,10.61-3.12,5.99-3.74.48-13.26-5.55-9.5-2.86,1.78-5.49,1.99-8.62.78-3.66-1.41-6.31-2.26-10.28-1.66-2.96.45-4.53,4.14-3.84,6.77.83,3.15,3.84,4.28,6.77,3.84h0Z"/>
      <g>
        <path class="cls-6" d="M43.57,308.49c-.38-1.53.32-3.08,1.5-4.07,1.41-1.18,3.42-1.4,5.18-1.13,2.01.31,3.79,1.38,5.81,1.66,2.12.29,4.31.12,6.44.08,1.05-.02,2.1-.04,3.15-.05.89-.01,2.1-.21,2.75.53,1.21,1.39-.16,3.43-1.18,4.45-2.66,2.66-6.68,3.28-10.28,2.85-4.9-.58-9.72-2.76-14.19-4.77-1.75-.79-3.27,1.8-1.51,2.59,5.05,2.27,10.4,4.65,15.97,5.21,4.66.47,9.87-.83,12.9-4.62,1.41-1.77,2.23-4.1,1.36-6.3-.96-2.43-3.18-2.98-5.57-2.94-2.84.04-5.71.24-8.54.1-2.62-.13-4.92-1.6-7.54-1.84-5.08-.46-10.53,3.5-9.15,9.05.47,1.87,3.36,1.08,2.89-.8h0Z"/>
        <path class="cls-6" d="M53.4,302.16c-.79-.32-1.69-.18-2.41.24-.77.45-1.28,1.21-1.61,2.03-.76,1.88-.72,4.11-.22,6.04.16.62,1.13.36.96-.27-.42-1.64-.45-3.42.06-5.05.39-1.24,1.51-2.63,2.96-2.03.25.1.55-.11.62-.35.08-.29-.1-.51-.35-.62h0Z"/>
        <path class="cls-6" d="M55.1,302.08c-2.11-.07-2.85,3.01-3.2,4.58-.5,2.29-.44,4.67.15,6.94.16.62,1.13.36.96-.27-.49-1.9-.6-3.9-.26-5.84.17-.95.43-1.88.78-2.77.27-.67.71-1.67,1.56-1.64.64.02.64-.98,0-1h0Z"/>
        <path class="cls-6" d="M56.12,304.39c-.1,3.2-.06,6.39.13,9.58.04.64,1.04.64,1,0-.19-3.19-.23-6.39-.13-9.58.02-.64-.98-.64-1,0h0Z"/>
        <path class="cls-6" d="M57.3,302.86c.91,3.3,1.42,6.69,1.51,10.12.02.64,1.02.64,1,0-.1-3.51-.62-7-1.55-10.38-.17-.62-1.14-.36-.96.27h0Z"/>
        <path class="cls-6" d="M59.2,303.94c1.71,2.42,2.44,5.46,1.95,8.39-.11.63.86.9.96.27.54-3.19-.18-6.51-2.05-9.16-.37-.52-1.24-.02-.86.5h0Z"/>
        <path class="cls-6" d="M61.33,304.27c1.32,2.57,2.78,5.51,1.99,8.46-.17.62.8.89.96.27.87-3.23-.64-6.41-2.09-9.23-.29-.57-1.16-.07-.86.5h0Z"/>
        <path class="cls-6" d="M62.55,304.01c2.17,2.15,3.12,5.38,2.44,8.36-.14.63.82.89.96.27.76-3.33-.27-6.93-2.7-9.34-.46-.45-1.16.25-.71.71h0Z"/>
        <path class="cls-6" d="M54.68,303.84c-.83,2.79-1.15,5.71-.92,8.61.05.64,1.05.64,1,0-.22-2.82.08-5.63.89-8.34.18-.62-.78-.88-.96-.27h0Z"/>
        <path class="cls-6" d="M46.89,302.36c-1.55,2.03-3.19,4.41-2.49,7.11.16.62,1.13.36.96-.27-.62-2.39,1.03-4.55,2.39-6.33.17-.22.03-.56-.18-.68-.26-.15-.52-.03-.68.18h0Z"/>
        <path class="cls-6" d="M49.45,302.19c-1.28.99-2.36,2.35-2.76,3.94s-.11,3.26.91,4.54c.4.51,1.1-.21.71-.71-.84-1.06-.97-2.54-.58-3.8.41-1.34,1.35-2.43,2.44-3.27.22-.17.17-.53,0-.71-.21-.21-.49-.16-.71,0h0Z"/>
        <path class="cls-6" d="M65.04,304.31c2.6,1.93,1.84,5.65,1.09,8.28-.18.62.79.88.96.27.51-1.8.95-3.68.67-5.56-.23-1.52-.97-2.92-2.22-3.85-.52-.38-1.02.48-.5.86h0Z"/>
      </g>
    </g>
    <path class="cls-6" d="M191.04,26.13v307.77H24.96V26.13h166.08M193.04,24.13H22.96v311.77h170.08V24.13h0Z"/>
    <g>
      <path class="cls-6" d="M101.03,43.99c4.44-.55,8.77,2.77,13.16.92.78-.33.51-1.43-.35-1.28-2.48.43-5.01.79-7.49.21-2.23-.52-4.41-1.45-6.73-.89-.83.2-.48,1.48.35,1.28,2.39-.58,4.73.74,7.05,1.08,2.4.36,4.8,0,7.17-.41l-.35-1.28c-4.19,1.76-8.51-1.5-12.8-.97-.84.1-.85,1.43,0,1.33h0Z"/>
      <g>
        <path class="cls-6" d="M104.2,30.46c.02,4.22-.4,8.43-1.29,12.55l1.28.35c.54-3.93.76-7.89.63-11.85-.03-.85-1.36-.86-1.33,0,.13,3.84-.06,7.69-.59,11.5-.11.82,1.1,1.21,1.28.35.91-4.24,1.36-8.57,1.34-12.91,0-.85-1.33-.86-1.33,0h0Z"/>
        <path class="cls-6" d="M111.6,30.25c-.11,4.58-1.87,9.03-1.27,13.63l1.3-.18c-.59-4.16,1.09-8.25,1.05-12.4,0-.85-1.33-.86-1.33,0,.04,4.3-1.62,8.44-1.01,12.76.1.73,1.4.57,1.3-.18-.6-4.6,1.16-9.06,1.27-13.63.02-.85-1.31-.85-1.33,0h0Z"/>
        <path class="cls-6" d="M101.2,32.54c2.42-.53,4.57-1.93,7.01-2.37,1.3-.24,2.46.02,3.68.46s2.35.87,3.62.73c.83-.09.86-1.39,0-1.33-2.79.2-5.46-.86-8.23-.93-1.29-.03-2.55.2-3.71.78s-2.24,1.53-3.58,1.68c-.84.1-.85,1.42,0,1.33,1.28-.14,2.3-.75,3.39-1.39,1.24-.72,2.45-1.1,3.9-1.06,2.78.07,5.43,1.13,8.23.93v-1.33c-1.34.15-2.52-.44-3.76-.85-1.2-.4-2.4-.53-3.65-.33-2.53.4-4.75,1.86-7.24,2.41-.83.18-.48,1.46.35,1.28h0Z"/>
      </g>
    </g>
    <path class="cls-15" d="M8.79,9.92v340.16h198.43V9.92H8.79ZM193.04,335.91H22.96V24.09h170.08v311.81Z"/>
    <path class="cls-15" d="M-19.56-18.43v396.85l255.12-1.37V-18.43H-19.56ZM193.04,335.91H22.96V24.09h170.08v311.81Z"/>
  </g>
</svg>