<?xml version="1.0" encoding="UTF-8"?>
<svg id="boarder" xmlns="http://www.w3.org/2000/svg" xmlns:xlink="http://www.w3.org/1999/xlink" viewBox="0 0 216 360">
  <defs>
    <style>
      .cls-1 {
        fill: none;
      }

      .cls-2 {
        fill: #726658;
      }

      .cls-3 {
        fill: #587642;
      }

      .cls-4 {
        fill: #87b566;
      }

      .cls-5 {
        fill: #231f20;
      }

      .cls-6 {
        fill: #a2cce7;
      }

      .cls-7 {
        fill: #64a143;
      }

      .cls-8 {
        fill: #91c26b;
      }

      .cls-9 {
        fill: #f1f2f2;
      }

      .cls-10 {
        fill: #eec0d3;
      }

      .cls-11 {
        fill: #fff;
      }

      .cls-12 {
        fill: #ab8a98;
      }

      .cls-13 {
        fill: #cf799d;
      }

      .cls-14 {
        fill: #b286ba;
      }

      .cls-15 {
        opacity: .4;
      }

      .cls-16 {
        opacity: .5;
      }

      .cls-17 {
        fill: #898533;
      }

      .cls-18 {
        fill: #a5a035;
      }

      .cls-19 {
        fill: #c2b59b;
      }

      .cls-20 {
        fill: #0b76bd;
      }

      .cls-21 {
        fill: #a59a84;
      }

      .cls-22 {
        clip-path: url(#clippath);
      }
    </style>
    <clipPath id="clippath">
      <path class="cls-1" d="M0,15.06v329.88c0,8.32,6.94,15.06,15.49,15.06h185.02c8.56,0,15.49-6.74,15.49-15.06V15.06c0-8.32-6.94-15.06-15.49-15.06H15.49C6.94,0,0,6.74,0,15.06Z"/>
    </clipPath>
  </defs>
  <g class="cls-22">
    <path class="cls-9" d="M34.95,76.46c46.32-.5,92.66-.95,138.95,1.21l-31.5-31.5c-1.57,80.16-3.13,160.31-4.7,240.47,7.71-10.12,15.42-20.25,23.13-30.37-9.57,1.75-19.17,3.28-28.81,4.58,2.79-.38,5.58-.75,8.37-1.13-29.84,3.94-60.54,6.4-90.65,4.97l8.37,1.13c-.94-.05-1.83-.28-2.68-.69,4.63,2.7,9.27,5.4,13.9,8.1l-1.05-.84c1.64,2.13,3.28,4.25,4.93,6.38l-.66-1.12c1.06,2.51,2.12,5.02,3.18,7.52l-.35-1.27,1.13,8.37c-4.77-36.35,1.26-73.61,3.12-109.96.94-18.25,1.28-36.52,1.43-54.78.07-9.14.09-18.27.11-27.41.02-10.42-.25-21.19-3.44-31.2-10.12,13.29-20.25,26.58-30.37,39.87,6.48.81,12.95,1.64,19.42,2.51l-8.37-1.13c25.88,3.49,51.69,7.51,77.41,12.04v-60.75c-29.31,11.52-62.03,23.91-79.79,51.73-5.39,8.43-8.86,19.12-8.48,29.17.55,14.2,8.63,26.91,21.11,33.63,7.3,3.93,14.45,5.06,22.43,6.28,6.84,1.05,14.54,1.3,21.09,3.52-2.51-1.06-5.02-2.12-7.52-3.18l1.07.69c-3.77-3.77-7.53-7.53-11.3-11.3l.69,1.04c-1.43-5.3-2.87-10.6-4.3-15.9l.07,1.58c1.43-5.3,2.87-10.6,4.3-15.9-.35,1.1-.91,2.07-1.69,2.93,1.64-2.13,3.28-4.25,4.93-6.38-16.04,19.64-32.08,39.28-48.12,58.92-4.54,5.55-7.68,10.8-8.66,18.09-.9,6.71-.04,14.22,3.74,20.09,7.92,12.28,21.35,17.46,35.57,14.48,16.38-3.44,29.74-14.91,41.42-26.25,10.94-10.62,20.59-22.43,29.59-34.72,20.5-27.97,41.22-67.93,14.26-98.72-6.5-7.42-17.13-9.92-26.46-8.66-10.43,1.4-16.91,6.79-23.01,15.04-8.95,12.1-15.38,25.61-21.24,39.41-7.23,17.03-14.04,34.22-20.45,51.57-11.38,30.8-21.65,62-31.73,93.25-3.86,11.98,1.76,25.75,11.29,33.11,9.91,7.65,23.99,8.92,34.98,2.46,8.95-5.26,17.52-11.05,25.75-17.38,9.44-7.25,19.57-14.57,27.13-23.89,6.08-7.49,10-13.94,13.44-22.99,2.17-5.71,2.94-11.64,3.75-17.66,1.64-12.17,2.18-24.22,1.16-36.47-19.57,5.3-39.13,10.6-58.7,15.9,3.56,4.83,6.46,9.97,8.86,15.48-1.06-2.51-2.12-5.02-3.18-7.52,3.56,8.64,5.73,17.65,7.05,26.88l-1.13-8.37c1.31,10,2.15,20.32.82,30.35.38-2.79.75-5.58,1.13-8.37-.58,3.42-1.45,6.65-2.78,9.86,1.06-2.51,2.12-5.02,3.18-7.52-.9,1.87-1.88,3.58-3.09,5.26,1.64-2.13,3.28-4.25,4.93-6.38-1.58,1.95-3.26,3.61-5.24,5.14l6.38-4.93c-1.63,1.11-3.25,2.01-5.06,2.78,2.51-1.06,5.02-2.12,7.52-3.18-1.38.48-2.67.81-4.11,1.07,2.79-.38,5.58-.75,8.37-1.13-1.47.14-2.77.16-4.24.04,2.79.38,5.58.75,8.37,1.13l-1.42-.24c-8.57-1.45-16.51-1.37-24.27,3.18-6.53,3.82-12.77,11.32-14.48,18.83-3.47,15.25,4.63,35.8,22,38.75,4.65.79,9.32,1.65,14.04,1.32,7.88-.54,12.89-2.21,20.01-5.37,6.34-2.82,12.25-7.51,16.68-12.85,11.95-14.39,16.22-31.9,15.69-50.39-.74-25.99-5.86-54.25-21.62-75.62-4.2-5.69-8.37-10.06-15.06-12.89-6.26-2.64-13.86-3.74-20.51-1.59-5.2,1.68-9.88,4.41-13.9,8.1-5.34,4.9-9.84,14.95-9.23,22.27.9,10.78.72,21.55-.59,32.28l1.13-8.37c-.64,4.62-1.57,9.09-3.19,13.47,1.06-2.51,2.12-5.02,3.18-7.52-1.3,3.05-2.88,5.8-4.84,8.47,1.64-2.13,3.28-4.25,4.93-6.38-5.98,7.55-13.7,13.68-21.25,19.58l6.38-4.93c-8.22,6.33-16.8,12.12-25.75,17.38,15.42,11.86,30.85,23.72,46.27,35.57,14.92-46.24,30.22-92.45,49-137.29-1.06,2.51-2.12,5.02-3.18,7.52,5.84-13.8,12.3-27.32,21.24-39.41-16.49,2.13-32.98,4.25-49.47,6.38l.98,1.12c-1.64-2.13-3.28-4.25-4.93-6.38.6.78,1.1,1.63,1.5,2.53-1.06-2.51-2.12-5.02-3.18-7.52.56,1.45.93,2.77,1.23,4.3l-1.13-8.37c.3,2.59.25,5.05-.06,7.63l1.13-8.37c-.76,4.66-2.1,9.06-3.89,13.43,1.06-2.51,2.12-5.02,3.18-7.52-5.61,12.81-13.64,24.65-22.09,35.74,1.64-2.13,3.28-4.25,4.93-6.38-9.79,12.63-20.81,24.84-33.42,34.72l6.38-4.93c-3.03,2.26-6.11,4.19-9.56,5.75,2.51-1.06,5.02-2.12,7.52-3.18-1.99.78-3.96,1.38-6.05,1.82,10.22,17.55,20.43,35.1,30.65,52.65,15.22-18.63,30.43-37.27,45.65-55.9,3.03-3.71,6.43-7.38,8.75-11.56,4.38-7.92,5.87-17.8,3.45-26.62-3.54-12.87-15.21-22.64-28.21-24.71-5.85-.93-11.71-1.79-17.56-2.68-4.71-.72-9.53-1.15-13.98-2.96,2.51,1.06,5.02,2.12,7.52,3.18-.76-.34-1.48-.74-2.15-1.22l6.38,4.93c-.66-.46-1.24-1-1.75-1.62,1.64,2.13,3.28,4.25,4.93,6.38-.52-.63-.92-1.33-1.21-2.1,1.06,2.51,2.12,5.02,3.18,7.52l-.39-1.49,1.13,8.37c-.15-1.03-.15-2.06.01-3.09l-1.13,8.37c.42-2.11,1.06-4.03,1.9-6.02-1.06,2.51-2.12,5.02-3.18,7.52,1.16-2.4,2.51-4.6,4.08-6.76-1.64,2.13-3.28,4.25-4.93,6.38,3.02-3.81,6.5-7.07,10.31-10.07l-6.38,4.93c10.37-7.83,22.02-13.54,33.94-18.59l-7.52,3.18c4.94-2.06,9.92-4.04,14.9-6,6.6-2.6,11.91-5.52,16.36-11.29,4.1-5.31,7.07-12.19,6.76-19.09-.25-5.59-1.69-10.95-4.3-15.9-3.28-6.2-11.78-13.23-18.83-14.48-34.93-6.15-70.02-11.29-105.21-15.67-9.51-1.18-19.28,5.36-24.74,12.41-5.9,7.64-8.66,17.94-5.64,27.46.71,2.25,1.24,4.48,1.63,6.8l-1.13-8.37c1.45,11.06.68,22.52.63,33.65-.05,11.42-.15,22.84-.41,34.26-.51,22.99-2.04,45.87-3.72,68.79s-3.16,46.86-.66,70.16c.73,6.77,1.56,12.51,4.82,18.5,2.96,5.45,7.84,9.92,13.01,13.26,8.44,5.44,19.12,5.12,28.74,5.17,11.34.06,22.69-.21,34.02-.82,28.04-1.49,56.03-4.98,83.65-10.04,6.53-1.2,12.49-6.28,16.36-11.29,4.31-5.58,6.62-11.91,6.76-19.09,1.57-80.16,3.13-160.31,4.7-240.47.34-17.61-14.73-30.71-31.5-31.5-46.29-2.17-92.63-1.71-138.95-1.21-16.47.18-32.27,14.36-31.5,31.5.76,16.92,13.84,31.69,31.5,31.5h0Z"/>
    <path class="cls-14" d="M15.84,312.94c33.38-1.32,66.63,2.02,99.9,4.11,16.3,1.02,32.64,1.74,48.97,1.4,13.74-.28,29.68-.73,38.88-12.64,4.82-6.24,3.35-14.42-4.54-17.18-27.48-9.64-58.42-6.12-86.99-5.59-30.21.56-60.43,1.11-90.64,1.67-3.93.07-7.89.3-11.82.22-2.15-.05-.18-.38-1.24-.07l-.55-.15c4.85,4.67,4.91,7.8.2,9.4.1.36,10.33.76,11.32.84,3.95.32,7.9.62,11.85.89,14.88,1.01,29.8,1.68,44.72,1.71,14.8.03,29.61-.57,44.33-2.18,12.56-1.37,24.83-3.04,37.49-3.26,14.15-.25,28.3.27,42.45.35,6.48.04,14.06.91,19.85-2.56,2.15-1.29,3.93-2.99,5.5-4.91-1.58,1.93,3.72-4.45,1.85-2.4.2-.22,2.03-1.82,1.2-1.47,8.19-3.45,10.26-13.46,2.46-18.79-12.95-8.84-28.47-7.86-43.29-6.13-16.96,1.97-33.97,3.45-51.02,4.42-7.18.41-14.16.36-21.32.27-3.29-.04-6.53-.19-9.81-.33-3.98-.16-7.59.83-11.47,1.42-7.3,1.12-15.39-.01-22.77-.16-8.83-.17-17.67-.48-26.49-.93-9.48-.48-18.96-1.12-28.42-1.91-4.9-.41-9.79-.86-14.68-1.36-3.91-.4-7.36-.48-10.57-2.87l-2.46,18.79c15.44-6.25,31.29-9.24,47.93-9.39,8.09-.07,16.37.05,24.42.89,3.63.38,8.33.83,11.75,2.16,2.85,1.11,5.54,3.57,8.54,4.92,14.24,6.41,28.11.81,41.1-5.59,2.39-1.17,3.28-1.5,5.92-2.19-.78.21.51.63-.15.04-.81-.73,1.28,1.06,1.57,1.3,6.41,5.25,18.48,3.32,26.38,3.45,8.77.14,17.54.22,26.31.23,4.22,0,8.44,0,12.67-.03,4.28-.03,8.99.47,13.16-.64,9.79-2.59,12.75-13.3,7.29-21.35-4.58-6.76-12.03-9.42-19.84-10.14s-16.06.27-23.95.55c-8.99.33-17.99.65-26.98.98-3.78.14-6.8-.71-10.56-.95-4.77-.3-9.29.79-13.58,2.77-6.73,3.11-13.14,7.31-20.78,7.09-3.19-.09-8-1.16-9.41-1.48-3.83-.87-7.26-3.03-11.05-3.84-8.7-1.86-17.18-.6-25.93-.28-20.3.74-40.61,1.47-60.91,2.21-13.19.48-13.25,21.04,0,20.56,20.3-.74,40.61-1.47,60.91-2.21,7.14-.26,15.51-2.22,22.31.06,8.29,2.79,16.01,5.47,24.91,5.57,9.87.11,18.48-4.19,27.14-8.4,3.58-1.74,4.91-1.63,8.55-.7,4.72,1.21,10.57.08,15.39-.09,9.99-.36,19.98-.73,29.98-1.09,4.66-.17,15.23-2.52,17.45,2.23l-1.4-5.19.11-.25c.88-1.51,1.76-3.02,2.64-4.54,1.51-1.46,5-1.07,1.37-1.48-1.55-.17-3.3.03-4.87.04-2.92.02-5.85.03-8.77.04-5.85.01-11.69,0-17.54-.05-11.24-.09-22.5-.15-33.72-.61l7.27,3.01c-10.72-10.93-23.15-6.92-35.15-.9-2.02,1.02-3.81,1.96-5.93,2.63-1.63.51-2.26.6-3.62.85-1.62.21-1.82.24-.6.09-1.01.11-2.02.17-3.04.19-2.71.06-4.81.2-7.19-1.05-3.55-1.88-5.98-4.44-10-5.45-15.47-3.9-32.16-4.41-48.03-3.76-16.35.67-32.36,3.84-47.54,9.98-8.57,3.47-9.85,13.27-2.46,18.79,6.55,4.89,15.08,5.1,22.91,5.88,8.8.87,17.61,1.6,26.43,2.2,17.11,1.16,34.19,1.45,51.32,1.95,3.88.11,7.7.42,11.59.1,3.39-.28,6.67-1.16,10-1.56,6.45-.76,13.59.75,20.1.76,16.66.04,33.6-1.87,50.16-3.52,8.6-.86,17.18-2.16,25.8-2.7,7.78-.48,14.93-.04,21.53,4.46l2.46-18.79c-3.3,1.39-6.15,2.71-8.8,5.2-.78.74-1.45,1.53-2.13,2.36,1.48-1.82-3.64,4.76-1.8,2.36-.56.73-2.09,1.34-.74.93s.25-.16-.67-.27c-3.32-.41-6.98.04-10.33.02-13.64-.11-27.28-.58-40.92-.34s-27.49,2.3-41.33,3.65c-16.02,1.56-32.12,1.98-48.21,1.71-16.3-.27-32.6-1.19-48.85-2.52-7.87-.65-16.47-2.32-22.91,3.55-6.28,5.73-7.29,15.82-1.34,22.19,4.87,5.22,11.86,5.4,18.47,5.27,8.54-.16,17.08-.31,25.62-.47,16.42-.3,32.84-.61,49.26-.91,18.35-.34,36.7-.7,55.04-1.01,17.01-.29,33.89-.26,50.13,5.44-1.51-5.73-3.02-11.45-4.54-17.18-6.93,8.97-22.19,6.68-32.18,6.7-15.69.02-31.36-.82-47.01-1.87-31.31-2.09-62.62-4.97-94.03-3.73-13.19.52-13.25,21.08,0,20.56h0Z"/>
    <g>
      <g>
        <path class="cls-12" d="M125.35,132.59c4.27-.5,10.31-3.33,14.49-1.72l-1.54-1.18.16.23-.26-1.98c.03-.09-4.85.48-4.88.48-1.82.11-3.64.01-5.44-.28-3.24-.53-4.63,4.43-1.37,4.96,3.41.55,17.59,1.73,16.7-4.83-.84-6.16-14.52-1.23-17.86-.83s-3.29,5.54,0,5.15h0Z"/>
        <g>
          <path class="cls-10" d="M106.78,190.86c-2.27,18.52,16.37,32.9,33.75,26.66,8-2.87,4.79-15.45-3.56-12.9-3.04.93-5.64,1.12-8.73.38-7.2-1.72-11.98,8.43-5.16,12.23,3.94,2.19,8.1,3.28,12.62,2.76v-13.38c-3.03.36-5.8.28-8.61-1.05l-5.16,12.23c15.93,6.12,38.93-3.01,37.27-22.48-.77-9.01-6.61-15.71-11.12-23.12-5.08-8.34-7.6-17.71-7.71-27.45h-13.38c.97,11.05,2.5,22.04,4.36,32.97.91,5.33,1.93,10.64,2.89,15.96.13.72.11,2.02.45,2.67v1.32c1.45-.22,2.89-.43,4.32-.65.24-.22.7-3.33.89-3.93.16-.48.32-.96.49-1.44.49-1.14.18-.94-.95.6h-6.75c-1.5-1.05-.26-.47-1.33-.11-.39.13-1.12.87-1.53,1.11-1.87,1.12-1.46-.34-.96-2.32.09-.47.25-.92.46-1.35.62-.9.12-1.28-1.5-1.16-2.13-.27-2.34-.61-.61-1.03l.78.09s-.06-1.16.06-1.34c.72-1.14,1.12-2.18,2.02-3.24l-10.51-8.11c-1.51,3.33-3.28,5.38-6.52,7.1h6.75c.96,4,1.77,5.05,2.42,3.14.16-.67.4-1.29.74-1.88.74-1.56,1.71-2.87,2.87-4.14l-10.51-8.11c-2.62,4.31-5.24,8.62-7.85,12.92-4.54,7.47,6.68,13.7,11.56,6.75,7.3-10.39,12.3-22.21,14.66-34.69-4.38-.59-8.76-1.19-13.14-1.78-.36,8.23-.84,16.3.86,24.43,1.61,7.69,12.76,5.46,13.14-1.78.35-6.65.7-13.3,1.05-19.95.26-4.87-.43-11.06,1.49-15.46,1.8-4.12.43-8.29-4-9.83l-.39-.14c-.59,4.38-1.19,8.76-1.78,13.14-.81-.27-1.63-.54-2.44-.8.53-4.08,1.07-8.15,1.6-12.23l1.28-.18,1.78,13.14-.85.1c3.62-.44,6.65-2.76,6.69-6.69.03-3.28-3.11-7.13-6.69-6.69-.85.1-1.89.1-2.71.38-6.82,2.29-6.13,13.54,1.78,13.14.76-.04,1.53-.17,2.28-.3,5.67-.98,6.47-9.7,1.6-12.23-1.44-.75-2.73-.92-4.31-1.02-7.9-.5-8.56,10.78-1.78,13.14l.39.14c-1.33-3.28-2.67-6.55-4-9.83-.97,2.22-2.17,3.72-2.48,6.26-.47,3.94-.42,8-.63,11.97-.42,7.98-.84,15.96-1.26,23.94,4.38-.59,8.76-1.19,13.14-1.78-1.43-6.83-.69-13.95-.38-20.87.33-7.42-11.72-9.26-13.14-1.78-2.18,11.49-6.59,21.92-13.32,31.49l11.56,6.75c2.62-4.31,5.24-8.62,7.85-12.92,3.9-6.41-5.31-13.78-10.51-8.11-4.64,5.05-11.73,16.1-5.38,22.48,7.21,7.25,17.28-4.23,20.13-10.49,2.89-6.34-5.19-14.38-10.51-8.11-4.31,5.07-7.51,11.25-5.39,18.03,1.93,6.17,8.57,10.71,15.05,8.9,15.47-4.33,8.7-30.64-6.07-23.95-12.34,5.59-12.19,28.59,2.69,30.43,13.79,1.71,25.53-17.12,12.56-26.17-2.04-1.43-4.68-.98-6.75,0-6.67,3.16-8.78,16.68-5.42,22.63,4.46,7.92,16.33,8.29,19.81-.63,1.49-3.8.95-7.73.25-11.64-.91-5.01-1.88-10-2.75-15.02-1.8-10.38-3.29-20.8-4.21-31.3-.74-8.44-13.49-8.75-13.38,0,.18,15.48,5.65,28.33,14.06,41.03,3.05,4.6,7.28,11.01,3.19,16.3-3.85,4.99-13.48,4.84-18.75,2.81-7.03-2.7-12.01,9-5.16,12.23,4.91,2.32,9.92,3.51,15.36,2.87,3.62-.43,6.65-2.77,6.69-6.69.03-3.3-3.1-7.1-6.69-6.69-2.28.26-3.82.21-5.86-.93l-5.16,12.23c5.35,1.28,10.58,1.23,15.85-.38-1.19-4.3-2.37-8.6-3.56-12.9-9.84,3.53-18.06-3.58-16.81-13.76.44-3.62-3.39-6.66-6.69-6.69-3.98-.04-6.25,3.12-6.69,6.69h0Z"/>
          <path class="cls-10" d="M136.78,132.16c.32-.49.05-.09-.09.04-.09.09-.18.17-.27.26-.45.48-.8,1.03-.99,1.67-.14.45-.14.91-.24,1.37-.07.32.15-.53,0-.08s.22-.35.29-.42l4.39,1.82c.12-.96.19-1.92.21-2.89.02-1.35-1.2-2.64-2.57-2.57s-2.55,1.13-2.57,2.57c-.02.97-.09,1.93-.21,2.89s.75,2,1.58,2.35c.93.39,2.09.22,2.81-.53.46-.48.81-1.05,1-1.69.04-.14.06-.28.09-.42.04-.26.07-.51.1-.77.03-.23.03-.23,0-.01-.03.22-.03.22.01,0l.04-.17c.24,0-.65.81-.17.39.4-.35.74-.77,1.03-1.21.73-1.13.27-2.89-.92-3.52-1.28-.68-2.74-.28-3.52.92h0Z"/>
          <path class="cls-10" d="M123.1,135.4s.35.72.2.34c.11.29.19.59.25.89.03.18.04.17,0-.03.01.13.02.26.02.4,0,.1-.07.94,0,.51-.21,1.32.34,2.83,1.8,3.17,1.23.28,2.94-.38,3.17-1.8.34-2.14.08-4.17-1-6.08-.66-1.17-2.37-1.67-3.52-.92-1.19.77-1.63,2.26-.92,3.52h0Z"/>
        </g>
      </g>
      <path class="cls-10" d="M112.16,218.53c10.09,12.12,2.34,28.18-5.87,38.83,2.3,1.35,4.61,2.69,6.91,4.04,6.22-12.36,12.37-25.36,11.06-39.56-.47-5.09-7.68-5.2-8,0-.35,5.57-1.07,11.06-2.19,16.53h7.71c-3.13-9.33-.06-19.23-4.32-28.42-2.3,1.35-4.61,2.69-6.91,4.04,9.57,14.77,27.72,10.7,41.05,4.21-1.62-2.09-3.23-4.19-4.85-6.28-10.1,10.59-10.02,23.75-4.37,36.45.83,1.87,1.73,3.75,2.24,5.74.31,1.21.02,4.02,1.04,2.91-.97,1.05-5.94,1.23-7.25,1.38-1.68.19-3.37.29-5.06.32-8.36.16-16.61-1.6-24.19-5.12l-.96,7.31c14.25-3.14,16.35-25.75,18.04-37.25h-7.71c3.74,10.1-3.12,19.95-5.94,29.42-1.37,4.59,4.8,6.6,7.31,3.08,7.24-10.14,12.51-21.4,15.74-33.44,1.19-4.45-4.88-6.87-7.31-3.08-6.92,10.81-10.25,23.33-9.58,36.15.24,4.57,6.35,5.34,7.86,1.06,4.22-12.02,8.56-23.97,15.3-34.85-2.44-1.03-4.87-2.05-7.31-3.08-3.06,9.11-6.13,18.21-9.19,27.32-1.42,4.23,5.52,7.28,7.31,3.08,2.81-6.59,5.63-13.19,8.44-19.78-2.48-.67-4.97-1.35-7.45-2.02-.4,7.38-.84,14.75-1.21,22.13-.28,5.56.23,11.05,5.61,13.97,2.6,1.41,6.08-.33,6.02-3.45-.09-5.02-.18-10.05-.28-15.07-2.48.67-4.97,1.35-7.45,2.02,1.76,2.91,2.87,5.83,3.56,9.16l2.79-4.92c-8.41,1.9-16.83,3.81-25.24,5.71l2.13,7.71c7.59-2.61,14.75-5.41,21.11-10.4,2.96-2.32.26-6.64-2.83-6.83-5.82-.35-11.38.56-16.76,2.81-3.86,1.61-3.84,7.93,1.06,7.86,4.64-.07,9.24-.33,13.86-.77l-1.06-7.86c-5.58,2.2-11.26,3.58-17.26,4-5.11.35-5.15,8.36,0,8,6.7-.46,13.13-1.82,19.39-4.28,3.81-1.5,3.82-8.32-1.06-7.86-4.62.44-9.22.7-13.86.77l1.06,7.86c4.78-2,9.46-2.83,14.64-2.52l-2.83-6.83c-5.18,4.07-11.43,6.23-17.58,8.35-4.85,1.67-2.93,8.86,2.13,7.71,8.41-1.9,16.83-3.81,25.24-5.71,2.2-.5,3.22-2.88,2.79-4.92-.82-3.97-2.27-7.6-4.37-11.07-2.01-3.33-7.53-2.02-7.45,2.02.09,5.02.18,10.05.28,15.07,2.01-1.15,4.01-2.3,6.02-3.45-3.54-1.91-1.41-11.39-1.22-14.76.26-4.81.53-9.62.79-14.44.21-3.78-5.88-5.71-7.45-2.02-2.81,6.59-5.63,13.19-8.44,19.78,2.44,1.03,4.87,2.05,7.31,3.08,3.06-9.11,6.13-18.21,9.19-27.32,1.48-4.41-4.98-6.84-7.31-3.08-7.1,11.45-11.67,24.11-16.11,36.76l7.86,1.06c-.61-11.52,2.26-22.4,8.48-32.12-2.44-1.03-4.87-2.05-7.31-3.08-3.06,11.41-8.06,21.91-14.93,31.52,2.44,1.03,4.87,2.05,7.31,3.08,3.3-11.09,10.34-21.82,5.94-33.67-1.2-3.25-7.08-4.32-7.71,0-.86,5.83-1.72,11.69-3.33,17.37-1.36,4.78-3.5,13.05-9.12,14.29-3.2.71-4.08,5.86-.96,7.31,7.86,3.65,16.16,5.85,24.85,6.18,4.3.17,8.61-.17,12.86-.89,2.99-.51,6.89-.9,8.93-3.44,4.48-5.58-1.24-14.9-3.46-20.24-3.57-8.56-2.39-17.72,4.12-24.54,3.23-3.39-.82-8.24-4.85-6.28-9,4.38-23.27,9.21-30.1-1.34-2.84-4.38-9.05-.59-6.91,4.04,3.79,8.17.64,17.95,3.51,26.51,1.17,3.48,6.87,4.12,7.71,0,1.26-6.17,2.09-12.38,2.48-18.66h-8c1.18,12.83-4.35,24.35-9.97,35.52-2.38,4.72,3.83,8.03,6.91,4.04,10.81-14.01,17.17-33.45,4.62-48.52-3.3-3.96-8.93,1.73-5.66,5.66h0Z"/>
      <path class="cls-13" d="M101.89,265.52c3.67,3.08,7.32,5.88,12.16,6.72,5.25.91,10.89,1.16,16.21.96,9.42-.34,18.36-2.95,25.49-9.3-2.09-.27-4.19-.54-6.28-.81.95,2.2-17.18,4.25-18.65,4.22-6.9-.17-13.49-2.09-19.52-5.4-4.51-2.48-8.56,4.42-4.04,6.91,9.84,5.41,20.99,7.56,32.13,5.93,7.95-1.16,21.65-4.93,16.99-15.69-1.09-2.52-4.57-2.33-6.28-.81-5.49,4.89-12.62,6.68-19.83,6.95-8.24.31-16.2.13-22.71-5.34-3.92-3.29-9.61,2.34-5.66,5.66h0Z"/>
      <g>
        <path class="cls-9" d="M111.88,186.17c.06.26.12.52.16.78l-.14-1.06c.04.32.06.63.01.95l.14-1.06c-.03.16-.08.31-.14.46l.4-.96c-.07.15-.15.27-.25.4l.63-.81c-.07.08-.14.15-.23.21l.81-.63-.13.08,4.85.63-.1-.1.63.81-.07-.12.4.96c-.04-.08-.06-.17-.07-.26l.14,1.06v-.14c-.05.35-.1.71-.14,1.06.02-.16.06-.28.11-.43l-.4.96c.04-.1.1-.19.16-.27l-.63.81c.1-.13.2-.23.32-.33l-.81.63c.81-.57,1.74-.95,2.4-1.74.7-.83,1.17-1.71,1.17-2.83,0-.98-.44-2.15-1.17-2.83s-1.76-1.22-2.83-1.17c-1.01.05-2.15.37-2.83,1.17-.11.13-.21.23-.34.34l.81-.63c-.31.22-.65.39-.98.59-.83.52-1.57,1.16-2.07,2.02-1.16,1.97-1,4.45.65,6.1,1.21,1.21,3.36,1.58,4.85.63,1.26-.81,2.21-2.01,2.56-3.47.32-1.33.15-2.62-.16-3.93-.48-2.04-2.92-3.44-4.92-2.79-2.13.69-3.31,2.74-2.79,4.92h0Z"/>
        <path class="cls-9" d="M127.63,194.81c-.17,1.12-.29,2.1-.14,3.21.16,1.22.69,2.38,1.56,3.27,1.94,1.98,5.3,2.11,7.29.11,1-1.01,1.35-2.3,1.42-3.68.05-.94.18-1.76-.07-2.71-.33-1.27-1.2-2.45-2.37-3.08-1.39-.76-3.37-.92-4.72.06-.87.63-1.54,1.32-1.84,2.39-.26.96-.14,2.23.4,3.08,1.07,1.67,3.67,2.76,5.47,1.44l.12-.09-.96.4.13-.05-1.06.14h.14c-.35-.06-.71-.1-1.06-.15.1,0,.2.03.29.08l-.96-.4c-.41-.26-.73-.59-.99-.99l-.4-.96c.05.11.09.24.1.36l-.14-1.06c.04.63-.05,1.31-.12,1.93l.14-1.06-.05.19.4-.96c.27-.4.6-.73,1.01-.99l.96-.4c-.1.05-.2.08-.31.1l1.06-.14c-.11.02-.22.02-.33,0l1.06.14c-.11-.01-.21-.04-.31-.09l.96.4c-.35-.2-.22-.1.38.31.41.59.52.71.33.36l.4.96c-.07-.18-.12-.34-.16-.52l.14,1.06c-.05-.39-.04-.77,0-1.16l-.14,1.06c.02-.15.04-.31.07-.46.17-1.1.18-2.08-.4-3.08-.49-.83-1.44-1.62-2.39-1.84-1.02-.23-2.17-.18-3.08.4-.81.53-1.69,1.39-1.84,2.39h0Z"/>
        <path class="cls-9" d="M143.75,181.89c.23.13.45.27.66.43l-.81-.63c.29.24.54.49.77.79l-.63-.81c.19.26.34.53.47.82,1.51-1.96,3.01-3.92,4.52-5.88-.14-.04-.28-.08-.41-.14l.96.4c-.18-.09-.34-.18-.5-.3l.81.63c-.15-.13-.29-.26-.41-.41l.63.81c-.15-.2-.27-.4-.37-.63l.4.96c-.07-.18-.12-.37-.16-.56l.14,1.06c-.02-.2-.03-.38-.01-.58.07-.98-.5-2.16-1.17-2.83s-1.83-1.22-2.83-1.17-2.11.39-2.83,1.17-1.09,1.72-1.17,2.83c-.22,2.94,2.02,5.74,4.8,6.48,1.57.41,3.22-.16,4.2-1.43.44-.57.69-1.17.79-1.89.13-.95-.08-1.68-.47-2.55-.66-1.44-1.95-2.72-3.33-3.47-.93-.5-2.05-.69-3.08-.4-.93.26-1.93.97-2.39,1.84-.99,1.87-.53,4.41,1.44,5.47h0Z"/>
        <path class="cls-9" d="M123.89,146.6l-.85,2.63c-.15.46-.06,1.13.2,1.54.24.37.55.65.96.82s.88.24,1.3.1c.47-.15.98-.45,1.2-.92.84-1.81,1.66-3.86.96-5.86l-3.34,1.95c.06.07.12.14.18.21l-.31-.4c.15.2.28.42.38.65l-.2-.48c.13.3.21.61.25.93l-.07-.53c.04.32.04.64,0,.97l.07-.53c-.05.32-.13.63-.25.93l.2-.48c-.11.25-.25.49-.42.71l.31-.4c-.07.09-.15.18-.23.26l3.41,1.41c0-1.69,0-3.38-.01-5.07,0-1.05-.92-2.05-2-2s-2,.88-2,2c0,1.69,0,3.38.01,5.07,0,.8.5,1.52,1.23,1.83s1.63.17,2.18-.41c.97-1,1.49-2.34,1.51-3.73s-.5-2.73-1.43-3.76c-.57-.63-1.71-.77-2.42-.31-.29.19-.53.43-.72.72-.26.4-.36,1.09-.2,1.54.07.2.12.39.15.6l-.07-.53c.05.35.04.7,0,1.05l.07-.53c-.1.67-.32,1.3-.57,1.92l.2-.48c-.11.25-.22.5-.34.75l3.66,1.54c.28-.88.57-1.75.85-2.63.32-1-.38-2.23-1.4-2.46-1.1-.25-2.12.33-2.46,1.4h0Z"/>
        <path class="cls-9" d="M138.85,230.17c-.69.9-1.4,1.9-1.6,3.05-.25,1.41,0,2.85.99,3.94s2.76,1.43,4.15.91,2.87-1.67,2.78-3.39c-.05-.87-.43-1.53-.95-2.2-.24-.31-.52-.59-.76-.91l.31.4c-.13-.17-.24-.34-.33-.54l.2.48c-.05-.11-.08-.23-.1-.35l.07.53c-.03-.27.02-.54.04-.81.03-.38,0-.78-.12-1.15-.26-.81-.9-1.45-1.74-1.65s-1.75.05-2.34.68c-.78.83-.94,1.92-.92,3.02.01.97.16,1.96.43,2.89.29,1,1.42,1.73,2.46,1.4,1.02-.33,1.71-1.38,1.4-2.46-.13-.44-.22-.89-.28-1.35l.07.53c-.08-.62-.1-1.25-.04-1.87l-.07.53c.02-.14.06-.28.11-.42l-.2.48c.04-.09.08-.17.13-.25l-.31.4c.04-.05.08-.1.13-.14l-.4.31s.06-.05.1-.06l-.48.2s.07-.03.11-.04l-.53.07s.08,0,.12,0l-.53-.07s.08.02.12.03l-.48-.2s.07.03.1.05l-.4-.31s.05.05.07.07l-.31-.4s.04.06.05.09l-.2-.48c.03.07.04.14.05.22l-.07-.53c.03.32-.04.64-.05.96-.02.61.15,1.16.42,1.7.34.67.91,1.18,1.36,1.77l-.31-.4c.11.15.21.29.28.46l-.2-.48c.04.11.07.21.09.32l-.07-.53c0,.08,0,.15,0,.22l.07-.53c-.01.09-.04.17-.07.25l.2-.48c-.05.1-.1.19-.17.29l.31-.4c-.09.11-.2.2-.31.29l.4-.31c-.2.14-.41.26-.63.36l.48-.2c-.23.1-.47.16-.72.2l.53-.07c-.18.02-.36.03-.55,0l.53.07c-.15-.02-.29-.06-.44-.11l.48.2c-.15-.06-.29-.14-.42-.24l.4.31c-.1-.08-.18-.17-.26-.26l.31.4c-.11-.14-.2-.29-.27-.45l.2.48c-.09-.22-.15-.44-.18-.67l.07.53c-.03-.23-.03-.47,0-.7l-.07.53c.04-.3.14-.59.25-.87l-.2.48c.29-.66.73-1.24,1.17-1.81.29-.38.32-1.1.2-1.54-.13-.46-.49-.97-.92-1.2-.46-.25-1.03-.37-1.54-.2l-.48.2c-.3.18-.54.42-.72.72h0Z"/>
        <path class="cls-9" d="M114.41,257.16c.03-.1.06-.2.1-.29l-.2.48c.06-.14.14-.27.23-.4l-.31.4c.13-.16.27-.31.44-.43l-.4.31c.15-.11.3-.2.47-.27l-.48.2c.19-.08.39-.13.59-.16l-.53.07c.18-.02.35-.02.53,0l-.53-.07c.15.03.3.07.44.13l-.48-.2c.14.06.27.14.39.23l-.4-.31c.14.11.26.23.37.37l-.31-.4c.12.16.22.34.3.52l-.2-.48c.07.19.13.38.15.58l-.07-.53c.02.18.02.35,0,.53l.07-.53c-.03.18-.07.34-.14.51l.2-.48c-.09.19-.2.36-.33.53l.31-.4c-.33.42-.71.81-.96,1.28s-.37,1-.56,1.51l.2-.48c-.05.12-.11.22-.18.33l.31-.4c-.07.09-.14.16-.22.23l.4-.31c-.09.06-.18.11-.28.16l.48-.2c-.13.05-.26.08-.39.1l.53-.07c-.17.02-.33.02-.49,0l.53.07c-.18-.03-.35-.08-.52-.16l.48.2c-.24-.11-.46-.25-.67-.41l.4.31c-.41-.32-.8-.68-1.12-1.09l.31.4c-.13-.18-.25-.36-.34-.56l.2.48c-.06-.14-.1-.28-.12-.43l.07.53c-.01-.12,0-.24,0-.36l-.07.53c.02-.09.04-.16.07-.25l-.2.48c.05-.13.12-.24.21-.35l-.31.4c.07-.08.15-.16.23-.23l-.4.31c.14-.1.28-.19.43-.26l-.48.2c.17-.07.34-.11.51-.14l-.53.07c.34-.04.68-.03,1.02.01l-.53-.07c.23.03.45.07.68.11l-1.4-2.46c-.24.61-.48,1.23-.71,1.84-.18.46-.04,1.14.2,1.54s.72.81,1.2.92c.51.12,1.09.09,1.54-.2s.72-.68.92-1.2c.24-.61.48-1.23.71-1.84.17-.44.05-1.16-.2-1.54-.27-.42-.69-.83-1.2-.92-1.35-.25-2.7-.39-3.95.32-1.34.76-2.01,2.29-1.65,3.78.27,1.09,1.09,2,1.94,2.69.58.47,1.11.82,1.81,1.08.64.24,1.36.22,2.02.09.74-.15,1.39-.6,1.85-1.19s.56-1.26.84-1.92l-.2.48c.1-.2.22-.38.36-.56l-.31.4c.48-.61.92-1.14,1.2-1.86.18-.46.25-.99.22-1.49-.1-1.36-.75-2.56-1.89-3.32-2.21-1.49-5.42-.06-6.07,2.44-.26,1.01.33,2.22,1.4,2.46,1.04.24,2.18-.31,2.46-1.4h0Z"/>
      </g>
    </g>
    <g>
      <path class="cls-18" d="M129.92,70.42c.56,1.58,1.42,3.06,1.82,4.69.45,1.8.31,3.71.25,5.54s-.11,3.76-.18,5.64-.47,3.38-1.63,4.87c.84.49,1.67.97,2.51,1.46.4-1.54.79-3.08,1.19-4.61.48-1.87-2.41-2.67-2.89-.8-.4,1.54-.79,3.08-1.19,4.61-.34,1.34,1.53,2.7,2.51,1.46,1.2-1.54,2.1-3.13,2.37-5.09.3-2.19.23-4.46.3-6.67.07-2.07.19-4.15-.13-6.2s-1.34-3.78-2.02-5.7c-.64-1.81-3.54-1.03-2.89.8h0Z"/>
      <path class="cls-17" d="M131.67,69.37c.16,2.62,1.1,5.02,1.89,7.49.72,2.26,1.24,4.59.36,6.88-.29.76.32,1.65,1.05,1.85.85.23,1.55-.29,1.85-1.05.95-2.49.6-5.21-.12-7.71s-1.86-4.87-2.02-7.46c-.05-.81-.65-1.5-1.5-1.5-.77,0-1.55.69-1.5,1.5h0Z"/>
      <path class="cls-17" d="M128.71,72.14c-.15,2.47-.12,4.95.12,7.42s.77,4.8.62,7.23l1.5-1.5s.21.02.21.06c0-.15-.14-.5-.17-.64-.14-.65-.23-1.29-.28-1.96-.08-1.36.02-2.7.3-4.03l-2.95-.4c.34,3.3.67,6.6,1.01,9.91.08.81.63,1.5,1.5,1.5.75,0,1.58-.69,1.5-1.5-.34-3.3-.67-6.6-1.01-9.91-.08-.74-.51-1.38-1.3-1.47-.7-.08-1.48.33-1.65,1.07-.46,2.12-.55,4.25-.24,6.4.28,1.91.88,3.72,3.06,3.95.84.09,1.45-.76,1.5-1.5.15-2.43-.39-4.82-.62-7.23s-.27-4.95-.12-7.42c.12-1.93-2.88-1.92-3,0h0Z"/>
      <path class="cls-4" d="M126.55,75.23c-.56,2.67-1.13,5.4-1.06,8.15.04,1.37.22,2.76.63,4.07s1.07,2.44,1.29,3.76l1.85-1.85c-.38-.13-.58-.53-.76-.86-.32-.58-.59-1.18-.81-1.8-.41-1.17-.66-2.38-.71-3.61-.1-2.63.63-5.13,2.01-7.36,1.02-1.65-1.57-3.15-2.59-1.51-1.77,2.86-2.69,6.27-2.37,9.64.16,1.69.58,3.3,1.25,4.86s1.51,2.97,3.19,3.55c1.18.41,2.02-.81,1.85-1.85-.21-1.23-.8-2.31-1.2-3.48s-.58-2.34-.61-3.55c-.06-2.49.44-4.93.95-7.35.4-1.88-2.5-2.69-2.89-.8h0Z"/>
      <path class="cls-4" d="M134.74,73.56c1.32,6.66,1.36,13.59-2.83,19.27l2.74,1.16c.27-1.89,1.25-3.6,1.91-5.37.69-1.87,1.24-3.8,1.64-5.76.37-1.83.75-3.77.55-5.64-.21-1.97-1.14-3.67-2.13-5.34s-3.58-.15-2.59,1.51c.89,1.49,1.77,2.98,1.78,4.76.01,1.69-.37,3.41-.75,5.04s-.91,3.37-1.53,5-1.52,3.24-1.77,5.01,1.7,2.57,2.74,1.16c4.66-6.33,4.6-14.2,3.13-21.59-.38-1.89-3.27-1.09-2.89.8h0Z"/>
      <path class="cls-7" d="M125.93,92.59c-.57,3.17,1.14,6.08,3.83,7.71.64.39,1.49.19,1.94-.39.49-.63.35-1.37-.12-1.97-.31-.39.16.22-.13-.18-.07-.1-.15-.2-.22-.3-.16-.22-.31-.45-.46-.68-.29-.45-.56-.92-.81-1.4-.11-.22-.22-.43-.32-.65,0,0-.18-.41-.09-.2-.06-.14-.11-.29-.16-.44-.08-.24-.14-.49-.19-.74.06.26,0-.17,0-.2,0-.06.03-.48,0-.2-.91.12-1.83.24-2.74.36,1,2.05,2.51,3.86,4.27,5.3.48.39,1.04.56,1.64.31s.87-.76.92-1.37c.13-1.58-.49-3.02-1.44-4.24-.36-.46-1.15-.52-1.64-.31-.54.23-.93.77-.92,1.37.01,1.08.15,2.15.41,3.2l2.89-.8c-.21-.57-.39-1.14-.54-1.73-.07-.28-.13-.56-.19-.84-.03-.15-.06-.31-.08-.46,0-.05-.07-.48-.04-.22-.93.25-1.86.5-2.8.76.8,1.73,1.61,3.47,2.41,5.2.25.54.96.79,1.49.72.62-.08,1.03-.5,1.25-1.07.29-.77.29-1.61.28-2.42,0-.34,0-.68.03-1.02-.01.13-.04.19,0,.03.03-.1.06-.2.08-.3.04-.18-.11.16,0,0,.06-.09.11-.19.17-.28l-2.74-1.16c-.08.47-.19.94-.33,1.4-.07.22-.14.44-.22.65-.04.1-.07.19-.11.29.09-.22-.1.21-.1.21-.33.71-.22,1.65.54,2.05s1.58.16,2.05-.54c1.08-1.59,2.17-3.18,3.25-4.77-.93-.25-1.86-.5-2.8-.76.02.23.02.45,0,.68.02-.22,0-.06-.02.07-.03.11-.05.22-.09.33s-.08.22-.11.33c-.08.23.15-.29-.05.09-.11.21-.22.42-.35.63-.12.19-.24.37-.37.54-.06.08-.06.08,0-.01l-.09.11c-.08.09-.16.19-.24.28-.33.38-.68.74-1.03,1.1s-.68.68-1.01,1.03c-.5.52-1.05,1.07-1.01,1.86.05.96.87,1.67,1.82,1.68.67,0,1.28-.32,1.72-.82.52-.59.62-1.55,0-2.12-.57-.52-1.57-.63-2.12,0l-.07.08c-.1.1-.11.11-.02.03.11-.1.25-.14.42-.09.19-.08.38-.07.55.02l.54.54-.05-.07.2.76v-.12c-.07.25-.14.5-.21.76-.11.11-.11.09.02-.04.07-.07.14-.15.21-.22.14-.15.28-.29.42-.43.25-.25.5-.5.75-.75.58-.59,1.13-1.2,1.64-1.86.95-1.24,1.66-2.76,1.55-4.35-.11-1.51-1.94-2.01-2.8-.76-1.08,1.59-2.17,3.18-3.25,4.77l2.59,1.51c.49-1.05.87-2.13,1.06-3.27.12-.75-.13-1.46-.87-1.77s-1.45-.01-1.87.61c-.54.79-.7,1.75-.7,2.69,0,.36.02.73,0,1.09,0,.11-.01.21-.01.32,0,.17-.02.11,0-.02-.05.21-.09.41-.17.62l2.74-.36c-.8-1.73-1.61-3.47-2.41-5.2-.27-.57-1.11-.88-1.69-.69s-1.19.79-1.1,1.45c.19,1.39.48,2.73.96,4.04.27.73,1.03,1.31,1.85,1.05s1.25-1.03,1.05-1.85c-.05-.2-.1-.41-.14-.62-.02-.1-.04-.21-.06-.31,0-.03-.06-.41-.04-.27.01.12-.02-.16-.02-.19,0-.1-.02-.21-.03-.31-.02-.23-.02-.47-.02-.7l-2.56,1.06c-.17-.21.09.15.1.16.06.1.12.2.18.3.05.09.14.28.05.08.05.12.1.26.14.39.03.11.06.22.08.33.03.13.04.28.02.06.02.27.02.53,0,.8l2.56-1.06c-.84-.69-1.62-1.44-2.3-2.29-.04-.05-.28-.36-.1-.13-.07-.09-.14-.18-.2-.27-.14-.2-.28-.41-.42-.62-.29-.45-.54-.91-.78-1.39-.26-.53-.95-.79-1.49-.72s-1.16.5-1.25,1.07c-.24,1.62.24,3.04.96,4.48.61,1.23,1.38,2.35,2.23,3.43l1.82-2.36c-.15-.09-.3-.18-.44-.28-.03-.02-.36-.28-.11-.07-.23-.19-.45-.38-.65-.59-.11-.12-.22-.24-.33-.36-.21-.23.13.2-.06-.08-.16-.23-.31-.46-.44-.7-.05-.1-.1-.21-.16-.31-.07-.15-.06-.14.02.04-.03-.07-.05-.14-.08-.21-.09-.25-.14-.51-.2-.76-.08-.36.01.33,0-.04,0-.15-.02-.3-.02-.45,0-.11,0-.22.01-.33,0-.07.01-.15.02-.22-.03.21-.03.24,0,.07.14-.77-.21-1.65-1.05-1.85-.73-.17-1.7.22-1.85,1.05h0Z"/>
      <path class="cls-8" d="M130.63,100.56c.11,5.44.21,10.88.32,16.31.1,5.1.26,10.24-1.37,15.15.98.13,1.96.27,2.95.4.22-10.76.43-21.52.65-32.29.04-1.93-2.96-1.93-3,0-.22,10.76-.43,21.52-.65,32.29-.04,1.74,2.43,1.97,2.95.4,1.66-4.99,1.59-10.26,1.49-15.45-.11-5.6-.22-11.2-.33-16.81-.04-1.93-3.04-1.93-3,0h0Z"/>
      <path class="cls-3" d="M135.61,113.47c.11-.21.22-.42.36-.62.03-.05.21-.29.04-.07.07-.09.14-.17.22-.26.17-.19.34-.36.53-.53.09-.08.17-.15.26-.23.07-.06.25-.2.09-.07.41-.31.85-.58,1.3-.83.22-.12.45-.24.68-.35.12-.06.23-.11.35-.16,0,0,.43-.19.21-.1,1.01-.42,2.06-.69,3.08-1.05,1.32-.47,2.77-1.44,2.67-3.04-.06-.97-.91-1.71-1.9-1.45-.69.18-1.19.65-1.54,1.26-.09.17-.18.33-.29.5-.08.13.13-.12-.06.07-.08.08-.16.17-.24.25s-.17.16-.26.23c.13-.1.04-.03-.04.02-.1.06-.2.13-.31.18-.08.04-.3.14-.1.06-.22.09-.47.16-.71.19.32-.04-.54-.04-.25,0-.77-.11-1.65.19-1.85,1.05-.16.71.22,1.73,1.05,1.85,1.32.18,2.62-.02,3.74-.78.47-.32.91-.69,1.27-1.14.19-.24.37-.48.52-.74.06-.1.13-.22.18-.33.14-.32-.13.18-.32.23l-1.9-1.45c.02.29.02,0,.04-.07.03-.16.14-.15-.02-.03.2-.15-.47.26-.26.17-.48.22-1.03.33-1.53.49-1.07.34-2.12.75-3.12,1.24-1.8.88-3.56,2.17-4.48,4-.35.7-.21,1.66.54,2.05.68.36,1.68.21,2.05-.54h0Z"/>
      <path class="cls-3" d="M132.69,130.49c.11-1.22.16-2.4-.06-3.61-.24-1.35-.95-2.58-1.93-3.53-.56-.55-1.57-.6-2.12,0s-.55,1.49,0,2.12c.08.09.15.19.24.28.17.19-.18-.26.07.09.12.17.23.34.34.52s.19.35.28.53c.13.25-.03-.1.03.06.04.1.08.2.11.3.06.18.11.36.15.55.02.1.04.2.06.31-.03-.12-.02-.21,0-.03.03.41.03.82-.03,1.23l2.26-1.3c-.16-.1-.32-.21-.48-.32.24.17-.18-.16-.22-.2-.26-.23-.5-.48-.73-.74-.49-.53-.94-1.09-1.41-1.64-1.07-1.26-2.15-2.52-3.22-3.79l-2.12,2.12c.64.67,1.41,1.22,2.17,1.75.36.25.72.5,1.08.76.09.07.18.14.28.2-.12-.09-.07-.06.02.02.18.15.37.3.54.47.31.28.59.59.86.91s-.08-.13.05.06c.06.09.13.18.18.27.1.16.2.32.29.49.05.09.1.18.14.28.02.04.15.35.07.16s.05.16.05.16c.03.07.05.15.07.23.06.19.1.38.14.57.05.26,0-.05,0-.05.01,0,.03.33.03.35.04.78.66,1.54,1.5,1.5.78-.03,1.55-.66,1.5-1.5-.11-2.01-1.05-3.81-2.45-5.23-.71-.72-1.55-1.32-2.37-1.9-.4-.28-.79-.56-1.19-.85-.2-.15.26.22-.07-.06-.08-.07-.17-.14-.25-.21-.18-.15-.35-.32-.51-.49-.54-.57-1.58-.59-2.12,0-.59.64-.54,1.48,0,2.12,1.11,1.3,2.22,2.61,3.32,3.91,1.02,1.2,2,2.39,3.35,3.25.45.28,1.06.26,1.51,0,.5-.29.67-.75.74-1.3.29-2.21-.7-4.32-2.13-5.94l-2.12,2.12c.12.11.23.23.34.35.05.05.09.1.13.15-.09-.11-.1-.13-.04-.04.15.23.29.45.42.7.18.34-.09-.28.04.08.04.11.08.22.11.34.07.25.12.49.17.74.02.11.01.08-.01-.11,0,.06.01.12.02.17.01.14.02.27.03.41,0,.23.01.47,0,.71-.01.51-.06,1.01-.1,1.52-.07.78.74,1.53,1.5,1.5.88-.04,1.42-.66,1.5-1.5h0Z"/>
      <path class="cls-3" d="M137.83,133.24c.15-.43.3-.86.46-1.28.08-.21.17-.43.25-.64.02-.06.05-.12.08-.18-.09.21-.1.24-.04.09.05-.11.09-.21.14-.32.38-.86.8-1.71,1.25-2.53.36-.66.21-1.47-.39-1.94s-1.46-.43-1.97.12c-1.46,1.56-2.73,3.32-3.63,5.26-.28.59-.28,1.34.23,1.82s1.19.53,1.82.23c1.15-.53,2.25-1.16,3.29-1.89.33-.23.58-.5.69-.9.1-.36.05-.84-.15-1.16-.42-.65-1.35-1-2.05-.54-.45.3-.92.57-1.4.83-.24.12-.48.24-.72.36-.12.05-.23.1-.35.16-.3.13.23-.09.05-.02-.07.03-.15.06-.22.09-.38.15-.68.33-.9.69-.19.32-.27.8-.15,1.16s.34.71.69.9.79.3,1.16.15c1.18-.47,2.31-1.01,3.37-1.71l-1.51-2.59c-1.04.73-2.14,1.35-3.29,1.89l2.05,2.05c.41-.88.9-1.73,1.45-2.54.14-.2.28-.4.43-.6.04-.05.07-.1.11-.15.03-.04.16-.21.02-.03s0,0,.03-.03c.04-.05.08-.1.12-.15.32-.4.67-.79,1.02-1.17l-2.36-1.82c-.98,1.78-1.8,3.65-2.45,5.58-.25.74.29,1.67,1.05,1.85.83.19,1.58-.25,1.85-1.05h0Z"/>
      <path class="cls-7" d="M102.37,119.31c1.74,1.17,3.44,1.26,5.45,1.28,1.22.01,2.05.42,3.04,1.03,1.04.65,2.04,1.31,3.23,1.67,1.64.5,3.36.35,5.02.03h-1.06c2.98.93,5.88,2.01,8.91,2.8,1.52.4,3.38-1.48,2.26-2.94-1.76-2.29-4.42-3.48-6.97-4.71-.76-.37-1.35-.63-2.2-.7-.43-.03-.81-.07-1.23-.18-.73-.19-.82-.26-1.55-.7-1.43-.86-2.81-1.42-4.5-1.57-.61-.05-1.21-.05-1.82-.02-.14,0-.91.12-.78.13.1,0-.37-.16-.52-.22-.61-.29-1.24-.43-1.91-.25-.3.08-.61.25-.88.39-.34.17-.83.21,0,.16l1.93,1.47c-.13-.7-.62-1.24-1.27-1.5-.43-.17-.85-.22-1.3-.1-.23.06-.96.41-.35.17l1.54.2-.08-.04.92,1.2-.03-.17c-.44-2.33-3.78-1.59-3.93.53l.03-.25.51-.88-.05.05,1.41-.59h-.06c.34.1.67.19,1.01.28.37.18.62.67.6,1.07l-.59,1.41.03-.04-1.41.59h.07c-.34-.09-.67-.18-1.01-.27.34.17.91.66,1.52.79.91.19,1.76-.08,2.63-.31.54-.14,1.07-.27,1.63-.27.51,0-.07-.05.32.02.23.04.07.04.07,0,0,.02-.07-.09-.06-.08.04.05.27.49.14.22-.07-.15.17.55.22.72.21.73.43,1.48.85,2.13l3.45-2.02c-1.08-1.59-1.83-3.16-3.8-3.81-2.99-.99-6.33.03-9.06,1.29l1.01-.27c-.64-.07-.51.05.39.36l.51.88c.14.49.04.19.05-.05-1,.58-2.01,1.15-3.01,1.73,1.92,1.01,3.58.34,5.36-.59.92-.48,1.56-.73,2.58-.53.92.18,1.83.37,2.75.58,2.42.56,4.71,1.39,7.04,2.23,2.43.87,3.47-2.99,1.06-3.86-2.23-.8-4.42-1.62-6.73-2.16-.87-.21-1.75-.39-2.63-.57-1.04-.21-2.16-.57-3.22-.32-.86.2-1.75.61-2.54,1-.42.21-.84.44-1.26.66-.14.06-.29.1-.44.14.2.04.22.02.05-.03-1.36-.71-2.96.17-3.01,1.73s.82,2.63,2.41,2.78c1.76.17,3.45-1.15,5.24-1.3.64-.06,1.3-.07,1.93.04-.02,0,.63.19.37.1.12.06.23.13.34.2-.14-.11-.15-.11-.05-.02.35.28,0-.06.2.21.1.15.2.31.29.46.24.39.46.78.71,1.16,1.44,2.11,4.88.15,3.45-2.02-.08-.13-.17-.25-.23-.39.11.24.07.19,0-.02-.09-.28-.17-.56-.25-.83-.19-.65-.41-1.31-.78-1.88-1.17-1.81-3.28-2.03-5.24-1.71-.68.11-1.35.28-2,.49.25-.08.82.36-.08-.21-.2-.12-.43-.25-.66-.31-1.57-.43-2.94,1.02-2.57,2.56.65,2.69,4.29,2.6,4.49-.29l-3.93.53c.13.7.62,1.24,1.27,1.5.43.17.85.22,1.3.1.23-.06.96-.41.35-.17l-1.54-.2.08.04-.92-1.2.03.17c.15.82,1.11,1.51,1.93,1.47.78-.04,1.63-.65,2.1-.72h-1.06c.87.26,1.27.6,2.24.57.73-.02,1.46-.11,2.2-.07.97.05,1.51.23,2.18.61,1.94,1.09,3.58,1.81,5.87,1.88l-1.01-.27c1.29.62,2.58,1.22,3.83,1.91.85.47,1.95.99,2.56,1.79l2.26-2.94c-2.77-.73-5.47-1.64-8.18-2.57-1.75-.6-3.8.29-5.36-.55-1.36-.73-2.54-1.67-4.03-2.16-2.04-.66-4.21.1-6.04-1.14-2.14-1.44-4.14,2.02-2.02,3.45h0Z"/>
      <path class="cls-7" d="M136.44,110.73c2.96-2.26,5.64-4.78,7.84-7.8,2.2-3.02,3.8-6.4,5.38-9.78-.93-.25-1.86-.5-2.8-.76-.17,1.81-.23,3.67-.52,5.47-.27,1.68-1.33,2.89-2.35,4.2-1.96,2.51-3.71,5.33-7.15,5.73l1.3,2.26c.89-1.62,1.97-3.07,3.24-4.41l-2.12-2.12c-1.9,2.17-3.8,4.35-5.71,6.52-1.27,1.45.85,3.58,2.12,2.12,1.9-2.17,3.8-4.35,5.71-6.52,1.26-1.44-.78-3.53-2.12-2.12-1.44,1.51-2.7,3.19-3.71,5.02-.49.9.1,2.4,1.3,2.26,1.98-.23,3.81-.85,5.39-2.11s2.68-2.96,3.88-4.5,2.62-3.15,3.06-5.18c.45-2.14.49-4.42.69-6.6.13-1.46-2.18-2.08-2.8-.76-1.48,3.17-2.98,6.34-4.98,9.22s-4.45,5.21-7.16,7.28c-.64.49-.98,1.29-.54,2.05.37.63,1.4,1.03,2.05.54h0Z"/>
      <path class="cls-7" d="M123.95,89.8l.06,3.69c0,.39.16.78.44,1.06.26.26.69.46,1.06.44.8-.04,1.51-.66,1.5-1.5l-.06-3.69c0-.39-.16-.78-.44-1.06-.26-.26-.69-.46-1.06-.44-.8.04-1.51.66-1.5,1.5h0Z"/>
      <path class="cls-7" d="M134.65,88.72c0,.07,0,.14,0,.21-.01.17,0,.14.02-.09-.04.06-.05.23-.07.31-.07.24-.17.48-.26.71-.2.49-.39.98-.54,1.49-.32,1.1-.49,2.25-.53,3.4-.03.79.71,1.54,1.5,1.5.83-.04,1.47-.66,1.5-1.5,0-.26.02-.52.05-.78,0-.09.02-.58.01-.16,0-.11.03-.23.05-.33.09-.52.22-1.04.38-1.54.33-1.06.96-2.06.89-3.2-.05-.78-.66-1.54-1.5-1.5-.77.03-1.55.66-1.5,1.5h0Z"/>
      <path class="cls-7" d="M134.18,98.72c1.75-1.68,3.39-3.48,4.88-5.39.26-.33.44-.63.44-1.06,0-.37-.16-.81-.44-1.06s-.66-.46-1.06-.44c-.37.02-.82.13-1.06.44-1.49,1.91-3.13,3.71-4.88,5.39-.57.54-.59,1.58,0,2.12s1.52.58,2.12,0h0Z"/>
      <path class="cls-8" d="M130.35,127.89c.08.67.08,1.35-.01,2.02l.05-.4c-.08.54-.2,1.07-.38,1.59.98.13,1.96.27,2.95.4-.09-1.03-.08-2.07.02-3.11.04-.36-.19-.81-.44-1.06-.26-.26-.69-.46-1.06-.44s-.79.14-1.06.44c-.28.31-.4.64-.44,1.06-.1,1.03-.11,2.07-.02,3.11.03.39.14.79.44,1.06.25.23.53.37.86.41.76.1,1.4-.36,1.65-1.07.44-1.27.61-2.68.45-4.01-.05-.41-.13-.76-.44-1.06-.26-.26-.69-.46-1.06-.44s-.79.14-1.06.44c-.25.27-.49.67-.44,1.06h0Z"/>
      <path class="cls-7" d="M135.49,128.33l.07.89c.02.26.06.52.04.78l.07-.53c0,.05-.02.1-.04.15l.2-.48c-.02.05-.05.1-.08.14l.31-.4s-.08.08-.12.12l.4-.31c-.07.05-.15.09-.23.13l.48-.2c-.22.09-.45.13-.67.19-.37.09-.73.22-1.06.4-.49.27-.83.64-1.15,1.08-.16.22-.25.46-.35.72s-.11.52-.14.8c0,.36.09.7.27,1.01.13.23.3.42.52.56.5.38,1.13.53,1.74.36.75-.22,1.5-.53,2.17-.95.62-.39,1.23-.87,1.69-1.44.2-.18.33-.4.41-.64.13-.24.18-.5.17-.77,0-.49-.22-1.08-.59-1.41s-.88-.61-1.41-.59c-.5.02-1.09.18-1.41.59-.24.3-.52.56-.82.8l.4-.31c-.43.33-.89.59-1.39.8l.48-.2c-.25.1-.51.19-.77.27l2.53,1.93v-.05c-.02.18-.04.35-.07.53.01-.08.04-.15.06-.22l-.2.48c.04-.09.09-.17.15-.25l-.31.4c.08-.09.16-.17.25-.25l-.4.31c.1-.07.21-.13.33-.19l-.48.2c.28-.11.57-.16.86-.24s.56-.19.81-.32c.13-.07.24-.16.35-.25.12-.09.23-.16.32-.28.14-.17.3-.35.39-.55.15-.32.23-.56.28-.9.03-.25.05-.46.03-.71-.03-.41-.07-.82-.1-1.24-.04-.54-.19-1.02-.59-1.41-.35-.35-.92-.61-1.41-.59s-1.05.19-1.41.59c-.34.37-.63.89-.59,1.41h0Z"/>
      <path class="cls-3" d="M107.77,119.88c1.56.51,2.76,1.78,4.21,2.52s3.08,1.24,4.7,1.57c1.66.34,3.35.52,5.03.74,1.45.19,3.65.16,4.77,1.24.93.89,2.34-.52,1.41-1.41-1.25-1.21-2.99-1.39-4.64-1.62-1.81-.25-3.62-.43-5.42-.75-1.72-.31-3.44-.74-4.99-1.56-1.57-.83-2.84-2.1-4.55-2.65-1.23-.4-1.75,1.53-.53,1.93h0Z"/>
    </g>
    <path class="cls-5" d="M154.13,316.86s.09.02.09.02l-.07-.03s.03.02,0,0c-.1-.06.03.02.01.02-.03,0-.06-.1-.02-.01.02.03.12.2.04.07.03.05.04.11.07.17.14.36.32.64.65.85.3.2.66.3.99.43.38.15.75.3,1.13.45.25.1.58-.11.63-.36.07-.3-.09-.53-.36-.63-.37-.15-.74-.29-1.1-.44-.17-.07-.35-.14-.52-.21-.06-.02.07.03-.02,0-.03-.02-.07-.03-.1-.05s-.06-.03-.1-.05c-.02-.01-.12-.09-.04-.02-.03-.02-.05-.05-.08-.07-.04-.04-.05-.07-.01-.01-.03-.05-.06-.1-.08-.15-.05-.11.04.11,0,0-.01-.03-.02-.06-.03-.08-.03-.08-.07-.17-.11-.25-.13-.29-.37-.57-.7-.62-.27-.04-.57.06-.63.36-.06.24.07.59.36.63h0Z"/>
    <g>
      <path class="cls-5" d="M104.37,267.95c5.04,3.92,11.3,5.95,17.58,6.77,7.19.94,14.51.27,21.61-1.04,3.56-.66,7.21-1.53,10.26-3.56.55-.37.03-1.26-.52-.89-2.64,1.76-5.75,2.61-8.83,3.23-3.41.69-6.87,1.19-10.34,1.46-6.7.52-13.54.13-19.96-1.99-3.25-1.07-6.38-2.6-9.08-4.7-.52-.4-1.25.32-.73.73h0Z"/>
      <path class="cls-5" d="M154.28,269.5c1.87-2.75,3.98-6.13,2.29-9.49-.3-.59-1.19-.07-.89.52,1.49,2.95-.67,6.07-2.29,8.45-.37.55.52,1.06.89.52h0Z"/>
      <path class="cls-5" d="M104.53,266.59c-1.57-.49-2.66-1.74-2.57-3.43s1.37-3.27,2.39-4.6c.4-.53-.49-1.04-.89-.52-1.22,1.59-2.61,3.38-2.54,5.49s1.47,3.47,3.33,4.05c.63.2.9-.79.27-.99h0Z"/>
      <path class="cls-5" d="M156.4,259.55c-4.13-4.58-7.77-9.89-9.34-15.92s-.53-12.54,1.33-18.35c1.12-3.53,2.68-6.9,4.62-10.06.35-.57-.54-1.08-.89-.52-3.5,5.72-5.77,12.15-6.56,18.81-.36,3.08-.41,6.16.23,9.21s1.87,6.01,3.41,8.74c1.8,3.18,4.03,6.11,6.48,8.82.44.49,1.17-.24.73-.73h0Z"/>
      <path class="cls-5" d="M104.45,258.61c4.33-4.86,7.67-10.58,9.53-16.83,1.75-5.88,2.13-12.13,1.05-18.17-.63-3.51-1.75-6.9-3.29-10.12-.29-.6-1.17-.08-.89.52,2.62,5.47,3.93,11.52,3.75,17.59s-1.86,12.09-4.71,17.47c-1.69,3.18-3.77,6.13-6.16,8.81-.44.49.29,1.22.73.73h0Z"/>
      <path class="cls-5" d="M114.1,211.22c-7.69-6.08-7.76-17.44-4.86-25.99,1.91-5.65,4.97-10.83,7.8-16.05,2.86-5.29,5.45-10.72,6.8-16.61,1.54-6.72,1.68-13.71.42-20.48-.12-.65-1.11-.37-.99.27,1.16,6.21,1.1,12.63-.18,18.82-1.25,6.08-3.8,11.65-6.73,17.09s-5.83,10.35-7.85,15.94c-1.64,4.54-2.41,9.48-1.9,14.29.54,5.15,2.63,10.17,6.77,13.44.51.41,1.25-.32.73-.73h0Z"/>
      <path class="cls-5" d="M149.78,213.57c5.19-1.68,7.88-7.18,8.56-12.25.79-5.9-.9-11.85-3.36-17.17-5.1-11.02-14.27-20.08-16.24-32.44-.58-3.63-.6-7.42.02-11.04.57-3.32,1.78-6.44,3.25-9.46.29-.59-.6-1.12-.89-.52-1.27,2.61-2.39,5.31-3.04,8.16-.69,3.02-.9,6.16-.74,9.26.32,6.14,2.34,11.85,5.28,17.2,5.64,10.26,14.39,19.83,14.88,32.12.23,5.72-1.89,13.18-7.98,15.15-.63.2-.36,1.2.27.99h0Z"/>
      <path class="cls-5" d="M122.77,131.96c3.45,1.28,7.19,1.77,10.86,1.42,1.84-.17,3.66-.54,5.41-1.12,1.45-.48,3.08-1.06,3.97-2.4.79-1.18.39-2.61-.81-3.32-1.4-.82-3.35-.87-4.92-.98-3.8-.27-7.66.19-11.29,1.35-1.42.45-3.46,1.1-3.71,2.82s1.49,2.64,2.82,3.17c.62.24.88-.75.27-.99-.93-.37-2.73-1.25-1.89-2.52.72-1.08,2.5-1.42,3.65-1.75,3.07-.87,6.27-1.24,9.46-1.09,1.46.07,3.02.15,4.42.59.52.16,1.12.44,1.33.99.25.66-.19,1.26-.65,1.68-1.06.97-2.62,1.39-3.97,1.76-1.44.4-2.92.67-4.41.79-3.48.28-6.98-.2-10.25-1.42-.62-.23-.89.76-.27.99h0Z"/>
      <path class="cls-5" d="M117.21,215.34c5.89,4.37,13.69,5.65,20.67,3.36,1.98-.65,3.87-1.57,5.6-2.73.55-.37.03-1.26-.52-.89-3.78,2.52-8.28,3.85-12.82,3.72-4.47-.13-8.82-1.69-12.41-4.35-.53-.39-1.05.5-.52.89h0Z"/>
      <path class="cls-5" d="M105.35,260c7.29,4.43,15.69,6.9,24.22,7.13.66.02.66-1.01,0-1.03-8.35-.22-16.56-2.65-23.7-6.99-.57-.35-1.09.54-.52.89h0Z"/>
      <path class="cls-5" d="M151.86,257.62c.43,1.58-.4,3.19-1.65,4.14-1.36,1.03-3.1,1.41-4.74,1.78-3.73.84-7.55,1.2-11.37,1.11-.66-.01-.66,1.01,0,1.03,4.3.1,8.61-.37,12.78-1.42,1.71-.43,3.51-1.05,4.72-2.39,1.11-1.22,1.68-2.91,1.24-4.53-.17-.64-1.17-.37-.99.27h0Z"/>
    </g>
    <g>
      <path class="cls-5" d="M132.12,132.02c.35-1.38.69-2.81.49-4.24s-.9-2.54-1.9-3.48c-2.09-1.97-4.85-3.2-7.36-4.52-.67-.35-1.34-.71-2-1.08-.53-.3-1.07-.54-1.61-.81-.49-.25-.81-.68-1.15-1.09-1.25-1.45-3.04-1.76-4.88-1.79-3.03-.05-6.05-.25-9.06.27-1.43.25-3.93.78-4.06,2.61-.06.86.45,1.63.99,2.24.31.36.66.75,1.13.88.53.14,1.08-.06,1.56-.27.68-.29,1.32-.66,2-.94.31-.13.64-.26.96-.33.39-.08.73.04,1.1.14,1.39.37,2.73.9,4.07,1.39,1.54.56,3.11,1.03,4.74,1.26.43.06.85.08,1.25.23.49.19.97.45,1.44.69.78.41,1.55.85,2.29,1.32,3.45,2.15,6.77,4.51,10.14,6.77.55.37,1.07-.52.52-.89-2.86-1.92-5.7-3.84-8.57-5.75-1.26-.84-2.53-1.64-3.87-2.34-.58-.3-1.16-.6-1.77-.83-.67-.26-1.5-.23-2.21-.37-2.62-.52-5.02-1.72-7.58-2.42-.64-.18-1.19-.36-1.84-.19-.71.19-1.39.49-2.05.81-.5.24-1.04.59-1.59.69-.49.09-.76-.3-1.05-.65-.37-.44-.88-1.14-.53-1.73s1.24-.88,1.87-1.06c2.45-.7,5.14-.68,7.67-.61,1.39.04,2.87-.02,4.25.25.71.14,1.39.38,1.93.88.38.36.67.8,1.05,1.16.54.52,1.22.7,1.85,1.07,2.73,1.58,5.67,2.83,8.27,4.64,1.16.81,2.33,1.8,2.79,3.18.51,1.52.1,3.13-.28,4.63-.16.64.83.92.99.27h0Z"/>
      <path class="cls-5" d="M131.03,118.45c.07-4.93.05-9.87-.08-14.8-.02-.66-1.05-.66-1.03,0,.13,4.93.15,9.87.08,14.8,0,.66,1.02.66,1.03,0h0Z"/>
      <path class="cls-5" d="M130.52,132.9c.09-1.61.17-3.22.24-4.83.03-.66-1-.66-1.03,0-.07,1.61-.15,3.22-.24,4.83-.02.28.25.51.51.51.29,0,.5-.24.51-.51h0Z"/>
      <path class="cls-5" d="M132.51,133.08c.3-9.04.78-18.08,1.47-27.1.19-2.55.41-5.1.64-7.66.06-.66-.97-.66-1.03,0-.81,9.01-1.4,18.05-1.8,27.09-.11,2.56-.21,5.11-.3,7.67-.02.66,1.01.66,1.03,0h0Z"/>
      <path class="cls-5" d="M134.57,98.8c-.14-.64.18-1.25.48-1.8.35-.64.73-1.25.98-1.94.52-1.45.44-3.02.35-4.53-.04-.66-1.07-.66-1.03,0,.1,1.57.21,3.24-.49,4.7-.59,1.24-1.58,2.38-1.27,3.85.14.65,1.13.37.99-.27h0Z"/>
      <path class="cls-5" d="M130.77,102.94c-.87.19-.53-2.93-.57-3.38-.11-1.17-.77-1.9-1.46-2.78-1.5-1.89-2.02-4.36-1.27-6.67.2-.63-.79-.9-.99-.27-.86,2.67-.2,5.5,1.54,7.67.45.56.96,1.06,1.12,1.78s.01,1.5.02,2.23c.01,1.12.46,2.71,1.9,2.41.65-.14.37-1.13-.27-.99h0Z"/>
      <path class="cls-5" d="M132.56,98.89c.95-.74,1.15-1.96,1.06-3.09-.11-1.37-.54-2.69-1.24-3.88-.17-.28-.58-.34-.81-.1-.64.66-.44,1.74-.44,2.58v3.04c.01.66,1.04.66,1.04,0v-2.66c0-.42,0-.85-.01-1.27,0-.29-.08-.74.14-.96l-.81-.1c.58.99.98,2.1,1.09,3.25.08.92.03,1.87-.75,2.48-.22.17-.18.55,0,.73.22.22.51.17.73,0h0Z"/>
      <path class="cls-5" d="M127.68,92.05c-1.8-3.98-3.32-8.32-1.78-12.65.7-1.98,1.85-3.78,3.01-5.52,1.28-1.91,2.59-3.8,3.89-5.69.38-.55-.52-1.06-.89-.52-1.36,1.99-2.75,3.97-4.08,5.98-1.22,1.84-2.39,3.77-3.06,5.89-1.43,4.47.18,8.96,2.02,13.04.27.6,1.16.08.89-.52h0Z"/>
      <path class="cls-5" d="M136.42,94.05c.65-1.85.85-3.8,1.17-5.72s1.02-3.83,1.42-5.77.53-3.79.16-5.67c-.33-1.65-1.1-3.18-2.09-4.54-1.18-1.62-2.63-3-4.17-4.27-.51-.42-1.24.31-.73.73,1.68,1.37,3.28,2.89,4.47,4.71s1.81,3.99,1.7,6.25c-.11,2.45-.98,4.69-1.51,7.05s-.62,4.71-1.41,6.96c-.22.63.77.9.99.27h0Z"/>
      <path class="cls-5" d="M131.54,69.49c1.79,4.08,2.15,8.57,2.07,12.98-.04,2.17.02,4.47-.61,6.57-.56,1.88-1.78,3.41-3.54,4.31-.59.3-.07,1.19.52.89,1.77-.9,3.08-2.42,3.79-4.27.84-2.21.8-4.71.85-7.04.11-4.76-.27-9.54-2.21-13.94-.27-.61-1.15-.08-.89.52h0Z"/>
      <path class="cls-5" d="M130.41,70.91c2.14,7.41,1.52,15.33-1.66,22.35-.27.6.62,1.12.89.52,3.29-7.28,3.99-15.46,1.76-23.15-.18-.64-1.18-.36-.99.27h0Z"/>
      <path class="cls-5" d="M134.16,70.32c1.55,4.15,2.37,8.71,1.23,13.07-.97,3.72-3.28,6.95-6.4,9.17-.54.38-.02,1.27.52.89,3.29-2.34,5.76-5.7,6.83-9.61,1.25-4.58.46-9.42-1.18-13.79-.23-.61-1.23-.35-.99.27h0Z"/>
      <path class="cls-5" d="M129.13,71c-.88,3.34-1.35,6.8-1.33,10.26.02,2.97.37,6.02,2.21,8.46.39.52,1.29.01.89-.52-1.78-2.37-2.07-5.3-2.07-8.18,0-3.29.45-6.56,1.29-9.75.17-.64-.82-.91-.99-.27h0Z"/>
      <path class="cls-5" d="M126.79,78.22c-.44,2.27-.27,4.61.51,6.79.4,1.1.93,2.16,1.59,3.13s1.37,1.94,2.44,2.41c.6.27,1.12-.62.52-.89-.97-.43-1.61-1.34-2.18-2.21s-1.09-1.87-1.44-2.9c-.67-1.95-.84-4.03-.45-6.06.13-.65-.87-.92-.99-.27h0Z"/>
      <path class="cls-5" d="M132.03,67.96l-.49-.38c-.18-.14-.37-.34-.59-.41-.33-.11-.66.17-.74.47-.06.22.01.45.05.66.16.8.32,1.6.48,2.4.05.26.38.44.63.36.28-.09.42-.35.36-.63-.09-.47-.19-.94-.28-1.41-.05-.23-.09-.45-.14-.68-.02-.11-.05-.23-.07-.34-.01-.07-.02-.13-.04-.2,0-.05,0-.04,0,.04-.01.15-.1.25-.27.32l-.5-.13.85.66c.21.16.52.22.73,0,.17-.18.23-.55,0-.73h0Z"/>
      <path class="cls-5" d="M132.41,68.19c.8-.55,1.6-1.1,2.4-1.65l-.7-.7c-.18.35-.36.7-.55,1.06s-.37.68-.53,1.04c-.17.4-.26.83-.03,1.23.21.37.61.59,1.03.59.27,0,.53-.24.51-.51s-.23-.51-.51-.51c-.06,0-.06,0,0,0-.03,0-.06-.01-.09-.02.05.02.05.02,0,0-.05-.03-.05-.03,0,0-.02-.02-.04-.04-.06-.06.04.05.04.05,0,0-.03-.05-.03-.05,0,.01-.01-.05-.01-.05,0,0,0-.04,0-.07,0-.11,0,.05,0,.04,0-.02.02-.05.03-.1.05-.16-.02.05.06-.11.07-.13.04-.07.07-.14.11-.21.29-.56.58-1.12.87-1.68.1-.2.09-.46-.08-.62-.16-.15-.43-.21-.62-.08-.8.55-1.6,1.1-2.4,1.65-.22.15-.34.46-.18.7.14.22.47.35.7.18h0Z"/>
      <path class="cls-5" d="M135.21,109.58c.44-1.71,1.83-2.94,3.17-4.01,1.45-1.16,3-2.2,4.31-3.52,2.81-2.84,4.39-6.52,5.86-10.17l-.86.23c1.33,1.55,1.94,3.63,1.37,5.63s-2.13,3.38-3.32,4.93c-.63.81-1.13,1.66-1.53,2.61s-.77,2.01-1.45,2.83c-.6.72-1.38,1.25-2.3,1.44-1,.21-2.07.06-3.05.41s-1.62,1.2-2.2,2.08c-.77,1.16-1.53,2.33-2.3,3.5l.96.26c.11-3.15.43-6.28.97-9.39.11-.65-.88-.93-.99-.27-.56,3.19-.9,6.42-1.01,9.66-.02.54.69.67.96.26.72-1.1,1.44-2.19,2.16-3.29.67-1.03,1.26-1.84,2.56-2,1.05-.13,2.08-.07,3.07-.5.84-.36,1.54-.96,2.1-1.68.67-.87,1.03-1.91,1.46-2.91s1.04-1.94,1.74-2.81c1.29-1.6,2.8-3.16,3.26-5.23.51-2.27-.23-4.53-1.73-6.26-.28-.32-.73-.1-.86.23-1.51,3.75-3.16,7.54-6.21,10.31-2.44,2.22-6.23,3.94-7.12,7.39-.17.64.83.92.99.27h0Z"/>
      <path class="cls-5" d="M134.33,133.28c.65-.91,1.07-1.95,1.53-2.95.69-1.5,1.51-2.92,2.48-4.26l-.94-.12c.09.6.19,1.19.33,1.78s.31,1.33.77,1.76c.15.14.37.22.49.38.11.15.09.37.06.54-.05.35-.23.69-.46.96-.57.69-1.46,1.09-2.34,1.17-.65.06-.66,1.09,0,1.03,1.07-.1,2.1-.5,2.87-1.26.67-.65,1.19-1.7.91-2.65-.08-.28-.26-.5-.48-.68-.1-.08-.22-.15-.32-.23,0,0-.1-.1-.05-.05-.21-.26-.3-.65-.38-.96-.19-.68-.31-1.38-.41-2.07-.07-.49-.71-.44-.94-.12-.97,1.34-1.79,2.76-2.48,4.26-.46,1.01-.88,2.05-1.53,2.95-.39.54.51,1.05.89.52h0Z"/>
      <path class="cls-5" d="M129.71,97.02c-.61-1.02-.55-2.25-.56-3.4,0-1.34.03-2.67.1-4l-.88.36c1.09.96,1.79,2.21,2.1,3.63.36,1.67.14,3.41-.06,5.09-.08.66.95.65,1.03,0,.22-1.82.41-3.69,0-5.5-.35-1.52-1.15-2.92-2.33-3.95-.34-.3-.85-.09-.88.36-.08,1.45-.12,2.91-.1,4.36.01,1.23.05,2.48.7,3.57.34.57,1.23.05.89-.52h0Z"/>
      <path class="cls-5" d="M127.76,94.74c-.03-1.43-.08-2.9-.58-4.25-.45-1.19-1.19-2.18-2.22-2.94-.35-.26-.74.1-.77.44-.42,4.06,1.45,7.95,4.39,10.67.49.45,1.22-.28.73-.73-2.77-2.55-4.49-6.13-4.09-9.94l-.77.44c2.02,1.5,2.24,3.97,2.29,6.3.02.66,1.05.66,1.03,0h0Z"/>
      <path class="cls-5" d="M134.36,95.36c-.86-2.91,1.05-5.63,2.61-7.92l-.89-.52c-.99,1.94-1.37,3.97-1.29,6.14.04,1.02.11,2.11-.32,3.07-.37.82-1.04,1.44-1.89,1.73-.62.21-.36,1.21.27.99,1.91-.66,2.89-2.37,2.98-4.33.05-1.17-.11-2.33.02-3.5.14-1.25.54-2.47,1.11-3.58.3-.59-.52-1.07-.89-.52-1.72,2.54-3.66,5.5-2.71,8.71.19.63,1.18.36.99-.27h0Z"/>
      <path class="cls-5" d="M134.43,97.06c.9-1.15,1.81-2.3,2.71-3.45l.63-.81c.09-.12.2-.33.33-.42.06-.04.07-.1.13.02.07.14-.03.38-.08.51-.09.26-.22.52-.34.78-.25.52-.55,1.03-.92,1.47-.4.47-.87.85-1.35,1.23s-.94.73-1.31,1.2c-.32.4-.53.9-1,1.14-.59.3-.07,1.19.52.89.47-.24.76-.64,1.05-1.07s.68-.8,1.09-1.14c.92-.75,1.79-1.45,2.42-2.48.29-.48.52-.99.74-1.5.19-.45.33-.94.14-1.42-.21-.52-.82-.84-1.36-.67-.23.07-.41.24-.55.43-.23.29-.45.58-.68.86l-2.89,3.68c-.17.22-.21.51,0,.73.18.18.56.22.73,0h0Z"/>
    </g>
    <path class="cls-5" d="M85.27,121.5c-.3.06-.69.14-.7-.28,0-.31.23-.53.49-.67.64-.34,1.52-.36,2.22-.46,1.7-.24,3.41-.42,5.13-.55,3.36-.26,6.73-.36,10.1-.39.66,0,.66-1.04,0-1.03-4.44.04-8.88.19-13.29.7-1.02.12-2.05.25-3.07.41-.8.12-1.7.27-2.24.95-.37.46-.49,1.17-.22,1.71.37.73,1.14.76,1.85.61.65-.14.37-1.13-.27-.99h0Z"/>
    <path class="cls-21" d="M102.11,127.79c.06-.61-.25-1.27-.66-1.7-.34-.36-.78-.6-1.24-.74-.58-.17-1.23-.16-1.83-.12-1.19.07-2.39.29-3.51.71-.63.24-1.26.5-1.85.83-1.15.64-1.77,2.13-1.02,3.33.88,1.4,2.66,1.48,4.15,1.36s2.95-.51,4.36-1.15c.44-.2.82-.78.95-1.23.14-.49.07-1.15-.21-1.59s-.71-.83-1.23-.95c-.57-.13-1.06-.04-1.59.21-.1.05-.21.09-.31.14l.49-.21c-.8.34-1.64.56-2.5.68l.55-.07c-.75.09-1.5.1-2.26.03l.55.07c-.11-.02-.21-.04-.32-.09l.49.21c-.08-.04-.14-.07-.21-.12l.42.32-.05-.05.32.42s-.05-.07-.07-.11l.21.49v-.06c.01.18.04.36.06.55v-.07c-.02.18-.05.36-.07.55l.02-.07-.21.49.04-.07-.32.42.06-.06-.42.32c.34-.24.75-.42,1.14-.58l-.49.21c.85-.36,1.74-.6,2.66-.73l-.55.07c.59-.07,1.22-.14,1.81-.07l-.55-.07c.11.02.2.05.3.09l-.49-.21s.09.05.13.07l-.42-.32s.07.06.1.09l-.32-.42.03.05-.21-.49.02.06-.07-.55s.01.09,0,.13c-.05.49.26,1.12.6,1.46.36.36.94.63,1.46.6s1.08-.2,1.46-.6c.39-.42.55-.88.6-1.46h0Z"/>
    <g>
      <path class="cls-19" d="M90.81,112.99c.47-.81.93-.95,1.89-1.23,1.16-.35,2.55-.6,3.56-1.28.34-.16.32-.18-.05-.07.15-.02.3-.03.45-.03.14,0,.6.04.21-.02.14.02.76.27.3.04.14.07.27.15.4.23-.44-.28.03.07.13.19-.33-.39-.04-.04.01.08.21.53.03-.13.1.22.03.18.11.36.15.54.03.11.11.71.05.18.02.19.04.39.05.58.02.39.02.77,0,1.16,0,.19-.02.37-.04.56,0,.06-.09.68-.03.32s-.04.21-.05.27c-.03.14-.06.28-.08.42-.27,1.39-.05,2.92.13,4.32.22,1.68.54,3.32,1.02,4.94l1.44-2.53c-1.33.48-2.69.9-4.06,1.25-1.12.29-2.61.82-3.7.75l1.04.28-.18-.08.74.74c.09.59.11.65.06.18-.01-.16-.03-.31-.05-.47-.04-.35-.08-.7-.13-1.05-.1-.72-.21-1.43-.36-2.13-.27-1.28-.63-2.55-1.08-3.78-.47-1.3-1.03-2.58-1.67-3.8-.32-.61-.66-1.13-1.15-1.62-.11-.11-.23-.23-.33-.35.37.44-.18-.32-.24-.4l-1.23,3.02c1.61-.45,3.04-1.73,4.15-2.56-.19.14.21-.15.25-.17.15-.1.3-.19.46-.29.1-.06.57-.23.13-.07.06-.02.51-.11.2-.07s.15,0,.22.02c-.55-.15.19.22-.17-.04.39.27.51.3.92.72l-.53-.91c.57,1.72.4,3.6.95,5.34.14.44.33.86.42,1.3.1.47.19.95.28,1.43.11.57.22,1.13.33,1.7.04.23.09.45.13.68.03.17.07.34.1.51.05.29.05.23-.02-.2l.53-.91s.33-.05.37-.07c.12-.08.09.29-.02,0-.04-.1-.32-.32-.42-.52-.33-.64-.43-1.39-.55-2.1-.15-.9-.31-1.81-.49-2.7-.04-.21-.09-.39-.18-.59-.03-.08-.75-1.1-.84-.98l.45.81v-.1c.13-.12-.01-1.43.01-.95.02.33,0-.28,0-.39,0-.25,0-.5-.02-.76-.03-.61-.07-1.26-.26-1.85-.51-1.58-1.88-2.58-3.56-2.47-1.48.09-2.67,1.7-1.78,3.1.82,1.29,1.63,2.57,2.3,3.94l-.28-1.04c.03-.25-.18.41-.18.41-.42,1.03.46,2.26,1.44,2.53,1.18.32,2.11-.4,2.53-1.44.25-.62.43-1.38.25-2.05-.15-.56-.54-1.15-.82-1.66-.52-.95-1.11-1.85-1.69-2.77-.59,1.03-1.19,2.07-1.78,3.1.45-.03.39.11.07-.07-.11-.06-.52-.42-.42-.33.07.13.05.08-.06-.16.03.1.06.2.08.3.09.42.02-.38.01.11,0,.81.05,1.64.17,2.45v-1.09c-.26,1.63,0,2.98,1.45,3.93l-.95-1.23c.58,2.72.59,6.16,3.11,7.92,1.28.89,3.06,1.05,4.38.15,1.72-1.18,1.2-3.05.86-4.77-.16-.79-.31-1.59-.47-2.38-.14-.71-.38-1.34-.58-2.02-.38-1.32-.4-2.7-.62-4.04-.12-.73-.31-1.49-.81-2.06-.46-.51-1.06-.99-1.66-1.31-1.06-.56-2.28-.74-3.43-.4s-2.06,1.08-2.97,1.81c-.51.41-.47.4-.92.71-.22.15-.44.28-.67.41-.08.05-.17.09-.26.13.37-.16-.2.04-.23.05-1.24.35-1.95,1.89-1.23,3.02.41.64.94,1.16,1.38,1.76.57.77.95,1.81,1.31,2.69.79,1.96,1.36,4.04,1.64,6.14.15,1.14.04,2.38.92,3.26,1.02,1.02,2.47.63,3.71.4,2.3-.44,4.56-1.07,6.77-1.86,1.03-.37,1.77-1.4,1.44-2.53-.39-1.31-.71-2.65-.89-4.01-.09-.66-.14-1.33-.18-1.99-.02-.34-.05-.67-.05-1.01,0,.21-.02-.05,0-.17.19-1.44.45-2.83.29-4.29-.21-1.84-.83-3.62-2.42-4.72-.78-.54-1.71-.78-2.66-.85-.57-.04-1.22.01-1.77.15s-1.09.54-1.57.73c-1.03.42-2.15.6-3.18,1.02-1.4.57-2.51,1.44-3.28,2.75-1.34,2.29,2.22,4.37,3.56,2.08h0Z"/>
      <path class="cls-2" d="M88.39,112.95l-.1.38h1.99s0-.04-.01-.06l.04.27s0-.09,0-.13l-.04.27s.02-.09.04-.14l-.1.25s.05-.09.08-.13l-.16.21s.07-.08.11-.11l-.21.16s.07-.05.12-.07l-.25.1s.09-.03.13-.04l-.27.04s.02,0,.03,0c.14,0,.27-.02.4-.09.13-.04.24-.11.33-.21.1-.09.17-.2.21-.33.06-.12.09-.25.09-.4l-.04-.27c-.05-.17-.14-.33-.26-.45l-.21-.16c-.16-.09-.33-.14-.52-.14-.11,0-.22.02-.33.04-.02,0-.04,0-.06.02-.01,0-.02,0-.03.01-.09.03-.18.07-.26.11-.02,0-.04.02-.06.03-.11.07-.21.15-.3.23s-.17.2-.24.3c-.02.03-.05.07-.06.11-.04.1-.09.2-.12.3,0,.02-.01.04-.02.06-.02.11-.03.22-.05.33,0,.02,0,.04,0,.06,0,.06.01.13.02.19,0,.07.01.13.03.2l.1.25c.06.12.15.22.27.29.06.06.14.11.23.13.12.06.25.09.4.09l.27-.04.25-.1c.12-.06.22-.15.29-.27.09-.1.15-.22.18-.35l.1-.38c.04-.14.05-.27.02-.41,0-.14-.05-.26-.12-.38-.06-.12-.15-.22-.27-.29-.1-.09-.22-.15-.35-.18l-.27-.04c-.19,0-.36.05-.52.14l-.21.16c-.13.13-.22.28-.26.45h0Z"/>
      <path class="cls-2" d="M98.81,112.22c-.03.06-.06.11-.1.17l.16-.21c-.04.05-.09.1-.15.15l.21-.16c-.06.05-.12.08-.19.11l.25-.1c-.07.03-.15.05-.23.06l.27-.04c-.07,0-.14,0-.21,0l.27.04s-.09-.02-.13-.03l-.27-.04-.27.04-.25.1c-.12.06-.22.15-.29.27-.06.06-.11.14-.13.23-.05.08-.07.17-.07.26-.02.09-.02.18,0,.27,0,.14.05.26.12.38.16.22.31.43.47.65.06.12.15.22.27.29.1.09.22.15.35.18.14.04.27.05.41.02.14,0,.26-.05.38-.12.22-.14.41-.35.47-.62l.04-.27c0-.19-.05-.36-.14-.52-.16-.22-.31-.43-.47-.65l-1.16,1.51c.13.04.28.05.42.07.05,0,.1,0,.16,0,.14-.01.28-.03.41-.06s.26-.1.39-.15c.05-.02.09-.05.14-.08.11-.07.22-.16.32-.25s.18-.21.26-.32c.03-.04.06-.09.08-.14.08-.12.12-.25.12-.38.03-.14.02-.27-.02-.41-.03-.13-.09-.25-.18-.35-.07-.11-.17-.2-.29-.27-.24-.13-.53-.19-.79-.1l-.25.1c-.15.09-.28.21-.37.37h0Z"/>
      <path class="cls-2" d="M98.61,123.73l.23.03c.14.04.27.05.41.02.14,0,.26-.05.38-.12.12-.06.22-.15.29-.27.09-.1.15-.22.18-.35l.04-.27c0-.19-.05-.36-.14-.52l-.16-.21c-.13-.13-.28-.22-.45-.26l-.23-.03c-.14-.04-.27-.05-.41-.02-.14,0-.26.05-.38.12-.12.06-.22.15-.29.27-.09.1-.15.22-.18.35l-.04.27c0,.19.05.36.14.52l.16.21c.13.13.28.22.45.26h0Z"/>
      <path class="cls-2" d="M93.34,125.45s.05,0,.07-.01l-.27.04c.07,0,.14,0,.21,0l-.27-.04c.07.01.14.03.2.06l-.25-.1c.06.03.13.06.18.11l-.21-.16s.09.08.13.13l-.16-.21s.01.01.02.02l.16-1.25s-.04.04-.07.05l.21-.16c-.14.1-.29.19-.45.26l.25-.1c-.08.03-.17.06-.25.09l-.25.1c-.12.06-.22.15-.29.27-.06.06-.11.14-.13.23-.06.12-.09.25-.09.4l.04.27.1.25c.06.12.15.22.27.29.1.09.22.15.35.18.24.06.49.09.73.1s.5-.03.74-.07c.13-.03.25-.09.35-.18.11-.07.2-.17.27-.29.08-.12.12-.25.12-.38.03-.14.02-.27-.02-.41l-.1-.25c-.09-.15-.21-.28-.37-.37l-.25-.1c-.18-.05-.36-.05-.55,0-.04,0-.07.01-.11.02l.27-.04c-.19.03-.39.03-.58,0l.27.04c-.08-.01-.16-.03-.23-.05v1.99c.22-.06.44-.15.65-.26s.39-.25.57-.4l.16-.21c.08-.12.12-.25.12-.38.02-.09.02-.18,0-.27,0-.14-.05-.26-.12-.38-.07-.1-.14-.2-.23-.29s-.19-.16-.29-.24c-.13-.1-.3-.16-.45-.22-.04-.01-.08-.03-.11-.03-.12-.03-.25-.04-.38-.05-.04,0-.08,0-.13,0-.13,0-.26.03-.38.05-.13.03-.25.09-.35.18-.11.07-.2.17-.27.29-.08.12-.12.25-.12.38-.03.14-.02.27.02.41l.1.25c.09.15.21.28.37.37l.25.1c.18.05.36.05.55,0h0Z"/>
      <path class="cls-2" d="M95.28,120.53c1.32,0,1.33-2.06,0-2.06s-1.33,2.06,0,2.06h0Z"/>
      <path class="cls-2" d="M94.44,109.94c.66.16,1.36.23,2.04.19.27-.02.53-.1.73-.3.18-.18.31-.47.3-.73s-.1-.54-.3-.73-.46-.32-.73-.3c-.39.03-.78.01-1.17-.04l.27.04c-.2-.03-.4-.07-.59-.11-.26-.06-.56-.04-.79.1-.21.12-.42.37-.47.62-.06.26-.05.56.1.79.14.22.35.41.62.47h0Z"/>
      <path class="cls-5" d="M102.37,125.35c-1.26-1.53-3.9-.85-5.51-.4-2.15.61-4.12,1.69-5.82,3.14-.17.14-.2.44-.08.62.63.99,1.67,1.48,2.77,1.82,1.4.43,2.89.77,4.36.71,2.1-.09,4.79-1.26,5.19-3.58.2-1.14-.16-2.3-.39-3.4-.32-1.49-.46-3.03-.62-4.54-.32-3.09-.46-6.2-.45-9.31,0-1.09-.72-2.21-1.48-2.96-.64-.64-1.46-1.09-2.35-1.28-1.03-.22-2.01-.08-3.04.05s-2.08.25-3.11.46c-1.7.35-3.6.87-4.9,2.09s-1.31,2.8-.59,4.29c.33.68.64,1.29.86,2.02.25.84.47,1.69.7,2.54.46,1.71.93,3.42,1.39,5.13s.91,3.42,1.39,5.13c.14.48.47,1.19,1.1.88.4-.2.43-.74.12-1.04-.17-.16-.42-.2-.62-.08l-.05.03c-.57.33-.06,1.22.52.89l.05-.03-.62-.08-.08-.3.24-.31-.06.04.4-.05-.13-.05.31.24c-.33-.45-.4-1.29-.55-1.83-.17-.64-.35-1.27-.52-1.91-.35-1.27-.69-2.54-1.04-3.82s-.69-2.54-1.04-3.82c-.3-1.12-.52-2.42-1.1-3.42-.69-1.19-1.12-2.53-.02-3.62,1.05-1.04,2.66-1.48,4.05-1.8.85-.19,1.72-.34,2.59-.44s1.78-.28,2.66-.26c1.74.05,3.29,1.17,3.84,2.86.17.51.05,1.19.06,1.73,0,.69.02,1.39.04,2.08.04,1.31.12,2.61.22,3.91.19,2.41.39,4.88.93,7.25.24,1.07.62,2.32,0,3.33s-1.68,1.58-2.78,1.84c-1.36.32-2.79.1-4.13-.23-1.13-.28-2.55-.58-3.22-1.64l-.08.62c1.45-1.24,3.14-2.18,4.96-2.76.88-.28,1.8-.49,2.72-.57.79-.07,1.65-.07,2.19.59.42.51,1.14-.22.73-.73h0Z"/>
    </g>
    <g>
      <path class="cls-5" d="M85.24,287.46c-.12-1.24.92-2.07,1.93-2.6,1.25-.66,2.71-1.01,4.09-1.29,2.95-.59,5.99-.61,8.99-.63.66,0,.66-1.03,0-1.03-3.39.02-6.83.06-10.15.86-2.21.53-6.17,1.72-5.88,4.69.06.65,1.09.66,1.03,0h0Z"/>
      <path class="cls-5" d="M103.86,283.18c1.47-.2,2.95.05,4.36.46s2.82.84,4.07,1.52c.92.5,2.15,1.59,1.1,2.59-.82.79-2.1,1.08-3.16,1.36-.64.17-.37,1.16.27.99,1.28-.34,2.83-.73,3.75-1.76,1.03-1.16.52-2.63-.59-3.51-1.31-1.05-3.12-1.56-4.7-2.05-1.75-.54-3.54-.84-5.37-.59-.65.09-.38,1.08.27.99h0Z"/>
      <path class="cls-5" d="M90.24,290.11c1.3.08,2.61.14,3.89-.15,1.35-.3,2.56-.86,3.97-.92s2.7.1,4.04.22,2.79.24,4.19.36c.66.06.66-.97,0-1.03-1.36-.12-2.71-.23-4.07-.35-1.38-.12-2.77-.29-4.16-.23-1.31.05-2.46.44-3.7.81-1.36.4-2.75.34-4.16.26-.66-.04-.66.99,0,1.03h0Z"/>
      <g class="cls-15">
        <path class="cls-6" d="M81.4,224.37c1.8-6.58,3.94-13.05,6.55-19.35,1.3-3.15,2.7-6.28,4.26-9.32.79-1.53,1.62-2.99,2.53-4.45,1.6-2.57,2-1.69,4.78-.36,5.25,2.51,9.17,9.26,12.14,14.27,3.33,5.63,5.12,11.88,5.35,18.4,1.46-.84,2.93-1.68,4.39-2.52-.67-.39-1.57-1.03-2.35-1.15-2.02-.31-3.47.77-3.69,2.81-.2,1.79,4.34,6.52,5.71,7.15.13.06.29.67.44.67.66.01.36-1.46.29-1.52-.24-.23-1.87-.04-2.19-.05-2.37-.11-4.74-.35-7.1-.61-6.29-.67-12.56-1.58-18.76-2.79-3.55-.7-10.45-1.18-13.08-4.03l.46,3.54c6.15-10.91,11.79-22.14,18.75-32.58l-3.3,1.34c3.41,1.02,5.24,4.45,7.19,7.18,2.13,2.97,4.33,5.91,6.13,9.1,3.38,5.99,6.26,11.52,11.23,16.39l2.84-4.88c-6.3-2.03-12.9-3.3-19.31-4.94-3.91-1-7.83-2-11.71-3.13-1.35-.39-2.77-1.03-4.15-1.29-1.81-.35-1.24-1.65-1.22.72l-1.45,2.52c-1.64,1.12-1.42-.27-.38.51.53.4,1.63.53,2.25.79.56.23,1.5.96,2.07,1,1.52.1,3.03-3.6,1.21-3.51l2.81,3.69c2.12-6.68,4.35-13.39,7.39-19.72l-4.58.59c5.67,7.06,11.56,14.36,16,22.28.84-1.46,1.68-2.93,2.52-4.39-9.8.29-19.96-6.95-29.57-2.44,1.18,1.53,2.36,3.06,3.54,4.58,4.6-5.49,9.2-10.98,13.8-16.47-1.53-.2-3.06-.39-4.58-.59,3.47,5.93,7.1,11.48,12.96,15.28.75-1.78,1.5-3.56,2.25-5.33-5.85-1.32-11.6-2.92-17.29-4.84l.7,5.33c1.96-1.44,3.95-2.71,6.09-3.86.85-.46,1.52-1.54,1.45-2.52l-.15-2.04c-1.91.26-3.82.52-5.73.78.57,1.49.62,3,.16,4.53,1.91.26,3.82.52,5.73.78.14-2.69.18-5.37.12-8.07-.09-3.75-5.93-3.76-5.84,0,.06,2.7.03,5.38-.12,8.07-.17,3.26,5.03,4,5.73.78.58-2.66.56-4.99-.16-7.63-.84-3.08-5.98-2.59-5.73.78l.15,2.04,1.45-2.52c-2.14,1.15-4.13,2.42-6.09,3.86-2.02,1.49-1.82,4.49.7,5.33,5.68,1.91,11.44,3.52,17.29,4.84,3.24.73,5.06-3.51,2.25-5.33-4.97-3.22-7.95-8.19-10.87-13.19-.88-1.51-3.36-2.06-4.58-.59l-13.8,16.47c-2.15,2.57.48,6.02,3.54,4.58,4.15-1.95,9.93.16,14.09,1.18,4.1,1,8.28,2.18,12.54,2.05,2.22-.07,3.62-2.43,2.52-4.39-4.68-8.34-10.94-16.01-16.92-23.46-1.13-1.41-3.82-.99-4.58.59-3.26,6.78-5.71,13.95-7.97,21.11-.55,1.75.96,3.78,2.81,3.69,2.46-.12,5.4-1.34,4.57-4.41-.61-2.25-3.45-3.35-5.36-4.16-1.78-.76-4.5-2.1-6.51-1.47-3.01.95-2.53,4.08-.64,5.79,4.27,3.86,12.87,4.66,18.18,6.02,6.93,1.78,14.08,3.15,20.9,5.34,2.81.9,4.88-2.89,2.84-4.88-6.24-6.1-9.15-14.02-14.11-21.04-3.52-4.97-6.81-11.27-13.01-13.13-1.29-.39-2.59.28-3.3,1.34-6.96,10.43-12.6,21.67-18.75,32.58-.66,1.17-.44,2.57.46,3.54,3.62,3.91,11.3,4.69,16.18,5.63,7.56,1.46,15.24,2.52,22.91,3.21,3.52.32,10.57,1.68,11.65-3.18.5-2.27-.99-4.33-2.35-5.97-.82-.99-1.75-1.89-2.68-2.79-.32-.31-.75-.91-1.14-1.07-1.17-.48.44-1.85.1,1.22-1.23.94-2.46,1.88-3.69,2.81-.93-.14.58.35.96.57,1.86,1.09,4.47-.29,4.39-2.52-.29-8.08-2.61-15.89-6.99-22.72-1.21-1.89-2.67-3.58-3.97-5.41-1.27-1.79-2.13-3.95-3.53-5.63-2.19-2.63-5.7-3.95-8.76-5.26-2.83-1.21-5.01-1.83-7.38.45-3.01,2.89-4.86,7.27-6.6,10.97-4.06,8.65-7.31,17.64-9.84,26.85-.99,3.63,4.64,5.18,5.63,1.55h0Z"/>
      </g>
      <g class="cls-16">
        <path class="cls-6" d="M86.3,126.11c7.34,1.85,14.92,1.45,21.89-1.51-1.33-1.33-2.66-2.66-3.99-3.99-2.92,3.87-5.16,7.43-5.34,12.38-.22,5.71.38,11.44.23,17.16-.16,6.13-.58,12.26-.45,18.39.11,4.87,2.2,11.18.97,15.86.94-.71,1.88-1.43,2.81-2.14-6-.54-5.75-6.01-5.02-10.71.67-4.32,1.39-8.46,1.01-12.85-.4-4.71-.98-9.29-1.03-14.04s-.07-9.24-1.47-13.63c-.15-.55-.34-1.09-.58-1.61-.3-1.01-.41-1.07-.32-.17.58.6,1.2,1.88,1.44,2.73.55,2-.09,5.06-.13,7.14-.09,4.9-.19,9.8-.14,14.71.11,9.74.77,19.46,1.36,29.18,1.91-.26,3.82-.52,5.73-.78-3.82-10.82-3.75-21.26-3.77-32.59-.02-10.35-.04-20.56-8.57-27.75-1.18,1.53-2.36,3.06-3.54,4.58,5.87,2.69,12.26,2.97,17.48-1.15,2.95-2.33-1.21-6.43-4.13-4.13-2.93,2.32-7.26,1.69-10.41.24-2.76-1.27-6.27,2.28-3.54,4.58,9.02,7.6,6.89,20.85,6.84,31.47-.04,9.14.95,17.64,4,26.3,1.03,2.92,5.94,2.71,5.73-.78-.87-14.36-1.5-28.61-1.24-43,.08-4.26,1.84-11.68-2.3-14.64-2.76-1.97-9.03-2.3-10.61,1.39-.86,2.02.46,3.94,1.06,5.82,1.16,3.63,1.21,7.43,1.25,11.2.08,7.11,1.76,14.43.96,21.49-.62,5.5-2.62,11.2-.23,16.55,1.95,4.36,5.61,5.88,10.16,6.28,1.25.11,2.51-.98,2.81-2.14,1.08-4.09-.08-7.49-.46-11.63-.57-6.1-.29-12.25-.06-18.35.22-5.7.35-11.37.1-17.06-.12-2.64-.54-5.66.11-8.25s2.7-4.96,4.31-7.09c2-2.64-1.7-4.97-3.99-3.99-5.44,2.31-11.73,2.35-17.4.92-3.64-.92-5.2,4.71-1.55,5.63h0Z"/>
      </g>
      <g class="cls-15">
        <path class="cls-20" d="M75.15,241.86c-.05,8.99.51,17.94,1.71,26.85.57,4.21,1.26,8.4,2.11,12.56.65,3.2.99,7.31,3.32,9.83,4.42,4.76,13.4,4.15,19.14,3.4,3.33-.43,7.02-.65,9.78-2.74,2.42-1.83,3.79-4.8,5.18-7.43,5.91-11.17,8.79-23.01,10.23-35.51.67-5.87,1.9-14-.34-19.67-1.41-3.59-6.67-4.94-9.89-6.39-3.43-1.54-9.66-4.53-11.2,1.21-.59,2.18.55,4.04,1.91,5.61.64.74,1.37,1.45,2.08,2.11.44.41,1.3,2.02,1.14.95l.45-3.44-.13.21,2.67-2.05c-4.52,1.45-13-1.97-17.25-3.57s-8.08-5.11-12.9-5.6c-3.66-.37-7.98.95-9.15,4.79-.84,2.77-.02,6.64-.16,8.89-.25,4.08-.33,7.64,3.96,9.74,4.63,2.26,11.44,1.51,16.39,1.1,5.91-.49,11.82-1.14,17.69-1.97,4.89-.69,9.72-1.71,13.04-5.67,2.01-2.39,1.51-5.18-.9-7.01-8.73-6.62-19.31-11.26-30.44-10.75-4.84.22-16.99-.66-19.35,4.82-1.38,3.21.99,5.85,3.16,7.93.95.92,2.97,2.51,3.31,3.05.63,1.02,1.16,3.19,2.85,4.43,4.38,3.2,11.84-.28,16.67-.74,6.96-.66,13.97-.27,20.83,1.03-1.04-1.83-2.08-3.66-3.12-5.49-2.55,7.27-5.1,14.54-7.66,21.81-2.29,6.51-4.09,13.63-7.59,19.62-1.02,1.75-3.72,6.04-6.2,5.74-2.78-.34-3.05-7.61-3.23-9.6-.66-7.2-2.26-15.76-1.32-22.91l-2.21,3.85c5.53-3.89,18.13-7.36,24.38-3.76-.68-.89-1.37-1.78-2.05-2.67-.12-.38-5.34,7.38-5.63,7.95-1.39,2.78-2.56,5.7-3.45,8.68-.97,3.26-1.54,6.64-1.84,10.03-.17,1.91-.23,3.81-.16,5.73l.09,1.64c-.34,1.42.27,2.05,1.85,1.91.11-.45-1.92-4.3-2.12-4.93-.5-1.57-.83-3.19-1.14-4.81-.72-3.72-1.07-7.51-1.8-11.23-1.24-6.34-3.55-12.18-8.08-16.88-.66,2.49-1.31,4.97-1.97,7.46,4.62-1.01,8.72-.62,13.16.92l-2.67-6.56c-4.23,9.97-5.53,20.06-3.94,30.78,2.87-.79,5.74-1.58,8.61-2.37-.72-3.74-1.17-7.49-1.41-11.29-.21-3.21-.96-7.24-.42-10.4l-2.05,2.67c-1.06.09-1.05.12.04.08.83,0,1.66-.02,2.49-.02,1.66-.02,3.32-.03,4.98-.05-1.43-1.88-2.87-3.77-4.3-5.65-.76,5.3-2.03,10.43-3.84,15.47,2.87.79,5.74,1.58,8.61,2.37.82-5.5,2.17-10.81,4.07-16.04,1.97-5.41-6.65-7.74-8.61-2.37-1.9,5.23-3.25,10.54-4.07,16.04-.84,5.61,6.63,7.89,8.61,2.37,1.81-5.05,3.08-10.17,3.84-15.47.4-2.79-1.11-5.68-4.3-5.65-5.1.05-13.39-1.55-14.3,5.39-1.03,7.86.58,17.18,2.07,24.91,1.1,5.72,9.43,3.19,8.61-2.37-1.2-8.08-.15-16.38,3.04-23.9,1.17-2.75.31-5.52-2.67-6.56-5.91-2.05-11.82-2.25-17.91-.92-3.38.74-4.19,5.15-1.97,7.46,6.35,6.58,6.02,16.56,7.75,24.97,1.21,5.92,5.1,18.75,13.71,15.36,7.91-3.11,4.38-14.53,5.54-20.95.8-4.46,2.27-8.81,4.44-12.78,1.82-3.33,5.79-6.71,6.16-10.59.83-8.74-13.11-8.29-18.59-7.51-6.27.89-19.36,3.03-19.63,11.08-.17,4.9.69,10.06,1.03,14.95s.45,10.23,1.78,15.12c1.87,6.89,7.47,12.47,14.9,9.26,7.72-3.33,11.35-11.59,14.04-18.99,4.1-11.3,7.97-22.7,11.96-34.04.75-2.15-.86-5.06-3.12-5.49-9.93-1.88-19.89-2.15-29.88-.5-1.16.19-2.51.3-3.62.69-1.95.68-1.62-.2-.72,1.14-.63-.94-.9-2.04-1.63-2.98-.81-1.06-1.82-1.94-2.79-2.84-.42-.4-.92-1.01-1.42-1.3-1.27-.73-.4-1.68-.59.42l-1.31,3.16c-1.4,1.36-.93.56.87.24,1.38-.25,2.79-.36,4.19-.49,2.63-.25,5.27-.49,7.91-.57,9.32-.27,17.84,4.08,25.09,9.58-.3-2.34-.6-4.67-.9-7.01-3.24,3.85-10.22,3.55-14.84,4.06-5.77.64-11.67,1.5-17.49,1.24-.95-.04-3.3.15-4.03-.4.18.14.48.98.33-.4s.05-3.12.02-4.55c-.02-.82.13-1.79-.02-2.6-.37-1.91-.52.5-.01,1.03,1.08,1.15,4.79,2.31,6.3,3.12,4.32,2.32,9.19,3.64,13.93,4.81,3.86.95,10.24,2.67,13.94.46,2.75-1.64,2.75-4.99,1.18-7.41-.67-1.02-1.58-1.86-2.43-2.73-.5-.51-1.85-2.41-1.69-1.42l-.45,3.44.13-.18c-.89.68-1.78,1.37-2.67,2.05-1.68.37-2.14-.48-.64.43,1.24.74,2.75,1.23,4.05,1.83,1.84.85,3.73,1.66,5.5,2.65l-2.05-2.67c1.36,3.38.83,8.67.53,12.22-.4,4.79-1,9.57-1.92,14.29-1.53,7.87-4.13,15.31-7.92,22.37-.71,1.33-1.55,3.66-2.85,4.43-1.76,1.04-5.94,1.01-7.8,1.13-2.15.14-6.07.64-7.86-.67-1.95-1.42-2.02-5.07-2.47-7.34-2.37-11.9-3.38-23.97-3.31-36.1.03-5.74-8.89-5.75-8.93,0h0Z"/>
      </g>
      <g>
        <path class="cls-5" d="M84.91,123.69c6.22,4.58,7.23,13.24,7.48,20.35.3,8.59.38,17.2.56,25.79.1,4.91.21,9.81.31,14.72.01.66,1.04.66,1.03,0-.19-8.9-.38-17.79-.56-26.69-.09-4.45-.15-8.9-.29-13.34-.13-4.09-.42-8.25-1.66-12.17-1.17-3.7-3.17-7.22-6.34-9.55-.53-.39-1.05.5-.52.89h0Z"/>
        <path class="cls-5" d="M108.91,119.12c-2.93-.18-4.13,3.16-4.86,5.43-.55,1.7-.94,3.37-1.01,5.15-.08,2.27,0,4.55.02,6.82.06,10.21.18,20.41.36,30.61.1,5.75.22,11.49.36,17.24.02.66,1.05.66,1.03,0-.24-9.83-.43-19.66-.55-29.49-.06-4.87-.11-9.75-.15-14.62-.02-2.45-.03-4.9-.04-7.36-.01-1.9-.1-3.82.29-5.7.31-1.49.8-3.07,1.44-4.45.59-1.3,1.51-2.72,3.11-2.62.66.04.66-.99,0-1.03h0Z"/>
        <path class="cls-5" d="M103.31,184.98c2.08,3.57,4.61,6.83,7.04,10.16,2.37,3.23,4.56,6.56,6.4,10.12,3.6,6.98,5.98,14.55,7.3,22.28,1.37,8.03,1.56,16.23.75,24.33-.84,8.35-2.75,16.58-5.48,24.51-1.34,3.91-2.84,7.8-4.63,11.53-.42.87-.91,1.77-1.74,2.31s-1.82.71-2.78.81c-2.18.22-4.37.34-6.55.46s-4.54.19-6.81.23c-2.19.03-4.41.11-6.59-.07-1.89-.16-3.66-.75-5.12-2-1.29-1.11-2.28-2.52-3.08-4.01-1.81-3.39-2.82-7.24-3.67-10.97-.95-4.17-1.56-8.42-1.95-12.68-.78-8.49-.75-17.04-.74-25.55,0-4.41.08-8.82.54-13.21s1.31-8.32,2.63-12.33c2.53-7.65,6.51-14.71,10.72-21.55,1.04-1.68,2.09-3.35,3.14-5.02.35-.56-.54-1.08-.89-.52-4.4,6.96-8.79,13.98-12,21.59-1.62,3.84-2.93,7.81-3.75,11.9-.88,4.36-1.22,8.8-1.35,13.24s-.08,8.9-.05,13.34c.03,4.41.11,8.82.36,13.22.49,8.49,1.57,17.18,4.46,25.23,1.14,3.17,2.72,6.45,5.48,8.51,1.51,1.13,3.29,1.65,5.15,1.82,2.26.21,4.56.12,6.82.08,4.53-.07,9.13-.17,13.63-.72,1.88-.23,3.44-.91,4.46-2.57,1.08-1.74,1.8-3.78,2.58-5.66,3.27-7.88,5.74-16.1,7.2-24.5,1.44-8.3,1.9-16.79,1.13-25.18-.74-8.05-2.56-16.03-5.62-23.52-1.5-3.68-3.3-7.25-5.41-10.62-2.23-3.56-4.85-6.85-7.29-10.27-1.21-1.7-2.37-3.43-3.42-5.23-.33-.57-1.22-.05-.89.52h0Z"/>
        <path class="cls-5" d="M83.87,121.62c4.11.25,8.24.5,12.36.22,4.11-.28,8.13-1.14,12.08-2.3.63-.18.36-1.18-.27-.99-3.92,1.14-7.9,2.01-11.98,2.27s-8.13.01-12.18-.23c-.66-.04-.66.99,0,1.03h0Z"/>
      </g>
    </g>
    <g>
      <rect class="cls-11" x="23.46" y="308.83" width="169.08" height="26.58"/>
      <path class="cls-5" d="M192.04,309.33v25.58H23.96v-25.58h168.08M193.04,308.33H22.96v27.58h170.08v-27.58h0Z"/>
    </g>
    <path class="cls-5" d="M191.04,26.13v307.77H24.96V26.13h166.08M193.04,24.13H22.96v311.77h170.08V24.13h0Z"/>
    <path class="cls-5" d="M37.44,311.69c-3.7-.13-4.68,5.35-4.93,8.07-.32,3.49.64,7.25,3.64,9.35,1.43,1,3.21,1.42,4.84.68,1.44-.66,2.6-1.94,3.42-3.26,1.75-2.82,2.1-6.47.8-9.54-1.38-3.24-4.43-5.68-7.91-6.26-1.26-.21-1.8,1.72-.53,1.93,5,.84,8.32,5.77,6.88,10.71-.58,1.99-2.57,5.43-5.09,4.73s-3.92-3.66-4.09-6.14c-.11-1.7.11-3.42.59-5.05.32-1.08.93-3.25,2.38-3.2,1.29.05,1.29-1.95,0-2h0Z"/>
    <path class="cls-5" d="M40.79,324.54c1.7,1.43,3.4,2.86,5.1,4.3.4.34,1.03.42,1.41,0,.34-.37.43-1.05,0-1.41-1.7-1.43-3.4-2.86-5.1-4.3-.4-.34-1.03-.42-1.41,0-.34.37-.43,1.05,0,1.41h0Z"/>
    <path class="cls-5" d="M50.33,320.23c-.12,1.55-.12,3.11.03,4.66.13,1.41.24,3.05,1.53,3.93,1.05.72,2.56.59,3.6-.09,1.18-.77,1.81-2.09,2.2-3.4.49-1.65.74-3.39.83-5.1.03-.54-.48-1-1-1-.57,0-.97.46-1,1-.07,1.24-.24,2.47-.53,3.68-.13.55-.28,1.1-.48,1.63-.13.34-.41.86-.65,1.12-.19.21-.28.29-.42.37-.1.06-.21.12-.32.17.12-.05-.15.04-.2.05-.05.01-.34.05-.18.04-.1,0-.2,0-.3,0-.03,0-.19-.02-.03,0-.05,0-.1-.02-.14-.03-.06-.02-.3-.12-.17-.05-.06-.03-.11-.06-.17-.1.02.01.1.08.01,0-.08-.07-.09-.08-.13-.13-.15-.21-.18-.34-.25-.61-.14-.54-.18-1.08-.23-1.64-.13-1.5-.14-3.01-.02-4.51.04-.54-.49-1-1-1-.58,0-.96.46-1,1h0Z"/>
    <path class="cls-5" d="M62.18,324.82c2.16.16,5.06.15,6.22-2.08s-1.09-4.36-3.35-4.13c-2.34.24-3.79,2.05-4.6,4.11s-1.32,4.52.18,6.28c1.74,2.05,5.11,1.68,7.2.47,1.11-.64.11-2.37-1.01-1.73-1.22.7-2.97,1.06-4.25.3s-.91-2.53-.56-3.73c.39-1.32,1-2.88,2.33-3.49.52-.24,1.12-.32,1.64-.15.41.13.85.52.73.93-.2.69-1.01,1.02-1.65,1.16-.94.22-1.94.12-2.89.05-.54-.04-1,.49-1,1,0,.57.46.96,1,1h0Z"/>
    <path class="cls-5" d="M71.34,324.93c2.15.72,4.76-.3,5.62-2.46.42-1.06.26-2.33-.54-3.17-.87-.91-2.2-.96-3.29-.43-1.91.92-2.65,3.06-2.89,5.02-.12.95-.15,1.93-.12,2.89.05,1.21.42,2.28,1.42,3.01s2.22.87,3.37.63c1.32-.27,2.43-1.09,3.46-1.91.42-.34.35-1.06,0-1.41-.42-.42-.99-.34-1.41,0-1.04.83-2.37,1.75-3.76,1.32s-1.11-2.11-1.06-3.26c.05-1.24.2-2.62.94-3.67.31-.44.8-.89,1.35-.97.5-.07.81.36.77.84-.11,1.54-2.1,2.05-3.32,1.64-1.22-.41-1.75,1.52-.53,1.93h0Z"/>
    <path class="cls-5" d="M82.61,328.28c-.37-2.31.3-4.81,1.74-6.65.29-.37.65-.81,1.1-.91.35-.07.78.06,1.15.3.93.6,1.19,1.91,1.33,2.93.24,1.66.24,3.36.08,5.02-.05.54.5,1,1,1,.58,0,.95-.46,1-1,.17-1.83.12-3.66-.15-5.48-.22-1.57-.77-3.13-2.1-4.09-1.34-.97-3.1-.9-4.31.23-1.1,1.03-1.88,2.5-2.37,3.91-.58,1.7-.69,3.5-.41,5.27.08.53.75.83,1.23.7.57-.16.78-.69.7-1.23h0Z"/>
    <path class="cls-5" d="M103.68,320.26c-2.51-1.23-3.76,2.18-4.1,4.03-.19,1.04-.31,2.19-.03,3.22s1.05,1.82,2.07,2.19c.82.3,1.76.33,2.63.33,1.19,0,2.2-.39,2.9-1.38.59-.83.89-1.88,1.03-2.88.15-1.07.24-2.24-.07-3.29-.6-2.04-2.95-3.3-4.97-2.59-.51.18-.85.68-.7,1.23.14.49.72.88,1.23.7.89-.31,1.9.01,2.39.87.06.11.07.11.13.32.04.14.08.29.09.43.05.38.03.76.02,1.14-.03.74-.15,1.47-.41,2.17-.19.52-.45,1.06-.98,1.21s-1.3.07-1.89,0c-.44-.05-1.03-.19-1.32-.51-.35-.4-.33-1.11-.3-1.67.04-.84.22-1.67.51-2.46.13-.37.29-.75.51-1.07.05-.07.14-.16.2-.21.05-.04.16-.01.05-.06.48.24,1.08.13,1.37-.36.26-.44.13-1.13-.36-1.37h0Z"/>
    <path class="cls-5" d="M116.76,316.97c.3-2.09-1.01-4.69-3.49-4.19-2.71.54-3.37,3.88-3.5,6.2-.17,2.95,1.02,5.46,1.67,8.26.18.76.32,1.55.36,2.33.02.37.08,1.02-.24,1.28-.41.33-.97-.2-1.17-.52-.34-.56-.39-1.27-.46-1.9-.13-1.27-2.14-1.28-2,0,.22,2.04,1.13,4.95,3.8,4.47,2.69-.48,2.11-3.97,1.71-5.86-.61-2.86-1.92-5.39-1.65-8.4.1-1.13.33-3.1,1.46-3.74,1.05-.59,1.72.6,1.58,1.54-.18,1.26,1.75,1.8,1.93.53h0Z"/>
    <path class="cls-5" d="M108.99,323.72c1.93-.69,3.93-1.18,5.97-1.46.52-.07.85-.76.7-1.23-.18-.57-.67-.78-1.23-.7-2.03.28-4.03.77-5.97,1.46-.49.18-.87.69-.7,1.23.16.48.7.89,1.23.7h0Z"/>
    <path class="cls-5" d="M126.34,314.12c.49,1.13.45,2.46.43,3.66-.02,1.4-.13,2.8-.2,4.2s-.12,2.69-.02,4.04c.08,1.17.14,2.46,1,3.35.9.93,2.31-.49,1.41-1.41-.34-.35-.33-1.03-.38-1.5-.06-.67-.09-1.34-.09-2.01,0-1.3.08-2.6.16-3.9.14-2.45.42-5.11-.59-7.42-.51-1.18-2.24-.16-1.73,1.01h0Z"/>
    <path class="cls-5" d="M127.26,314.52c2.22.06,4.44.03,6.66-.11.52-.03,1.03-.44,1-1-.02-.51-.44-1.03-1-1-2.22.14-4.44.17-6.66.11-.52-.02-1.02.47-1,1s.44.98,1,1h0Z"/>
    <path class="cls-5" d="M128.02,320.92h3.2c.52,0,1.02-.46,1-1s-.44-1-1-1h-3.2c-.52,0-1.02.46-1,1s.44,1,1,1h0Z"/>
    <path class="cls-5" d="M137.24,314.17c1.45,2.45.6,5.57.44,8.24-.1,1.58-.08,3.16.04,4.74.1,1.29.23,2.53,1.56,3.07.5.21,1.09-.23,1.23-.7.16-.57-.2-1.02-.7-1.23.15.06,0-.31-.02-.41-.07-.38-.07-.79-.1-1.18-.05-.69-.07-1.38-.07-2.07,0-1.39.09-2.77.23-4.15.25-2.49.45-5.08-.88-7.32-.66-1.11-2.39-.1-1.73,1.01h0Z"/>
    <path class="cls-5" d="M146.19,322.6c-1.79-.55-3.59.63-4.35,2.22-.4.84-.61,1.73-.71,2.64s0,1.82.53,2.55c.5.69,1.25,1.11,2.07,1.32s1.76.32,2.58.16c1.78-.35,2.8-2.34,2.86-4.01.07-1.93-1.12-3.71-2.75-4.66-1.11-.65-2.12,1.08-1.01,1.73.91.53,1.55,1.33,1.74,2.41.03.17,0-.13,0,.05,0,.07.01.14.01.21,0,.14,0,.28,0,.42,0,.02-.03.24-.01.13s-.02.11-.03.13c-.03.16-.08.3-.13.46-.11.34-.47.88-.81,1.07-.23.13-.33.14-.62.14-.16,0-.31-.01-.47-.02-.07,0-.13-.01-.2-.02-.02,0-.28-.04-.17-.02-.1-.01-.46-.09-.65-.15-.04-.01-.37-.15-.22-.07-.14-.07-.29-.14-.41-.24.14.11-.12-.13-.15-.16.04.04.07.13-.02-.03-.04-.07-.08-.13-.11-.2.03.07-.06-.25-.07-.3,0,.05,0,.15,0-.07,0-.1,0-.19,0-.29,0-.57.12-1.1.31-1.71.11-.35.18-.52.38-.84.1-.16.13-.21.21-.3.05-.05.09-.1.14-.15,0,0,.22-.2.12-.12.12-.1.27-.18.41-.25.15-.08-.11.04.05-.03.08-.03.17-.06.25-.08.07-.02.14-.03.2-.04-.17.03.14,0,.15,0,.02,0,.2.01.04,0,.1.01.2.05.3.08.52.16,1.09-.19,1.23-.7.15-.54-.18-1.07-.7-1.23h0Z"/>
    <path class="cls-5" d="M149.42,323.16c1.35,1.77,2.23,3.87,2.44,6.1.08.84,1.04,1.34,1.71.71.47-.45.93-.89,1.4-1.34l.66-.64.3-.28.22-.21c.11-.1.1-.1-.04.02h-.53l.11.03-.44-.26c-.08-.19-.09-.2-.04-.03.02.11.05.23.08.34.07.25.16.49.26.73.17.39.4.76.71,1.05.67.64,1.71.9,2.57.53.91-.39,1.23-1.34,1.62-2.17.47-1,.93-1.99,1.4-2.99.23-.49.14-1.08-.36-1.37-.43-.25-1.14-.13-1.37.36-.56,1.19-1.11,2.38-1.67,3.57-.11.23-.23.82-.57.77s-.51-.51-.61-.77c-.17-.49-.19-1.02-.59-1.4-.51-.51-1.26-.43-1.79.01-.96.81-1.84,1.76-2.75,2.63l1.71.71c-.24-2.58-1.14-5.04-2.72-7.11-.33-.43-.86-.65-1.37-.36-.42.25-.69.94-.36,1.37h0Z"/>
    <path class="cls-5" d="M165.14,326.51c1.2.16,2.39.13,3.58-.06.94-.14,1.89-.39,2.63-1.03.82-.7,1.05-1.85.56-2.81-.54-1.05-1.65-1.48-2.76-1.61s-2.21-.15-3.18.35c-.92.47-1.53,1.37-1.91,2.3-.68,1.7-.43,3.77.54,5.31,1.14,1.81,3.73,3.3,5.75,1.91.44-.31.65-.88.36-1.37-.26-.44-.92-.67-1.37-.36-.48.33-.9.32-1.48.12-.52-.18-1.02-.6-1.35-1.04-.36-.46-.58-.96-.72-1.55-.12-.51-.15-1.19-.05-1.67.12-.59.33-1.11.71-1.52.43-.46.89-.55,1.6-.54.57,0,1.4-.02,1.85.32.12.09.17.15.23.26.1.18.06.12.04.08.13.22.01.12.01.08,0-.12,0,.02,0,.05-.11.28.06-.08-.03.07-.09.14.09-.09-.02.03-.06.06-.12.12-.18.17.11-.08-.04.01-.05.02-.09.05-.18.11-.28.15.04-.02.14-.05-.06.02-.1.04-.2.07-.31.1-.35.1-.72.17-1.09.22-1,.14-2.02.11-3.02-.02-.54-.07-1,.51-1,1,0,.6.46.93,1,1h0Z"/>
    <path class="cls-5" d="M185.87,321.72c.38-.83.19-1.75-.59-2.28-.66-.45-1.5-.45-2.26-.33-1.48.23-2.85,1.26-3.44,2.63s-.39,3.16.9,4.08c.57.41,1.33.45,1.86.91.41.35.68.88.62,1.42-.12,1.15-1.66,1.86-2.38.76s-2.43-.08-1.73,1.01c.77,1.2,2.27,1.82,3.67,1.41,1.42-.41,2.4-1.8,2.44-3.25s-.88-2.81-2.15-3.4c-.51-.23-1.25-.29-1.49-.88-.18-.44-.1-.97.11-1.38.27-.54.76-.96,1.31-1.19.28-.12.59-.19.89-.2.09,0,.39.07.47.04,0,0,.03.02.03.02-.12.04.04-.51-.02-.38-.23.49-.14,1.08.36,1.37.43.25,1.14.13,1.37-.36h0Z"/>
    <path class="cls-5" d="M174.85,328.76c-.08-1.41-.02-2.84.32-4.21.04-.14.07-.28.12-.42.02-.07.05-.14.07-.2.02-.06.03-.07,0,0l.05-.1c.07-.13.13-.25.21-.37.01-.02.1-.13.04-.05.05-.06.11-.12.17-.18.01-.01.15-.12.09-.08s.09-.05.11-.06c.05-.03.2-.1.07-.05.06-.02.12-.04.19-.06.07-.02.13-.03.02-.02.06,0,.13,0,.19,0,.26,0-.07-.03.07,0,.08.02.15.05.23.08.49.2,1.12-.21,1.23-.7.13-.58-.18-1.02-.7-1.23-.79-.32-1.75-.13-2.44.33-.74.5-1.2,1.23-1.5,2.06s-.39,1.68-.48,2.53c-.1.91-.12,1.82-.06,2.73.03.52.44,1.03,1,1,.52-.02,1.03-.44,1-1h0Z"/>
    <path class="cls-11" d="M8.79,9.92v340.16h198.43V9.92H8.79ZM193.04,335.91H22.96V24.09h170.08v311.81Z"/>
    <path class="cls-11" d="M-19.56-18.43v396.85l255.12-1.37V-18.43H-19.56ZM193.04,335.91H22.96V24.09h170.08v311.81Z"/>
  </g>
</svg>