<?xml version="1.0" encoding="UTF-8"?>
<svg id="boarder" xmlns="http://www.w3.org/2000/svg" xmlns:xlink="http://www.w3.org/1999/xlink" viewBox="0 0 216 360">
  <defs>
    <style>
      .cls-1 {
        fill: none;
      }

      .cls-2 {
        fill: #76a8c9;
      }

      .cls-3 {
        fill: #a74745;
      }

      .cls-4 {
        fill: #c49a6c;
      }

      .cls-5 {
        fill: #d1d3d4;
      }

      .cls-6 {
        fill: #5e3a39;
      }

      .cls-7 {
        fill: #88aa6f;
      }

      .cls-8 {
        fill: #fbcd8f;
      }

      .cls-9 {
        fill: #231f20;
      }

      .cls-10 {
        fill: #965c5b;
      }

      .cls-11 {
        fill: #6d6e71;
      }

      .cls-12 {
        fill: #f2ee80;
      }

      .cls-13 {
        fill: #5c5b5a;
      }

      .cls-14 {
        fill: #8f8d8a;
      }

      .cls-15 {
        fill: #8b5e3c;
      }

      .cls-16 {
        clip-path: url(#clippath-1);
      }

      .cls-17 {
        fill: #b65452;
      }

      .cls-18 {
        fill: #fff;
      }

      .cls-19 {
        fill: #3287be;
      }

      .cls-20 {
        fill: #a38f74;
      }

      .cls-21 {
        fill: #c56664;
      }

      .cls-22 {
        fill: #668a4b;
      }

      .cls-23 {
        fill: #a6875e;
      }

      .cls-24 {
        fill: #923735;
      }

      .cls-25 {
        clip-path: url(#clippath);
      }

      .cls-26 {
        fill: #754c29;
      }

      .cls-27 {
        fill: #6c3735;
      }
    </style>
    <clipPath id="clippath">
      <path class="cls-1" d="M0,15.06v329.88c0,8.32,6.94,15.06,15.49,15.06h185.02c8.56,0,15.49-6.74,15.49-15.06V15.06c0-8.32-6.94-15.06-15.49-15.06H15.49C6.94,0,0,6.74,0,15.06Z"/>
    </clipPath>
    <clipPath id="clippath-1">
      <path class="cls-1" d="M283.46,15.06v329.88c0,8.32,6.94,15.06,15.49,15.06h185.02c8.56,0,15.49-6.74,15.49-15.06V15.06c0-8.32-6.94-15.06-15.49-15.06h-185.02c-8.56,0-15.49,6.74-15.49,15.06Z"/>
    </clipPath>
  </defs>
  <g class="cls-25">
    <path class="cls-14" d="M72.54,112c22.63.01,45.26.02,67.89.03-3.89-6.77-7.77-13.54-11.66-20.31-6.01,10.18-6.73,21.7-6.9,33.24-.18,12.48-.66,24.95-1.12,37.42-.92,24.9-1.57,49.85,1.1,74.67l17.09-13.02c-23.86-5.75-48.45-6.88-72.88-7.78,4.34,5.7,8.68,11.39,13.02,17.09,5.8-21.01,9.49-42.6,11.1-64.33,1.52-20.56,1.87-42.42-5.62-61.96-4.34,5.7-8.68,11.39-13.02,17.09,10.93-1.34,21.82-1.04,32.49,1.73,1.47.38,2.93.8,4.37,1.25,1.03.33,1.82.52,1.79.58-.33.6-2.76-4.72-2.71-4.7.32.12-.09,4.4-.1,4.79-.17,6.33-.34,12.66-.51,18.99-.33,12.33-.67,24.66-1,36.99-.17,6.33-.34,12.66-.51,18.99-.09,3.33-.18,6.66-.27,10-.04,1.33-.07,2.67-.11,4l-.08,3c-.06,1.59-.03,1.33.09-.78,1.16-1.99,2.31-3.97,3.47-5.96l-.77.71c1.99-1.16,3.97-2.31,5.96-3.47-1.36.43-1.37.48-.04.17-1.01.08-2.02.13-3.03.15-2.05.02-2.91.41-3.77-.41,2.58,2.45,1.07-1.2.96-3.33-.5-9.35.65-18.61,2.23-27.81,3.43-19.87,10.12-42.16.25-61.16-.7,5.45-1.41,10.91-2.11,16.36l.78-.68-5.96,3.47-6.41-.51c-1.61-1.61-3.23-3.23-4.84-4.84-1.15-1.63.34.88.2.08.31,1.77.39,3.69.53,5.48.28,3.66.38,7.33.38,11,0,17.37,27,17.4,27,0,0-8.26.16-18.03-2.66-25.86-4.4-12.21-18.46-15.64-28.12-7.23-4.65,4.04-4.75,11.29-2.11,16.36,3.07,5.9,1.31,15.41.11,22.85-1.73,10.73-3.9,21.37-5.27,32.15-1.28,10.12-2.19,21.25.42,31.24,3.18,12.17,13.25,18.86,25.36,19.75,4.29.32,9.18.08,13.27-1.2,7.66-2.4,10.67-9.12,11.07-16.54.59-10.97.6-22,.89-32.99s.58-21.33.87-31.99,1.66-22.59.67-33.55c-1.31-14.47-14.21-19.54-26.65-22.25-11.87-2.58-24.07-3.33-36.13-1.85-7.78.95-16.51,7.99-13.02,17.09,6.71,17.49,6.02,36.33,4.66,54.78-1.43,19.37-4.97,38.44-10.13,57.15-2.41,8.71,4.32,16.77,13.02,17.09,22.06.81,44.15,1.62,65.7,6.81,7.71,1.86,18.07-3.91,17.09-13.02-2.52-23.51-2.09-47.14-1.24-70.73.41-11.49.9-22.98,1.15-34.47.21-9.59-.88-19.37,3.33-26.5,5.22-8.84-1.46-20.31-11.66-20.31-22.63-.01-45.26-.02-67.89-.03-17.37,0-17.4,26.99,0,27h0Z"/>
    <path class="cls-13" d="M68.55,241.04c24.45-.06,48.91-.11,73.36-.17,8.15-.02,12.22-7.3,11.09-14.56-.4-2.57-1.44-4.84-2.64-7.15-1.75-3.37-6.11-5.94-9.93-5.7-24.92,1.62-49.9,1.67-74.83.16,1.02,7.53,2.04,15.06,3.06,22.59,22.81-4.93,46.63-3.33,69.75-2.16v-23c-11.95.19-23.89.38-35.84.57-5.64.09-11.28.18-16.92.27-4.62.07-12.83,1.22-16.3.09v22.18c23.7-4.16,48.17-1.38,72.09-2.08,14.77-.43,14.83-23.44,0-23-26.13.77-52.29-1.65-78.21,2.9-4.9.86-8.44,6.39-8.44,11.09,0,5.2,3.61,9.52,8.44,11.09,5.72,1.85,12.5.89,18.43.79,6.3-.1,12.61-.2,18.91-.3,12.61-.2,25.22-.4,37.83-.6,14.87-.24,14.73-22.25,0-23-25.31-1.28-50.91-2.42-75.86,2.98-5.53,1.2-9.04,7.29-8.24,12.62.88,5.84,5.44,9.62,11.29,9.97,24.93,1.51,49.91,1.46,74.83-.16-3.31-1.9-6.62-3.8-9.93-5.7.28.49.38,1.05.32,1.65,3.7-4.85,7.39-9.7,11.09-14.56-24.45.06-48.91.11-73.36.17-14.8.03-14.83,23.03,0,23h0Z"/>
    <path class="cls-8" d="M64.46,245.21c-2.19-70.07-1.86-140.2.98-210.25h-27c-.86,36.4-1.73,72.81-3.52,109.18-.85,17.25-2.29,34.48-3.13,51.73s.65,34.46,8.39,50.25c1.61-6.16,3.23-12.31,4.84-18.47-10.01,5.94-20.54,9.41-32.17,11.01,5.08,6.61,10.16,13.22,15.25,19.83,13.45-29.14,17.6-60.91,16.73-92.78-.89-32.63-6.75-64.82-9.69-97.28-1.74-19.21-2.37-38.51-.51-57.74-6.77,3.89-13.54,7.77-20.31,11.66,13.8,10.01,27.65,18.11,44.89,20.14,16.84,1.98,33.76-1.88,50.22-5.05,15.99-3.08,32.09-5.34,48.34-6.51,7.78-.56,15.62-1.06,23.42-.81,6.19.2,12.31,1.08,17.72,3.98,1.07-8.22,2.15-16.45,3.22-24.67-34.98,5.94-69.94,12.08-104.99,17.61-34.23,5.39-68.74,9.36-103.44,8.54l3.59,26.52c16.32-3.99,32.93-5.27,49.68-5.9,17.72-.66,35.47-.94,53.2-1.24,17.89-.3,35.77-.49,53.66-.57,15.79-.07,31.32-.64,46.2,5v-26.04c-31.05,4.46-62.1,8.89-93.33,11.89-15.7,1.51-31.44,2.66-47.2,3.28-16.03.63-32.37-.91-47.41,5.57-4.8,2.07-7.15,8.76-6.45,13.45.78,5.15,4.4,9.91,9.67,11.22,16.91,4.21,33.66,7.15,51.14,7.37,16.2.2,32.33.37,48.52.9,31.5,1.04,63.88-.71,93.88-11.12,7.24-2.51,10.99-9.05,9.43-16.61-.78-3.79-2.66-7.26-5.77-9.6-1.51-1.13-3.11-1.99-4.94-2.52-1.33-.38-7.42-1.85-1.07-.02l5.96,3.47-.34-.39c1.16,1.99,2.31,3.97,3.47,5.96-.32-.7-.52-1.43-.6-2.2-2.04-9.9-15.9-13.09-22.56-5.96-7.9,8.46-14.79,17.86-20.27,28.06,6.16-1.61,12.31-3.23,18.47-4.84-5.83-3.17-10.63-7.19-14.22-12.54-2.69,6.61-5.38,13.22-8.07,19.83,2.84-1.15,7.22-2.51,9.46-2.74,1.13-.11,2.25-.04,3.37-.13.85-.07,2.17-.65.95-.14.93-.38,3.79,2.3-.44-1.17-1.78-.86-2.64-2.31-2.59-4.35v1.45c.6-1.56-.71,2.64-.85,3.19-.55,2.17-1.11,4.33-1.63,6.51-1.16,4.84-2.22,9.71-3.17,14.59-3.44,17.73-5.56,35.74-6.56,53.77s-.9,35.67-.53,53.5c.09,4.38.2,8.75.31,13.13.14,5.12-.55,11.03,2.14,15.63,3.9,6.66,11.42,7.41,18.28,8.14,2.8.3,5.61.48,8.42.71,1.18.1,2.35.21,3.53.31,3.22.26-2.91-.86-.31,0,.16.05-3.95-1.97-2.26-.88.81.52,1.69.88,2.57,1.28,2.27,1.03,4.58,1.95,7,2.56,4.41,1.13,9.14,1.79,13.69,1.7,14.99-.29,18.62-22.6,3.59-26.52-10.47-2.73-21.47-3.79-32.22-4.75-10.08-.9-20.27-1.6-30.39-1.23,4.34,5.7,8.68,11.39,13.02,17.09,4.28-27.24,4.73-54.5,3-81.99-.84-13.33-2.04-26.63-3.16-39.93-1.21-14.31-1.69-28.51-8.13-41.64-5.84-11.9-25.99-6.33-25.16,6.81,1.6,25.11,1.66,50.29,1.54,75.44-.06,13.13-.2,26.26-.26,39.38-.03,5.74-.04,11.48-.02,17.23,0,.79.55,8.14.05,8.36-.85.36,2.18-4.56.06-1.35-.6.91-1.17,1.88-1.69,2.84-3.8,7.03-3.92,15.21,1.84,21.32,6.52,6.91,15.85,5.84,22.55.07.63-.54,1.41-1.12,1.93-1.78,1.45-1.83-12.47.64-6,2.12,3.5.8,7.38.97,10.98,1.16,7.42.4,14.77-.21,22.11-1.29,8.2-1.21,15.79-4.92,18-13.74,1.69-6.78-.26-14.52-1.04-21.32-1.57-13.74-3.2-27.47-4.87-41.2-3.98-32.57-8.27-65.11-12.82-97.61-.92-6.55-8.93-10.55-14.81-9.67-7.06,1.06-11,6.38-11.71,13.26-2.27,22.11-4.53,44.23-6.8,66.34h27c.7-19.2,1.4-38.41,2.11-57.61.32-8.83,2.33-19.48-.38-28.05-1.75-5.54-6.41-10.05-12.08-11.46-4.92-1.22-10.22-.08-15.16.4-38.77,3.78-77.54,7.56-116.32,11.33-9.03.88-14.97,7.89-13.02,17.09,1.82,8.56,5.46,19.39,11.96,25.64,6.63,6.37,16.25,4.46,21.2-2.73,2.99-4.34,2.14-10.23-.27-14.58-2.67-4.81-6.85-7.03-12.22-7.5-6.9-.6-14.02,6.68-13.5,13.5.11,1.51.29,3.11.68,4.57.54,2.03-.16-3.75-.05-.61.07,2.08.22,4.15.26,6.23.07,4.35-.13,8.65-.37,13-.8,14.73-1.16,29.48-1.42,44.23-.52,29.5-.67,59.02-3.03,88.44l13.5-13.5c-3.73-.09-7.45-.17-11.18-.26-1.86-.04-3.73-.09-5.59-.13l-1.86-.04c-3.62-.3-2.57.36,3.14,1.98,1.16,1.99,2.31,3.97,3.47,5.96.37,1.05-.05,1.36-.11-.15-.05-1.3.03-2.62.05-3.92.04-2.62.1-5.23.17-7.85.15-5.56.36-11.12.64-16.67.54-10.78,1.31-21.55,2.33-32.3,1.98-20.95,4.95-41.77,8.8-62.46,1.33-7.16-1.98-14.56-9.43-16.61-6.57-1.81-15.27,2.22-16.61,9.43-5.49,29.48-9.33,59.29-11.35,89.2-.94,13.91-2.51,28.54-1.59,42.47.68,10.13,7.17,16.97,17.26,17.8,7.22.6,14.6.38,21.85.55,7.72.18,12.93-6.35,13.5-13.5,2.36-29.42,2.51-58.94,3.03-88.44.25-14.42.6-28.84,1.36-43.24.24-4.47.48-8.9.43-13.38-.03-2.28-.08-4.56-.27-6.83-.15-1.77-.35-3.62-.67-5.33-.22-1.21-.33-3.49.04,1.37l-13.5,13.5h.09c-3.89-2.22-7.77-4.45-11.66-6.68,1.41,1.94-.95-3.01-.57-1.54l1.36-10.4-.05.08,21.2-2.73c3.46,3.33.57.62-.35-.96-.85-1.46-1.71-3.01-2.37-4.57-.99-2.37-1.72-5.49-2.3-8.2-4.34,5.7-8.68,11.39-13.02,17.09,21.54-2.1,43.08-4.2,64.62-6.3,10.6-1.03,21.21-2.07,31.81-3.1,5.3-.52,10.6-1.03,15.91-1.55,2.65-.26,5.3-.52,7.95-.78,1.33-.13,2.65-.27,3.98-.39.55-.06,1.1-.11,1.65-.14,1.02-.06.88-.07-.41-.02l-5.96-3.47c-.99-1.17-1.58-2.47-1.76-3.9-.14-1.01-.18-.82-.12.56-.2,1.27-.1,2.68-.15,3.97l-.4,10.93-.76,20.86c-.51,13.91-1.02,27.81-1.53,41.72-.27,7.29,6.4,13.5,13.5,13.5,7.92,0,12.75-6.22,13.5-13.5,2.27-22.11,4.53-44.23,6.8-66.34-8.84,1.2-17.68,2.39-26.52,3.59,3.49,24.89,6.79,49.81,9.92,74.74,1.55,12.41,3.07,24.83,4.53,37.26.77,6.54,1.53,13.08,2.28,19.62.34,2.94.67,5.89,1,8.83.18,1.63.43,3.27.55,4.91l.12,1.33c-.05,2.46.13,1.81.52-1.94,1.61-1.61,3.23-3.23,4.84-4.84,1.29-.23,1.12-.19-.51.14-.69-.04-1.33.08-1.92.35-2.44.37-4.94.51-7.4.61-4.32.19-8.68.12-12.98-.31-4.36-.44-8.14-1.5-12.45-.14-2.99.95-5.2,2.59-7.53,4.66-.53.49-1.05.98-1.57,1.48,1.49-.97,1.67-1.16.54-.55,2.27-.61,4.54-1.23,6.81-1.84l-.65.07c2.27.61,4.54,1.23,6.81,1.84,4.39,3.91,5.73,7.82,4.02,11.75-.45,1.05-.37.99.25-.17.64-.87,1.22-1.98,1.71-2.94,1.81-3.48,2.83-6.76,3.03-10.68.33-6.36-.02-12.83,0-19.21.03-13.64.17-27.28.26-40.92.17-26.96.2-53.95-1.51-80.87-8.39,2.27-16.77,4.54-25.16,6.81,4.72,9.61,3.95,22.26,4.86,32.85,1.05,12.31,2.12,24.62,2.86,36.96,1.46,24.28,1.63,48.84-2.16,72.94-1.29,8.23,3.43,17.43,13.02,17.09,9.65-.35,19.37.28,28.98,1.11,2.58.22,5.16.47,7.73.75,1.37.15,2.74.32,4.11.47,4.38.5-2.56-.42,1.66.21,4.35.66,8.69,1.37,12.95,2.48,1.2-8.84,2.39-17.68,3.59-26.52-1.16.02-2.28-.02-3.44-.09,1.49.09.61.15-.38-.05-1.36-.27-2.67-.65-4.01-.95-2.33-.52.19.26-.85-.23-4.27-2-6.85-2.8-11.62-3.31-3.13-.33-6.28-.52-9.42-.79-.98-.08-1.95-.18-2.92-.27-.56-.05-3.16-.58-.8-.08,2.76.59-.36-.19-.35-.12l-.56-.14c-2.35-.76-.8.19,4.63,2.83,1.16,1.99,2.31,3.97,3.47,5.96.41,2.11.51,1.96.31-.45-.04-1.28-.07-2.55-.1-3.83-.06-2.21-.12-4.41-.17-6.62-.11-4.63-.21-9.27-.29-13.9-.14-8.38-.19-16.76-.08-25.14.22-16.66,1.07-33.35,3.24-49.88,1.02-7.82,2.51-16.15,4.18-24.07,1.79-8.44,5.36-17.36,5.5-26.04.18-10.57-6.27-19.58-16.78-21.97-9.11-2.07-19.59-.44-28.14,3.01-7.5,3.03-13.41,11.86-8.07,19.83,6.19,9.24,14.09,16.88,23.9,22.22,6.23,3.39,14.93,1.75,18.47-4.84,4.44-8.26,9.66-15.75,16.05-22.59-7.52-1.99-15.04-3.97-22.56-5.96.78,3.79,2.66,7.26,5.77,9.6,1.51,1.13,3.11,1.99,4.94,2.52,1.33.38,7.42,1.85,1.07.02-1.99-1.16-3.97-2.31-5.96-3.47l.34.39c-1.16-1.99-2.31-3.97-3.47-5.96.32.7.52,1.43.6,2.2l9.43-16.61c-27.94,9.69-57.37,11.12-86.71,10.15-15.55-.51-31.02-.77-46.58-.88-15.87-.12-30.54-2.59-45.9-6.42,1.07,8.22,2.15,16.45,3.22,24.67,4.64-2,11.39-1.36,17.02-1.44,7.89-.11,15.77-.37,23.65-.75,15.43-.75,30.83-2,46.2-3.56,31.64-3.21,63.14-7.75,94.62-12.27,5.76-.83,9.91-7.64,9.91-13.02,0-6.31-4.3-10.89-9.91-13.02-16.34-6.2-34.17-6.05-51.39-5.98-18.55.08-37.1.27-55.65.58-36.51.61-74.35-.62-110.06,8.1-15.06,3.68-11.41,26.16,3.59,26.52,36.46.87,72.73-3.58,108.68-9.2,35.7-5.58,71.3-11.87,106.93-17.91,11.55-1.96,12.93-19.48,3.22-24.67-14.3-7.65-30.19-8.18-46.03-7.39-17.7.88-35.35,2.99-52.82,5.94-15.34,2.59-30.66,6.94-46.33,6.72-15.54-.22-27.19-8.15-39.4-17.01-3.8-2.76-9.77-2.25-13.63,0-4.41,2.58-6.21,6.79-6.69,11.66-6.15,63.51,15.79,126.05,9.01,189.55-1.59,14.89-5.42,30.69-11.85,44.62-2.31,5.01-2.57,10.44,1.06,14.99,3.69,4.63,8.54,5.62,14.19,4.84,13.65-1.88,26.78-6.7,38.62-13.73,6.6-3.92,8.08-11.87,4.84-18.47-6.17-12.59-5.31-27.59-4.41-41.82,1.07-16.83,2.23-33.65,3.02-50.5,1.66-35.05,2.49-70.14,3.33-105.22.17-7.29-6.33-13.5-13.5-13.5-7.56,0-13.2,6.19-13.5,13.5-2.84,70.05-3.17,140.18-.98,210.25.23,7.29,6.04,13.5,13.5,13.5s13.73-6.18,13.5-13.5h0Z"/>
    <path class="cls-5" d="M63.83,273.88c36.08.04,72.12,2.33,108.2,2.38v-34c-27.29.5-54.57-.38-81.77-2.65v34c13.21-1.08,26.46-1.45,39.71-1.03,6.46.21,12.91.59,19.35,1.16,3.22.28,6.43.61,9.64.99,4.37.51,4.13.5,7.97,1.08v-32.79c-46.89,6.99-94.44,12.5-140.25,25.07-8.18,2.25-13.29,10.39-12.18,18.65,1.13,8.44,8.16,14.5,16.7,14.74,26.71.76,53.19-3.71,79.5-7.75,5.39-.83,13.11-2,17.13-2.52,1.37-.18,6.08-.75,8.82-1.05,3.07-.33,6.15-.63,9.23-.88,12.92-1.05,25.88-1.18,38.79.1v-34c-52.7-1.15-105.03-17.55-157.82-8.93-8.32,1.36-13.19,11.08-12.18,18.65,1.09,8.13,8.19,14.94,16.7,14.74,30.68-.72,61.38,2.66,91.76,6.59,7.36.95,11.7,1.55,20.77,2.84,7.71,1.09,15.41,2.21,23.12,3.33,15.84,2.29,31.69,4.57,47.57,6.55v-34c-59.85,7.39-119.69,14.78-179.54,22.16-8.79,1.09-17.45,7.04-17,17,.4,9.02,7.48,17.23,17,17,29.46-.72,58.93-1.43,88.4-.74,28.96.68,58.44,2.84,85.17,7.42,1.51-11.13,3.01-22.26,4.52-33.39-56.85-4.08-113.69-8.16-170.54-12.24v34c29.92,1.62,59.83,3.23,89.75,4.85l43.88,2.37c7.04.38,14.09.72,21.11,1.32,7.31.63,11.79,1.22,19.9,3.14,1.51-11.13,3.01-22.26,4.52-33.39-66.38,8.13-132.98,14.38-199.71,18.76-8.86.58-17.43,7.4-17,17s7.47,17.13,17,17c62.43-.82,124.86-1.65,187.28-2.47,8.89-.12,17.41-7.74,17-17s-7.47-17.13-17-17c-62.43.82-124.86,1.65-187.28,2.47v34c66.73-4.37,133.33-10.63,199.71-18.76,8.5-1.04,15.48-5.68,16.7-14.74,1.08-8.04-3.9-16.69-12.18-18.65-15.09-3.57-30.62-4.62-46.06-5.46-15.29-.83-30.58-1.65-45.87-2.48-30.58-1.65-61.16-3.3-91.74-4.95-8.89-.48-17.4,8.16-17,17,.44,9.76,7.48,16.32,17,17,56.85,4.08,113.69,8.16,170.54,12.24,8.42.6,15.65-6.93,16.7-14.74s-3.83-17.22-12.18-18.65c-60.41-10.35-121.57-9.39-182.61-7.9v34c59.85-7.39,119.69-14.78,179.54-22.16,8.79-1.09,17.45-7.04,17-17s-7.51-15.81-17-17c-1.93-.24-3.86-.49-5.79-.74-.51-.07-5.75-.76-3.67-.48,2.06.28-3.27-.45-3.79-.52-1.8-.25-3.6-.5-5.39-.75-7.71-1.08-15.42-2.2-23.13-3.32-16.54-2.4-33.09-4.76-49.67-6.91-30.38-3.93-61.08-7.31-91.76-6.59,1.51,11.13,3.01,22.26,4.52,33.39,1.7-.28,3.84-.52.88-.18,1.62-.19,3.25-.37,4.87-.51,2.87-.25,5.75-.43,8.64-.53,6.32-.23,12.64-.16,18.95.11,13.17.55,26.29,1.91,39.37,3.47,25.28,3.01,50.58,7.24,76.07,7.79,8.9.19,17.41-7.96,17-17-.45-9.96-7.49-16.06-17-17-26.55-2.64-53.08,1.01-79.31,5-25.35,3.85-47.46,7.86-74.15,7.1,1.51,11.13,3.01,22.26,4.52,33.39,45.82-12.57,93.36-18.07,140.25-25.07,7-1.04,12.78-9.62,12.48-16.39s-4.99-15.26-12.48-16.39c-28.45-4.31-57.01-5.75-85.71-3.42-8.84.72-17.43,7.3-17,17s7.48,16.21,17,17c27.2,2.27,54.48,3.15,81.77,2.65,8.89-.16,17.42-7.7,17-17s-7.47-16.99-17-17c-36.08-.04-72.12-2.33-108.2-2.38-8.89-.01-17.41,7.83-17,17s7.47,16.99,17,17h0Z"/>
    <g>
      <path class="cls-10" d="M132.2,93.17c-18.18.55-35.78-4.89-53.89-5.5-4.47-.15-6.45,4.71-4.75,8.28,1.11,2.33-2.09,8.32-2.64,10.65-.8,3.38-1.3,6.86-1.56,10.32-.53,7.03.24,14.12,1.51,21.04,2.7,14.61,8.23,28.53,12.38,42.75,1.82,6.23,10.24,4.54,10.8-1.46,1.08-11.56-.52-23.01-4.42-33.93-1.6-4.47-7.4-5.45-10.05-1.31-6.28,9.79-3.66,24.71-2.2,35.58,1.74,13.01,7.14,25.98,4.01,39.13h10.61c-3.67-10.49-5.11-21.39-3.42-32.43,1.06-6.93-9.54-9.91-10.61-2.92-2,13.04-.95,25.81,3.42,38.28,1.69,4.83,9.27,5.61,10.61,0,2.95-12.39-.09-23.39-2.47-35.55-1.22-6.23-1.99-12.53-2.32-18.87-.29-5.66-1.31-12.69,1.88-17.67l-10.05-1.31c3.61,10.1,5.02,20.32,4.03,31.01,3.6-.49,7.2-.97,10.8-1.46-4.32-14.78-10.21-29.28-12.7-44.54-1.18-7.21-1.47-14.76-.03-21.96s5.47-13.48,1.93-20.9c-1.58,2.76-3.17,5.52-4.75,8.28,18.11.6,35.7,6.05,53.89,5.5,7.06-.21,7.09-11.22,0-11h0Z"/>
      <path class="cls-10" d="M142.47,161.55c-1.67-4.49-1.22-8.77-.91-13.49.34-5.22.1-10.36-1.37-15.42-1.33-4.61-3.28-9.01-3.88-13.82-.69-5.5.08-10.8,1.62-16.07-6.11-1.68-12.21-3.37-18.32-5.05-2.55,14.24-2.41,28.23.56,42.4,1.31,6.23,8.87,8.41,13.96,5.68,10.14-5.45,9.5-17.94,8.92-27.89-.44-7.54-.6-15.09-1.07-22.62-.34-5.51-4.1-8.97-9.5-9.5-6.97-.68-13.83-.2-20.67,1.31-2.34.51-4.66,1.12-7,1.67-2.17.51-2.04.61-5.14.34-5.66-.48-14.21-2.27-18.46,5.77-4.24,8.02-3.86,17.82-2.32,26.47,1.46,8.19,4.25,16.09,6,24.22s2.9,16.51,3.36,24.9c.48,8.85.28,17.73-.62,26.55-.43,4.23-1.07,8.43-1.86,12.6-.87,4.56-2.22,9.12-1.63,13.78.76,5.97,5.47,10.99,12.03,9.16,7.57-2.12,15.14-4.23,22.71-6.35,3.83-1.07,8.4-1.86,11.34-4.8,2.86-2.86,3.34-6.54,3.27-10.37-.29-15.83-1.91-31.74-3.99-47.42-1.09-8.27-2.35-16.52-3.82-24.73-1.29-7.25-2.27-14.11-1.47-21.5s3.18-15.42-4.63-19.68c-3.26-1.78-7.12-1.54-10.71-1.57-4.33-.03-8.66-.07-12.98-.1-4.92-.04-9.79,4.39-9.5,9.5.55,9.65,4.26,18.43,5.6,27.91,1.23,8.67.68,17.56.17,26.26-1.09,18.72-.41,37.17.59,55.87.25,4.66,4.18,10.14,9.5,9.5,11.12-1.34,19.17-7.58,18.81-19.53-.33-11.19-1.29-22.45-2.44-33.58s-2.69-22.21-5.14-33.12c-1.16-5.15-2.68-10.2-4.01-15.3-1.1-4.24-1.87-7.96.49-11.87-5.79-.76-11.58-1.51-17.36-2.27,4.6,12.8,12.35,23.71,19.34,35.24,6.34,10.46,12.5,22.04,7.84,34.32-1.82,4.8,2.02,10.42,6.64,11.69,5.34,1.47,9.86-1.82,11.69-6.64,11.58-30.47-17.82-53.62-27.18-79.66-2.71-7.54-12.93-9.61-17.36-2.27-5.04,8.33-4.77,17.35-2.41,26.52s4.99,18.92,6.56,28.66c1.5,9.32,2.38,18.73,3.07,28.14.35,4.8.65,9.6.93,14.4.04.76-.09,7.07.4,7.3-2.83-1.34,3.38-1.41.12-1.02,3.17,3.17,6.33,6.33,9.5,9.5-.99-18.7-1.68-37.16-.59-55.87.52-8.96.88-17.94-.23-26.87s-5.01-18.09-5.54-27.3c-3.17,3.17-6.33,6.33-9.5,9.5,3.09.02,6.18.05,9.27.07,1.24,0,2.47.02,3.71.03.93,0,1.85.01,2.78.02,1.53.1,1.25-.08-.84-.52l-3.41-3.41.3.7-1.3-4.79c.02,4.05-1.06,8.11-1.39,12.15-.36,4.37-.11,8.64.45,12.97,1.21,9.4,3.2,18.7,4.57,28.08,1.28,8.79,2.25,17.63,3.01,26.49.75,8.81,2,18.2,1.46,27.03l1.3-4.79-.49.83,3.41-3.41c-3.63,2-9.05,2.57-13.05,3.69-4.84,1.35-9.69,2.71-14.53,4.06,4.01,3.05,8.02,6.11,12.03,9.16-.6-4.74,1.2-9.71,1.93-14.4.87-5.55,1.56-11.13,1.97-16.73.76-10.42.57-20.9-.57-31.29-1.14-10.38-3.03-20.61-5.77-30.69-2.05-7.54-6.85-19.22-2.53-26.81l-3.41,3.41c-.89.62-3.34-.28-.76.39.69.18,1.42.26,2.12.37,1.99.31,3.99.55,6.01.47,3.24-.12,6.49-.75,9.64-1.5,7.1-1.68,13.31-2.58,20.7-1.85-3.17-3.17-6.33-6.33-9.5-9.5.37,5.98.55,11.97.83,17.95.14,3.08.39,6.15.51,9.22.07,1.78.18,3.61,0,5.39-.04.96-.2,1.91-.49,2.83.26-.42.5-.85.72-1.3,4.65,1.89,9.3,3.78,13.96,5.68-2.23-10.63-2.48-21.59-.56-32.29,2.12-11.86-14.84-16.98-18.32-5.05-3.58,12.25-2.94,24.42,1.09,36.45,1.74,5.19,2.16,9.29,1.79,14.76-.4,6.01-.48,11.95,1.65,17.69,1.78,4.81,6.43,8.08,11.69,6.64,4.62-1.27,8.43-6.85,6.64-11.69h0Z"/>
      <path class="cls-10" d="M78.06,215.81c-.46,5.7-.92,11.4-1.38,17.1-.29,3.64,3.74,6.16,6.96,5.3,8.43-2.24,16.89-4.34,25.39-6.27,8.35-1.89,17.37-2.76,25.52-5.33,8.02-2.52,5.97-12.42,5.84-18.99-.18-8.96-.66-17.9-1.4-26.83-.58-7-11.58-7.07-11,0,.55,6.7.97,13.4,1.21,20.12.22,6.23.91,12.94.13,19.13l1.61-3.89c1.11-.24.91-.2-.62.14-1.25.24-2.51.48-3.76.73-1.87.37-3.75.74-5.62,1.12-4.65.95-9.29,1.94-13.92,2.99-8.81,1.98-17.58,4.15-26.31,6.48,2.32,1.77,4.64,3.54,6.96,5.3.46-5.7.92-11.4,1.38-17.1.57-7.06-10.43-7.02-11,0h0Z"/>
    </g>
    <path class="cls-6" d="M69.21,90.21c-1.4,19.19-2.14,38.42-2.2,57.66s.69,38.38,1.44,57.56c.42,10.77.81,21.53,1.05,32.31.07,3.21,5.07,3.22,5,0-.43-19.05-1.36-38.08-1.96-57.13-.62-19.28-.71-38.57-.06-57.85.37-10.86.95-21.72,1.74-32.55.1-1.35-1.22-2.5-2.5-2.5-1.43,0-2.4,1.15-2.5,2.5h0Z"/>
    <path class="cls-7" d="M6.42,256.07c12.81.04,24.72-6.22,37.35-7.19-1.53-3.7-3.06-7.4-4.6-11.1-19.11,14.94-39,29.17-56.77,45.73,3.62,2.11,7.24,4.22,10.86,6.32,3.01-12.9,3.85-26.07,2.22-39.23-2.17,2.17-4.33,4.33-6.5,6.5,6.92.55,13.55,2.47,19.73,5.64v-11.23c-6.7,3.34-13.59,6.03-20.75,8.19l8,8c.92-3.27,1.9-6.52,2.97-9.74.56-1.68,1.3-6.34,2.67-7.52,3.83-3.29,13.03-.99,17.12.37.58-4.26,1.15-8.51,1.73-12.77-15.54.42-31.08.53-46.63.31-8.39-.12-8.34,12.68,0,13,19.75.76,39.52,1.14,59.28,1.14,8.36,0,8.38-13,0-13-19.77,0-39.53-.38-59.28-1.14v13c15.54.22,31.09.12,46.63-.31,7.44-.2,8.68-10.47,1.73-12.77-8.08-2.67-19.48-3.74-27.14.94-3.46,2.12-5.13,5.51-6.52,9.16-1.97,5.19-3.59,10.53-5.1,15.86-1.33,4.69,3.24,9.43,8,8,8.22-2.48,16.17-5.67,23.86-9.5,4.28-2.13,4.2-9.07,0-11.23-8.32-4.26-16.98-6.68-26.29-7.41-3.21-.25-6.91,3.2-6.5,6.5,1.49,12.02,1,23.97-1.75,35.77-1.48,6.36,6.06,10.8,10.86,6.32,17.77-16.56,37.66-30.79,56.77-45.73,4.39-3.43.75-11.5-4.6-11.1-12.61.96-24.7,7.23-37.35,7.19-8.37-.03-8.38,12.97,0,13h0Z"/>
    <path class="cls-10" d="M131.47,154.42c-.24,13.42-.49,26.85.01,40.26.24,6.43.76,12.83,1.24,19.24.23,3.09.42,6.19.4,9.3-.02,2.35.32,7.02-1.04,9.05,1.1-.84,2.19-1.69,3.29-2.53-1.88.73-4.89-.25-6.85-.46-2.57-.28-5.14-.53-7.72-.77-5.47-.5-10.96-.89-16.44-1.18-10.66-.56-21.32-.71-31.99-.52,1.77,1.35,3.54,2.69,5.3,4.04-2.89-14.48-1.39-29.29-2.41-43.93-.5-7.19-2.01-14.41-1.45-21.64s3.26-14.82,5.24-21.95l.49-1.8c.86-1.96-.32-1.94-3.53.06-.76.89-.73,4.13-.91,5.21-.57,3.32-1.04,6.66-1.47,10-.93,7.29-1.52,14.62-1.86,21.97-.71,15.37-.37,30.77-.03,46.15.07,3.02,2.47,5.43,5.5,5.5,18.48.41,36.95.82,55.43,1.24-1.58-2.76-3.17-5.52-4.75-8.28,1.51-.07,3.03-.15,4.54-.22-.03-.71-.03-1.42-.01-2.13,0-1.32.04-2.64.06-3.96.05-2.97.13-5.95.22-8.92.18-5.94.45-11.89.78-17.83.69-12.21,1.7-24.39,3.03-36.55.64-5.89,1.5-11.75,2.14-17.63.51-4.69-.09-9.26-3.28-12.92-7.01-8.03-16.94-5.73-26.3-7.01-5.69-.78-10.18,6.74-4.24,10.05,2.73,1.52,4.05,6.45,5.15,9.18,1.54,3.82,2.9,7.7,4.15,11.63,1.31,4.1,7.96,5.88,10.05,1.31,8.28-18.04,9.37-38.69,19-56.13,2.06-3.73-.55-8.13-4.75-8.28-11.9-.42-23.56,2.19-35.41,2.68-10.99.46-21.96-.14-32.93,1-3.11.32-6.8,3.32-5.3,6.96.46,1.11-.36,3.76-.28,5.21.14,2.35.37,4.63.33,7-.12,6.16-.26,12.31-.39,18.47-.27,12.63-.53,25.26-.8,37.89-.5,23.96-1.01,47.93-1.51,71.89-.15,7.08,10.85,7.08,11,0,.52-24.61,1.04-49.22,1.55-73.83.27-12.63.53-25.27.8-37.9.13-6.33.45-12.68.39-19.01-.02-2-.5-4.07-.34-6,.22-2.56.91-4.07-.15-6.64-1.77,2.32-3.54,4.64-5.3,6.96,10.97-1.14,21.94-.54,32.93-1,11.85-.49,23.51-3.1,35.41-2.68-1.58-2.76-3.17-5.52-4.75-8.28-9.71,17.58-10.71,38.05-19,56.13l10.05,1.31c-1.75-5.5-3.77-10.9-6.06-16.2-1.93-4.48-3.87-8.72-8.3-11.19-1.41,3.35-2.83,6.7-4.24,10.05,5.46.75,11.52-.25,16.81,1.27,6.6,1.9,4.79,7.34,4.08,12.88-1.67,13.11-2.98,26.27-3.91,39.45s-1.46,25.73-1.67,38.62c-.07,4.38-.18,9.47,3.64,12.45,4.39,3.43,9.3,1.41,12.3-2.57,2.64-3.5-.99-8.19-4.75-8.28-18.48-.41-36.95-.82-55.43-1.24,1.83,1.83,3.67,3.67,5.5,5.5-.43-19.21-.87-38.47.77-57.63.39-4.6.89-9.2,1.58-13.77.59-3.93,1.77-7.94,1.91-11.93.25-6.8-6.13-13.69-13.13-10.1-2.82,1.45-4.02,4.3-4.94,7.12-1.54,4.68-2.7,9.58-3.93,14.35-2.21,8.61-2.53,16.73-1.58,25.53,2,18.38,0,37.08,3.63,55.29.46,2.31,3.02,4.08,5.3,4.04,13.58-.24,27.16.08,40.7,1.07,6.45.47,12.87,1.19,19.31,1.83,5.55.55,9.44-1.09,10.73-6.84,2.77-12.36-.08-25.74-.58-38.22-.55-13.74-.3-27.5-.05-41.24.13-7.08-10.87-7.08-11,0h0Z"/>
    <path class="cls-22" d="M34.25,244.27c2.46-.12,5.04-.85,7.43-.24,1.91.49,3.42,1.45,5.49,1.53,4.72.19,9.69-1.85,14.2-3.04,5.11-1.35,2.82-8.44-2.13-7.71-2.83.41-5.38,1.52-8.14,2.17-3.71.87-6.37-.21-9.88-1.23-5.59-1.63-11.39-1.98-17.15-1.21-5.03.67-5.09,8.68,0,8,7.24-.97,12.83.73,19.73,2.39,6.31,1.52,11.45-1.51,17.57-2.41-.71-2.57-1.42-5.14-2.13-7.71-4.41,1.16-9.54,3.45-13.99,2.06-4.01-1.25-6.86-.81-11.01-.61-5.12.25-5.15,8.25,0,8h0Z"/>
    <path class="cls-22" d="M142.27,245.72c4-.78,9.05-1.13,13.02-.06,5.89,1.6,9.76,4.42,16.19,3.17,6.74-1.31,12.61-4.42,19.61-4.8,6.7-.36,13.14.9,19.36,3.36,4.79,1.89,6.87-5.84,2.13-7.71-13.6-5.37-26.15-3.73-39.71.5-4.71,1.47-7.63.93-12.08-.93-2.19-.92-4.13-1.54-6.49-1.82-4.67-.54-9.53-.33-14.15.57-5.05.99-2.91,8.7,2.13,7.71h0Z"/>
    <path class="cls-22" d="M159.56,249.75c13.34,10.74,25.4,23.15,37.81,34.94,12.91,12.26,25.82,24.52,38.73,36.77,3.73,3.54,9.4-2.1,5.66-5.66-12.91-12.26-25.82-24.52-38.73-36.77-12.41-11.78-24.47-24.19-37.81-34.94-3.97-3.2-9.67,2.43-5.66,5.66h0Z"/>
    <path class="cls-19" d="M145.38,292.04c2.1-.07,4.22-.14,6.32.07.24.02.48.05.72.08-.51-.07.18.03.28.05.69.1,1.39.21,2.08.3,1.03.13,2.05.22,3.08.14,1.3-.1,2.56-1.08,2.5-2.5-.06-1.27-1.1-2.61-2.5-2.5-.55.04-1.1.05-1.66,0-.24-.02-.47-.04-.71-.06-.04,0-.8-.11-.28-.03-1.17-.18-2.34-.37-3.51-.48-2.1-.2-4.21-.14-6.32-.07-1.31.04-2.56,1.12-2.5,2.5s1.1,2.55,2.5,2.5h0Z"/>
    <path class="cls-24" d="M109.49,282.47c4.13-.03,8.26-.03,12.4.02,1.31.02,2.56-1.16,2.5-2.5s-1.1-2.48-2.5-2.5c-4.13-.05-8.26-.06-12.4-.02-1.31.01-2.56,1.14-2.5,2.5s1.1,2.51,2.5,2.5h0Z"/>
    <path class="cls-21" d="M110.39,284.94c0-.26,0-.31-.03-.13-.04.18-.03.14.04-.12-.22.41.29-.23-.05.13-1.39-.37-2.79-.74-4.18-1.1.63,1.67,1.53,3.18,3.39,3.66,1.6.41,3.5.29,5.13.21,3.37-.16,6.73-.77,9.93-1.84,1.24-.42,2.18-1.74,1.75-3.08-.4-1.23-1.75-2.19-3.08-1.75-2.44.82-5.03,1.39-7.41,1.59-1.3.11-2.6.14-3.9.1-.35-.01-.7-.04-1.05-.05-.38-.02-.13.02.1.09.21.2.21.19.01,0l.14.16c-.08-.13-.14-.26-.2-.39.11.26.11.25,0-.02-.63-1.67-2.79-2.58-4.18-1.1-.93.99-1.49,2.27-1.42,3.65.07,1.3,1.1,2.56,2.5,2.5,1.29-.06,2.58-1.1,2.5-2.5h0Z"/>
    <path class="cls-2" d="M143.91,296.7c2.84-.36,5.1.36,7.92.58s5.65-.39,8.43-.78l-1.33-4.82c-2.44.55-4.45.88-6.93.99-.56.03-1.12.03-1.67,0-.26-.01-.51-.03-.77-.05-.52-.04.21.07-.34-.05-.49-.11-.98-.22-1.45-.4.4.16-.23-.12-.31-.17-.15-.08-.29-.17-.43-.26.33.26.48.63.47,1.11-.05-1.31-1.11-2.56-2.5-2.5-1.31.06-2.55,1.1-2.5,2.5.14,3.78,5.23,4.78,8.21,4.83,3.18.06,6.45-.49,9.54-1.19,1.28-.29,2.15-1.83,1.75-3.08-.46-1.43-1.68-1.94-3.08-1.75-2.59.36-4.7.82-7.39.57-.68-.06-.94-.1-1.5-.18-.75-.11-1.5-.22-2.25-.31-1.29-.16-2.58-.23-3.88-.06s-2.57,1.03-2.5,2.5c.05,1.21,1.11,2.67,2.5,2.5h0Z"/>
    <path class="cls-3" d="M103.64,289.31c2.38,4.97,4.77,9.94,7.18,14.9.58,1.18,1.15,2.37,1.73,3.55.47.96.88,2.28,1.86,2.85,1.86,1.09,4.22-.92,5.26-2.35,1.22-1.68,1.49-3.86.55-5.74-1.03-2.08-2.9-2.53-5.03-2.67-.27-.02-.54-.03-.8-.12-.15-.05-.46-.32-.59-.3-.15.02-.26-.45.03.24.25.61.08.23.16.05.04-.1.09-.36.06-.47-.11-.34-.45.29-.16.28.26-.01.82-.45,1.06-.58.26-.14.51-.28.75-.45.16-.12.25-.22.39-.33-.11.09-.42-.11.05.01.92.24,1.88.44,2.76.81,3.33,1.39,3.38,5.67,4.75,8.52.95,1.97,2.63,3.41,4.57,4.37,2.03,1.01,4.52,1.34,6.38,2.65,3.85,2.72,1.47,7.72,1.9,11.46.24,2.09,1.43,3.88,3.46,4.57,1.77.6,3.87.18,5.2-1.15,1.54-1.53,1.97-3.99,1.1-5.96-.81-1.84-2.55-2.86-4.29-3.69s-3.39-1.48-4.09-3.41c-.7-1.96-1.23-3.74-3.32-4.59-1.79-.72-2.57,2.18-.8,2.89.5.2.71,1,.87,1.45.29.8.52,1.63.91,2.4.74,1.47,2.06,2.44,3.5,3.17,1.29.66,2.88,1.13,3.91,2.19s1.05,2.99-.36,3.74c-1.66.87-3.05-.59-3.15-2.18-.12-1.98.52-3.93.44-5.92-.08-1.8-.5-3.67-1.48-5.21-1.14-1.79-2.83-2.82-4.78-3.54s-3.88-1.2-5.51-2.43-2.19-3.11-2.77-5.02c-.94-3.07-2.29-5.84-5.4-7.11-1.27-.52-3.25-1.35-4.63-1.03-.71.17-1.16.75-1.55,1-.59.39-1.27.62-1.82,1.08-.9.74-1.28,2.45-.82,3.55.66,1.59,2.78,1.97,4.27,2.06,1.06.06,1.89.21,2.27,1.31.31.9,0,1.83-.59,2.55-.28.33-1.05.69-1.24,1.01-.21.36.06-.01.2.36-.12-.32-.33-.64-.48-.95-.61-1.26-1.23-2.51-1.84-3.77-2.52-5.18-5.02-10.37-7.5-15.56-.83-1.74-3.42-.22-2.59,1.51h0Z"/>
    <path class="cls-12" d="M97.51,284.29s.09-.09.14-.13l-.51.39c.06-.05.13-.08.2-.11l-.6.25c.07-.03.14-.05.22-.06l-.66.09c.08,0,.15-.01.23,0l-.66-.09c.06,0,.12.02.18.05l-.6-.25c.06.02.11.05.16.09l-.51-.39s.08.07.11.12l-.39-.51s.06.09.08.14l-.25-.6c.02.06.04.12.05.19l-.09-.66c0,.07,0,.13,0,.19l.09-.66c0,.05-.02.1-.04.15l.25-.6s-.04.07-.07.11l.39-.51s-.06.06-.09.09l.51-.39s-.05.03-.08.04l.6-.25s-.08.02-.12.03l.66-.09c-.05,0-.1,0-.15,0l.66.09c-.05,0-.1-.02-.15-.04l.6.25s-.09-.05-.13-.07l.51.39s-.07-.06-.1-.1l.39.51s-.03-.05-.04-.07l.25.6s-.03-.07-.03-.11l.09.66s0-.06,0-.09l-.09.66c0-.06.02-.11.05-.16l-.25.6c.03-.05.05-.1.09-.14l-.39.51c.12-.15.26-.28.41-.4l-.51.39c.2-.16.42-.28.65-.38l-.6.25c.22-.09.45-.15.69-.19l-.66.09c.12-.02.24-.03.36-.01l-.66-.09s.09.02.13.03l-.6-.25s.08.04.12.07l-.51-.39s.04.04.06.06l-.39-.51s.05.08.07.12l-.25-.6s.03.09.04.14l-.09-.66c0,.06,0,.12,0,.19l.09-.66c-.01.06-.03.12-.05.18l.25-.6c-.03.06-.06.11-.09.17l.39-.51s-.07.08-.11.11l.51-.39c-.07.05-.14.09-.21.12l.6-.25c-.11.04-.22.07-.33.08l.66-.09c-.22.02-.44,0-.66-.02l.66.09h-.04c-.33-.11-.66-.13-1-.05-.33.02-.64.11-.93.3-.29.16-.53.37-.7.64-.22.24-.37.52-.45.85l-.09.66c0,.45.12.87.34,1.26l.39.51c.31.31.68.52,1.1.64.39.06.81.14,1.21.13.3-.01.61-.06.9-.11s.62-.22.86-.33c.04-.02.08-.04.11-.06.2-.13.41-.29.58-.45.02-.02.05-.04.07-.06.16-.17.32-.39.45-.58.02-.03.03-.05.05-.08.11-.21.21-.45.28-.67.01-.04.02-.07.03-.11.06-.24.08-.5.1-.74.02-.28-.04-.56-.09-.83,0-.03-.01-.07-.02-.1,0-.01,0-.03-.01-.04-.06-.18-.18-.45-.26-.62-.02-.03-.03-.06-.05-.09-.12-.18-.28-.4-.44-.56-.07-.07-.3-.23-.28-.21.02.02-.19-.16-.28-.21-.02-.01-.03-.02-.05-.03l-.04-.02-.6-.25c-.64-.21-1.2-.12-1.84-.02-.2.03-.39.08-.58.15-.37.14-.77.29-1.11.51-.16.11-.32.23-.47.35s-.32.24-.47.39c-.07.07-.13.13-.19.21-.15.19-.33.38-.45.59-.01.02-.02.04-.03.06-.09.18-.2.44-.27.64-.05.15-.05.3-.07.45-.02.16-.05.27-.05.41,0,.24.03.5.1.74,0,.01.01.03.01.04.06.16.18.49.27.64.12.19.28.38.42.55.02.03.04.05.07.08.01.01.02.02.03.03.11.1.39.32.52.4.03.02.07.04.11.06.2.1.44.21.65.27.03.01.07.02.1.02.56.11.92.11,1.48,0,.04,0,.07-.02.1-.03.21-.07.46-.17.65-.28.4-.22.58-.43.83-.76.08-.1.18-.21.25-.33.05-.09.14-.32.14-.33.02-.06.11-.23.14-.34,0-.03.02-.06.02-.09.04-.16.07-.52.09-.68,0-.03,0-.05,0-.08,0-.29-.04-.59-.11-.87-.06-.24-.18-.47-.28-.69-.02-.03-.03-.07-.05-.1-.06-.1-.17-.23-.22-.29s-.15-.2-.23-.29c-.1-.11-.22-.19-.34-.27-.1-.07-.22-.19-.34-.25-.02-.01-.05-.02-.07-.03-.2-.09-.43-.2-.63-.27-.05-.02-.1-.03-.15-.03-.25-.04-.51-.09-.76-.1-.15,0-.33.04-.46.05s-.3.03-.44.07c-.24.07-.48.19-.71.29-.05.02-.09.04-.14.07-.21.13-.4.29-.58.45-.05.04-.09.08-.13.12-.24.23-.42.49-.52.8-.16.3-.23.62-.22.96-.01.34.06.67.22.96.1.31.27.58.52.8.48.44,1.1.76,1.77.73l.66-.09c.42-.12.79-.33,1.1-.64h0Z"/>
    <path class="cls-20" d="M79.88,170.55c.1-.03.19-.05.3-.06l-1.2.16c.17-.02.33-.02.5,0l-1.2-.16c.17.03.33.07.48.14l-1.07-.45c.09.04.18.09.27.15l-2.07-5.08c0,.06-.02.11-.04.16l.45-1.07c-.02.05-.05.09-.08.14l.7-.91s-.07.08-.11.11l.91-.7c-.06.04-.12.08-.19.11l1.07-.45c-.07.03-.14.04-.22.06l1.2-.16c-.1.01-.19.01-.28,0l1.2.16c-.07-.01-.14-.03-.22-.05l1.07.45c-.07-.03-.13-.06-.19-.1l.91.7s-.08-.07-.11-.11l.7.91s-.05-.09-.08-.14l.45,1.07s-.02-.07-.03-.11c-.14-.59-.41-1.1-.81-1.53-.32-.49-.74-.88-1.26-1.16-.52-.33-1.07-.51-1.67-.53-.6-.13-1.2-.11-1.79.08-1.09.35-2.14,1.03-2.69,2.07l-.45,1.07c-.21.8-.21,1.6,0,2.39.08.37.31.85.48,1.18.02.05.05.09.08.14-.22-.39.51.75.77.99.24.22.71.61.99.77.9.5,1.77.74,2.8.75.93,0,2-.28,2.79-.79.7-.45,1.33-1.02,1.74-1.75.12-.21.18-.39.29-.65.09-.22.23-.45.27-.7l.16-1.2c.02-.62-.11-1.2-.39-1.73-.11-.38-.3-.71-.58-.99-.32-.49-.74-.88-1.26-1.16-.43-.27-.92-.44-1.39-.62-.34-.13-.67-.15-1.04-.2-.34-.05-.66-.11-1-.1-.52.02-1.09.09-1.59.23-1.09.3-2.12,1.09-2.69,2.07-.33.52-.51,1.07-.53,1.67-.13.6-.11,1.2.08,1.79.35,1.09,1.03,2.14,2.07,2.69s2.28.78,3.47.45h0Z"/>
    <path class="cls-27" d="M66.5,90.05c24.64-.05,49.29-.1,73.93-.15,5.79-.01,5.8-9.01,0-9-24.64.05-49.29.1-73.93.15-5.79.01-5.8,9.01,0,9h0Z"/>
    <path class="cls-11" d="M143.56,245.12c19.8,0,39.59,0,59.39,0,3.86,0,3.87-6,0-6-19.8,0-39.59,0-59.39,0-3.86,0-3.87,6,0,6h0Z"/>
    <path class="cls-11" d="M60.3,236.44c-24.37,0-48.74,0-73.12,0-3.86,0-3.87,6,0,6,24.37,0,48.74,0,73.12,0,3.86,0,3.87-6,0-6h0Z"/>
    <path class="cls-9" d="M64.66,236.05c1.24-19.36,1.81-38.76,2.13-58.16.32-19.5.38-39,.56-58.51.1-10.88.24-21.76.48-32.64.03-1.29-1.97-1.29-2,0-.44,19.4-.54,38.81-.68,58.22-.15,19.5-.34,39-.97,58.49-.35,10.87-.83,21.74-1.53,32.6-.08,1.29,1.92,1.28,2,0h0Z"/>
    <path class="cls-9" d="M60.83,87.75c19.57.41,39.16.08,58.72-.75,5.36-.23,10.71-.5,16.07-.82,1.28-.08,1.29-2.08,0-2-19.54,1.16-39.12,1.75-58.7,1.74-5.36,0-10.72-.06-16.09-.17-1.29-.03-1.29,1.97,0,2h0Z"/>
    <path class="cls-9" d="M140.48,85.45c-.04,20.32-.07,40.64-.11,60.96s-.07,40.64-.11,60.96c-.02,11.49-.04,22.99-.06,34.48,0,1.29,2,1.29,2,0,.04-20.32.07-40.64.11-60.96l.11-60.96c.02-11.49.04-22.99.06-34.48,0-1.29-2-1.29-2,0h0Z"/>
    <path class="cls-9" d="M64.25,289.4c-4.18,4.09-7.84,8.71-10.85,13.72-.67,1.11,1.06,2.11,1.73,1.01,2.93-4.87,6.47-9.34,10.54-13.31.92-.9-.49-2.31-1.41-1.41h0Z"/>
    <g>
      <path class="cls-9" d="M145.13,292.11c3.18.83,6.57,1.35,9.87,1.2,1.51-.07,3.02-.31,4.41-.9,1.11-.47,2.67-1.22,2.51-2.67s-1.76-1.92-2.94-2.22c-1.63-.41-3.29-.7-4.95-.9s-3.39-.28-5.09-.24c-1.55.04-3.42,0-4.89.54s-2.28,2.15-1.32,3.49,2.96,1.76,4.49,1.84c1.29.07,1.28-1.93,0-2-.7-.04-1.4-.18-2.04-.46-.6-.27-1.28-.69-.31-1.03.69-.25,1.54-.23,2.27-.28.66-.05,1.31-.08,1.97-.09,3.04-.06,6.08.27,9.03.99.59.14,1.24.24,1.75.58.14-.18.12-.18-.07,0-.12.08-.25.16-.38.23-.31.18-.62.33-.95.46-1.25.49-2.6.65-3.94.68-2.99.06-6-.39-8.89-1.14-1.25-.32-1.78,1.61-.53,1.93h0Z"/>
      <path class="cls-9" d="M142.2,289.3c-.23,1-.5,1.99-.82,2.97-.16.48-.33.95-.5,1.42-.09.24-.19.49-.29.73-.11.26-.14.33-.25.59-.21.48-.16,1.1.36,1.37.43.23,1.14.15,1.37-.36.88-2,1.58-4.06,2.07-6.18.12-.51-.16-1.11-.7-1.23-.51-.12-1.1.15-1.23.7h0Z"/>
      <path class="cls-9" d="M159.89,290.01c.43,1.01.82,2.04,1.16,3.08.09.29.5,1.08.44,1.32-.07.26-.81.62-1.04.77-1.62,1.06-3.47,1.71-5.38,2.03-4.24.7-8.58-.45-12.43-2.18-1.16-.52-2.18,1.2-1.01,1.73,4.72,2.12,9.95,3.39,15.1,2.16,2.13-.51,4.6-1.5,6.17-3.09.85-.86.51-1.88.19-2.91-.41-1.33-.92-2.63-1.47-3.92-.51-1.18-2.23-.16-1.73,1.01h0Z"/>
    </g>
    <g>
      <path class="cls-9" d="M108.89,282.33c3.91.91,8.09,1.28,12.08.72,1.67-.24,3.47-1.01,4.03-2.75.22-.68.23-1.46-.16-2.07-.48-.76-1.39-.83-2.19-.98-3.63-.68-7.35-1.25-11.03-.69-1.62.25-3.61.69-4.92,1.74-1.34,1.08-1.02,2.83.49,3.54,1.28.61,2.84.72,4.22.9,2.18.29,4.37.47,6.56.56,1.29.05,1.28-1.95,0-2-2.71-.11-5.44-.32-8.11-.8-.22-.04-2.04-.38-2.01-.54.06-.38,1.46-.75,1.74-.85.65-.22,1.32-.39,1.99-.52,2.73-.51,5.58-.23,8.3.2.65.1,1.3.22,1.95.34.3.05.59.11.89.17-.03,0,.49.06.52.11-.13-.16-.06.03-.09.14-.36,1.4-2.19,1.55-3.37,1.65-3.47.29-6.95.02-10.35-.77-1.25-.29-1.79,1.64-.53,1.93h0Z"/>
      <path class="cls-9" d="M105.86,279.35c-.55,1.41-1.1,2.82-1.65,4.23-.41,1.05-.76,2.05.22,2.88,1.8,1.5,4.52,2,6.77,2.27,5.19.64,10.49-.4,15.13-2.78,1.15-.59.14-2.31-1.01-1.73-3.85,1.97-8.16,2.89-12.47,2.65-2.05-.11-4.19-.44-6.06-1.34-.26-.12-1-.45-1.01-.63-.03-.3.52-1.22.66-1.57.45-1.15.9-2.31,1.35-3.46s-1.46-1.72-1.93-.53h0Z"/>
      <path class="cls-9" d="M123.32,279.7c.58,1.82,1.26,3.61,2.03,5.36.21.48.95.63,1.37.36.5-.32.58-.85.36-1.37-.05-.12-.1-.24-.16-.36,0,0-.12-.29-.05-.12-.09-.21-.17-.42-.26-.63-.16-.41-.32-.82-.48-1.23-.31-.84-.61-1.69-.88-2.54-.16-.5-.7-.87-1.23-.7-.5.16-.87.7-.7,1.23h0Z"/>
    </g>
    <g>
      <path class="cls-9" d="M140.94,238.36c-4.3,1.01-8.63.53-12.97.16-4.11-.36-8.26-.23-12.38-.47-8.55-.48-17.07-1.46-25.63-1.6-5.08-.09-10.16.14-15.19.81-1.26.17-1.27,2.17,0,2,8.87-1.18,17.79-.89,26.68-.24,4.26.31,8.51.68,12.77.95s8.5.15,12.72.46c4.89.36,9.69.99,14.53-.15,1.25-.29.72-2.22-.53-1.93h0Z"/>
      <path class="cls-9" d="M74.18,89.6c1.29,0,1.29-2,0-2s-1.29,2,0,2h0Z"/>
      <path class="cls-9" d="M73.22,87.02h-6.2c-.52,0-1.02.46-1,1s.44,1,1,1h6.2c.52,0,1.02-.46,1-1s-.44-1-1-1h0Z"/>
      <path class="cls-9" d="M75.12,237.37c-2.7-.11-5.4-.21-8.1-.32-.54-.02-1,.47-1,1,0,.56.46.98,1,1,2.7.11,5.4.21,8.1.32.54.02,1-.47,1-1,0-.56-.46-.98-1-1h0Z"/>
      <path class="cls-9" d="M64.92,88.27c.03,19.2.2,38.4.39,57.6.19,20.27.41,40.54.56,60.81.08,10.46.14,20.92.16,31.38,0,1.29,2,1.29,2,0-.03-19.2-.2-38.4-.39-57.6-.19-20.27-.41-40.54-.56-60.81-.08-10.46-.14-20.92-.16-31.38,0-1.29-2-1.29-2,0h0Z"/>
      <path class="cls-9" d="M78.75,163.58c.37.04-.08-.02.13.02.09.02.19.03.28.06.16.04.33.08.49.14.28.09.49.2.8.39.51.32.87.72,1.13,1.31.11.25.21.56.29.84.04.13.07.26.09.4,0,0,.05.29.03.14-.02-.12.01.15.02.18,0,.13.01.27,0,.4,0,.06,0,.12,0,.18,0,.28.03-.12,0,.04-.03.13-.06.25-.09.38-.07.25.06-.1-.01.04-.04.08-.08.15-.12.22-.03.05-.15.18-.02.04-.04.04-.08.09-.12.13,0,0-.22.17-.11.1.11-.08-.16.09-.14.08-.06.03-.12.07-.18.09.13-.05-.03,0-.05,0-.08.02-.17.05-.25.06-.07.01-.07.01,0,0-.05,0-.1.01-.16.01-.41.03-.51,0-.84-.08-.38-.1-.48-.14-.82-.35-.17-.11-.4-.29-.62-.56-.16-.2-.36-.55-.5-.85-.18-.42-.42-1.33-.48-1.79-.05-.4-.05-.75.04-1.07.05-.16.09-.25.21-.43-.03.04-.12.12.01,0,.07-.06.13-.13.2-.19-.13.11.03-.02.07-.04.08-.05.17-.1.25-.14.15-.08-.21.05.08-.03.09-.03.19-.05.28-.08.03,0,.19-.02.02,0,.1,0,.19,0,.29,0,.28,0-.09-.03.07,0,.04.01.33.12.16.04.49.23,1.08.14,1.37-.36.25-.43.13-1.14-.36-1.37-1.89-.89-4.27.27-4.65,2.35-.19,1.01.01,2.06.3,3.04s.74,1.89,1.46,2.59c1.33,1.31,3.73,1.85,5.33.7,1.5-1.07,1.62-3,1.11-4.64-.33-1.06-.84-2.03-1.72-2.73-.95-.75-2.06-1.15-3.26-1.27-.54-.05-1,.5-1,1,0,.59.46.94,1,1h0Z"/>
    </g>
    <path class="cls-9" d="M29.59,288.74c10.22.12,20.44.23,30.65.35,1.29.01,1.29-1.99,0-2-10.22-.12-20.44-.23-30.65-.35-1.29-.01-1.29,1.99,0,2h0Z"/>
    <path class="cls-9" d="M141.2,240.33c10.88.15,21.76.34,32.64.49,14.01.2,28.01.4,42.02.49,5.03.03,10.07.08,15.1-.02,1.29-.03,1.29-2.03,0-2-10.87.23-21.77-.02-32.64-.14-14.01-.16-28.02-.37-42.02-.59-5.03-.08-10.07-.16-15.1-.23-1.29-.02-1.29,1.98,0,2h0Z"/>
    <path class="cls-9" d="M96.64,277.63c-2.07-.06-3.58,1.72-3.95,3.62-.18.93-.27,1.99.01,2.91.3,1,1.04,1.7,2.04,2.01,1.8.56,3.95-.07,5.47-1.09.81-.54,1.63-1.22,1.96-2.17s.08-2.07-.4-2.94c-.57-1.03-1.56-1.6-2.71-1.74-.97-.12-1.95.04-2.92-.06-.54-.06-1,.5-1,1,0,.59.46.94,1,1,.69.08,1.39.01,2.09.01.54,0,1.04.03,1.39.29.42.31.68.9.7,1.43.01.28-.04.45-.2.67-.13.18-.4.41-.61.57-1.02.79-2.28,1.26-3.54,1.22-.43-.01-.97-.12-1.19-.42-.13-.17-.2-.47-.22-.63-.04-.35-.02-.72,0-1.07.05-.62.28-1.39.62-1.84.21-.28.4-.42.67-.58.2-.11.18-.08.39-.15.11-.04.19-.04.41-.03.54.01,1-.47,1-1s-.46-.99-1-1h0Z"/>
    <path class="cls-9" d="M135.76,318.92c-1.23,3.28-.05,7.13,2.53,9.44,1.25,1.12,2.91,1.97,4.62,2.05,2.03.09,3.23-1.49,3.54-3.36.27-1.67-.21-3.41-1.22-4.76-1.17-1.55-2.73-2.09-4.58-2.39-.96-.15-2.01-.27-2.55-1.19-.49-.84-.52-1.95-.89-2.85-.57-1.38-1.58-2.44-2.77-3.31-2.54-1.85-5.93-2.6-8.11-4.94-1.5-1.61-1.4-3.78-1.96-5.78-.51-1.83-1.65-3.39-3.19-4.5-2.77-1.99-8.19-2.41-9.68,1.44-.56,1.44-.21,3.25.97,4.29.62.55,1.39.77,2.21.77,1.22,0,2.36-.51,3.36.47.95.92,1,2.35-.03,3.22s-2.22.7-3.21-.11c-1.99-1.64-3.28-4.3-3.82-6.78-.3-1.38-.27-2.81-.59-4.19-.25-1.09-.76-2.08-1.4-3-1.24-1.76-2.98-3.28-3.34-5.51-.2-1.27-2.13-.73-1.93.53.27,1.71,1.26,3.08,2.31,4.41,1.3,1.64,2.35,3.05,2.6,5.2.47,4.03,1.59,8.1,4.84,10.83,1.35,1.14,3.05,1.56,4.7.83,1.41-.62,2.49-1.95,2.6-3.51.12-1.68-.89-3.33-2.36-4.11-.69-.37-1.47-.51-2.25-.46-.99.07-2.18.52-2.73-.58-1.05-2.09,1.62-3.31,3.29-3.27,1.9.05,3.73,1.11,4.83,2.65,1.28,1.8,1.08,4.05,1.81,6.06.49,1.33,1.36,2.45,2.46,3.33,2.28,1.83,5.15,2.64,7.5,4.35,1.3.94,2.01,2.06,2.4,3.61.42,1.64,1.04,3.03,2.74,3.65,1.87.68,3.91.3,5.22,2.1,1.1,1.51,1.46,5.41-1.4,4.75-3.76-.86-5.91-5.32-4.59-8.84.45-1.21-1.48-1.73-1.93-.53h0Z"/>
    <path class="cls-9" d="M62.2,236.39c-13.47-.06-26.94-.13-40.41-.19-1.29,0-1.29,1.99,0,2,13.47.06,26.94.13,40.41.19,1.29,0,1.29-1.99,0-2h0Z"/>
    <path class="cls-9" d="M143.62,215.79c11.33,0,22.66,0,33.99,0,11.29,0,22.58,0,33.87,0h19.12c.64,0,.64-1,0-1h-33.99c-11.29,0-22.58,0-33.87,0h-19.12c-.64,0-.64,1,0,1h0Z"/>
    <path class="cls-9" d="M143.62,189.51h31.67c10.51,0,21.03,0,31.54,0h17.83c.64,0,.64-1,0-1-10.56,0-21.11,0-31.67,0h-49.37c-.64,0-.64,1,0,1h0Z"/>
    <path class="cls-9" d="M144.56,160.1h28.96c9.61,0,19.22,0,28.84,0h16.35c.64,0,.64-1,0-1h-28.96c-9.61,0-19.22,0-28.84,0h-16.35c-.64,0-.64,1,0,1h0Z"/>
    <path class="cls-9" d="M145.49,136.32h84.16c.64,0,.64-1,0-1h-84.16c-.64,0-.64,1,0,1h0Z"/>
    <path class="cls-9" d="M147.37,112.23c11.28,0,22.56,0,33.84,0,11.28,0,22.56,0,33.84,0h18.98c.64,0,.64-1,0-1-11.28,0-22.56,0-33.84,0-11.28,0-22.56,0-33.84,0h-18.98c-.64,0-.64,1,0,1h0Z"/>
    <path class="cls-9" d="M148.31,88.45c15.95,0,31.91,0,47.86,0h13.46c.64,0,.64-1,0-1-15.95,0-31.91,0-47.86,0h-13.46c-.64,0-.64,1,0,1h0Z"/>
    <path class="cls-9" d="M26.91,62.34c9.99-.06,19.98-.11,29.98-.15,9.99-.04,19.98-.06,29.98-.07s19.98,0,29.98,0c9.99.02,19.98.04,29.98.08s19.98.1,29.98.16c1.25,0,2.5.02,3.75.03.64,0,.64-1,0-1-9.99-.07-19.98-.13-29.98-.17-9.99-.04-19.98-.08-29.98-.09-9.99-.02-19.98-.02-29.98-.02-9.99,0-19.98.03-29.98.06-9.99.03-19.98.08-29.98.14-1.25,0-2.5.01-3.75.02-.64,0-.64,1,0,1h0Z"/>
    <path class="cls-9" d="M25.66,32.38c9.54-.13,19.07-.26,28.61-.38,9.5-.13,18.99-.25,28.49-.38l16.12-.22c.64,0,.64-1.01,0-1-9.54.13-19.07.26-28.61.38-9.5.13-18.99.25-28.49.38-5.37.07-10.74.14-16.12.22-.64,0-.64,1.01,0,1h0Z"/>
    <path class="cls-9" d="M126.72,31.82c8.54,0,17.07,0,25.61,0h40.1c.64,0,.64-1,0-1h-51.21c-4.83,0-9.66,0-14.49,0-.64,0-.64,1,0,1h0Z"/>
    <path class="cls-9" d="M24.72,86.58h24.4c.64,0,.64-1,0-1h-24.4c-.64,0-.64,1,0,1h0Z"/>
    <path class="cls-9" d="M24.72,109.42c9.59,0,19.19,0,28.78,0,.64,0,.64-1,0-1-9.59,0-19.19,0-28.78,0-.64,0-.64,1,0,1h0Z"/>
    <path class="cls-9" d="M25.66,134.76c8.99,0,17.99,0,26.98,0,2.58,0,5.16,0,7.75,0,.64,0,.64-1,0-1-8.99,0-17.99,0-26.98,0-2.58,0-5.16,0-7.75,0-.64,0-.64,1,0,1h0Z"/>
    <path class="cls-9" d="M25.35,158.22c10.43,0,20.86,0,31.29,0,.64,0,.64-1,0-1-10.43,0-20.86,0-31.29,0-.64,0-.64,1,0,1h0Z"/>
    <path class="cls-9" d="M25.66,182.94h25.51c2.45,0,4.89,0,7.34,0,.64,0,.64-1,0-1-8.5,0-17.01,0-25.51,0h-7.34c-.64,0-.64,1,0,1h0Z"/>
    <path class="cls-9" d="M25.98,208.25c8.87.16,17.73.11,26.6-.16.64-.02.64-1.02,0-1-8.86.26-17.73.32-26.6.16-.64-.01-.64.99,0,1h0Z"/>
    <path class="cls-9" d="M153.65,245.38c20.13,23.43,42.07,45.22,64.35,66.58,6.29,6.03,12.61,12.03,18.93,18.02.93.89,2.35-.53,1.41-1.41-22.4-21.26-44.82-42.53-65.86-65.15-5.93-6.37-11.75-12.85-17.42-19.46-.84-.98-2.25.44-1.41,1.41h0Z"/>
    <path class="cls-9" d="M50.15,244.05c-17.3,14.78-33.78,30.51-49.32,47.13-4.4,4.71-8.73,9.49-12.98,14.33-.85.96.56,2.38,1.41,1.41,15.01-17.1,30.97-33.36,47.79-48.67,4.77-4.34,9.6-8.6,14.5-12.78.98-.84-.44-2.25-1.41-1.41h0Z"/>
    <path class="cls-9" d="M142.17,245.55c4.88,0,9.75,0,14.63,0,1.29,0,1.29-2,0-2-4.88,0-9.75,0-14.63,0-1.29,0-1.29,2,0,2h0Z"/>
    <path class="cls-9" d="M51.51,244.63c2.74.07,5.48.14,8.21.21,1.29.03,1.29-1.97,0-2-2.74-.07-5.48-.14-8.21-.21-1.29-.03-1.29,1.97,0,2h0Z"/>
    <path class="cls-9" d="M155.14,245.87c19.91,0,39.82,0,59.73,0,1.29,0,1.29-2,0-2-19.91,0-39.82,0-59.73,0-1.29,0-1.29,2,0,2h0Z"/>
    <path class="cls-9" d="M56.14,241.56H5.14c-4.89,0-9.78,0-14.68,0-1.29,0-1.29,2,0,2,17,0,34,0,51,0h14.68c1.29,0,1.29-2,0-2h0Z"/>
    <path class="cls-9" d="M81.43,322.36c-1.03.64-1.66,1.65-2.17,2.73-.58,1.22-1.14,2.43-1.82,3.6-1.43,2.48-3.16,4.76-5.15,6.8-.45.46.26,1.17.71.71,1.9-1.95,3.58-4.12,4.98-6.45.69-1.15,1.31-2.35,1.87-3.57.5-1.1,1.02-2.29,2.09-2.96.54-.34.04-1.21-.5-.86h0Z"/>
    <path class="cls-9" d="M47.84,324.77c-1.42,1.01-2.84,2.02-4.19,3.12s-2.47,2.27-3.67,3.46-2.38,2.08-3.8,2.88c-1.29.73-2.59,1.46-3.6,2.56-.43.47.27,1.18.71.71,1-1.09,2.3-1.77,3.57-2.5,1.36-.78,2.56-1.69,3.67-2.79,1.17-1.15,2.29-2.34,3.56-3.39,1.36-1.14,2.81-2.16,4.26-3.18.52-.37.02-1.24-.5-.86h0Z"/>
    <path class="cls-9" d="M65.21,314.4c-1.87,3.45-4.15,6.67-6.8,9.57-.43.47.27,1.18.71.71,2.7-2.96,5.04-6.24,6.95-9.77.31-.57-.56-1.07-.86-.5h0Z"/>
    <path class="cls-9" d="M55.95,328.53l-1.27.43c-.12.04-.23.11-.3.23-.06.11-.09.27-.05.39s.11.24.23.3.26.09.39.05l1.27-.43c.12-.04.23-.11.3-.23.06-.11.09-.27.05-.39s-.11-.24-.23-.3-.26-.09-.39-.05h0Z"/>
    <path class="cls-9" d="M90.7,318.2c-.24-.05-.49-.04-.73.05-.2.08-.37.19-.55.32-.34.25-.68.5-1.01.75-.11.08-.19.16-.23.3-.03.12-.02.28.05.39.13.21.46.35.68.18.31-.23.62-.46.92-.68.13-.1.26-.2.41-.28.01,0,.03-.01.04-.02.05-.02.04-.02-.03.01,0,0,.11-.04.12-.04.02,0,.04,0,.06-.01-.08,0-.09.01-.04,0,.02,0,.04,0,.07,0-.08-.01-.09-.01-.03,0,.26.05.55-.07.62-.35.06-.25-.07-.56-.35-.62h0Z"/>
    <path class="cls-9" d="M26.31,327.59l-.93,2.22c-.05.11,0,.29.05.39.06.1.18.2.3.23.13.03.27.02.39-.05s.18-.17.23-.3l.93-2.22c.05-.11,0-.29-.05-.39-.06-.1-.18-.2-.3-.23-.13-.03-.27-.02-.39.05s-.18.17-.23.3h0Z"/>
    <g>
      <path class="cls-23" d="M50.64,305.13c3.86-.02,7.7.33,11.55.47,3.78.14,7.46-.11,11.19-.69,1.74-.27,3.5-.53,5.26-.45,1.76.07,3.22.68,4.82,1.35.78.32,1.54.57,2.38.68s1.46.16,2.15.6c1.3.82,2.33,1.52,3.93,1.19-.39-.91-.77-1.83-1.16-2.74-1.95,1.05-4.16-.94-5.67-1.96-2.07-1.39-4.22-2.01-6.71-1.72s-4.93,1.03-7.45,1.28c-2.62.26-5.26.23-7.88-.05l.76,2.8c1.73-1.13,3.49-2.37,4.35-4.33h-2.59c.31.54.63,1.08.94,1.63.97,1.67,3.56.16,2.59-1.51-.31-.54-.63-1.08-.94-1.63-.52-.89-2.12-1.06-2.59,0-.66,1.5-1.94,2.38-3.27,3.25-1.31.86-.7,2.64.76,2.8,2.7.28,5.42.31,8.12.03,2.72-.28,5.4-1.21,8.12-1.33,2.7-.12,4.34,1.64,6.53,2.89,2.01,1.14,4.35,1.59,6.45.46,1.56-.84.45-3.07-1.16-2.74-.5.1-1.21-.64-1.61-.89-.58-.37-1.2-.66-1.88-.79-.73-.14-1.47-.14-2.2-.35-.8-.23-1.55-.62-2.32-.94-3.25-1.34-6.68-.98-10.07-.46-3.71.57-7.34.79-11.1.65-3.77-.14-7.53-.47-11.3-.46-1.93,0-1.93,3.01,0,3h0Z"/>
      <g>
        <path class="cls-9" d="M48.5,305.48c3.67.67,7.36,1.24,11.06,1.71,3.71.48,7.41.79,11.14.39,3.53-.37,7.09-1.28,10.64-.83,3.4.44,6.65,1.65,9.95,2.53,1.24.33,1.78-1.59.53-1.93-3.26-.87-6.45-2.02-9.8-2.51s-6.89.2-10.36.63c-7.53.93-15.23-.59-22.63-1.93-1.26-.23-1.8,1.7-.53,1.93h0Z"/>
        <path class="cls-9" d="M50.02,304.53c-.02-3.27,5.71-.89,7.28-.58,2.71.54,5.46.63,8.2.29.43-.05.86-.27.96-.73.26-1.12.24-2.2-.1-3.29l-.7,1.23c1.01-.37,1.95-.52,3.02-.45l-.86-.5c.42.63-.04,1.65.34,2.38.41.79,1.18.98,2,.98,2.86-.01,5.75-.32,8.61-.48,1.28-.07,2.6-.24,3.87-.07,1.37.17,2.5.96,3.71,1.56,2.41,1.18,5.04,1.75,7.72,1.73l-.71-1.71c-.84.91-1.68,1.82-2.53,2.73s.54,2.36,1.41,1.41,1.68-1.82,2.53-2.73c.58-.62.19-1.71-.71-1.71-1.58.01-3.13-.18-4.64-.65-1.41-.43-2.64-1.16-3.95-1.8-2.59-1.27-5.36-.85-8.15-.69-1.52.08-3.03.17-4.55.25-.8.04-1.59.1-2.39.13-.62.03-.46.06-.45-.54.01-.83-.07-1.95-1-2.27-1.1-.38-2.79.11-3.82.49-.49.18-.87.68-.7,1.23.24.77.28,1.45.1,2.23l.96-.73c-1.87.23-3.74.29-5.62.09s-3.77-.81-5.68-1.26c-2.59-.61-6.2.15-6.19,3.45,0,1.29,2.01,1.29,2,0h0Z"/>
      </g>
    </g>
    <g>
      <path class="cls-23" d="M35.9,289.57c1.84.9,3.03,2.63,4.74,3.74,1.77,1.14,3.84,1.5,5.76.54.77-.38.86-1.36.54-2.05-1.74-3.7-5.95-4.18-9.15-6.01l-1.16,2.74c2.21.83,4.22,2.02,6.08,3.48s3.44,2.21,5.86,1.68c2.49-.54,4.89-.56,7.42-.69,2.36-.13,4.66-.63,7.03-.7,2.32-.06,4.64-.13,6.96-.05,2.45.08,4.74.63,7.15.99,2.45.37,4.93.42,7.38.77,1.79.26,4.38,1.45,5.77-.32.75-.96.36-2.58-1.06-2.56-4.96.08-9.91.04-14.87-.11s-9.69-.5-14.54-.57c-2.32-.03-4.64-.38-6.97-.26-2.23.11-4.28.72-6.32,1.62-4.05,1.79-7.62,4.48-11.31,6.88l1.51,2.59c2.83-2.09,5.94-3.58,9.35-4.44,1.65-.42,1.29-2.94-.4-2.95-2.61,0-4.89,1.15-7.11,2.42l1.51,2.59c5.03-3.8,11.2-4.63,17.21-5.87,3.16-.65,6.17-1.09,9.4-.6,1.37.21,2.84.9,4.23.82,1.27-.08,2.23-1.18,3.45-1.24,1.95-.11,1.91-2.82,0-3-2.42-.23-4.84-.46-7.25-.68-1.92-.18-1.91,2.82,0,3,2.42.23,4.84.46,7.25.68v-3c-.73.04-1.35.2-2.01.51-.47.22-1.06.71-1.59.76-.59.05-1.43-.37-2.02-.5-.76-.16-1.53-.29-2.3-.38-3.43-.42-6.61.05-9.96.74-6.25,1.28-12.69,2.22-17.92,6.17-1.5,1.13-.21,3.58,1.51,2.59,1.75-1,3.52-2.01,5.59-2.01l-.4-2.95c-3.63.92-7.05,2.52-10.07,4.75-1.52,1.12-.14,3.66,1.51,2.59,3.57-2.32,7.03-4.93,10.92-6.71,2.13-.97,4.23-1.45,6.58-1.41,2.18.03,4.35.29,6.53.28,4.69-.02,9.4.45,14.09.58,4.79.14,9.58.17,14.37.09l-1.06-2.56c-.23.29-2.35-.37-2.85-.45-1.05-.16-2.1-.27-3.16-.36-2.36-.21-4.63-.49-6.96-.94-4.27-.83-8.75-.67-13.07-.48-2.21.1-4.37.59-6.58.69-2.31.1-4.62.06-6.89.57-1.03.23-1.88.54-2.85,0s-1.73-1.33-2.61-1.96c-1.77-1.26-3.72-2.22-5.75-2.99-1.61-.61-2.6,1.91-1.16,2.74,2.64,1.51,6.65,1.92,8.07,4.94l.54-2.05c-1.39.69-2.95-.63-3.9-1.51-1.12-1.03-2.19-2.1-3.56-2.77-1.73-.84-3.25,1.74-1.51,2.59h0Z"/>
      <path class="cls-9" d="M39.11,286.41c1.79,1.23,3.56,2.48,5.36,3.68,1.69,1.13,3.37,1.83,5.43,1.61,2.25-.24,4.45-.84,6.71-1.1,2.18-.25,4.36-.38,6.55-.39,9.02-.03,17.92,1.79,26.93,2.15l-.96-.73c.53,3.01-12.86.77-14.46.54-5.05-.72-10.05-.94-15.14-.72-2.53.11-5.07.23-7.59.47-2.3.22-4.05,1.04-5.93,2.36-3.88,2.72-8.1,4.75-12.69,5.98l.53,1.93c1.96-.79,2.04-2.58,3.02-4.19.62-1.03,1.83-1.49,2.85-2.02,1.41-.73,2.82-1.47,4.23-2.2.78-.41.55-1.6-.24-1.83-3.66-1.07-6.87-3.09-9.44-5.9l-.44,1.67c1.9-.58,3.8-1.17,5.71-1.75,1.23-.38.7-2.31-.53-1.93-1.9.58-3.8,1.17-5.71,1.75-.74.23-.95,1.11-.44,1.67,2.79,3.06,6.35,5.25,10.32,6.41l-.24-1.83c-1.27.66-2.54,1.32-3.81,1.98-1.02.53-2.14,1-3.01,1.77-.67.58-1.08,1.32-1.42,2.13-.31.73-.57,2.01-1.39,2.34-1.16.47-.75,2.27.53,1.93,3.72-.99,7.31-2.48,10.6-4.48,1.66-1,3.18-2.36,4.94-3.17,1.98-.91,4.54-.75,6.68-.89,4.36-.27,8.74-.45,13.1-.11,4.21.32,8.35,1.21,12.56,1.54,2.88.23,10.18.9,9.33-3.97-.08-.44-.55-.72-.96-.73-8.68-.35-17.26-2.05-25.95-2.15-4.23-.05-8.44.36-12.6,1.18-1.21.24-2.45.54-3.68.21-.87-.23-1.63-.76-2.37-1.25-1.8-1.21-3.57-2.46-5.36-3.68-1.06-.73-2.06,1-1.01,1.73h0Z"/>
    </g>
    <g>
      <path class="cls-23" d="M57.61,314.53c.82-.67,2.2-.49,3.18-.55,1.28-.08,2-.35,2.88-1.26.73-.75,1.83-.43,2.8-.29,1.52.22,3.04.41,4.57.58,3.03.34,6.07.57,9.12.7,1.56.07,3.13.11,4.69.12.82,0,1.65,0,2.47,0,.44,0,1-.08,1.34.25l.66-2.51c-4.83.86-9.47.36-14.19-.82-3.8-.95-9.31-2.54-12.78.14-.78.61-1.15,2.07,0,2.59,1.51.69,2.98.87,4.6.49,1.88-.44,1.08-3.34-.8-2.89-.78.19-1.55.15-2.29-.19v2.59c1.7-1.31,4.19-1.1,6.2-.78,2.2.35,4.34,1,6.51,1.48,4.48,1,9.02,1.08,13.54.28,1.13-.2,1.42-1.77.66-2.51-.97-.93-2.16-1.12-3.46-1.12-1.81-.01-3.62,0-5.44-.06-3.62-.11-7.24-.36-10.84-.76-1.75-.19-3.49-.47-5.24-.68-1.25-.15-2.57-.09-3.63.67-.33.24-.7.82-.94.95-.46.23-1.41.07-1.92.11-1.46.1-2.69.42-3.83,1.36-1.49,1.23.64,3.34,2.12,2.12h0Z"/>
      <path class="cls-9" d="M63.47,310.4c4.42.34,8.84.69,13.26,1.03l6.39.5c1.06.08,6.72-.07,6.19,1.73l.7-.7c-3.09.46-6.19.92-9.32.97-3.22.06-6.36-.49-9.53-.95-5.81-.85-11.32-.63-16.54,2.31.5.29,1,.58,1.5.86-.08-1.67.08-3.29.5-4.91l-.7.7c1.45-.27,2.83.72,4.31.31.57-.16,1.06-.46,1.51-.84.47-.4,1.33-1.57,2.07-1.14,1.12.64,2.13-1.09,1.01-1.73-1.56-.89-2.93.03-4.1,1.1-.89.82-1.6.75-2.73.5-.89-.2-1.7-.3-2.6-.13-.33.06-.62.39-.7.7-.47,1.79-.66,3.6-.57,5.44.04.75.82,1.25,1.5.86,2.5-1.41,5.26-2.31,8.13-2.52,3.11-.22,6.18.3,9.24.77,2.87.44,5.73.76,8.64.63,2.98-.13,5.94-.57,8.89-1.01.34-.05.61-.39.7-.7.62-2.12-1.2-3.54-3.1-3.84-2.61-.41-5.33-.45-7.97-.65-5.57-.43-11.14-.87-16.7-1.3-1.28-.1-1.28,1.9,0,2h0Z"/>
    </g>
    <g>
      <path class="cls-23" d="M45.07,296.78c7.16.91,14.41,2.14,21.65,1.83,1.77-.08,3.5-.34,5.25-.51,1.82-.18,3.51.34,5.3.46,3.62.25,7.36-.14,10.98-.25l-.4-2.95c-3.44.61-6.88,1.29-10.34,1.8-3.46.51-6.76.31-10.19-.27-3.07-.52-6.17-1.06-9.29-.66-1.54.2-3,.61-4.4,1.29-1.32.65-2.52,1.55-3.92,2.03l1.46,2.51c2.64-2.97,6.65-4.56,10.62-3.92,1.93.31,2.58-2.15.8-2.89-1.17-.49-2.39-.7-3.65-.68-1.93.03-1.93,3.03,0,3,1.03-.02,1.9.17,2.85.57l.8-2.89c-5.01-.81-10.14.87-13.54,4.7-.92,1.04-.05,3.03,1.46,2.51,2.85-.98,5.06-2.98,8.16-3.29,3.28-.33,6.51.45,9.73.93,6.85,1.03,13.52-.64,20.25-1.83,1.67-.3,1.27-3-.4-2.95-3.62.11-7.36.5-10.98.25-1.72-.12-3.33-.62-5.07-.48-1.84.15-3.64.46-5.49.54-7.24.32-14.49-.92-21.65-1.83-1.91-.24-1.89,2.76,0,3h0Z"/>
      <path class="cls-9" d="M47.82,294.51c15.03,1.3,30.1,2.1,45.18,2.41l-.86-1.5c-.76,1.37-3.02,1.32-4.38,1.51-1.95.27-3.9.54-5.85.81-4.15.57-8.41,1.47-12.62,1.27-3.68-.17-7.11-1.46-10.83-.81-1.69.3-3.14,1.02-4.58,1.93-1.11.71-3.4,2.14-4.43.5l-.6,1.47c2.12-.33,3.79-1.92,4.34-3.98.18-.67-.32-1.22-.96-1.27-3.17-.25-6.34-.49-9.51-.74l1,1c.24-2.24,3.06-3.66,5.03-2.65,1.14.59,2.16-1.14,1.01-1.73-3.4-1.75-7.63.61-8.04,4.38-.06.57.51.96,1,1,3.17.25,6.34.49,9.51.74l-.96-1.27c-.39,1.45-1.48,2.35-2.94,2.58-.64.1-.91.97-.6,1.47.85,1.35,2.33,1.86,3.87,1.66,1.8-.23,3.14-1.49,4.7-2.3,4.18-2.17,8.64-.2,12.99,0,4.61.22,9.33-.82,13.88-1.44,2.3-.32,4.61-.58,6.9-.95,1.52-.25,3-.77,3.79-2.18.37-.67-.1-1.49-.86-1.5-15.08-.31-30.15-1.11-45.18-2.41-1.28-.11-1.27,1.89,0,2h0Z"/>
    </g>
    <g>
      <path class="cls-23" d="M41.76,306.17c-.07.62-.25,1.21-.46,1.8-.53,1.5,1.48,2.39,2.51,1.46.27-.25.48-.53.67-.85.08-.14.56-.86.12-.57-.32.08-.27.16.16.22.26.11.53.21.8.3.41.14.82.27,1.24.37,1.78.42,3.64.47,5.35-.23,1.43-.58,1.45-3.06-.4-2.95-2.23.14-4.45.27-6.68.41l.4,2.95c3.01-.93,6.02-1.67,9.18-1.33,1.59.17,3.15.46,4.76.41s3.34-.18,5.02-.1c5.47.25,11.54,1.01,15.83-3.19l-2.36-1.82c-.51.93-1.09,1.74-1.83,2.5l2.36,1.82c1.31-1.88,3.66-2.58,5.8-2.99,2.86-.55,5.84-.73,8.74-.49,1.92.16,1.91-2.84,0-3-3.38-.28-6.93,0-10.24.75-2.75.62-5.25,1.87-6.89,4.22-.98,1.41,1.19,3.03,2.36,1.82.9-.94,1.68-1.97,2.3-3.11.81-1.48-1.12-3.03-2.36-1.82-4.08,4-10.56,2.22-15.62,2.27-1.52.01-3.03.22-4.55.12-1.51-.09-3-.42-4.51-.48-3-.12-5.96.66-8.8,1.53-1.55.48-1.35,3.05.4,2.95,2.23-.14,4.45-.27,6.68-.41l-.4-2.95c-2.13.87-3.92.15-5.98-.51-.84-.27-1.72-.26-2.45.3-.61.47-.71,1.26-1.23,1.74.84.49,1.67.97,2.51,1.46.3-.85.46-1.7.57-2.6.22-1.91-2.78-1.9-3,0h0Z"/>
      <path class="cls-9" d="M48.5,305.91c7.85-.7,15.75.85,23.57-.36,3.82-.59,7.36-2.17,11.13-2.96,4.03-.84,8.16-.95,12.24-.45l-.96-1.27c-.62,1.51-2.14,2.42-3.69,2.74-1.93.4-3.78-.34-5.66-.65-1.47-.24-2.97-.25-4.35.38-.65.29-1.21.72-1.66,1.28-.51.65-.71,1.56-1.32,2.12-1.31,1.2-4.03.99-5.68,1.05-2.11.08-4.23.03-6.34-.06-4.14-.17-8.29-.5-12.43-.3-2.14.11-4.25.38-6.35.81-1.78.36-4.09.92-5.62-.38l.16,1.21c.99-1.65,1.51-3.44,1.57-5.37l-1.27.96c2.43.77,4.3,1.9,6.92,1.21,1.24-.33.72-2.26-.53-1.93-2.16.57-3.85-.57-5.85-1.21-.64-.2-1.25.34-1.27.96-.05,1.58-.48,3.01-1.3,4.36-.21.35-.17.93.16,1.21,2.95,2.5,6.89.86,10.26.43,4.61-.6,9.28-.27,13.9-.05,2.35.11,4.7.21,7.05.16,2.04-.04,4.37,0,6.33-.68.75-.26,1.44-.66,1.96-1.25.59-.67.78-1.61,1.4-2.23,1.51-1.52,4.1-.69,5.88-.29,3.8.84,8.02-.01,9.65-3.95.28-.67-.4-1.2-.96-1.27-3.88-.48-7.78-.38-11.63.3-3.88.69-7.49,2.31-11.36,3.03-7.9,1.46-15.99-.26-23.95.45-1.27.11-1.28,2.11,0,2h0Z"/>
    </g>
    <g>
      <path class="cls-23" d="M41.83,295.72c2.86-.02,5.59-.76,8.3-1.59,2.95-.9,5.9-1.81,8.84-2.72,1.82-.56,5.4-1.11,5.19-3.74-.09-1.1-.89-1.84-1.86-2.24-1.38-.56-2.89-.89-4.32-1.31l-.8,2.89c4.15.89,8.34,1.51,12.56,1.94,2.13.22,4.26.39,6.4.52,2.08.13,4.21.06,6.26.38,1.59.25,3.13.78,4.7,1.13,1.55.34,3.1.63,4.55,1.27,3.13,1.37,6.27.99,9.55,1.5,1.89.29,2.7-2.6.8-2.89-1.72-.27-3.43-.31-5.16-.4-1.55-.08-2.9-.47-4.31-1.08-1.42-.62-2.95-.91-4.46-1.24-1.63-.36-3.22-.9-4.87-1.17-1.94-.32-3.92-.32-5.88-.42-2.21-.12-4.42-.28-6.63-.49-4.27-.41-8.52-1.03-12.71-1.93-1.88-.4-2.66,2.34-.8,2.89,1.09.32,2.19.64,3.28.97-.07-.02.85.29.86.27.14-.72.02-.92-.37-.6-.23.08-.46.15-.69.22-2.02.63-4.04,1.24-6.06,1.86-4,1.23-8.16,2.96-12.39,2.99-1.93.01-1.93,3.01,0,3h0Z"/>
      <path class="cls-9" d="M81.24,287.72c3.66.76,7.23,1.91,10.86,2.81s7.49,1.72,11.26,2.5l-.7-.7c.25,1.38-3.66.31-4.17.21-1.6-.32-3.2-.67-4.79-1.03-2.94-.67-5.86-1.42-8.77-2.24-3.46-.97-6.98-1.41-10.53-1.87-3.12-.4-6.61-1-9.74-.33-1.07.23-1.51.74-2.28,1.42-1.12,1-2.9,1.44-4.3,1.87-5.74,1.76-11.74,2.73-17.64,3.75l1.27.96c-.08-1.04,5.55-1.88,6.32-2.05,2.4-.51,4.81-.98,7.2-1.55,1.93-.46,4.36-.91,5.95-2.16.56-.44,1.19-1.17.75-1.9s-1.25-.45-1.93-.5l.96,1.27v-.02c.13-.42-.08-.91-.45-1.13-1.06-.62-2.21-.82-3.41-.97-.66-.08-1.32-.14-1.97-.27-.28-.06-.57-.12-.84-.22l-.34-.13c-.29-.23-.32-.16-.08.19l-.29.71c.48-.59,2.82-.38,3.54-.37,1.07.01,2.15.1,3.21.2,2.22.21,4.42.49,6.66.46,4.79-.05,9.56.13,14.27,1.06,1.26.25,1.8-1.68.53-1.93-3.77-.75-7.61-1.07-11.45-1.13-1.96-.03-3.93.06-5.89-.07-1.84-.12-3.66-.39-5.5-.52-1.2-.08-8.27-.62-6.96,2.22.45.98,1.84,1.31,2.79,1.48,1.57.29,3.32.19,4.73,1.01l-.46-1.13v.02c-.2.66.33,1.22.96,1.27.25.02.59-.09.8-.03l-.7-.7.02.05.1-.77c-.46.73-1.8,1-2.54,1.25s-1.56.47-2.35.67c-2.06.52-4.14.93-6.22,1.36-1.95.41-3.9.8-5.82,1.34-1.48.41-3.72,1.03-3.57,2.98.05.69.59,1.08,1.27.96,5.69-.99,11.44-1.95,16.99-3.56,1.69-.49,3.49-1.02,4.99-1.96.96-.6,1.19-1.31,2.25-1.53,1.55-.33,3.25-.17,4.81-.06,1.87.13,3.72.36,5.58.62,1.26.17,2.52.36,3.78.51,3.08.37,6.06,1.44,9.05,2.21,3.48.9,6.98,1.69,10.51,2.38,1.36.27,2.94.72,4.25.04,1.13-.59,1.64-1.67,1.42-2.9-.06-.32-.39-.63-.7-.7-3.76-.78-7.53-1.57-11.26-2.5-3.63-.91-7.2-2.05-10.86-2.81-1.26-.26-1.79,1.67-.53,1.93Z"/>
    </g>
    <g>
      <path class="cls-23" d="M22.07,327.25c3.98-1.64,7.94-3.31,11.89-5.01,1.53-.66,3.23-1.36,4.17-2.82,1.12-1.73.39-3.71-.48-5.36-.28-.53-1.11-.93-1.69-.69-3.2,1.31-6.4,2.6-9.62,3.88l1.16,2.74,8.5-4.14c1.34-.65,2.68-1.31,4.02-1.96,1.39-.68,2.87-1.65,4.46-1.7l-.76-2.8c-.93.47-1.74,1.09-2.44,1.86-1.02,1.11-.02,2.85,1.46,2.51,6.19-1.44,12.12-3.75,17.95-6.27,2.52-1.09,5.04-2.18,7.55-3.31,1.57-.7,2.25-1.93,2.93-3.45.79-1.75-1.8-3.27-2.59-1.51-.27.59-.64,1.52-1,1.89-.21.22-.72.42-1.17.61-2.57,1.09-5.1,2.26-7.67,3.36-5.45,2.34-11.01,4.43-16.8,5.78l1.46,2.51c.55-.59,1.12-1.02,1.84-1.39,1.33-.68.7-2.84-.76-2.8-1.61.05-2.98.66-4.41,1.35-1.56.76-3.13,1.52-4.69,2.28-3.13,1.53-6.26,3.05-9.39,4.58-1.51.73-.43,3.37,1.16,2.74,3.21-1.27,6.42-2.56,9.62-3.88l-1.69-.69c.28.53.81,1.36.65,1.98s-.92.98-1.41,1.25c-1.3.7-2.71,1.22-4.07,1.79-2.98,1.27-5.97,2.52-8.96,3.76-1.76.73-.99,3.63.8,2.89h0Z"/>
      <path class="cls-9" d="M33.02,314.8c6.78-2.95,13.83-5.09,20.87-7.31,3.35-1.06,6.75-2.08,9.99-3.43,2.83-1.18,5.45-2.76,7.14-5.39l-1.57.2c.75.87.11,2.1-.63,2.74-.9.79-2.13,1.22-3.21,1.69-2.49,1.08-4.97,2.16-7.46,3.24-2.41,1.05-4.82,2.1-7.23,3.14-1.97.86-3.95,1.92-6.04,2.47-1.56.4-3.16.68-4.68,1.23-1.1.39-2.4,1-2.36,2.37.02.65.4,1.18.67,1.75.21.43.23.39.04.79-.21.43-.78.87-1.11,1.2-1.45,1.41-3.17,2.48-5,3.34-4.2,1.96-8.91,2.69-13.46,3.36l1.13.46c-.61-1.41,3.41-2.37,4.14-2.6,2.09-.67,4.18-1.34,6.27-2,2.35-.75,6.5-2.03,5.57-5.34-.11-.4-.53-.76-.96-.73-3.4.2-6.64,1.1-9.65,2.69l1.37.36c-.93-1.5,1.66-2.45,2.66-2.71,1.37-.36,2.62-.72,3.72-1.65.98-.83-.44-2.24-1.41-1.41-1.59,1.35-3.97,1.04-5.6,2.39-1.31,1.08-2.05,2.85-1.09,4.4.29.47.88.62,1.37.36,2.69-1.42,5.6-2.24,8.64-2.42l-.96-.73c.48,1.7-2.86,2.46-3.94,2.81-2.09.67-4.18,1.34-6.27,2-2.42.77-7.07,2.13-5.57,5.62.19.44.73.52,1.13.46,4.39-.65,8.82-1.38,12.94-3.12,1.97-.83,3.82-1.89,5.47-3.25,1.23-1.02,3.22-2.55,2.72-4.37-.09-.32-.87-1.45-.77-1.68.16-.35,1.61-.62,1.94-.72,1.54-.44,3.17-.66,4.68-1.21,2.54-.92,5-2.16,7.48-3.24,2.71-1.18,5.42-2.36,8.13-3.54,1.51-.66,3.01-1.31,4.52-1.97,1.21-.53,2.45-1.02,3.47-1.88,1.71-1.44,2.31-3.91.78-5.7-.44-.51-1.25-.3-1.57.2-1.7,2.65-4.64,4.03-7.5,5.08-3.32,1.23-6.7,2.28-10.07,3.34-6.67,2.09-13.29,4.2-19.7,7-1.18.51-.16,2.24,1.01,1.73h0Z"/>
    </g>
    <g>
      <path class="cls-23" d="M92.04,287.97c-7.56-.1-14.95.66-22.43,1.64-1.68.22-3.4.38-5.1.24-1.78-.15-3.31-.97-5-1.44-1.54-.43-3.15-.43-4.74-.44-1.97-.02-3.93-.03-5.9-.05-1.65-.01-2.09,2.61-.4,2.95,2.69.53,5.41.49,8.13.71,1.4.12,2.79.35,4.11.84s2.47,1.17,3.76,1.65c2.63.97,5.49,1.04,8.22.51s5.52-1.75,8.39-2.08l-.4-2.95c-3.14.87-6.35,1.24-9.61,1.04-3.32-.2-6.53-1.3-9.86-1.32-1.57-.01-3.08.28-4.53.86s-2.82,1.13-4.41,1.32c-2.87.33-5.8.47-7.95,2.67-1.35,1.38.77,3.51,2.12,2.12,1.97-2.02,5.23-1.55,7.78-2.08,1.42-.29,2.68-.99,4.05-1.44,1.56-.52,3.18-.52,4.8-.32,3.07.38,6.03,1.17,9.15,1.24s6.25-.36,9.25-1.2c1.57-.44,1.33-3.14-.4-2.95-2.71.3-5.24,1.22-7.87,1.88-2.81.71-5.67.74-8.38-.39-1.19-.5-2.31-1.12-3.53-1.55-1.24-.43-2.53-.64-3.82-.79-2.73-.31-5.51-.15-8.22-.69l-.4,2.95c1.88.02,3.77.03,5.65.05,1.72.01,3.35.02,4.99.6,1.6.56,3.08,1.1,4.78,1.27,1.77.18,3.56.01,5.32-.21,7.49-.96,14.87-1.74,22.43-1.64,1.93.03,1.93-2.97,0-3h0Z"/>
      <path class="cls-9" d="M60.07,294.01c5.52-.18,11.08.37,16.58-.17,2.84-.28,5.54-.97,8.3-1.64,3.27-.8,6.71-.23,10-.96.64-.14.91-.93.6-1.47-1.52-2.6-4.76-2.68-7.44-2.47-3.97.3-7.88,1.08-11.83,1.55s-8.11.43-12.19-.25c-3.77-.63-7.53-1.51-11.37-1.63-1.73-.05-3.89-.16-5.42.81-1.32.85-1.8,2.39-1.14,3.8.14.3.54.52.86.5,3.76-.24,7.52-.48,11.28-.73l-.5-1.86c-3.14,1.66-6.49,2.83-9.99,3.43-1.97.34-5.84.4-5.3,3.44.16.91.82,1.67,1.78,1.72.72.04,1.59-.34,2.28-.52.95-.25,1.9-.5,2.85-.74,3.64-.95,7.27-1.9,10.91-2.85,1.24-.33.72-2.25-.53-1.93-2.77.72-5.53,1.45-8.3,2.17-1.34.35-2.69.7-4.03,1.05-.71.19-1.42.37-2.13.56-.26.07-1.16.56-.84-.07.39-.77,2.47-.68,3.18-.79,1.27-.19,2.53-.46,3.77-.79,2.56-.69,5.03-1.7,7.38-2.95.86-.45.49-1.93-.5-1.86-3.76.24-7.52.48-11.28.73l.86.5c-.88-1.87,4.29-1.63,5.06-1.6,2.09.08,4.16.4,6.21.76,4.03.71,8.04,1.55,12.15,1.48s8.08-.81,12.09-1.38c2.04-.29,4.11-.58,6.17-.62,1.53-.03,3.4.1,4.25,1.57l.6-1.47c-3.14.7-6.41.2-9.56.86-2.88.61-5.62,1.45-8.57,1.71-5.39.47-10.83-.04-16.23.13-1.28.04-1.29,2.04,0,2h0Z"/>
    </g>
    <g>
      <path class="cls-23" d="M107.41,296.26c-6.25-.43-12.66-.68-18.44,2.12-1.46.71-.58,2.68.76,2.8,1.53.13,2.79,1.38,4.05,2.15,1.45.89,3.08,1.43,4.75,1.73,3.62.65,7.38.65,11.04.88v-3c-4.61.01-9.29.04-13.79-1.11-1.1-.28-2.19-.62-3.24-1.06s-2.03-1.13-3.11-1.46c-1.93-.59-4.06.43-4.12,2.59-.02.69.49,1.23,1.1,1.45,1.25.43,2.54.58,3.85.42,1.63-.2,2.1-2.38.4-2.95-4.16-1.39-8.49-.21-12.71.18-4.46.41-8.94.34-13.38-.16-1.66-.19-2.07,2.68-.4,2.95,3.53.57,7.08.85,10.65.8,1.36-.02,1.9-1.6,1.06-2.56-2.29-2.61-6.21-2.06-9.3-1.8-1.97.17-3.96.33-5.91.64-1.43.23-2.85.89-3.19,2.43-.18.8.24,1.6,1.05,1.85,3.02.9,5.83-.58,8.31-2.19,1.61-1.05.11-3.65-1.51-2.59-1.76,1.14-3.82,2.53-6,1.89l1.05,1.85c.09-.41,2.36-.49,2.85-.54,1.44-.16,2.88-.3,4.32-.41,1.97-.15,4.75-.67,6.21,1l1.06-2.56c-3.3.05-6.59-.16-9.85-.69l-.4,2.95c4.29.48,8.61.57,12.91.2,4.05-.34,8.41-1.66,12.39-.32l.4-2.95c-1.09.14-2.01.05-3.05-.31l1.1,1.45c-.22.25-.11.35.32.3.21.09.42.2.62.31.45.23.89.46,1.35.67.76.35,1.55.66,2.34.94,1.75.61,3.57,1,5.4,1.26,3.72.54,7.47.57,11.22.56,1.95,0,1.91-2.88,0-3-3.65-.22-7.52-.12-11.09-.94-1.7-.39-3.06-1.17-4.5-2.13-1.33-.89-2.63-1.55-4.25-1.68l.76,2.8c5.24-2.53,11.29-2.1,16.92-1.71,1.93.13,1.92-2.87,0-3h0Z"/>
      <path class="cls-9" d="M66.61,305.02c8.14-.47,16.3-.44,24.44.12,4.07.28,8.12.68,12.16,1.22,1.61.22,3.54.8,5.14.26,1.38-.47,2.08-1.75,1.86-3.15-.07-.45-.56-.71-.96-.73-4.95-.32-9.81-1.49-14.35-3.49l-.24,1.83c4.74-.65,9.52-.88,14.3-.73.68.02,1.09-.65.96-1.27l-.56-2.69c-.09-.43-.54-.73-.96-.73-5.4-.1-10.93-.01-16.28.78-1.16.17-2.23.5-3.24,1.09-1.2.69-2.21,1.46-3.59,1.76-2.57.55-5.46.32-8.07.22-4.69-.17-9.5-1.08-14.16-.13-1.03.21-2.02.53-2.97.96-.84.38-2.06.9-2.46,1.78-.55,1.21-.72,3.02.5,3.87,1.16.8,2.68.44,3.83-.14,1.73-.87,3.21-1.15,5.19-.95,1.28.13,1.27-1.87,0-2-2.04-.21-3.9.03-5.72.97-.44.23-.87.52-1.38.57-1.31.13-.77-.95-.49-1.79l-.46.6c3.27-2.36,7.31-2.42,11.18-2.19,4.21.25,8.39.63,12.61.47,1.97-.07,3.86-.35,5.57-1.37.9-.54,1.71-1.17,2.72-1.48s2.15-.39,3.22-.49c4.65-.44,9.32-.61,13.98-.52l-.96-.73.56,2.69.96-1.27c-4.97-.16-9.91.12-14.83.8-.83.11-.99,1.5-.24,1.83,4.89,2.15,10.04,3.42,15.36,3.76l-.96-.73c.24,1.5-4.36.46-5.07.36-1.7-.23-3.4-.43-5.1-.61-3.49-.37-6.98-.64-10.48-.82-7-.36-14.02-.32-21.02.09-1.28.07-1.29,2.07,0,2h0Z"/>
    </g>
    <g>
      <path class="cls-23" d="M43.88,312.63c1.03-1.77,3.05-2.35,4.97-2.53,2.27-.21,4.58-.15,6.85-.16,4.84-.02,9.68.11,14.52.38,1.93.11,1.92-2.89,0-3-5.49-.3-10.99-.43-16.49-.36-4.39.05-9.91-.2-12.44,4.16-.97,1.67,1.62,3.18,2.59,1.51h0Z"/>
      <g>
        <path class="cls-9" d="M43.61,314.55c.26-2.96,4.13-3.13,6.33-3.14,3.03,0,6.05,0,9.08,0s5.91,0,8.86,0c1.19,0,2.76.29,3.87-.25s.81-1.53,1.41-2.38c.32-.45.07-1.1-.36-1.37-5.54-3.53-11.93-.95-17.92-.78-5,.14-12.14-1.43-14.86,4.25-.55,1.16,1.17,2.17,1.73,1.01,2.44-5.1,9.69-3.01,14.08-3.31,5.24-.36,11.14-2.52,15.97.55l-.36-1.37c-.28.4-.25,1.13-.5,1.44-.35.42-1.55.2-2.06.2-1.64,0-3.28,0-4.92,0-3.2,0-6.4,0-9.6,0-4.25,0-12.2-.94-12.74,5.13-.11,1.28,1.89,1.27,2,0h0Z"/>
        <path class="cls-9" d="M39.83,312.03c.17,1.09.45,2.16.83,3.19.09.25.22.46.46.6.21.13.53.18.77.1.48-.15.89-.71.7-1.23-.38-1.03-.66-2.1-.83-3.19-.04-.23-.27-.48-.46-.6-.21-.13-.53-.18-.77-.1s-.48.23-.6.46c-.13.25-.14.49-.1.77h0Z"/>
      </g>
    </g>
    <g>
      <path class="cls-17" d="M68.06,285.27c1.66-.09,2.83-.88,3.62-2.33.15-.28.29-.56.44-.84.07-.12.14-.24.22-.36.02-.03.27-.34.11-.16.46-.53,1.02-.71,1.69-1.13,2.92-1.85,5.08-4.81,8.18-6.38,1.72-.87.21-3.46-1.51-2.59-3,1.52-5.12,4.32-7.88,6.18-.67.45-1.4.76-2.03,1.27-.55.44-.98,1-1.34,1.61-.28.48-.49.99-.81,1.45.19-.27-.04.04-.08.08-.22.25.16-.12-.08.08-.23.18.14-.01-.13.07s-.19.06-.41.07c-.81.04-1.5.66-1.5,1.5,0,.78.69,1.54,1.5,1.5h0Z"/>
      <path class="cls-17" d="M82.19,289.23c-6.31,8.33-3.97,19.28-1.64,28.57.84-.49,1.67-.97,2.51-1.46-3.48-4.07-4.71-9.74-3.35-14.9.49-1.87-2.4-2.67-2.89-.8-1.65,6.25-.06,12.91,4.12,17.82,1.02,1.19,2.85-.09,2.51-1.46-2.15-8.56-4.49-18.57,1.33-26.26,1.17-1.54-1.44-3.03-2.59-1.51h0Z"/>
      <path class="cls-17" d="M51,288.37l-2.71,7.28c.98.13,1.96.27,2.95.4.21-2.06.75-4.05,1.53-5.97.73-1.79-2.17-2.56-2.89-.8-.86,2.08-1.77,4.14-2.56,6.24-.67,1.77-1.07,3.7-.33,5.52.59,1.47,2.98,1.43,2.95-.4-.01-.8.15-1.44.56-2.14l-2.8-.76c.11,1.41.12,2.81-.02,4.22s-.5,2.79-.57,4.21c-.14,2.61,1.18,4.77,1.64,7.25.42,2.28-.24,4.97,2.05,6.48,2.21,1.46,4.54-.11,6.08-1.77.93-1,.22-2.45-1.06-2.56-2.32-.2-4.29-1.4-5.7-3.21-1.19-1.52-3.3.62-2.12,2.12,1.92,2.45,4.75,3.83,7.82,4.09l-1.06-2.56c-.4.43-1.32,1.59-2.05,1.48-.88-.13-.81-1.65-.83-2.25-.06-1.92-.44-3.55-1.06-5.36-.68-1.99-.76-3.58-.42-5.66s.48-4.3.32-6.48c-.11-1.43-2-2.11-2.8-.76-.67,1.13-.99,2.34-.97,3.65l2.95-.4c-.65-1.61.02-3.17.64-4.69.74-1.83,1.51-3.65,2.26-5.47l-2.89-.8c-.89,2.18-1.4,4.43-1.64,6.77-.18,1.79,2.4,1.87,2.95.4l2.71-7.28c.67-1.81-2.22-2.59-2.89-.8h0Z"/>
      <path class="cls-17" d="M52.33,288.68c10.12-1.28,20.33-1.66,30.51-1.13,1.93.1,1.92-2.9,0-3-10.19-.53-20.39-.15-30.51,1.13-1.89.24-1.91,3.24,0,3h0Z"/>
    </g>
    <g>
      <path class="cls-9" d="M80.38,317.99c-.23-2.8-.94-5.49-1.54-8.22s-.88-5.57-.65-8.43c.37-4.5,1.79-9.68,5.19-12.87.94-.88-.48-2.29-1.41-1.41-3.51,3.29-5.08,8.42-5.65,13.06-.35,2.81-.25,5.63.24,8.42.56,3.17,1.56,6.24,1.83,9.45.1,1.27,2.1,1.29,2,0h0Z"/>
      <path class="cls-9" d="M84.29,288.34c-.51.13-.75.39-.71.79,0,.27-.03.53-.11.79-.08.34-.19.67-.3,1-.23.69-.5,1.37-.78,2.04-.55,1.3-1.15,2.58-1.7,3.89-1.09,2.61-1.81,5.3-1.94,8.14-.2,4.46.68,10.06,4.03,13.33v-1.41c-.85.68-1.82,1.07-2.91.87-1.26-.23-1.8,1.7-.53,1.93,1.87.34,3.4-.21,4.86-1.39.42-.34.35-1.07,0-1.41-1.9-1.86-2.72-4.64-3.16-7.2-.53-3.1-.4-6.33.5-9.35s2.63-5.99,3.64-9.11c.41-1.26.77-2.95-.14-4.09-.74-.92-1.85-.78-2.46.17-.7,1.08,1.03,2.09,1.73,1.01h0Z"/>
    </g>
    <g>
      <path class="cls-9" d="M48.89,288.06c-4.45,6.01-2.9,14.71-2.42,21.63.23,3.21.13,6.74,2.32,9.34,1.67,1.99,4.24,2.83,6.65,1.73,1.17-.53.15-2.26-1.01-1.73-2.17.99-4.27-.96-5.06-2.84-.58-1.38-.65-2.92-.75-4.39-.12-1.64-.23-3.28-.35-4.91-.41-5.8-1.36-12.81,2.34-17.81.77-1.04-.97-2.03-1.73-1.01h0Z"/>
      <path class="cls-9" d="M49.76,288.72l4.71,2.92.24-1.83c-2.62.86-5.06,2.64-5.33,5.54-.32,3.49-.47,7.08-.5,10.58-.02,2.91.27,6.09,1.9,8.59.64.98,1.47,1.85,2.55,2.32.68.3,1.4.4,2.13.41.55.01,2.01-.36,2.48-.01l-.46-.6c.09.26-4.53,2.44-4.97,2.67-1.14.59-.13,2.32,1.01,1.73,1.17-.61,8.3-3.31,5.43-5.53-1.18-.91-3.09,0-4.46-.37-1.52-.42-2.39-2.07-2.87-3.45-1.21-3.43-.71-7.32-.53-10.88.09-1.83.07-3.72.3-5.54s2.21-3,3.85-3.54c.82-.27.99-1.36.24-1.83l-4.71-2.92c-1.1-.68-2.1,1.05-1.01,1.73h0Z"/>
    </g>
    <path class="cls-9" d="M52.04,288.28c2.19-1.28,4.71-1.37,7.18-1.39,2.79-.02,5.57-.02,8.36.01,2.73.03,5.46.11,8.18.28,2.22.14,5.48-.1,7.12,1.7.87.95,2.28-.46,1.41-1.41-1.67-1.84-4.24-1.96-6.55-2.14-3.21-.25-6.44-.37-9.66-.41s-6.19-.05-9.28-.02c-2.7.03-5.4.28-7.77,1.66-1.11.65-.11,2.38,1.01,1.73h0Z"/>
    <path class="cls-9" d="M66.48,286.41c4.8-4.86,10.47-8.75,15.27-13.61.9-.92-.51-2.33-1.41-1.41-4.8,4.86-10.47,8.75-15.27,13.61-.9.92.51,2.33,1.41,1.41h0Z"/>
    <path class="cls-3" d="M61.65,252.97c1.55-2.41,3.84-8.01,6.73-8.88,3.05-.92,7.88.34,11.1.49,7.75.37,15.51.74,23.26,1.11,7.75.37,15.51.74,23.26,1.11,3.33.16,8.12-.48,10.8,1.53,2.21,1.66,2.98,4.04,5.64,5.24l1.51-5.59c-14.11,1.1-28.58,3.22-42.72,1.94-13.92-1.26-27.46-2.62-41.48-2.3.71,1.71,1.41,3.41,2.12,5.12,9.81-9.25,26.37-2.65,38.07-1.45,7.11.73,14.25,1.02,21.39,1.16,5.26.1,10.94.79,15.58-2.16,2.47-1.57,1.54-5.59-1.51-5.59-6.29-.01-12.58-.02-18.86-.03-3.86,0-3.87,5.99,0,6,6.29.01,12.58.02,18.86.03-.5-1.86-1.01-3.73-1.51-5.59-3.13,1.99-7.05,1.42-10.6,1.37-3.57-.05-7.15-.14-10.72-.3-7.79-.34-15.54-1.05-23.24-2.36-11-1.87-22.83-3.69-31.7,4.68-1.88,1.77-.45,5.18,2.12,5.12,14.02-.32,27.56,1.04,41.48,2.3,14.14,1.28,28.62-.84,42.72-1.94,2.65-.21,4.48-4.24,1.51-5.59s-3.82-4.85-6.82-6.25c-3.2-1.5-7.29-1.09-10.71-1.25-9.37-.45-18.74-.89-28.11-1.34-9.37-.45-18.74-.95-28.11-1.34-2.84-.12-5.72-.37-8.1,1.44-3.12,2.37-5.08,7.06-7.16,10.3-2.09,3.26,3.1,6.27,5.18,3.03h0Z"/>
    <g>
      <path class="cls-9" d="M63.83,240.34c19.46-.1,38.91.51,58.36,1.19,5.27.18,10.54.38,15.81.58,1.29.05,1.29-1.95,0-2-19.55-.75-39.1-1.44-58.66-1.7-5.17-.07-10.34-.1-15.51-.08-1.29,0-1.29,2.01,0,2h0Z"/>
      <path class="cls-9" d="M54.51,254.64c24.25.4,48.5.27,72.75.43,6.47.04,12.94.11,19.41.21,1.29.02,1.29-1.98,0-2-24.25-.4-48.5-.27-72.75-.43-6.47-.04-12.94-.11-19.41-.21-1.29-.02-1.29,1.98,0,2h0Z"/>
      <path class="cls-9" d="M137.89,241.15c2.11,4.93,4.98,9.61,8.83,13.38.92.9,2.33-.51,1.41-1.41-3.73-3.66-6.46-8.2-8.51-12.98-.21-.5-.94-.6-1.37-.36-.52.29-.57.87-.36,1.37h0Z"/>
      <path class="cls-9" d="M63.33,240.21c-3.75,4.23-7.19,8.74-10.27,13.48-.7,1.08,1.03,2.09,1.73,1.01,2.99-4.6,6.32-8.97,9.96-13.08.85-.96-.56-2.38-1.41-1.41h0Z"/>
    </g>
    <g>
      <path class="cls-15" d="M94.86,252.85c0,1.62-.54,4.22.83,5.45.68.62,1.6.7,2.42,1.05.87.38,1.59.97,2.22,1.67l-.23-1.82c-.28.64-1.76-1.87-1.92-2.12-.91-1.43-1.83-2.86-2.74-4.3l-.54,2.05c2.1-1.35,4.79-1.52,7.23-1.47,1.17.02,2.15.3,2.51,1.52.33,1.09-.02,2.21-.53,3.18-.26.5-.58.98-.9,1.44-.26.37-.94.96-1.09,1.35-.28.18-.14.2.44.05l-.07-.49c.04-.28-.03-.62-.03-.9,0-.68.04-1.36.04-2.04,0-2.34-.59-4.49-2.52-5.94-.63-.47-1.71-.12-2.05.54-1.18,2.23-1.28,5.37.97,7,1.78,1.3,4.69.98,5.85-1.01.6-1.04.58-2.35-.36-3.18-.51-.45-1.19-.68-1.81-.95-.67-.3-1.36-.7-2.1-.77-4.13-.39-1.04,5.59-.18,7.13.32.57,1.07.87,1.69.69,1.07-.32,1.61-1.13,1.83-2.19.28-1.35.43-2.77.59-4.14.29-2.38-.98-4.9-3.72-4.39l1.16,2.74c1.22-.55,2.52-.6,3.8-.26l.4-2.95c-2.47-.04-4.93-.03-7.4.07-1.8.07-4.25.67-3.95,3.02s2.85,2.14,4.55,2.12c2.45-.04,4.89-.35,7.28-.86l-1.46-2.51c-2.87,2.24-4.45,5.86-4.23,9.49.1,1.57,1.91,1.93,2.8.76.2-.27.53-.43.86-.47l-1.5-1.5c.02-.32-.08,0-.26.15-.21.17-.4.35-.62.51-.41.31-.85.58-1.28.85-.93.58-1.88,1.1-2.81,1.68-1.81,1.13-3.49,2.48-4.44,4.43-.72,1.45,1.14,3.14,2.36,1.82,2.33-2.52,4.37-5.28,6.08-8.26.69-1.21-.44-2.44-1.69-2.2-1.57.29-2.87,1.5-3.38,3.01s-.22,3.85,1.58,4.36c2.04.58,3.48-1.81,4.59-3.09,1.53-1.76,3.05-3.52,4.58-5.28l-2.51-1.46c-1.33,4.14-3.91,7.86-7.41,10.47-1.79,1.33-3.77,2.42-5.38,3.99s-2.78,3.71-3.82,5.79c.93.25,1.86.5,2.8.76.38-4.01,2.96-7.49,6.24-9.67l-2.05-2.05c-1.97,2.9-4.14,5.63-6.51,8.2-1.31,1.42.81,3.54,2.12,2.12,2.55-2.76,4.87-5.7,6.98-8.81.84-1.23-.82-2.87-2.05-2.05-4.24,2.82-7.25,7.13-7.73,12.26-.14,1.48,2.15,2.05,2.8.76,1.06-2.12,2.14-4.18,3.97-5.74,1.8-1.53,3.91-2.65,5.72-4.19,3.4-2.9,5.86-6.78,7.23-11.02.45-1.39-1.52-2.6-2.51-1.46-1.63,1.88-3.26,3.77-4.89,5.65-.37.43-.73.85-1.1,1.28-.18.22-.38.44-.58.64.56.35.79.32.71-.09.19-.2.18-.7.42-.96.29-.32.58-.41,1-.49l-1.69-2.2c-1.58,2.76-3.45,5.31-5.61,7.65l2.36,1.82c1.03-2.09,3.06-3.18,4.99-4.32,1.82-1.07,4.69-2.43,4.83-4.81.05-.75-.73-1.58-1.5-1.5-1.5.15-2.55.75-3.45,1.95.93.25,1.86.5,2.8.76-.18-2.93,1.05-5.56,3.36-7.37,1.28-1-.15-2.79-1.46-2.51-1.43.31-2.87.54-4.33.66-.72.06-1.43.09-2.15.1-.19,0-1.84-.11-1.88-.03l.42.93.37-.02c.28.07.7-.03.99-.03.74-.02,1.48-.04,2.22-.05,1.56-.02,3.12-.02,4.69,0,1.69.03,2.04-2.52.4-2.95-2.12-.56-4.13-.33-6.11.57-1.64.74-.4,3.04,1.16,2.74.05,0-.19,2.3-.24,2.65-.06.44-.13.87-.19,1.31-.04.29-.08.58-.13.87-.15.39-.06.42.27.1l1.69.69c-.43-.77-1.75-2.96-1.56-3.6l-.69.9c-.47.26.82.61,1.04.71l.41.18c.37.25.4.1.09-.44.04.02-.83.35-1.03.31-1.47-.26-1.11-2.32-.62-3.25-.68.18-1.37.36-2.05.54,1.28.96,1.04,3.11,1.01,4.48-.03,1.59-.18,3.99,1.38,4.96,3.03,1.89,5.88-3.52,6.58-5.7.97-3-.31-6.66-3.64-7.34-1.73-.36-3.67-.15-5.41.07s-3.47.68-4.99,1.66c-.66.42-.99,1.35-.54,2.05.78,1.23,1.57,2.46,2.35,3.68.69,1.09,1.33,2.35,2.28,3.25,1.46,1.39,4.29,1.63,5.21-.52.28-.65.26-1.28-.23-1.82-1.04-1.14-2.3-1.98-3.74-2.52-.25-.09-.71-.12-.92-.29.04.24.05.26.04.07,0-.19,0-.39,0-.58,0-.91.01-1.82.02-2.73.01-1.93-2.99-1.93-3,0h0Z"/>
      <path class="cls-15" d="M114.84,252.62c-.39,2.37.14,4.51,1.31,6.58.9,1.58,2.22,2.97,2.91,4.67,1.46,3.62-1.44,7.44-3.39,10.24,1.44.84,2.88,1.68,4.32,2.52,1.34-2.43,3.27-4.45,4.87-6.7s3.92-5.27,3.63-8.17c-.15-1.53-.47-3.06-.72-4.58-.23-1.39-.3-2.97-.82-4.28-.65-1.64-2.03-2.21-3.66-2.48s-3.21-.55-4.81-.82c-2.16-.37-3.86,1.63-2.82,3.67,1.56,3.07,3.56,5.89,5.9,8.42,1.82,1.96,4.62-.14,4.18-2.43-.84-4.34-4.08-7.77-8.18-9.23-1.27-.45-2.74.51-3.08,1.75-.38,1.38.47,2.62,1.75,3.08,2.53.9,4.19,3.16,4.69,5.74,1.39-.81,2.79-1.62,4.18-2.43-2.06-2.23-3.75-4.7-5.12-7.41-.94,1.22-1.88,2.45-2.82,3.67,1.3.22,2.6.44,3.89.66.42.07,1.4.44,1.79.31.31.09.26,0-.15-.26-.29-.38-.4-.42-.31-.13-.07.15.11.66.14.83.21,1.26.42,2.53.63,3.79.14.85.59,2.05.35,2.91-.27.99-1.08,2.03-1.62,2.89-.65,1.04-1.34,2.06-2.09,3.03-1.42,1.85-2.96,3.6-4.1,5.66-1.58,2.86,2.5,5.14,4.32,2.52,2.44-3.5,4.86-7.43,4.36-11.9-.24-2.16-1.17-4-2.37-5.77-.91-1.35-2.61-3.23-2.31-5.01.22-1.33-.35-2.69-1.75-3.08-1.2-.33-2.85.41-3.08,1.75h0Z"/>
      <path class="cls-15" d="M81.87,272.65c1.14-.24,2.02-1.02,2.84-1.79.11-.11.44-.3.49-.43-.04.1-.38.28-.09.08.1-.07.19-.13.29-.2.41-.27.84-.52,1.26-.78,1.91-1.15,3.57-2.53,4.31-4.7-1.22.5-2.45,1-3.67,1.49.12.07.24.16.36.23.27.15-.43-.39-.03-.02.21.19.42.39.61.61l1.77-4.27c-2.27,0-4.55.01-6.82.02-.26,0-.52,0-.78,0h-.17c-.22-.01-.22-.01,0,0,.2,0,.37.07.52.22.35.24.44.29.29.14-.22-.2.24.39.09.13-.06-.12-.15-.23-.22-.35-.05-.09-.1-.19-.15-.29-.2-.36.06.15.05.15-.04,0-.21-.61-.23-.7-.03-.11-.05-.21-.07-.32-.08-.41.03-.12,0,.1.03-.2-.03-.44-.03-.65s.12-1.06,0-.31h-4.82c.26,1.31.54,2.62.79,3.93.04.19.22.68.15.86.06-.18-.06-.5-.02-.06.01.14.02.29.03.43,0,.17,0,.34,0,.51,0,.09-.05.59,0,.17s-.04.11-.05.16c-.04.16-.24.65.03.04-.28.64-.45,1.22-.25,1.93.16.58.61,1.21,1.15,1.49,1.08.57,2.87.39,3.42-.9.42-.97.66-1.84.71-2.9.03-.85-.11-1.72-.25-2.56-.25-1.49-.59-2.97-.89-4.44-.21-1.03-1.38-1.88-2.41-1.84s-2.23.73-2.41,1.84c-.24,1.47-.24,2.97.28,4.38.25.69.55,1.36.98,1.96.75,1.05,1.68,1.7,2.99,1.82s2.62.02,3.91.02c1.4,0,2.79,0,4.19,0,1,0,1.9-.63,2.28-1.54.4-.96.17-1.97-.52-2.73-.56-.63-1.24-1.16-1.96-1.6-1.45-.88-3.17,0-3.67,1.49-.09.25-.06.19.09-.18-.04.09-.09.18-.14.27-.04.07-.25.3-.24.38.24-.3.28-.35.11-.15-.07.08-.14.15-.21.22-.11.11-.22.21-.33.32-.08.07-.16.13-.23.2.31-.23.35-.27.14-.11-.13.09-.25.18-.38.26-.36.24-.74.46-1.11.69-.83.5-1.63,1.03-2.36,1.67-.27.24-.53.5-.8.74-.46.41.37-.22-.04.02-.23.12-.17.1.2-.06-.09.03-.19.06-.29.07-1.28.27-2.14,1.85-1.75,3.08.44,1.36,1.7,2.03,3.08,1.75h0Z"/>
      <path class="cls-15" d="M93.73,256.36c-1.36-.61-2.53-1.44-3.38-2.68l-.39,3.03c1.39-1.76,3.01-3.29,4.92-4.46.88-.54,1.81-1.03,2.78-1.4.49-.19,1-.35,1.5-.5.28-.08.69-.12.96-.25.38-.18-.17.38-.84-.38l-.64-1.1.07.22,1.75-3.08c-1.6.59-3.26,1.03-4.96,1.2l1.77,4.27c1.91-1.82,5.06-1.08,7.28-.31,3.49,1.22,6.71,2.95,10.5,2.91l-1.77-4.27c-1.02.92-1.77,2.04-2.25,3.32-.14.35-.38.84-.42,1.22v-.05c-.4.52-.03.65,1.13.39,1.41.16,1.19.48,1.45-.42l-2.41,1.84c.9-.11.16-.05.16-.02,0,.09-.28-.57-.03-.4.27.18-.65.26-.4.3-1.33-.19-2.69.33-3.08,1.75-.32,1.17.4,2.88,1.75,3.08,2.86.41,5.87-.9,6.56-3.94.65-2.87-1.9-6.15-4.95-5.76-1.13.14-2.07.68-2.41,1.84-.46,1.53-.53,3.1.44,4.45.89,1.25,2.45,1.79,3.93,1.34,2.61-.79,2.33-3.81,4.08-5.38,1.64-1.46.32-4.29-1.77-4.27-3.88.04-7.22-2.38-10.91-3.24-3.65-.86-7.58-.58-10.41,2.11-1.47,1.4-.43,4.48,1.77,4.27,2.16-.21,4.25-.62,6.29-1.38,1.25-.46,2.16-1.69,1.75-3.08-1.24-4.18-6.63-1.85-9.25-.61-3.05,1.44-5.77,3.64-7.85,6.28-.65.83-1.06,2.05-.39,3.03,1.32,1.93,3.03,3.51,5.17,4.47,1.23.55,2.69.35,3.42-.9.63-1.07.34-2.86-.9-3.42h0Z"/>
      <path class="cls-26" d="M81.61,259.33c1.66,1.22,3.34,2.42,5.04,3.59l1.51-2.59c-.95-.44-1.9-.91-2.76-1.52-.04-.03-.35-.29-.09-.07-.09-.08-.19-.16-.28-.24-.18-.16-.36-.33-.52-.52-.08-.09-.23-.28-.07-.07-.07-.1-.14-.2-.21-.3-.08-.12-.15-.24-.22-.37-.17-.33.02,0,0,.17l-.2.76c-.04.09-.33.36-.46.35.07,0,.19-.07.26-.09.09-.02.18-.04.27-.06-.15.03-.13,0,.01,0,.09,0,.18,0,.28,0,0,0,.39.05.21.01-.17-.03.11.03.14.04.09.02.18.05.27.07s.18.06.27.09c.21.08-.15-.1.04.02.16.1.34.18.51.28s.33.21.48.33c.2.14-.15-.12.05.03.1.08.19.15.28.23.59.5,1.15,1.05,1.67,1.62.13.14.26.29.38.44.08.09.15.19.23.28.02.02.18.24.11.13s.09.12.1.14c.06.08.11.16.17.24.13.18.25.36.37.54.56-.73,1.13-1.47,1.69-2.2-.17-.05-.34-.11-.5-.17-.4-.15.25.13-.13-.06-.28-.14-.55-.28-.81-.44s-.52-.34-.77-.52c-.14-.1-.14-.11-.01,0-.05-.04-.1-.08-.16-.13-.12-.1-.24-.2-.36-.3-.95-.83-1.79-1.78-2.63-2.73-.52-.59-1.6-.57-2.12,0-.58.63-.55,1.49,0,2.12,1.88,2.14,3.91,4.25,6.7,5.13,1.22.38,2.41-1.11,1.69-2.2-.78-1.18-1.67-2.29-2.68-3.27-1.08-1.05-2.3-2.04-3.76-2.49-1.42-.44-4.03-.38-4.52,1.4-.22.81.24,1.67.7,2.31.37.52.79,1,1.28,1.41,1.09.92,2.32,1.58,3.61,2.17.71.33,1.65.22,2.05-.54s.15-1.57-.54-2.05c-1.7-1.17-3.37-2.37-5.04-3.59-.63-.47-1.7-.13-2.05.54-.41.78-.14,1.55.54,2.05h0Z"/>
      <path class="cls-26" d="M75.75,254.92c-.7,2.4-1.08,4.9-1.16,7.41.93-.25,1.86-.5,2.8-.76.04.09.09.24.04.06-.02-.07-.04-.13-.06-.2,0-.02-.07-.36-.03-.11.04.23,0-.01,0-.06,0-.14,0-.28,0-.42,0-.19-.08.36,0,.03.02-.07.03-.14.05-.21.03-.14.08-.27.13-.41.08-.22.01.05-.03.06.02,0,.1-.21.12-.24.07-.13.14-.25.22-.37.02-.04.17-.22.04-.06-.15.18.08-.08.09-.09.1-.11.21-.22.32-.32.06-.05.11-.1.17-.15.13-.12.04-.06-.03.02.2-.22.57-.38.82-.52.15-.08.31-.15.47-.23.17-.08.03-.05-.04.01.05-.04.16-.06.22-.08.32-.12.65-.23.99-.33.61-.18,1.13-.78,1.1-1.45-.03-.69-.45-1.22-1.1-1.45-1.07-.38-2.25-.52-3.37-.38-.78.09-1.54.62-1.5,1.5.03.73.67,1.6,1.5,1.5.49-.06.96-.04,1.44-.02.19,0-.25-.05.04,0,.12.02.25.05.37.07.25.06.49.13.72.21v-2.89c-1.64.48-3.36,1.24-4.45,2.61-.56.7-1.01,1.5-1.18,2.4-.2,1.06-.09,2.01.34,3,.25.58,1.12.87,1.69.69.64-.21,1.08-.76,1.1-1.45.02-.58.05-1.16.1-1.74.03-.29.06-.58.09-.87,0-.07.02-.13.03-.2q-.02.18,0,0c.02-.13.04-.27.06-.4.18-1.15.44-2.28.77-3.4.22-.75-.27-1.67-1.05-1.85s-1.61.24-1.85,1.05h0Z"/>
      <path class="cls-26" d="M94.16,259.11c-.02-.45-.07-.9-.17-1.34s-.27-.84-.44-1.26c-.68.68-1.37,1.37-2.05,2.05.05.03.09.06.14.09l-.3-.23c.09.07.18.16.25.25l-.23-.3c.07.1.13.2.18.31l-.15-.36c.05.11.08.22.1.34.05.2.14.37.27.51.11.16.25.29.42.39.17.11.36.17.56.18.2.04.4.04.6-.03.36-.12.71-.34.9-.69l.15-.36c.07-.27.07-.53,0-.8-.02-.11-.04-.22-.09-.32-.08-.21-.16-.43-.29-.62-.27-.39-.57-.7-.97-.95l-.36-.15c-.2-.06-.4-.07-.6-.03-.14,0-.26.03-.38.1-.19.06-.35.16-.48.31l-.23.3-.15.36c-.06.2-.07.4-.03.6,0,.2.07.39.18.56,0,.02.02.04.03.06l-.15-.36c.17.41.28.83.34,1.27l-.05-.4c.02.17.04.34.04.5.01.39.16.78.44,1.06.14.15.3.25.48.31.18.09.37.14.58.13.39-.02.79-.14,1.06-.44s.45-.66.44-1.06h0Z"/>
      <path class="cls-26" d="M109.38,260.31c1.53-.18,3.06-.37,4.59-.55.41-.05.76-.13,1.06-.44.26-.26.46-.69.44-1.06-.03-.74-.66-1.59-1.5-1.5-.65.07-1.31.07-1.96-.02l.4.05c-.46-.06-.92-.16-1.37-.31-.12-.04-.24-.08-.35-.12-.08-.03-.18-.1-.26-.1.21.09.25.1.1.04-.06-.03-.11-.05-.17-.08-.11-.05-.22-.11-.33-.17l-.36,2.74c.35-.11.7-.19,1.07-.24l-.4.05c.53-.06,1.06-.06,1.59,0l-.4-.05c.13.02.26.04.39.07.74.15,1.47-.15,1.77-.87.27-.63.07-1.56-.61-1.87-.37-.17-.72-.36-1.06-.57-.17-.11-.34-.22-.5-.34-.09-.07-.28-.26.03.03-.07-.07-.16-.13-.23-.19-.3-.25-.58-.52-.84-.8-.14-.15-.26-.3-.39-.46-.2-.24.21.29.02.03-.07-.09-.14-.19-.2-.28-.23-.33-.5-.58-.9-.69-.36-.1-.84-.05-1.16.15-.64.41-1.02,1.36-.54,2.05,1.08,1.56,2.53,2.86,4.26,3.66.39-.91.77-1.83,1.16-2.74-1.28-.25-2.59-.23-3.84.16-.58.18-.99.65-1.07,1.25s.19,1.21.72,1.49c1.66.89,3.58,1.32,5.46,1.11v-3c-1.53.18-3.06.37-4.59.55-.41.05-.76.13-1.06.44-.26.26-.46.69-.44,1.06s.14.79.44,1.06c.27.25.68.49,1.06.44h0Z"/>
      <path class="cls-26" d="M101.57,268.99c.35.21.69.44,1.01.69l-.3-.23c.75.58,1.42,1.24,1.99,1.99l1.46-2.51c-.37-.06-.72-.17-1.06-.31l.36.15c-.39-.16-.75-.38-1.08-.63l.3.23c-.32-.25-.6-.53-.85-.85l.23.3c-.04-.05-.08-.1-.12-.16-.23-.33-.5-.58-.9-.69-.36-.1-.84-.05-1.16.15s-.6.51-.69.9-.08.83.15,1.16c.52.72,1.12,1.33,1.88,1.8.64.4,1.38.7,2.13.83l.4.05c.21,0,.4-.04.58-.13.29-.12.57-.33.72-.61.12-.24.19-.49.2-.76,0-.21-.04-.4-.13-.58-.06-.19-.16-.35-.31-.48-.9-1.17-2.05-2.15-3.31-2.92-.33-.2-.79-.25-1.16-.15-.35.1-.73.36-.9.69-.38.73-.18,1.62.54,2.05h0Z"/>
      <path class="cls-4" d="M120.88,267.64c-.77,2.52-1.66,5-2.65,7.45l1.05-1.05c-.15.03-.3.06-.45.09-.48.08.27-.01-.21.03-.31.02-.61.04-.92.04l1.3,2.26c.49-.74,1-1.47,1.52-2.19.25-.35.51-.69.78-1.04-.1.12,0,0,.05-.06.08-.1.16-.2.24-.3.14-.18.28-.36.43-.53,1.12-1.38,2.31-2.7,3.55-3.97.55-.56.6-1.57,0-2.12s-1.53-.6-2.12,0c-2.61,2.66-4.97,5.58-7.03,8.69-.64.97.21,2.26,1.3,2.26.48,0,.95-.04,1.42-.1.64-.09,1.31-.14,1.73-.7.33-.43.49-1.05.69-1.56.17-.43.33-.85.49-1.28.63-1.69,1.21-3.4,1.74-5.12.23-.75-.27-1.67-1.05-1.85-.81-.18-1.6.24-1.85,1.05h0Z"/>
      <path class="cls-4" d="M91.51,269.8l-1.15,3.27-.54,1.54-.3.87c-.05.13-.09.26-.14.39-.04.12-.05.13,0,.03.11-.33.4-.51.87-.53l.76.2c.34.58.46.72.37.43-.02-.06-.03-.11-.04-.17-.03-.12-.02-.01-.03-.21,0-.15,0-.29,0-.44,0-.11,0-.03.03-.21.13-.57.3-1.03.54-1.52.26-.53.53-1.05.82-1.55.31-.54.51-.86.92-1.24.03-.02.28-.25.11-.11.1-.08.2-.14.31-.21.21-.14.43-.26.65-.37.45-.23.93-.42,1.39-.62,1.02-.44,2-.94,2.79-1.74.57-.58.58-1.54,0-2.12s-1.55-.58-2.12,0c-.29.3-.23.26-.56.47s-.65.37-.99.53c-.62.29-1.27.53-1.88.83-1.52.74-2.56,1.91-3.36,3.37s-1.77,3.24-1.64,5.03c.07,1.04.4,2.29,1.54,2.6,1.28.35,2.09-.69,2.46-1.75.71-1.99,1.4-3.98,2.1-5.97.27-.76-.31-1.64-1.05-1.85-.83-.23-1.58.28-1.85,1.05h0Z"/>
      <path class="cls-4" d="M79.37,259.76c-.57.64-.87,1.46-.8,2.33.06.72.32,1.34.53,2.02.09.3.21.64.22.96-.01-.38,0,.03,0,.09.01.16.02.33.02.49s0,.33-.01.49c0,.08-.01.61-.01.21,0,.31-.13.66-.22.96-.23.75.27,1.67,1.05,1.85s1.6-.24,1.85-1.05c.4-1.33.44-2.72.18-4.08-.11-.57-.32-1.09-.5-1.64-.03-.1-.16-.37-.13-.47.02.21.02.23.01.07v-.11c0-.07,0-.14,0-.21-.03.22-.03.25,0,.09.05-.16.04-.13-.03.07.09-.14.07-.12-.05.06.52-.58.62-1.55,0-2.12-.57-.52-1.56-.62-2.12,0h0Z"/>
      <path class="cls-4" d="M82.26,259.21c.65,1,1.34,1.94,2.32,2.64s2.26.93,3.38.61c.71-.2,1.48-.67,1.78-1.37.23-.53.17-1.08-.11-1.59-.16-.29-.45-.55-.68-.8-.79-.83-1.73-1.58-2.88-1.85-.65-.16-1.32-.18-1.98-.23-.13,0-.26-.02-.4-.03-.12,0-.22-.08.11.02-.06-.02-.13-.02-.19-.03-.14-.03-.28-.06-.42-.11-.04-.01-.1-.04-.14-.05.19.09.24.1.14.06-.04-.02-.09-.04-.13-.07l-.76,2.8c.4-.01.8.01,1.2.05.22.02-.37-.07,0,0,.09.02.19.03.28.05.21.04.41.09.61.15.76.21,1.67-.26,1.85-1.05s-.24-1.62-1.05-1.85c-.94-.26-1.92-.38-2.89-.35-.64.02-1.3.45-1.45,1.1s.09,1.37.69,1.69c.66.35,1.32.5,2.06.58.26.03.53.05.79.07.08,0,.66.11.7.06-.23-.03-.27-.04-.1-.01.06.01.13.02.19.04.13.03.25.07.38.1.15.06.12.04-.08-.05.06.03.12.05.18.08.12.06.23.12.34.2.05.04.11.07.16.11.13.1.1.08-.07-.06.04-.01.26.23.3.26.18.17.35.35.52.53.08.08.15.17.23.25.42.49.44-.04.07-1.59.19-.14.23-.17.1-.08-.05.03-.1.06-.15.09-.14.07-.1.05.13-.05-.05,0-.28.06-.33.09.26-.03.3-.04.14-.02-.06,0-.12,0-.17,0-.06,0-.12,0-.17,0,.25.04.3.04.14.02-.12-.03-.23-.05-.34-.09-.06-.02-.11-.04-.17-.06.21.09.26.11.16.06-.09-.05-.18-.09-.27-.15-.06-.03-.11-.07-.16-.11-.13-.1-.11-.08.07.06-.07.03-.5-.49-.56-.55-.04-.05-.09-.1-.13-.15-.1-.13-.08-.1.05.07-.09-.07-.17-.23-.23-.32-.15-.22-.3-.44-.44-.66-.43-.66-1.35-.99-2.05-.54-.65.42-1,1.35-.54,2.05h0Z"/>
      <path class="cls-4" d="M77.48,255.41c-.88,1.27-1.73,2.56-2.64,3.81l.23-.3c-.06.07-.12.14-.19.2l.3-.23s-.07.05-.11.07l.36-.15-.06.02.4-.05s-.08,0-.12,0l.4.05-.06-.02,1.05,1.85c.2-.62.41-1.24.61-1.87s.37-1.23.6-1.83l-.15.36c.04-.09.09-.17.15-.25l-.23.3s.08-.08.13-.12l-.3.23s.09-.06.15-.08l-.36.15c.11-.04.22-.07.33-.09l-.4.05c.48-.06.97-.04,1.43-.19.37-.12.7-.35.9-.69.19-.32.27-.8.15-1.16-.24-.74-1.05-1.31-1.85-1.05-.12.04-.23.06-.36.08l.4-.05c-.61.07-1.2.08-1.77.35-.75.36-1.04,1.11-1.28,1.85-.35,1.07-.69,2.13-1.04,3.2-.11.34-.05.85.15,1.16.22.34.51.55.9.69.47.17,1.06.06,1.48-.2.37-.22.61-.54.85-.88.29-.41.57-.83.86-1.24l1.69-2.45c.21-.31.25-.81.15-1.16s-.36-.73-.69-.9c-.35-.18-.77-.28-1.16-.15s-.66.35-.9.69h0Z"/>
      <path class="cls-4" d="M128.33,252.06c1.72.31,3.47.48,5.23.42.78-.03,1.56-.11,2.34-.2.29-.03.59-.06.89-.06.1,0,.19,0,.29.02-.16-.02-.16-.01.02.02.24.18-.09-.17.15.08-.23-.25-.4-.67-.19-1.02.04-.09.09-.16.17-.21-.14.07-.15.08-.05.04.12-.04.08-.03-.1.04-.11.04-.22.07-.33.11-.17.05-.33.09-.5.12.02,0-.5.08-.28.05-.23.03-.46.04-.69.04-.35,0-.69-.01-1.04-.05.14.02-.31-.05-.37-.06-.2-.04-.41-.09-.61-.14-.35-.09-.69-.2-1.03-.31-.76-.27-1.37-.55-2.12-.92l.3,2.36c-.21.21-.46.28-.75.2.77.12,1.65-.2,1.85-1.05.16-.72-.22-1.72-1.05-1.85s-1.48.03-2.16.57c-.73.59-.5,1.96.3,2.36,2.83,1.41,6.22,2.62,9.36,1.45.84-.32,1.58-.79,1.89-1.68.36-1.02-.25-2.07-1.09-2.62-1.31-.86-2.91-.43-4.35-.33-1.78.12-3.59.03-5.27-.27-.77-.14-1.65.21-1.85,1.05-.17.73.22,1.69,1.05,1.85h0Z"/>
      <g>
        <path class="cls-9" d="M80.04,267.46c-.22-.41-.35-.79-.49-1.31-.12-.47-.21-.95-.29-1.43-.16-1.05-.28-2.06-.4-3.15-.05-.52-.42-1.03-1-1-.5.02-1.06.44-1,1,.13,1.23.28,2.46.47,3.68.17,1.12.44,2.21.98,3.22.25.46.93.64,1.37.36.47-.3.62-.87.36-1.37h0Z"/>
        <path class="cls-9" d="M80.14,267.7c-.7-1.82-1.84-4.44-1.38-6.34.13-.51.28-.76.66-1.12.41-.39,1.25-.84,1.83-1.33,1.5-1.27,2.87-3.87,5.13-3.66,1.61.14,2.52,1.56,3.1,2.92s.92,3.02,1.05,4.56c.13,1.61-.14,2.95-1.05,4.29-.71,1.04-1.67,1.47-2.87,1.74s-.72,2.21.53,1.93c1.32-.29,2.58-.82,3.47-1.87,1.04-1.22,1.77-2.7,1.93-4.31.17-1.79-.16-3.74-.64-5.47s-1.27-3.52-2.64-4.68c-1.24-1.05-3.06-1.43-4.61-.9-1.28.44-2.26,1.41-3.16,2.38s-1.71,1.69-2.74,2.41c-.63.44-1.2.97-1.56,1.66-1.3,2.53.11,5.92,1.03,8.32.46,1.19,2.39.67,1.93-.53h0Z"/>
        <path class="cls-9" d="M81.89,258.04c2.62-3.06,5.46-6.03,8.6-8.56,1.47-1.19,3.12-2.25,4.96-2.75,2.06-.56,4.17-.25,6.21.26,1.91.48,3.77,1.14,5.7,1.55s3.86.6,5.79.78c3.9.36,7.9.61,11.44,2.45,1.14.59,2.15-1.13,1.01-1.73-3.74-1.94-7.89-2.31-12.02-2.68-2.05-.19-4.1-.38-6.11-.84-2.22-.51-4.37-1.32-6.61-1.76-4.09-.8-7.65.16-10.95,2.65-3.5,2.64-6.6,5.9-9.44,9.22-.83.97.58,2.39,1.41,1.41h0Z"/>
        <path class="cls-9" d="M128.76,256.18c.81-2.19.02-4.72-1.55-6.36-1.69-1.75-4.18-2.48-6.55-2.53-1.29-.03-1.29,1.97,0,2,1.81.04,3.74.55,5.06,1.87,1.2,1.2,1.7,2.93,1.12,4.5-.19.51.21,1.1.7,1.23.56.15,1.04-.19,1.23-.7h0Z"/>
        <path class="cls-9" d="M104.13,250.04c3.94,2.25,4.73,7.44,1.93,10.91-2.49,3.09-6.35,4.73-9.27,7.35-1.66,1.49-2.73,3.21-3.73,5.18-.57,1.12-1.16,2.29-2.16,3.09-.47.38-1.34.93-1.93.6s-.24-1.06.02-1.61c1.01-2.19,2.57-4.53,4.36-6.15,1.53-1.39,3.81-2.03,4.86-3.92,1.33-2.38-.21-4.98-1.86-6.72-.9-.95-2.03-1.85-2.58-3.07-.46-1.03-.46-2.46.64-3.05s.13-2.34-1.01-1.73c-2.08,1.11-2.34,3.84-1.36,5.79.56,1.12,1.47,2.03,2.34,2.92,1.07,1.09,2.72,2.69,2.26,4.43-.35,1.32-1.91,1.94-2.95,2.6-1.2.76-2.25,1.71-3.15,2.81s-1.71,2.35-2.45,3.6c-.64,1.08-1.39,2.24-1.45,3.54-.14,3.02,3.26,3.1,5.17,1.77,2.47-1.72,3.02-4.82,4.84-7.06,3.05-3.76,8-5.38,11.01-9.18,3.48-4.4,2.44-10.98-2.53-13.82-1.12-.64-2.13,1.09-1.01,1.73h0Z"/>
        <path class="cls-9" d="M113.32,252.66c-.69,4.04,1.65,7.52,3.54,10.88.53.95,1.12,1.88,1.6,2.86.54,1.09,0,2.03-.44,3.07-.83,1.91-1.76,3.77-2.77,5.58-.63,1.12,1.1,2.13,1.73,1.01,1.01-1.81,1.94-3.67,2.77-5.58s1.37-3.33.36-5.24-2.17-3.83-3.22-5.76-2.01-4.05-1.63-6.29c.22-1.26-1.71-1.8-1.93-.53h0Z"/>
        <path class="cls-9" d="M83.01,254.05c-2.01,0-4.04-.11-6.05-.01-.93.04-1.86.29-2.51,1-.54.58-.84,1.32-.95,2.1-.12.86-.03,1.69.18,2.53s.53,1.73.57,2.63c.03.61.19,1.14.77,1.42.49.23,1.05.1,1.49-.2.73-.5,1.36-1.24,1.96-1.89,1.42-1.54,2.66-3.25,3.69-5.08.63-1.12-1.09-2.13-1.73-1.01-.69,1.23-1.48,2.41-2.37,3.5-.45.55-.92,1.08-1.41,1.6-.24.25-.48.49-.73.73-.14.14-.28.27-.43.4-.22.2,0,0,.18.06l.44.26c.12.33.16.37.13.12v-.15c-.03-.21-.06-.43-.09-.64-.05-.33-.12-.65-.2-.97-.15-.59-.33-1.18-.45-1.78-.06-.32-.1-.89-.05-1.19.04-.24.09-.49.19-.71-.06.13.09-.16.09-.15.01-.02.18-.25.09-.15.24-.28.55-.4.99-.44.68-.06,1.37-.01,2.05-.01,1.38,0,2.76.01,4.14.02,1.29,0,1.29-2,0-2h0Z"/>
        <path class="cls-9" d="M83.31,256.75c2.46-.28,4.95.94,6.18,3.11.26.46.57,1.05.5,1.59-.05.43-.88.41-1.25.46-.87.11-1.76.15-2.64.11-.56-.02-1.21-.06-1.65-.45-.58-.51-.91-1.45-1.24-2.13-.44-.89-.84-1.79-1.21-2.71-.2-.5-.67-.85-1.23-.7-.48.13-.9.73-.7,1.23.41,1.02.84,2.03,1.33,3.02.43.88.85,1.86,1.53,2.59,1.38,1.48,3.94,1.25,5.76,1.04.96-.11,2.08-.19,2.75-.97s.65-1.87.36-2.79c-.53-1.64-1.68-3.01-3.08-3.99-1.55-1.09-3.53-1.64-5.42-1.42-.54.06-1,.42-1,1,0,.49.46,1.06,1,1h0Z"/>
        <path class="cls-9" d="M101.82,266.76c.52.79,1.02,1.6,1.49,2.43.23.4.45.8.66,1.21.02.05.05.09.07.14.05.1.04.08-.02-.05,0,0,.05.19.06.2-.09-.16.03-.39.14-.5.06-.06.13-.11.22-.13-.11.02-.09.02.07,0-.02.02-.28.02-.31,0,.14.02.15.02.04,0-.05,0-.1-.02-.15-.03-.06-.02-.17-.03-.22-.07.12.05.13.06.02,0-.05-.02-.09-.05-.14-.07-.19-.1-.37-.22-.54-.35.18.14,0-.01-.05-.05-.08-.07-.16-.14-.24-.21-.68-.63-1.27-1.34-1.86-2.05-.34-.4-1.07-.37-1.41,0-.39.43-.36.98,0,1.41,1.05,1.25,2.2,2.79,3.83,3.28.94.28,2.34.12,2.54-1.05.09-.55-.07-1.02-.32-1.5-.2-.38-.4-.76-.61-1.13-.48-.85-.99-1.69-1.53-2.51-.29-.44-.9-.66-1.37-.36-.43.28-.67.9-.36,1.37h0Z"/>
        <path class="cls-9" d="M126.88,252.98c.05,2.7.1,5.4.15,8.1.02,1.23.18,2.53.04,3.75-.15,1.29-1.29,2.5-2.03,3.54-1.47,2.07-2.97,4.13-4.6,6.07-.72.86-1.62,1.9-2.8,2.11-.31.06-.59,0-.9,0l-.42-.16-.09.36.28-.13c-.27.05-.3.06-.09.03.19-.05.4-.07.58-.11,1.26-.27.73-2.2-.53-1.93-.75.16-2.05.52-2.26,1.58-.27,1.35,1.24,2.18,2.35,2.36,3.32.53,5.49-2.88,7.22-5.12,1.11-1.44,2.2-2.91,3.25-4.4.97-1.38,1.98-2.62,2.05-4.37.14-3.87-.12-7.79-.2-11.66-.03-1.29-2.03-1.29-2,0h0Z"/>
        <path class="cls-9" d="M125.07,250.99c1.32,1.54,3.05,2.61,4.9,3.4.95.41,1.93.75,2.92,1.05s2.09.7,3.16.81c2.4.25,3.75-1.92,4.05-4.02.14-1,.11-2.1-.9-2.64-.92-.49-2.24-.15-3.24-.19-2.84-.12-5.69-.61-8.51-.94-.54-.06-1,.51-1,1,0,.59.46.94,1,1,2.58.31,5.16.69,7.75.9.59.05,1.19.07,1.78.06.31,0,.63-.04.94-.05.12,0,.24-.01.36,0-.03-.02-.06-.05-.1-.07.13.31-.11,1.01-.18,1.3-.13.48-.32.95-.69,1.29-.79.73-1.89.2-2.78-.05-1.01-.29-2.02-.6-3.01-.97-1.91-.72-3.7-1.73-5.04-3.3-.84-.98-2.25.44-1.41,1.41h0Z"/>
        <path class="cls-9" d="M107.99,261.69c1.18-.45,2.49-.64,3.73-.9,1.23-.26,2.55-.44,3.73-.9.5-.19.85-.67.7-1.23-.13-.48-.72-.89-1.23-.7-1.18.45-2.49.64-3.73.9-1.23.26-2.55.44-3.73.9-.5.19-.85.67-.7,1.23.13.48.72.89,1.23.7h0Z"/>
        <path class="cls-9" d="M78.77,268.75c-1.29,2.06-2.58,4.12-3.88,6.18-.54.86-1.6,2.02-1.02,3.1.48.88,1.78,1.07,2.68.98,2.27-.21,3.8-1.89,5.33-3.4,1.64-1.61,3.35-3.15,5.12-4.62.42-.35.36-1.06,0-1.41-.41-.41-1-.35-1.41,0-1.44,1.19-2.84,2.43-4.19,3.72-.66.63-1.31,1.29-1.96,1.93-.61.6-1.27,1.21-2.07,1.55-.34.14-.72.24-1.09.25-.16,0-.32,0-.48-.04-.08-.03-.17-.05-.25-.06.02.51.09.65.2.43.16-.12.3-.48.4-.65l.36-.58.79-1.25c1.07-1.7,2.14-3.41,3.21-5.11.69-1.09-1.04-2.1-1.73-1.01h0Z"/>
        <path class="cls-9" d="M78.29,267.9c.07.78.08,1.58-.03,2.36-.12.83-.5,1.79.37,2.35.56.36,1.39.45,2.04.47.73.02,1.49-.11,2.19-.33,2.96-.93,4.83-3.37,7.2-5.19.43-.33.66-.86.36-1.37-.25-.42-.94-.69-1.37-.36-1.58,1.22-2.93,2.74-4.57,3.89-.74.51-1.53.94-2.4,1.18-.44.12-.87.19-1.33.18-.19,0-.38-.01-.57-.04-.11-.02-.22-.05-.33-.08-.06-.01-.11-.03-.16-.05-.14-.05-.11-.03.08.04l.26.44-.03-.16v.53c.23-1.3.41-2.54.28-3.87-.05-.54-.42-1-1-1-.5,0-1.05.46-1,1h0Z"/>
        <path class="cls-9" d="M91.63,261.37c1.48-.05,2.89-.39,4.25-.97.21-.09.4-.38.46-.6.07-.24.04-.56-.1-.77s-.34-.4-.6-.46c-.28-.06-.51-.01-.77.1.27-.11-.03,0-.08.03-.06.03-.13.05-.19.07-.15.06-.3.11-.46.16-.28.09-.57.17-.87.23-.15.03-.29.06-.44.09-.08.01-.16.03-.24.04-.03,0-.07.01-.1.02-.08.01-.05,0,.1-.01-.05.03-.18.02-.24.03-.08,0-.16.02-.24.02-.16.01-.32.02-.48.03-.52.02-1.02.45-1,1s.44,1.02,1,1h0Z"/>
      </g>
    </g>
    <path class="cls-9" d="M191.04,26.13v307.77H24.96V26.13h166.08M193.04,24.13H22.96v311.77h170.08V24.13h0Z"/>
    <path class="cls-9" d="M106.88,32.23c.07.96.4,1.65,1.19,2.21.36.25.73.47,1.04.77.5.47.89,1.05,1.31,1.58,1.84,2.3,3.73,4.57,5.66,6.8.42.49,1.13-.22.71-.71-1.79-2.07-3.55-4.17-5.26-6.31-.72-.9-1.37-1.88-2.31-2.56-.73-.53-1.28-.81-1.35-1.79-.05-.64-1.05-.64-1,0h0Z"/>
    <path class="cls-9" d="M105.91,43.67c3.96-3.85,7.93-7.71,11.89-11.56.46-.45-.25-1.16-.71-.71-3.96,3.85-7.93,7.71-11.89,11.56-.46.45.25,1.16.71.71h0Z"/>
    <path class="cls-9" d="M102.83,32.5c5.95.08,11.9.15,17.86.23.64,0,.64-.99,0-1-5.95-.08-11.9-.15-17.86-.23-.64,0-.64.99,0,1h0Z"/>
    <path class="cls-9" d="M102.65,43.74h17.86c.64,0,.64-1,0-1h-17.86c-.64,0-.64,1,0,1h0Z"/>
    <path class="cls-18" d="M8.79,9.92v340.16h198.43V9.92H8.79ZM193.04,335.91H22.96V24.09h170.08v311.81Z"/>
    <path class="cls-18" d="M-19.56-18.43v396.85l255.12-1.37V-18.43H-19.56ZM193.04,335.91H22.96V24.09h170.08v311.81Z"/>
  </g>
  <g class="cls-16">
    <path class="cls-7" d="M176.64,253.72c16.34-.76,32.67-.37,48.95,1.18v-13c-15.93-.78-31.75.07-47.54,2.22-6.29.86-6.12,11.5,0,12.54,19.8,3.35,39.6,6.69,59.4,10.04l1.73-12.77c-18.5.17-36.95-.96-55.3-3.37,2.09,1.59,4.18,3.18,6.27,4.77-2.71-7.99-11.09-14.95-19.12-17.19-6.01-1.68-11.32,6.47-6.32,10.86,15.37,13.5,31.09,26.64,45.89,40.79,15.24,14.58,29.23,30.52,41.77,47.47,4.9,6.62,16.15.27,11.23-6.56-19.58-27.17-37.56-55.44-53.87-84.69-1.87,3.26-3.74,6.52-5.61,9.78,4.01-.2,8.02-.29,12.03-.23,1.85.03,3.7.09,5.55.17.93.04,1.85.09,2.77.15,1.93.42,1.88-.17-.16-1.78l.66-5.01c-1.2,2.68-6.68,4.97-9.06,6.25-3.43,1.84-6.93,3.31-10.61,4.55-5.45,1.84-6.26,8.7-1.55,11.88,9.39,6.35,18.92,12.48,28.59,18.4,4.91,3,10.98-1.95,9.55-7.34-2.49-9.37-3.15-18.71-2.21-28.35.43-4.37-4.48-7.19-8.23-6.27-7.17,1.76-14.33,3.52-21.5,5.28-5.14,1.26-6.69,9.47-1.55,11.88,9.44,4.44,18.26,9.93,26.22,16.68,2.11-3.62,4.22-7.24,6.32-10.86-6.02-2.48-11.81-5.45-17.43-8.74-6.15-3.59-13.86,5.58-7.88,10.21,3.03,2.35,5.85,4,9.5,5.24,7.94,2.7,11.34-9.85,3.46-12.54-1.32-.45-2.64-1.03-3.76-1.9-2.63,3.4-5.25,6.81-7.88,10.21,6.61,3.86,13.46,7.14,20.53,10.05,5.99,2.46,11.1-6.81,6.32-10.86-8.82-7.48-18.38-13.8-28.85-18.72-.52,3.96-1.04,7.92-1.55,11.88,7.17-1.76,14.33-3.52,21.5-5.28-2.74-2.09-5.49-4.18-8.23-6.27-1.04,10.71-.08,21.41,2.68,31.81,3.18-2.45,6.37-4.89,9.55-7.34-9.67-5.91-19.2-12.04-28.59-18.4l-1.55,11.88c6.11-2.06,12.05-4.67,17.55-8.07,4.91-3.03,11.79-6.94,10.56-13.72-1.11-6.07-7.17-7.37-12.38-7.77-6.76-.52-13.59-.43-20.36-.09-4.93.24-8.09,5.33-5.61,9.78,16.31,29.25,34.29,57.52,53.87,84.69,3.74-2.19,7.48-4.37,11.23-6.56-12.87-17.38-26.99-33.88-42.57-48.9-15.15-14.61-31.32-28.1-47.13-41.98-2.11,3.62-4.22,7.24-6.32,10.86,3.43.96,8.84,4.56,10.04,8.11,1.03,3.04,3.24,4.37,6.27,4.77,18.34,2.42,36.8,3.54,55.3,3.37,7.05-.06,9.18-11.51,1.73-12.77-19.8-3.35-39.6-6.69-59.4-10.04v12.54c14.6-1.99,29.38-2.48,44.09-1.76,8.46.41,8.2-12.22,0-13-16.28-1.55-32.61-1.94-48.95-1.18-8.33.39-8.38,13.39,0,13h0Z"/>
  </g>
</svg>