<?xml version="1.0" encoding="UTF-8"?>
<svg id="boarder" xmlns="http://www.w3.org/2000/svg" xmlns:xlink="http://www.w3.org/1999/xlink" viewBox="0 0 216 360">
  <defs>
    <style>
      .cls-1 {
        fill: none;
      }

      .cls-2 {
        fill: #0e73ba;
      }

      .cls-3 {
        fill: #d1d3d4;
      }

      .cls-4 {
        fill: #bcbec0;
      }

      .cls-5 {
        fill: #231f20;
      }

      .cls-6 {
        fill: #603913;
      }

      .cls-7 {
        fill: #594a42;
      }

      .cls-8 {
        fill: #ceabba;
      }

      .cls-9 {
        fill: #a5959c;
      }

      .cls-10 {
        fill: #f1f2f2;
      }

      .cls-11 {
        fill: #fff;
      }

      .cls-12 {
        fill: #94836e;
      }

      .cls-13 {
        fill: #58a5d7;
      }

      .cls-14 {
        fill: #87aac1;
      }

      .cls-15 {
        fill: #e6e7e8;
      }

      .cls-16 {
        fill: #c59dae;
      }

      .cls-17 {
        clip-path: url(#clippath);
      }

      .cls-18 {
        fill: #a7a9ac;
      }
    </style>
    <clipPath id="clippath">
      <path class="cls-1" d="M0,15.06v329.88c0,8.32,6.94,15.06,15.49,15.06h185.02c8.56,0,15.49-6.74,15.49-15.06V15.06c0-8.32-6.94-15.06-15.49-15.06H15.49C6.94,0,0,6.74,0,15.06Z"/>
    </clipPath>
  </defs>
  <g class="cls-17">
    <path class="cls-7" d="M210.33,27.14c-9.78,4.36-19.56,8.72-29.34,13.08,3.67,2.82,7.34,5.65,11.02,8.47,3.86-9.41,8.75-18.36,14.31-26.87,3.99-6.1-4.1-14.59-10.26-10.26-11.54,8.11-22.49,16.99-32.72,26.7l11.78,9.09c5.32-7.93,10.63-15.86,15.95-23.79,4.35-6.49-4.03-13.7-10.26-10.26-13.6,7.52-26.39,16.23-38.53,25.92l10.61,10.61c7.44-8.79,14.89-17.58,22.33-26.37,5.53-6.53-1.27-15.6-9.09-11.78-14.09,6.88-26.91,16.06-38.06,27.08l10.61,10.61c7.46-9.31,14.92-18.63,22.38-27.94,5.03-6.28-1.21-16.37-9.09-11.78-13.36,7.78-25.67,17.22-36.66,28.08l11.78,9.09c8.97-12.08,17.95-24.17,26.92-36.25,4.77-6.42-4.22-13.51-10.26-10.26-18.36,9.88-35.44,21.9-51.07,35.7l11.78,9.09c3.52-5.33,7.04-10.66,10.56-15.99,4.39-6.65-4.01-13.46-10.26-10.26-16.57,8.47-33.72,15.53-51.44,21.21,2.43,4.18,4.86,8.36,7.3,12.54,7.61-9.22,15.54-18.15,23.8-26.79,5-5.23.08-14.83-7.3-12.54-15.78,4.92-31.19,10.83-46.26,17.61l9.09,11.78c6.64-6.52,12.5-13.74,17.64-21.5,3.63-5.49-2.38-12.83-8.47-11.02-10.78,3.21-21.21,7.43-31.23,12.53-2.91,1.48-4.32,5.42-3.45,8.47.99,3.45,3.88,5.07,7.23,5.51-1.48-.19.13.37.52.78.54.57,1.25,1.06,1.84,1.6,1.95,1.77,3.74,3.71,5.61,5.57,3.49,3.48,7.29,7.09,12.18,8.41-1.75-3.08-3.49-6.15-5.24-9.23l-.09.23,5.24-5.24-.07.03,9.23,5.24c.73,2.63.05,1.37.22.45.14-.74.09-1.54.2-2.29-.12.83.28-1.29.32-1.48.49-2.23.5-1.18-1.57.66-3.36,2.99.67,1.76,3.16,1.94,1.97.15,3.94.29,5.91.44,3.94.29,7.89.58,11.83.86,16.1,1.16,32.21,2.25,48.33,3.13,32.22,1.74,64.49,2.59,96.75,1.52,9.77-.33,9.52-14.17,0-15-36.37-3.17-72.27-10.62-108.74-12.73-17.76-1.03-35.68-.77-53.28,1.99s-30.9,11.27-44.16,22.6c-4.57,3.91-1.62,10.87,3.31,12.54,12.55,4.25,25.6,1.74,38.4.32,14.31-1.58,28.62-4.08,43.04-4.21v-15c-13.55,1.42-27.11,2.85-40.66,4.27-8.36.88-10.25,11.78-1.99,14.73s16.06,1.26,23.95-.75c9.47-2.4,5.38-16.21-3.99-14.46-4.1.76-8.19,1.53-12.29,2.29-8.41,1.57-6.33,14.82,1.99,14.73,45.07-.5,90.15-.45,135.22.17,9.66.13,9.66-14.87,0-15-45.07-.61-90.15-.67-135.22-.17l1.99,14.73c4.1-.76,8.19-1.53,12.29-2.29l-3.99-14.46c-5.4,1.37-10.56,2.68-15.97.75l-1.99,14.73c13.55-1.42,27.11-2.85,40.66-4.27,9.38-.99,9.87-15.09,0-15-13.92.12-27.66,2.57-41.46,4.04-11.82,1.26-24.39,4.3-35.98.38,1.1,4.18,2.21,8.36,3.31,12.54,6.16-5.27,12.54-10.51,19.96-13.93,6.76-3.12,14.34-4.51,21.7-5.36,16.9-1.96,34-1.77,50.94-.53,34.5,2.53,68.52,9.35,102.97,12.35v-15c-36.54,1.22-73.09-.04-109.57-2.25-18.09-1.1-36.16-2.42-54.23-3.76-3.49-.26-7.23-1.1-10.36.9-2.45,1.56-3.71,4.08-4.5,6.78-1.01,3.5-1.96,8.45-.95,12.09s5.42,6.7,9.23,5.24c2.83-1.09,4.32-2.69,5.39-5.5,1.44-3.77-1.62-8.25-5.24-9.23-2.99-.8-7.08-6.18-9.88-8.9-4.2-4.08-8.33-7.23-14.25-7.99l3.79,13.98c8.89-4.53,18.08-8.17,27.65-11.02-2.82-3.67-5.65-7.34-8.47-11.02-4.45,6.73-9.54,12.81-15.29,18.46-6.45,6.34,1.7,15.1,9.09,11.78,13.89-6.24,28.14-11.57,42.68-16.1-2.43-4.18-4.86-8.36-7.3-12.54-8.26,8.64-16.19,17.57-23.8,26.79-4.39,5.32-.46,15.02,7.3,12.54,18.93-6.07,37.32-13.68,55.02-22.73l-10.26-10.26c-3.52,5.33-7.04,10.66-10.56,15.99-4.91,7.43,5.67,14.48,11.78,9.09,14.69-12.97,30.78-24.07,48.03-33.35l-10.26-10.26c-8.97,12.08-17.95,24.17-26.92,36.25-5.18,6.97,5.89,14.91,11.78,9.09,10.13-10.01,21.32-18.57,33.63-25.73l-9.09-11.78c-7.46,9.31-14.92,18.63-22.38,27.94-5.9,7.36,3.56,17.56,10.61,10.61,10.31-10.17,22.02-18.38,35.03-24.73l-9.09-11.78c-7.44,8.79-14.89,17.58-22.33,26.37-6.33,7.47,3.11,16.6,10.61,10.61,11.12-8.88,23.04-16.7,35.5-23.58l-10.26-10.26c-5.32,7.93-10.63,15.86-15.95,23.79-4.87,7.26,5.77,14.79,11.78,9.09,9.31-8.83,19.18-16.97,29.69-24.35l-10.26-10.26c-6.3,9.64-11.46,19.8-15.82,30.45-2.79,6.8,5.85,10.77,11.02,8.47,9.78-4.36,19.56-8.72,29.34-13.08,3.73-1.66,4.54-7.02,2.69-10.26-2.18-3.83-6.58-4.33-10.26-2.69h0Z"/>
    <path class="cls-6" d="M28.96,324.77c13.84-3.02,27.99-3.13,41.89-.46s27.01,4.98,41.21,4.12c29.54-1.79,59.08-5.62,88.54-8.51l-1.99-14.73c-14.68,4.67-29.81,6.92-45.21,6.45-16.15-.49-31.02-5.86-46.89-7.88-15.49-1.96-30.96,2.44-46,5.63-14.07,2.98-30.51,4.18-41.84,13.87-4.68,4.01-1.49,10.71,3.31,12.54,15.33,5.83,33.59.26,48.86-3.35,16.52-3.91,32.9-8.26,49.61-11.29,33.98-6.14,68.62-8.06,103.09-6.21-1.26-4.66-2.52-9.32-3.79-13.98-55.88,26.23-119.11,27.74-179.68,29.19-9.76.23-9.54,14.26,0,15,13.94,1.09,27.7-1.67,41.4-3.89s27.69-4.23,41.59-5.94c28.17-3.47,56.45-5.89,84.79-7.31l-1.99-14.73c-61.62,11.66-124.01,18.36-186.53,22.96-9.53.7-9.76,14.79,0,15,77.28,1.69,153.93-9.96,230.1-21.58l-3.99-14.46c-40.2,6.44-79.83,15.78-119.64,24.16-19.74,4.15-39.53,8.06-59.45,11.23-18.15,2.89-39.37,8.17-57.21,1.62l-1.99,14.73c29.6.9,59.23,1.04,88.84.36,28.51-.65,57.5-.96,85.59-6.37,7.14-1.37,7.18-13.12,0-14.46-25.07-4.71-49.86.45-74.99,1.39-25.73.96-51.39-2.03-76.9-5v15c61.46,2.56,120.72-18.17,181.89-19.83-1.26-4.66-2.52-9.32-3.79-13.98-11.22,6.55-22.92,11.99-35.2,16.21-6.22,2.14-7.98,13.33,0,14.46s16.1,1.69,24.27,1.27l-1.99-14.73c-7.38,1.05-14.35,3.81-20.51,8.01-4.28,2.92-5.43,10.31,0,12.95,7.28,3.55,14.52,2.61,20.71-2.62,5.49-4.64.49-12.21-5.3-12.8-23.52-2.41-47.04-4.85-70.57-7.23-22.56-2.29-45.34-3.87-67.57,1.68-9.36,2.34-5.39,16.81,3.99,14.46,21.46-5.36,43.7-3.17,65.44-.95,22.91,2.34,45.81,4.69,68.72,7.04l-5.3-12.8c-.75.63-1.65.7-2.53.27v12.95c5.24-3.57,10.64-5.6,16.92-6.5,8.36-1.19,6.38-15.16-1.99-14.73-6.76.35-13.57.22-20.28-.73v14.46c13.48-4.64,26.47-10.53,38.79-17.72,6.3-3.68,3.74-14.18-3.79-13.98-61.17,1.66-120.46,22.39-181.89,19.83-4.05-.17-7.5,3.57-7.5,7.5,0,4.44,3.46,7.03,7.5,7.5,24.87,2.9,49.87,5.81,74.95,5.07,24.2-.72,48.85-6.52,72.96-1.99v-14.46c-27.37,5.27-55.82,5.27-83.6,5.87-28.95.63-57.9.47-86.84-.4-8.9-.27-9.57,11.95-1.99,14.73,14.56,5.34,30.14,3.3,45.14,1.3,16.21-2.16,32.35-4.84,48.42-7.89,32.11-6.09,63.95-13.51,95.94-20.17,18.19-3.79,36.43-7.31,54.78-10.25,3.99-.64,6.24-5.63,5.24-9.23-1.2-4.28-5.19-5.85-9.23-5.24-74.87,11.42-150.15,22.7-226.11,21.04v15c63.84-4.7,127.59-11.58,190.51-23.49,8.29-1.57,6.42-15.16-1.99-14.73-28.34,1.43-56.63,3.84-84.79,7.31-13.94,1.72-27.85,3.66-41.72,5.86s-27.33,5.06-41.28,3.97v15c63.47-1.51,128.77-3.79,187.25-31.24,7.21-3.38,3.02-13.61-3.79-13.98-33.9-1.83-67.87.14-101.35,5.75-16.47,2.76-32.63,6.73-48.84,10.71-8.03,1.97-16.09,3.86-24.23,5.35s-15.55,2.46-23.15-.43c1.1,4.18,2.21,8.36,3.31,12.54,4.81-4.11,11.73-5.03,17.71-6.3,7.37-1.57,14.75-3.13,22.12-4.69,15.28-3.24,29.16-6.21,44.68-2.58,14.68,3.43,29.05,6.45,44.22,6.41,15.1-.04,30.21-2.47,44.59-7.04,7.64-2.43,6.82-15.6-1.99-14.73-30.05,2.95-60.26,7.1-90.41,8.62-7.07.35-14.16.28-21.16-.88s-13.58-2.86-20.45-3.88c-14.61-2.17-29.18-1.61-43.61,1.54-9.43,2.06-5.44,16.52,3.99,14.46h0Z"/>
    <path class="cls-2" d="M-14.04,119.09c.86,6.47-2.79,12.27-2.66,18.7.12,5.94,3.81,10.35,6.3,15.44,3.69,7.56-1.16,13.22-4.19,19.94-2.31,5.13-3.12,10.28-.61,15.46,1.44,2.98,5.65.78,5.07-2.14-5.32-26.95-2.23-56.1,9.98-80.86,2.63-5.32,5.94-10.8,11.16-13.94,6.44-3.87,14.97-2.82,22.18-2.91,15.1-.2,30.2-.4,45.3-.6l-.74-5.45c-26.53,6.36-58.93,10.09-78.56,31.09-1.49,1.59-.58,5.01,1.96,4.74,15.73-1.68,29.61-11.44,35.93-26.06.72-1.66.21-3.5-1.66-4.08-18.63-5.72-33.22,13.3-36.78,29.53-4.61,21.03,27.92,24.09,42.04,22.51,7.95-.89,16.84-3.37,21.49-10.46,4.12-6.28,3.83-14.53-1.98-19.6-12.84-11.19-35.08-5.91-42.63,8.76s-.27,33.01,16.31,36.53c17.87,3.8,33.86-14.9,41.32-28.92,5.87-11.04,15.07-36.87-4.47-39.84-18.77-2.85-36.17,10.72-44.05,26.76-3.71,7.55-7.11,16.97-6.03,25.51s8.02,12.72,16.21,14.17c7.77,1.38,16.15,1.23,23.41-2.17,6.51-3.04,12.61-9.47,12.27-17.11-.38-8.34-10.13-13.35-16.77-16.2-8.27-3.56-17.8-5.04-26.52-2.21-13.5,4.39-23.74,21.6-15.72,34.88,8.71,14.44,33.52,16.28,47.71,10.7,14.94-5.87,23.13-25.39,9.03-36.87-12.23-9.95-31.81-9.08-45.05-1.71-11.54,6.41-25.16,27.53-7.45,35.33,8.25,3.63,19.86,4.27,28.7,3.7,8.76-.56,17.35-3.53,23.26-10.28,12.54-14.34,1.95-31.21-12.9-38.17-14.37-6.73-35.38-4.2-38.39,14.37-3.01,18.56,19.81,23.14,33.54,20.13,14.77-3.24,33.14-17.8,28.7-34.96-4.82-18.6-33.63-17.86-47.79-13.57-7.75,2.35-15.97,6.59-19.96,14.02-3.64,6.76-1.98,14.59,3.65,19.66,11.74,10.58,35.95,12.54,46.05-1.12,10.89-14.72-4.84-31.72-19.79-33.91-16.05-2.35-32.1,10.99-31.83,27.5.3,17.91,22.27,20.49,34.53,12.56,6.23-4.03,10.26-11.07,7.3-18.42s-10.91-11.53-17.96-13.86c-7.47-2.48-16.56-3.28-23.42,1.3-5.97,3.99-8.31,11.14-7.16,18.06,2.98,17.9,22.36,22.48,37.75,19.12,8.65-1.89,17.6-5.9,22.99-13.19,4.68-6.33,6.23-15.54,2.13-22.57-8.43-14.47-33.67-14.94-41.71-.14-3.71,6.83-4.27,15.05-4.22,22.67.05,8.11,1.42,16.41,9.03,20.81,16.19,9.34,31.44-5.92,37.21-19.99,3.81-9.3,5.34-19.75,4.01-29.74-.91-6.84-4.7-14.56-12.83-13.67s-13.11,10.35-15.54,17.43c-2.77,8.08-5.03,19.78-1.65,28.02,3.09,7.53,11.37,6.82,17.58,3.56,7.26-3.81,13.39-11.93,15.97-19.64,2.68-8.01-1.01-14.98-9.18-17.17-7.45-2-15.73-.09-22.08,4.11s-11.33,10.72-12.83,18.29.78,15.8,8.64,18.64c3.65,1.32,7.64,1.35,11.48,1.49,4.13.15,10.84,1.71,14.67-.25,7.72-3.96-2.58-13.96-6.18-16.69-4.27-3.23-15.1-9.34-19.82-4.11-2.68,2.97-3.32,8.62-4.48,12.32-1.71,5.42-3.41,10.83-5.12,16.25l4.64-1.22c-8.9-8.64-18.03-17.04-29.86-21.39-1.87-.69-3.33,1.05-3.51,2.68-2.34,20.33,17.11,32.29,34.34,36.2,10.01,2.28,20.8,3.76,31.08,3.43,7.37-.24,15.35-2.2,18.92-9.29,1.08-2.14-.7-4.69-3.13-4.08-13.03,3.3-26.06,6.59-39.08,9.89l1.48,5.35c10.85-3.48,21.7-6.97,32.55-10.45,2.87-.92,2.52-5.59-.74-5.45-11.42.47-22.83,1.07-34.23,1.82-4.48.3-9.56.1-13.77,1.89s-6.57,5.29-8.87,8.97-4.64,7.56-7.75,10.72c-3.91,3.98-7.92,5.05-13.38,5.12-7.28.08-16.16,2.99-14.59,11.98l3.41-3.41-.89-.93-2.78,2.78c9.92-1.27,20.38-2.71,28.45-9.14s12.85-20,24.27-21.9c9.74-1.62,12.37,11.59,21.41,12.87,5.29.75,10.99-2.04,15.7-4.09,5.59-2.43,10.83-5.48,15.79-9.01,1.14-.81,1.92-2.48,1-3.8-5.9-8.43-12.07-17.18-14.57-27.31-2.8-11.33.67-22.62,5.21-32.99,1.42-3.24-3.36-6.07-4.79-2.8-4.7,10.74-8.37,22.1-6.45,33.94s9.01,22.25,15.81,31.97l1-3.8c-4.72,3.36-9.7,6.31-14.99,8.66s-12.32,5.95-17.34,1.19c-5.91-5.61-9.94-12.05-19.24-10.18s-14.92,10.15-20.74,17.25c-7.96,9.71-18.57,12.06-30.51,13.59-1.42.18-2.87,1.13-2.78,2.78.2,3.29,1.76,5.41,4.96,6.28,2.19.6,3.77-1.39,3.41-3.41-1.12-6.37,10.87-4.76,14.08-5.17,3.01-.38,5.8-1.37,8.34-3.07,5.21-3.48,8.74-8.92,12-14.13,2.92-4.66,5.26-8.08,11.18-8.77,4.33-.5,8.75-.62,13.1-.89,9.5-.59,19.01-1.07,28.53-1.45l-.74-5.45c-10.85,3.48-21.7,6.97-32.55,10.45-3.39,1.09-2.01,6.23,1.48,5.35,13.03-3.3,26.06-6.59,39.08-9.89l-3.13-4.08c-3.4,6.76-12.1,6.72-18.68,6.48-8.4-.31-16.84-1.3-25.04-3.17-14.95-3.41-32.32-12.92-30.26-30.85l-3.51,2.68c10.86,3.99,19.26,12.04,27.41,19.96,1.53,1.49,4.01.77,4.64-1.22,2.08-6.62,4.17-13.24,6.25-19.86.35-1.11.87-4.65,1.71-5.42,1.63-1.5,3.63-.66,5.34-.11,3.39,1.09,6.54,2.91,9.18,5.29,1.22,1.11,5.06,4.21,4.03,5.93-.45.75-9.72-.34-10.93-.39-7.24-.27-15.1-.88-15.03-10.2.09-11.58,11.16-21.31,22.31-21.97,2.48-.15,5.1.08,7.43.98,5.77,2.23,5.14,7.62,2.88,12.27-2.67,5.51-6.88,11.14-12.41,13.97-3.46,1.77-7.91,2.97-9.84-1.42-1.05-2.39-.77-5.7-.72-8.26.14-7.36,1.78-15.54,5.52-21.99,1.64-2.83,4.32-6.5,7.84-6.93,4.26-.52,5.9,3.4,6.66,6.83,1.56,7.07.73,15.11-1.07,22.03-2.87,11.01-10.34,25.58-23.44,26.03-15.55.53-15.51-16.95-13.83-28.22.73-4.92,2.23-10.09,5.92-13.62,5.33-5.1,13.33-4.8,19.86-2.49,7.13,2.52,11.99,8.01,10.6,15.9-1.27,7.22-7.04,12.19-13.37,15.18-10.46,4.92-26.19,7.11-35.4-1.48-3.72-3.47-5.94-9.04-5.37-14.14.8-7.16,7.07-10.67,13.76-10.72,8.44-.07,31.48,7.85,23.52,20.02-5.84,8.94-27.19,11.88-30.04-1.22-2.69-12.34,9.31-24.41,21.09-24.89,11.38-.47,28.53,11.3,21.07,24.16-6.86,11.82-25.71,9.81-35.78,3.67-5.29-3.22-8.6-8.92-5.51-14.9,3.19-6.17,10.31-9.55,16.65-11.47s13.55-2.69,20.42-2.03c6.66.64,15.38,2.38,19.19,8.51,7.06,11.35-6.3,24.37-15.67,28.74-9.22,4.31-31.28,6.93-34.34-6.79-1.1-4.92,1.27-10.23,4.83-13.58,5.06-4.76,12.58-5.14,19.02-3.57,11.41,2.8,27.25,14.15,20.61,27.66-6.2,12.61-21.59,13.5-33.8,12.23-5.03-.53-12.66-.7-16.91-4.05-6.45-5.07-.97-14.6,3.43-19.08,7.46-7.59,18.98-10.62,29.38-9.81,11.71.92,26.76,9.47,20.06,23.24-6.11,12.54-22.59,13.57-34.66,11.45-11.65-2.04-23.2-10.01-18.51-23.25s17.96-16.52,30.02-13.41c5.78,1.49,11.89,4.27,16.44,8.25,6.59,5.77.91,13.53-5.19,16.71-8.3,4.34-30.34,5.51-32.48-6.69-.95-5.41.94-11.44,2.72-16.5,2.35-6.73,5.95-13.14,10.88-18.33,4.56-4.81,10.26-8.56,16.61-10.56,5.88-1.85,17.06-3.9,20,3.33,1.93,4.73.17,10.72-1.22,15.34-1.81,5.99-4.5,11.67-7.93,16.9-6.43,9.81-18.74,23.68-31.88,21.01s-18.66-16.34-13.31-27.75c5.53-11.79,21.45-16.17,32.54-9.38,6.53,4,6.04,11.86.4,16.58-5.26,4.41-13.04,5.32-19.64,5.5-6.92.19-13.83-.87-20.38-3.1-3.35-1.14-8.31-2.65-10.31-5.87-2.15-3.46-.51-8.02.77-11.48,4.32-11.67,14.22-25.45,28.52-21.06l-1.66-4.08c-5.5,12.72-17.26,21.83-31.14,23.31l1.96,4.74c9.2-9.83,21.38-15.32,34.08-19.18,13.8-4.19,28.02-7.12,42.04-10.48,3.05-.73,2.39-5.49-.74-5.45-17.07.23-34.14.44-51.21.68-6.81.09-13.78.13-19.71,3.97-5.26,3.41-8.98,8.72-11.83,14.19-13.67,26.24-16.91,57.69-11.23,86.49l5.07-2.14c-3.16-6.53,2.78-13.28,5.27-19.03,2.02-4.66,2.48-9.3.59-14.08-2.09-5.29-6.68-9.75-6.57-15.72s3.47-11.61,2.64-17.92c-.46-3.49-6.02-3.54-5.55,0h0Z"/>
    <path class="cls-13" d="M25.07,268.22c57.92,2.18,115.94,4.29,173.83.41,7.04-.47,12.96-5.57,13-13,.05-8.9-4.86-17.18-12.48-21.76s-16.76-5.02-25.51-5.68c-17.34-1.31-34.67-2.71-52.02-3.85-17.18-1.13-34.39-1.96-51.61-1.85-8.58.05-17.15.35-25.71.92-4.26.29-8.51.64-12.76,1.06-1.96.19-3.92.42-5.88.63-1.04.14-2.09.25-3.13.33-3.73-.16-1.94,1.19,5.36,4.05l1.77,6.56c-.55.45-.63.27-.23-.55.18-.79.38-1.57.62-2.34.2-.67.91-2.9.92-2.94.86-2.14,3.29-3.92-1.38-.84-5.03,3.32-1.16,1.68,1.31,1.56,7.31-.35,14.61-.59,21.93-.76,14.96-.34,29.92-.38,44.88-.38,14.65,0,29.29,0,43.94,0,7.32,0,14.65,0,21.97,0,3.66,0,7.32,0,10.99,0h5.99c.67,0,1.33,0,2,0,2.76.21,2.67-.04-.28-.76l-4.66-4.66-.46-1.08v-6.91l-.27,1.02,3.34-5.74-.79.65c7.4,3.06,14.79,6.13,22.19,9.19-.42-9.04-.84-18.07-1.27-27.11s-7.92-13.71-16.46-12.54c-13.48,1.85-27.12,3.06-40.74,2.9-13.58-.16-26.93-2.22-40.36-4.05-26.79-3.65-54.24-5.18-78.88,7.99-11.15,5.96-6.31,24.94,6.56,24.23,12.15-.68,24.3-1.36,36.45-2.04,6.43-.36,11.98-4.67,12.77-11.27.72-6.01-2.88-12.96-9.31-14.26-8.42-1.71-16.84-3.42-25.26-5.13-3.45-.7-6.87-1.5-10.31-2.22-4.38-.91-.48-.58-.83.04.23.4.38.83.44,1.29-.47,3.4-.34,4.02.4,1.86l-3.34,5.74.87-.91-5.74,3.34-1.06-.08c1.3-.06,2.6-.13,3.89-.19,1.3-.06,2.6-.13,3.9-.19,3.25-.16,6.5-.31,9.74-.45,7.15-.31,14.29-.57,21.44-.72,12.98-.26,25.99-.16,38.95.69,13.48.89,26.86,2.88,40.35,3.7,13.46.83,26.65-.1,39.88-2.73,5.93-1.18,11.99-2.19,17.52-4.72,8.23-3.77,13.02-12.11,9.98-21.03-4.63-13.61-22.74-17.52-35.35-16.86-12.49.65-23.89,3.64-36.41,1.18-13.2-2.59-26.07-5.73-39.58-6.45-15.05-.8-30.1.69-44.96,3.03-7.08,1.11-14.1,2.58-21.15,3.87-3.1.57-6.25,1.21-9.39,1.53-.8.08-1.59.09-2.39.14-1.59-.07-1.63-.06-.12.03,1.41.68,2.69,1.54,3.84,2.58l1.77,6.56c-.18,1.08-.64,1.98-1.37,2.68.72-.74,1.49-1.43,2.29-2.08.62-.49,2.69-1.81,3.83-2.48,2.98-1.75,5.44-2.9,8.41-3.95,7.15-2.52,14.6-4.09,22.05-5.41,8.03-1.43,16.26-2.25,24.36-.85,8.51,1.47,16.8,4.06,25.32,5.53,18.4,3.17,37.15,4.09,55.77,2.6,16.71-1.34,33.08-4.99,45.66-16.79,5.78-5.42,4.81-16.78-2.63-20.42-17.7-8.65-36.1-6.79-55.11-5.91-19.26.89-37.84-3.12-56.79-5.83-20.71-2.96-40.97-3.43-61.54,1.04-4.44.96-8.75,2.3-13.12,3.49-.21.06-3.1.86-1.88.53.93-.25-1.08.18-1.14.03.06.17,4.1,2.35,4.54,2.96s.85,1.76.74,2.55c-.08.6-.56,1.1-.67,1.55-.21.94.9-.52.42-.41-1.51.34,2.21-.39,2.62-.45,2.64-.36,8.34-.02,12.04.02,41.44.48,82.93.34,124.35,1.76,9.24.32,18.85,1.77,28.02.15s20.96-10.47,17.91-21.56-14.55-14.66-24.38-15.58-19.39-.86-29.04-1.14c-22.84-.65-45.71-.79-68.55-.07-11.41.36-22.82.94-34.2,1.77-5.86.43-11.71.93-17.55,1.5-2.6.25-5.19.53-7.79.81-.92.1-2.3.12-3.27.34l-1.37.05c1.92.47,3.44,1.65,4.56,3.55-3.74,6.52-7.48,13.04-11.23,19.56,4.19-.39,8.02-.3,12.07.71,16.24,4.05,23.16-21.02,6.91-25.07-6.21-1.55-12.61-2.24-18.99-1.64-8.86.83-17.44,10.74-11.23,19.56,5.57,7.9,13.26,9.91,22.53,8.94,7.79-.81,15.58-1.57,23.39-2.16,16.59-1.26,33.22-1.97,49.86-2.25,16.32-.28,32.65-.16,48.97.24,8.16.2,16.32.47,24.48.8,3.46.14,6.99.1,10.44.5-2.3-.27,1.28.33,1.75.48-1.1-.59-.99-.52.33.21-.54-.29-1.03-.65-1.46-1.09v-13.12c-1.23,2.58.64-.17.96-.62l.96-.43c-.78.24-1.57.42-2.37.55,2.28-.34.11-.1-.31-.12-1.23-.08-2.49-.02-3.72-.07-7.87-.33-15.73-.76-23.61-.98-14.44-.41-28.9-.55-43.35-.71-14.49-.17-28.99-.33-43.48-.5s-28.31-1.04-42.35-.4S1.78,100.06,1.2,116.4c-.26,7.34,3.69,14.74,10.19,18.29,6.87,3.74,14.61,2.93,21.85.83,13.28-3.87,26.45-6.01,40.31-5.71,13.39.29,26.51,2.77,39.69,4.87,15.8,2.52,31.38,4.2,47.38,3.26,12.54-.74,26.57-2.87,37.75,2.59-.88-6.81-1.75-13.61-2.63-20.42-6.85,6.42-17.76,8.41-27.28,9.17-13.68,1.1-27.47.93-41.11-.55-14.2-1.54-27.74-6.48-41.94-7.92-13.45-1.37-27.5,1.33-40.56,4.43-12.81,3.04-25.98,8.11-35.72,17.26-6.04,5.68-9.16,13.7-6.21,21.76,2.8,7.64,10.42,11.38,18.17,11.78,6.52.33,13.51-1.38,19.92-2.55,7.36-1.35,14.68-2.88,22.08-4.02,13.16-2.02,26.65-2.74,39.94-1.78,15.63,1.13,30.52,6.8,46.2,7.53,8.2.38,16.16-1.53,24.28-2.24,3.24-.28,6.76-.58,10-.05-1.42-.23,3.34.99,2.86.82-.49-.55-.06-.37,1.28.55,2.79,2.01,2.41.55-1.15-4.37l1.77-6.56c1.29-2.39,2.74-1.46.06-1.45-1.88,0-4.06.92-5.92,1.32-3.81.81-7.63,1.63-11.48,2.23-7.87,1.23-15.96,1.21-23.89.82-16.73-.81-33.3-3.46-50.03-4.24s-34.44-.4-51.64.32c-8.06.34-17.62-.51-25.33,1.92-10.92,3.44-13.54,17.07-8.56,26.3s13.92,12.03,23.18,13.92c9.71,1.98,19.43,3.95,29.15,5.92l3.46-25.54c-12.15.68-24.3,1.36-36.45,2.04l6.56,24.23c20.89-11.16,46.02-7.19,68.54-4.01,13.8,1.95,27.56,3.74,41.52,3.63,14.66-.11,29.21-1.85,43.71-3.83-5.49-4.18-10.97-8.36-16.46-12.54.42,9.04.84,18.07,1.27,27.11.56,11.89,13.53,16.31,22.19,9.19,7.74-6.36,5.57-19.09-2.42-24.12-6.5-4.09-15.5-2.79-22.83-2.79-13.98,0-27.96,0-41.95,0-28.27,0-56.55-.27-84.81.57-6.77.2-13.66.23-20.41.89-8.64.85-14.17,5.56-17.56,13.32-2.77,6.37-5.68,13.92-3.76,20.93,2.23,8.11,10.5,12.15,18.4,11.93,6.24-.17,12.58-1.35,18.82-1.81,7.55-.56,15.12-.91,22.7-1.06,14.23-.27,28.47.13,42.68.88,15.84.83,31.66,2.07,47.47,3.27,7.45.56,14.9,1.12,22.34,1.69,2.81.22,5.39.84,8.14,1.2.38.05,2.14,1.04.97.45-.36-.89-.17-.64.57.75-.28-.35-.48-.75-.6-1.18l13-13c-57.89,3.89-115.92,1.77-173.83-.41-7.02-.26-13,6.16-13,13,0,7.26,5.96,12.73,13,13h0Z"/>
    <path class="cls-18" d="M30.01,85.24c28.64,1.22,56.98-4.61,85.66-2.58,14.15,1,28.24,2.89,42.43,3.17,15.03.3,29.87-1.87,44.7-4.06,6.95-1.03,10.78-9.82,9.08-15.99-2.05-7.45-9.02-10.11-15.99-9.08-13.53,1.99-26.99,3.52-40.68,3.05s-27.63-2.33-41.47-3.23c-28.02-1.82-55.74,3.9-83.73,2.71-7.02-.3-13,6.19-13,13,0,7.29,5.96,12.7,13,13h0Z"/>
    <path class="cls-4" d="M28.24,302.47c27.73,1.14,55.48,1.57,83.23,1.24,13.54-.16,27.09-.5,40.62-1.01,6.93-.26,13.86-.57,20.79-.93,3.31-.17,6.62-.38,9.93-.51,1.99-.08,3.98-.14,5.97-.14l1.99.02c3.08.3,2.68-.06-1.22-1.08l-5.38-5.38.49.95-2.05-7.57-.11,1.06,2.05-7.57c3.52-2.73,4.05-3.33,1.59-1.8-1.52.76-1.88.94-1.06.53.81-.39.43-.3-1.14.29-1,.29-2.01.53-3.03.73-4.2.98,2.08.05-2.28.27-1.61.08-3.22.16-4.83.18-7.23.1-14.49-.05-21.72-.02s-15.01-.85-22.52-.96c-4.12-.06-8.17.22-12.26.74-2.54.32-5.22.62-7.73,1.2-1.65.29-1.57.3.23.06-.7.08-1.4.15-2.09.21-3.28.28-6.58.35-9.88.28-1.53-.03-3.06-.09-4.59-.19-.49-.03-5.48-.45-3.59-.26,1.1.16.93.13-.49-.09-1.78-.27-3.56-.5-5.35-.68-2.3-.04-4.57.32-6.84.66-1.49.22-2.99.45-4.46.78-1.84.3-2,.37-.47.22-1.64-.04-1.91.05-.82.26,1.24.31.82.24-1.29-.21-1.23-.23-2.47-.42-3.72-.58-2.53-.36-5.06-.71-7.61-.92-3.78-.32-7.57-.37-11.35-.3-8.1.14-16.17.64-24.28.25s-15.35,7.17-15,15c.38,8.45,6.59,14.59,15,15,12.42.6,25.07-1.39,37.43.22.73.1,4.93.84,6.8,1.09,3.51.47,6.8.01,10.29-.53,1.51-.23,2.99-.57,4.49-.86,3.43-.66.86-.28.42-.07h1.41c-1.86-.26-1.92-.26-.18-.02,2.23.3,4.46.62,6.7.83,10.4.98,21.32-.8,30.59-1.77,12.08-1.26,24.46.74,36.59.53,11.47-.21,23.21,1.16,34.41-2.11,6.83-1.99,14.12-5.48,17.98-11.74,5.21-8.43,2.42-19.5-6.29-24.2-6.58-3.55-15.54-2.54-22.78-2.2s-14.53.76-21.8,1.07c-13.2.56-26.41.95-39.62,1.18-30.39.51-60.79.12-91.16-1.12-7.85-.32-15.35,7.13-15,15,.38,8.4,6.59,14.66,15,15h0Z"/>
    <path class="cls-15" d="M26.32,63.56c54.59-.24,109.17.82,163.71,3.2,4.5.2,4.49-6.8,0-7-54.54-2.37-109.12-3.44-163.71-3.2-4.5.02-4.51,7.02,0,7h0Z"/>
    <path class="cls-3" d="M74.31,50.36c-1.18-12.28,6.83-23.39,1.22-35.46-1.15-2.47-4.79-2.08-6.04,0-3.94,6.51-3.27,13.77-3.31,21.11-.05,8.58.24,17.03,1.36,25.54,2.12,16.15,5.75,33.54-1.88,48.84l6.4,2.7c4.1-13.18,4.86-26.79,2.51-40.37l-6.75,1.86c.79,3.59,1.46,7.2,1.89,10.85.31,2.64,1.23,6.52-.93,8.59l5.85,1.54c-1.67-8.33-1.95-16.67-1.03-25.11l-1.73,3.02c1.41-.62-.12,6.85-.17,7.1-.4,1.88-.82,3.76-1.21,5.64-.72,3.45-1.4,6.91-2.05,10.38-1.35,7.25-2.54,14.52-3.6,21.82l6.75,1.86c2.11-15.7,4-31.36,1.07-47.09-.82-4.42-7.57-2.55-6.75,1.86,2.68,14.39.86,29-1.07,43.37-.59,4.39,6.1,6.33,6.75,1.86,1.84-12.69,4.13-25.3,6.85-37.84.91-4.17,2.24-9.05-.62-12.78-2.43-3.18-6.01-3.75-9.5-2.22-1.18.51-1.61,1.88-1.73,3.02-1,9.08-.52,18.02,1.28,26.97.54,2.67,4.07,3.26,5.85,1.54,6.45-6.2,2.49-18.74.83-26.25-.98-4.45-7.51-2.51-6.75,1.86,2.13,12.33,1.2,24.72-2.51,36.65-1.16,3.73,4.61,6.28,6.4,2.7,6.89-13.81,6.05-28.9,4.03-43.78-1.16-8.54-2.37-16.99-2.53-25.63-.08-4.09-.02-8.19,0-12.28.02-4.88-.31-9.44,2.33-13.8h-6.04c4.59,9.87-3.18,21.55-2.17,31.93.43,4.44,7.43,4.49,7,0h0Z"/>
    <path class="cls-10" d="M73.74,71.44c-.21,3.66-.41,7.31-.62,10.97s-.24,7.39-.85,11.01c-1.1,6.55-4.03,12.75-3.8,19.51.07,1.93,3.07,1.93,3,0-.24-6.78,2.89-13.03,3.83-19.65.5-3.51.6-7.08.8-10.62.21-3.74.42-7.48.63-11.22.11-1.93-2.89-1.92-3,0h0Z"/>
    <path class="cls-15" d="M28.49,276c5.29-.37,10.58-.75,15.87-1.12,3.35-.24,11.23-2.25,13.97.33l1.77-6.69c-4.97.71-9.96,1.13-14.98,1.35v8c14.6-.84,29.22-.86,43.82.07,11.8.75,25.29,4.07,35.93-2.77,3-1.93,2.3-6.16-.96-7.31-7.61-2.68-15.32-1.49-23.09-.24-9.18,1.48-18.4,2.46-27.68,2.98l2.02,7.45c8.4-6.18,19.15-4.21,28.81-2.96,12.1,1.57,24.25,2.26,36.45,2.1,4.41-.06,5.56-6.79,1.06-7.86-5.83-1.38-11.43-1.54-17.35-.68-4.43.64-3.42,8.21,1.06,7.86,11.58-.92,23.17-1.83,34.75-2.75l-1.06-7.86c-6.27,1.69-12.55,3.37-18.82,5.06-3.57.96-4.04,7.06,0,7.71,5.19.84,11.13,1.86,16.34.77,2.04-.42,3.79-1.25,5.06-2.92.24-.32,1.9-2.36.53-1.48-1.09.7,2.47.34,2.94.36,11.1.44,21.79,2.22,32.24-2.61,3.94-1.82,1.52-7.15-2.02-7.45-13.3-1.13-26.56-.25-39.63,2.47-5.04,1.05-2.91,8.76,2.13,7.71,12.38-2.58,24.9-3.26,37.5-2.19l-2.02-7.45c-9.07,4.19-19.49,1.79-29.07,1.49-3.65-.11-5.92.12-8.29,2.93-.67.8-.34.98-1.23,1.4-.76.36-2.5.05-3.34.04-3.03-.03-6.03-.3-9.02-.78v7.71c6.27-1.69,12.55-3.37,18.82-5.06,4.23-1.14,3.54-8.22-1.06-7.86-11.58.92-23.17,1.83-34.75,2.75l1.06,7.86c4.43-.64,8.75-.35,13.09.68l1.06-7.86c-13.26.17-26.35-.83-39.5-2.5-10.16-1.29-21.11-1.94-29.79,4.45-2.9,2.13-2.33,7.7,2.02,7.45,8.15-.45,16.26-1.26,24.34-2.42,8.09-1.16,16.32-3.41,24.3-.6l-.96-7.31c-4.99,3.21-10.6,3.31-16.36,2.93-6.48-.42-12.93-1.14-19.42-1.48-13.3-.7-26.63-.61-39.93.15-5.11.3-5.17,8.22,0,8,5.74-.25,11.42-.82,17.11-1.64,3.03-.43,3.77-4.8,1.77-6.69-4.01-3.78-8.87-3.44-14.03-3.07-7.16.51-14.31,1.01-21.47,1.52-5.11.36-5.15,8.36,0,8h0Z"/>
    <path class="cls-14" d="M149.21,122.85c3.41,1.41,6.29,3.48,8.9,6.07l4.85-6.28c-3.41-2.63-6.95-4.93-10.73-6.98-2.75-1.49-7.28,1.07-5.88,4.52,1.23,3.02-.51,6.65-.8,9.8-.32,3.53.13,6.95,1.06,10.35l7.71-2.13c-1.45-3.47-1.92-6.74-1.35-10.46.39-2.52.93-4.96.26-7.49-1.35-5.1-5.95-7.32-10.55-8.95l-1.06,7.86c1.31.02,7.98.89,5.52,3.81l6.69,1.77c-2.13-9.84-10.91-16.71-20.92-16.74l2.02,7.45c5.35-4.12,14.45-.32,18.97,3.86,3.65,3.38-.03,4.01-2,6.66-1.62,2.18-2.18,5.2-2.65,7.81-.81,4.48-2.02,10.8,1.54,14.48,3.02,3.12,8.01,2.8,11.26.31,5.93-4.55,10.37-21.93,1.59-25.88-4.78-2.15-7.92,2.33-9.79,6.06-2.48,4.95-3.44,10.37-.2,15.22,1.85,2.78,6.39,2.52,7.31-.96,2.19-8.21-8.71-12.7-13.2-5.53-2.06,3.29-1.5,7.5.97,10.41,3.17,3.73,7.93,4.46,12.56,4.44l-3.45-6.02c-.9-.51-1.46-1.27-1.67-2.28l-7.31,3.08c2.94,4.18,8.01,6.13,12.93,4.14,2.35-.95,4.07-2.64,5.17-4.9,1.28-2.62.59-8.23,3.13-9.87l-6.02-3.45c.1,1.61-.68,2.81-.28,4.36.57,2.22.71-1.03,1-1.8.7-1.9,2.48-5.51,4.66-6l-3.08-.4c.06-1.82-.25-2.32-.95-1.52l3.08.4-.81-.47,1.84,2.39c-.63-1.95,4.43-8.35,6.61-6.81l-1.84-2.39c2.09-1.78,4.36-3.27,6.81-4.47-1.39-1.02-2.78-1.13-4.17-.35l5.06,3.86-.82-.53-2.83-1.17.52.6-1.17-2.83c.11,3.19-5.52,5.51-7.8,6.07l4.52,1.84-1.58,3.14-2.83-1.17c-.67-.54-1.45-.75-2.34-.63l1.84,2.39c-1.03-2.48,3.88-5.11,5.57-5.7l-3.89-6.69-1.6,2.3-4.92,2.79.58.13-2.39-1.84-.25-.78,1.17-2.83c-.92.71-1.97.93-3.15.66l1.44,5.47c.45-.64,2.91-3.96.3-2.61-.74.21-.97.68-.71,1.41.12,1.12.05,1.21-.21.26-.14-1.09-.79-1.09-1.93,0l-1.19-1.12c-.33-1.3,2.82-2.68,3.56-3.01.61-.27,2.4-.49,2.84-.91.9,0,.98-.56.26-1.68l-1.07,1.47c-1.41.88-4.41,3.84-5.87,2.87l1.84,2.39-.15-.9-.4,3.08c.67-1.33,2.99-2.27,4.24-2.68.8-.29,1.63-.48,2.47-.56,1.31.12,1.4-.36.26-1.45-.71.11-2.34,2.48-3.29,2.91-1.39.62-2.81.64-4.3.53l3.86,5.06c.45-2.44,1.21-6.53,3.88-7.11,1.8-.39,4.02,1.59,5.89,1.99,3.95.87,7.55-.63,10.52-3.15l-6.28-.81c1.17,1.99-2.89,7.69-3.86,9.37-1.67,2.9-3.54,5.66-5.54,8.34-1.07,1.44-.49,3.65.63,4.85,2.02,2.17,4.17,3.01,7.1,3.18l-4-4v-.13c1.95.8,3.91,1.59,5.86,2.39-.58-1.53-.35-2.37.91-3.41l-6.69-1.77c1.15,6.52-2.77,12.31-8.63,14.81l6.02,3.45c-.3-.76-.16-1.35.42-1.75l-3.89-1.03.62.69-1.17-2.83c.25,2.42-.04,4.94-.14,7.37-.16,4.14,5.41,5.2,7.45,2.02,3.28-5.1,4.14-10.61,3.05-16.52-.6-3.27-5.9-4.01-7.31-.96-1.95,4.22-4.91,10.52-.4,14.21,3.42,2.79,9.07.91,9.29-3.82.23-4.95-5.52-6.64-8.98-4.01s-3.82,8.24.05,10.74,8.99-.57,8.47-5.13c-.57-4.99-6.49-5.88-9.61-2.42s-1.65,8.73,2.74,9.82c5.47,1.36,8.08-4.92,7.54-9.33-.47-3.87-5.12-5.54-7.45-2.02-2.02,3.05-2.45,6.33-1.34,9.81.93,2.92,4.43,3.85,6.69,1.77,3.11-2.87,4.16-6.84,2.86-10.87-.75-2.31-3.63-3.9-5.88-2.39-3.15,2.11-5.91,5.35-4.04,9.3,1.5,3.19,5.77,4.38,8.48,1.99,2.92-2.58,3.07-7.96.04-10.46-3.28-2.7-7.98-.87-8.95,3.13-2.12,8.75,12.15,10.32,11.39,1.26-.31-3.64-3.97-5.74-7.33-4.56-4.44,1.56-4.5,6.39-3.8,10.27l.4-3.08c-2.27,3.38-1,6.86,2.08,9.11v-6.91c-2.86,2.04-4.64,4.85-4.16,8.47.3,2.3,2.35,4.9,5.06,3.86,2.94-1.13,4.33-2.47,5.39-5.46s-2.13-5.83-4.92-4.92c-3.19,1.04-4.67,2.99-4.83,6.34-.08,1.57,1.29,3.61,2.94,3.86,3.83.57,6.09-1.2,6.6-5.02.4-2.99-3.7-5.02-6.02-3.45-3.29,2.22-4.78,4.9-5.23,8.79-.24,2.1,2.03,4.07,4,4,3.41-.12,5.19-1.64,6.4-4.74l-5.88,2.39c3.58,2.17,8.42.42,9.17-3.89.67-3.82-3.61-6.8-6.69-3.89-3.45,3.27-3.09,10.68,3.1,9.59s5.55-8.51,2.17-11.99c-2.55-2.61-6.62-.51-6.83,2.83l-.11,1.77c-.24,3.89,5.71,5.54,7.45,2.02,1.4-2.84,1.55-5.58-.33-8.25-1.12-1.59-3.65-2.84-5.47-1.44-3.77,2.9-5.26,6.41-4.34,11.14.68,3.51,5.63,3.72,7.31.96,1.23-2.03,1.33-3.71,1.01-6.02-.71-5.08-8.42-2.92-7.71,2.13l-.2-.14,7.31.96.66-2.1-5.47-1.44.33.18,7.45,2.02.11-1.77-6.83,2.83,1.36-1.39,3.89,1.03-.53-.51,1.17,2.83.16.44-6.69-3.89,2.58-.89c-2.4-1.45-4.96.06-5.88,2.39l-.42,1.08,1.84-2.39-.1.18,4,4,1.27-1.89-6.02-3.45-.1.78,1.98-3.45-.66.5,3.08-.4-.78-.11,2.94,3.86.24-.1-2.39,1.84,1.12-.36-4.92-4.92.2-.13,5.06,3.86.2-1.56c2.58-1.84,2.53-5.06,0-6.91.5.36,1.45,3.33,1.27.35-.07-1.18.43-1.91-1.38-2.02l-2.83-1.17.11-3,3.08-.4.65,2.57-2.83,1.17,1.27.12-2.83-1.17.9,1-1.17-2.83-.39,1.78,2.39-1.84-.87.15,3.08.4,1.28,1.75-5.88-2.39c.65,1.26.39,2.29-.8,3.08l6.69,1.77c-.67-1.37-.5-2.58.54-3.65l-7.45-2.02c.24.71.26,1.42.05,2.11l3.08-.4.76.6-.4,3.08.2-.25-3.89-1.03.7.66-1.17-2.83.04-.18,2.39-1.84,2.01,2.86-3.08-.4.89.47-1.84-2.39.19.94.4-3.08-.53.88,2.39-1.84c1.49.85,2.31.66,2.45-.57.31-.96.7-1.9,1.16-2.8l-7.31-.96c.7,3.81-.17,7.13-2.24,10.36l7.45,2.02c.15-3.85,1.09-7.83-1.65-10.89-.93-1.05-2.58-1.39-3.89-1.03-4.26,1.18-6.51,5.16-6.29,9.46.16,3.28,3.22,4.65,6.02,3.45,9.37-3.99,14.04-14.05,12.31-23.84-.57-3.25-4.61-3.48-6.69-1.77-3.32,2.74-4.5,7.16-2.97,11.2.84,2.21,3.57,4,5.88,2.39,2.68-1.87,3.59-3.56,3.97-6.78.27-2.23-2.05-3.89-4-4l-1.45-.84.63,4.85c4.53-6.09,14.07-17.83,9.4-25.79-1.39-2.37-4.34-2.45-6.28-.81-2.98,2.52-5.72-.74-8.61-1.52-2.08-.56-4.27-.43-6.17.65-4.31,2.44-6.69,8.06-7.55,12.66-.5,2.69,1.12,4.85,3.86,5.06,6.58.5,16.04-4.31,15.92-11.96-.14-9.13-12.9-5.97-17.65-3.2-2.72,1.6-5.56,3.97-4.97,7.45.7,4.13,4.84,4.87,8.38,4.18,5.77-1.12,16.07-8.34,11.81-15.36-3.79-6.25-14.47-2.29-18.49,1.54-5.57,5.32-4.04,15.85,4.61,16.4,7.05.45,15.54-7.45,8.95-13.86-5.94-5.77-15.45,1-13.33,8.56,2.56,9.14,15.27,3.01,17.52-3.17,1.42-3.89-.84-7.92-4.94-8.59-4.75-.78-8.81,2.29-11.37,5.97-1.22,1.75-.33,4.48,1.44,5.47,3.7,2.08,9.42,1.65,12.51-1.55,2.69-2.79,1.62-7.52-2.3-8.41-2.05-.47-4.4.61-4.92,2.79-.85,3.57.58,7.04,4.09,8.57,4.04,1.77,7.85-.53,10.88-3.08s-.2-7.98-3.89-6.69c-5.2,1.83-12.31,6.96-11.75,13.38s7.67,6.96,12.29,4.74,7.11-9.91,1.37-12.74c-5.24-2.59-11.01,3.49-7.34,8.35,1.11,1.48,2.64,2.3,4.52,1.84,5.56-1.36,15.09-7.29,13.6-14.31-.65-3.05-3.63-4.8-6.67-3.83-3.5,1.12-5.31,4.83-4.96,8.28.26,2.57,2.35,4.57,5.06,3.86,4.97-1.3,11.27-7.35,7.45-12.82s-11.74-1.34-14.83,2.66c-3.45,4.47-2.78,12.87,4.15,13.3,5.6.35,8.99-6.97,4.34-10.56-5.14-3.97-12.74,1.24-15.83,5.55-2.69,3.75-5.47,13.45,2.14,13.7,5.03.17,8.95-6.65,6.56-10.85-3.72-6.54-10.52-.54-13.28,3.45-3.05,4.41-6.51,14.13.27,17.05s12.39-6.28,12.04-12.14c-.17-2.86-3.32-5.2-6.02-3.45s-4.39,4.2-5.14,7.48c-.38,1.64-1.76,10.85-5.14,6.02-2.41-3.44-8.97-1.48-7.31,3.08,2.59,7.12,11.06,11.88,16.29,4.19,1.74-2.55-.57-6.03-3.45-6.02-1.35,0-8.9-.27-8.05-3.45l7.31-.96c-1.65-2.48-.96-4.64.2-7.14.46-.88.95-1.75,1.45-2.61-1.68-.49-2.35-.11-2,1.14-.78,1.69-.27,4.8-.86,6.77-.33,1.41-.94,2.7-1.81,3.86-1.13.5-1.49.13-1.09-1.11-1.2-3.61,1.55-9.3,3.83-11.57,2.1-2.09,3.55-3.95,3.52-7.16-.06-7.11-6.98-10.85-12.59-13.53-6.51-3.12-14.14-4.8-20.34-.03-2.94,2.27-2.32,7.44,2.02,7.45,6.63.02,11.81,4.46,13.2,10.87.61,2.8,4.78,4.04,6.69,1.77,2.85-3.39,3.56-7.81,1.19-11.76-2.58-4.31-7.68-5.64-12.37-5.71s-5.18,6.4-1.06,7.86c2.43.86,4.9,1.49,5.03,4.57.07,1.75-.66,3.68-.82,5.45-.34,3.91.34,7.69,1.85,11.3,1.92,4.59,9.12,3.01,7.71-2.13-1.14-4.19-.92-7.6-.03-11.83.61-2.9.91-5.52-.23-8.33l-5.88,4.52c3.79,2.05,7.32,4.35,10.73,6.98,3.65,2.81,7.99-3.16,4.85-6.28-3.65-3.63-7.69-6.17-12.43-8.13-4.75-1.96-6.83,5.77-2.13,7.71h0Z"/>
    <path class="cls-14" d="M119.26,238.33c4.69-9.22,10.64-17.63,17.14-25.65,6.29-7.75,12.62-16.66,20.79-22.52l-5.47-1.44c2.11,4.33,5.43,7.6,9.81,9.61l-1.44-5.47c-4.84,8.48-9.68,16.96-14.51,25.44-4.34,7.62-9.18,15.52-11.25,24.12h7.71c-1.03-4.77,6.07-7.87,8.93-10.48,3.28-3,4.36-6.85,6.71-10.47,2.33-3.58,5.89-6.11,8.07-9.87s3.61-8.32,4.89-12.63c1.47-4.95-6.25-7.06-7.71-2.13-1.55,5.23-3.14,10.36-6.88,14.47-1.65,1.82-3.48,3.42-4.87,5.47-1.29,1.91-2.03,4.1-3.18,6.1-2.49,4.35-7.33,6.2-10.51,9.93-2.96,3.46-4.12,7.28-3.16,11.73.83,3.87,6.81,3.76,7.71,0,2.05-8.51,7.08-16.3,11.37-23.83,4.53-7.94,9.06-15.88,13.59-23.82.99-1.74.55-4.56-1.44-5.47-3.25-1.49-5.37-3.52-6.94-6.74-.89-1.82-3.81-2.63-5.47-1.44-8.84,6.33-15.61,15.38-22.41,23.77s-13.39,17.44-18.39,27.27c-2.33,4.58,4.57,8.63,6.91,4.04h0Z"/>
    <path class="cls-8" d="M128.7,118.06c4.86-2.7,9.92-4.34,15.41-5.16l-3.08-7.31c-.84.78-1.83,1.1-2.97.98-4.38.06-5.6,6.88-1.06,7.86,6.46,1.4,12.64,3.44,18.61,6.3l4.04-6.91c-3.91-1.77-7.01-3.99-9.92-7.17l-3.89,6.69c7,2.6,16.41,6.24,16.08,15.22l7.45-2.02c-1.67-2.98-3.34-5.97-5.01-8.95-2.52-4.5-9.39-.48-6.91,4.04,2.89,5.25,3.74,11.23,2.1,17.04-.18.63-1.65,3.92-1.6,4.04l1.87.85c-.46-.73-.88-1.49-1.26-2.27-1.65-3.23-2.69-6.75-3.15-10.34l-2.94,3.86c1.89-.28,3.63.07,5.34.89l3.08-7.31c-2.77-.95-5.47-1.39-8.38-1.5-2.37-.09-4.83,2.67-3.86,5.06,1.72,4.23,3.98,7.8,7.3,10.95l4.85-6.28c-1.43-.91-3.41-2.79-2.68-4.73l-1.84,2.39c1.46-1.01,5.35,3.53,6,4.46,1.74,2.49,2.35,5.19,2.24,8.2h8c.06-2.72.11-5.45.17-8.17.11-5.19-7.67-5.1-8,0-.53,8.21-2.72,15.97-6.53,23.26-1.48,2.83.39,5.77,3.45,6.02,2.82.23,5.04-1.17,6.56-3.51s.83-6.51,2.82-8.07l-6.83-2.83c-1.2,11.6-3.19,23.07-5.9,34.41l7.31-.96c-4.41-6.99,3.25-14.96,6.07-21.15,2.96-6.5,4.49-13.32,4.89-20.44.29-5.14-7.71-5.13-8,0-.54,9.75-4.27,17.08-8.75,25.46-3.41,6.38-5.23,13.64-1.11,20.17,1.76,2.79,6.48,2.51,7.31-.96,2.88-12.04,4.91-24.23,6.18-36.54.4-3.88-4.45-4.69-6.83-2.83-1.44,1.13-2.37,2.62-2.87,4.38-.16.55-.72,4.87-.85,4.86l3.45,6.02c4.48-8.56,7-17.66,7.62-27.29h-8c-.06,2.72-.11,5.45-.17,8.17-.11,5.16,7.81,5.14,8,0,.32-8.83-5.89-19.76-15.52-20.79-4.09-.44-7.2,2.44-7.08,6.53.14,4.62,3.1,8.46,6.84,10.84s8.15-3.16,4.85-6.28c-2.28-2.15-4.06-4.5-5.24-7.42l-3.86,5.06c2.37.09,4.05.46,6.25,1.22,4.24,1.45,7.18-5.33,3.08-7.31-3.82-1.85-7.33-2.31-11.5-1.7-1.54.22-3.14,2.29-2.94,3.86.76,5.9,6.6,28.27,16.15,17.64,7.26-8.09,5.6-22.3.81-31l-6.91,4.04c1.67,2.98,3.34,5.97,5.01,8.95,2,3.58,7.31,1.83,7.45-2.02.48-12.97-11.48-19.05-21.95-22.94-3.99-1.48-6.37,3.97-3.89,6.69,3.29,3.6,7.1,6.41,11.54,8.42s8.71-4.66,4.04-6.91c-6.58-3.16-13.38-5.57-20.52-7.11l-1.06,7.86c2.6-.03,4.81-.63,7-2.07,3.98-2.61,1.3-7.97-3.08-7.31-6.16.92-11.87,2.94-17.32,5.97-4.5,2.5-.47,9.41,4.04,6.91h0Z"/>
    <path class="cls-16" d="M151.31,195.08c-7,9.14-13.27,18.79-18.65,28.97-2.62,4.95-5.02,10.02-7.23,15.17-1.08,2.52-2.03,5.1-3.24,7.55-.59,1.19-1.09,2.87-2.37,3.47-1.55.72-1.85.02-3.4-1.14-4.31-3.24-8.22-7.12-11.65-11.27-3.33-4.04-5.46-9.03-8.83-12.97s-8.91-5.33-13.7-6.49c-2.47-.6-4.98-1.02-7.5-1.33-1.39-.17-8.4.05-8.23-2.16l-4,4c3.51.12,6.15,2.61,8.92,4.48,3.23,2.19,6.54,3.52,10.28,4.59,8.63,2.48,14.22,7.75,20.25,14.15l3.89-6.69c-4.92-.99-9.21-2.88-13.27-5.82l-3.08,7.31c10.53,3.21,19.36,9.88,25.29,19.16,1.33,2.08,4.47,2.77,6.28.81,6.34-6.86,5.26-17.03,10.58-24.64s12.26-13.4,16.17-21.78c2.16-4.64-4.73-8.7-6.91-4.04-3.69,7.91-10.25,13.68-15.34,20.63-2.29,3.13-4.2,6.5-5.43,10.18-1.52,4.58-1.3,10.29-4.73,13.99l6.28.81c-7.07-11.05-17.52-19.01-30.07-22.84-4.61-1.41-6.56,4.79-3.08,7.31,4.58,3.31,9.64,5.51,15.18,6.63,3.86.78,6.74-3.67,3.89-6.69-6.4-6.78-12.98-12.99-22.1-15.73-4.74-1.42-8.28-3.11-12.36-5.9-3.3-2.26-6.6-3.8-10.65-3.94-2.28-.08-3.84,1.9-4,4-.42,5.62,4.12,8.87,9.25,9.54,6.58.85,15.25.64,20.97,4.61,2.78,1.93,4.34,6.35,6.26,9.08,1.77,2.52,3.68,4.95,5.73,7.25,4.03,4.55,8.89,9.41,14.23,12.43,12.38,7.01,17.43-15.05,21.05-22.59,6.13-12.78,13.62-24.83,22.24-36.08,3.13-4.09-3.82-8.07-6.91-4.04h0Z"/>
    <path class="cls-14" d="M35.87,168.45c2.87,3.83,2.73,8.88,7.43,11.34,3.76,1.97,7.38.92,9.85-2.3,1.38-1.8.17-4.38-1.44-5.47-3-2.05-7.21-4.64-7.26-8.73-.04-3.15,2.28-5.73,2.18-9.06s-1.68-6.32-1.93-9.59c-.31-4.13.66-8.08,2.57-11.73l-7.31-.96c1.31,7.72-1.22,15.55.32,23.27.69,3.46,2.22,6.46,4.28,9.31s6.23,6.79,4.57,10.57l6.28-.81c-2.34-2.7-3.62-5.78-3.88-9.34-.3-4.17-7.1-5.81-7.86-1.06-.97,6.06,1.46,11.04,7.05,13.7,6.62,3.15,11.89,8.6,12.81,16.32.46,3.83-2,6.52-5.89,5.48s-5.23-5.37-5.09-8.88c.06-1.52.34-3.32,1.26-4.6,2.06-2.87,4.46-2.2,4.42,1.51-.01,1.27-.55,6.71-3.41,3.91.44-1.15.32-2.21-.37-3.19-.22,1.51.12,1.8,1.03.85l3.08.4c-.39-.94-.06-1.71.99-2.3l-6.83-2.83c.14-1.3.85-1.29.46-2.97-.16-.68-.47-1.35-.84-1.95-.8-1.3-2.03-2.4-3.52-2.88-3.73-1.2-7.02,1.62-8.49,4.79-3.03,6.57.42,16.37,8.99,14.19,7.92-2.01,8.81-11.6,3.58-16.9-1.54-1.56-4.15-2.04-5.53-3.5-1.16-1.22-1.07-3.22-1.32-4.77-.52-3.37-1.56-6.01-4.57-7.86-3.66-2.26-7.07,2.08-5.47,5.47,2.89,6.13,4.39,12.76,4.25,19.55-.1,4.92-.94,10.16,2.74,14.12,5.93,6.39,20.7,5.46,27.14.48,6.79-5.26,5.68-16.41-1.13-21.18-1.87-1.31-3.99-1.8-6.04-2.73-2.81-1.28-3.81-2.85-5.16-5.52-2.06-4.06-3.98-7.3-8.45-8.87-2.58-.9-4.94,1.43-5.06,3.86-.33,6.42-5.48,11.5-6.48,17.84-.83,5.23.8,10.98,5.14,14.26,9.08,6.85,19.83-1.06,18.43-11.54-.32-2.42-1.12-4.78-2.41-6.87-.38-.62-2.35-3.46-2.73-3.57-4.19-1.27-1.34,2.5-.88,3.17,1.3,1.89,2.91,3.37,4.73,4.76,1.7,1.31,5.1,3.01,4.9,5.56-.17,2.19-3.5,3.37-5.37,3.08-.1,1.59-.04,1.08.21-1.52l.3-1.68c.54-3.16,1.38-6.28,1.57-9.5.33-5.6-1.27-11.46-5.83-15l-3.89,6.69c8.85,3.73,13.29,14.18,10.75,23.21-1.4,4.96,6.32,7.08,7.71,2.13,3.84-13.64-3.49-27.63-16.34-33.06-3.61-1.52-6.97,4.29-3.89,6.69,6.62,5.14,2.14,14.34,1.52,21.15s4,9.74,10.59,8.67c5.55-.89,10.62-5.14,10.72-11.12.1-6.19-5-8.78-9.03-12.33-3.63-3.2-5.53-10.28-11.8-8s-4.14,9.29-1.27,13.26c1.6,2.21,4.05,6.26,2.03,9.07-3.47,4.8-7.61-2.31-7.39-5.48.26-3.85,2.79-7.28,4.35-10.68,1.37-2.98,2.2-5.9,2.37-9.18l-5.06,3.86c2.57.9,3.52,5.22,4.79,7.34,1.63,2.73,3.6,4.72,6.49,6.1s6.61,1.7,7.87,5.2c1.39,3.85-1.08,6.28-4.77,7.07-2.89.62-7.6,1.17-10.48.15-4.35-1.54-2.93-6.23-2.86-9.89.16-8.25-1.83-16.16-5.34-23.59l-5.47,5.47c1.33.82.96,4.41,1.28,5.81.37,1.69.99,3.33,2.1,4.67,1.76,2.12,4.67,2.43,6.42,4.4.97,1.09.86,4.42-.11,3.06.13.18-.45-5.77-1.39-2.72-.44,1.43,1.58,4.38,2.57,5.27,1.36,1.23,3.22,1.76,5.03,1.69,4.25-.17,6.93-3.23,7.36-7.25.4-3.67-4.52-4.97-6.83-2.83-4.21,3.9-5.46,15.15,2.65,15.42,7.09.23,7.32-10.26,3.79-14.17-5.83-6.45-13.34,1.39-13.48,7.91-.14,6.64,5.92,13.11,12.8,10.08s8.32-14.94,4.49-20.6c-4.09-6.05-11.99-5-16.15.28-8.91,11.29,1.07,32.66,16.48,26.15,8.84-3.74,7.94-13.69,4.67-21.09-1.75-3.97-4.13-7.76-7.42-10.63-2.79-2.44-11.06-4.27-10.35-8.74l-7.86-1.06c.42,5.79,2.42,10.61,6.23,15,1.56,1.8,5.28,1.48,6.28-.81,3.88-8.84-2.16-13.95-6.24-21.09-4.66-8.16-.6-19.26-2.12-28.23-.58-3.4-5.79-3.86-7.31-.96-2.2,4.2-3.54,8.63-3.69,13.39-.16,5.35,2.65,10.38.92,15.48-3.3,9.68,2.4,15.95,10.09,21.2l-1.44-5.47c1.13-1.48-2.5-7.75-3.47-9.04-3.05-4.07-10-.09-6.91,4.04h0Z"/>
    <path class="cls-9" d="M109.55,112.98c-3.8,6.61-9.05,11.56-15.82,15.05l4.85,6.28c3.41-3.05,6.82-6.09,10.22-9.14,1.48-1.32,1.63-4.37,0-5.66-4.94-3.9-8.84.65-11.83,4.69-2.22,3-10.79,16.18-14.89,8.09l-2.39,5.88c3.22-1.07,6.23-1.48,9.6-1.31l-3.45-6.02c2.64-5.84,5.29-11.39.79-17.09-2.55-3.23-7.75.29-6.69,3.89,1.32,4.45,1.6,8.58,1.03,13.17h8c-1.02-9.77-5.14-21.42-17.24-19.26-4.68.83-3.18,7.56,1.06,7.86,3.51.24,6.86,0,10.33-.56,2.57-.41,3.62-3.86,2.39-5.88-3.83-6.29-10.84-5.5-16.9-3.4-2.79.96-4.86,1.55-7.85,1.21-1.82-.21-3.51-.4-5.33-.07-3.76.67-7.07,2.82-9.72,5.52-11.23,11.45-12.17,29.84-8.56,44.58.94,3.83,2.22,7.7,4.44,11,2.34,3.46,5.78,5.98,6.61,10.29,1.41,7.22-.44,16.05,7.14,20.53,7.51,4.43,10.55-4.04,8.59-10.07-2.56-7.85-10.22-15.18-15.6-21.23l-5.66,5.66c3.69,3.77,4.56,9.26,7.56,13.5,2.77,3.92,6.23,6.15,10.99,6.65,3.13.33,4.84-3.61,3.45-6.02-4.25-7.42-9.75-14.15-13.86-21.6-3.8-6.87-3.31-15.06-7.07-22.01-1.8-3.33-6.11-2.01-7.31.96-2.91,7.21,1.28,13.82,4.79,19.92,4.48,7.8,7.07,16.24,7.64,25.23.33,5.11,8.33,5.15,8,0-.48-7.51-2.03-14.77-4.97-21.71-2.57-6.08-10.48-14.55-7.75-21.31l-7.31.96c3.72,6.87,3.18,15.1,7.07,22.01,4.19,7.43,9.61,14.17,13.86,21.6l3.45-6.02c-4.21-.44-6-5.88-7.43-9.15s-2.98-6.12-5.47-8.66c-3.63-3.71-9.06,1.83-5.66,5.66,1.71,1.92,16.44,17.9,14.2,20l2.83-1.17c-3.75-.26-3.14-9.83-3.34-12.19-.36-4.17-1.42-7.77-3.99-11.12-3.1-4.05-5.71-7.14-7.11-12.24-1.24-4.51-1.95-9.14-2.02-13.82-.12-8.7,2-18.96,8.68-25.1,4.51-4.14,8.62-1.64,13.86-2.56,2.8-.49,10.67-5.27,12.8-1.77l2.39-5.88c-2.77.44-5.42.47-8.2.27l1.06,7.86c5.82-1.04,6.72,7.78,7.12,11.55.54,5.18,7.37,5.1,8,0s.17-10.26-1.32-15.29l-6.69,3.89c1.39,1.76-1.64,6.82-1.95,9-.38,2.66.06,5.31,1.71,7.48,3.07,4.01,9.83,3.82,12.01-1.01,1.26-2.79-.22-5.86-3.45-6.02-4.07-.2-7.86.32-11.73,1.6-2.55.84-3.6,3.5-2.39,5.88,2.94,5.8,9.94,7.52,15.73,5.15,3.09-1.27,5.64-3.54,7.76-6.08,1.8-2.15,4.97-9.18,7.76-9.69l-3.89-1.03.62.49v-5.66c-3.41,3.05-6.82,6.09-10.22,9.14s.96,8.29,4.85,6.28c7.9-4.07,14.27-10.22,18.69-17.92,2.57-4.47-4.34-8.51-6.91-4.04h0Z"/>
    <path class="cls-14" d="M144.08,258.98c-.55.75-1.24,1.27-2.05,1.55l-1.77-1.03c-.76-1.43-.43-2.51.98-3.25l3.89,6.69c-.33.33-.42,0-.09.16.4.2.85.34,1.27.53,1.34.63,2.71,1.41,4.23,1.45,3.21.09,5.99-3,4.85-6.19-.73-2.03-2.72-3.4-4.92-2.79-1.96.54-3.53,2.88-2.79,4.92l.14.38v-2.13l-.15.41,1.03-1.77-.34.28,2.83-1.17c.18-.02-.22.02-.53-.15-.56-.3-1.14-.55-1.72-.81-1.13-.49-2.17-.85-3.41-.96-2.28-.2-4.43.53-6.05,2.17-2.8,2.83.03,7.75,3.89,6.69,4.12-1.14,6.13-6.64,2.91-9.85-3.28-3.28-8.54-1.34-9.91,2.73-1.65,4.89,6.07,6.99,7.71,2.13h0Z"/>
    <path class="cls-14" d="M78.72,151.32c4.31,2.95,9.82,3.75,14.73,1.85,5.48-2.12,7.72-7.25,12.19-10.59,4.08-3.05.09-9.99-4.04-6.91-5.83,4.36-10.47,14.46-18.85,8.73-4.26-2.91-8.27,4.02-4.04,6.91h0Z"/>
    <path class="cls-14" d="M38.89,208.76c0-.35.19-1.4-.08-.29.16-.66-.33.47-.51.65-.67.67-1.62.88-2.52.63-1.37-.49-2.12-1.41-2.23-2.76,0,.12,0,.23-.01.35-.02.32,0,.14.08-.53-.02.14-.05.29-.09.43-.04.14-.08.28-.13.42.27-.58.33-.74.19-.46-.44.78.61-.52.1-.07.58-.4.69-.5.35-.29.39-.24.81-.36,1.27-.36-2.08.13-4.1,1.75-4,4,.09,2.06,1.76,4.14,4,4s4.22-1.29,5.24-3.34,1.51-4.74.33-6.76c-1.45-2.49-4.57-3.18-7.05-1.82-2.26,1.23-2.99,3.78-2.94,6.19.04,2.09,1.81,4.1,4,4s4.04-1.76,4-4h0Z"/>
    <path class="cls-5" d="M16.48,64.48c1.93,0,1.93-3,0-3s-1.93,3,0,3h0Z"/>
    <path class="cls-5" d="M27.18,11.38h95.94c.89,0,.89-1.39,0-1.39H27.18c-.89,0-.89,1.39,0,1.39h0Z"/>
    <g>
      <path class="cls-5" d="M160.99,125.7c-1.75-.42-3.5-.87-5.26-1.24-1.99-.41-4.35-.66-5.9.95s-1.86,4.48-1.94,6.61c-.11,2.69.39,5.39,1.13,7.96s1.82,5.31,2.9,7.88c.81,1.91,2.09,3.22,4.21,3.49,5.04.65,7.65-3.66,9.63-7.53,2.37-4.62,4.66-9.47,5.18-14.7.44-4.49-.82-8.85-3.6-12.39-5.37-6.85-14.59-10.12-22.98-11-5.42-.57-11.45-.32-16.28,2.49-3.91,2.28-7.11,6.78-5.68,11.45.18.58.91.97,1.47.6,7.03-4.68,16.5-5.63,24.4-2.71,3.75,1.38,7.16,3.75,9.71,6.84,2.21,2.68,4.17,6.5,3.92,10.08-.13,1.83-1.53,3.99-3.58,2.9-.57-.3-1.33-.87-.48-1.2,1.27-.5,2.83-.34,4.11.02s1.77-1.58.53-1.93c-1.87-.53-5.8-.94-6.87,1.22-.84,1.7.83,3.33,2.3,3.89,2.03.77,4.19-.17,5.23-2.05s.85-4.23.37-6.29c-2.4-10.3-12.93-16.48-22.92-17.06-6.16-.36-12.56,1.13-17.73,4.57l1.47.6c-1.12-3.67,1.43-7.13,4.44-9,3.64-2.26,8.18-2.75,12.38-2.63,7.5.22,15.56,2.42,21.44,7.24,2.57,2.1,4.75,4.77,5.76,7.98,1.38,4.4.45,9-1.15,13.21-.81,2.14-1.81,4.21-2.85,6.25-.92,1.82-1.78,3.85-3.2,5.34-1.32,1.39-3.33,2.25-5.25,1.74-2.04-.53-2.58-3.19-3.25-4.91-1.89-4.84-3.66-10.24-2.31-15.45.28-1.1.64-2.29,1.85-2.65,1.08-.33,2.31-.03,3.38.21,1.64.36,3.26.77,4.89,1.16,1.25.3,1.79-1.63.53-1.93h0Z"/>
      <path class="cls-5" d="M167.89,184.48c.99-4.78,1.97-9.55,2.96-14.33.82-3.99,1.86-7.99,2.39-12.02.81-6.14.63-12.55-.17-18.68-.39-3.04-.92-6.13-2.21-8.93-.54-1.17-2.26-.15-1.73,1.01,1.06,2.29,1.51,4.9,1.86,7.39.46,3.2.65,6.45.7,9.68.04,2.88-.03,5.78-.35,8.65-.42,3.75-1.42,7.47-2.18,11.17-1.07,5.18-2.14,10.36-3.21,15.54-.26,1.26,1.67,1.79,1.93.53h0Z"/>
      <path class="cls-5" d="M163.99,144.67c1.67,2.33.25,4.61-.97,6.79s-2.51,4.2-3.2,6.51-.36,4.27.58,6.41c.49,1.13.91,2.17.59,3.41-.25.97-.79,1.84-1.32,2.67-1.08,1.71-2.27,3.38-2.59,5.43-.39,2.5.08,5.2.24,7.71.2,3.07-.1,9.2,4.32,9.51,2.5.18,3.96-1.91,5.31-3.68s1.67-3.37.94-5.47c-.42-1.21-2.35-.69-1.93.53.26.74.52,1.52.28,2.3-.26.83-.95,1.54-1.48,2.21-1.09,1.37-3.02,3.29-4.42,1.14-1.02-1.57-.84-3.77-.96-5.55-.15-2.3-.39-4.61-.42-6.92-.02-2.12.83-3.7,1.94-5.43.9-1.4,1.87-2.86,2.13-4.54.31-1.98-.7-3.48-1.32-5.27-.78-2.23.07-4.46,1.1-6.46,1.87-3.66,5.85-8.19,2.9-12.3-.74-1.04-2.48-.04-1.73,1.01h0Z"/>
      <path class="cls-5" d="M147.05,116.1c1.27-2.94.9-6.29-.96-8.91-.37-.52-1.24-.02-.86.5,1.63,2.3,2.09,5.28.96,7.9-.25.58.61,1.09.86.5h0Z"/>
      <path class="cls-5" d="M157.47,121.22c.33-2.15.64-4.3.91-6.45.11-.91.14-1.82-.25-2.67-.34-.76-.91-1.35-1.59-1.82-.53-.36-1.03.5-.5.86.62.42,1.13,1.02,1.32,1.76.21.8.04,1.66-.06,2.46-.25,1.87-.51,3.73-.79,5.59-.1.63.87.9.96.27h0Z"/>
    </g>
    <g>
      <path class="cls-5" d="M48.02,196.02c2.84,1.56,3.03,5.3,5.38,7.36s5.87,2.23,8.57.52c2.3-1.46,3.71-3.99,4.11-6.65.44-2.93-.47-5.95-1.64-8.61-2.78-6.31-8.02-11.08-11.55-16.94-4.12-6.84-5.86-14.79-7.54-22.51-.92-4.21-1.69-8.53-.8-12.82.66-3.16,2.17-6.14,4.23-8.61,4.86-5.82,12.44-8.46,19.9-7.5,3.22.41,6.38,1.45,9.2,3.05.65.37,1.33.75,1.9,1.23.89.74,1.05,1.45.42,2.43-1.04,1.62-2.36,2.87-3.12,4.69-1.15,2.76-1.24,6.09.63,8.57,1.75,2.33,4.71,3.21,7.51,3.31,1.65.06,3.33-.16,4.92-.57s3.56-.98,4.86-1.98c.44-.34.6-.9.88-1.37.32-.54.69-1.04,1.09-1.52.85-.99,1.81-1.88,2.81-2.72,3.97-3.33,9.27-5.92,12.07-10.44.55-.89.96-1.88,1.12-2.92.2-1.26-1.73-1.8-1.93-.53-.35,2.24-1.92,3.94-3.55,5.41-2.03,1.83-4.31,3.37-6.49,5s-4.17,3.18-5.8,5.21c-.36.45-.7.9-.99,1.39-.43.7-.53.96-1.3,1.34-1.57.77-3.29,1.3-5.02,1.55-2.86.42-6.61.19-8.54-2.28-2.19-2.8-.88-6.76,1.09-9.28.94-1.21,2.25-2.42,2.19-4.08-.05-1.49-1.23-2.54-2.37-3.32-2.48-1.69-5.38-2.87-8.29-3.58-6.69-1.64-13.97-.72-19.75,3.14-5.44,3.62-9.25,9.52-9.96,16.05-.44,4.01.34,8,1.19,11.9s1.68,7.63,2.82,11.36,2.47,7.17,4.33,10.47c1.65,2.93,3.74,5.58,5.8,8.23s4.12,5.32,5.65,8.31c1.34,2.61,2.54,5.86,2.01,8.83s-2.55,5.58-5.61,5.95c-1.63.2-3.15-.48-4.22-1.69s-1.49-2.7-2.24-4.02-1.67-2.37-2.98-3.09c-1.13-.62-2.14,1.11-1.01,1.73h0Z"/>
      <path class="cls-5" d="M48.97,195.69c-.31-4.87-.61-9.8-1.78-14.56s-3.43-8.57-6-12.59-4.33-8.12-4.57-12.96.67-9.81,1.9-14.54c1.28-4.91,2.9-9.75,4.61-14.53,1.59-4.44,3.79-8.67,7.63-11.56,1.68-1.27,3.59-2.31,5.63-2.87,2.31-.63,4.27-.21,6.55.28,4.81,1.04,8.86-1.82,13.57-2.06,4.18-.21,8.69,1.45,10.83,5.23,2.75,4.86,1.17,11.17-.35,16.15-.21.68.35,1.19.96,1.27,2.85.33,5.03-1.92,6.62-3.98,1.83-2.37,3.24-4.91,5.52-6.9,4.94-4.31,11.57-6.5,17.82-8.07l-1.23-1.23c-.28,1.15-.51,2.3-.63,3.48-.03.3-.04.61-.08.91-.02.17-.05.28-.03.24-.13.21-.63.61-1.04.92-1.2.9-2.41,1.81-3.59,2.74-1.01.8.41,2.2,1.41,1.41,1.17-.92,2.37-1.8,3.55-2.7.51-.39,1.07-.78,1.39-1.36.28-.51.29-1.09.34-1.65.1-1.17.33-2.31.61-3.45.18-.75-.48-1.42-1.23-1.23-6.09,1.53-12.35,3.66-17.39,7.52-2.32,1.77-4.01,3.88-5.64,6.28-1.42,2.09-3.46,5.43-6.4,5.09l.96,1.27c1.47-4.83,2.73-10.31,1.18-15.28-1.15-3.69-3.96-6.41-7.56-7.74-2.03-.76-4.26-1.02-6.42-.87-2.5.18-4.79,1.02-7.17,1.72-1.21.36-2.45.68-3.72.63s-2.59-.48-3.88-.74c-2.09-.41-4.18-.25-6.2.43-4.37,1.46-8.08,4.56-10.56,8.39-2.74,4.23-4.14,9.31-5.69,14.06-3.05,9.38-6.38,20.43-2.86,30.15,1.95,5.37,6.09,9.58,8.09,14.92,2.13,5.67,2.47,11.81,2.85,17.79.08,1.28,2.08,1.29,2,0h0Z"/>
      <path class="cls-5" d="M47.67,184.47c2.16-2.49,4.69-4.62,7.47-6.39.54-.35.04-1.21-.5-.86-2.84,1.82-5.45,4-7.67,6.55-.42.48.28,1.19.71.71h0Z"/>
      <path class="cls-5" d="M40.61,169.66c1.09-1.03,2.18-2.07,3.28-3.1.87-.82,1.93-1.8,3.18-1.91.64-.06.64-1.06,0-1-1.44.13-2.61,1.03-3.64,1.98-1.2,1.09-2.36,2.22-3.53,3.33-.47.44.24,1.15.71.71h0Z"/>
    </g>
    <g>
      <path class="cls-5" d="M65.3,213.48c2.01,1.02,4.3,1.77,6.14,3.1.74.53,1.37,1.2,1.92,1.92.62.79,1.05,1.74,1.92,2.29,1.38.89,3.16,1.22,4.73,1.59,2.15.5,4.32.88,6.46,1.41.79.19,1.6.39,2.36.69.82.32,1.17.76,1.82,1.36,2.22,2.06,4.8,3.72,7.31,5.41,2.36,1.59,4.73,3.14,6.63,5.29s3.47,4.46,5.19,6.7c1.62,2.11,3.27,4.18,5.42,5.76.76.56,1.67,1.19,2.66,1.18s1.77-.71,2.44-1.4c1.83-1.89,3.9-3.71,4.91-6.21.75-1.86.81-4.05,1.01-6.03s.2-4.26,1.01-6.09c.55-1.25,1.77-2.32,2.62-3.38,1.07-1.33,2.11-2.68,3.14-4.04,3.8-5.02,7.3-10.24,10.77-15.48,1.84-2.78,3.69-5.57,5.57-8.32.95-1.38,1.9-2.76,2.87-4.13s2.08-2.51,3.78-1.62c3.59,1.88.56,5.4-1.21,7.31-2.25,2.42-4.32,5-6.19,7.72-1.73,2.51-3.28,5.15-4.73,7.84-1.52,2.83-2.73,5.93-4.87,8.37-1.69,1.93-3.5,3.63-4.84,5.85-1.15,1.91-1.86,4.02-2.51,6.14-1.42,4.67-2.38,9.72-4.83,13.99-1.28,2.22-3.39,3.75-5.08,5.64-.55.61-1.32,1.77-2.15,2.04-1.06.33-1.88-1.09-2.5-1.71-1.11-1.11-2.61-1.89-3.95-2.67-1.9-1.12-3.83-2.18-5.73-3.29-1.54-.9-2.56-1.63-3.55-3.18-1.35-2.1-2.3-4.44-3.79-6.45-.61-.82-1.28-1.58-2.12-2.17-1.13-.8-2.54-1.14-3.78-1.74-1.71-.83-3-1.94-4.14-3.45-1.35-1.79-2.47-3.72-4.41-4.93-1.84-1.15-4-1.73-6.1-2.19-2.48-.54-4.99-.88-7.46-1.42-2.2-.48-4.55-1.07-6.39-2.43-1.06-.79-2.04-1.72-3.05-2.58-.84-.71-1.76-1.44-2.44-2.32-1.37-1.78-.41-3.78.55-5.54.27-.5.28-.8.79-.78.4.02.93.36,1.29.53.76.37,1.69.75,2.32,1.32.96.86,2.37-.55,1.41-1.41-.64-.58-1.45-.99-2.21-1.38-.88-.45-1.96-1.08-2.98-1.13-1.17-.05-1.85.92-2.35,1.84-.62,1.14-1.22,2.38-1.45,3.68-.35,2,.49,3.62,1.88,5.02.9.9,1.9,1.7,2.87,2.52,1.05.88,2.04,1.85,3.24,2.53,4.31,2.46,9.62,2.55,14.35,3.7,2.15.52,4.51,1.21,6.07,2.87s2.51,3.71,4.15,5.25c1.79,1.69,4.02,2.28,6.16,3.37s3.36,3.84,4.48,5.91c1.04,1.91,2.12,3.99,3.94,5.26,1.49,1.04,3.14,1.87,4.72,2.77,1.87,1.06,3.8,2.09,5.55,3.34,1.49,1.06,2.46,3.14,4.59,2.94,2.29-.22,3.96-3.16,5.43-4.62.88-.87,1.83-1.6,2.58-2.59s1.28-1.96,1.78-3.02c2.18-4.67,3.15-9.77,4.79-14.63.84-2.51,2.05-4.79,3.81-6.78,1.88-2.12,3.8-3.98,5.15-6.53,3.25-6.14,6.4-12.16,10.89-17.52,1.95-2.33,4.95-4.61,5.65-7.71.55-2.43-1.12-4.86-3.42-5.64-3.33-1.13-5.15,1.9-6.77,4.23-2.05,2.94-4.05,5.92-6.03,8.91-3.69,5.56-7.35,11.13-11.34,16.48-1.08,1.45-2.19,2.88-3.31,4.3-1,1.26-2.3,2.48-3.08,3.87-.97,1.72-1.06,3.96-1.27,5.87-.23,2.15-.18,4.61-.96,6.65-.43,1.13-1.27,2.36-2.1,3.23-.57.6-1.2,1.14-1.77,1.74-.38.4-.84,1.1-1.35,1.35-.89.44-2.06-.77-2.7-1.31-1.04-.88-1.95-1.93-2.81-2.98-1.94-2.38-3.67-4.92-5.59-7.31-3.85-4.77-9.43-7.29-14.07-11.16-.81-.67-1.5-1.57-2.39-2.13-.68-.43-1.49-.68-2.25-.9-2.13-.63-4.33-1.01-6.5-1.48-1.72-.37-3.98-.61-5.48-1.61-.66-.44-1.08-1.35-1.64-2.06-.68-.85-1.44-1.61-2.33-2.23-1.86-1.31-4.12-2.07-6.14-3.1-1.14-.58-2.16,1.14-1.01,1.73h0Z"/>
      <path class="cls-5" d="M140.63,219.39c1.15-.27,2.41-.11,3.44.48.56.32,1.06-.54.5-.86-1.26-.72-2.8-.91-4.21-.58-.26.06-.42.36-.35.62.07.27.35.41.62.35h0Z"/>
      <path class="cls-5" d="M145.56,207.13c1.54-.17,3.21.17,4.45,1.13.21.17.5.21.71,0,.17-.17.21-.54,0-.71-1.45-1.13-3.33-1.63-5.15-1.43-.27.03-.5.21-.5.5,0,.25.23.53.5.5h0Z"/>
    </g>
    <path class="cls-5" d="M66.33,71.86c.02,13.04.03,26.07.05,39.11,0,1.93,3,1.93,3,0-.02-13.04-.03-26.07-.05-39.11,0-1.93-3-1.93-3,0h0Z"/>
    <path class="cls-5" d="M66.24.26c.02,18.59.05,37.18.07,55.77,0,5.28.01,10.56.02,15.83,0,1.93,3,1.93,3,0-.02-18.56-.05-37.11-.07-55.67,0-5.31-.01-10.62-.02-15.93,0-1.93-3-1.93-3,0h0Z"/>
    <path class="cls-5" d="M75.98,70.83c-.04,8.97-.49,17.82-2.49,26.59-1.95,8.55-4.87,16.83-7.79,25.09l2.95.4c.41-4.8.33-9.61.74-14.41.16-1.92-2.84-1.91-3,0-.41,4.8-.33,9.61-.74,14.41-.15,1.78,2.41,1.9,2.95.4,2.97-8.4,5.95-16.84,7.9-25.55,1.98-8.88,2.45-17.86,2.49-26.93,0-1.93-2.99-1.93-3,0h0Z"/>
    <path class="cls-5" d="M76.09.25c-.06,20.76-3.56,41.31-4.07,62.05-.04,1.45-.12,2.93-.06,4.39.03.83.29,1.43.87,2.03.55.56,1.24,1.01,1.88,1.46.29.2.58.4.86.62.36.29.5.72.41.03.11.81.61,1.49,1.5,1.5.73,0,1.61-.7,1.5-1.5-.19-1.45-1.31-2.21-2.42-3.01-.44-.32-1.04-.97-1.54-1.16.03.01-.23-.2-.14-.12.12.11.02,1.08.07-.11.03-.65,0-1.3.02-1.95.07-5.26.35-10.51.74-15.75.75-10.27,1.91-20.51,2.65-30.79.43-5.89.71-11.8.72-17.7,0-1.93-2.99-1.93-3,0h0Z"/>
    <path class="cls-5" d="M19.77,278.12c16.02.09,32.04.13,48.06.16,16.27.02,32.54.02,48.8.02s32.93-.02,49.39-.03c16.37,0,32.75-.01,49.12,0,16,.02,31.99.06,47.99.13,2,0,3.99.02,5.99.03s1.93-2.99,0-3c-16.02-.09-32.04-.13-48.06-.16s-32.54-.02-48.8-.02c-16.46,0-32.93.02-49.39.03s-32.75.01-49.12,0c-16-.02-31.99-.06-47.99-.13-2,0-3.99-.02-5.99-.03s-1.93,2.99,0,3h0Z"/>
    <path class="cls-5" d="M25.1,310.48h205.48c1.93,0,1.93-3,0-3H25.1c-1.93,0-1.93,3,0,3h0Z"/>
    <path class="cls-5" d="M24.41,270c25.28-.07,50.57-.22,75.85-.44s48.59-.49,72.88-.83c13.53-.19,27.07-.39,40.6-.61,1.93-.03,1.93-3.03,0-3-24.17.39-48.33.74-72.5,1.02-24.61.29-49.21.51-73.82.66-14.34.09-28.67.15-43.01.2-1.93,0-1.93,3.01,0,3h0Z"/>
    <path class="cls-5" d="M79.36,84.97c29.66-.07,59.32-.08,88.98-.01,29.49.07,58.99.2,88.48.41,16.66.12,33.32.26,49.99.42,1.93.02,1.93-2.98,0-3-29.66-.29-59.32-.5-88.98-.65-29.49-.14-58.99-.22-88.48-.23-16.66,0-33.33.02-49.99.06-1.93,0-1.93,3,0,3h0Z"/>
    <path class="cls-5" d="M24.12,85.19c13.98-.08,27.97-.14,41.95-.18,1.93,0,1.93-3.01,0-3-13.98.04-27.97.11-41.95.18-1.93.01-1.93,3.01,0,3h0Z"/>
    <path class="cls-5" d="M75.52,65.95h131.41c1.93,0,1.93-3,0-3H75.52c-1.93,0-1.93,3,0,3h0Z"/>
    <path class="cls-5" d="M20.3,65.95h45.88c1.93,0,1.93-3,0-3H20.3c-1.93,0-1.93,3,0,3h0Z"/>
    <path class="cls-5" d="M75.52,61.04c16.89.05,33.78.1,50.66.15s33.61.1,50.41.15c9.57.03,19.13.06,28.7.08,1.93,0,1.93-2.99,0-3-16.89-.05-33.78-.1-50.66-.15s-33.61-.1-50.41-.15c-9.57-.03-19.13-.06-28.7-.08-1.93,0-1.93,2.99,0,3h0Z"/>
    <path class="cls-5" d="M21.39,60.88c14.93.04,29.86.09,44.79.13,1.93,0,1.93-2.99,0-3-14.93-.04-29.86-.09-44.79-.13-1.93,0-1.93,2.99,0,3h0Z"/>
    <path class="cls-5" d="M164.45,248.31c7.35,3.49,14.7,6.97,22.04,10.46.58.27,1.09-.59.5-.86-7.35-3.49-14.7-6.97-22.04-10.46-.58-.27-1.09.59-.5.86h0Z"/>
    <path class="cls-5" d="M115.22,172.67c-4.93,2.14-9.85,4.27-14.78,6.41-.59.26-.08,1.12.5.86,4.93-2.14,9.85-4.27,14.78-6.41.59-.26.08-1.12-.5-.86h0Z"/>
    <path class="cls-5" d="M69.37,151.25l-.6,1.53c-.04.11,0,.28.05.39s.18.2.3.23c.13.03.27.02.39-.05s.18-.17.23-.3l.6-1.53c.04-.11,0-.28-.05-.39s-.18-.2-.3-.23c-.13-.03-.27-.02-.39.05s-.18.17-.23.3h0Z"/>
    <path class="cls-5" d="M68.71,152.49s0,0,0,0l-.1-.08s.02.01.02.02l-.08-.1s0,.01.01.02l-.05-.12s0,.02,0,.03l-.02-.13s0,.02,0,.03l.02-.13s0,.03-.01.04l.05-.12s-.02.04-.03.05l.08-.1s-.03.04-.05.05l.1-.08s-.03.02-.05.03l.12-.05s-.03.01-.04.01l.13-.02s-.02,0-.03,0l.13.02s-.02,0-.03,0l.12.05s-.02,0-.02-.01l.1.08s-.02-.01-.02-.02l.08.1s0,0,0,0c-.03-.06-.07-.11-.13-.14-.05-.04-.1-.07-.17-.09-.07-.02-.13-.02-.2,0-.07,0-.13.02-.19.06l-.1.08c-.06.06-.1.14-.13.22l-.02.13c0,.09.02.17.07.25,0,0,0,0,0,0,.03.04.05.07.08.11,0,0,0,0,.01.01.02.02.04.03.06.05.02.01.04.03.06.05,0,0,0,0,.01,0,.02,0,.1.04.12.05,0,0,0,0,0,0,0,0,0,0,0,0,0,0,0,0,.01,0,0,0,0,0,0,0,.02,0,.11.02.13.02,0,0,0,0,0,0,0,0,.02,0,.03,0,.04,0,.09-.01.14-.02,0,0,0,0,0,0,0,0,0,0,.01,0s0,0,.01,0c.04-.02.09-.04.13-.05,0,0,.02,0,.03-.01s.02-.01.02-.02c.04-.03.08-.06.11-.09,0,0,0,0,.01,0,0,0,.01-.01.02-.02,0,0,0,0,0-.01.03-.04.06-.07.09-.11,0,0,.01-.02.02-.02,0,0,0,0,0-.01.02-.04.04-.09.05-.13,0,0,0-.02,0-.03,0,0,0,0,0,0,0-.04.01-.09.02-.14,0,0,0,0,0-.01,0,0,0,0,0-.01,0,0,0,0,0,0,0-.04-.01-.1-.02-.13,0,0,0,0,0,0,0,0,0,0,0-.01-.02-.04-.03-.09-.06-.13,0,0,0,0,0-.01-.01-.02-.03-.04-.04-.06s-.03-.04-.04-.06c0,0,0,0-.01-.01,0,0,0,0,0,0-.03-.03-.07-.06-.11-.08-.06-.04-.12-.06-.19-.06-.07-.01-.13-.01-.2,0-.07.02-.12.05-.17.09-.05.04-.1.08-.13.14l-.05.12c-.02.09-.02.18,0,.27l.05.12c.04.08.1.13.18.18h0Z"/>
    <path class="cls-5" d="M183.6,106.96c1.81-.67,3.55.63,4.84,1.77s2.59,2.39,4.34,2.71c.63.11.9-.85.27-.96-1.9-.35-3.15-1.89-4.58-3.04s-3.29-2.12-5.13-1.44c-.6.22-.34,1.19.27.96h0Z"/>
    <path class="cls-5" d="M13.5,177.5c5.95-.19,10.61,4.17,15.53,6.84.57.31,1.07-.56.5-.86-5.1-2.77-9.87-7.17-16.03-6.97-.64.02-.64,1.02,0,1h0Z"/>
    <path class="cls-5" d="M89.54,163.7c-2.17,3.57-4.33,7.15-6.5,10.72-.33.55.53,1.06.86.5,2.17-3.57,4.33-7.15,6.5-10.72.33-.55-.53-1.06-.86-.5h0Z"/>
    <path class="cls-5" d="M117.95,160.71c3.74,3.53,8.98,5.15,14.06,4.42.63-.09.36-1.06-.27-.96-4.71.68-9.63-.9-13.09-4.16-.47-.44-1.18.26-.71.71h0Z"/>
    <path class="cls-5" d="M140.91,235.46c2.59-1.96,4.74-4.43,6.3-7.28.31-.56-.55-1.07-.86-.5-1.47,2.69-3.5,5.06-5.94,6.92-.22.16-.32.43-.18.68.12.21.47.34.68.18h0Z"/>
    <path class="cls-5" d="M80.26,242.25c2.98,1.53,6.44,1.92,9.68,1.07.62-.16.36-1.13-.27-.96-2.98.78-6.17.44-8.91-.97-.57-.29-1.08.57-.5.86h0Z"/>
    <path class="cls-5" d="M60.99,127.1c1.55-.51,2.97-1.33,4.2-2.4.2-.18.18-.53,0-.71-.2-.2-.5-.18-.71,0-1.09.96-2.38,1.69-3.75,2.14-.26.08-.42.35-.35.62.07.25.36.43.62.35h0Z"/>
    <path class="cls-5" d="M70.04,122.11l3-1.28c.24-.1.31-.48.18-.68-.16-.25-.43-.29-.68-.18l-3,1.28c-.24.1-.31.48-.18.68.16.25.43.29.68.18h0Z"/>
    <path class="cls-5" d="M64.34,124.64c.65,1.04,1.95,1.56,3.14,1.25.25-.07.43-.36.35-.62s-.34-.42-.62-.35c-.06.02-.12.03-.18.04-.02,0-.05,0-.07.01.1-.04.05,0,0,0-.12,0-.23.01-.35,0-.03,0-.06,0-.09,0-.07,0,.09.02.02,0-.06-.01-.12-.02-.18-.03-.11-.03-.22-.06-.33-.1-.08-.03.02,0,.02,0,0,0-.07-.03-.08-.04-.05-.02-.1-.05-.15-.08-.05-.03-.1-.06-.16-.1-.02-.01-.04-.03-.06-.04-.1-.07.05.05,0,0-.09-.08-.17-.15-.25-.24-.02-.02-.04-.05-.06-.07,0,0-.02-.02-.02-.03-.02-.03-.02-.02.02.03,0,0-.09-.14-.1-.15-.14-.22-.45-.33-.68-.18s-.33.45-.18.68h0Z"/>
    <path class="cls-3" d="M146.78,91.4c-1.12-14.99,3.7-29.48,6.68-43.98.84-4.11,1.55-8.24,1.96-12.41.03-.29-.25-.47-.5-.5-3.14-.32-6.2-1.22-9.02-2.64l-.25.93c5.36.53,10.7,1.21,16.01,2.06l-.22-.84c-1.15,1-2.59,1.57-4.11,1.63-.64.03-.64,1.03,0,1,1.8-.08,3.46-.75,4.82-1.93.27-.23.14-.78-.22-.84-5.4-.86-10.83-1.56-16.28-2.1-.49-.05-.68.72-.25.93,2.99,1.5,6.2,2.44,9.52,2.77l-.5-.5c-1.46,14.86-6.74,29.03-8.36,43.87-.45,4.16-.59,8.35-.28,12.53.05.64,1.05.64,1,0h0Z"/>
    <path class="cls-3" d="M163.98,93.16c1.1-7.68,3.47-15.16,5.59-22.61,2.07-7.26,4.24-14.5,6.83-21.59,1.47-4.02,3.08-7.98,4.88-11.86.12-.26.05-.68-.3-.73-2.76-.39-5.42-1.25-7.88-2.56l.23.56c.4-1.39,2.31-1.2,3.3-.68,1.44.75,2.57,1.89,4.16,2.39,2.48.78,7.24.42,7.8,3.86l.35-.62c-2.15.4-4.41-.14-6.14-1.47-.5-.39-1.22.31-.71.71,2.04,1.57,4.58,2.2,7.11,1.73.29-.05.39-.37.35-.62-.27-1.63-1.61-2.73-3.06-3.33-1.87-.78-3.96-.65-5.85-1.37-1.74-.66-3.01-2.35-4.91-2.64-1.38-.2-2.95.32-3.37,1.77-.06.21.04.46.23.56,2.53,1.35,5.27,2.26,8.12,2.66l-.3-.73c-6.41,13.84-10.48,28.64-14.51,43.31-1.18,4.28-2.26,8.59-2.89,12.99-.09.63.87.9.96.27h0Z"/>
    <path class="cls-3" d="M120.88,89.54c-.62-14.74,3.36-29.08,6.15-43.42.79-4.05,1.48-8.11,1.96-12.2.03-.27-.26-.5-.5-.5-1.12-.02-2.24-.03-3.37-.05-1.05-.02-2.16.07-3.2-.06-.4-.05-.8-.25-.37-.6.28-.24.67-.32,1.03-.39,1.15-.2,2.33-.29,3.49-.38,2.16-.17,4.34-.23,6.5-.15,1.72.06,3.62.29,4.82,1.67l.35-.85c-2.45.2-4.9.4-7.35.6-.64.05-.64,1.05,0,1,2.45-.2,4.9-.4,7.35-.6.44-.04.65-.52.35-.85-1.09-1.26-2.71-1.71-4.32-1.88-2.02-.22-4.1-.14-6.13-.04-1.09.06-2.18.14-3.27.26-.93.1-1.98.12-2.85.49-.56.24-1.16.68-1.19,1.34s.5,1.16,1.13,1.32c1,.24,2.16.1,3.18.12,1.28.02,2.56.04,3.85.06l-.5-.5c-1.73,14.56-6.17,28.66-7.69,43.26-.43,4.1-.6,8.23-.43,12.36.03.64,1.03.64,1,0h0Z"/>
    <path class="cls-3" d="M174.39,95.6c-3-11.85-6-23.7-9-35.55-.86-3.39-1.71-6.77-2.57-10.16-.08-.34-.45-.43-.73-.3-2.43,1.15-5,1.96-7.64,2.44l.63.48c-.08-.61.57-.95,1.02-1.22.57-.35,1.14-.7,1.72-1.04,1.15-.69,2.32-1.35,3.51-1.96,2.4-1.22,4.92-2.17,7.59-2.55l-.62-.62c-.47,1.75-2.17,2.92-3.97,2.76-.64-.05-.64.95,0,1,2.23.19,4.36-1.34,4.93-3.5.11-.4-.25-.67-.62-.62-2.98.42-5.78,1.56-8.42,2.96-1.32.7-2.6,1.46-3.87,2.23-.91.55-2.45,1.25-2.28,2.55.04.34.28.55.63.48,2.73-.5,5.37-1.35,7.88-2.54l-.73-.3c3,11.85,6,23.7,9,35.55.86,3.39,1.71,6.77,2.57,10.16.16.62,1.12.36.96-.27h0Z"/>
    <path class="cls-3" d="M49.83,192.15c-5.18-8.3-10.83-16.3-16.94-23.94-1.75-2.19-3.54-4.35-5.36-6.49-.27-.31-.71-.1-.84.22-1.09,2.89-3.5,5.18-6.43,6.14l.56.73c2.77-5.33,6.98-9.81,12.13-12.91l-.73-.56c-.44,1.96-1.57,3.69-3.22,4.84-.52.37-.02,1.23.5.86,1.86-1.3,3.18-3.22,3.68-5.44.09-.41-.35-.8-.73-.56-5.29,3.18-9.64,7.8-12.49,13.27-.19.36.13.88.56.73,3.29-1.08,5.91-3.6,7.13-6.84l-.84.22c6.32,7.4,12.21,15.17,17.63,23.26,1.54,2.3,3.04,4.62,4.5,6.97.34.54,1.21.04.86-.5h0Z"/>
    <path class="cls-3" d="M84.08,113.01c2.37-10.32,4.83-20.63,7.38-30.91.72-2.89,1.44-5.78,2.18-8.67.07-.28-.15-.68-.48-.63-3.02.38-6.01-1.3-7.24-4.08l-.56.73c5.1,1.5,10.2,3.01,15.3,4.51l-.3-.73c-1.08,1.72-3.78,1.83-5.06.3-.41-.49-1.12.22-.71.71,1.71,2.04,5.23,1.73,6.63-.5.18-.28,0-.65-.3-.73-5.1-1.5-10.2-3.01-15.3-4.51-.46-.13-.73.36-.56.73,1.36,3.06,4.78,5,8.11,4.58l-.48-.63c-2.6,10.27-5.12,20.56-7.54,30.87-.68,2.9-1.35,5.8-2.02,8.71-.14.63.82.89.96.27h0Z"/>
    <path class="cls-5" d="M49.28,194.09c.69.23,1.31-.42,1.68-.91.35-.47.54-1.02.6-1.59.01-.12-.07-.27-.15-.35-.09-.09-.23-.15-.35-.15s-.26.05-.35.15c-.1.1-.13.21-.15.35-.01.11.02-.09,0-.02,0,.03,0,.05-.01.08,0,.05-.02.1-.03.15-.03.11-.06.21-.1.32,0,.02-.03.05-.03.07,0-.04.04-.1,0-.02-.02.05-.05.1-.07.14-.05.1-.11.19-.17.28-.02.02-.03.04-.05.06-.04.05.08-.1.01-.01-.03.04-.07.08-.1.12-.07.08-.15.15-.23.22-.02.02-.06.04-.07.06.02-.02.08-.06.02-.02-.05.04-.11.06-.16.1-.05.03.11-.03.01,0h-.03s-.04.02,0,.01c.09.02-.02-.02-.03,0,0-.02.13.03,0,0-.25-.08-.56.1-.62.35-.06.28.08.53.35.62h0Z"/>
    <path class="cls-5" d="M81.49,112.25c.02.52.24.99.49,1.44.14.23.28.46.5.62.18.13.41.21.63.25.83.15,1.77-.08,2.22-.84.13-.22.06-.56-.18-.68s-.54-.06-.68.18c-.02.03-.04.07-.06.1.04-.05.03-.04,0,0-.02.02-.04.05-.07.07-.03.02-.11.07-.02.02-.06.03-.11.07-.16.1-.02.01-.13.05-.02.01-.03,0-.06.02-.09.03-.07.02-.14.04-.21.05-.1.02.06,0,0,0-.03,0-.07,0-.1,0-.07,0-.15,0-.22,0-.03,0-.07,0-.1,0-.13,0,.1.02-.02,0-.07-.01-.14-.03-.22-.05-.12-.03.05.04-.06-.02-.01,0-.1-.07-.07-.04.04.04-.05-.05-.05-.06.05.07-.03-.06-.03-.06-.04-.07-.09-.15-.13-.22-.05-.08-.09-.16-.14-.25-.02-.04-.04-.08-.06-.12,0,0-.06-.14-.03-.07-.03-.08-.06-.16-.08-.24-.01-.05-.02-.1-.03-.15.01.09,0-.05,0-.07,0-.26-.22-.51-.5-.5-.26.01-.51.22-.5.5h0Z"/>
    <path class="cls-3" d="M163.93,159.63c6.29-13.35,13.01-26.49,20.15-39.41.45-.82,1.02-1.64,1.37-2.51.28-.72.04-1.35-.64-1.69-.77-.38-1.43-.69-1.97-1.4-.5-.67-.78-1.47-.8-2.3l-.85.35c3.52,2.75,6.73,5.86,9.6,9.29l.22-.84c-2.18.83-3.84-1.87-4.65-3.49-.29-.57-1.15-.07-.86.5,1.03,2.04,3.12,4.96,5.78,3.95.37-.14.47-.53.22-.84-2.87-3.42-6.09-6.53-9.6-9.29-.32-.25-.87-.12-.85.35.04,1.36.61,2.67,1.63,3.58.43.39.92.67,1.45.9.3.13.47.11.38.59-.04.19-.24.44-.34.61-.24.43-.47.85-.71,1.28-1.75,3.16-3.47,6.33-5.17,9.51-3.41,6.4-6.73,12.86-9.94,19.37-1.79,3.64-3.55,7.29-5.28,10.95-.27.58.59,1.09.86.5h0Z"/>
    <path class="cls-5" d="M161.58,159.93c.17.88.93,1.58,1.84,1.61.47.01.91-.16,1.25-.48.31-.28.51-.66.69-1.02.12-.23.07-.55-.18-.68-.23-.12-.56-.07-.68.18-.07.14-.14.28-.22.42-.04.07-.09.14-.13.21-.05.08.02-.02-.02.02-.02.03-.05.06-.07.08-.05.05-.1.1-.16.15.08-.06-.03.02-.04.02-.03.02-.07.04-.1.05-.05.02.06-.01-.03,0-.04,0-.07.02-.11.03-.04,0-.1.01-.02,0-.05,0-.09,0-.14,0-.04,0-.08,0-.11,0-.06,0,.07.02-.02,0-.07-.02-.15-.04-.22-.06.09.03-.03-.02-.04-.03-.03-.02-.06-.04-.09-.05-.04-.02-.07-.05-.02,0-.03-.02-.05-.05-.08-.07s-.05-.05-.07-.08c-.01-.01-.09-.12-.03-.03-.04-.06-.08-.12-.11-.18-.02-.04-.04-.08-.06-.11.02.04.02.05,0,0-.03-.08-.05-.16-.07-.25-.05-.26-.37-.43-.62-.35-.27.09-.4.34-.35.62h0Z"/>
    <path class="cls-5" d="M191.04,26.13v307.77H24.96V26.13h166.08M193.04,24.13H22.96v311.77h170.08V24.13h0Z"/>
    <g>
      <path class="cls-12" d="M101.17,29.89c.07,4.17.02,8.33-.15,12.49h2c0-.19,0-.37,0-.56.02-1.29-1.98-1.29-2,0,0,.19,0,.37,0,.56-.02,1.29,1.95,1.28,2,0,.17-4.16.21-8.33.15-12.49-.02-1.29-2.02-1.29-2,0h0Z"/>
      <path class="cls-12" d="M108.07,30.19c-.07,4.06-.05,8.13-.13,12.19-.02,1.29,1.98,1.29,2,0,.07-4.06.05-8.13.13-12.19.02-1.29-1.98-1.29-2,0h0Z"/>
      <path class="cls-12" d="M114.63,30.18c-.1,3.88-.03,7.77.2,11.64.08,1.28,2.08,1.29,2,0-.24-3.88-.3-7.76-.2-11.64.03-1.29-1.97-1.29-2,0h0Z"/>
      <path class="cls-12" d="M98.31,30.84c6.82.23,13.64.13,20.45-.3,1.28-.08,1.29-2.08,0-2-6.81.43-13.63.53-20.45.3-1.29-.04-1.29,1.96,0,2h0Z"/>
      <path class="cls-12" d="M98.31,43.72h21.34c1.29,0,1.29-2,0-2h-21.34c-1.29,0-1.29,2,0,2h0Z"/>
    </g>
    <path class="cls-11" d="M8.79,9.92v340.16h198.43V9.92H8.79ZM193.04,335.91H22.96V24.09h170.08v311.81Z"/>
    <path class="cls-11" d="M-19.56-18.43v396.85l255.12-1.37V-18.43H-19.56ZM193.04,335.91H22.96V24.09h170.08v311.81Z"/>
  </g>
</svg>