<?xml version="1.0" encoding="UTF-8"?>
<svg id="boarder" xmlns="http://www.w3.org/2000/svg" xmlns:xlink="http://www.w3.org/1999/xlink" viewBox="0 0 216 360">
  <defs>
    <style>
      .cls-1 {
        fill: none;
      }

      .cls-2 {
        fill: #726658;
      }

      .cls-3 {
        fill: #58595b;
      }

      .cls-4 {
        fill: #b79668;
      }

      .cls-5 {
        fill: #b78b50;
      }

      .cls-6 {
        fill: #231f20;
      }

      .cls-7 {
        fill: #414042;
      }

      .cls-8 {
        fill: #766043;
      }

      .cls-9 {
        fill: #ce8f38;
      }

      .cls-10 {
        fill: #638576;
      }

      .cls-11 {
        fill: #fff;
      }

      .cls-12 {
        fill: #fbae48;
      }

      .cls-13 {
        fill: #bdbdbc;
      }

      .cls-14 {
        fill: #afb1b3;
      }

      .cls-15 {
        fill: #a69c8d;
      }

      .cls-16 {
        fill: #cfac7e;
      }

      .cls-17 {
        opacity: .5;
      }

      .cls-18 {
        fill: #a8a977;
      }

      .cls-19 {
        fill: #d394af;
      }

      .cls-20 {
        fill: #947141;
      }

      .cls-21 {
        fill: #c4a06f;
      }

      .cls-22 {
        clip-path: url(#clippath);
      }

      .cls-23 {
        fill: #947955;
      }
    </style>
    <clipPath id="clippath">
      <path class="cls-1" d="M0,15.06v329.88c0,8.32,6.94,15.06,15.49,15.06h185.02c8.56,0,15.49-6.74,15.49-15.06V15.06c0-8.32-6.94-15.06-15.49-15.06H15.49C6.94,0,0,6.74,0,15.06Z"/>
    </clipPath>
  </defs>
  <g class="cls-22">
    <path class="cls-2" d="M84.8,380.74c8.64-7.08,18.09-13,28.14-17.87,5.4-2.62.68-10.68-4.71-8.06-10.79,5.24-20.75,11.73-30.03,19.33-4.65,3.81,1.99,10.38,6.6,6.6h0Z"/>
    <path class="cls-6" d="M79.18,379.31c9.18-6.78,18.36-13.56,27.54-20.34,1.54-1.13.04-3.74-1.51-2.59-9.18,6.78-18.36,13.56-27.54,20.34-1.54,1.13-.04,3.74,1.51,2.59h0Z"/>
    <path class="cls-13" d="M64.5,89.25c2.65-2.73,5.44-5.22,8.45-7.55l-8.7,6.72c4.3-3.17,8.82-5.82,13.7-8l-10.27,4.33c4.36-1.82,8.8-3.19,13.43-4.1-13.95-23.96-27.89-47.91-41.84-71.87-8.56,10.96-17.12,21.92-25.67,32.89-9.37,12.02-19.39,23.92-25.65,37.95-3.11,6.97-5.87,13.9-5.87,21.7,0,9.57,3.45,18.57,9.23,26.05,10.65,13.78,28.2,19.62,45.2,15.41,22.07-5.47,37.89-22.04,54.44-36.46,13.21-11.52,26.77-22.64,40.63-33.37l-8.7,6.72c3.52-2.71,7.06-5.41,10.61-8.07-21.57-12.38-43.14-24.75-64.7-37.13.23,1.1.25,2.21.07,3.32l1.54-11.43c-.18,1.11-.51,2.17-.97,3.19l4.33-10.27c-1.03,2.07-2.24,3.92-3.63,5.77l6.72-8.7C47.21,54.6,8.69,85.85-14.25,129.18c-8.66,16.34-7.64,38.92,6.72,52.11s35.5,17.14,52.11,6.72c25.43-15.95,48.99-35,71.47-54.84,10.13-8.93,20.06-18.08,29.97-27.25s19.48-18.91,30.09-27.19l-8.7,6.72c2.63-1.94,5.31-3.61,8.3-4.95l-10.27,4.33c.98-.41,1.98-.75,3-1.04-17.63-17.63-35.26-35.26-52.9-52.9-.54,2.15-1.2,4.21-2.01,6.27l4.33-10.27c-1.98,4.51-4.55,8.59-7.5,12.53l6.72-8.7c-18.12,23.28-40.54,43.3-60.84,64.63-22.57,23.72-44.18,49.23-60.15,77.94-10.99,19.75-5.41,47.62,15.43,58.83,12.41,6.67,26.23,8.93,39.8,4.28,10.78-3.7,16.89-8.86,25.79-15.89,7.36-5.82,14.62-11.78,21.8-17.83,14.17-11.96,27.98-24.33,41.56-36.96,27.55-25.62,54.1-52.29,80.64-78.95l-60.81-60.81C116.77,75.78,68.85,121.6,25.69,171.78c-14.34,16.67-28.01,33.88-41.21,51.47l-4.33,10.27c-1.79,5.72-2.05,11.43-.77,17.15,1.21,9.02,4.92,18.35,11.83,24.69,13.72,12.59,35.62,17.27,52.11,6.72,49.98-31.98,99.17-65.19,147.52-99.58-17.37-22.51-34.74-45.02-52.11-67.53-56.68,49.84-120.36,91.73-171.7,147.52l60.81,60.81c60.06-69.89,120.62-139.35,181.67-208.38,8.71-9.85,17.44-19.7,26.17-29.53,7.92-8.92,15.45-18.92,24.85-26.35-2.9,2.24-5.8,4.48-8.7,6.72,1.75-1.27,3.52-2.39,5.44-3.4-19.61-19.61-39.22-39.22-58.83-58.83-3.97,8.56-9.08,16.39-14.82,23.87l6.72-8.7c-11.99,15.33-25.5,29.44-38.24,44.14-14.52,16.76-28.5,34.13-40.86,52.55-20.72,30.89-37.21,64.5-59.98,94.02l6.72-8.7c-1.08,1.38-2.17,2.75-3.26,4.12-7.4,9.2-12.59,18.13-12.59,30.41,0,10.55,4.68,23.14,12.59,30.41s18.95,13.11,30.41,12.59,21.38-4.82,30.41-12.59c42.94-36.99,83.65-76.5,122.02-118.22,12.5-13.6,17.29-35.72,6.72-52.11-4.01-6.22-9.21-11.42-15.43-15.43-8.26-5.33-23.76-7.99-33.13-4.33-7.01,2.73-14.11,5.49-20.62,9.31s-12.89,8.96-19.03,13.77c-7.39,5.8-14.23,12.25-21,18.75-13.8,13.26-27.12,27.01-39.94,41.22-27.96,30.99-53.77,64.13-77.21,98.65-12.33,18.16-23.93,36.8-34.84,55.84s-5.8,42.44,11.07,55.47c17.34,13.4,40.44,11.22,56.46-3.36,28.05-25.53,56.22-51,86.26-74.21l-8.7,6.72c16.29-12.52,33.11-24.34,50.67-35.02-19.61-19.61-39.22-39.22-58.83-58.83l-1.1,1.43,6.72-8.7c-22.51,29.13-48.12,55.73-76.59,79.09,23.96,13.95,47.91,27.89,71.87,41.84,1.06-6.27,2.76-12.29,5.15-18.17l-4.33,10.27c2.47-5.72,5.48-11.06,9.17-16.09l4.33-10.27,1.54-11.43c0-9.57-3.45-18.57-9.23-26.05-4.69-6.07-10.13-10.26-17.2-13.24-8.42-3.55-19.09-5.24-28-2.17-10.36,3.58-20.32,8.24-29.87,13.6-6.78,3.8-13.46,7.75-20.59,10.87l10.27-4.33c-4.55,1.89-9.15,3.35-14.03,4.07l11.43-1.54c-2.93.32-5.77.36-8.7.08l11.43,1.54-1.48-.2c3.42,26.2,6.85,52.4,10.27,78.59,53.99-26.25,103.57-62.75,145.78-105.36,11.83-11.94,23.06-24.46,33.72-37.46,7.44-9.07,12.59-18.24,12.59-30.41,0-10.55-4.68-23.14-12.59-30.41-8.19-7.52-18.95-13.11-30.41-12.59s-21.29,4.88-30.41,12.59c-22.8,19.31-44.18,40.27-63.91,62.71-11.82,13.44-22.93,27.45-33.8,41.67-4.7,6.15-9.31,12.38-13.79,18.7-8.23,11.6-13.65,23.35-14.14,38.01-.31,9.45,3.6,18.76,9.23,26.05s13.09,12.49,22.34,15.41c25.86,8.18,52.57-2.79,75.76-13.63,18.15-8.48,34.43-20.29,49.67-33.21,7.66-6.49,13.04-20.56,12.59-30.41s-3.26-18.33-9.23-26.05c-5.49-7.11-13.33-13.36-22.34-15.41l-11.43-1.54c-7.76.02-15,1.98-21.7,5.87-43.5,18.7-87.05,39.55-119.44,75.25-14.49,15.97-16.8,39.06-3.36,56.46,13.29,17.2,36.36,21.33,55.47,11.07,22.87-12.28,44.92-26.16,65.71-41.72,23.79-17.81,45.91-37.12,60.63-63.47,8.51-15.24,7.3-33.96-3.36-47.76-10.85-14.04-28-19.21-45.2-15.41-29.21,6.46-54.1,26.44-70.11,51.22-7.44,11.52-12.98,25.16-15.76,38.59-1.8,8.68-3.04,17.63-3.33,26.49s1.17,17.69,2.37,26.59c1.28,9.46,11.64,21.41,19.76,25.7,10.53,5.57,21.41,6.92,33.13,4.33,25.63-5.66,49.43-31.36,49.69-58.19.14-14.44-6.61-27.4-17.78-36.02-9.1-7.03-18.78-9.18-30.22-10.04-7.72-.58-15.44-.44-23.14.26,3.81,28.15,7.62,56.31,11.43,84.46,6.32-1.97,12.78-3.14,19.33-4.04l-11.43,1.54c23.65-3.1,46.45-4.66,67.45-17.23,18.44-11.03,25.89-34.04,17.59-53.7-3.49-8.26-9.44-16.25-17.59-20.56-10.68-5.64-21.25-6.62-33.13-4.33-35.03,6.73-66.92,24.75-93.42,48.22l-6.72,8.7c-3.14,4.94-4.84,10.26-5.1,15.99-1.23,9.17-.06,19.41,5.1,27.42,4.01,6.22,9.21,11.42,15.43,15.43,8.49,5.47,23.51,7.78,33.13,4.33,19.45-6.97,38.77-14.24,57.57-22.84,19.14-8.76,36-19.9,52.47-33,7.72-6.14,13.02-20.88,12.59-30.41s-3.26-18.33-9.23-26.05c-12.46-16.13-37.44-22.9-55.47-11.07-23.99,15.73-46.47,34.13-66.18,54.99-12,12.71-15.73,30.77-8.89,46.97,6.52,15.45,22.1,26.66,39.3,26.43,12.21-.16,24.61-1.72,36.53-4.26,12.07-2.57,23.18-7.27,34.51-12.1-17.37-22.51-34.74-45.02-52.11-67.53-5.08,4.21-10.17,8.42-15.25,12.63-8.02,6.64-12.59,20.42-12.59,30.41,0,10.55,4.68,23.14,12.59,30.41s18.95,13.11,30.41,12.59c3.81-.51,7.62-1.02,11.43-1.54,7.28-2.04,13.61-5.73,18.97-11.06,5.08-4.21,10.17-8.42,15.25-12.63,7.68-6.36,13.03-20.68,12.59-30.41s-3.26-18.33-9.23-26.05c-5.49-7.11-13.33-13.36-22.34-15.41l-11.43-1.54c-7.76.02-15,1.98-21.7,5.87l-1.68.72,10.27-4.33c-10.14,4.15-20.62,7.03-31.46,8.61l11.43-1.54c-5.38.7-10.77,1.09-16.19,1.16,10.14,24.47,20.27,48.94,30.41,73.41,11.54-12.22,23.95-23.53,37.21-33.85-2.9,2.24-5.8,4.48-8.7,6.72,6.58-5.06,13.32-9.86,20.26-14.41-17.37-22.51-34.74-45.02-52.11-67.53-.91.74-1.84,1.46-2.77,2.18l8.7-6.72c-15.22,11.59-32.13,20.44-49.69,27.93l10.27-4.33c-12.7,5.35-25.65,10.04-38.62,14.68l41.84,71.87c3.01-2.66,6.08-5.22,9.25-7.68l-8.7,6.72c10.81-8.22,22.49-15.07,34.99-20.39l-10.27,4.33c9.76-4.04,19.83-7.09,30.21-9.08-11.04-26.2-22.09-52.4-33.13-78.59-2.37,1.42-4.79,2.66-7.32,3.77,3.42-1.44,6.85-2.89,10.27-4.33-7.62,3.09-15.56,4.63-23.68,5.75l11.43-1.54c-15.19,2-30.82,2.83-45.51,7.41-20.55,6.41-33.69,25.71-30.8,47.18,1.21,9.02,4.92,18.35,11.83,24.69,7.97,7.31,19.19,13.61,30.41,12.59,8.36-.76,16.7-.79,25.07-.1l-11.43-1.54,1.17.19-10.27-4.33,1.07.46c-2.9-2.24-5.8-4.48-8.7-6.72l.72.9c-4.2-10.14-8.4-20.27-12.59-30.41l.11,1.36,1.54-11.43-.4,1.36,4.33-10.27c-.99,2.32-2.17,4.41-3.66,6.45l6.72-8.7c-1.24,1.52-2.55,2.87-4.03,4.15l8.7-6.72c-1.9,1.47-3.84,2.64-6.04,3.6l10.27-4.33c-1.33.49-2.6.86-3.98,1.17,17.63,10.01,35.26,20.02,52.9,30.03l-.23-1.67,1.54,11.43c-.84-7.32-.8-14.59.07-21.9l-1.54,11.43c1.08-7.8,3.06-15.31,6.04-22.61l-4.33,10.27c2.81-6.5,6.31-12.54,10.63-18.15-2.24,2.9-4.48,5.8-6.72,8.7,3.92-4.87,8.3-9.21,13.22-13.06l-8.7,6.72c4.88-3.66,10.07-6.69,15.68-9.08l-10.27,4.33c3.71-1.49,7.47-2.66,11.37-3.52-16.19-21.06-32.37-42.11-48.56-63.17-2.71,4.86-5.75,9.48-9.09,13.92l6.72-8.7c-9.06,11.7-19.96,21.61-31.6,30.68,2.9-2.24,5.8-4.48,8.7-6.72-22.05,17.01-45.69,32-70.22,45.16,17.37,22.51,34.74,45.02,52.11,67.53,7.46-8.22,15.64-15.66,24.42-22.45-2.9,2.24-5.8,4.48-8.7,6.72,26.16-19.89,56.31-33.18,86.32-46.08-17.37-22.51-34.74-45.02-52.11-67.53-2.25,1.9-4.53,3.76-6.84,5.58l8.7-6.72c-12.46,9.58-25.96,17.54-40.43,23.7l10.27-4.33c-7.91,3.27-16.1,6.45-24.62,7.62l11.43-1.54c-2.28.21-4.47.23-6.76.04l11.43,1.54c-1.73-.27-3.28-.63-4.95-1.16,10.52,13.82,21.05,27.64,31.57,41.46l.05-1.64-1.54,11.43c.14-1.08.41-2.12.82-3.13-1.44,3.42-2.89,6.85-4.33,10.27,2.62-5.73,6.84-10.82,10.52-15.9s7.76-10.56,11.75-15.75l-6.72,8.7c26.62-34.45,56.68-66.12,89.9-94.26l-60.81-60.81c-25.14,30.64-53.57,58.45-84.9,82.75,2.9-2.24,5.8-4.48,8.7-6.72-26.78,20.62-55.5,38.57-85.9,53.35l-8.7,6.72-6.72,8.7c-4.89,8.36-6.38,17.93-5.1,27.42,1.04,7.73,3.69,14.16,8.46,20.34,5.12,6.63,13.67,14.21,22.34,15.41,6.17.85,12.47,2.23,18.74,1.92,5.7-.28,11.55-1.15,17.15-2.26,8.63-1.71,17.07-5.76,24.91-9.5,10.57-5.04,20.31-11.67,31.05-16.39-3.42,1.44-6.85,2.89-10.27,4.33,1.88-.79,3.77-1.51,5.69-2.18-16.19-21.06-32.37-42.11-48.56-63.17-4.86,6.62-8.15,13.67-11.34,21.22s-5.93,15.09-7.31,23.31c-1.67,9.88-1.83,18.53,2.17,28,3.49,8.26,9.44,16.25,17.59,20.56,6.76,3.57,14.07,5.53,21.7,5.87,11.8.53,21.75-5.48,30.41-12.59,31.95-26.23,59.29-56.49,84.41-89.23l4.33-10.27c1.79-5.72,2.05-11.43.77-17.15-1.21-9.02-4.92-18.35-11.83-24.69-13.95-12.8-35.33-16.93-52.11-6.72-53.15,32.32-99.8,74.23-145.64,115.95,22.51,17.37,45.02,34.74,67.53,52.11,19.41-33.87,41.07-66.4,64.88-97.33l-6.72,8.7c15.37-19.87,31.59-39.07,48.69-57.47s33.93-36.46,53.35-51.48l-8.7,6.72c5.33-4,10.89-7.52,16.97-10.27l-10.27,4.33c1-.44,2.01-.85,3.04-1.23l-41.84-71.87c-38.36,41.72-79.08,81.23-122.02,118.22l60.81,60.81c16.8-20.89,31.11-43.05,44.78-66.05,12.23-20.56,24.47-41.07,39.06-60.08l-6.72,8.7c12.62-16.27,26.39-31.57,40.03-46.98,14.79-16.72,30.54-33.86,40.01-54.29,4.19-9.03,6.46-17.31,5.1-27.42-1.21-9.02-4.92-18.35-11.83-24.69-14.56-13.37-34.57-15.95-52.11-6.72-11.91,6.26-21.02,16.26-29.82,26.15-7.87,8.84-15.72,17.7-23.57,26.56-15.7,17.72-31.38,35.48-47.01,53.26-31.3,35.58-62.46,71.28-93.5,107.09-17.68,20.41-35.32,40.85-52.92,61.33-7.54,8.77-12.59,18.51-12.59,30.41,0,10.55,4.68,23.14,12.59,30.41s18.95,13.11,30.41,12.59,22.64-4.16,30.41-12.59c51.34-55.79,115.01-97.68,171.7-147.52,7.62-6.7,13.04-20.37,12.59-30.41s-3.26-18.33-9.23-26.05c-5.49-7.11-13.33-13.36-22.34-15.41-10.7-2.44-23.82-2.29-33.13,4.33C99.08,142.63,49.89,175.84-.09,207.82c19.61,19.61,39.22,39.22,58.83,58.83,2.21-2.94,4.43-5.87,6.68-8.78l-6.72,8.7c38.58-49.76,83.3-94.15,126.27-140.02,12.25-13.08,24.35-26.31,36.14-39.81,7.57-8.67,12.59-18.6,12.59-30.41,0-10.55-4.68-23.14-12.59-30.41-17.13-15.73-43.85-17.03-60.81,0C113.2,73.25,65.94,120.7,13.35,162l8.7-6.72c-1.26.94-2.49,1.75-3.87,2.52l10.27-4.33c-.87.45-1.79.75-2.75.93l11.43-1.54-1.36.07,11.43,1.54-1.31-.27,10.27,4.33-1.24-.67c5.14,19.61,10.28,39.22,15.43,58.83,6.54-11.76,14.06-22.9,22.27-33.55l-6.72,8.7c16.55-21.25,35.55-40.34,54.38-59.53,9.33-9.51,18.62-19.06,27.54-28.96,13.18-14.64,25.77-30.03,30.65-49.59,3.74-14.99-.02-30.8-11.06-41.84-10.57-10.57-27.32-15.57-41.84-11.06-16.94,5.26-29.67,16.01-42.5,27.76-8.64,7.91-17.2,15.89-25.82,23.82-17.15,15.78-34.52,31.34-52.92,45.66l8.7-6.72c-10.28,7.94-20.87,15.47-31.88,22.37,19.61,19.61,39.22,39.22,58.83,58.83,5.66-10.7,12.38-20.72,19.77-30.3l-6.72,8.7c11.91-15.25,25.3-29.22,38.42-43.41,6.48-7.02,12.9-14.1,19.01-21.44,4.96-5.96,9.88-12.06,14.42-18.33,3.33-4.61,5.63-10.02,7.46-15.37s3.09-12.15,2.43-17.94c-.02-7.76-1.98-15-5.87-21.7-3.82-6.46-8.96-11.6-15.43-15.43-12.11-7.09-31.5-8.94-43.41,0-15.14,11.36-30.09,23-44.64,35.12-11.85,9.87-22.98,20.68-35.02,30.29l8.7-6.72c-3.5,2.68-7.11,5-11.17,6.75l10.27-4.33c-1.53.57-3,1.02-4.58,1.42,16.19,21.06,32.37,42.11,48.56,63.17,4.2-9.41,10.08-17.76,16.33-25.91l-6.72,8.7c9.37-12.11,18.84-24.16,28.26-36.23l6.72-8.7c3.14-4.94,4.84-10.26,5.1-15.99,1.23-9.17.06-19.41-5.1-27.42-4.01-6.22-9.21-11.42-15.43-15.43-9.8-6.32-22.18-6.49-33.13-4.33C37.73,1.78,18.17,13.56,3.69,28.44c-7.76,7.97-12.59,19.22-12.59,30.41,0,10.55,4.68,23.14,12.59,30.41s18.95,13.11,30.41,12.59,22.33-4.29,30.41-12.59h0Z"/>
    <path class="cls-14" d="M58.22,48.34c6.31-1.19,12.64-2.21,19-3.08-3.81.51-7.62,1.02-11.43,1.54,29.32-3.83,58.96-3.97,88.28-.05l-11.43-1.54c8.87,1.24,18.27,2.22,26.66,5.53-3.42-1.44-6.85-2.89-10.27-4.33,1.7.77,3.26,1.63,4.78,2.71l-8.7-6.72c1.07.89,1.94,1.75,2.83,2.82l-6.72-8.7c.55.73,1.01,1.5,1.39,2.33,5.14-19.61,10.28-39.22,15.43-58.83-.89.64-1.84,1.15-2.85,1.55l10.27-4.33c-1.61.55-3.1.9-4.77,1.19l11.43-1.54c-11.99,1.37-24.34,1.06-36.4,1.09-12.78.03-25.55-.16-38.33-.25-25.18-.17-50.38.13-75.41,3.13-7.61.91-14.94,1.91-21.7,5.87C2.18-8.56-3.73-1.25-7.33,7.28c-3.09,7.32-3.99,14.42-2.94,22.28,1.18,8.77,4.85,18.73,11.83,24.69,14.21,12.14,29.02,20.18,46.79,26.12,11.98,4,24.49,6.43,36.87,8.82,30.32,5.83,60.96,9.52,91.55,13.6l-11.43-1.54c9.15,1.26,18.22,2.9,26.78,6.49-3.42-1.44-6.85-2.89-10.27-4.33,3.43,1.56,6.6,3.36,9.64,5.58l-8.7-6.72,1.26,1c2.9-22.51,5.8-45.02,8.7-67.53-.96.53-1.94,1.02-2.94,1.45,3.42-1.44,6.85-2.89,10.27-4.33-3.54,1.45-7.08,2.36-10.87,2.9,3.81-.51,7.62-1.02,11.43-1.54-6.09.66-12.1.3-18.16-.51l11.43,1.54c-11.18-1.66-22.16-4.47-33.31-6.38-15.1-2.59-30.35-4.61-45.61-5.89-24.19-2.03-48.51-1.8-72.67.53,3.81,28.15,7.62,56.31,11.43,84.46,5.52-1.68,11.04-3.37,16.56-5.05,10.53-3.21,20.08-10.17,25.7-19.76,5.39-9.22,7.68-22.8,4.33-33.13s-9.81-20.44-19.76-25.7c-10.08-5.33-21.94-7.75-33.13-4.33-5.52,1.68-11.04,3.37-16.56,5.05C10.31,31.31-2.79,50.84.09,72.21c1.21,9.02,4.92,18.35,11.83,24.69,7.94,7.29,19.22,13.67,30.41,12.59,30.54-2.95,61.28-2.43,91.71,1.53l-11.43-1.54c15.19,2.05,30.01,5.65,45.1,8.16,9.6,1.6,19.87,3.45,29.71,2.86,14.2-.86,26.11-3.91,38.74-10.52,11.82-6.19,18.82-18.68,20.53-31.41s-1.45-27.91-11.83-36.12c-4.52-3.58-8.98-7.43-13.94-10.41s-10.57-5.04-15.94-7.23c-5.02-2.05-10.14-3.57-15.45-4.64-14.83-3-30.03-4.28-45.02-6.28l11.43,1.54c-18.38-2.47-36.74-5.19-54.97-8.62C94.69,3.74,78.09.66,62.76-5.75c3.42,1.44,6.85,2.89,10.27,4.33-6-2.63-11.63-5.79-16.84-9.78l8.7,6.72c-.86-.67-1.7-1.37-2.52-2.09-10.14,24.47-20.27,48.94-30.41,73.41,27.31-3.28,54.82-3.32,82.29-3.08,13.43.12,26.86.29,40.3.13,18.94-.22,40.27.79,56.89-9.64,20.28-12.72,26.6-37.72,15.43-58.83-9.76-18.44-29.38-27.71-49.01-31.2-16.69-2.97-33.66-5.12-50.6-5.99-30.76-1.59-61.67,1.5-91.9,7.18-10.09,1.9-20.68,11.19-25.7,19.76C4.27-5.61,1.98,7.98,5.32,18.31c3.37,10.4,9.81,20.44,19.76,25.7,10.71,5.66,21.23,6.57,33.13,4.33h0Z"/>
    <path class="cls-12" d="M100.61,285.81c4.5,3.16,8.47,7.08,11.67,11.55l4.64-8.09c-2.68-.13-5.03-1.93-7.14-3.43-1.71-1.22-5.47-3.31-5.8-5.34l-6.61,6.61c3.07.64,5.75.64,8.82-.07,6.74-1.56,3.89-11.92-2.86-10.37-1.1.26-1.98.3-3.1.07-4.28-.89-7.27,2.49-6.61,6.61.8,4.99,5.93,8.23,9.7,11.01,4.14,3.06,8.36,5.4,13.6,5.65,3.85.18,7-4.79,4.64-8.09-4.34-6.06-9.43-11.12-15.53-15.41-5.67-3.98-11.05,5.33-5.43,9.28h0Z"/>
    <path class="cls-9" d="M98.59,283.69c6.92,0,6.93-10.75,0-10.75s-6.93,10.75,0,10.75h0Z"/>
    <path class="cls-9" d="M112.72,291.91c6.92,0,6.93-10.75,0-10.75s-6.93,10.75,0,10.75h0Z"/>
    <path class="cls-9" d="M105.33,296.67c6.92,0,6.93-10.75,0-10.75s-6.93,10.75,0,10.75h0Z"/>
    <path class="cls-16" d="M112.65,289.3c3.7,0,3.71-5.75,0-5.75s-3.71,5.75,0,5.75h0Z"/>
    <path class="cls-16" d="M104.54,293.68c3.7,0,3.71-5.75,0-5.75s-3.71,5.75,0,5.75h0Z"/>
    <g class="cls-17">
      <path class="cls-7" d="M56.95,283.65c3.56,21.73,21.12,42.98,40.72,52.42,12.93,6.22,25.17,9.39,39.6,10.08,11.29.55,22.32-2.46,33.41-4.03-3.81.51-7.62,1.02-11.43,1.54,1.74-.16,3.35-.2,5.09-.1l-11.43-1.54c2.07.32,3.9.85,5.84,1.65l-10.27-4.33c2.68,1.24,5.27,2.66,7.97,3.86,10.15,4.54,15.95,6.08,27.28,7.24,9.87,1.01,23.84-5.44,30.41-12.59l6.72-8.7c3.89-6.71,5.85-13.94,5.87-21.7.59-5.02-.39-10.83-1.55-15.59s-3.31-9.89-5.72-14.18c-5.12-9.11-12.6-16.06-21.14-21.86-11.13-7.56-23.19-8.7-35.72-11.57-9.12-2.09-17.64-6.06-26.44-9.15-12.64-4.43-26.05-5.7-39.32-7-10.33-1.01-23.34,5.53-30.41,12.59-7.46,7.46-13.07,19.69-12.59,30.41s4.15,22.65,12.59,30.41c8.86,8.13,18.46,11.42,30.41,12.59,3.14.31,6.27.63,9.39,1.03-3.81-.51-7.62-1.02-11.43-1.54,11.72,1.64,22.21,5.98,33.25,10,5.25,1.92,10.55,3.47,16.06,4.46,5.91,1.06,11.75,1.82,17.33,4.16l-10.27-4.33c1.33.66,2.52,1.36,3.75,2.2l-8.7-6.72c1.56,1.23,2.9,2.51,4.17,4.04l-6.72-8.7c.85,1.2,1.51,2.32,2.13,3.66l-4.33-10.27c.35.85.62,1.73.79,2.64l-1.54-11.43c.18,1.48.19,2.67.01,4.15,14.33-14.33,28.67-28.67,43-43l-1.44-.15c3.81.51,7.62,1.02,11.43,1.54-1.46-.3-2.74-.69-4.14-1.22l10.27,4.33c-2.7-1.19-5.28-2.63-7.97-3.86-7.77-3.58-13.54-5.64-21.83-6.75-11.68-1.57-22.59,1.32-34.08,2.94l11.43-1.54c-5.08.58-10.1.59-15.17-.05l11.43,1.54c-3.92-.63-7.62-1.61-11.32-3.06l10.27,4.33c-3.33-1.46-6.33-3.19-9.23-5.38l8.7,6.72c-2.3-1.88-4.36-3.91-6.26-6.2l6.72,8.7c-2.11-2.75-3.79-5.59-5.14-8.79l4.33,10.27c-.85-2.31-1.47-4.6-1.86-7.03-1.64-9.99-11.39-20.8-19.76-25.7-9.22-5.39-22.8-7.68-33.13-4.33s-20.44,9.81-25.7,19.76l-4.33,10.27c-2.05,7.62-2.05,15.24,0,22.86h0Z"/>
    </g>
    <path class="cls-19" d="M133.88,196.6c1.58-1.48,3.3-3.29,5.22-4.33,2.32-1.26,4-.72,6.37-.49,4.82.45,9.57.07,14.37-.39l-1.34-4.95c-3.4,2.59-7.38,2.7-10.38,6.06-2.8,3.13-4.33,10.16-9.47,8.38l1.85,1.85c-.49-1.27-.38-2.57-.64-3.87-.29-1.45-.96-2.11-1.44-3.42-.41-.66-.52-.29-.32,1.11.91-.08,1.83-.13,2.74-.16,2.14-.08,4.26-.02,6.4.1l-1.88-4.53-2.48,2.25c-1.8.9-1.75,2.1.17,3.59,2.08-2.66-1.65-6.44-3.75-3.75-1.57,2-2.74,5.58.21,7.14,3.54,1.88,7.48-3.56,9.6-5.48,1.8-1.64.29-4.41-1.88-4.53-3.42-.19-13.09-1.81-14.67,2.78-.61,1.77.52,2.81,1.21,4.22.95,1.95.65,5.81,2.56,7.33,3.01,2.4,8.41,1.42,10.65-1.4,1.92-2.41,2.8-5.55,4.88-7.87,2.59-2.9,6.35-2.98,9.31-5.23,1.82-1.39,1.61-5.23-1.34-4.95-3.19.31-6.38.64-9.59.65s-6.16-.84-9.19-.62c-4.34.32-7.92,3.92-10.93,6.74-2.5,2.34,1.26,6.09,3.75,3.75h0Z"/>
    <path class="cls-19" d="M165.83,201.12c-.45.06.41-.03.41,0-.03.14-.61-.27-.61-.27-.42-.45-.53-1.14-.31-1.7.05-.18.15-.34.28-.48.3-.22.36-.28.19-.18-.17.09-.1.06.22-.1l-.18.05c-.24.05-.25.06-.02.02.23-.02.22-.03-.02,0-.08,0-.53.05-.55,0l.33.05c-1.42-.42-1.72.89-.9,3.94l-1.34-.36.12.08c1.17.76,2.98.27,3.63-.95.7-1.32.29-2.82-.95-3.63s-2.8-.49-3.76.51-1.21,2.6-.53,3.87c1.01,1.87,3.57,2.08,5.41,1.6,2.1-.54,3.68-2.44,3.16-4.67-.25-1.09-1.06-2.07-2.06-2.56-1.28-.63-2.53-.52-3.9-.34s-2.25,2.03-1.85,3.26c.49,1.52,1.78,2.05,3.26,1.85h0Z"/>
    <path class="cls-19" d="M166.21,202.44c2.34.49,4.12,2.44,5.99,3.81,2,1.47,4.1,2.78,6.3,3.93,4.39,2.3,9.11,3.97,13.98,4.92,2.09.41,2.98-2.79.88-3.2-4.87-.95-9.57-2.6-13.93-4.99-2.11-1.15-4.14-2.46-6.06-3.91s-3.77-3.24-6.27-3.77c-2.08-.44-2.97,2.76-.88,3.2h0Z"/>
    <path class="cls-19" d="M151.01,205.07c1.38.97,3.02,1.43,4.6,1.96s3.02,1.13,4.45,1.87c2.92,1.5,5.59,3.4,7.96,5.68,1.54,1.48,3.89-.86,2.35-2.35-2.49-2.39-5.31-4.46-8.37-6.06-1.51-.79-3.08-1.47-4.68-2.05s-3.24-.93-4.64-1.91c-.73-.52-1.84-.13-2.27.6-.48.83-.14,1.75.6,2.27h0Z"/>
    <path class="cls-19" d="M161.42,210.67s.03.02.04.03l-.34-.26s.09.08.12.12l-.26-.34c.04.06.08.12.1.18l-.17-.4c.03.07.05.14.06.22l-.06-.44c.01.09.01.18,0,.27l.06-.44c-.01.08-.03.15-.06.22l.17-.4c-.03.06-.06.12-.1.18l.26-.34s-.08.09-.12.12l.34-.26s-.1.07-.15.09l.4-.17c-.06.02-.12.04-.19.05l.44-.06c-.08,0-.15,0-.23,0l.44.06c-.08-.01-.16-.03-.24-.07l.4.17c-.07-.03-.14-.07-.2-.12l.34.26c-.06-.05-.12-.1-.16-.16l.26.34c-.04-.05-.07-.11-.1-.17l.17.4c-.02-.06-.04-.12-.05-.18l.06.44c0-.06,0-.12,0-.18l-.06.44c.01-.07.03-.13.05-.2l-.17.4c.03-.07.07-.13.11-.19l-.26.34c.05-.07.11-.12.17-.18l-.34.26c.07-.05.14-.09.21-.12l-.4.17c.06-.03.13-.04.2-.05l-.44.06c.06,0,.12,0,.18,0l-.44-.06s.04,0,.06.01c.22.07.44.08.66.03.22-.01.43-.08.62-.2.19-.1.35-.25.47-.43.15-.16.25-.35.3-.56l.06-.44c0-.3-.08-.58-.23-.84l-.26-.34c-.21-.21-.45-.35-.73-.43-.09-.02-.19-.03-.28-.04-.08-.01-.18-.03-.27-.03-.18,0-.43.04-.57.06-.22.04-.44.15-.64.24-.04.02-.08.04-.12.07-.07.05-.15.11-.22.17-.07.06-.15.11-.22.18-.03.03-.06.06-.09.1-.12.14-.24.28-.33.44-.02.04-.04.08-.06.12-.08.17-.16.34-.21.52,0,.02,0,.04-.01.06-.03.16-.05.33-.07.49,0,.05,0,.1,0,.14.02.16.04.33.07.49,0,.02,0,.04.01.05,0,.02.01.04.02.06.05.15.12.3.18.44.02.04.04.07.06.11.1.15.21.29.32.42.03.03.05.06.08.08.13.12.28.23.43.33.18.12.4.2.6.27.04.01.07.02.11.03.18.04.37.06.55.08.04,0,.08,0,.12,0,.02,0,.04,0,.05,0,.16-.02.33-.04.49-.07.04,0,.07-.02.11-.03.02,0,.04-.01.06-.02.15-.06.3-.12.44-.19.04-.02.07-.04.11-.07.14-.1.29-.2.41-.33s.22-.27.32-.41c.02-.03.05-.07.06-.1.08-.16.15-.33.21-.49.01-.04.03-.08.03-.12.04-.18.06-.37.08-.55,0-.05,0-.09,0-.14-.01-.23-.03-.47-.1-.68-.03-.09-.07-.17-.11-.26s-.07-.17-.11-.25c-.02-.04-.04-.08-.07-.11-.26-.36-.4-.51-.77-.76-.19-.12-.4-.19-.62-.2-.22-.05-.44-.04-.66.03-.22.05-.4.15-.56.3-.18.12-.32.27-.43.47l-.17.4c-.08.29-.08.59,0,.88l.17.4c.15.25.35.45.6.6h0Z"/>
    <path class="cls-5" d="M38.89,142.68c4.45,3.35,8.39,7.34,12.99,10.49,5,3.43,10.49,5.02,16.46,5.73,6.43.77,12.88,1.19,19.29,2.09s12.78,2.04,19.11,3.4,12.86,2.93,18.2,6.87c1.01.75,2.59.17,3.18-.83.69-1.18.18-2.43-.83-3.18-4.78-3.53-10.55-5.33-16.27-6.66-6.21-1.44-12.49-2.6-18.79-3.57s-13.17-1.77-19.78-2.35c-5.82-.51-11.46-1.31-16.53-4.41-5.33-3.25-9.7-7.84-14.67-11.59-1-.76-2.6-.16-3.18.83-.7,1.19-.17,2.42.83,3.18h0Z"/>
    <path class="cls-20" d="M38.97,79.54c13.15,5.38,26.68,9.72,40.22,13.98,6.09,1.92,12.16,3.44,18.44,4.61s12.65,2.47,18.21,5.99c3.25,2.07,6.25-3.1,3.01-5.16-10.72-6.81-24.44-6.96-36.35-10.66-14.13-4.39-28.24-8.91-41.94-14.52-3.55-1.46-5.1,4.32-1.59,5.76h0Z"/>
    <path class="cls-20" d="M24.47,70.54c5.78-.9,7.51,11.06,10.2,14.49,2.36,3.01,5.81,4.75,9.49,5.55,4.43.96,8.98.75,13.48.93,6.54.26,12.94,1.33,19.25,3,3.72.98,5.31-4.78,1.59-5.76-6.22-1.64-12.57-2.73-19-3.12-5.4-.33-11.6.55-16.67-1.72-5.96-2.67-5.75-9.91-9.31-14.64-2.69-3.57-6.26-5.17-10.64-4.48-3.79.59-2.18,6.35,1.59,5.76h0Z"/>
    <path class="cls-23" d="M135.05,57.75c12.81-2.88,21.97,10.66,32.1,16.03s21.28,6.51,32.3,7.67c3.82.4,3.79-5.57,0-5.97-13.48-1.41-26.1-3.47-37.02-12.06-8.55-6.72-17.34-14.04-28.96-11.43-3.75.84-2.16,6.6,1.59,5.76h0Z"/>
    <path class="cls-21" d="M31.72,100.73c6.86.89,13.43,3.8,19.89,6.14,3.04,1.1,6.09,2.21,9.13,3.33,3.29,1.21,7.46,2.13,10.14,4.49l2.91-4.99c-8.14-1.63-15.58-4.99-23.14-8.29-6.3-2.75-13.33-6.47-20.39-5.7-2.64.29-4.44,4.1-1.51,5.56,14.25,7.1,29.34,12.14,44.96,15.17,3.75.73,5.36-5.03,1.59-5.76-15.12-2.93-29.75-7.69-43.54-14.57l-1.51,5.56c7.46-.82,15.4,4.04,22.02,6.94s12.96,5.45,19.92,6.84c2.69.54,5.32-2.87,2.91-4.99-5.32-4.67-13.56-6.32-20.08-8.69-7.64-2.77-15.19-5.97-23.3-7.02-3.8-.49-3.76,5.49,0,5.97h0Z"/>
    <path class="cls-10" d="M141.25,91.47c9.52,1.17,18.56,9.06,26.46,14.04l3.01-5.16c-6.82-3.25-13.36-6.98-19.55-11.31-5.73-4.01-11.57-8.57-13.75-15.49l-4.99,2.91c9.64,12,20.33,24.35,36.23,27.31,2.98.56,4.88-2.66,2.91-4.99-1.77-2.08-3.73-3.65-6.13-4.96-3.37-1.84-6.39,3.31-3.01,5.16,1.97,1.08,3.47,2.32,4.92,4.03l2.91-4.99c-14.88-2.77-24.6-14.58-33.59-25.77-1.9-2.36-5.85.19-4.99,2.91,4.73,14.97,22.93,24.12,36.05,30.37,3.44,1.64,6.31-3.08,3.01-5.16-9.13-5.76-18.46-13.5-29.47-14.85-3.81-.47-3.77,5.51,0,5.97h0Z"/>
    <path class="cls-10" d="M154,163.32c5.53,3.56,11.62,5.87,18.14,6.79,2.84.4,5.1-2.63,2.91-4.99-5.42-5.83-13.24-6.37-20.74-6.38-3.84,0-3.85,5.97,0,5.97,5.9,0,12.22,0,16.52,4.63l2.91-4.99c-6.06-.86-11.56-2.87-16.71-6.19-3.24-2.09-6.24,3.08-3.01,5.16h0Z"/>
    <path class="cls-23" d="M25.98,313.51l6.08.19c1.18.04,4.74-.47,5.69.24,1.54,1.15,1.65,5.04,2.8,6.8l2.58-4.49c-4.61-.15-8.33-2.21-11.19-5.78l-2.91,4.99c6.5,2.64,10.11,8.81,17.93,7.26,3.77-.75,2.17-6.5-1.59-5.76-5.1,1.01-10.27-5.44-14.75-7.26-3.1-1.26-4.51,2.98-2.91,4.99,3.83,4.78,9.33,7.33,15.41,7.53,2.2.07,3.81-2.61,2.58-4.49-2.01-3.07-1.32-7.18-5.13-9.05-4.04-1.98-10.23-1-14.6-1.14-3.84-.12-3.84,5.85,0,5.97h0Z"/>
    <path class="cls-4" d="M47.22,321.23c4.18,7.59,12.34,12.07,19.23,16.87,3.16,2.2,6.15-2.97,3.01-5.16-6.02-4.19-13.44-8.1-17.09-14.73-1.85-3.37-7.01-.36-5.16,3.01h0Z"/>
    <path class="cls-8" d="M20.78,198.01c3.92,4.49,9.09,7.7,14.98,8.85,3.06.6,6.6.34,9.32,2.08,2.98,1.91,4.49,6.21,6.4,9.03,2.14,3.16,7.32.18,5.16-3.01-3.43-5.06-5.57-10.73-11.93-12.64-3.33-1-6.88-.85-10.21-1.93-3.8-1.24-6.89-3.61-9.49-6.59s-6.74,1.34-4.22,4.22h0Z"/>
    <path class="cls-20" d="M99.51,159.61c1.92-2.58,2.51-1.7,5.38-1.15,2,.38,4.04.64,6.07.74,4.43.23,8.8-.36,13.09-1.44,3.73-.93,2.15-6.69-1.59-5.76-6.79,1.7-12.68,1.16-19.44-.13-3.99-.76-6.4,1.66-8.67,4.72s2.89,6.07,5.16,3.01h0Z"/>
    <g class="cls-17">
      <path class="cls-3" d="M36.97,153.1c6.42,2.94,13.07,5.15,20.05,6.3,7.62,1.25,15.36,1.52,22.87,3.42,7.02,1.77,13.78,4.14,20.96,5.21,8.49,1.26,15.63,3.27,23.37,7.11,3.43,1.7,6.46-3.45,3.01-5.16-6.61-3.28-13.05-6-20.4-7.1s-14.57-2.82-21.88-4.88c-15-4.23-30.57-3.47-44.98-10.07-3.47-1.59-6.51,3.56-3.01,5.16h0Z"/>
      <path class="cls-3" d="M93.27,167.54c1.41,2.88,2.56,7.17,6,8.19,1.69.5,3.57.23,5.29.56,2.55.49,4.82,1.51,7.01,2.88,3.27,2.05,6.27-3.12,3.01-5.16-2.95-1.85-6.17-3.16-9.62-3.68-1.28-.19-3.05.05-4.09-.8s-1.84-3.76-2.45-5.01c-1.69-3.45-6.84-.43-5.16,3.01h0Z"/>
    </g>
    <g class="cls-17">
      <path class="cls-3" d="M26.56,79.23c-.59.52-.49-.15-.11.13-.12-.09.22.11.26.13.37.2.54.49.74.85.7,1.26.97,2.74,1.62,4.04,1.32,2.63,3.77,4.58,6.43,5.74,3.17,1.38,6.61,1.7,10.04,1.8s6.81.17,10.21.39c13.47.87,26.81,3.29,39.75,7.13,7.33,2.17,14.52,4.8,21.51,7.89,1.23.55,2.69.36,3.42-.9.62-1.06.34-2.87-.9-3.42-13.03-5.76-26.66-10.09-40.66-12.75-7.03-1.34-14.14-2.28-21.27-2.82-3.54-.27-7.09-.41-10.64-.49-3.21-.07-6.65-.06-9.62-1.46-1.3-.62-2.54-1.47-3.38-2.66-.98-1.39-1.26-3.14-2.01-4.66-1.64-3.33-5.87-5.16-8.92-2.47-1.01.89-.91,2.62,0,3.54,1.01,1.01,2.52.89,3.54,0h0Z"/>
    </g>
    <g class="cls-17">
      <path class="cls-3" d="M138.21,59.07c3.73.78,6.95,2.69,10.05,4.83s6.42,4.6,9.78,6.69c6.91,4.28,14.31,7.77,21.99,10.43,4.29,1.49,8.68,2.7,13.12,3.64,3.14.66,4.48-4.15,1.33-4.82-7.81-1.65-15.46-4.14-22.7-7.51-3.65-1.7-7.21-3.61-10.65-5.71s-6.57-4.4-9.82-6.67c-3.59-2.51-7.44-4.79-11.77-5.7-1.32-.28-2.7.39-3.08,1.75-.34,1.24.42,2.8,1.75,3.08h0Z"/>
    </g>
    <g class="cls-17">
      <path class="cls-3" d="M122.73,93.24c5.3,1.19,10.62,2.39,15.7,4.34s9.07,4.86,13.27,8.05c2.07,1.58,4.21,3.02,6.61,4.05,2.69,1.15,5.51,1.69,8.4,2.07,2.53.33,5.08.5,7.59.92s5.04,1.19,7.44,2.21c5.32,2.24,10.73,5.25,16.71,4.45,1.34-.18,2.5-1.02,2.5-2.5,0-1.21-1.15-2.68-2.5-2.5-4.95.66-9.4-1.7-13.8-3.61-2.44-1.06-4.91-2.04-7.52-2.59s-5.5-.82-8.25-1.12c-2.51-.28-5.02-.64-7.42-1.45s-4.54-2.24-6.56-3.74-4.09-3.23-6.27-4.66-4.61-2.64-7.06-3.67c-5.62-2.36-11.57-3.73-17.5-5.06-3.13-.7-4.47,4.12-1.33,4.82h0Z"/>
    </g>
    <g class="cls-17">
      <path class="cls-3" d="M143.27,95.85l-6.45.05c-1.81.01-3.23,2.14-2.16,3.76,1.82,2.74,4.57,4.27,7.43,5.73,3.25,1.66,6.52,3.27,9.92,4.58,7.12,2.75,14.44,2.92,21.98,2.67,1.24-.04,2.31-.92,2.46-2.17.13-1.11-.55-2.56-1.79-2.74-5.56-.81-10.16-4.02-15.01-6.61-5.23-2.78-11.09-4.84-17.04-3.4-2.53.62-2.22,4.06,0,4.82,6.16,2.11,12.05,4.85,17.66,8.15,2.78,1.64,5.3-2.68,2.52-4.32-5.97-3.52-12.29-6.41-18.85-8.66v4.82c5.17-1.26,10.32,1.27,14.73,3.74,4.64,2.59,9.31,5.48,14.66,6.26l.66-4.91c-3.43.12-6.86.23-10.29-.03-3.27-.25-6.43-1.01-9.51-2.13s-5.77-2.47-8.56-3.88c-2.28-1.15-5.19-2.24-6.66-4.45l-2.16,3.76,6.45-.05c3.22-.03,3.22-5.03,0-5h0Z"/>
    </g>
    <g class="cls-17">
      <path class="cls-3" d="M150.4,164.43c2.82,5.52,8.74,8.64,14.67,9.61,3.33.54,6.84.76,10.2.52,2.01-.14,3.53-1.6,3.23-3.71-.25-1.74-1.17-3.51-1.95-5.07l-3.42,3.42c7.37,3.29,14.44,7.18,21.17,11.63,2.69,1.78,5.2-2.55,2.52-4.32-6.72-4.46-13.8-8.34-21.17-11.63-2.28-1.02-4.58,1.07-3.42,3.42.28.56.54,1.12.77,1.7.11.28.22.57.32.86.05.14.1.29.15.43.09.34.11.29.05-.16l1.15-1.49c.59-.08.58-.1-.02-.06-.31,0-.61.01-.92.02-.61,0-1.23.01-1.84,0-1.07-.01-2.15-.05-3.21-.13-2.1-.16-4.17-.53-6.17-1.2-3.3-1.11-6.2-3.24-7.8-6.37-1.46-2.87-5.78-.34-4.32,2.52h0Z"/>
    </g>
    <g class="cls-17">
      <path class="cls-3" d="M156.37,169.52c2.47.78,4.95,1.55,7.42,2.33s5.01,1.84,7.59,2.13,5.45-1.02,6.25-3.7-.94-4.79-3.27-5.83c-1.23-.55-2.69-.36-3.42.9-.62,1.07-.34,2.87.9,3.42.31.14.6.29.9.44.13.06.33.12.1.03.24.1.09.25.08.04,0-.09-.05-.26-.08-.35.05-.24.05-.27,0-.09-.04.14-.04.15,0,.03-.11-.07.36-.29.04-.09-.03.02-.38.32-.22.21.18-.13-.35.08-.11.03.28-.05-.33.02-.23.02-.21,0-.55-.02-.75-.06-.93-.16-1.84-.51-2.74-.79-3.71-1.17-7.42-2.33-11.13-3.5-1.29-.4-2.73.48-3.08,1.75-.37,1.34.45,2.67,1.75,3.08h0Z"/>
    </g>
    <g class="cls-17">
      <path class="cls-3" d="M23.5,317.76c3.27,6.86,11.18,11.42,18.77,10.65,2.15-.22,4.47-1.22,6.64-.92,2.04.28,4.09,1.85,5.83,2.86,4.17,2.41,8.18,5.07,12.04,7.95,1.08.81,2.79.18,3.42-.9.75-1.28.19-2.61-.9-3.42-3.73-2.79-7.61-5.37-11.64-7.72-1.99-1.16-4.02-2.44-6.19-3.23s-4.6-.55-6.92-.06c-3.37.71-6.6.68-9.77-.82s-5.5-3.83-6.97-6.91c-.58-1.22-2.33-1.54-3.42-.9-1.25.73-1.48,2.2-.9,3.42h0Z"/>
    </g>
    <g class="cls-17">
      <path class="cls-3" d="M24.03,314.82c1.97.82,3.56,2.44,5.01,3.95,1.73,1.8,3.38,3.63,5.37,5.14s4.3,2.62,6.84,2.87,5.02-1.01,7.61-1.09c3.21-.09,3.22-5.09,0-5-2.42.07-4.82,1.34-7.23,1.12-2.07-.19-3.91-1.51-5.41-2.86-3.58-3.23-6.27-7.06-10.86-8.96-1.25-.52-2.75.56-3.08,1.75-.39,1.44.49,2.56,1.75,3.08h0Z"/>
    </g>
    <g class="cls-17">
      <path class="cls-3" d="M24.74,204.95c2.61.14,5.2,1.48,7.61,2.4,2.54.97,5.16,1.82,7.62,2.96,2.1.98,3.77,2.43,5.59,3.83,1.92,1.48,3.9,2.48,6.34,2.74,1.34.14,2.5-1.25,2.5-2.5,0-1.47-1.15-2.36-2.5-2.5-1.76-.18-3.3-1.65-4.61-2.71-2.06-1.66-4.13-2.94-6.58-3.94s-5.14-1.98-7.71-2.95c-2.7-1.03-5.34-2.17-8.26-2.32-3.22-.17-3.21,4.83,0,5h0Z"/>
    </g>
    <g>
      <path class="cls-18" d="M67.93,25.77c-1.69-.05-2.55-.96-3.73-2-1.03-.91-2.12-1.41-3.5-1.45-.41-.01-.75.35-.75.75v10.39h1.5c-.02-3.91-.26-10.6-5.4-11.13-1.84-.19-3.71.39-5.43.97-2.17.73-4.3,1.61-6.51,2.23-2.43.68-4.99,1.07-7.44.28l-.2,1.47h13.85v-1.5c-3.05.05-5.46,1.47-6.59,4.36-1.25,3.19-1.08,6.87-1.08,10.24h1.5v-3.46l-1.13.65c9.38,6.21,20.52,10.64,31.74,7,.79-.26.67-1.47-.2-1.47h-10.39c-.71,0-1.07,1.06-.38,1.4,6.62,3.24,14.16,3.69,20.77,6.92l.58-1.37c-16.63-6.59-34.58-6.95-51.93-10.39l-.2,1.47c3.76-.03,8.44-.92,8.19-5.6-.09-1.61-.59-3.16-.95-4.71-.27-1.15-.7-2.78.22-3.75.43-.45.14-1.3-.53-1.28-3.79.12-6.64,3.34-10.39,3.46-.64.02-1,.81-.53,1.28,1.15,1.15,2.31,2.31,3.46,3.46v-1.06c-2.9,2.83-6.34,4.2-10.38,4.1-3.3-.08-6.55-.83-9.86-.86l.75.75c.02-1.81.26-3.96,1.87-5.09,1.27-.89,2.98-.92,4.47-.9,3.21.05,6.93.89,9.9-.73,1.82-.99,2.74-2.85,3.11-4.82.18-.94-1.27-1.35-1.45-.4-1.64,8.68-12.42,1.67-17.34,5.97-1.69,1.47-2.04,3.84-2.06,5.96,0,.41.35.75.75.75,3.66.03,7.25.96,10.91.86,4.04-.11,7.51-1.73,10.39-4.54.29-.28.28-.78,0-1.06-1.15-1.15-2.31-2.31-3.46-3.46l-.53,1.28c3.79-.12,6.64-3.34,10.39-3.46l-.53-1.28c-2.01,2.13-.44,5.56.06,7.98.26,1.24.51,2.79-.29,3.9-1.28,1.75-4.25,1.74-6.17,1.75-.82,0-1.05,1.3-.2,1.47,17.36,3.44,35.3,3.79,51.93,10.39.79.31,1.34-1,.58-1.37-6.62-3.24-14.16-3.69-20.77-6.92l-.38,1.4h10.39l-.2-1.47c-10.85,3.52-21.53-.85-30.58-6.85-.48-.32-1.13.1-1.13.65v3.46c0,.96,1.5.97,1.5,0,0-2.91-.11-5.96.68-8.78s2.61-4.27,5.5-4.32c.96-.02.97-1.5,0-1.5h-13.85c-.86,0-1,1.22-.2,1.47,4.11,1.31,8.4-.23,12.26-1.63,2.56-.93,7.31-3.33,9.6-.71,1.89,2.16,1.81,5.88,1.82,8.54,0,.96,1.5.97,1.5,0v-10.39l-.75.75c1.59.05,2.39,1.04,3.51,2.01s2.28,1.41,3.73,1.45c.97.03.96-1.47,0-1.5h0Z"/>
      <path class="cls-15" d="M65.76,48.15c-6.9-2.13-13.89-1.19-20.95-.83-3.16.16-6.39.14-9.45-.78-3.63-1.09-6.54-3.46-8.81-6.44-.41-.54-1.34-.04-.94.55.93,1.37,2.25,3.39,4.07,3.61,1.27.15,2.18-.77,2.81-1.76.78-1.21,1.24-2.59,1.86-3.88.32-.66.87-2.13,1.72-1.32.46.44,1.13-.11.86-.66-1.31-2.59-3-5.67-5.73-7.02-1.8-.89-3.71-.62-5.46.26-4.11,2.06-6.86,6.24-11.22,7.88-2.88,1.08-5.61.21-7.91-1.69-.54-.44-1.31.32-.77.77,1.94,1.6,4.25,2.75,6.83,2.48,2.25-.23,4.25-1.41,6.03-2.73,1.87-1.39,3.56-3.01,5.44-4.4,1.51-1.12,3.36-2.32,5.33-2.01,3.24.52,5.21,4.42,6.52,7l.86-.66c-2.22-2.12-3.57,1.85-4.25,3.36-.45,1.02-1.02,2.66-2.12,3.17-1.6.75-3.26-1.96-3.94-2.96l-.94.55c2.16,2.83,4.81,5.18,8.16,6.5,2.99,1.17,6.25,1.41,9.44,1.33,7.52-.18,14.91-1.54,22.27.73.67.21.96-.84.29-1.05h0Z"/>
      <g>
        <g>
          <path class="cls-6" d="M17.72,19.43c1.55,1.24,3.24,2.31,5.12,2.99,1.41.51,2.89.77,4.38.85.78.04,1.57.04,2.35.04v-.34c-.62,0-1.24,0-1.86.02-.4,0-.81.02-1.21.05-.18.01-.49,0-.61.16-.13.18.17.35.29.17-.09.12-.08.04,0,.04.04,0,.1-.01.14-.02.14-.01.28-.02.42-.03.4-.02.8-.03,1.2-.04.54-.01,1.08-.02,1.62-.02.22,0,.22-.34,0-.34-1.36,0-2.73,0-4.08-.22-1.6-.25-3.13-.79-4.56-1.56-1.05-.57-2.04-1.26-2.98-2-.17-.14-.41.1-.24.24h0Z"/>
          <path class="cls-6" d="M56.02,32.48c-1.3-1.49-3.66-1.93-5.55-1.76-1.59.14-3.76.93-3.76,2.85,0,.6.23,1.27.39,1.84s.34,1.1.56,1.62c.38.9.87,1.76,1.5,2.51,1.09,1.28,2.57,2.1,4.21,2.44,3.71.77,7.67-.41,11.25-1.34,1.94-.5,3.88-1.03,5.86-1.35,1.65-.27,3.42-.43,5.06.03s3.65,1.88,3.19,3.79-3.01,3.34-4.88,3.41c-.4.02-.8-.03-1.13-.25-.18-.12-.36.17-.17.29,1.41.92,3.68-.21,4.83-1.08,1.48-1.12,2.39-2.95,1.15-4.61-2.05-2.73-6-2.33-8.94-1.76-3.97.76-7.81,2.19-11.84,2.64-1.77.2-3.62.21-5.32-.38s-3.13-1.9-4.01-3.54c-.57-1.06-.95-2.23-1.22-3.4-.14-.6-.22-1.15.06-1.72.21-.43.58-.77.99-1.01,1.82-1.08,4.57-.85,6.39.13.43.23.81.52,1.13.89.14.17.38-.08.24-.24h0Z"/>
          <path class="cls-6" d="M27.01,23.8c12.19-.43,24.42-2.58,36.55-.3,3.74.7,7.39,1.79,10.93,3.19.18.07.3-.23.13-.31-3.21-1.58-6.8-1.82-10.16-.59s-6.39,3.81-8.68,6.69c-.14.17.1.41.24.24,2.21-2.78,5-5.26,8.36-6.54s6.88-1.08,10.07.49l.13-.31c-6.08-2.42-12.47-3.79-19-4.15-6.02-.33-12.03.13-18.03.59-3.51.27-7.02.53-10.55.66-.22,0-.22.35,0,.34h0Z"/>
          <path class="cls-6" d="M72.56,46.42c2.2.55,4.49.34,6.73.28,2.67-.07,5.36.09,7.83,1.18,1.74.77,3.27,1.91,4.6,3.26l.12-.29c-5.78.09-11.56.2-17.34.31-.22,0-.22.34,0,.34,1.57,0,2.5.86,3.54,1.91.95.97,1.98,1.58,3.37,1.57v-.34c-3.71.04-6.27-3.27-9.66-4.21-.21-.06-.3.27-.09.33,1.73.47,3.23,1.62,4.76,2.51s3.19,1.73,4.99,1.71c.22,0,.22-.34,0-.34-1.57.02-2.51-.85-3.54-1.9-.95-.97-1.97-1.59-3.36-1.58v.34c5.78-.11,11.56-.21,17.34-.31.15,0,.23-.19.12-.29-2.18-2.19-4.83-3.75-7.9-4.28-2.48-.43-4.99-.21-7.5-.17-1.32.02-2.64-.02-3.93-.35-.21-.05-.3.27-.09.33h0Z"/>
          <path class="cls-6" d="M72.95,51.38c-6.12-2.99-12.96-3.79-19.63-4.61-7.01-.86-14.18-1.81-20.53-5.11-3.92-2.03-7.3-4.9-10.06-8.33l-.24.24c1.26,1.26,2.51,2.53,3.85,3.71,1,.88,2.06,1.73,3.27,2.3,2.2,1.04,4.33.54,6.17-.96,1.72-1.4,3.06-3.26,4.28-5.08.06-.1,0-.22-.1-.25-7.29-2.38-14.44,1.78-21.39,3.47-1.8.44-3.64.73-5.5.7-.96-.01-1.92-.12-2.86-.32-.44-.1-1-.17-1.37-.42-.53-.36-.94-1.1-1.15-1.69-.78-2.21.9-4.36,2.27-5.91.4-.45.82-.89,1.24-1.32.49-.5.87-1.09,1.61-1.09,1.12,0,2.24,0,3.36-.01,4.47-.05,8.81-.55,13.16-1.57.21-.05.12-.38-.09-.33-4.19.98-8.37,1.49-12.67,1.55-1.14.02-2.27.02-3.41.02-.48,0-.89-.12-1.24.23-.47.46-.93.93-1.38,1.41-1.41,1.48-3.09,3.26-3.35,5.38-.11.91.1,1.8.58,2.57.21.34.55.88.89,1.1s.89.29,1.29.38c1.8.42,3.67.46,5.5.25,3.9-.45,7.59-1.92,11.31-3.11,4.25-1.35,8.75-2.37,13.11-.95l-.1-.25c-1.08,1.6-2.23,3.19-3.65,4.51-.9.84-1.96,1.59-3.18,1.86-2.38.52-4.56-1.13-6.24-2.6-1.38-1.2-2.67-2.51-3.97-3.81-.16-.16-.38.07-.24.24,2.45,3.05,5.4,5.67,8.78,7.64,3.01,1.75,6.29,2.97,9.66,3.83,6.82,1.73,13.89,2.01,20.79,3.25,3.8.68,7.57,1.68,11.05,3.38.2.1.37-.2.17-.29h0Z"/>
          <path class="cls-6" d="M72.56,52.06c-5.02-2.57-10.38-4.25-15.99-4.85-5-.53-10.02-.26-15.03-.19-3.07.04-6.13,0-9.19-.27-.22-.02-.22.32,0,.34,10.16.86,20.5-.98,30.5,1.58,3.31.85,6.5,2.12,9.54,3.68.19.1.37-.19.17-.29h0Z"/>
          <path class="cls-6" d="M29.08,45.49c-.42-1.74-1.29-3.42-2.98-4.2-1.54-.71-3.32-.63-4.96-.44-1.94.23-3.85.65-5.79.85-1.81.19-3.78.21-5.44-.64-2.41-1.24-3.36-3.97-3.81-6.48-.04-.22-.37-.12-.33.09.4,2.22,1.17,4.6,3,6.06,1.4,1.11,3.18,1.43,4.92,1.41,1.93-.02,3.84-.41,5.74-.71,1.77-.28,3.68-.6,5.46-.19,2.19.49,3.35,2.25,3.85,4.34.05.21.38.12.33-.09h0Z"/>
          <path class="cls-6" d="M33.27,26.69c.53.02,1.05.14,1.49.44.39.26.68.65.88,1.07.52,1.08.56,2.37.58,3.55,0,.83-.02,1.66-.06,2.49,0,.22.33.22.34,0,.06-1.47.13-2.97-.07-4.44-.15-1.07-.49-2.21-1.39-2.88-.51-.38-1.14-.53-1.77-.56-.22,0-.22.33,0,.34h0Z"/>
          <path class="cls-6" d="M41.97,41.37c1,1.04,2.06,2.03,3.17,2.96.32.27.65.54.98.81.07.06.17.07.24,0,.06-.06.07-.18,0-.24-1.15-.92-2.25-1.89-3.3-2.91-.29-.28-.57-.57-.85-.86-.15-.16-.39.08-.24.24h0Z"/>
        </g>
        <path class="cls-6" d="M37.55,28.2c1.31-.75,2.96-.95,4.44-1.11,1.78-.19,3.58-.25,5.37-.23.78,0,1.57.03,2.35.09.18.01.17-.26,0-.27-1.58-.12-3.18-.12-4.77-.07-1.78.06-3.58.19-5.33.57-.76.17-1.52.38-2.2.77-.15.09-.01.32.14.24h0Z"/>
        <path class="cls-6" d="M32.14,30.46c-1.17,1.4-2.97,2.08-4.68,2.55-1.98.55-4.02.84-6.04,1.19-1.07.19-2.14.39-3.19.69-.17.05-.1.31.07.26,1.96-.55,3.99-.81,5.99-1.17s3.96-.75,5.75-1.63c.86-.42,1.66-.97,2.28-1.7.11-.13-.08-.33-.19-.19h0Z"/>
      </g>
    </g>
    <path class="cls-6" d="M93.34,281.21c-.85,5.45,2.08,10.32,6.32,13.52,4.67,3.53,10.46,4.95,15.69,7.41.6.28,1.1.19,1.61-.21,1.93-1.5,1.34-4.19.05-5.88-1.62-2.12-3.57-4.03-5.36-6.01-3.61-4-7.22-8.02-11.45-11.37-1.32-1.05-3.21.81-1.88,1.88,3.58,2.84,6.72,6.16,9.79,9.53,1.56,1.71,3.1,3.44,4.65,5.15.85.95,3.99,3.52,2.32,4.82l1.61-.21c-4.68-2.2-9.77-3.55-14.16-6.34-3.86-2.46-7.4-6.71-6.63-11.59.26-1.67-2.3-2.39-2.56-.71h0Z"/>
    <path class="cls-6" d="M101.67,277.19c7.55-1.72,12.5,7.24,15.96,12.39,1.04,1.55,2.34,3.13,3.1,4.84.23.52.5,1.41,0,1.89-.52.51-1.64.06-2.21-.17-1.57-.64-2.85-1.83-4.02-3.04-1.33-1.37-2.58-2.8-3.87-4.21-3.16-3.46-6.32-6.91-9.48-10.37-1.15-1.26-3.03.62-1.88,1.88,3.41,3.73,6.81,7.45,10.22,11.18,2.68,2.93,5.62,6.9,9.83,7.52,1.94.28,3.73-.66,4.22-2.64.52-2.14-.84-4.03-1.95-5.72-2.52-3.83-4.97-7.89-8.08-11.27s-7.74-5.94-12.54-4.84c-1.66.38-.96,2.94.71,2.56h0Z"/>
    <path class="cls-6" d="M95.47,284.63c-.59-.59-1.24-1.12-1.94-1.58s-1.38-.82-2.21-.55c-.87.29-1.23,1.11-1.59,1.87-.34.72-.69,1.44-1.05,2.15-.73,1.42-1.51,2.81-2.33,4.18-.64,1.07-1.25,2.36-2.42,2.91-.65.3-.81,1.24-.48,1.82.39.67,1.16.78,1.82.48,1.19-.56,2-1.65,2.69-2.74.75-1.19,1.46-2.41,2.14-3.65s1.33-2.52,1.93-3.81c.04-.09.44-.77.4-.84.02.03-.71.14-.71.15,0,.02.24.16.31.21.57.37,1.08.8,1.56,1.27,1.22,1.2,3.1-.68,1.88-1.88h0Z"/>
    <path class="cls-6" d="M97.37,288.3c-1.47-.81-3.09-.19-4.03,1.11-.88,1.22-1.06,2.78-1.19,4.24-.27,3.02-1.48,6.04-.2,8.99.29.66,1.25.81,1.82.48.68-.4.76-1.16.48-1.82-.38-.86-.31-1.92-.17-2.82.18-1.18.47-2.33.61-3.52.12-1.03.12-2.09.41-3.09.08-.29.5-1.5.93-1.27,1.5.82,2.84-1.47,1.34-2.29h0Z"/>
    <path class="cls-6" d="M102.84,294.91c-1.64.14-4.04-.11-4.58,1.89-.45,1.7.63,3.42,1.52,4.77.96,1.44,2.09,2.54,3.53,3.51s2.98,1.98,4.46,2.97c.6.4,1.47.12,1.82-.48.38-.65.12-1.42-.48-1.82-1.17-.78-2.35-1.56-3.52-2.34-1.07-.71-2.14-1.38-2.95-2.39-.68-.84-1.45-1.91-1.74-2.96-.03-.12-.12-.58-.07-.59.02,0-.24.26-.23.25-.02.08-.16-.06.06.02s.81-.07,1.05-.09l1.15-.1c.71-.06,1.33-.57,1.33-1.33,0-.67-.61-1.39-1.33-1.33h0Z"/>
    <path class="cls-6" d="M114.02,280.94l3.74-1.75c1.08-.51,2.1-1.07,3.3-1.24,2.55-.35,4.93-1.07,7.16-2.38,1.47-.86.14-3.16-1.34-2.29-1.04.61-2.13,1.11-3.29,1.46s-2.38.48-3.59.7-2.43.92-3.58,1.45l-3.74,1.75c-.65.3-.81,1.24-.48,1.82.39.67,1.16.78,1.82.48h0Z"/>
    <path class="cls-6" d="M117.69,285.01c.2-.42.44-.93.71-1.2.12-.12.14-.18.31-.18.19,0,.41.08.6.15,1.02.37,2.03,1,2.87,1.68s1.67,1.54,2.3,2.47c.42.62.79,1.24,1.45,1.64s1.44.48,2.19.52,1.33-.64,1.33-1.33c0-.75-.61-1.29-1.33-1.33-.24-.01-.54,0-.76-.11s-.3-.3-.44-.5c-.4-.6-.83-1.18-1.3-1.72-.91-1.04-1.99-1.94-3.16-2.67s-2.78-1.64-4.26-1.38c-1.4.24-2.23,1.44-2.8,2.64-.31.65-.18,1.43.48,1.82.58.34,1.51.18,1.82-.48h0Z"/>
    <path class="cls-6" d="M106.19,276.29c0-.5.03-1,.13-1.5.05-.26.11-.51.19-.76.04-.13.08-.25.12-.37.06-.18.24-.37-.01-.1l-.59.34c-.28,0-.29,0-.03.04.13.02.26.05.38.08.23.05.45.1.67.15.53.12,1.06.22,1.6.29,1,.12,1.96-.02,2.88-.45.67-.31,1.23-.71,1.98-.78,1.02-.1,1.96-.12,2.89-.61.63-.33.83-1.22.48-1.82-.38-.64-1.18-.81-1.82-.48-.41.22-.91.2-1.37.23-.65.05-1.3.12-1.91.37-.55.22-1.05.59-1.6.79s-1.1.15-1.65.05c-1.27-.23-3.33-1.17-4.13.34-.65,1.23-.86,2.8-.87,4.17,0,1.71,2.65,1.71,2.65,0h0Z"/>
    <path class="cls-6" d="M95.34,278.82c-.25.05-.02,0,.03,0-.07,0-.15,0-.22.01-.24.02-.02,0,.04.01.09.03.16.08.23.14.16.13.07.12.02.02-.03-.06-.07-.13-.1-.19-.11-.22,0-.03,0,.02-.03-.1-.07-.2-.1-.31-.04-.14-.07-.28-.09-.42.05.3,0-.09,0-.18,0-.15,0-.29.01-.43,0-.06.04-.26-.01.03.01-.09.03-.18.05-.27.03-.14.07-.29.11-.43.02-.07.04-.14.07-.21.01-.04.09-.26.03-.1s.03-.06.04-.1c.03-.07.06-.13.1-.2.08-.15.16-.29.25-.43.04-.06.3-.39.12-.18.1-.11.19-.23.3-.33.05-.05.38-.31.15-.16.15-.1.3-.2.47-.28-.26.12.1,0,.19-.02-.08.01-.24,0-.03.02.06,0,.24.05.02,0,.17.04.33.09.48.15-.05-.02-.2-.09.04.02.09.05.19.09.28.14.25.12.48.26.72.4.21.13.03.02,0-.01.05.05.1.1.16.15.17.15.03.03,0-.02.04.06.14.32.07.08.02.07.04.15.06.22-.02-.05,0-.27,0-.01,0,.16,0,.31-.02.47.03-.29-.04.16-.06.23-.04.17-.09.34-.13.51-.04.15-.09.3-.14.45-.02.07-.06.15-.08.22-.05.19.09-.18,0,0-.07.14-.13.28-.21.41-.02.03-.15.24-.06.1s-.09.1-.11.13c-.05.05-.1.1-.16.15-.23.23.2-.11-.07.06-.14.09-.28.17-.42.24-.04.02-.25.11-.09.05.17-.07-.12.04-.15.05-.17.06-.35.11-.53.16-.33.09-.67.17-1,.22.23-.04.03,0-.02,0-.39.03.21.02-.12,0,.06,0,.23.14.04,0,.12.08.24.17.28.32-.18-.67-.95-1.15-1.63-.93s-1.12.91-.93,1.63c.16.6.57,1.09,1.12,1.36.67.34,1.37.29,2.09.16.87-.16,1.75-.41,2.52-.85.98-.57,1.59-1.45,1.99-2.49.32-.84.6-1.84.53-2.75-.1-1.23-.8-2.14-1.85-2.75-.97-.56-2.03-1.01-3.17-.83-1.94.3-3.33,2.35-3.76,4.14-.25,1.03-.27,2.16.1,3.16.24.65.56,1.3,1.19,1.66s1.37.31,2.07.18,1.13-.99.93-1.63c-.24-.73-.9-1.06-1.63-.93h0Z"/>
    <g class="cls-17">
      <path class="cls-6" d="M61.08,254.14c-.53,12.49,1.31,24.94,4.25,37.05,2.59,10.65,5.91,21.72,13.64,29.85,6.84,7.2,16.36,11.49,26.07,13.1,5.39.9,10.75.87,16.19.55,6.01-.35,11.84-.46,17.72.96,12.02,2.9,22.88,9.51,35.31,10.91,1.69.19,1.68-2.46,0-2.65-10.73-1.21-20.37-6.53-30.56-9.69-5.29-1.64-10.67-2.55-16.22-2.46s-11.27.8-16.93.39c-9.55-.69-19.28-3.91-26.67-10.13-8.34-7.02-12.24-17.22-14.96-27.49-3.49-13.17-5.77-26.74-5.19-40.4.07-1.71-2.58-1.7-2.65,0h0Z"/>
    </g>
    <g class="cls-17">
      <path class="cls-6" d="M63.55,256.3c.1-9.91,8.19-17.76,17.17-20.62,11.08-3.54,22.87-1.05,33.8,1.79,5.91,1.54,11.78,3.16,17.79,4.27s11.83,1.82,17.76,2.58c11.13,1.41,22.39,2.88,32.95,6.86,10.12,3.81,19.67,9.98,25.5,19.29.9,1.44,3.2.11,2.29-1.34-5.43-8.68-13.89-14.86-23.18-18.92-10.48-4.58-21.74-6.48-33.02-7.96-6.41-.84-12.85-1.56-19.23-2.64-6.19-1.05-12.24-2.6-18.3-4.2-11.58-3.05-23.94-5.94-35.81-2.65-10.64,2.95-20.26,11.93-20.38,23.56-.02,1.71,2.64,1.71,2.65,0h0Z"/>
    </g>
    <path class="cls-6" d="M137.64,187.84c-4.13.53-7.77,3.25-9.27,7.18-.68,1.79-.29,3.37,1.63,4.03.86.3,1.74.28,2.64.35.55.04,1.26.11,1.73.42.85.55.58,1.43.63,2.28.11,2.08,1.76,3.62,3.6,4.35s4.84,1.54,6.73.68,1.87-3.16,2.44-4.94c.81-2.52,3.41-3.91,5.72-4.78,2.48-.94,5.17-1.57,7.28-3.25,1.95-1.55,3.18-3.81,2.81-6.33-.04-.26-.38-.51-.64-.49-2.48.24-4.95.48-7.43.72s-4.53.28-6.79-.53c-1.83-.65-3.41-.97-5.33-.56-2.08.44-4.02,1.42-6.19,1.2-.85-.08-.84,1.24,0,1.33,2.01.2,3.84-.53,5.75-1.05,1.07-.29,2.15-.5,3.26-.31,1.02.17,1.97.63,2.95.94,2.08.66,4.22.51,6.36.3,2.48-.23,4.95-.48,7.43-.72l-.64-.49c.75,5.03-5.67,6.63-9.16,7.95-3.23,1.21-6.14,3.14-6.89,6.7-.17.79-.24,1.73-.7,2.41-.83,1.23-2.48.88-3.71.67-2.03-.36-4.81-.97-5.43-3.29-.25-.92.11-1.87-.29-2.78-.26-.6-.76-1.02-1.34-1.29-1.41-.66-3.01-.22-4.43-.78-2.46-.96.41-4.64,1.54-5.75,1.55-1.54,3.58-2.56,5.75-2.84.84-.11.85-1.44,0-1.33h0Z"/>
    <path class="cls-6" d="M134.11,141.59c3.18,1.14,5.47,3.69,7.72,6.1,2.36,2.52,4.9,4.79,7.69,6.84s5.88,4.03,8.91,5.89c2.3,1.41,5.37,2.9,7.89,1.16.7-.48.04-1.63-.67-1.15-2.8,1.93-6.49-1.1-8.82-2.57-2.96-1.87-5.89-3.79-8.62-5.99-2.53-2.03-4.69-4.37-6.93-6.7-1.97-2.05-4.11-3.89-6.81-4.86-.8-.29-1.15.99-.35,1.28h0Z"/>
    <path class="cls-6" d="M121.48,87.44c6.73,4.12,14.23,6.69,22.05,7.68,1.11.14,1.5-1.2,1.15-2-3.13-7.08-6.26-14.16-9.39-21.24-.6-1.36-3.01-.37-2.43,1.02,2.57,6.17,6.66,11.57,11.94,15.67,2.61,2.03,5.45,3.71,8.5,5s5.99,2,8.97,3.04c3.25,1.13,6.49,2.67,8.3,5.74l.79-1.95c-4.18,1.03-8.35-.33-12.13-2.11s-7.52-3.99-11.38-5.8c-7.72-3.62-15.78-6.47-24.06-8.51-1.4-.34-2.42,1.74-1.02,2.43,20.89,10.25,42.13,20.64,64.99,25.7,6.45,1.43,12.99,2.4,19.58,2.84,1.71.11,1.7-2.54,0-2.65-23.02-1.54-44.81-10-65.53-19.65-5.94-2.77-11.82-5.64-17.7-8.53l-1.02,2.43c8.65,2.12,17.07,5.13,25.08,9.03,7.36,3.59,15.26,9.51,23.9,7.39.83-.21,1.22-1.23.79-1.95-3.22-5.45-9.72-6.87-15.32-8.69-6.27-2.03-11.83-5.64-16.18-10.6-2.47-2.82-4.51-6.06-5.96-9.53l-2.43,1.02c3.13,7.08,6.26,14.16,9.39,21.24l1.15-2c-7.34-.93-14.41-3.46-20.72-7.32-1.46-.89-2.8,1.4-1.34,2.29h0Z"/>
    <path class="cls-6" d="M29.21,103.08c3.61.35,6.62,2.58,9.87,3.97,3.46,1.47,7.18,2.12,10.84,2.85,7.98,1.58,15.97,3.17,23.95,4.75.83.17,1.19-1.11.35-1.28-8.15-1.62-16.29-3.23-24.44-4.85-3.88-.77-7.8-1.5-11.39-3.24-2.99-1.45-5.81-3.21-9.19-3.54-.85-.08-.84,1.24,0,1.33h0Z"/>
    <path class="cls-6" d="M73.47,109.26c-7.06-1.71-14.11-3.43-21.17-5.14-3.52-.86-7.04-1.72-10.56-2.56s-6.77-1.47-10.23-1.09c-.84.09-.85,1.42,0,1.33,3.6-.4,7.1.37,10.59,1.21s6.89,1.67,10.34,2.51l20.69,5.02c.83.2,1.18-1.08.35-1.28h0Z"/>
    <path class="cls-6" d="M21.13,70.27c2.22-1.9,5.42-.8,7.56.67,2.61,1.8,4.1,4.78,5.78,7.37s3.79,5.18,6.69,6.73,6.24,2.19,9.51,2.61c7.53.98,15.03,1.82,22.5,3.19,7.75,1.42,15.44,3.17,23.03,5.26,8.51,2.33,16.9,5.08,25.15,8.22,1.6.61,2.29-1.96.71-2.56-15.1-5.75-30.68-10.17-46.56-13.18-7.83-1.48-15.71-2.51-23.63-3.44-3.38-.39-6.92-.94-9.89-2.69s-4.69-4.65-6.47-7.46c-1.9-3-3.99-5.87-7.31-7.38-2.99-1.36-6.35-1.45-8.94.78-1.3,1.12.59,2.99,1.88,1.88h0Z"/>
    <path class="cls-6" d="M151.67,160.54c.45,4.2,3.87,6.77,7.68,7.92,2.17.66,4.45.99,6.68,1.41,1.26.24,2.51.48,3.77.72.95.18,1.96.47,2.94.26,2.04-.42,2.5-2.51,1.89-4.26-.51-1.47-1.49-2.69-2.74-3.61-2.71-2-6.28-2.51-9.55-2.79-1.56-.14-1.7,2.16-.35,2.61,10.98,3.66,21.61,8.27,31.78,13.78,1.5.81,2.84-1.48,1.34-2.29-10.37-5.61-21.23-10.31-32.42-14.05l-.35,2.61c2.33.2,4.81.54,6.92,1.62.95.49,1.84,1.14,2.42,2.06.22.34.73,1.18.57,1.59-.15.39-1.3,0-1.74-.09-3.33-.63-6.76-1.1-10.03-2.01-2.66-.74-5.83-2.39-6.16-5.48-.18-1.68-2.84-1.7-2.65,0h0Z"/>
    <path class="cls-6" d="M101.51,275.36c-1.23-5.88.49-12.23,4.5-16.7,1.14-1.27-.73-3.15-1.88-1.88-4.68,5.21-6.61,12.43-5.18,19.29.35,1.67,2.91.96,2.56-.71h0Z"/>
    <path class="cls-6" d="M99.19,277.28c.22-2.27.42-4.68-.38-6.87s-2.46-3.87-4.12-5.41-3.58-2.73-5.9-2.7-4.44,1.26-6.64.86c-.7-.13-1.43.19-1.63.93-.18.64.22,1.5.93,1.63,2.13.39,4.07-.26,6.14-.64s3.56.29,5.04,1.62c1.39,1.25,3.04,2.73,3.67,4.53.67,1.93.43,4.05.24,6.04-.07.71.66,1.33,1.33,1.33.78,0,1.26-.61,1.33-1.33h0Z"/>
    <path class="cls-6" d="M38.56,141.91c4.85,3.85,8.26,9.17,13.84,12.12,5.23,2.76,11.16,3.67,16.98,4.16,6.36.54,12.72.78,19.05,1.7,6.67.97,13.27,2.42,19.74,4.31,7.39,2.16,14.6,4.91,21.55,8.22,1.53.73,2.88-1.56,1.34-2.29-12.14-5.78-25.03-9.93-38.29-12.22-6.4-1.1-12.84-1.67-19.32-2.08-5.79-.37-11.71-.82-17.17-2.94-3.15-1.22-5.88-3.1-8.28-5.45-2.52-2.47-4.77-5.21-7.55-7.41-1.32-1.05-3.21.81-1.88,1.88h0Z"/>
    <path class="cls-6" d="M13.88,197.4c8-.63,15.21,3.43,22.34,6.44,1.79.76,3.6,1.47,5.45,2.07,1.6.51,3.25.94,4.78,1.62s2.93,1.58,3.76,3.04c.97,1.72,1.04,3.79,1.12,5.71.03.72.58,1.32,1.33,1.33,1.38.02,2.32-1.36,1.95-2.68-.42-1.5-2.05-1.65-3.21-2.31-2.33-1.32-3.62-4.03-5.27-6.04-.84-1.02-1.81-1.95-2.96-2.61-1.64-.94-3.52-1.22-5.34-1.64-3.54-.81-7-2.01-10.28-3.59-3.73-1.79-7.23-4.04-10.4-6.69-1.3-1.09-3.19.78-1.88,1.88,6.22,5.19,13.55,8.98,21.44,10.86,1.95.47,4.12.66,5.77,1.9,1.18.89,2.06,2.13,2.92,3.32s1.73,2.46,2.8,3.5c.52.5,1.09.97,1.71,1.34.36.22.75.4,1.14.55.21.09.42.16.63.23.47.31.79.09.96-.67l1.33,1.33c-.19-4.09-.95-7.91-4.65-10.22-3.27-2.05-7.37-2.71-10.92-4.15-7.9-3.19-15.71-7.85-24.54-7.16-1.69.13-1.71,2.79,0,2.65h0Z"/>
    <path class="cls-6" d="M137.46,55.68c4.98-.93,9.49,2.25,13.2,5.16,4.03,3.16,7.92,6.36,12.42,8.86,9.08,5.05,19.22,7.86,29.37,9.79,5.84,1.11,11.73,1.94,17.62,2.75,1.67.23,2.39-2.33.71-2.56-10.65-1.46-21.37-2.99-31.68-6.16-5.01-1.54-9.9-3.48-14.5-6.02s-8.55-5.83-12.69-9.04c-4.39-3.4-9.38-6.42-15.15-5.35-1.68.31-.97,2.87.71,2.56h0Z"/>
    <path class="cls-6" d="M18.56,309.71c2.49.3,4.44,2.01,6.1,3.75,1.87,1.96,3.5,4.15,5.53,5.96,2.28,2.03,4.89,3.26,7.92,3.69,3.48.49,7.02.08,10.51.57,6.98.99,11.39,7.16,16.6,11.26,5.52,4.33,11.68,7.69,18.12,10.43,7.35,3.13,14.98,5.53,22.61,7.88,1.64.5,2.34-2.06.71-2.56-13.56-4.17-27.56-8.49-39.01-17.2-5.25-3.99-9.58-9.98-16.13-11.9s-13.79.83-19.22-3.85c-4.44-3.83-7.35-9.92-13.74-10.69-1.69-.2-1.68,2.45,0,2.65h0Z"/>
    <path class="cls-6" d="M36.64,313.2c2.02-.65,3.75,1.11,5.01,2.48,1.55,1.68,2.99,3.43,4.64,5.01,3.3,3.15,7.02,5.86,11.02,8.04,1.5.82,2.84-1.47,1.34-2.29-4.35-2.37-8.33-5.36-11.78-8.91-2.8-2.88-6.14-8.43-10.94-6.89-1.62.52-.93,3.09.71,2.56h0Z"/>
    <path class="cls-6" d="M95.68,159.63l5.84-5.83c.37-.37.82-1,1.3-1.23.6-.28,1.38.02,1.98.13,1.3.24,2.61.44,3.93.62,5.43.73,10.91.9,16.38.52,1.69-.12,1.71-2.77,0-2.65-5.98.41-12.02.2-17.94-.76-1.27-.21-2.62-.63-3.91-.62-1.21.01-2.09.61-2.93,1.43-2.21,2.13-4.35,4.34-6.53,6.51-1.21,1.21.67,3.08,1.88,1.88h0Z"/>
    <path class="cls-6" d="M165.74,200.32l-.76.17c-.11-.63-1.19-.64-1.28,0-.18,1.27-.12,2.46.25,3.69.13.43.59.59.97.4,1.49-.76,3.26-1.61,4.88-.72,1.13.63,2.13,1.53,3.24,2.21,2.18,1.34,4.53,2.4,6.9,3.34,5.09,2.01,10.39,3.48,15.23,6.08.75.4,1.42-.74.67-1.15-5.18-2.78-10.89-4.3-16.31-6.52-2.77-1.13-5.43-2.49-7.85-4.26-1.06-.78-2.08-1.45-3.45-1.43s-2.75.67-3.99,1.3l.97.4c-.3-.99-.4-1.95-.25-2.98h-1.28c.47,2.71,4.55,1.33,3.19-1.19-.4-.75-1.55-.08-1.15.67h0Z"/>
    <path class="cls-6" d="M155.01,206.77c1.38-.21,3.74-.51,4.38,1.18.22.59.11,1.26.39,1.84.27.54.79.9,1.4.92.55.02,1.23-.39,1.75-.25.32.09.53.49.73.72.23.27.49.51.77.73,1.23.97,2.74,1.46,4.22,1.91.82.25,1.17-1.03.35-1.28-1.55-.47-3.22-.97-4.34-2.21-.47-.52-.82-1.05-1.56-1.17-.33-.05-.65,0-.97.06-.26.05-.7.26-.96.17-.49-.17-.37-1.35-.51-1.79-.21-.65-.66-1.19-1.22-1.58-1.42-.99-3.18-.78-4.79-.53-.84.13-.48,1.41.35,1.28h0Z"/>
    <path class="cls-6" d="M147.82,190.06c-2.41-.62-5.06-1.26-7.49-.42-1.04.36-1.94.96-2.87,1.53s-1.91,1.16-3.01,1.01c-.84-.11-1.2,1.17-.35,1.28,2.27.31,3.89-1.21,5.78-2.19,2.39-1.25,5.12-.57,7.59.06.83.21,1.18-1.07.35-1.28h0Z"/>
    <path class="cls-6" d="M191.04,26.13v307.77H24.96V26.13h166.08M193.04,24.13H22.96v311.77h170.08V24.13h0Z"/>
    <path class="cls-6" d="M109.26,31.84c-.48,3.99-.33,8.01.41,11.95.16.84,1.44.48,1.28-.35-.72-3.83-.83-7.74-.36-11.6.1-.85-1.23-.84-1.33,0h0Z"/>
    <path class="cls-6" d="M114.31,32.01c.86,0,1.84.68,2.49,1.2.94.74,1.33,1.86,1.77,2.94,1.05,2.57,2.47,4.94,4.24,7.08.54.66,1.48-.28.94-.94-.95-1.15-1.79-2.37-2.52-3.67s-1.29-2.71-1.89-4.09c-.49-1.13-1.13-1.97-2.13-2.68-.81-.57-1.86-1.18-2.88-1.17-.85,0-.86,1.33,0,1.33h0Z"/>
    <path class="cls-6" d="M116.94,42.94c.03-2.13,1.47-3.86,2.87-5.33s2.91-2.97,3.73-4.92c.14-.33-.15-.73-.46-.82-.38-.11-.68.13-.82.46-.84,1.98-2.57,3.4-3.97,4.96s-2.65,3.45-2.67,5.64c-.01.85,1.32.85,1.33,0h0Z"/>
    <path class="cls-6" d="M105.07,32.13c1.76-.14,3.53,0,5.29.02s3.58-.23,5.38-.07c2.24.19,4.44.57,6.66.9,2.08.31,4.13.45,6.17-.17.81-.25.47-1.53-.35-1.28-2.38.72-4.77.29-7.16-.11-1.86-.31-3.75-.56-5.64-.69-1.69-.12-3.37.12-5.06.1s-3.53-.17-5.29-.02c-.85.07-.85,1.4,0,1.33h0Z"/>
    <path class="cls-6" d="M104.87,46.77c3.49-1.65,7.27-2.51,11.12-2.53s7.76.54,11.65.02c.84-.11.48-1.39-.35-1.28-4.2.56-8.42-.24-12.63-.03-3.64.18-7.18,1.11-10.47,2.67-.77.37-.1,1.51.67,1.15h0Z"/>
    <path class="cls-11" d="M8.79,9.92v340.16h198.43V9.92H8.79ZM193.04,335.91H22.96V24.09h170.08v311.81Z"/>
    <path class="cls-11" d="M-19.56-18.43v396.85l255.12-1.37V-18.43H-19.56ZM193.04,335.91H22.96V24.09h170.08v311.81Z"/>
  </g>
</svg>