<?xml version="1.0" encoding="UTF-8"?>
<svg data-bbox="1.158 0.097 184.366 252.862" viewBox="0 0 197 252" height="252" width="197" xmlns="http://www.w3.org/2000/svg" data-type="ugc">
    <g>
        <path fill="#caba9f" d="M69.07 25.252c16.268-11.513 40.788-3.577 57.854 2.206A159.888 159.888 0 0 1 155.3 40.042c9.417 5.417 16.757 12.565 18.364 23.709l4.075-4.075c-9.783-1.641-16.3-9.262-23.654-15.215-8.306-6.72-17.823-11.815-27.116-17.014-17.8-9.96-37.4-20.235-58.189-13.783l1.762 6.389c17.764-6.172 37.022-3.747 53.994 3.8a128.012 128.012 0 0 1 22.39 13.087c3.778 2.707 7.429 5.58 11 8.558 1.247 1.042 10.342 7.558 10 8.982L172 52.167c-13.619-5.746-23.564-17.518-37.3-23.149-13.224-5.42-27.727-5.993-41.772-7.364-3.938-.384-7.873-.819-11.776-1.479-2.925-.5-6.21-1.8-9.173-1.62-5.552.335-6.076 6.4-3.979 10.417 2.673 5.113 7.932 7.973 13.031 10.169 7.3 3.142 14.714 6.035 22.07 9.043 16.867 6.9 33.688 14.693 52.052 16.353 4.245.383 4.219-6.245 0-6.626-17.653-1.595-34.093-9.49-50.296-16.111-8.067-3.3-16.632-6.1-24.343-10.17a20.2 20.2 0 0 1-4.476-2.985 44.22 44.22 0 0 0-3.28-3.419c-.062.257 10.889 1.981 11.664 2.086 15.519 2.084 31.725 1.726 46.564 7.322 14.53 5.48 24.961 17.9 39.248 23.922 1.616.682 3.7-.747 4.075-2.314 1-4.138-1.567-6.566-4.472-9.164-4.108-3.672-8.3-7.245-12.64-10.647a145.259 145.259 0 0 0-26.953-17.208c-19.077-9.092-41.144-12.616-61.46-5.559-3.986 1.385-2.351 7.666 1.762 6.389 21.251-6.6 41.623 6.551 59.447 16.721 8.772 5.005 17.041 10.2 24.655 16.867 6.3 5.521 12.822 11 21.334 12.424a3.373 3.373 0 0 0 4.075-4.075c-3.366-23.343-30.187-33.5-49.667-40.333-19.1-6.695-46.4-15.054-64.664-2.126-3.453 2.444-.146 8.192 3.344 5.721Z"/>
        <path fill="#a99d86" d="m155.821 64.38 16.133.2-.881-6.508c-16.03 4.951-30.289-6.3-42.431-15.226a98.059 98.059 0 0 0-19.425-11.619c-3.239-1.388-6.537-2.619-9.817-3.9-1.922-.752-3.845-1.506-5.729-2.349-.958-.429-7.48-2.789-2.94-2.168l.881-6.507c-5.448.484-14.5-.278-18.6 4.37-3.986 4.517-.6 10.248 3.481 13.227 4.975 3.63 11.365 4.148 17.29 4.756a126.643 126.643 0 0 1 26.564 5.685c4.095 1.341 5.711-4.936 1.762-6.389q-17.769-6.536-35.282-13.718c-1.434-.588-2.949.426-3.741 1.522a5.953 5.953 0 0 0-1.364 3.224l4.078-2.314-.912-1.39-3.313 3.313a115.491 115.491 0 0 1 67.265 19.734l2.553-6.055C134.3 36.335 116.739 28.3 98.7 26c-2.4-.307-4.261 3.079-2.861 4.985 2.014 2.74 4.326 3.881 7.517 4.927 4.857 1.594 9.826 2.906 14.727 4.356l29.456 8.711 1.761-6.389-47.51-10.663c-2.661-.6-5.4 2.315-3.741 4.866 4.461 6.871 14.455 9.076 21.739 11.633a279.988 279.988 0 0 0 30.012 8.639c4.192.964 5.756-4.967 1.762-6.389l-36.522-13-1.761 6.389a303.931 303.931 0 0 1 44.166 9.666l.881-6.507a11.711 11.711 0 0 0-6.752 1.819 3.345 3.345 0 0 0-.671 5.2 54.87 54.87 0 0 0 8.927 6.6l2.553-6.055c-13.974-4.851-25.119-14.773-36.622-23.7-8.176-6.342-22.385-19.531-33.475-13.381-1.739.963-2.31 3.838-.671 5.2 9.566 7.962 21.118 12.681 31.985 18.539a350.213 350.213 0 0 1 34.019 20.992c3.506 2.443 6.822-3.3 3.344-5.721A352.059 352.059 0 0 0 128.54 36.6c-10.783-5.89-22.723-10.446-32.24-18.368l-.67 5.2c5.392-2.99 13.717 3.93 17.974 6.859 5.548 3.817 10.762 8.087 16.05 12.25 9.567 7.534 19.361 14.607 30.967 18.636 3.609 1.252 5.72-4.18 2.553-6.055a46.223 46.223 0 0 1-7.586-5.568l-.67 5.2a4.162 4.162 0 0 1 3.408-.914c3.795.092 4.418-5.453.881-6.508a303.945 303.945 0 0 0-44.167-9.666c-4.154-.59-5.871 4.926-1.761 6.389l36.521 13 1.762-6.389c-8.364-1.924-16.639-4.185-24.793-6.864q-6.113-2.007-12.125-4.3c-3.687-1.408-8.608-2.566-10.876-6.059l-3.741 4.867 47.51 10.663c4.149.932 5.869-5.174 1.761-6.389l-23.932-7.078-11.046-3.266c-3.272-.968-10.681-1.774-12.762-4.606L98.7 32.626c8.727 1.113 17.021 4.258 25.286 7.127l25.65 8.9c3.716 1.29 5.52-4.058 2.552-6.055a121.689 121.689 0 0 0-70.616-20.634 3.371 3.371 0 0 0-3.313 3.312 7.545 7.545 0 0 0 5.777 7.779 3.335 3.335 0 0 0 4.075-2.314l.7-1.641-3.741 1.523q17.512 7.182 35.278 13.714l1.762-6.389a142.371 142.371 0 0 0-29.723-6.062c-3.649-.382-10-.706-12.577-3.755-2.132-2.528-.436-3.959 2.239-4.357 3.143-.468 6.4-.568 9.567-.85 3.4-.3 4.858-5.963.881-6.507-3.78-.517-8.219-.29-10.024 3.73-1.43 3.185-.118 6.073 2.621 7.92 9.335 6.292 21.258 8.116 30.9 14.072C133.3 52.833 150.4 71.389 172.835 64.46c3.54-1.093 2.923-6.46-.881-6.507l-16.133-.2c-4.265-.052-4.268 6.573 0 6.626Z"/>
        <path fill="#1d70b7" d="m56.311 120.757 11.633-30.78c1.822-4.823 3.529-9.711 5.474-14.485 1.675-4.112 3.964-8.077 4.613-12.528a12.348 12.348 0 0 0-1.688-8.6c-1.943-3.117-6.96-6.844-1.157-9.289 3.519-1.483 8.711-.5 12.374-.251 5.974.408 11.94 1 17.87 1.84 17.94 2.535 44.521 5.729 53.035 24.572 1.042 2.306 2.653 6.463.777 8.761-1.18 1.444-3.554 1.633-5.265 1.7-4.485.182-9.116-1.349-13.41-2.45a223.209 223.209 0 0 1-29.227-9.671q-4.215-1.726-8.349-3.641c-1.773-.819-5.675-2.012-6.9-3.754-5-7.088 11.279-7.409 14.529-7.226 5.961.337 12.168 2.064 16.512 6.385a17.352 17.352 0 0 1 2.323 2.777c.621.955 1.259 3.122 1.763 2.767-1.618 1.139-6.126-4.271-6.685-5.138-2.3-3.571-8.042-.253-5.722 3.344 2.8 4.346 7.487 8.271 12.895 8.6 4.513.275 6.915-3.343 5.888-7.6-3.089-12.782-18.069-17.87-29.681-17.836-5.923.017-12.9.618-16.88 5.578A9.63 9.63 0 0 0 91 66.4c4.034 4.549 11.445 6.6 16.9 8.875a226.038 226.038 0 0 0 21.3 7.677c6.777 2.062 13.841 4.271 20.9 5.128 4.535.551 9.9.308 13.412-3.025 9.158-8.7-2.282-23.844-9.5-29.594-11.5-9.158-27.1-11.981-41.231-14.324q-11.133-1.846-22.4-2.729c-5.872-.462-12.907-1.647-18.492.873-4.49 2.026-7.506 6.976-5.8 11.864.929 2.669 3.186 4.2 4.537 6.564 2.108 3.688-.034 7.841-1.585 11.366C61.879 85.339 56.205 102.372 49.922 119c-1.509 3.993 4.894 5.719 6.389 1.761Z"/>
        <path fill="#1d70b7" d="m157.89 85.048-30.979 81.974c-1.509 3.993 4.893 5.719 6.389 1.761l30.979-81.974c1.509-3.993-4.893-5.719-6.389-1.761Z"/>
        <path fill="#1d70b7" d="M130.621 164.909c-16.574-3.2-33.952-6.5-47.835-16.745a50.047 50.047 0 0 1-14.509-17.358c-3.133-5.876-7.351-11.441-14.706-11.084a3.36 3.36 0 0 0-3.313 3.313c.668 17.011 12.344 31.238 27.22 38.632 18.818 9.354 40.619 7.555 60.764 4.771 4.205-.582 2.415-6.967-1.762-6.389-17.8 2.46-37.526 4.245-54.358-3.479-13.314-6.11-24.642-18.334-25.238-33.535l-3.313 3.312c7.364-.357 10.555 11.56 14.323 16.454a58.158 58.158 0 0 0 15.359 13.661c13.741 8.6 29.92 11.8 45.607 14.836 4.166.805 5.95-5.58 1.761-6.389Z"/>
        <path fill="#0c3776" d="M128.663 62.707a72.428 72.428 0 0 0-22.205-7.826l.791 6.055c6.625-3.043 14.752 1.058 16.737 7.9 1.187 4.089 7.485 2.374 6.389-1.761C127.387 55.793 114.6 48.3 103.3 52.088c-6.166 2.066-6.844 7.58-3.108 12.531 4.174 5.531 11.8 7.389 18.062 9.368q13.377 4.226 27.045 7.448c6.276 1.479 13.424 2.371 15.549-5.417 1.8-6.608-3.4-12.588-7.781-16.829a62.372 62.372 0 0 0-18.956-12.323c-18.595-7.952-39.14-7.543-58.92-5.977-4.222.334-4.258 6.963 0 6.626 15.53-1.23 31.474-1.955 46.674 2.11a66.137 66.137 0 0 1 18.625 8.035c4.667 2.985 12.69 8.56 13.935 14.421 1.234 5.807-8.068 2.81-11 2.089q-5.449-1.342-10.857-2.846c-6.848-1.9-13.951-3.7-20.537-6.4-1.273-.522-8.967-4.166-7.642-6.351.77-1.271 6.173-.831 7.324-.644a15.11 15.11 0 0 1 12.272 10.909l6.389-1.761c-3.26-11.237-15.981-16.676-26.47-11.859-2.511 1.154-1.937 5.574.792 6.056a66.918 66.918 0 0 1 20.622 7.158c3.746 2.04 7.094-3.679 3.344-5.721Z"/>
        <path fill="#0c3776" d="M64.534 53.646C59.259 67.02 53.98 80.408 49.622 94.116c-2.077 6.535-4 13.153-5.493 19.848-.861 3.859-1.586 9.024 2.842 10.95a3.394 3.394 0 0 0 4.866-1.979l18.381-45.427c2.745-6.784 7.055-14.257 8.228-21.5.82-5.064-1.31-9.417-6.091-11.321a3.3 3.3 0 0 0-3.742 1.523c-9.77 22.916-19.526 45.978-24.313 70.54a3.316 3.316 0 0 0 6.389 1.761C59.253 96.226 68.1 74 80.63 53.584c1.918-3.124-2.82-7.011-5.2-4.015a271.622 271.622 0 0 0-38.349 65.047c-1.634 3.933 4.774 5.649 6.389 1.761a260.513 260.513 0 0 1 36.642-62.123l-5.2-4.014C62.087 71.129 53.064 93.944 44.3 116.75l6.389 1.761c4.677-24 14.1-46.563 23.645-68.954l-3.741 1.522c4.76 1.895-9.481 31.383-11.175 35.57l-13.97 34.524 4.867-1.98c-2.429-1.056 7.289-28.235 8.351-31.319 3.767-10.94 8.012-21.706 12.257-32.467 1.564-3.968-4.84-5.689-6.389-1.761Z"/>
        <path fill="#0c3776" d="M38.462 124.754c7.335 14 20.734 22.731 35.121 28.33a170.686 170.686 0 0 0 25.372 7.631c7.927 1.728 15.661 2.038 23.143-1.444l-4.984-2.86-.488 5.2c-.4 4.244 6.23 4.216 6.626 0l.487-5.2c.257-2.738-2.945-3.81-4.985-2.861-7.1 3.306-14.969 1.646-22.225-.239a188.475 188.475 0 0 1-21.185-6.611c-12.8-5-24.646-12.849-31.161-25.286-1.979-3.778-7.7-.433-5.721 3.345Z"/>
        <path fill="#0c3776" d="M77.482 51.787c11.5 5.113 23.65 4.612 35.93 3.582 3.138-.263 4.681-4.412 1.672-6.173-10.146-5.937-20.265.71-30.868.449l3.313 3.313.488.41-1.641-2.861c.007-.915-3.212 1.944-3.539 2.234a52.263 52.263 0 0 0-5.167 5.292 59.337 59.337 0 0 0-7.325 10.927l6.055 2.553a32.476 32.476 0 0 1 3.884-11.891c.457-.79 2.2-4.068 3.084-4.348 1.311-.413 4.638 1.581 5.875 2.052l-.791-6.055c-2.866 1.774-6.75-.238-9.768 1.808-2.384 1.617-3.566 4.9-1.626 7.347 4.084 5.162 14.658-.345 17.077-4.764a3.393 3.393 0 0 0-.518-4.014c-2.285-2.27-5.627-2.649-8.724-2.517-4.248.181-4.27 6.807 0 6.626 1-.043 3.2-.254 4.039.576l-.518-4.015c-.631 1.153-6.3 3.231-5.889 4.333l-.334 2.549c.63-1.47 3.83-.652 5.179-.773a9.442 9.442 0 0 0 4.43-1.435c2.577-1.595 1.822-5.06-.791-6.055-5.195-1.978-9.228-3.949-13.338.844a35.515 35.515 0 0 0-7.656 17.97c-.488 3.4 4.152 6.189 6.055 2.553a51.586 51.586 0 0 1 9.65-13.193c2.634-2.568 7.25-4.5 7.282-8.6a3.267 3.267 0 0 0-1.641-2.86c-4.582-2.224-10.426-.315-10.457 5.311a3.368 3.368 0 0 0 3.312 3.313c8.841.217 19.287-6.174 27.524-1.354l1.672-6.173c-10.883.913-22.334 1.882-32.586-2.678-3.862-1.718-7.237 3.989-3.344 5.721Z"/>
        <path fill="#0c3776" d="M114.1 50.724a103.22 103.22 0 0 1 23.882 11.042c1.511.955 9.994 6.2 8.675 7.7-2.45 2.8-7.046-9.681-7.544-11l-6.389 1.761a47.572 47.572 0 0 1 2.584 10.57c.28 1.843.386 3.038 1.72 4.469a3.294 3.294 0 0 0 3.223.852l.466-.138a3.354 3.354 0 0 0 1.461-5.537 2.115 2.115 0 0 1 1.107-2.174l-4.014.518a27.747 27.747 0 0 1 8.458 8.35c1.111 1.689 3.7 2.335 5.2.67a5.427 5.427 0 0 1 3.394-2.261 3.343 3.343 0 0 0 0-6.389 13.812 13.812 0 0 0-12.623 1.557c-3.55 2.331-.234 8.071 3.344 5.721a7.687 7.687 0 0 1 7.518-.889v-6.392a13.236 13.236 0 0 0-6.318 3.965l5.2.67a35.893 35.893 0 0 0-10.835-10.726 3.332 3.332 0 0 0-4.015.518c-3.066 3.652-4.568 7.611-1.107 11.544l1.462-5.537-.465.138 3.223.852c-.156-.168-.368-4.583-.484-5.169a40.9 40.9 0 0 0-2.116-6.946c-1.526-3.917-7.9-2.256-6.389 1.761 2.333 6.2 4.511 13.881 11.743 15.914 4.963 1.395 11-1.542 9.642-7.329-1.538-6.54-9.763-11.006-15.029-14.147a111.088 111.088 0 0 0-23.219-10.327c-4.072-1.3-5.815 5.1-1.761 6.389Z"/>
        <path fill="#0c3776" d="m106.673 64.532 13.241 5.209.88-6.508c-3.789.405-7.167-1.233-10.641-2.555-2.56-.974-7.8-1.933-9.78-3.87l.971 2.342-.026-.895-1.641 2.861.651-.475-4.528-4.532c-1.422 3.322-1.149 6.288 1.418 8.968 2.955 3.086 7.636-1.6 4.685-4.685l-.382-.939c1.128-2.634-1.506-6.738-4.532-4.533-4.468 3.256-1.617 7.112 2.459 8.741 6.446 2.578 14.258 6.956 21.351 6.2a3.33 3.33 0 0 0 .881-6.507l-13.24-5.209c-3.97-1.562-5.691 4.843-1.762 6.389Z"/>
        <path fill="#0c3776" d="M81.029 54.254a22.445 22.445 0 0 1 15.482-3.435l1.761-6.389c-17.64-2.62-24.64 15-28.341 28.892a282.676 282.676 0 0 1-8.689 27.178q-2.785 7.37-6.006 14.563-1.512 3.369-3.114 6.695c-.734 1.525-1.6 4.711-3.125 5.6l2.552-.334c-1.865-.539-3.136-6.095-4.125-7.66a10.775 10.775 0 0 0-5.628-4.538c-2.945-1.142-4.872 2.541-3.741 4.866a34.984 34.984 0 0 0 10.067 12.47c1.542 1.2 4.162 1.444 5.2-.671a487.6 487.6 0 0 0 26.694-66.02c1.324-4.118-4.905-5.681-6.389-1.761q-8.445 22.305-15.9 44.961c-1.336 4.06 5.06 5.8 6.389 1.762q7.455-22.656 15.9-44.962l-6.389-1.761A475.785 475.785 0 0 1 47.6 128.144l5.2-.67a30.935 30.935 0 0 1-9.031-11.129l-3.741 4.867c4.424 1.714 5.56 17.214 13.42 11.216 3.4-2.594 5.012-8.561 6.74-12.342q3.438-7.525 6.443-15.243a297.571 297.571 0 0 0 10.125-31.409c2.45-9.187 7.265-24.47 19.755-22.615 4.171.62 5.971-5.763 1.761-6.389a29.361 29.361 0 0 0-20.587 4.1c-3.606 2.258-.284 7.993 3.344 5.721Z"/>
        <path fill="#1d70b7" d="M62.984 46.368a809.361 809.361 0 0 0-28.11 77.5c-1.251 4.087 5.143 5.834 6.389 1.762a809.281 809.281 0 0 1 28.11-77.5c1.654-3.923-4.755-5.637-6.389-1.761Z"/>
        <path fill="#1d70b7" d="M59.141 133.407Q66.134 115.02 73.553 96.8q3.723-9.131 7.559-18.216 1.971-4.665 3.972-9.316c.227-.527 3.554-6.675 3.194-7.3 2.136 3.688 7.864.356 5.721-3.344-2.5-4.321-7.863-3.92-10.848-.354-2.378 2.841-3.481 6.926-4.924 10.3Q75.6 74.7 73.029 80.846q-10.568 25.227-20.277 50.8c-1.517 3.989 4.886 5.714 6.389 1.761Z"/>
        <path fill="#1d70b7" d="M86.036 68.824c16.437 20.394 47.307 21.153 71.088 24.738v-6.389c-12.457 5.127-15.624 20.294-19.846 31.717L119.2 167.766l4.075-2.314c-11.617-4.024-23.106-8.412-34.407-13.257q-8.671-3.718-17.2-7.76c-5.013-2.378-10.317-4.668-11.138-10.818-1.464-10.953 8.009-20.916 13.459-29.462a117.606 117.606 0 0 0 13.44-29.774l-4.867 1.98A177.457 177.457 0 0 0 144.8 94.2c3.2.311 4.621-4.843 1.673-6.174a332.187 332.187 0 0 0-50.954-18.209c-3.532-.943-5.983 4.311-2.553 6.055a70.332 70.332 0 0 1 25.553 21.777l4.533-4.533a389.228 389.228 0 0 1-39.838-26.939c-2.156-1.661-4.847.654-4.985 2.86a354.041 354.041 0 0 1-8.691 58.842c-.972 4.142 5.305 5.9 6.389 1.762 6.409-24.473 12.994-49.146 25.945-71.109l-6.055-2.553a283.75 283.75 0 0 1-30.938 68.47l5.721 3.344a120.168 120.168 0 0 1 18.2-29.087l-5.2-4.015-26.069 40.317 5.721 3.344 7.029-15.059c1.792-3.84-3.918-7.208-5.721-3.344l-7.029 15.059c-1.786 3.827 3.373 6.976 5.721 3.344l26.067-40.316c2.013-3.114-2.745-6.908-5.2-4.015a125.971 125.971 0 0 0-19.237 30.428c-1.7 3.82 3.417 7.048 5.721 3.344a290.562 290.562 0 0 0 31.603-70.053c1.088-3.623-4.157-5.771-6.055-2.553-13.238 22.45-20.061 47.675-26.613 72.692l6.389 1.762a364.941 364.941 0 0 0 8.928-60.6L79.87 71.9a389.066 389.066 0 0 0 39.838 26.939c2.7 1.591 6.531-1.744 4.532-4.533a77.286 77.286 0 0 0-27.93-24.155l-2.552 6.055a321.653 321.653 0 0 1 49.372 17.543l1.672-6.173A168.494 168.494 0 0 1 85.911 70.64a3.364 3.364 0 0 0-4.867 1.98C77.3 85.216 71.364 96.357 64 107.177c-5.99 8.8-13.269 20.275-9.056 31.344 1.771 4.654 5.4 7.62 9.72 9.857 5.942 3.075 12.135 5.743 18.265 8.414q19 8.277 38.588 15.049c1.794.621 3.487-.725 4.075-2.314l15.347-41.5c2.469-6.676 4.89-13.373 7.411-20.03 2.076-5.482 4.71-12.039 10.536-14.437 2.591-1.067 3.654-5.838 0-6.389-22.466-3.387-52.637-3.767-68.165-23.034-2.676-3.32-7.338 1.394-4.685 4.685Z"/>
        <path fill="#1d70b7" d="m86.052 73.611-16.859 44.851 6.389 1.761a242.046 242.046 0 0 1 8.293-24.333c2.764-6.848 5.594-16.2 12.351-20.149l-4.985-2.861a196.847 196.847 0 0 1-15.766 58.011l6.173 1.672a115.008 115.008 0 0 1 3.583-46.814c1.214-4.192-4.851-5.627-6.389-1.762-6.519 16.391-12.991 32.806-18.1 49.7a3.347 3.347 0 0 0 4.866 3.742c13.154-8.164 24.6-19.5 32.106-33.127 2.618-4.757 2.979-10.957-3.905-11.657-6.753-.687-11.966 5.361-14.99 10.6-3.425 5.93-8.2 14.92-7.7 21.961.5 7.083 6.721 6.548 11.641 4.151a73.363 73.363 0 0 0 32.172-31.273c.957-1.781.191-4.4-1.979-4.867-6.225-1.332-11.653 1.733-17.264 4.09l-20.325 8.541 3.741 4.866a75.159 75.159 0 0 1 10.9-16.958l-3.224.852a45.229 45.229 0 0 0 23.557 1.592c3.185-.6 3.137-5.751 0-6.389a40.337 40.337 0 0 0-35.6 9.771c-2.9 2.638.787 6.838 4.015 5.2 7.347-3.721 16.538-7.256 22.816-12.662 4.183-3.6 5.518-8.94 1.777-13.362a3.323 3.323 0 0 0-4.015-.518c-3.656 2.455-9.586 6.476-9.8 11.4-.2 4.588 4.319 6.859 8.136 7.718 13.927 3.135 29.122 2.3 43.07-.133l-1.762-6.389a414.081 414.081 0 0 0-71.7 29.112c-3.844 2-.47 7.436 3.344 5.722l33.139-14.9c5.373-2.416 10.754-4.817 16.121-7.248 4.1-1.86 7.708-3.779 10.076-7.748.836-1.4.45-3.824-1.188-4.533-9.932-4.3-21.659 1.762-30.852 5.756a154.129 154.129 0 0 0-31.256 18.31c-2.968 2.234-1.293 6.793 2.553 6.055q26.917-5.164 53.33-12.524c4.182-1.166 2.369-7.09-1.761-6.389a204.849 204.849 0 0 0-61.361 20.864l3.344 5.721a339.973 339.973 0 0 1 68.463-31.092l-2.553-6.055L75.1 131.476a3.316 3.316 0 0 0 3.344 5.722l61.075-27.464-3.344-5.721c-12.87 8.456-25.13 17.787-37.926 26.348a135.813 135.813 0 0 1-15.9 9.492c-3.881 1.889-8.721 4.1-13.173 3.437l.791 6.055c25.738-18.76 53.807-33.425 80.932-49.983 3.056-1.866 1.031-7.567-2.553-6.055a541.3 541.3 0 0 0-84.731 44.858c-3.554 2.31-.34 7.933 3.344 5.721q17.243-10.353 35-19.809 8.457-4.493 17.029-8.764 4.713-2.351 9.46-4.633c2.951-1.42 7.424-4.644 10.74-3.33l-1.462-5.537L74.618 152.2c-2.921 2.331.919 7.328 4.014 5.2a277.9 277.9 0 0 1 36.919-21.383l-4.015-5.2q-15.288 12.803-31.628 24.235l4.015 5.2a327.056 327.056 0 0 1 51.494-42.931l-4.015-5.2q-20.595 18.354-39.3 38.65a3.315 3.315 0 0 0 4.685 4.685 170.362 170.362 0 0 1 36-25.267l-4.014-5.2-27.693 23.755 4.685 4.685a222.863 222.863 0 0 1 26.649-20.173l-4.532-4.533Q117 142.918 105.03 156.212l4.685 4.685a90.286 90.286 0 0 1 16.951-16.727l-4.866-3.742a57.114 57.114 0 0 1-9.41 15.9c-2.706 3.243 1.9 7.944 4.685 4.685 12.083-14.15 10.285-34.177 20.7-49.1l-6.055-2.553q-7.04 23.825-15.291 47.26c-1.419 4.029 4.98 5.763 6.389 1.761q8.25-23.433 15.291-47.26c1.116-3.776-3.991-5.511-6.055-2.553-10.051 14.4-8.188 34.321-19.665 47.762l4.685 4.685a66.9 66.9 0 0 0 11.114-18.827c1.009-2.586-2.607-5.434-4.867-3.741a96.156 96.156 0 0 0-18.292 17.763c-2.557 3.265 1.771 7.932 4.685 4.685q12.516-13.944 23.884-28.833c2.053-2.68-1.89-6.239-4.533-4.533a234.439 234.439 0 0 0-27.99 21.21c-3.214 2.837 1.472 7.442 4.685 4.685l27.693-23.755c2.961-2.541-.814-6.886-4.015-5.2a177.14 177.14 0 0 0-37.337 26.3l4.685 4.685q18.694-20.286 39.3-38.65c2.782-2.479-.878-7.312-4.014-5.2a335.518 335.518 0 0 0-52.834 43.966c-2.537 2.6.835 7.429 4.014 5.2q17.03-11.919 32.969-25.275c3.056-2.559-.835-6.732-4.014-5.2a277.9 277.9 0 0 0-36.919 21.383l4.015 5.2L142.41 106.5c2.163-1.727.574-4.731-1.462-5.537-5.668-2.245-11.75 2.02-16.708 4.413q-10.349 5-20.541 10.307-20.385 10.617-40.083 22.482l3.344 5.721A532.076 532.076 0 0 1 150.108 99.7l-2.552-6.055c-27.125 16.558-55.194 31.223-80.932 49.983-1.993 1.452-2.338 5.586.791 6.055 10.844 1.626 21.611-5.465 30.292-11.043 14.257-9.16 27.652-19.6 41.815-28.9 3.624-2.381.5-7.449-3.344-5.721L75.1 131.476l3.344 5.722 53.565-39.586c2.79-2.061 1.311-7.315-2.552-6.055a348.03 348.03 0 0 0-70.046 31.76c-3.677 2.188-.423 7.709 3.344 5.721a199.266 199.266 0 0 1 59.778-20.2l-1.761-6.389q-26.4 7.356-53.33 12.524L70 121.032a154.673 154.673 0 0 1 24.974-15.412 141.916 141.916 0 0 1 13.514-5.775c4.87-1.788 11.762-5.115 16.929-2.879l-1.189-4.532c-2.4 4.015-8.136 5.567-12.177 7.384l-15.226 6.846-29.556 13.288 3.344 5.722a404.513 404.513 0 0 1 70.122-28.445c4.148-1.247 2.382-7.112-1.762-6.389a117.133 117.133 0 0 1-26.373 1.613 73.593 73.593 0 0 1-13.176-1.48c-2.115-.511-3.245-.627-1.77-2.857 1.125-1.7 3.374-3.049 5.021-4.155l-4.015-.518c2.846 3.363-20.888 14.421-23.251 15.618l4.014 5.2a33.316 33.316 0 0 1 29.153-8.061v-6.392a38.461 38.461 0 0 1-20.033-1.588 3.232 3.232 0 0 0-3.223.852 81.516 81.516 0 0 0-11.936 18.3c-1.065 2.254.791 6.106 3.741 4.867l16.791-7.055c4.741-1.992 11.974-6.711 17.275-5.576l-1.98-4.867a67.635 67.635 0 0 1-18.641 22.072c-3.154 2.387-7.908 6.409-11.847 7.162q-1.39 1.476-.936 0a6 6 0 0 1 .325-1.559c.337-1.463.833-2.931 1.311-4.35a66.568 66.568 0 0 1 3.507-8.429c.941-1.886 6.443-12.353 9.587-10.2.928.636-6.437 10.641-7.384 11.859a86.869 86.869 0 0 1-22.865 20.42l4.867 3.741c5.1-16.9 11.577-33.313 18.1-49.7l-6.389-1.762a119.757 119.757 0 0 0-3.82 48.576c.357 2.8 4.66 5.072 6.174 1.672A207.192 207.192 0 0 0 97.866 72.88c.291-2.579-3-4.019-4.984-2.86-7.325 4.281-10.445 12.331-13.608 19.8a246.193 246.193 0 0 0-10.081 28.647c-1.188 4.17 4.914 5.685 6.389 1.761l16.859-44.856c1.5-4-4.9-5.722-6.389-1.761Z"/>
        <path fill="#1d70b7" d="M149.527 97.08c-4.385 10.256-8.335 20.677-11.692 31.316q-2.52 7.991-4.623 16.1c-1.346 5.2-2.226 10.892-5.794 15.116l5.655 2.343c-2.389-24.055 8.138-46 18.544-66.969a3.343 3.343 0 0 0-4.533-4.533L120.207 103.1l4.867 1.98c-1-2.42-4.915 4.242-5.344 4.992-.884 1.547-1.783 3.086-2.682 4.625-1.8 3.081-3.618 6.152-5.385 9.251a166.09 166.09 0 0 0-9.178 18.186c-1.419 3.4-5.931 10.994-2.733 14.491 3.778 4.133 10.576-2.052 13.506-4.209 3.4-2.5.1-8.254-3.344-5.721-2.3 1.695-4.943 3.89-7.693 4.82l2.553.333q.444 3.914 1.037.343.393-1.269.838-2.521 1.166-3.354 2.593-6.606c1.427-3.245 3.022-6.416 4.69-9.544 3.775-7.078 7.993-13.907 11.96-20.877 2.089-3.67 5.36-10.484-.558-12.8-4.257-1.666-8.309 2.962-6.649 7a3.388 3.388 0 0 0 4.866 1.98l26.877-12.648-4.528-4.529c-10.891 21.947-21.948 45.132-19.448 70.313.254 2.551 3.618 4.755 5.656 2.343 6.625-7.844 7.653-19.246 10.487-28.8a322.29 322.29 0 0 1 12.658-35.074c1.658-3.877-4.048-7.257-5.721-3.344Z"/>
        <path fill="#ececec" d="M58.955 33.538c-7.428 24.1-19.569 46.213-30.654 68.748-5.276 10.726-12.02 22.5-10.553 34.89 1.2 10.145 7.981 18.5 15.633 24.793 16.393 13.481 37.048 21.259 58.147 22.86a101.351 101.351 0 0 0 31.833-2.6c4.43-1.094 8.336-2.607 10.778-6.706 3.078-5.166 5.044-11.278 7.379-16.815q17.313-41.065 31.062-83.5a3.9 3.9 0 0 0-3.726-4.892 443.44 443.44 0 0 1-63.808-6.016c-16.186-2.742-41.734-7.385-42.692-28.286l-5.815 3.338 43.247 33 3.9-6.674a206.737 206.737 0 0 1-34.153-28.83l-3.761 6.46c16.317 6.571 29.8 18.279 45.339 26.315a120.958 120.958 0 0 0 51.139 13.284l-3.727-4.892-22.653 59.337c-3.664 9.6-7.216 19.246-11.038 28.781-.99 2.471-2.011 4.929-3.115 7.352-.633 1.389-1.723 5.248-2.987 6.064-1.572 1.014-5.233-.226-7.008-.5q-4.242-.641-8.476-1.342c-19.714-3.259-39.6-7.112-58.814-12.669-3.364-.973-7.055-2.14-9.735-4.5-4.283-3.769-3.256-9.03-2.3-14.067q2.854-15.068 5.761-30.125C41.4 99.4 42.8 75.474 58.9 65.168l-5.816-3.337c.453 3.852-1.475 8.05-2.7 11.648a261.14 261.14 0 0 1-3.684 10.07c-3.008 7.76-6.326 15.393-9.58 23.052-6.066 14.28-11.9 28.663-15.421 43.816-1.13 4.864 5.886 6.77 7.454 2.054q11.241-33.82 20.708-68.189c1.193-4.331-4.7-6.585-7.064-2.978a159.785 159.785 0 0 0-23.9 60.712c-.686 4.017 4.884 7.153 7.064 2.978C42.722 112.892 57.879 80 73 47.1l-7.064-2.978a139.183 139.183 0 0 1-16.56 44.069l7.2 1.95a90 90 0 0 1 16.678-41.65c.58-.789 5.394-6.564.668-2.964-1.063.811-1.9 3.044-2.636 4.132a93.325 93.325 0 0 1-6.835 8.941 100.212 100.212 0 0 1-16.663 15.343l5.288 5.288 15.731-23.51a3.888 3.888 0 0 0-2.31-5.677c-6.856-1.308-10.745 7.283-5.555 11.885 2.931 2.6 7.2 2.691 10.893 2.964a172.51 172.51 0 0 0 18.006.336l-1.951-7.2q-20.622 12.422-42.1 23.3L49.691 88a130.031 130.031 0 0 1 36.067-17.975L82 63.566A103.118 103.118 0 0 1 50.222 83.3l4.754 4.755a49.254 49.254 0 0 1 13.156-19.989h-5.466c6.308 5.8 17.064 10.056 21.4-.321 1.351-3.235-3.019-5.949-5.678-4.365a276.942 276.942 0 0 0-51.608 39.639c-3.148 3.069.886 8.288 4.684 6.071a698.1 698.1 0 0 1 80.826-40.482l-2.978-7.064q-32.265 18.426-63.476 38.6c-4.156 2.686-.406 9.236 3.9 6.675a205.8 205.8 0 0 1 41.189-18.751L87.947 81Q57.48 99.5 28.669 120.524c-3.946 2.879-.273 9.5 3.9 6.674Q55.326 111.781 79 97.777q11.429-6.744 23.058-13.136 5.816-3.2 11.678-6.3 3.35-1.776 6.716-3.521 1.683-.872 3.369-1.738 3.242-.816.709-1.256l.783-6.07q-46.689 30.823-90.249 66.016c-3.457 2.791.987 8.276 4.683 6.07q46.439-27.7 94.632-52.278c4.485-2.287.553-8.709-3.9-6.675a981.132 981.132 0 0 0-97.65 51.421l3.9 6.675a671.057 671.057 0 0 1 105.333-56.247l-3.9-6.675-114.27 60.386 3.9 6.674a1115.036 1115.036 0 0 1 100.744-59.542l-4.683-6.07C109.511 87.542 91.63 95.67 75.371 104.765l-51.256 28.672c-3.723 2.083-1.208 8.63 2.979 7.064l94.428-35.315-2.978-7.064-67.1 39.437 3.9 6.675a773.615 773.615 0 0 1 75.9-43.348l-3.9-6.674Q104.173 107.1 81.769 121.3q-11.189 7.107-22.164 14.545c-6.459 4.377-14.512 12.363-22.582 12.977l2.733 1.132c.979 1.095-.088.52 1.228-.337 1.392-.906 2.721-2.183 4.055-3.2L52.1 141l13.341-10.219L93.7 109.142c8.848-6.777 17.535-13.865 26.657-20.269 8.535-5.992 18.557-11.781 29.305-8.966l-1.705-6.46a77.17 77.17 0 0 1-24.581 15.333l3.761 6.46a24.821 24.821 0 0 1 16.05-5.794l-2.733-6.6-29.962 23.234c-3.43 2.66 1.179 8.723 4.684 6.071A149.743 149.743 0 0 1 148.917 92.8l-2.978-7.065a202.386 202.386 0 0 0-26.437 24.3l6.07 4.684a100.029 100.029 0 0 1 15.44-16.068l-6.6-2.733a35.191 35.191 0 0 1-2.481 11.1c-1.67 4.286 4.758 6.41 7.064 2.978q9.7-14.43 18.4-29.476l-7.064-2.978-18.174 57.365c-1.507 4.758 5.925 6.772 7.454 2.055l11.936-36.832c1.543-4.762-5.836-6.719-7.454-2.055-9.951 28.687-19.94 56.709-33.767 83.815l7.2 1.951c.666-6.139.717-13.1 3.241-18.858 2.568-5.853 7.416-10.939 11.265-15.943l-7.064-2.979c-4.2 10.425-9.673 22.029-19.448 28.323-12 7.727-28.773 3.337-40.508-2.84l-.923 7.064q26.054-4.13 52.348-6.288c4.02-.332 5.622-6.768 1.027-7.592l-67.728-12.152c-4.852-.87-6.844 5.884-2.055 7.454l44.879 14.708 2.055-7.454a299.789 299.789 0 0 0-38.939-8.676c-4.793-.738-6.967 6.07-2.055 7.454l29.228 8.231c4.9 1.38 6.566-5.66 2.055-7.454Q67.75 160.02 51.205 151.8c-3.905-1.952-11.366-5.016-8.816-10.662s10.111-6.358 15.452-7.123l-4.365-5.678a87.63 87.63 0 0 1-9.811 16.87c-1.64 2.214.252 4.857 2.31 5.678 11.663 4.652 23.3-2.33 30.483-11.359 5.861-7.37 16.113-20.488 9.206-30.015a3.881 3.881 0 0 0-3.337-1.915 99.733 99.733 0 0 0-62.042 30.913c-1.866 2-1.211 4.539.782 6.07 9.408 7.227 25.128 3.885 35.64 1.154a92.785 92.785 0 0 0 34.664-17.649l-5.466-5.466-24.775 20.75c-2.852 2.39.213 7.954 3.761 6.46q31.1-13.094 61.271-28.217l-4.684-6.07-43.646 36.21c-3.4 2.823.992 8.336 4.684 6.07a534.077 534.077 0 0 1 47.781-26.06l-4.683-6.07-41.339 33c-3.481 2.779.985 8.244 4.684 6.07a89.9 89.9 0 0 1 28.959-10.852l-4.365-5.678-8.434 13.983 6.675 3.9a464.7 464.7 0 0 1 24.8-48.977l-7.2-1.951a77.561 77.561 0 0 1-9.363 32.879l7.064 2.978q4.295-19.987 9.679-39.713c.824-3.019-2.838-6.413-5.678-4.365l-19.529 14.09 5.288 1.386c-4.294-7.482-3.274-16.216-2.131-24.413.537-3.851-5.151-7.412-7.064-2.978l-16.696 38.693 7.064 2.978a76.01 76.01 0 0 1 16.2-31.773l-6.07-4.683a155.142 155.142 0 0 1-21.481 30.816 154.676 154.676 0 0 1-13.165 12.96c-4.708 4.113-9.877 8.616-16.451 8.685l3.727 4.893c3.837-13.146 20.521-12.169 31.281-11.353l-1.95-7.2-36.843 19.391c-3.29 1.732-1.891 7.511 1.951 7.2l32.136-2.579c10.165-.815 20.315-1.706 30.479-.4l-1.951-7.2A136.5 136.5 0 0 1 94.607 165.9c-2.529.971-4.048 4.337-1.7 6.46q3.681 3.333 7.283 6.751c3.608 3.423 9.083-2.034 5.465-5.466q-3.6-3.418-7.282-6.751l-1.706 6.46a148.138 148.138 0 0 0 23.131-11.2c3.578-2.143 1.635-6.742-1.951-7.2-10.164-1.306-20.313-.416-30.479.4l-32.136 2.579 1.95 7.2 36.838-19.395c3.633-1.912 1.614-6.932-1.951-7.2-14.741-1.117-33.763 0-38.735 17.028a3.9 3.9 0 0 0 3.727 4.892c13.271-.14 24.364-12.466 32.8-21.438a163.013 163.013 0 0 0 24.968-34.852c1.977-3.7-3.088-8.155-6.07-4.683a84.365 84.365 0 0 0-18.188 35.183c-.988 4.051 5.261 7.157 7.064 2.978l16.692-38.693-7.065-2.978c-1.445 10.363-2.509 20.925 2.911 30.369.966 1.684 3.6 2.605 5.288 1.386l19.529-14.089-5.678-4.365q-5.383 19.724-9.679 39.714c-.884 4.114 4.88 7 7.064 2.978a86.64 86.64 0 0 0 10.419-36.781c.219-3.913-5.34-5.145-7.2-1.951a464.9 464.9 0 0 0-24.8 48.977c-1.931 4.448 4.034 8.279 6.675 3.9l8.433-13.983c1.858-3.08-1.2-6.282-4.364-5.678a96.117 96.117 0 0 0-30.806 11.632l4.684 6.07 41.339-33c3.635-2.9-.994-7.846-4.684-6.071a533.851 533.851 0 0 0-47.782 26.061l4.684 6.07 43.646-36.211c3.543-2.939-.969-7.936-4.684-6.07q-29.25 14.7-59.424 27.438l3.76 6.46 24.775-20.752c3.845-3.221-1.643-8.527-5.466-5.466a83.569 83.569 0 0 1-29.656 15.23c-8.844 2.478-23.281 6.2-31.28.056l.782 6.071a91.576 91.576 0 0 1 56.576-28.649l-3.334-1.911c4.31 5.945-5.229 17.354-9.021 21.916-5.422 6.521-13.349 11.53-21.94 8.1l2.31 5.678a87.642 87.642 0 0 0 9.812-16.871c1.44-3.261-.91-6.172-4.365-5.677-7.262 1.041-15.2 2.771-19.382 9.476a13.059 13.059 0 0 0 1.224 16.071c5.058 5.492 13.309 8.223 19.921 11.308 8.322 3.882 16.768 7.487 25.3 10.879l2.055-7.454-29.228-8.231-2.055 7.454a299.789 299.789 0 0 1 38.939 8.676c4.8 1.41 6.758-5.913 2.055-7.454l-44.879-14.705-2.055 7.454 67.736 12.153 1.028-7.592q-27.319 2.257-54.4 6.564c-3.31.525-3.7 5.6-.923 7.064 13.841 7.286 32.761 11.836 47.167 3.535 12.359-7.121 19.03-20.937 24.144-33.637 1.788-4.439-4.664-6.1-7.064-2.978-4.275 5.558-9.372 11.059-12 17.657-2.616 6.569-2.809 14.1-3.562 21.046-.415 3.835 5.528 5.234 7.2 1.95 14.132-27.7 24.374-56.34 34.546-85.661l-7.453-2.055-11.936 36.832 7.454 2.055L157.791 79.6c1.333-4.208-4.887-6.741-7.065-2.978q-8.708 15.046-18.4 29.476l7.064 2.978a41.775 41.775 0 0 0 2.757-13.155c.2-3.625-4.226-4.724-6.6-2.733a108.257 108.257 0 0 0-16.647 17.631c-2.655 3.495 3.148 7.907 6.07 4.683a191.8 191.8 0 0 1 24.873-23.094c3.076-2.374 1.5-8.891-2.979-7.064a156.945 156.945 0 0 0-35.588 20.132l4.684 6.07 29.96-23.232c2.745-2.129.35-6.627-2.733-6.6a33.21 33.21 0 0 0-21.516 8.058c-2.893 2.422.2 7.832 3.76 6.46a87.187 87.187 0 0 0 27.986-17.321 3.9 3.9 0 0 0-1.705-6.46c-16.394-4.294-30.744 6.136-43.084 15.587l-46.3 35.466-23.543 18.034c-3.728 2.86-10 9.345-4.493 13.878 5.208 4.289 14.9-3.022 19.075-5.925q11.658-8.112 23.547-15.885 26.578-17.319 54.333-32.722c4.38-2.436.519-8.878-3.9-6.674a773.927 773.927 0 0 0-75.9 43.347c-4.149 2.692-.42 9.215 3.9 6.675l67.1-39.437c3.649-2.145 1.243-8.643-2.978-7.064l-94.43 35.316 2.978 7.064 52.964-29.628c16.35-9.146 33.915-17.408 48.337-29.506 3.495-2.932-.959-8.016-4.683-6.071a1114.908 1114.908 0 0 0-100.743 59.543c-4.132 2.745-.526 9.014 3.9 6.674l114.27-60.385c4.511-2.385.541-8.561-3.9-6.675A671.146 671.146 0 0 0 32.828 130.31c-4.134 2.706-.4 9.257 3.9 6.675a981.018 981.018 0 0 1 97.649-51.421l-3.9-6.675q-48.171 24.566-94.632 52.279l4.684 6.07q42.76-34.518 88.68-64.808a3.92 3.92 0 0 0 .782-6.071c-2.142-2.191-4.7-2.222-7.466-1.2-4.657 1.714-9.147 4.626-13.533 6.956q-13.81 7.332-27.351 15.163-27.08 15.661-52.972 33.249l3.9 6.674q28.8-21.009 59.279-39.523c3.635-2.208 1.307-8.469-2.978-7.064a215.193 215.193 0 0 0-43.035 19.53l3.9 6.675q31.2-20.169 63.476-38.6c3.676-2.1 1.153-8.8-2.978-7.065a713.313 713.313 0 0 0-82.672 41.261l4.683 6.07a268.1 268.1 0 0 1 50.046-38.43l-5.677-4.365c-1.434 3.431-7.379-2.077-8.481-3.09a3.952 3.952 0 0 0-5.466 0A57.583 57.583 0 0 0 47.523 86c-.919 2.628 2.055 5.809 4.754 4.754a113.445 113.445 0 0 0 35.187-21.723c2.849-2.582-.131-7.607-3.761-6.459A136.793 136.793 0 0 0 45.79 81.329c-4.035 2.854-.59 8.949 3.9 6.675q21.474-10.879 42.1-23.3c3.2-1.924 1.97-7.323-1.95-7.2-4.111.126-8.215.142-12.325-.017q-2.844-.111-5.681-.32-1.419-.1-2.835-.231a5.026 5.026 0 0 0-4.558.565l-2.31-5.677L46.4 75.329c-2.079 3.108 2.156 7.577 5.288 5.288A109.429 109.429 0 0 0 74.636 58.21c2.881-3.811 6.7-8.289 7.765-13.028.871-3.882-1.323-8.1-5.437-8.669-4.658-.643-7.478 4.16-9.89 7.406a92.86 92.86 0 0 0-8.683 14.153 100.632 100.632 0 0 0-9.542 32.069c-.512 3.977 5.413 5.008 7.2 1.951A145.556 145.556 0 0 0 73.391 46.18c.773-3.993-5.113-7.224-7.064-2.979C51.2 76.1 36.047 108.99 19.286 141.093l7.065 2.978a154.3 154.3 0 0 1 23.12-58.866l-7.064-2.978q-9.465 34.361-20.708 68.19l7.454 2.054c3.775-16.255 10.223-31.609 16.749-46.912 3.057-7.169 6.118-14.34 8.894-21.624 2.5-6.572 6.864-14.926 6.02-22.1-.318-2.71-3.1-5.077-5.815-3.338-16.049 10.274-19.364 30-22.678 47.332L25.481 141.6c-1.758 9.2-3.5 18.648 4.752 25.224 7.154 5.7 17.485 7.155 26.112 9.237q17.613 4.251 35.45 7.479 8.445 1.529 16.93 2.825c4 .611 9.56 2.422 13.419.354 3.981-2.134 5.67-7.954 7.338-11.8 2.163-4.981 4.116-10.047 6.054-15.118q15.238-39.861 30.442-79.735c.938-2.459-1.436-4.806-3.727-4.893A112.727 112.727 0 0 1 110.5 60.488c-14.326-8.171-27.263-18.43-42.671-24.635-3.788-1.525-6.209 3.9-3.76 6.46a216 216 0 0 0 35.717 30.038c4.218 2.837 7.747-3.74 3.9-6.674l-43.247-33c-2.341-1.787-5.94.634-5.816 3.337 1 21.748 22.519 30.888 41 34.425a445.069 445.069 0 0 0 73.233 7.606l-3.727-4.893q-10.8 33.27-23.776 65.774-3.027 7.562-6.173 15.076c-2.316 5.527-4.227 12.7-7.713 17.617-2.476 3.5-9.231 3.937-13.175 4.589a92.988 92.988 0 0 1-15.606 1.184 97.711 97.711 0 0 1-55.592-17.678c-7.855-5.543-16.307-13.143-17.645-23.208-1.548-11.648 6.165-23.564 11.144-33.583 10.931-22 22.555-43.763 29.817-67.33 1.469-4.764-5.991-6.8-7.453-2.055Z"/>
        <path fill="#6f6f6e" d="m133.617 111.689-4.886 13.134c-1.019 2.738-2.966 5.664-1.679 8.514a2.017 2.017 0 0 0 1.749 1c3.907.209 5.382-3.846 6.492-6.91a52.917 52.917 0 0 0 2.982-15.8c.113-2.606-3.937-2.6-4.05 0a49.9 49.9 0 0 1-1.323 9.749c-.374 1.529-1.939 9.026-4.1 8.911l1.748 1c-.044-.1 1.039-2.58 1.224-3.078l2.012-5.407 3.736-10.043c.91-2.446-3-3.5-3.9-1.077Z"/>
        <path fill="#6f6f6e" d="m163.757 109.03-5.843 15.46c-.922 2.44 2.99 3.494 3.9 1.076l5.843-15.46c.922-2.44-2.99-3.495-3.9-1.076Z"/>
        <path fill="#6f6f6e" d="m89.174 102.113-3.518 9.208c-.869 2.273-2.787 5.431-2.4 7.932.437 2.837 3.647 3.965 6.091 2.778 3.548-1.723 3.42-6.772 4.212-10.036.953-3.927 3.694-7.551.708-11.207a2.035 2.035 0 0 0-3.384.893 147.4 147.4 0 0 1-4.151 17.176c-.764 2.5 3.143 3.565 3.9 1.076a147.6 147.6 0 0 0 4.152-17.176l-3.384.894c1.034 1.266-1.08 4.821-1.466 6.166-.633 2.206-.627 4.771-1.464 6.89a1 1 0 0 1-.924.953l.754-1.974 1.508-3.946 3.268-8.551c.93-2.436-2.983-3.49-3.9-1.076Z"/>
        <path fill="#6f6f6e" d="m50.272 85.776-4.7 11.666c-.869 2.16-2.117 5.847 1.492 6.182 6.754.628 6.765-12.1 7.242-16.285.3-2.584-3.757-2.563-4.049 0-.128 1.122-1.291 12.616-2.988 12.2l1.414 1.414c-.452-1.154 1.995-5.413 2.5-6.671l2.989-7.424c.973-2.417-2.942-3.467-3.9-1.077Z"/>
        <path fill="#6f6f6e" d="m38.649 73.855-4.112 10.879c-.922 2.441 2.991 3.5 3.905 1.077l4.111-10.88c.923-2.44-2.99-3.494-3.9-1.076Z"/>
        <path fill="#b1b1b1" d="M68.3 37.234a3.642 3.642 0 0 1 2.018 3.89l2.021-2.024c-1.124-.1-.731-2.935-.689-3.5l-3.456 1.432L71.1 39.3a2.09 2.09 0 0 0 2.863 0 2.037 2.037 0 0 0 0-2.863l-2.906-2.275A2.056 2.056 0 0 0 67.6 35.6a8.63 8.63 0 0 0 .748 5.044 4.941 4.941 0 0 0 3.99 2.508c1.179.1 1.907-1.017 2.025-2.025a7.526 7.526 0 0 0-4.023-7.387c-2.318-1.178-4.37 2.314-2.044 3.5Z"/>
        <path fill="#b1b1b1" d="M111.659 64.108c2.6-1.085 3.124-3.7 1.334-5.9-.948-1.164-2.579-2.03-3.213-3.413-1.21-2.641 2.712-3.347 4.424-3.713l-2.49-2.491c-1.482 3.537-4.314 7.97-2.69 11.882.985 2.372 4.9 1.331 3.9-1.077-1.181-2.844 1.589-7.1 2.69-9.728.645-1.539-1.162-2.774-2.49-2.491-3.215.688-6.888 2.048-7.568 5.721a5.751 5.751 0 0 0 .93 4.243c.3.462 3.5 3.668 3.435 3.758l1.21-.93-.553.23c-2.37.988-1.33 4.907 1.077 3.9Z"/>
        <path fill="#b1b1b1" d="m147.889 71.389 7.272 2.634a2.043 2.043 0 0 0 2.286-2.974 36.357 36.357 0 0 1-2.79-4.737c-.7-1.436-1.062-3.062-1.792-4.465a3.616 3.616 0 1 0-4.82 4.78c2.517 1.186 5.061-.912 5.159-3.481.1-2.606-3.95-2.6-4.049 0l.911.153-.647.519c-.138.351.191.885.315 1.211.345.914.724 1.818 1.133 2.7a36.166 36.166 0 0 0 3.084 5.359l2.286-2.974-7.271-2.635c-2.454-.889-3.512 3.023-1.077 3.905Z"/>
        <path fill="#b1b1b1" d="M178.108 70.943a15.047 15.047 0 0 1 3.839-5.6l-2.863-2.863-3.345 3.689c-1.746 1.927 1.109 4.8 2.863 2.863l3.345-3.689a2.026 2.026 0 0 0-2.863-2.863 19.523 19.523 0 0 0-4.88 7.384 2.04 2.04 0 0 0 1.414 2.49 2.069 2.069 0 0 0 2.49-1.414Z"/>
        <path fill="#b1b1b1" d="M65.115 23.259C66.253 13.089 81.524 10.773 89.45 10.8c8.746.034 17.224 2.3 25.62 4.515 8.067 2.126 17.036 2.914 24.687 6.261 3.184 1.393 6.181 3.15 9.4 4.482 4.419 1.83 8.8 3.447 12.7 6.27 2.115 1.529 4.138-1.982 2.043-3.5-3.742-2.705-7.9-4.336-12.144-6.06-4.839-1.963-9.316-4.824-14.323-6.35-4.937-1.5-10.133-2.166-15.142-3.414-5.57-1.381-11.091-3.004-16.704-4.232C96.29 6.736 86.413 5.7 77.114 8.306 69.635 10.4 62 14.908 61.066 23.259c-.289 2.585 3.762 2.565 4.049 0Z"/>
        <path fill="#b1b1b1" d="M151 28.284c5.578 1.8 10.129 5.142 14.38 9.1 4.051 3.773 8.865 7.954 11.555 12.834 3.589 6.511 1.1 13.186-5.807 15.78-5.764 2.163-12.624 1.593-18.581.594-11.094-1.862-21.8-6.068-32.3-9.971q-17.755-6.6-35.065-14.306c-2.361-1.048-4.423 2.44-2.044 3.5q21.218 9.417 43.072 17.281c13.029 4.66 27.637 10.21 41.734 7.914 10.6-1.727 18.18-10.85 13.179-21.476-2.862-6.081-8.58-11.1-13.47-15.558-4.608-4.2-9.6-7.67-15.58-9.6-2.486-.8-3.55 3.107-1.076 3.9Z"/>
        <path fill="#b1b1b1" d="M84.593 41.657c-6.15-2.036-10.641-4.294-13.734-10.206-2.386-4.56-6.677-8.147-7.718-13.329-.513-2.553-4.416-1.472-3.9 1.076a19.415 19.415 0 0 0 3.736 7.741c2.267 3.116 3.917 6.4 6 9.592 3.284 5.028 9.085 7.224 14.539 9.03 2.48.821 3.543-3.088 1.077-3.9Z"/>
        <path fill="#b1b1b1" d="M16.513 148.253c6.537 9.787 13.264 19.809 22.621 27.152 9.563 7.5 21.233 10.982 33.1 12.8 12.232 1.872 24.846 2.984 37.121.936a79.9 79.9 0 0 0 34.424-14.828c2.068-1.537.051-5.053-2.043-3.5a77.38 77.38 0 0 1-30.956 13.955c-12.306 2.474-25.148 1.4-37.47-.471-10.839-1.644-21.688-4.627-30.618-11.235-9.507-7.036-16.195-17.147-22.677-26.853-1.441-2.156-4.949-.131-3.5 2.044Z"/>
        <path fill="#b1b1b1" d="M122.86 101.862q-6.508 15.243-12.25 30.79c-.738 2 2.462 2.867 3.2.88q5.584-15.147 11.916-30c.828-1.939-2.025-3.629-2.861-1.672Z"/>
        <path fill="#b1b1b1" d="M102.468 152.63c-8.484 22.285-16.815 44.813-18.7 68.778h3.313a101.693 101.693 0 0 1 1.76-23.014c.4-2.083-2.791-2.975-3.195-.88a105.617 105.617 0 0 0-1.878 23.894 1.658 1.658 0 0 0 3.313 0c1.857-23.642 10.212-45.919 18.578-67.9.76-1.994-2.442-2.857-3.194-.881Z"/>
        <path fill="#b1b1b1" d="M84 222.4a69.871 69.871 0 0 1-6.037 24.4c-.868 1.929 1.986 3.616 2.86 1.672a74.61 74.61 0 0 0 6.49-26.067c.136-2.128-3.177-2.12-3.313 0Z"/>
        <path fill="#b1b1b1" d="M126.133 183.872c-3 7.893-7.3 16.242-8.837 24.55-.384 2.084 2.808 2.978 3.195.88 1.533-8.31 5.842-16.662 8.837-24.549.757-1.995-2.444-2.858-3.2-.881Z"/>
        <path fill="#b1b1b1" d="M26.565 160.841c-5.949 2.332-9.8 9.11-12.714 14.459-3.651 6.7-6.267 13.9-8.857 21.056-.727 2.008 2.474 2.874 3.2.881a169.177 169.177 0 0 1 7-17.328c2.575-5.228 6.487-13.613 12.253-15.874 1.963-.769 1.109-3.974-.88-3.194Z"/>
        <path fill="#b1b1b1" d="m62.647 182.875 4.659 1.851.44-3.254c-2.532-.334-5.363-.835-6.617-3.332l-1.87 2.433a47.428 47.428 0 0 1 7.217 2.769c1.912.922 3.594-1.934 1.672-2.861a52.713 52.713 0 0 0-8.009-3.1 1.676 1.676 0 0 0-1.87 2.433c1.82 3.625 5.8 4.487 9.477 4.973 2 .264 2.017-2.628.441-3.254l-4.659-1.85c-1.982-.787-2.842 2.415-.881 3.194Z"/>
        <path fill="#b1b1b1" d="M105.5 179.184a12.685 12.685 0 0 0-1.221 2.806 1.676 1.676 0 0 0 1.6 2.1l13.635.69c1.913.1 2.184-2.722.44-3.253q-6.852-2.088-13.868-3.507a1.671 1.671 0 0 0-1.611 2.768 18.475 18.475 0 0 0 12.913 6.492c2.126.166 2.115-3.148 0-3.313a15.172 15.172 0 0 1-10.571-5.521l-1.612 2.768q7.022 1.422 13.869 3.507l.44-3.253-13.635-.691 1.6 2.1a5.824 5.824 0 0 1 .888-2.015 1.658 1.658 0 0 0-2.861-1.672Z"/>
        <path fill="#b1b1b1" d="M142.211 172.17a14.555 14.555 0 0 1-1.376 3.253 1.658 1.658 0 0 0 2.865 1.677 18.318 18.318 0 0 0 1.709-4.045c.591-2.052-2.6-2.929-3.194-.88Z"/>
        <path fill="#b1b1b1" d="M16.548 138.293c-.947 2.451-3.743 7.029-.14 8.544a1.667 1.667 0 0 0 2.037-1.157 1.7 1.7 0 0 0-1.157-2.037q.652 1.088.6.466a3.466 3.466 0 0 1 .161-.556c.147-.444.34-.877.508-1.313l1.185-3.066c.769-1.99-2.433-2.852-3.194-.881Z"/>
        <path fill="#b1b1b1" d="m71.776 31.762-1.017 2.689a1.665 1.665 0 0 0 1.157 2.038 1.7 1.7 0 0 0 2.038-1.157l1.016-2.689a1.663 1.663 0 0 0-1.157-2.037 1.7 1.7 0 0 0-2.037 1.156Z"/>
        <path fill="#6f6f6e" d="M102.991 129.417c-1.556 3.764-3.027 7.577-4.228 11.472-.62 2.008-1.25 4.395.275 6.186 1.83 2.149 5.98 2.672 8.514 3.048 2.645.393 6.642 1.1 9.174-.055 1.983-.9 2.79-3.59 3.567-5.442a15.062 15.062 0 0 0 1.321-8.228c-1.16-7.21-10.109-5.891-15.716-6.324a1.666 1.666 0 0 0-1.656 1.657c.088 1.867.215 5.074-1.165 6.607l2.007-.259c-.259-.135 1.072-4.568 1.157-4.476-.831-.9-2.471 3.2-2.554 3.482l-2.374 7.976a1.664 1.664 0 0 0 3.028 1.277l3.344-5.956c.488-.87 1.5-2.085 1.49-3.173-.016-2.224-2.758-2.579-4.387-3.168a1.666 1.666 0 0 0-2.1 1.6 29.252 29.252 0 0 1-1.363 10.886c-.65 2.036 2.547 2.907 3.194.881a31.863 31.863 0 0 0 1.481-11.77l-2.1 1.6q1.391.466 2.731 1.059l-.82-1.431c.151 1.182-3.489 6.291-4.338 7.8l3.028 1.276c.621-2.088 6.913-16.235.968-15.621-3.473.359-5.095 9.033-2.064 10.619a1.7 1.7 0 0 0 2.008-.259c2.047-2.276 2.272-6.039 2.134-8.95l-1.656 1.656c2.019.156 4.037.325 6.051.527 2.467.247 5.506-.141 6.381 2.726.718 2.356-.468 5.375-1.419 7.5-1.1 2.466-2.062 3.074-4.91 3.041a28.357 28.357 0 0 1-6.2-.756 4.83 4.83 0 0 1-3.139-1.746c-1.429-1.464-1.207-1.274-.7-2.912 1.2-3.893 2.672-7.708 4.227-11.472.813-1.968-2.39-2.826-3.194-.88Z"/>
        <path fill="#575756" d="M107.7 138.085a48.76 48.76 0 0 0 5.194-.363 1.665 1.665 0 0 0 .44-3.254 20.617 20.617 0 0 1-3.9-1.634l-1.672 2.861a18.525 18.525 0 0 0 4.91 1.467c1.664.262 4.1.067 5.589.806l-.82-1.431c.16 1.584-.533 3.616-.8 5.157a24.691 24.691 0 0 1-.886 4.539l1.157-1.157c-.926.387-3.24-.52-4.2-.711-1.211-.242-3.1-.266-4.189-.835q-1.137 1.177-.268-.609.33-1.075.7-2.137a65.3 65.3 0 0 1 1.9-4.827l-3.086-.836a24.362 24.362 0 0 1-1.672 6.182 4.241 4.241 0 0 0-.256 2.766 2.838 2.838 0 0 0 3.887 1.712c3.3-1.127 11.255-5.81 5.076-8.783-2.881-1.387-10.446.8-8.29 5.15 1.833 3.7 9.739.1 9.485-3.271a1.7 1.7 0 0 0-1.216-1.6c-2.226-.509-4.808 1.943-6.865 2.635a1.665 1.665 0 0 0 .44 3.253c2.686.36 5.369.6 8.077.736a1.663 1.663 0 0 0 .44-3.253l-.917-.211 1.216 1.6a2.62 2.62 0 0 0-.093-2.308l-1.157-2.037c-.556 1.763-1.45 6.9-3.089 7.774-1.463.777-6.378-1.021-7.776-1.863l.82 1.43c.064.548 4.336 1.427 4.831 1.491a12.7 12.7 0 0 0 4.553-.319c2.077-.479 1.2-3.674-.88-3.195-2.646.61-4.331-.191-6.817-.826a4.63 4.63 0 0 0-3.6.329c-2 1.2-1.789 3.4.211 4.355a28.124 28.124 0 0 0 6.3 1.8c1.162.241 2.794.785 3.964.3s1.554-1.724 2-2.832c1-2.483 1.877-5.007 2.682-7.56a1.673 1.673 0 0 0-1.157-2.037c-3.076-.735-3.879 3.267-4.1 5.5a1.659 1.659 0 0 0 1.216 1.6l.917.21.441-3.254a95.355 95.355 0 0 1-8.077-.736l.44 3.254a25.557 25.557 0 0 0 3.091-1.229 18.8 18.8 0 0 0 1.693-.931q1.5-.716.32-.475l-1.216-1.6q.573-.854-.444.081a6.59 6.59 0 0 1-1.088.708q-.887.4.011.181l1.576-.083.687-.085q-.693.484-1.405.939c-.786.51-1.581 1.021-2.4 1.474-1.169.647-.655.794-.3.042a18.851 18.851 0 0 0 .756-1.882 20.827 20.827 0 0 0 1-5.131c.138-1.587-2.435-2.332-3.087-.836a62.488 62.488 0 0 0-2.931 7.755c-.42 1.472-.86 2.944.509 4.039s4.556 1.14 6.263 1.481 4.265 1.441 5.96.71c1.813-.782 1.658-3.466 1.943-5.118.339-1.96 1.395-4.689 1.017-6.615-.344-1.747-1.826-1.847-3.4-2.088-2.685-.412-5.412-.469-7.924-1.615-1.9-.867-3.579 1.824-1.672 2.861a24.968 24.968 0 0 0 4.694 1.968l.441-3.254a48.779 48.779 0 0 1-5.194.363c-2.129.035-2.136 3.348 0 3.313Z"/>
        <path fill="#575756" d="M95.03 16.025c7.255 3.365 15.238 3.8 22.908 5.68a80.108 80.108 0 0 1 20.678 8.578 173.971 173.971 0 0 1 18.921 12.907A103.519 103.519 0 0 1 166 50a16.687 16.687 0 0 1 3.076 3.724c.7 1.214 1.62 3.262 1.049 4.675-.51 1.264-2.415 1.363-3.558 1.4-1.964.061-3.943-.031-5.9-.147a102.215 102.215 0 0 1-12.377-1.53 192.01 192.01 0 0 1-23.974-6.3c-7.24-2.324-14.5-4.693-21.6-7.41a82.3 82.3 0 0 1-18.423-9.382 44.663 44.663 0 0 1-7.434-6.61c-1.857-2.075-4.607-4.9-1.839-7.361 2.464-2.189 6.3-2.695 9.42-3.2a55.393 55.393 0 0 1 18.459.181c2.01.359 2.873-2.72.849-3.081a59.524 59.524 0 0 0-13.226-.915A48.746 48.746 0 0 0 77.685 16.1c-2.849.94-6.131 2.746-6.953 5.877-.959 3.649 2.116 6.829 4.388 9.276C85.485 42.408 100.677 47.276 114.7 52c8.593 2.9 17.225 5.729 26.06 7.8a130.615 130.615 0 0 0 13.134 2.4 72.851 72.851 0 0 0 13.012.775 8.157 8.157 0 0 0 4.729-1.463 5.258 5.258 0 0 0 1.721-5.028c-.477-3.613-2.766-6.6-5.374-9.009-2.865-2.645-6.08-4.953-9.177-7.315-3.273-2.5-6.592-4.936-10-7.25a106.708 106.708 0 0 0-21.665-11.666 71.844 71.844 0 0 0-11.825-3.387c-4.257-.837-8.572-1.408-12.771-2.521a35.764 35.764 0 0 1-5.905-2.078c-1.853-.86-3.478 1.894-1.612 2.759Z"/>
        <path fill="#1d1d1b" d="M146.277 49.1a.835.835 0 0 0 0-1.669.835.835 0 0 0 0 1.669Z"/>
        <path fill="#1d1d1b" d="M73.322 38.071a177.3 177.3 0 0 0 57 28.73c11 3.224 22.552 5.489 34.062 4.612a59.437 59.437 0 0 0 8.132-1.171 17.449 17.449 0 0 0 6.181-2.358 7.564 7.564 0 0 0 3.326-4.76 11.42 11.42 0 0 0-1.364-7c-3.911-8.123-10.561-15-17.633-20.452a117.931 117.931 0 0 0-24.194-13.9 234.02 234.02 0 0 0-28.4-10.737C99.872 7.9 88.339 6.136 77.64 9.666c-4.378 1.445-8.585 3.81-11.4 7.541-2.686 3.556-3.844 8.55-2.217 12.8 1.769 4.622 6.484 7.164 10.508 9.556a152.488 152.488 0 0 0 15.138 7.885q3.686 1.663 7.452 3.136c1.1.433 1.581-1.346.489-1.775a152.144 152.144 0 0 1-14.691-6.681 90.328 90.328 0 0 1-13.171-7.823 11.224 11.224 0 0 1-4.2-5.5 11.256 11.256 0 0 1 .153-6.633c1.437-4.542 5.323-7.676 9.518-9.6 9.585-4.4 20.742-3.4 30.677-.874 9.507 2.413 18.769 6.07 27.806 9.854 15.787 6.611 31.957 15.294 41.907 29.723 2.313 3.354 6.457 8.922 4.006 13.088-1.082 1.838-3.145 2.827-5.1 3.456a40.162 40.162 0 0 1-7.335 1.481c-10.8 1.334-21.733-.34-32.181-3.1a174.57 174.57 0 0 1-54.723-25.34q-3.058-2.122-6.025-4.374c-.945-.714-1.863.883-.929 1.59Z"/>
        <path fill="#1d1d1b" d="M61.241 26.508Q51.67 49.917 42.755 73.585q-8.867 23.553-17.07 47.349-4.659 13.512-9.1 27.1c-.369 1.129 1.407 1.612 1.774.49q7.863-24.036 16.4-47.845Q43.247 76.987 52.4 53.542 57.6 40.228 63.016 27c.448-1.1-1.332-1.573-1.775-.49Z"/>
        <path fill="#1d1d1b" d="M174.717 70.374q-9.147 24.965-18.637 49.8t-19.327 49.538c-1.368 3.436-2.543 7.506-5.437 10.013-2.818 2.441-6.872 2.641-10.412 2.831-8.381.449-16.773.868-25.168.8-15.63-.133-31.667-2.041-45.795-9.144-11.722-5.892-22.253-15.177-27.43-27.452a44.554 44.554 0 0 1-1.662-4.694.921.921 0 0 0-1.775.489c3.855 13.056 13.432 23.483 24.9 30.458 13.4 8.147 28.987 11.238 44.486 11.984 8.7.419 17.413.143 26.106-.275 7.094-.34 15.952.415 20.311-6.387 2.113-3.3 3.308-7.27 4.746-10.888q2.556-6.435 5.09-12.881 5.022-12.774 9.952-25.585 9.9-25.737 19.437-51.614 1.2-3.249 2.388-6.5c.408-1.114-1.37-1.594-1.775-.49Z"/>
        <path fill="#1d1d1b" d="M110.723 53.937a5.631 5.631 0 0 1 3.844-5.286l-1.04-.423a4.029 4.029 0 0 1-6.439 4.619c-.728-.655-2.111.239-1.445 1.115 1.861 2.451 1.388 5.728 2.864 8.341 1.112 1.968 3.528 3.843 5.893 3.03 2.271-.781 2.716-3.355 1.843-5.339-1.184-2.689-3.836-3.514-6.556-3.838a27.169 27.169 0 0 1-4.771-.757 29.372 29.372 0 0 1-5.059-2.279q-5.289-2.784-10.574-5.578c-3.272-1.726-6.562-3.42-9.814-5.182-2.662-1.442-5.545-3.135-6.982-5.924-.651-1.263-1.274-4.228.96-4.3 1.776-.061.959 3.286-.089 3.837-1.392.733-1.428-1.532-1.255-2.276a22.97 22.97 0 0 1 .88-2.553l1.125-3.109c.072-.2 1.017-2.683 1.546-2.208l-.236-.895a44.6 44.6 0 0 1-2.58 6.31c-.755 1.449-2.791 3.921-4.525 2.123a.9.9 0 0 0-.9-.237 4.464 4.464 0 0 0-2.266 5.853c1.01 2.57 4.087 4.773 6.735 5.335 2.466.524 5.545-.933 5.278-3.813-.311-3.347-4.055-4.049-6.746-4.219-1.183-.074-1.178 1.767 0 1.841 1.673.105 4.492.28 4.9 2.391.467 2.436-2.943 2.191-4.252 1.581a8.879 8.879 0 0 1-3.9-3.169c-.716-1.222-.84-3.363.741-4.025l-.9-.236c1.8 1.868 4.662 1.134 6.209-.669 1.985-2.311 3.01-5.739 3.973-8.577a.9.9 0 0 0-.237-.895c-2.984-2.681-4.8 3.511-5.426 5.24-.619 1.71-1.7 3.728-1.344 5.6A3.02 3.02 0 0 0 73 37.947c2.68-.048 4.313-4.73 2.754-6.659a3.088 3.088 0 0 0-3.5-.754 3.612 3.612 0 0 0-2.225 3.247c-.261 3.392 2.545 6.28 5.087 8.091 3.334 2.373 7.2 4.077 10.815 5.981l12.337 6.507a41.142 41.142 0 0 0 5.527 2.605 25.9 25.9 0 0 0 5.685 1.009c2.045.238 4.258.745 5.118 2.841.732 1.782-.512 3.518-2.446 2.586s-2.541-2.99-2.948-4.925a13.014 13.014 0 0 0-1.972-5.442l-1.445 1.115a5.867 5.867 0 0 0 9.33-6.85.924.924 0 0 0-1.04-.423 7.52 7.52 0 0 0-5.194 7.061.921.921 0 0 0 1.84 0Z"/>
        <path fill="#1d1d1b" d="M150.315 72.03a3.877 3.877 0 0 0 4.924 1.548 3.406 3.406 0 0 0 1.436-4.362c-.915-2.073-3.622-1.974-5.538-2.07a38.768 38.768 0 0 0-7.973.456c-.873.137-.776 1.271-.22 1.682a25.524 25.524 0 0 0 7.015 3.641 24.463 24.463 0 0 0 3.982.976 12.062 12.062 0 0 0 3.575.247 1.916 1.916 0 0 0 1.825-1.88c-.057-1.164-1.244-2.124-2.125-2.731-1.917-1.321-4.326-1.7-6.581-2.008a.954.954 0 0 0-1.132.643.926.926 0 0 0 .643 1.132 16.5 16.5 0 0 1 5.3 1.325 6.384 6.384 0 0 1 1.169.746c.188.156.871.676.872.954 0-.1.1-.106-.109-.021a1.374 1.374 0 0 1-.469.052 11.579 11.579 0 0 1-1.453-.1 23.772 23.772 0 0 1-11.585-4.564l-.219 1.682a36.216 36.216 0 0 1 5.474-.437q1.364-.006 2.726.089a8.747 8.747 0 0 1 2.509.339 1.476 1.476 0 0 1 .408 2.289c-.8.912-2.322.336-2.867-.556-.616-1.01-2.209-.086-1.589.929Z"/>
        <path fill="#1d1d1b" d="M151.055 68.054c.01-.218.025-.436.048-.653 0-.04.008-.081.013-.121.025-.225 0 0 0 0l.058-.368a7.7 7.7 0 0 1 .323-1.252 1.407 1.407 0 0 0 .107-.28l-.047.111.049-.106.063-.131c.094-.185.217-.348.319-.528.061-.108-.15.177-.029.036.035-.04.069-.082.105-.121.059-.065.121-.126.186-.185a.54.54 0 0 0 .079-.067c-.1.144-.123.089-.022.021a3.061 3.061 0 0 1 .266-.154c.158-.085-.17.049-.054.022.042-.01.083-.03.124-.042a1.552 1.552 0 0 0 .259-.061c-.146.08-.164.017-.024.008h.114l.185.007c-.144-.021-.165-.023-.064-.006l.059.013c.059.015.116.035.174.051.187.052-.12-.082-.024-.011s.2.11.289.168c.116.073-.028-.035-.04-.033.021 0 .12.107.136.123l.086.089c.028.03.055.061.081.093-.079-.106-.09-.119-.031-.039s.112.171.16.263c.009.016.1.2.032.057s.012.039.019.062.072.3.075.3c-.024 0-.016-.227 0 0a1.561 1.561 0 0 1 0 .181c-.01.225-.016 0 .006 0l-.026.12a5.683 5.683 0 0 1-.056.176c-.03-.016.108-.2.013-.039-.024.039-.044.081-.069.121s-.128.15-.023.043-.018.017-.034.035c-.044.048-.092.09-.138.136-.1.1-.078-.009.035-.021-.042 0-.122.084-.162.108s-.081.047-.122.068l-.1.05q.188-.076.09-.039c-.109.029-.213.074-.323.1a.553.553 0 0 0-.139.028c.152-.018.178-.022.077-.011q-.042 0-.084.006c-.112.007-.225-.01-.336 0s.237.05.052.006c-.064-.015-.127-.027-.189-.045-.045-.013-.088-.029-.132-.043-.165-.054.18.109-.007-.01-.039-.025-.081-.045-.12-.07-.214-.137.084.079-.037-.027a.92.92 0 0 0-1.3 1.3 3.083 3.083 0 0 0 3.528.322 2.761 2.761 0 0 0 1.282-3.326 3.04 3.04 0 0 0-3.043-2.116 3.416 3.416 0 0 0-2.686 1.973 9.15 9.15 0 0 0-.863 3.728.927.927 0 0 0 .92.92.939.939 0 0 0 .92-.92Z"/>
        <path fill="#1d1d1b" d="m150.067 70.965-11.277 31.462c-.4 1.117 1.377 1.6 1.774.49l11.278-31.463c.4-1.117-1.377-1.6-1.775-.489Z"/>
        <path fill="#1d1d1b" d="m137.943 122.142 1.113-4.968a24.51 24.51 0 0 0 .88-4.447 2.578 2.578 0 0 0-1.674-2.773 5.7 5.7 0 0 0-1.485-.145 6.04 6.04 0 0 1-.7-.023c.08.01-.173-.035-.163-.046.118-.132.327.389.308.527a.952.952 0 0 0-.643-1.132.927.927 0 0 0-1.132.643c-.177 1.278.715 1.812 1.871 1.863a7.346 7.346 0 0 1 1.336.058c.366.086.416.372.439.726a6.234 6.234 0 0 1-.257 1.776l-.556 2.484-1.112 4.968c-.259 1.153 1.515 1.646 1.774.489Z"/>
        <path fill="#1d1d1b" d="M133.269 110.633a179 179 0 0 0-6.972 21.875.935.935 0 0 0 .643 1.132 8.015 8.015 0 0 0 7.588-2.079c2.386-2.4 2.711-6.273 3.415-9.419.259-1.154-1.515-1.647-1.774-.489-.324 1.442-.632 2.889-.973 4.327a9.621 9.621 0 0 1-1.536 3.79 6.106 6.106 0 0 1-6.231 2.095l.643 1.132a178.882 178.882 0 0 1 6.971-21.875c.432-1.1-1.347-1.582-1.774-.489Z"/>
        <path fill="#1d1d1b" d="M133.278 124.819q-6.984 17.543-13.2 35.377c-.39 1.12 1.387 1.6 1.775.489q6.215-17.83 13.2-35.377c.438-1.1-1.341-1.578-1.774-.489Z"/>
        <path fill="#1d1d1b" d="M109.489 61.58 94.175 102.1c-.419 1.109 1.359 1.589 1.775.49l15.313-40.522c.419-1.109-1.359-1.588-1.774-.489Z"/>
        <path fill="#1d1d1b" d="m90.421 98.037-8.693 22.978c-.273.722.515 1.237 1.132 1.132 1.618-.276 2.862.554 4.332 1.041 1.008.333 2.784.689 3.673-.094a5.346 5.346 0 0 0 1.058-1.823 67.81 67.81 0 0 0 1.35-3.251c.391-1 .769-2 1.151-3a14.723 14.723 0 0 0 .738-2.119c.347-1.337.622-2.667 1.046-3.982.249-.774.444-1.565.682-2.343s.723-1.412.962-2.161c.507-1.589-1.533-2.315-2.428-3.212a35.811 35.811 0 0 0-3.651-3.718c-.949-.71-1.867.887-.929 1.589a24.877 24.877 0 0 1 2.943 3.082 10.162 10.162 0 0 0 1.273 1.181c.2.152.435.271.632.427.376.3.342.1.113.545a35.274 35.274 0 0 0-2.311 7.67 35.924 35.924 0 0 1-1.546 4.393c-.376.977-.755 1.952-1.158 2.918a18.489 18.489 0 0 0-1.081 2.3c-.035.14-.257.284.04.085.329-.22-.229-.006-.341 0a6.281 6.281 0 0 1-.658 0 7.114 7.114 0 0 1-2.045-.641 7.339 7.339 0 0 0-4.334-.653L83.5 121.5q4.35-11.484 8.7-22.974c.42-1.109-1.359-1.588-1.775-.489Z"/>
        <path fill="#1d1d1b" d="m87.224 122.245-9.972 26.385c-.419 1.109 1.359 1.589 1.775.489L89 122.734c.419-1.109-1.359-1.588-1.774-.489Z"/>
        <path fill="#1d1d1b" d="M69.856 38.663 54.542 79.185c-.419 1.109 1.359 1.588 1.775.489L71.63 39.152c.42-1.109-1.359-1.588-1.774-.489Z"/>
        <path fill="#1d1d1b" d="m49.041 84.982-6.053 16.036a.929.929 0 0 0 .888 1.165l4.66.116c1.19.03 2.639.25 3.368-.935a13.05 13.05 0 0 0 1.034-3.864l1.019-4.486 1.02-4.486a8.832 8.832 0 0 0 .5-3.657 2.339 2.339 0 0 0-2.261-1.771c-1.522-.177-3.061-.262-4.588-.391-1.18-.1-1.174 1.741 0 1.84l3.332.282c.426.036 1.274-.052 1.6.25.269.246.119.8.056 1.117-.47 2.351-1.063 4.683-1.594 7.02-.509 2.239-.862 4.594-1.546 6.786-.181.581-.534.489-1.081.477l-1.9-.048-3.625-.091.887 1.165 6.052-16.036c.419-1.11-1.359-1.589-1.774-.489Z"/>
        <path fill="#1d1d1b" d="m47.23 102.034-11 29.108c-.419 1.109 1.36 1.589 1.775.49l11-29.108c.42-1.11-1.359-1.589-1.774-.49Z"/>
        <path fill="#1d1d1b" d="M183.751 61.666a3.643 3.643 0 0 1-.032-.511c0-.081 0-.162.011-.242 0-.045.009-.09.013-.134.011-.117-.039.22-.006.057a5.007 5.007 0 0 1 .119-.5c.024-.077.052-.153.08-.229.055-.153-.069.148-.021.045l.056-.123a4 4 0 0 1 .238-.424 1.632 1.632 0 0 0 .155-.221c-.013.031-.125.153-.044.058.029-.034.057-.068.087-.1a3.737 3.737 0 0 1 .364-.359c.026-.023.155-.123.033-.03s.019-.013.036-.025c.074-.052.15-.1.227-.147a.92.92 0 1 0-.929-1.589 4.69 4.69 0 0 0-2.228 4.474 1.011 1.011 0 0 0 .27.651.921.921 0 0 0 1.3 0 .88.88 0 0 0 .27-.651Z"/>
        <path fill="#1d1d1b" d="M175.713 72.707c1.858.381 2.751-1.348 3.533-2.718l3.293-5.774-1.682-.215c.385 2.5-1.613 4.912-3.161 6.652-.716.8-1.668 1.622-2.759.954a2.384 2.384 0 0 1-.725-3.13c1.068-2.308 4-2.747 6.1-3.637 1.919-.813 3.773-2.2 4.211-4.349h-1.775a13.851 13.851 0 0 1-.754 6.8h1.775a18.93 18.93 0 0 1 1.472-13.225c.537-1.053-1.05-1.986-1.589-.929A20.913 20.913 0 0 0 182 67.774a.929.929 0 0 0 1.775 0 15.769 15.769 0 0 0 .751-7.774c-.132-.9-1.6-.854-1.775 0-.642 3.155-4.833 3.526-7.2 4.747-2.44 1.257-4.513 4.282-2.956 7a3.837 3.837 0 0 0 3.083 1.964 4.516 4.516 0 0 0 3.415-1.862c2.032-2.328 4.04-5.087 3.54-8.335-.124-.809-1.319-.857-1.682-.22l-2.379 4.17-1.1 1.925c-.186.325-.761 1.656-1.272 1.551-1.156-.237-1.65 1.537-.489 1.775Z"/>
        <path fill="#1d1d1b" d="M179.541 68.807c-3.829 9.549-7.8 19.031-11.183 28.75a1505.298 1505.298 0 0 0-3.943 11.532c-.381 1.124 1.4 1.607 1.775.489 3.341-9.86 6.783-19.637 10.69-29.287q2.22-5.491 4.436-10.991c.441-1.1-1.339-1.577-1.775-.489Z"/>
        <path fill="#1d1d1b" d="M162.032 112.673c-2.032 5.317-4.61 10.383-6.642 15.7-.256.668.5 1.313 1.132 1.132a8.5 8.5 0 0 0 5.218-3.885c1.279-2.19 1.756-4.732 2.9-6.982.416-.821.948-1.578 1.342-2.41a24.576 24.576 0 0 0 1.308-3.888l1.966-6.984a.932.932 0 0 0-1.352-1.039 34.885 34.885 0 0 0-5.982 3.628c-.935.7-.019 2.3.929 1.589a34.948 34.948 0 0 1 5.982-3.628l-1.352-1.039-1.781 6.323a30.278 30.278 0 0 1-1.206 3.882c-.334.769-.807 1.46-1.21 2.192-1.134 2.059-1.649 4.374-2.646 6.492a6.889 6.889 0 0 1-4.6 3.974l1.132 1.132c2.032-5.316 4.61-10.383 6.642-15.7.424-1.108-1.355-1.587-1.774-.49Z"/>
        <path fill="#1d1d1b" d="M157.09 127.738c-4.573 11.719-8.626 23.643-12.805 35.506q-1.585 4.5-3.19 9c-.4 1.117 1.376 1.6 1.774.489 4.253-11.842 8.316-23.751 12.638-35.568 1.093-2.988 2.2-5.97 3.358-8.933.43-1.1-1.349-1.582-1.775-.489Z"/>
        <path fill="#1d1d1b" d="m77.824 148.188-12.791 33.845c-.419 1.11 1.359 1.589 1.775.49L79.6 148.677c.419-1.109-1.36-1.588-1.775-.489Z"/>
        <path fill="#1d1d1b" d="m120.552 156.968-9.339 24.713c-.419 1.109 1.359 1.588 1.775.489l9.339-24.712c.419-1.109-1.359-1.589-1.775-.49Z"/>
        <path fill="#1d1d1b" d="m37.341 128.591-9.948 26.324c-.419 1.11 1.359 1.589 1.774.49l9.949-26.325c.419-1.109-1.359-1.588-1.775-.489Z"/>
        <path fill="#1d1d1b" d="m131.125 176.444-2.6 6.989a.921.921 0 0 0 .236.9 2.143 2.143 0 0 0 2.18.6 3.5 3.5 0 0 0 2-1.793 9.845 9.845 0 0 1 4.024-4.008.926.926 0 0 0 0-1.589 4.168 4.168 0 0 0-5.046 1.217 2.2 2.2 0 0 0-.376 2.573c.606.8 1.714.6 2.547.351 3.3-1.009 5.218-4.134 7.377-6.583a9.051 9.051 0 0 1 4.358-3.107l-1.165-.887a4.476 4.476 0 0 1-3.853 3.99l1.132.643-.712-2.172c-.367-1.121-2.145-.641-1.775.489l.712 2.172a.952.952 0 0 0 1.132.643 6.3 6.3 0 0 0 5.2-5.765.929.929 0 0 0-1.165-.888c-3.424.89-5.42 3.959-7.6 6.485a10.5 10.5 0 0 1-3.629 3.025 9.046 9.046 0 0 0-1.167.344l.14.393a1.078 1.078 0 0 1 .133-.343 1.835 1.835 0 0 1 .345-.461 2.3 2.3 0 0 1 2.476-.53v-1.589a10.728 10.728 0 0 0-3.422 2.765 14.058 14.058 0 0 0-1.2 1.79c-.212.366-.855 1.5-1.356.929l.236.9 2.6-6.988c.413-1.112-1.365-1.592-1.775-.49Z"/>
        <path fill="#1d1d1b" d="M117.755 180.288c-4.132-.759-7.489-4.115-11.927-3.2a4.72 4.72 0 0 0-3.859 3.531c-.364 2.314 2.071 3.253 3.787 3.983a30.9 30.9 0 0 0 6.766 2.018c1.826.318 4.083.8 5.834-.065a3.062 3.062 0 0 0 1.14-4.435c-1.072-1.742-3.284-2.1-5.161-1.873-4.482.544-8.15 4.187-12.744 4.04-1.185-.038-1.184 1.8 0 1.841 3.223.1 6.043-1.516 8.891-2.794a12.684 12.684 0 0 1 4.63-1.314c1.161-.042 3.624.55 3.021 2.265-.462 1.314-2.83.877-3.829.755a29.268 29.268 0 0 1-5.658-1.3c-.858-.287-1.7-.609-2.531-.977-.67-.3-1.782-.635-2.2-1.282s.208-1.457.709-1.87a3.993 3.993 0 0 1 2.026-.808c3.825-.5 7 2.592 10.621 3.257 1.158.212 1.654-1.561.489-1.775Z"/>
        <path fill="#1d1d1b" d="M65.507 178.35a1.787 1.787 0 0 0-1.766 1.5 2.26 2.26 0 0 0 .821 2.264 11 11 0 0 0 2.522 1.156 6.357 6.357 0 0 1 2.388 1.925.929.929 0 0 0 1.715-.464 6.689 6.689 0 0 0-5.208-6.616c-2.581-.512-7.307.761-6.723 4.222.518 3.069 4.491 4.375 7.185 4.147a8.219 8.219 0 0 0 4.122-1.452c1.19-.859 2.441-2.41 1.425-3.88a4.19 4.19 0 0 0-2.283-1.308l-3.019-1.031-6.269-2.143-.245 1.808a32.07 32.07 0 0 1 8.635 1.115q1.013.276 2.007.617c.143.049.714.359.868.321.026-.236 0-.289-.086-.159q-.063.075-.132.144c-.122.13-.25.256-.379.38a14.137 14.137 0 0 1-3.29 2.345c-1.05.549-.12 2.138.929 1.589a14.751 14.751 0 0 0 4.116-3.09 1.778 1.778 0 0 0 .425-2.206c-.446-.709-1.443-.925-2.183-1.173a33.753 33.753 0 0 0-10.91-1.723.924.924 0 0 0-.244 1.807l8.475 2.9a15.838 15.838 0 0 1 1.68.59c.527.25.513.523.142.972a5.327 5.327 0 0 1-2.7 1.543 6.055 6.055 0 0 1-5.9-1.4c-1.9-2.135 1.685-3.34 3.366-3.225a4.821 4.821 0 0 1 4.361 4.907l1.714-.465a8.443 8.443 0 0 0-3.631-2.839 6.02 6.02 0 0 1-1.7-.723c-.2-.17-.176-.245-.2-.478s.122-.027-.024-.033c1.185.041 1.183-1.8 0-1.84Z"/>
        <path fill="#1d1d1b" d="M24.635 154.109c-.022-.257-.1-1.567.277-1.659.326-.081 1.323 1.705 1.513 1.98q1.963 2.85 3.864 5.745c.3.455.618.9.886 1.376.137.241.376.584.119.733a2.666 2.666 0 0 1-1.167.012 5.385 5.385 0 0 1-1.212-.231 2.672 2.672 0 0 1-1.78-1.838c-.376-1.084-.689-2.194-1.03-3.29l-2.387-7.67-1.775.49a60.636 60.636 0 0 0 7.006 12.649c.688.95 2.285.033 1.589-.929a58.768 58.768 0 0 1-6.82-12.21c-.435-1.063-2.136-.672-1.775.49l2.832 9.1c.415 1.335.721 2.891 1.763 3.9a5.313 5.313 0 0 0 3.095 1.326c1.1.139 2.58.242 3.293-.8.774-1.128.031-2.393-.611-3.376q-2.547-3.9-5.211-7.727c-.737-1.052-1.91-2.17-3.225-1.249a3.53 3.53 0 0 0-1.084 3.171c.1 1.171 1.94 1.182 1.84 0Z"/>
        <path fill="#1d1d1b" d="m65.221 18.864 1.764-4.749c.164-.443.371-1.31.827-1.584.24-.144.147-.214.286-.012.116.169.024.583-.007.768A16.037 16.037 0 0 1 66.7 17.32c-.176.371-.361.737-.559 1.1-.095.173-.322.742-.536.811-.464.15-.12-.7.025-.933a14.059 14.059 0 0 1 1.323-1.586q.822-.964 1.624-1.942 1.38-1.682 2.7-3.407Q74.173 7.6 76.8 3.636l-1.72-.464a7.974 7.974 0 0 1-2.421 5.9 19.155 19.155 0 0 1-2.506 2.194c-.246.185-2.276 1.827-2.476 1.608-.8-.877-2.1.427-1.3 1.3 1 1.1 2.394.331 3.375-.359A31.678 31.678 0 0 0 73.331 11c2.148-2.033 3.779-4.786 3.59-7.83a.929.929 0 0 0-1.715-.465 131.8 131.8 0 0 1-6.15 8.536q-1.563 1.992-3.2 3.922c-.888 1.047-2.276 2.218-2.328 3.7a2.078 2.078 0 0 0 2.217 2.252c1.372-.2 2.021-1.767 2.543-2.869a18.531 18.531 0 0 0 1.6-4.578c.2-1.138.03-2.563-1.223-3.01-1.4-.5-2.522.745-3.041 1.906-.839 1.876-1.459 3.881-2.174 5.808-.413 1.112 1.365 1.592 1.775.489Z"/>
        <path fill="#1d1d1b" d="M63.264 19.3c-1.289.527-4.913 1.351-3.793 3.488a13.6 13.6 0 0 0 2.518 2.7l3.041 3.093.186-1.445c-.887.583-2.161-2.165-2.422-2.69a7.9 7.9 0 0 1-.968-3.728c.078-2.284 1.679-4.063 3.436-5.348C68.519 12.988 74.04 9.9 78 12.174l.709-1.682a15.781 15.781 0 0 0-19.051 8.952A13.552 13.552 0 0 0 59.5 30.13c1.619 3.592 5.194 5.44 8.882 6.256 1.154.255 1.647-1.519.489-1.775-3.162-.7-6.286-2.145-7.707-5.242a11.8 11.8 0 0 1 .347-9.6 13.945 13.945 0 0 1 16.706-7.5.924.924 0 0 0 .709-1.681c-2.881-1.659-6.171-1.033-9.095.183a21.866 21.866 0 0 0-7.522 4.742 7.806 7.806 0 0 0-1.86 8.091c.65 1.914 2.9 6.958 5.693 5.124a.932.932 0 0 0 .186-1.445l-3.678-3.747a16.907 16.907 0 0 1-1.387-1.43c.1-.21 1.068-.447 1.262-.526l1.228-.5c1.081-.442.608-2.223-.489-1.774Z"/>
        <path fill="#1d1d1b" d="m57.105 24.366-16.518 48.18c-.384 1.123 1.393 1.6 1.775.49L58.88 24.855c.385-1.122-1.392-1.605-1.775-.489Z"/>
        <path fill="#1d1d1b" d="M37.659 72.526c-1.423 3.753-3 7.484-4.279 11.289a2.683 2.683 0 0 0 1.046 3.485 3.918 3.918 0 0 1 2.3 3.757.927.927 0 0 0 1.715.465 179.619 179.619 0 0 0 7.164-18.076.927.927 0 0 0-.643-1.132l-2.993-.645a4.307 4.307 0 0 0-2.466-.1c-1.362.512-1.691 2.077-1.836 3.36-.132 1.175 1.709 1.165 1.841 0a3.775 3.775 0 0 1 .278-1.2c.269-.546.612-.493 1.165-.4 1.18.2 2.353.507 3.522.759l-.643-1.132a174.929 174.929 0 0 1-6.978 17.636l1.714.464a5.588 5.588 0 0 0-1.33-3.928 5.874 5.874 0 0 0-1.658-1.3c-.826-.464-.625-.967-.335-1.773 1.329-3.7 2.793-7.363 4.188-11.041.421-1.108-1.358-1.588-1.775-.489Z"/>
        <path fill="#1d1d1b" d="m33.783 87.621-9.829 26.038-4.914 13.019c-1.5 3.984-3.014 8.031-2.873 12.357.038 1.182 1.879 1.187 1.84 0-.146-4.488 1.6-8.676 3.158-12.8l4.735-12.552 9.654-25.572c.419-1.11-1.36-1.589-1.775-.49Z"/>
        <path fill="#1d1d1b" d="m16.952 139.043-1.252 3.222c-.39 1-1.013 2.109-.809 3.215a4.509 4.509 0 0 0 1.612 2.315l2.561 2.416a.931.931 0 0 0 1.571-.651l.085-6.916.041-3.4a3.294 3.294 0 0 0-.591-2.578c-.72-.7-2.016-.522-2.935-.559s-2.164-.282-2.662.715a2.153 2.153 0 0 0 .51 2.231 24.024 24.024 0 0 1 1.656 2.279 20.559 20.559 0 0 1 2.531 6.039l1.538-.9L16 142.366c-.895-.766-2.2.53-1.3 1.3l4.805 4.114a.928.928 0 0 0 1.538-.9 22.315 22.315 0 0 0-2.28-5.746 21.76 21.76 0 0 0-1.655-2.478 6.771 6.771 0 0 0-.789-1.035.582.582 0 0 1-.069-.2l-.239.476a7.1 7.1 0 0 0 .978.039 11.942 11.942 0 0 0 1.71.068c.295-.033.141-.062.214.091a1.958 1.958 0 0 1 .012.644c-.011 1.173-.029 2.347-.043 3.521l-.089 7.293 1.571-.651-2.12-2c-.48-.452-1.561-1.164-1.564-1.9a3.725 3.725 0 0 1 .389-1.217l.538-1.38 1.123-2.877c.43-1.1-1.349-1.582-1.775-.489Z"/>
        <path fill="#1d1d1b" d="M65.308 20.092c1.629-3.18 1.584-7.119 5.067-9a35.221 35.221 0 0 1 11.287-3.245c8.32-1.248 16.812-.418 25.015 1.222 7.643 1.528 15.217 3.6 22.675 5.857a127.851 127.851 0 0 1 19.9 7.625 65.673 65.673 0 0 1 19.111 13.88c.807.87 2.107-.434 1.3-1.3-10.1-10.879-23.96-17.006-37.886-21.382-7.694-2.417-15.536-4.559-23.429-6.212C99.965 5.78 91.313 4.785 82.77 5.853a40.834 40.834 0 0 0-12.96 3.466 8.211 8.211 0 0 0-3.982 4.028c-.854 1.886-1.163 3.969-2.11 5.816-.539 1.052 1.049 1.984 1.59.929Z"/>
        <path fill="#1d1d1b" d="M169.522 36.667a30.039 30.039 0 0 1 12.018 19.307 10.127 10.127 0 0 1-.535 6.1 6.816 6.816 0 0 1-4.44 3.307c-4.077 1.168-8.748.816-12.935.673a92.536 92.536 0 0 1-14.171-1.454 102.984 102.984 0 0 1-13.573-3.851c-8.672-2.922-17.347-5.846-25.9-9.1A222.381 222.381 0 0 1 81.689 38.8c-1.038-.572-1.968 1.017-.929 1.589 17.2 9.483 35.86 15.81 54.41 22.061a101.464 101.464 0 0 0 14.743 4.1 99.954 99.954 0 0 0 15.2 1.386c4.181.09 8.973.42 12.956-1.12 3.824-1.48 5.654-4.856 5.506-8.879-.334-9.012-5.972-17.689-13.127-22.854-.962-.694-1.882.9-.929 1.589Z"/>
        <path fill="#1d1d1b" d="M81 38.45a17.606 17.606 0 0 1-10.42-6.839 37.318 37.318 0 0 1-3.733-6.033A82.131 82.131 0 0 1 65.31 22.4a7.828 7.828 0 0 1-1.131-3.773c.082-1.182-1.759-1.177-1.841 0a7.642 7.642 0 0 0 .919 3.69q.837 1.863 1.749 3.694a39.887 39.887 0 0 0 4.127 6.719c2.845 3.652 6.751 6.638 11.382 7.5 1.158.214 1.654-1.559.489-1.775Z"/>
        <path fill="#1d1d1b" d="M102.476 128.621c-2.513 5.32-5.418 11.254-4.992 17.311.428 6.08 7.628 5.969 12.2 5.5a9.921 9.921 0 0 0 3.589-.774c-.045.024.892-.428.519-.364-.062.011-.05.027.116.01a4.436 4.436 0 0 1 1.1.135c1.2.2 2.96.861 4.156.415.731-.272.874-1.066 1.127-1.725.39-1.014.754-2.037 1.082-3.072a30.926 30.926 0 0 0 1.409-6.529c.3-3.351-.424-7.385-3.982-8.667-3.36-1.212-7.231-1.25-10.746-1.686a13.943 13.943 0 0 1-4.416-.837c.082.042-.688-.471-.551-.439l-.277.18.456.1a11.181 11.181 0 0 0 2.509.529l5.019 1.058c1.563.329 3.134.638 4.693.99 1.381.312 2.677.728 3.321 2.105 1.109 2.369.342 5.634-.157 8.055a39.523 39.523 0 0 1-1.4 5.057c-.269.772-.548 1.547-.885 2.292-.5 1.1-1.2.963-2.244.839q-2.682-.317-5.346-.755-1.338-.219-2.67-.467a7.338 7.338 0 0 1-2.421-.567c-.692-.437-.544-1.412-.961-2.056a3.256 3.256 0 0 0-1.331-1.038c-1.3-.69-1.543-1.815-1.384-3.224a23.246 23.246 0 0 1 1.272-4.648q.9-2.679 2.032-5.271h-1.589c1.722 2.566 3.766 5.575 3.158 8.829a16.877 16.877 0 0 1-1.887 4.52l-2.462 4.76a.931.931 0 0 0 .55 1.352 91.783 91.783 0 0 0 12.121 1.235 15.272 15.272 0 0 0 4.853-.194 3.354 3.354 0 0 0 2.322-2.949c.362-1.984.654-3.983.981-5.973.307-1.87.756-3.771.917-5.659a2.732 2.732 0 0 0-1.757-2.916c-1.564-.707-3.074-1.161-3.235-3.183-.094-1.173-1.935-1.183-1.841 0a5.161 5.161 0 0 0 1.363 3.217c.879.937 1.968 1.107 3.048 1.675.893.469.546 1.408.409 2.242l-.415 2.527-.867 5.283c-.221 1.342-.1 3.662-1.71 4.039a19.26 19.26 0 0 1-4.986.015 87.739 87.739 0 0 1-10.714-1.134l.55 1.352 2.783-5.381a15.072 15.072 0 0 0 1.868-5.087c.409-3.522-1.582-6.7-3.46-9.5-.342-.51-1.291-.683-1.589 0a54.124 54.124 0 0 0-3.307 9.343c-.454 1.971-.563 4.5 1.245 5.849.391.291 1.016.424 1.357.763.516.516.43 1.476.884 2.077.76 1.006 2.116 1.174 3.27 1.393a88.863 88.863 0 0 0 9.8 1.466c3.044.229 3.751-3.542 4.462-5.824a35.577 35.577 0 0 0 1.693-8.942c.1-2.227-.319-4.742-2.241-6.14a9.45 9.45 0 0 0-3.731-1.325q-2.738-.579-5.475-1.155l-4.562-.962c-1.076-.226-2.88-1-3.71.139-1.16 1.589 1.007 3.11 2.336 3.473 3.737 1.018 7.75.992 11.559 1.631 1.369.229 3.07.405 4.129 1.4 1.46 1.369 1.648 3.567 1.557 5.45a27.193 27.193 0 0 1-1.444 6.935 55.697 55.697 0 0 1-1.034 2.924c-.02.051-.307.743-.294.751l.37-.28h-.049a8.376 8.376 0 0 0-1.176-.116c-.921-.145-1.833-.348-2.758-.464a3.262 3.262 0 0 0-2.269.537c-1.569.737-3.708.662-5.412.68a15.143 15.143 0 0 1-5.144-.562c-3.715-1.314-2.522-6.4-1.784-9.333a56.823 56.823 0 0 1 4.057-10.3c.5-1.065-1.083-2-1.589-.929Z"/>
        <path fill="#1d1d1b" d="m114.744 133.311 6.174-16.349 3-7.941 1.588-4.2c.365-.967.718-2.772 1.843-3.126l-1.132-.642a1.019 1.019 0 0 1-.169 1.1c-.716.943.881 1.861 1.589.929a2.568 2.568 0 0 0 .355-2.515.937.937 0 0 0-1.132-.642c-2.282.717-2.828 3.614-3.57 5.579l-3.44 9.108-6.879 18.218c-.419 1.109 1.359 1.588 1.774.489Z"/>
        <path fill="#1d1d1b" d="m111.158 136.052 7.113-18.887 3.513-9.328c.793-2.107 1.563-5.863 4.167-6.429l-1.132-.643a1.568 1.568 0 0 1-.283 1.33c-.66.988.934 1.91 1.589.929a3.362 3.362 0 0 0 .468-2.748.936.936 0 0 0-1.132-.643c-2.38.518-3.546 2.755-4.368 4.842-1.349 3.424-2.6 6.891-3.894 10.335l-7.815 20.753c-.418 1.11 1.36 1.589 1.774.489Z"/>
        <path fill="#1d1d1b" d="M105.63 151.049c-4.9 12.517-9.716 25.061-14.288 37.7q-2.248 6.219-4.466 12.449c-.4 1.118 1.379 1.6 1.775.49 4.517-12.66 9.111-25.287 13.955-37.826q2.383-6.169 4.8-12.326c.432-1.1-1.347-1.582-1.774-.489Z"/>
        <path fill="#1d1d1b" d="M102.328 150.841c-4.341 12.293-8.253 24.737-12.859 36.936q-2.379 6.3-4.933 12.539c-.447 1.1 1.333 1.574 1.775.489 5.09-12.5 9.5-25.209 13.826-37.989q1.949-5.754 3.966-11.486c.4-1.119-1.382-1.6-1.775-.489Z"/>
        <path fill="#1d1d1b" d="M109.682 133.13c-.222.59-.446 1.18-.665 1.772a1.346 1.346 0 0 0 .07 1.205 1.451 1.451 0 0 0 .987.609 7.026 7.026 0 0 0 3.321.048 3.269 3.269 0 0 0 1.523-.888 1.472 1.472 0 0 0 .379-1.213 1.777 1.777 0 0 0-.6-1.037 3.332 3.332 0 0 0-2.613-.829 3.411 3.411 0 0 0-2.7 1.721.93.93 0 0 0 .55 1.351 4.146 4.146 0 0 0 4.194-1.722.928.928 0 0 0-.55-1.351 2.526 2.526 0 0 0-2.447.578.927.927 0 0 0 0 1.3.94.94 0 0 0 1.3 0c.159-.145-.163.089.022-.021l.115-.068c.174-.105-.172.041.025-.012.054-.014.106-.032.161-.044l.065-.013c.07-.012.044-.008-.079.012.013-.019.147 0 .167 0 .187.006.018-.033-.013-.008.022-.018.172.045.193.051l-.55-1.351a2.681 2.681 0 0 1-.078.108l.062-.081c-.017.051-.095.11-.133.15a1.18 1.18 0 0 1-.293.272.626.626 0 0 0 .027-.023l-.055.038c-.055.037-.112.073-.169.107s-.116.066-.176.1c-.026.013-.267.109-.133.065l-.109.035q-.1.032-.192.057a2.802 2.802 0 0 1-.3.063l.079-.01c-.133.01-.265.02-.4.018-.067 0-.133-.01-.2-.011s-.044 0 .079.013a2.751 2.751 0 0 1-.131-.022l.549 1.352c.034-.065.069-.129.108-.19a.5.5 0 0 0 .06-.09c-.007.08-.122.144-.045.059.048-.053.094-.107.145-.158l.079-.073c.1-.086.121-.038-.02.009a3.585 3.585 0 0 0 .367-.225.46.46 0 0 0 .1-.046c-.011.012-.214.08-.069.03.077-.026.153-.054.232-.076s.141-.037.212-.051l.108-.019c.117-.026-.2.01-.083.011.164 0 .325-.014.489-.006.224.011-.2-.044.024 0 .07.014.14.028.21.047s.136.047.2.066c.113.03-.174-.086-.071-.032l.121.058c.063.034.125.07.184.109a.513.513 0 0 0 .088.062c-.119-.033-.131-.112-.059-.043s.112.114.17.166c-.121-.109-.027-.064-.01-.008a.454.454 0 0 1-.017-.3c.01-.032.1-.174.011-.042.04-.06.115-.089.01-.033-.039.021-.115.129.027-.013a.741.741 0 0 1-.115.08 2.714 2.714 0 0 1-.239.14c-.016.008-.121.062-.124.059s.187-.07 0 0a3.4 3.4 0 0 1-.534.138c-.033.006-.183.02-.05.009s-.02 0-.053 0a4.865 4.865 0 0 1-.319.016c-.193 0-.385 0-.577-.018-.109-.008-.217-.022-.326-.032-.136-.012.164.026.029 0l-.18-.027a6.555 6.555 0 0 1-.654-.124c-.069-.018-.1-.076-.03-.005a.558.558 0 0 1 .368.56l-.012.106s.126-.352.138-.382l.588-1.567a.923.923 0 0 0-.643-1.132.945.945 0 0 0-1.132.643Z"/>
        <path fill="#1d1d1b" d="M87.785 199.894c-2.135 3.083-2.643 6.889-2.38 10.559.147 2.041.562 4.048.761 6.083a60.25 60.25 0 0 1 .252 6.717 31.607 31.607 0 0 1-.73 7.028c-.513 2.135-1.236 4.211-1.958 6.283q-2.361 6.773-4.73 13.542c-.391 1.121 1.387 1.6 1.775.49l4.563-13.076c1.474-4.223 2.747-8.331 2.885-12.834a83.752 83.752 0 0 0-.845-12.846c-.463-3.8-.247-7.783 1.993-11.017.676-.976-.918-1.9-1.589-.929Z"/>
        <path fill="#1d1d1b" d="M85.063 199.922c-4.215 7.016-.831 15.439-1.051 23.023-.262 9-4.037 17.461-7.659 25.547-.48 1.072 1.106 2.009 1.589.929 3.525-7.868 7.112-15.96 7.81-24.659.332-4.128-.309-8.153-.722-12.247-.4-3.984-.509-8.117 1.623-11.664a.921.921 0 0 0-1.59-.929Z"/>
        <path fill="#1d1d1b" d="M76.325 246.637a4.036 4.036 0 0 0 .287 5.53 2.919 2.919 0 0 0 1.764.792 2.4 2.4 0 0 0 1.791-.831c.459-.466.9-.951 1.346-1.426a5.554 5.554 0 0 0 1.228-1.5c.328-.791-.108-1.416-.614-1.993A6.341 6.341 0 0 0 80.766 246a3.079 3.079 0 0 0-3.213-.124 2.294 2.294 0 0 0-.738 3.158 2.783 2.783 0 0 0 3.286 1.128 2.45 2.45 0 0 0 1.684-1.383 1.445 1.445 0 0 0-1.419-1.772 2.622 2.622 0 0 0-1.973 1.185 3.453 3.453 0 0 0-.658 1.888.929.929 0 0 0 1.571.651A12.672 12.672 0 0 0 81.9 246.2a.926.926 0 0 0-1.352-1.04 8.378 8.378 0 0 0-3.171 4.84.928.928 0 0 0 1.538.895 2.937 2.937 0 0 0 .626-3.37.93.93 0 0 0-1.259-.33 2.172 2.172 0 0 0-1.077 1.714.921.921 0 0 0 .92.92.948.948 0 0 0 .92-.92c-.014.111-.008.03.023-.016-.084.128.066-.076 0 0a.545.545 0 0 1 .141-.109l-1.259-.33c-.072-.166.008.064.019.1.069.224.009-.145.018.09v.255c-.01.24.05-.14-.017.091-.024.082-.044.164-.074.244.056-.147-.028.047-.052.088-.011.018-.137.2-.072.116.048-.061-.132.13-.159.155l1.538.895a7.259 7.259 0 0 1 .36-1.173c-.056.137.046-.1.057-.127q.07-.15.147-.3.141-.273.305-.533a4.835 4.835 0 0 1 .659-.864q.192-.21.4-.4c.069-.064.139-.127.211-.189.025-.022.281-.228.182-.152l-1.352-1.04a10.659 10.659 0 0 1-2.115 3.726l1.571.65c.016-.281-.053.159.009-.116.02-.089.04-.176.067-.263 0-.011.118-.273.042-.118a2.415 2.415 0 0 1 .132-.239c.031-.05.065-.1.1-.15-.1.135.089-.088.092-.091a1.738 1.738 0 0 1 .2-.182c-.171.127.241-.134.1-.058.184-.1.052.027-.021-.02a.686.686 0 0 1-.238-.179c-.129-.19-.035-.373.034-.549l-.061.055c.071-.056.059-.05-.035.017-.084.048-.165.1-.25.144-.225.122.109-.014-.136.056-.062.017-.122.038-.185.053s-.125.029-.188.039c.087-.012.074-.014-.039 0a2.682 2.682 0 0 1-.283-.008c.181.025-.119-.04-.125-.041-.264-.064.051.04-.07-.027a1.5 1.5 0 0 1-.175-.108c.156.116-.047-.06-.063-.074-.162-.149.045.118-.058-.076-.011-.021-.132-.262-.055-.074-.011-.026-.094-.3-.067-.191.032.132 0-.112 0-.118-.023-.252-.021.179.011-.072l.024-.078c-.043.095-.041.1.005 0 .189-.151-.145.109.036-.055 0 0 .184-.161.076-.077s.095-.054.095-.054c.179-.128-.153.03.061-.033.1-.029.2-.057.3-.078-.2.041.154.006.23 0 .237-.008-.159-.054.07.007.076.02.151.038.227.06a2.762 2.762 0 0 1 .76.478 10.362 10.362 0 0 1 .757.8c.016.018.113.1.1.127a2.749 2.749 0 0 0 .014-.327l-.045.075c.054-.066.046-.058-.025.025-.088.092-.174.186-.262.279-.622.66-1.232 1.337-1.87 1.982-.07.07-.139.142-.216.205.087-.071-.039.025-.047.031l-.084.049c.075-.025.059-.021-.049.012.179-.02-.173-.006 0 .011a1.01 1.01 0 0 1-.285-.081c.134.06-.15-.1-.137-.088s-.23-.165-.114-.075c.087.069-.118-.11-.138-.129-.054-.054-.1-.112-.155-.168q-.1-.12 0 .006a2.792 2.792 0 0 1-.086-.126 3.007 3.007 0 0 1-.216-.4c.088.2-.007-.035-.017-.066-.032-.1-.06-.2-.083-.3-.017-.075-.029-.151-.043-.227.04.22 0-.025 0-.062a3.718 3.718 0 0 1 .012-.538c-.019.229 0-.018.013-.059.016-.074.034-.149.055-.222s.047-.145.071-.218c.039-.1.037-.095 0 .009.022-.046.044-.091.068-.136.037-.067.076-.133.118-.2q.042-.064.087-.126c-.065.085-.064.087 0 .007a.942.942 0 0 0 0-1.3.928.928 0 0 0-1.3 0Z"/>
        <path fill="#1d1d1b" d="M128.75 182.154c-1.928 4.636-3.721 9.331-5.278 14.1-.779 2.387-1.5 4.793-2.129 7.223q-.453 1.751-.839 3.519a4.884 4.884 0 0 0-.186 2.794c.068.183.492.813.426 1 .141-.4-1.194-.511-1.45-.608a2.093 2.093 0 0 1-1.369-1.247c-.17-.66.353-1.513 1.079-1.008 1.174.818-.465 2.071-1.455 1.551-1.215-.637-.322-2.456.883-2.393.707.037 2.049 1.615 1.245 2.241-.723.562-.733-.585-.673-.925a8.26 8.26 0 0 1 .925-2.09c1.124-2.209 1.289-4.617 1.9-7 1.406-5.466 3.942-10.549 6.01-15.778.435-1.1-1.344-1.579-1.775-.489-1.556 3.937-3.369 7.777-4.78 11.77a45.822 45.822 0 0 0-1.629 5.713c-.217 1.018-.321 2.075-.584 3.082a21.406 21.406 0 0 1-1.368 3.09c-.574 1.312-.923 2.72.08 3.936a2.04 2.04 0 0 0 3.273-.08c1.819-2.382-.8-6.108-3.653-5.15-2.914.981-3.051 5.281.1 5.981a2.992 2.992 0 0 0 3.253-1.273 2.8 2.8 0 0 0-.824-3.779c-2.946-1.8-5.038 2.335-2.964 4.492a4.749 4.749 0 0 0 4.485 1.3 1.527 1.527 0 0 0 1.1-1.126c.14-.7-.344-1.169-.493-1.8-.213-.9.333-2.244.545-3.147q.395-1.68.851-3.344a129.461 129.461 0 0 1 2.074-6.814c1.491-4.481 3.183-8.892 5-13.252.454-1.092-1.326-1.569-1.775-.489Z"/>
        <path fill="#1d1d1b" d="M5.7 197.107c-.079-.032-.157-.065-.235-.095 0 0 .25.136.129.051l.33.331-.33 1.259-.465.126c-.354-.012-.26-.042-.114.006l.242.082a1.062 1.062 0 0 0 .988 0 .928.928 0 0 0 .33-1.259 1.309 1.309 0 0 0-.7-.492 8.015 8.015 0 0 0-.738-.267 4.465 4.465 0 0 0-2.09-.166 2.272 2.272 0 0 0-1.739 1.6 5.035 5.035 0 0 0-.147 1.244 5.325 5.325 0 0 0 .058.993 1.293 1.293 0 0 0 1.2 1.194 1.867 1.867 0 0 0 1.4-.9 11.424 11.424 0 0 0 1.1-1.768 6.611 6.611 0 0 0 .663-1.667 1.42 1.42 0 0 0-.808-1.807 2.447 2.447 0 0 0-1.957.59.95.95 0 0 0-.437 1.038 8.407 8.407 0 0 1 .2.887 1.078 1.078 0 0 0 .287.682.952.952 0 0 0 1.5-.243c.083-.141.156-.286.248-.422.035-.053.072-.1.109-.155.083-.115-.051.068-.056.073a1.149 1.149 0 0 0 .082-.1 5.665 5.665 0 0 0 .491-.561 1.692 1.692 0 0 0 .145-.866c.015.214-.029.173-.01.079.008-.035.013-.07.021-.1.014-.059.038-.116.05-.175.024-.113-.044.14-.06.135 0 0 .031-.064.035-.069.095-.13-.063.077-.087.1.031-.033.082-.069-.062.042a.486.486 0 0 1-.275.144l-.34-.045a.617.617 0 0 1-.658-.365 1.146 1.146 0 0 1-.117-.411c-.008-.262.049-.268.013-.149-.041.138.131-.247.036-.089-.027.044-.051.088-.08.131-.018.027-.041.053-.058.082.046-.076.134-.166.027-.044a7.959 7.959 0 0 0-.736.84 2.846 2.846 0 0 0-.391.95 3.771 3.771 0 0 0 .256 2.3 3.308 3.308 0 0 0 1.383 1.559c.69.386 1.689.566 2.175-.235a2.79 2.79 0 0 0 0-2.023 30.613 30.613 0 0 1-.206-1.045c-.022-.124.028.253.01.07 0-.049-.011-.1-.015-.149-.008-.081-.013-.163-.016-.245s0-.161 0-.241c0-.039 0-.078.007-.117.009-.215-.034.208-.008.038a1 1 0 0 0-.092-.709.92.92 0 0 0-1.682.22 8.839 8.839 0 0 0 .319 3.1c.019.1.045.425.018.064.006.078.017.155.018.233v.1c0 .062.066-.277.016-.131s.077-.161.059-.126l-.016.027c.1-.177.078-.119.184-.2.141-.108.094-.068.062-.049-.088.051.188-.076.162-.068-.091.028.256 0 .152-.018-.041-.006-.185-.016.009.009s.018 0-.031-.017l-.139-.047c-.145-.05.193.1.027.008-.1-.054-.2-.136-.3-.181-.009 0 .163.137.1.074-.023-.021-.048-.039-.071-.059q-.06-.054-.117-.111c-.033-.033-.064-.067-.095-.1s-.04-.048-.06-.071c-.081-.092.049.057.059.076-.046-.094-.124-.181-.176-.274-.027-.048-.052-.1-.076-.145l-.029-.064c-.067-.137.063.174.029.069s-.068-.191-.094-.29a3.054 3.054 0 0 1-.038-.159c-.008-.038-.044-.266-.018-.085s0-.022 0-.063v-.324c.006-.091.061-.269-.009.017.024-.1.036-.194.063-.289.014-.051.033-.1.048-.151s.077-.124-.042.094c.014-.026.025-.055.038-.082a2.754 2.754 0 0 1 .161-.273c.078-.122-.155.171-.016.024.043-.046.085-.091.13-.135a2.77 2.77 0 0 0 .858-1.241 1.03 1.03 0 0 0-.437-1.155 1 1 0 0 0-1.211.185 2.527 2.527 0 0 0-.512 1.741l.269-.651a5.978 5.978 0 0 0-.822 1.007 4.441 4.441 0 0 0-.155.268c-.014.025-.028.05-.041.077 0 .01-.013.02-.018.031a1.033 1.033 0 0 1 .766-.427l.465.126.322.321.088.208-.006-.024a.37.37 0 0 0-.01-.058c-.013-.075-.022-.15-.035-.224a8.351 8.351 0 0 0-.189-.84l-.423 1.039a5.447 5.447 0 0 1 .645-.383c.019-.009.04-.016.059-.026s-.208.072-.127.055c.04-.009.079-.028.119-.039.007 0 .092-.022.092-.021 0 .035-.306 0-.112.023.121.011-.267-.05-.157-.02.037.01.1.039-.072-.032s0 .028-.153-.09c-.172-.134.021.059-.112-.112-.1-.132-.07-.095-.05-.061.052.087-.077-.188-.067-.163.017.044.03.164 0-.032s-.007-.077-.008-.032v.1c0 .167.025-.135.015-.1-.049.177-.083.354-.145.529a7.225 7.225 0 0 1-.049.134c-.012.03-.094.228-.03.078s-.013.027-.027.061a2.33 2.33 0 0 1-.1.2 13.084 13.084 0 0 1-.83 1.48c-.067.1-.136.206-.208.306-.034.048-.073.094-.1.143-.008.012.134-.165.072-.094-.02.022-.037.046-.056.068a2.525 2.525 0 0 1-.172.186 1.062 1.062 0 0 0-.085.078c-.021.026.214-.14.083-.067-.178.1.223-.057.068-.024a.716.716 0 0 1 .542.069c-.047-.027.22.18.132.1-.039-.037.157.237.09.108-.05-.1.078.244.053.127-.008-.039-.023-.076-.032-.115s-.013-.067-.02-.1c-.028-.13.024.269.011.07-.007-.1-.013-.2-.015-.3 0-.271.011-.543.033-.813l.009-.106c.017-.2 0 .038 0 .038l.048-.2c.012-.052.058-.083 0-.02-.078.084 0-.01.026-.047s.036-.059.053-.089c.06-.11-.021.047-.052.062.038-.019.09-.1.12-.125a.619.619 0 0 0 .055-.047s-.164.1-.089.073a1.1 1.1 0 0 0 .123-.072c.17-.1-.184.052 0 0 .055-.015.109-.032.166-.044a.842.842 0 0 0 .1-.018c-.028.01-.222.02-.094.015s.262-.01.394 0c.063 0 .127.014.19.018-.284-.015-.049 0 .028.009.138.026.274.059.409.1a7.149 7.149 0 0 1 .755.259 1.858 1.858 0 0 0 .191.077s-.263-.127-.157-.065l.019.01-.331-.331.33-1.259.464-.126c.355.012.26.042.114-.006l-.242-.082a1.062 1.062 0 0 0-.988 0 .929.929 0 0 0-.33 1.259 1.708 1.708 0 0 0 .876.56.922.922 0 0 0 1.132-.642.947.947 0 0 0-.642-1.132Z"/>
        <path fill="#1d1d1b" d="M29.3 160.7c-7.765-1.906-11.76 6.9-14.6 12.407q-5.691 11.04-10.555 22.479c-.459 1.077 1.126 2.016 1.589.929q4.4-10.329 9.468-20.353a84.925 84.925 0 0 1 4.951-9.133c1.9-2.823 5.025-5.445 8.654-4.554 1.15.282 1.641-1.492.49-1.775Z"/>
        <path fill="#1d1d1b" d="M30.235 161.458c-3.779.5-6.709 2.894-9.066 5.765a48.629 48.629 0 0 0-6.685 10.867c-1.613 3.584-2.8 7.339-4.389 10.934a34.347 34.347 0 0 1-2.832 5.288c-1.031 1.541-2.63 2.816-3.295 4.559-.423 1.108 1.356 1.587 1.775.49a9.792 9.792 0 0 1 1.787-2.322 25.984 25.984 0 0 0 1.542-2.131 34.419 34.419 0 0 0 2.448-4.587c1.481-3.286 2.611-6.714 4-10.036a49.779 49.779 0 0 1 6.1-10.677c2.132-2.831 4.909-5.817 8.613-6.309 1.157-.154 1.172-2 0-1.841Z"/>
        <path fill="#1d1d1b" d="M12.9 146.262c9.015 17.727 24.677 31.175 43 38.658a105.83 105.83 0 0 0 31.968 7.344 84.727 84.727 0 0 0 16.348.094c3.128-.38 6.011-1.317 7.408-4.326.595-1.281-1.308-2.4-1.907-1.115-2.132 4.591-9.787 3.517-13.9 3.478a114.763 114.763 0 0 1-15.56-1.176 98.6 98.6 0 0 1-28.341-8.464 80.205 80.205 0 0 1-37.11-35.608c-.644-1.267-2.551-.151-1.907 1.115Z"/>
        <path fill="#1d1d1b" d="M107.932 191.155c11.187-.535 25-3.433 30.647-14.183.66-1.257-1.245-2.375-1.907-1.114-5.245 9.99-18.371 12.593-28.74 13.088-1.415.068-1.423 2.277 0 2.209Z"/>
        <path fill="#1d1d1b" d="M89.42 6.976a2.854 2.854 0 0 0 .016-.285c-.011.07.071-.226.09-.271-.02.058-.006.034.042-.07.035-.062.073-.122.113-.18-.033.048-.013.028.06-.059a1.774 1.774 0 0 1 .156-.144 1.183 1.183 0 0 1 1.094-.067c.009 0 .162.085.152.1a.438.438 0 0 1-.066-.286.129.129 0 0 1-.059.121 3.364 3.364 0 0 1-.416.523 2.659 2.659 0 0 1-1.376.7l1.039.423a1.446 1.446 0 0 1 .485-1.685c.588-.579 1.407-.886 1.948-1.514a2.525 2.525 0 0 0 .575-1.381 1.95 1.95 0 0 1 .1-.465.947.947 0 0 1 .186-.209c.58-.46 1.522-.256 2.252-.1L96.056.3a5.846 5.846 0 0 0-3.151.805 2.727 2.727 0 0 0-1.225 2.734 1.99 1.99 0 0 0 3.443 1.1 1.818 1.818 0 0 0 .444-1.594.926.926 0 0 0-1.132-.645.945.945 0 0 0-.643 1.132.206.206 0 0 1-.013-.136c.041-.083.035-.077-.019.019.052-.069.04-.063-.034.017.052-.041.052-.044 0-.01s-.053.031.01 0c-.111.025-.119.032-.027.021-.112 0-.122 0-.028.009-.105-.029-.119-.035-.043-.017.072.109-.1-.095-.1-.1.04.042-.018-.049-.035-.1-.007-.023-.038-.284-.031-.143a1.44 1.44 0 0 1 0-.2c-.007.083 0 .069.023-.043a1.4 1.4 0 0 1 .807-.736 5.78 5.78 0 0 1 1.753-.278.926.926 0 0 0 .9-.8.915.915 0 0 0-.655-.999 4.858 4.858 0 0 0-3.538.206 2.613 2.613 0 0 0-1.121 1.281c-.153.386-.1.983-.316 1.226a6.611 6.611 0 0 1-1.069.771 5.783 5.783 0 0 0-1.281 1.217 3.073 3.073 0 0 0-.3 3.361.948.948 0 0 0 1.039.423 4.416 4.416 0 0 0 2.564-1.6 2.184 2.184 0 0 0 .6-1.756 1.815 1.815 0 0 0-1.078-1.21 2.976 2.976 0 0 0-3.124.346 3.019 3.019 0 0 0-1.033 2.864.926.926 0 0 0 1.132.643.944.944 0 0 0 .642-1.132Z"/>
        <path fill="#1d1d1b" d="m125.716 11.877 1.129-2.789h-1.774a3.411 3.411 0 0 1-.022 2.3.835.835 0 0 1-.5.434c.116-.024-.072.005-.1 0-.088 0 .043.021-.1-.01s-.074-.014-.184-.088c.061.041 0 .009-.028-.045.047.1-.011.062.024.042s.006-.031-.019.041c.039-.109.012-.048.053-.094.02-.022-.01-.06.08-.056-.014 0-.13.08-.136.047-.012-.067-.022.055-.021.036 0 .03.146.161.169.19a9.277 9.277 0 0 1 1.319 2.277l.237-.895c.091-.082-.109.022-.023.012-.014 0-.235 0-.207.005a3.875 3.875 0 0 1-.822-.228c-.675-.226-1.349-.456-2.023-.684l-4.121-1.393a.92.92 0 0 0-.49 1.774l4.721 1.6c1.332.45 3.03 1.33 4.267.218a.893.893 0 0 0 .236-.895 12.421 12.421 0 0 0-1.077-2.108c-.419-.644-.919-1.454-1.7-1.68a1.887 1.887 0 0 0-2.052 2.723 2.319 2.319 0 0 0 3.558.388c1.236-1.155 1.045-2.9.739-4.4a.929.929 0 0 0-.887-.676.964.964 0 0 0-.887.676l-1.13 2.789a.926.926 0 0 0 .643 1.132.944.944 0 0 0 1.132-.643Z"/>
        <path fill="#1d1d1b" d="M119.639 11.8a1.127 1.127 0 0 1 .1-.683l-1.132.643a132.875 132.875 0 0 1 14.19 2.911l-.406-1.538a.743.743 0 0 1-1.164-.048c-.639-.993-2.233-.071-1.59.929a2.608 2.608 0 0 0 4.055.421.93.93 0 0 0-.406-1.538A132.879 132.879 0 0 0 119.1 9.988a.963.963 0 0 0-1.132.643 2.253 2.253 0 0 0-.168 1.169c.135 1.163 1.977 1.176 1.84 0Z"/>
        <path fill="#1d1d1b" d="M158.669 27.074A26.444 26.444 0 0 1 164.978 32c1.633 1.71 3.371 3.581 5.8 4.032a.925.925 0 0 0 .709-1.682 17 17 0 0 1-4.866-4.668c-1.139-1.657-1.943-3.937-4.1-4.489a.933.933 0 0 0-1.04 1.352 6.562 6.562 0 0 0 1.4 1.974 3.812 3.812 0 0 0 2.2 1.25c.965.035 1.45-.771 1.885-1.5l1.585-2.642-1.715-.465-.087 2.691a4.37 4.37 0 0 0-.042 1.287c.1.267.652-.277.6-.081a2.554 2.554 0 0 0-.062-.428l-.92.92a3.838 3.838 0 0 1 1.9.635l-.33-1.259a.608.608 0 0 1-.614.286c-1.185-.044-1.183 1.8 0 1.841a2.464 2.464 0 0 0 2.2-1.2.937.937 0 0 0-.33-1.259 5.723 5.723 0 0 0-2.833-.886.925.925 0 0 0-.92.92 2.241 2.241 0 0 0 .856 1.915 1.448 1.448 0 0 0 1.978-.321 4.137 4.137 0 0 0 .344-2.255l.09-2.808a.928.928 0 0 0-1.715-.464l-1.1 1.829-.548.914a1.938 1.938 0 0 0-.225.373c-.062.217-.154.013.051.1a4.56 4.56 0 0 1-2.07-2.3l-1.04 1.352a3.274 3.274 0 0 1 1.811 1.708 30.578 30.578 0 0 0 1.77 2.728 19.253 19.253 0 0 0 4.956 4.546l.709-1.682c-2.3-.426-3.823-2.361-5.367-3.951a27.215 27.215 0 0 0-6.3-4.825c-1.036-.575-1.965 1.014-.929 1.589Z"/>
    </g>
</svg>
