<?xml version="1.0" encoding="UTF-8"?>
<svg data-bbox="1.755 1.924 36.768 47.792" viewBox="0 0 42 55" height="55" width="42" xmlns="http://www.w3.org/2000/svg" data-type="color">
    <g>
        <path fill="#ed1e79" d="M4.741 31.847c-.578 5.746.382 12.03 6.279 14.632s13.136.966 18.069-2.931A15.661 15.661 0 0 0 34.2 36.5c.943-2.681 1.3-6.629-2.164-7.489a19.107 19.107 0 0 0-4.612-.156c-1.888.015-3.776.044-5.664.006a32.391 32.391 0 0 1-9.388-1.284c-1.767-.573-3.579-1.933-5.469-.985a3.426 3.426 0 0 0-1.5 4.3c1.257 4.125 2.997 8.17 4.478 12.221a2.227 2.227 0 0 0 4.291-1.183 50.032 50.032 0 0 1-1.147-11.23l-1.633 2.14.285-.082h-1.183c-.476-.07-.492-.89-.336.134.072.476.164.952.246 1.427l.452 2.617.945 5.471 2.738-2.737c-.793-.135-.638-1.27-.7-1.935-.073-.822-.164-1.644-.22-2.467a4.561 4.561 0 0 1-.028-.548q.053-.525-.346.234s0 .005 0 0a7.533 7.533 0 0 1 1.028.4 3.192 3.192 0 0 1 .98 1.309c.3.679.6 2.254-.03 2.78l.982-.572a1.743 1.743 0 0 1 1.467 1.047c-.015.047-.006.08.025.1.2-.134.369-.637.532-.846a2.38 2.38 0 0 1 1.074-.844 6.353 6.353 0 0 1 1.01 0 .646.646 0 0 0-.164-.391.282.282 0 0 0-.164.189c-.176.091-.331.672-.469.854a1.992 1.992 0 0 1-.642.547c-.115.074-.117-.477-.377-.007.008-.015-5.774 1.924.411.8a5.211 5.211 0 0 0 .341-.448 7.522 7.522 0 0 1 3.88-1.914c.2-.035.98-.064.987-.072a1.205 1.205 0 0 1-.228-.8l-.21.347c-.313.234-.558.632-.855.9a4.265 4.265 0 0 1-1.833 1.089c-.328.066-.447.114-.537-.074-.3-.612 1.048-1.5 1.57-1.753a4.83 4.83 0 0 1 1.469-.438 4.4 4.4 0 0 1 1.032-.008 2.025 2.025 0 0 1 .429.085q.587.177.029 0l-.572-.981a.881.881 0 0 1 .373-1.041c.13-.058.108-.079-.067-.065-.058-.07-.333-.115-.422-.153a4.784 4.784 0 0 1-1.01-.63c-.411-.332-.359-.7-.388.284s.129.407.934.448a8.8 8.8 0 0 1 2.214.563l-.532-4.067a1.93 1.93 0 0 1-1.317.376l.592 4.371a8.647 8.647 0 0 1 6.253.461c2.554 1.279 4.81-2.559 2.246-3.843a13.328 13.328 0 0 0-9.683-.909 2.236 2.236 0 0 0 .597 4.362 6.014 6.014 0 0 0 3.564-.984 2.257 2.257 0 0 0-.532-4.067c-2.559-.842-5.717-1.3-7.686 1-2.046 2.385-.046 4.985 2.154 6.274 2.267 1.327 5.762 1.43 6.93-1.408 1.237-3-1.986-4.5-4.445-4.546-4.228-.082-10.024 3.862-7.7 8.67 2.621 5.424 11.083 1.145 11.77-3.555.41-2.8-2.219-4.481-4.732-4.348a12.307 12.307 0 0 0-6.637 2.615c-2.019 1.568-3.562 4.706-1.318 6.806 1.83 1.713 4.871 1.276 6.637-.263 1.891-1.646 3.382-5.176 1.434-7.281a5.65 5.65 0 0 0-6.332-.97c-1.958.894-3.955 3.2-4.063 5.432-.13 2.707 2.856 4.821 5.133 2.8 2.155-1.912 1.927-5.617.8-8a6.746 6.746 0 0 0-6.242-4.059 3.949 3.949 0 0 0-3.481 2.44c-.586 1.5-.2 3.216-.064 4.767.233 2.622.875 5.7 3.964 6.226a2.263 2.263 0 0 0 2.738-2.737l-1.4-8.088a7.889 7.889 0 0 0-.947-3.257 3.149 3.149 0 0 0-3.54-1.33 2.277 2.277 0 0 0-1.63 2.153 55.463 55.463 0 0 0 1.306 12.413l4.291-1.183-2.485-6.791-1.16-3.169c-.221-.6-.447-1.2-.663-1.811-.5-1.395.136-.1-.712.277l-1.123.3c.771-.086 1.828.661 2.585.931a22.3 22.3 0 0 0 2.959.825 39.97 39.97 0 0 0 6.031.74c2.025.109 4.054.1 6.081.086 1.014-.008 2.029-.02 3.044-.023.429 0 1.99-.171 2.172.063l-.572-.982c.394 1.032-.258 2.684-.708 3.635a11.462 11.462 0 0 1-2.566 3.436 14.425 14.425 0 0 1-8.648 3.771c-2.93.218-6.415-.3-8.173-2.938-1.613-2.422-1.319-5.68-1.042-8.433a2.241 2.241 0 0 0-2.226-2.225 2.275 2.275 0 0 0-2.225 2.225Z" data-color="1"/>
        <path fill="#0071bc" d="M10.021 24.875c2.646 2.938 6.605 3.88 10.373 4.375 4.665.613 9.382.93 14.066 1.372a2.1 2.1 0 0 0 2.012-1.532c.646-2.161 1.464-4.343 1.956-6.542.589-2.637-1.677-3.261-3.69-3.9a125.572 125.572 0 0 0-13-3.379 112.669 112.669 0 0 0-6.474-1.145 5.014 5.014 0 0 0-5.219 2.176 11.206 11.206 0 0 0-1.474 10.8 2.115 2.115 0 0 0 3.488.921 8.589 8.589 0 0 0 2.054-4.67c.225-1.263.226-2.649 1.4-3.178l-3.063-1.247a24.8 24.8 0 0 1 .637 5.2c.035 1.9 3.031 3.068 3.889 1.054a12.124 12.124 0 0 0 1.074-5.771l-3.563 1.476A20.165 20.165 0 0 1 18 24.786a2.108 2.108 0 0 0 3.889-1.054l.55-4.272-4.1.555 1.8 5.028 3.814-1.608c.34.671-.189.24.214.31a3.291 3.291 0 0 1 1.112.249 5.949 5.949 0 0 1 1.981 2.18l2.357-3.066a4.82 4.82 0 0 1-3.21-1.82l-2.357 3.066a4.521 4.521 0 0 1 2.111 1.465c1.1 1.291 3.8.312 3.562-1.476l-.273.448.107-.063a4.223 4.223 0 0 0 .46-.178 3.622 3.622 0 0 1 1.736-.18c.519.105.193.265.561-.312.222-.349.18-.567.617-.543.345.018.656 2.507.629 1.03-.048-2.683-4.222-2.691-4.174 0a3.3 3.3 0 0 0 3.75 3.1 3.368 3.368 0 0 0 2.784-4.79c-1.02-2.355-3.615-2.927-5.94-2.555-1.988.32-4.75 1.575-4.425 4.04l3.563-1.476a8.575 8.575 0 0 0-3.952-2.538c-1.658-.543-3.405 1.576-2.357 3.066a8.922 8.922 0 0 0 5.7 3.738c1.644.308 3.449-1.426 2.357-3.066-1.59-2.388-3.713-4.711-6.862-4.464-2.974.233-5.061 3.152-3.653 5.939 1.054 2.084 4.618.633 3.815-1.608l-1.8-5.029a2.1 2.1 0 0 0-4.1.555l-.55 4.272 3.889-1.053a24.277 24.277 0 0 0-4.169-4.748c-1.246-1.084-3.709-.464-3.563 1.476a7.74 7.74 0 0 1-.5 3.664l3.889 1.053a30.45 30.45 0 0 0-.786-6.307 2.119 2.119 0 0 0-3.066-1.248 5.8 5.8 0 0 0-3.058 4.26c-.3 1.338-.243 3.2-1.243 4.241l3.488.921a7.245 7.245 0 0 1 .17-6.237c.439-.821.814-1.67 1.806-1.545 1.484.188 2.964.483 4.432.762q4.177.8 8.294 1.869a65.543 65.543 0 0 1 8.386 2.525l-.921-.537.193.184-.537-.92.036.224v-1.106c-.513 2.279-1.338 4.534-2.008 6.773l2.013-1.532c-4.306-.406-8.625-.745-12.923-1.231-3.037-.343-6.425-.918-8.565-3.294-1.8-2-4.746.96-2.951 2.952Z" data-color="2"/>
        <path fill="#fbb03b" d="M12.773 15.744a34.365 34.365 0 0 1 6.32-6.514c2.138-1.592 4.759-2.725 7.422-1.868 5.108 1.645 6.15 8.833 5.781 13.327a2.243 2.243 0 0 0 2.225 2.225 2.271 2.271 0 0 0 2.226-2.225c.548-6.684-1.853-14.978-8.739-17.511C20.568.441 13.753 7.3 9.626 12.6a2.3 2.3 0 0 0 0 3.146 2.239 2.239 0 0 0 3.147 0Z" data-color="3"/>
        <path fill="#fbb03b" d="M15.361 16.861a27.574 27.574 0 0 1 14.957 4.166l1.123-4.147c-2.909.339-5.247-1.589-7.765-2.727a21.053 21.053 0 0 0-9.984-1.831 2.253 2.253 0 0 0-1.573 3.8c3.11 3.137 7.751 4.406 11.933 5.386 2.263.53 4.887.842 6.985-.408a5.474 5.474 0 0 0 2.644-5.111c-.252-4.14-2.737-8.667-7.121-9.3a24.035 24.035 0 0 0-7.283.12c-2.276.387-5.369 1.858-4.511 4.717.846 2.82 4.25 3.229 6.656 2.418a9.778 9.778 0 0 0 5.7-4.656A2.227 2.227 0 0 0 23.28 7.04c-1.476 2.045-2.7 4.5-1.489 6.979a5.1 5.1 0 0 0 5.747 2.715c2.032-.564 3.676-2.722 2.973-4.856-.962-2.924-4.365-2.448-6.711-2.022l-8.218 1.492a13.578 13.578 0 0 0-3.429.747 2.682 2.682 0 0 0-1.306 3.739c1.192 2.124 4.71 2.357 6.818 2.946a61.818 61.818 0 0 1 7 2.95 12.849 12.849 0 0 0 8.221.957c2.481-.687 5.065-3.069 4.083-5.876a2.28 2.28 0 0 0-2.737-1.554A2.246 2.246 0 0 0 32.682 18c.258.739 0-.3.1-.221.067.054-.67.481-.681.486a4.846 4.846 0 0 1-2.3.281 13.6 13.6 0 0 1-4.885-1.55 39.915 39.915 0 0 0-5.314-2.282c-.881-.274-1.78-.49-2.674-.719a47.114 47.114 0 0 1-1.528-.411q-.378-.11-.751-.233-.485-.135.216.564v1.183l.084-.21-.572.982.205-.163-.982.572a19.116 19.116 0 0 1 3.163-.635l3.037-.554c2.109-.383 4.277-.954 6.411-1.163.164-.016.465.065.579-.018-.61.44-.471-1.295-.489-1.376-.1-.472.606.381-.068-.055.191.124-.541-.476-.292-.2a.662.662 0 0 1-.209-.554 6.092 6.092 0 0 1 1.395-2.437L23.28 7.04a5.326 5.326 0 0 1-3.368 2.714 7.087 7.087 0 0 1-1.124.135c-.054 0-.082-.024-.086-.066q.813.579.039 1.737c.647-.022 1.4-.431 2.085-.505a26.876 26.876 0 0 1 3.135-.085 7.2 7.2 0 0 1 2.8.308c1.122.495 1.635 1.9 2.019 2.972a7.683 7.683 0 0 1 .452 1.738 1.424 1.424 0 0 1-.2 1.087c-.94.937-3.013.338-4.146.056-3.3-.818-7.15-1.662-9.623-4.157l-1.573 3.8a16.871 16.871 0 0 1 8.993 1.841c2.737 1.427 5.544 3.09 8.756 2.716 2.126-.247 3.112-2.878 1.123-4.146a31.945 31.945 0 0 0-17.2-4.773c-2.864.007-2.869 4.457 0 4.45Z" data-color="3"/>
        <path d="M11.432 44.561a10.112 10.112 0 0 1-5.958-5.375 16.654 16.654 0 0 1-.884-8.679 30.108 30.108 0 0 1 5.692-13.982A38.835 38.835 0 0 1 22.776 5.571c1.262-.71 2.376-1.174 3.779-.487a11.079 11.079 0 0 1 3.329 3 19.87 19.87 0 0 1 3.7 7.192 38.526 38.526 0 0 1 .647 16.014c-.815 5.546-3.163 10.764-8.21 13.62-4.579 2.59-10.7 3.218-15.1-.087-5.075-3.817-4.989-10.457-3.844-16.116a43.8 43.8 0 0 1 8.413-18.038c1.972-2.544 4.328-5.869 7.81-6.135a8.935 8.935 0 0 1 8.212 4.5c.9 1.458 3.213.119 2.3-1.348C30.177 1.8 22.2-.316 17 4.868A47.147 47.147 0 0 0 5.944 22.709C3.805 28.921 2.216 37 5.773 42.987c3.335 5.611 9.918 7.672 16.1 6.336a18.575 18.575 0 0 0 13.57-11.832 34.01 34.01 0 0 0 1.811-9.715 44.834 44.834 0 0 0-.26-9.228 25.982 25.982 0 0 0-2.863-8.935c-1.47-2.669-3.727-5.7-6.57-7-3.258-1.491-6.21.563-8.878 2.339A42.346 42.346 0 0 0 11.15 11.3a34.874 34.874 0 0 0-8.657 15.783c-1.4 6.143-1.2 13.541 4.105 17.808a13.5 13.5 0 0 0 4.124 2.245c1.628.561 2.327-2.017.71-2.575Z" fill="#000000" data-color="4"/>
    </g>
</svg>
