<?xml version="1.0" encoding="UTF-8"?>
<svg data-bbox="9.75 3.65 260.608 166.807" viewBox="0 0 276 175" height="175" width="276" xmlns="http://www.w3.org/2000/svg" data-type="ugc">
    <g>
        <path fill="#3c3c3b" d="M268.328 46.265c-2.765-5.5-4.85-11.268-8.715-16.121a74.178 74.178 0 0 0-18.022-15.653C227.579 5.53 209.956 2.1 194.414 9.187c-7.016 3.2-12.27 8.584-16.491 14.93-3.947 5.935-6.727 12.785-11.38 18.229-4.868 5.7-11.288 6.929-18.214 8.755-7.233 1.907-13.305 4.726-17.829 10.857-3.661 4.96 3.714 12.5 8.672 8.672 7.667-5.924 17.2-4.81 26.087-7.34 9.733-2.77 15.656-9.457 20.687-17.865 4.744-7.926 8.669-16.176 15.628-22.487 6.388-5.793 17.348-9.808 24.935-3.691l6.167-10.594c-8.386-2.4-33.9-6.709-34.289 7.863-.254 9.63 12.393 8.1 18.531 7.611 7.243-.577 18.783-2.7 24.539.341s8.921 9.8 11.207 15.555c3.134 7.882 5.322 15.59 4.894 24.144-.408 8.154 12.27 8.133 12.677 0 .662-13.229-3.8-27.668-10.756-38.922-5.592-9.047-13.414-14.14-23.965-14.676-8.112-.411-16.164.976-24.252 1.254-.965.033-3.088-.409-3.958-.053.466-.19.643-.024 1.181.354q4.331 4.362 1.734 7.237-.526.616.161-.153 1-1.062-.074.346l1.76-.264c1.62.216 3.536-.267 5.21-.26a43.8 43.8 0 0 1 12.03 1.847c5.728 1.637 11.265-6.483 6.166-10.594a29.975 29.975 0 0 0-30.618-4.207c-10.154 4.15-17.814 12.65-23.454 21.838-4.882 7.95-8.615 19.339-18.137 22.732-10.348 3.688-21.283 1.926-30.487 9.038l8.672 8.672c3.287-4.456 10.561-5.037 15.492-6.356 6.267-1.677 12.061-4.209 16.773-8.781 8.948-8.683 11.779-22.671 21.889-30.138 11.972-8.842 28.021-5.042 39.591 2.357 5.472 3.5 11.174 7.953 15.075 13.211 3.087 4.162 4.8 9.42 7.114 14.015 3.667 7.289 14.606.878 10.946-6.4Z"/>
        <path fill="#3c3c3b" d="M150.332 101.124a13.868 13.868 0 0 0 1.376-5.19 10.8 10.8 0 0 0-.563-4 6.749 6.749 0 0 0-2.913-3.788 6.472 6.472 0 0 0-4.884-.639c-3.1 1-5.586 4.441-4.427 7.8a7.11 7.11 0 0 1 .292 1.142l-.226-1.685a6.966 6.966 0 0 1 .013 1.464l.227-1.685a6.812 6.812 0 0 1-.365 1.427l.639-1.515-.119.271a6.919 6.919 0 0 0-.639 4.884 6.465 6.465 0 0 0 2.913 3.788 6.4 6.4 0 0 0 4.884.639 6.13 6.13 0 0 0 3.788-2.913Z"/>
        <path fill="#3c3c3b" d="M137.49 98.841q.654-.648.063-.141-.948.6-1.919 1.15a283.598 283.598 0 0 1-3.255 1.884 81.054 81.054 0 0 1-7.638 4.154l3.2-.865-1.1-.046c-8.158-.343-8.141 12.334 0 12.677 4.755.2 9.578-3.606 13.563-5.913 4.036-2.337 8.111-4.663 9.307-9.53 1.947-7.922-10.275-11.3-12.224-3.37Z"/>
        <path fill="#575756" d="M267.725 88c6.344-11.8.017-27.651-6.281-38.228-6.757-11.346-17.014-21.736-30.228-24.835-12.379-2.9-28.991-2.185-40.007 4.741-10.088 6.342-8.5 18.26-15.773 26.436-2.429 2.73-3.862 3.8-7.519 4.146a100.721 100.721 0 0 0-11.1 1.751c-7.686 1.616-15.223 3.859-22.9 5.512-3.811.82-6.041 6.043-3.788 9.311 2.936 4.258 6.276 4.818 11.063 5.72 3.91.737 6.224 3.425 6.07 7.472-.316 8.352 11.7 7.861 12.677 0 1.291-10.435 11.149-18.207 19.407-23.438 4.222-2.675 8.672-4.756 12.4-8.154 4.079-3.715 7.146-8.372 11-12.3 8.642-8.824 24.443-9.069 33.216-.4 10.017 9.9 11.193 25 12.3 38.252l10.825-4.486a25.588 25.588 0 0 1-4.549-9.953c-1.944-7.958-13.923-4.574-12.223 3.37a16.9 16.9 0 0 1-.14 7.767l11.585-1.514c-4.028-5.336-.553-13.447-3.646-19.536-2.941-5.791-8.794-8.83-15.155-7.373-5.087 1.165-5.569 7.122-2.8 10.594l3.747 4.691c1.726 2.161 5.452 2.293 7.681.991 2.64-1.537 3.313-4.337 2.913-7.159-1.682-12.123-6.776-23.578-20.26-25.527-5.6-.809-11.439 5.9-6.167 10.594a26.719 26.719 0 0 1 6.384 8.321c3.712 7.362 14.294.911 10.946-6.4-3.054-6.667-9.857-10.168-16.859-11.131-9.057-1.246-17.72 2.5-26.756 2.06l1.685 12.45c6.81-2.217 12.534-1.078 18.646 2.355 3.817 2.144 6.366 2.461 10.538 1.371 3.186-.833 6.108-1.145 9.313.015 6.444 2.332 9.354 9.157 12 14.944 3.444 7.52 6.661 15.058 8.345 23.191l1.63-6.167a29.156 29.156 0 0 1-18.866 11.506c-8.554 1.265-16.633-3.121-25.191-2.079-8.645 1.052-15.377 6.727-21.307 12.682-4.611 4.629-11.484 13.045-19.06 10.944-4.124-1.144-4.33-5.029-6.025-8.274-1.954-3.739-5.66-6.056-9.954-4.986-8.871 2.21-6.173 12.917-2.427 18.508 9.13 13.627 28.486 14.283 40.323 3.779 6.439-5.716 9.059-16.012 2.26-22.579-3.258-3.146-7.719-3.76-12.028-3.176-1.988.27-3.865.889-5.823 1.263-.738.14-1.206.219-1.895.292l-1.212-.021q-1.174-.373-.046-.019c-4.233-7.075-14.5-.871-10.946 6.4 8.282 16.965 32.574 5.754 42.245-3.787 2.54-2.5 4.136-5.914 3.067-9.5a6.332 6.332 0 0 0-1.63-2.8q-2.043-2.568-.138 1.852c.31.072 2.774-5.259 3.013-5.769 3.289-7 5.073-14.928.03-21.605-3.225-4.268-12.748-3.848-11.812 3.2.621 4.668-2.8 8.75-2.15 13.666l12.45-1.685a144.674 144.674 0 0 0-6.191-15.1l-7.158 9.311c4.729 1.848 9.447 3.729 14.188 5.546 3.982 1.525 8.1 1.857 11.044-1.875 5.568-7.056-1.082-17.7 1.879-25.609L211 59.053a68.244 68.244 0 0 1 8.163 14.966c.947 2.507 1.228 5.832 2.5 8.139a7.2 7.2 0 0 1 .134.889q.127 2.528 4.209-1.048c-.068-.307-1.279-.839-1.577-1.207a11.012 11.012 0 0 0-10.961-3.661c-5.136 1.5-7.63 7.647-9.648 12.086s.366 9.273 5.473 9.538c14.941.773 30.656 3.173 44.733-3.129l-7.681-9.955a59.474 59.474 0 0 1-14.12 10.029c-5.513 2.847-3.025 12.156 3.2 11.812 6.873-.381 14.492-.584 20.8-3.648 5.407-2.628 8.878-7.664 11.741-12.755 3.471-6.17-4.865-12.979-9.955-7.681-4.741 4.936-8.811 10.719-14.66 14.427l6.4 10.946a9.622 9.622 0 0 1 3.821-2.023l-7.8-7.8c-1.894 5.208-10.4 4.045-14.577 3.571a76.645 76.645 0 0 1-19.531-5.158c-7.584-3.008-10.876 9.247-3.37 12.224 14.835 5.884 42.439 12.7 49.7-7.267 1.693-4.651-3.425-9-7.8-7.8a19.372 19.372 0 0 0-6.849 3.3c-6.251 4.809-.7 15.445 6.4 10.946 6.893-4.37 11.648-10.6 17.226-16.409l-9.955-7.681c-1.777 3.159-3.563 6.578-7.049 8.089-4.371 1.895-9.877 1.777-14.544 2.035l3.2 11.811a71.348 71.348 0 0 0 16.689-12c5.542-5.315-1.476-12.733-7.681-9.955-11.323 5.07-26.382 2.017-38.335 1.4l5.473 9.537c.677-1.488 1.374-2.963 2.159-4.4q.785-1.434 1.653-2.818l-3.809.794c.031.841 4.277 3.435 4.838 3.752a9.653 9.653 0 0 0 13.81-4.449c2.327-5.47.164-11.77-1.736-17.038a79.652 79.652 0 0 0-9.73-18.8c-3.252-4.637-9.622-3.726-11.585 1.514-2.378 6.349-.874 12.437-.4 18.945a25.067 25.067 0 0 1 .113 2.527l4.736-2.149c.009-.15-5.058-1.977-5.321-2.08l-10.641-4.159c-5.664-2.214-9.271 4.874-7.158 9.311a115.326 115.326 0 0 1 4.913 12.069c2.163 6.279 13.448 5.823 12.45-1.685-.62-4.669 2.8-8.75 2.151-13.666l-11.811 3.2c3.39 4.488-.407 9.6-2.656 13.866-2.993 5.683-2.685 9.624 1.733 14.221l-1.856-4.482c-.136-1.461.763-1.067-.9-.039-1 .616-1.911 1.407-2.9 2.053a46.183 46.183 0 0 1-6.839 3.733c-3.439 1.494-9.15 3.816-11.277-.543l-10.946 6.4a12.724 12.724 0 0 0 10.405 6.226 22.584 22.584 0 0 0 5.907-.4c.836-.156 6.238-2.059 6.813-1.408 2.281 2.585-6.042 6.758-7.8 7.341a13.5 13.5 0 0 1-13.319-2.282c-1.542-1.359-2.058-3.13-3.214-4.68l-.161-.511q-.66-5.688-8.222 1.72a10.955 10.955 0 0 0 .943 2.841 19.892 19.892 0 0 0 10.145 11.1c9.532 4.341 19.815-.011 27.26-6.308 8.238-6.969 14.431-17.723 26.691-15.532 10.811 1.932 20.128 3.1 30.513-1.516a41.01 41.01 0 0 0 11.241-7.427c1.644-1.525 3.927-3.7 4.95-5.721 1.4-2.765.562-5.6-.157-8.444a114.1 114.1 0 0 0-12.71-30.3C246.876 46.316 236.2 40.241 224.23 42.5c-3.074.58-3.515.563-6.35-.914a32.753 32.753 0 0 0-8.765-3.107 33.756 33.756 0 0 0-17.009 1.046 6.37 6.37 0 0 0 1.685 12.451c7.27.358 14.081-2.076 21.264-2.373 4.568-.189 9.348.674 11.405 5.165l10.946-6.4a36.562 36.562 0 0 0-8.366-10.887l-6.167 10.594c9.19 1.328 10.3 8.733 11.406 16.673l10.594-6.167-3.747-4.691-2.8 10.594c1.187-.272.942 8.642 1 9.811.211 4.054 1 7.977 3.483 11.272C245.855 89.6 253 89.856 254.4 84.053a31.878 31.878 0 0 0 .14-14.507l-12.223 3.37a40.34 40.34 0 0 0 7.808 15.547c3.329 4.266 11.257.742 10.82-4.482-1.4-16.733-3.445-34.787-16.016-47.216-11.57-11.439-31.173-13.423-45.063-4.645-5.695 3.6-9.5 9.162-13.91 14.091-4.31 4.813-9.771 7.215-15.054 10.761-11.824 7.937-21.824 18.4-23.637 33.05h12.675a19.512 19.512 0 0 0-6.416-15.239 18.879 18.879 0 0 0-7.484-4.176 26.7 26.7 0 0 0-3.612-.585c-1.373-.182-2.311-.982-1.352.41l-3.788 9.311c7.412-1.595 14.684-3.743 22.09-5.343 6.541-1.416 14.242-.832 19.944-4.681a33.294 33.294 0 0 0 11.744-14.572c1.866-4.742 2.036-11.506 6.541-14.529 5.929-3.978 14.31-4.421 21.227-4.384 7.721.042 14.917 1.827 20.876 6.93a53.979 53.979 0 0 1 13.5 18.054c2.446 5.2 6.591 14.765 3.574 20.377-3.863 7.186 7.078 13.6 10.946 6.4Z"/>
        <path fill="#575756" d="M176.8 116.049a46.742 46.742 0 0 0-10.175-4.442 6.4 6.4 0 0 0-7.8 4.427 6.471 6.471 0 0 0 4.427 7.8c.808.245 1.609.5 2.4.8.2.075 1.82.77.826.319a41.343 41.343 0 0 1 3.92 2.05 6.339 6.339 0 0 0 6.4-10.946Z"/>
        <path fill="#575756" d="M234.831 24.032c-12.731-6.178-27.553-5.741-39.57 1.968-6.846 4.391-.5 15.368 6.4 10.946a27.283 27.283 0 0 1 26.774-1.967c7.308 3.548 13.743-7.38 6.4-10.946Z"/>
        <path fill="#3c3c3b" d="M215.88 63.424c.088-6.8-5.036-10.4-11.038-12.095l1.514 11.585c1.458-1.061 1.724-1.254 3.531-1.187 7.023.261 8.782-11.078 1.685-12.45-6.016-1.164-12.489-1.388-18.423.374-6.537 1.942-9.886 7.046-14.97 11.073-4.173 3.305-1.061 9.034 2.8 10.594 5.017 2.029 9.179 3.678 14.691 2.956 5.393-.707 10.277-3.1 15.042-5.619 7.262-3.838.873-14.5-6.4-10.946-9.368 4.584-19.885 1.055-29.343 5.882C166.962 67.677 161 75.2 156.9 83.022c-3.782 7.22 7.155 13.635 10.946 6.4 3.477-6.637 8.469-13.561 15.99-15.838 4.447-1.347 9.275-.346 13.851-.891a39.926 39.926 0 0 0 13.018-4.036l-6.4-10.946c-3.185 1.683-6.622 3.692-10.269 4.106-3.488.4-6.574-1.458-9.7-2.721l2.8 10.594c3.133-2.482 5.525-6.454 9.376-7.813 3.569-1.258 8.022-1.083 11.683-.374l1.685-12.451a15.4 15.4 0 0 0-9.929 2.918c-4.255 3.1-4.094 10 1.514 11.585q1.617 1.3 1.731-.129c-.1 8.16 12.572 8.165 12.677 0Z"/>
        <path fill="#634e42" d="M245.162 86.177a148.091 148.091 0 0 0-14.681-32.492c-4.232-6.962-15.2-.6-10.946 6.4a133.9 133.9 0 0 1 13.4 29.464c2.441 7.755 14.684 4.443 12.223-3.37Z"/>
        <path fill="#7a6a58" d="M159.733 94.714c-38.975 15.954-78.315 31.057-116.7 48.414-7.422 3.356-.984 14.284 6.4 10.946 37.386-16.9 75.71-31.6 113.671-47.136 3.191-1.307 5.375-4.2 4.427-7.8-.793-3.009-4.633-5.723-7.8-4.427Z"/>
        <path fill="#3f3228" d="M194.949 100.145c3.934-6.33 6.693-13.944 2.027-20.669-4.524-6.519-13.238-7.645-20.149-4.632-11 4.8-21.2 25.925-5.37 31.3 6.581 2.234 14.184 2.42 19.062-3.276 3.969-4.634 6.09-12.893 1.916-17.981-5.314-6.478-13.761-2.748-17.543 3.136-4.051 6.3-2.913 16.107 6.356 15.989 8.151-.1 8.173-12.78 0-12.677.405 0 4.725 6.327 4.59 3.086q1.561-1.392-1.652-1.714-2.008-2.337-2.22-.735c-.728.617-.314 2.346-1.359 2.92-1.271.7-3.257-.425-4.523-.588-2.883-.37.565.081.025.856.349-.5.254-2.231.485-2.915 1.044-3.085 4.3-6.643 7.856-6.429 4.809.29.824 5.886-.447 7.931-4.319 6.948 6.643 13.32 10.946 6.4Z"/>
        <path fill="#683b11" d="M194.277 81.352a11.194 11.194 0 0 1-1.767-2.313 17.214 17.214 0 0 0-4.25-4.126 15.918 15.918 0 0 0-11.046-2.313c-3.885.585-7.684 2.638-8.722 6.7-.93 3.646 1.024 7.937 2.98 10.98 4.66 7.251 14.274 8.49 19.38.93a11.533 11.533 0 0 0-9.1-18.2c-8.161-.241-8.153 12.436 0 12.677a1.4 1.4 0 0 1-1.3-1.7q-.613.648.423 0 2.385.784 1.705.069a34.249 34.249 0 0 1-1.938-4.358v3.37l-.1.165-2.274 2.274a2.887 2.887 0 0 1 3.706.548c2.152 2.029 3.4 4.449 5.9 6.242 2.784 2 7.057.488 8.672-2.274 1.864-3.187.517-6.673-2.274-8.672Z"/>
        <path fill="#575756" d="M36.585 146.758c-2.36 1.96-12.756 7.361-15.051 5.118-4.851-4.742-11.567.2-10.594 6.167a19.576 19.576 0 0 0 2.73 7.151 6.436 6.436 0 0 0 8.672 2.274A143.019 143.019 0 0 0 39.5 155.186c5.1-4.227-.437-12.07-6.167-10.594l-16.681 4.3c-7.9 2.033-4.548 14.263 3.37 12.224l16.681-4.3-6.167-10.594a120.776 120.776 0 0 1-14.59 10.3l8.673 2.274a9.753 9.753 0 0 1-1.452-4.123L12.57 160.84c4.96 4.849 10.314 5.244 16.7 2.979 5.862-2.08 11.444-4.079 16.284-8.1 6.282-5.216-2.728-14.142-8.964-8.964Z"/>
        <path fill="#ececec" d="m238.023 79.685-.625 1.234.586-.061c0-.02-.008-.041-.012-.061s0-.021 0 0v-.03a.552.552 0 0 1 .024-.121c-.016.053 0-.009.011-.02s.015-.028.023-.041l.018-.026a.198.198 0 0 0-.009.011c0-.006.037-.042.042-.047l.024-.022-.017.014.052-.035c.047-.032-.065.028-.012.007.077-.03-.059.014-.006 0l.03-.008c.032-.007.02 0-.037.007h.031-.031.031-.023a.272.272 0 0 0 .061.018.447.447 0 0 0 .427-.114c.034-.039.074-.095.054-.15a.171.171 0 0 0-.122-.1.963.963 0 0 0-.921.22.677.677 0 0 0-.241.664c.028.1.181.124.268.113a.416.416 0 0 0 .319-.173l.626-1.234c.063-.126-.057-.21-.174-.215a.437.437 0 0 0-.4.174Z"/>
        <path fill="#ececec" d="M236.439 75.863a1.736 1.736 0 0 0 .8 1.659.413.413 0 0 0 .521-.139.929.929 0 0 0 .023-.914.673.673 0 0 0-1.039.151.632.632 0 0 0-.1.419.488.488 0 0 0 .277.36 1.1 1.1 0 0 0 1.13-.172 1.762 1.762 0 0 0 .518-1.2c.039-.282-.574-.191-.609.057a4.11 4.11 0 0 1-.078.441 1.173 1.173 0 0 1-.142.354l-.027.041c-.042.064.015-.016-.014.018s-.036.041-.055.061-.049.037 0 0l-.032.024-.033.023c-.048.034.054-.023 0 0a.283.283 0 0 0-.075.032c0-.007.075-.021.022-.009l-.039.01c-.055.015.02-.007.023 0h-.039c-.063.01.049.006.009 0h-.048.013l-.045-.013c-.01-.003-.046-.017-.016 0s-.006 0-.013-.008-.071-.053-.043-.026a.507.507 0 0 1-.055-.066c.024.032 0-.009-.008-.026a.353.353 0 0 1-.013-.063c-.007-.036 0 0 0 0a.275.275 0 0 1 0-.041c0-.025.009-.049.013-.073.009-.051-.014.024 0 0 0-.01.008-.02.013-.03l.036-.065c0 .006-.036.042-.008.012l.021-.024c.026-.032-.02.018-.019.014s.038-.023.037-.026-.07.038-.028.018c0 0-.083.027-.037.015-.08.021-.065.011-.039.009-.075.006-.056 0-.033 0-.066-.007-.042 0-.023 0-.049-.009-.024-.013 0 0l.03.019c.019.013-.02-.027 0 0l.026.033c.012.016.016.03 0 0a.6.6 0 0 1 .027.082l.006.035v.021a.787.787 0 0 1 0 .1 1.116 1.116 0 0 1-.038.2l-.011.039-.01.031c.008-.024-.012.032-.011.029l-.022.054.521-.14a1.162 1.162 0 0 1-.3-.254 1.558 1.558 0 0 1-.13-.17 2.472 2.472 0 0 1-.053-.086.473.473 0 0 1-.039-.074 1.581 1.581 0 0 1-.128-.4 1.213 1.213 0 0 1-.012-.408c.034-.285-.579-.191-.609.057Z"/>
        <path fill="#ececec" d="m234.23 72.931.346.835c.03.073.236.019.283.008a.611.611 0 0 0 .316-.146l.6-.659c.063-.068-.2-.048-.2-.047a.791.791 0 0 0-.368.133 1.522 1.522 0 0 0-.511.579.552.552 0 0 0 .089.57c.2.228.558.145.805.049a1.2 1.2 0 0 0 .583-.551 1.289 1.289 0 0 0 .13-1.485.792.792 0 0 0-.585-.308 1.282 1.282 0 0 0-.871.285.872.872 0 0 0-.274.666 2 2 0 0 0 .328.907c.076.134.643-.094.6-.162a1.529 1.529 0 0 1-.289-1.178.783.783 0 0 1 .1-.211.5.5 0 0 1 .07-.082c.064-.059.051-.035-.024-.016-.16.041-.1.011-.039.022a.45.45 0 0 1 .117.04.753.753 0 0 1 .22.16 1.015 1.015 0 0 1 .1 1.135 2.812 2.812 0 0 1-.331.562.812.812 0 0 1-.082.094l-.047.041c-.09.081-.024-.184.231-.05a.417.417 0 0 1-.177-.12c-.291-.392.1-.773.394-1.006l-.568.086-.606.66.6-.138-.347-.834c-.053-.128-.642.069-.6.161Z"/>
        <path fill="#ececec" d="M233.169 70.913c.154.155.448.092.625.025a.652.652 0 0 0 .393-.322.315.315 0 0 0-.082-.349.623.623 0 0 0-.444-.143.923.923 0 0 0-.925.625.945.945 0 0 0 .179.842.867.867 0 0 0 1.116.039.593.593 0 0 0 .266-.337.348.348 0 0 0 0-.184.145.145 0 0 0-.083-.1.521.521 0 0 0-.141-.024 1.072 1.072 0 0 0-.746.253.474.474 0 0 0-.176.393c.02.13.185.194.3.208a1.112 1.112 0 0 0 .6-.123.821.821 0 0 0 .361-.324.483.483 0 0 0 .017-.407 1.379 1.379 0 0 0-.77-.665.415.415 0 0 0-.195 0 .749.749 0 0 0-.229.074c-.075.041-.189.123-.068.18a1.84 1.84 0 0 1 .475.31.632.632 0 0 1 .221.466.6.6 0 0 1-.02.078.343.343 0 0 1-.023.052c0 .008-.032.05-.014.026a.678.678 0 0 1-.067.075c-.026.026 0 0 .008-.006l-.023.017-.023.017c-.029.02.012-.011.019-.012a.151.151 0 0 0-.025.013s.073-.03.031-.014c-.011 0-.038.013.014 0 .085-.027-.046.008.042-.011.054-.011.027 0 .015 0 .087-.012.057 0 .036 0h.029-.01c.036 0-.008 0-.02-.009.029.009 0 0-.01-.007a.172.172 0 0 1-.058-.061.21.21 0 0 1 .011-.131.315.315 0 0 1 .029-.065.185.185 0 0 1 .034-.045l.025-.026c.02-.023-.037.028.007 0 0 0 .029-.023 0 0s-.018.01 0 0l-.037.015c.02-.008.054-.014-.029.009a.427.427 0 0 1-.087.014h-.013c.043 0-.028-.008.017 0l-.056-.045a.264.264 0 0 1-.006.281c-.015.028-.007.013 0 .007l-.026.032-.029.03c-.026.027 0 0 0 0-.011.008-.025.015-.035.024-.025.024.055-.028.005 0 .07-.034.041-.017.023-.01 0 0 .14-.031.08-.023.117-.015-.037-.008.058 0-.011 0-.036-.008 0 0a.535.535 0 0 1-.086-.027c.01 0-.037-.021-.047-.028a.549.549 0 0 1-.076-.061.691.691 0 0 1-.174-.289.816.816 0 0 1 .069-.7.576.576 0 0 1 .049-.056s.051-.041.016-.016a.221.221 0 0 0 .032-.022c-.011.019-.043.024-.014.01 0 0-.132.043-.073.028 0 0-.083.016-.033.008-.046.005-.057.006-.035.005h-.009.024c.011 0 .051.014 0 0 .023.007.046.013.068.022s-.029-.019.012.006l.026.016a.335.335 0 0 1 .068.062.255.255 0 0 1 .048.142.152.152 0 0 1-.012.054.349.349 0 0 1-.015.034l-.011.019c.008-.011.009-.012 0 0l-.024.028c-.014.013-.015.015 0 0s.012-.01 0 0l-.012.009.025-.014c-.021.011-.009.006.035-.015q-.033.012.012 0c.032-.011.2-.03.127-.027a.13.13 0 0 1 .052 0c.017 0 .017 0 0 0a.269.269 0 0 1-.045-.037c-.032-.032-.119-.03-.157-.029a.784.784 0 0 0-.235.051c-.054.022-.258.109-.175.193Z"/>
        <path fill="#ececec" d="M230.935 67.486a1.588 1.588 0 0 0 1.107.312.982.982 0 0 0 .612-.285.472.472 0 0 0 .077-.5c-.221-.5-.857-.468-1.3-.341a3.372 3.372 0 0 0-.7.284.715.715 0 0 0-.408.459c-.051.353.372.524.658.507a.855.855 0 0 0 .657-.308.373.373 0 0 0-.006-.407.77.77 0 0 0-1.1-.1.472.472 0 0 0-.193.443.552.552 0 0 0 .233.386.891.891 0 0 0 .8 0 .82.82 0 0 0 .518-.545c.1-.48-.381-.827-.816-.83a.822.822 0 0 0-.335.067c-.052.022-.17.073-.16.147a1.271 1.271 0 0 0 .53.843 1.5 1.5 0 0 0 1.1.242.772.772 0 0 0 .23-.073c.038-.019.113-.056.122-.1a.966.966 0 0 0-.849-1.108.667.667 0 0 0-.427.114c-.1.07-.076.136.04.152a.843.843 0 0 1 .638.941l.352-.174c-.055.008.022 0-.012 0h-.05c-.043 0 .055.006-.021 0h-.049a.879.879 0 0 1-.188-.042 1.189 1.189 0 0 1-.376-.206 1.157 1.157 0 0 1-.434-.748l-.5.214a.636.636 0 0 1 .59.436.493.493 0 0 1-.047.39.533.533 0 0 1-.1.12l-.04.028.04-.019a.375.375 0 0 1 .068-.016c.025 0 .063.007.019 0 .023 0-.042-.013-.048-.016a.434.434 0 0 1-.047-.03.387.387 0 0 1-.106-.111.5.5 0 0 1-.077-.3.322.322 0 0 1 .049-.141l.037-.041c.011.022-.206.069-.221.071h-.015c-.021 0-.02 0 0 0 0 0-.045-.013 0 0l.049.015a.481.481 0 0 1 .131.093.394.394 0 0 1 .123.258.228.228 0 0 1-.031.125.5.5 0 0 1-.033.041c.018-.025.015-.008 0 0a.688.688 0 0 1 .111-.048.651.651 0 0 1 .088-.017h.015c.021 0 .02 0 0 0 0 0-.046-.008 0 0l-.035-.009a.329.329 0 0 1-.121-.057.352.352 0 0 1-.157-.22.307.307 0 0 1 .109-.273.551.551 0 0 1 .084-.059c-.032.02.051-.026.058-.029s.1-.044.049-.023l.138-.056.063-.023c.006 0 .07-.025.039-.015s.1-.028.08-.023.034-.006.04-.007c.052-.009-.03 0 .022 0a.466.466 0 0 1 .112 0 .539.539 0 0 1 .335.2.419.419 0 0 1 .1.389.381.381 0 0 1-.042.089s-.056.057-.024.031a.176.176 0 0 0-.03.021c.006-.009.084-.039.052-.027s.05-.014.057-.016c.028-.006.029-.006 0 0h.036-.057a.281.281 0 0 1-.066-.009 1.515 1.515 0 0 1-.209-.061 1.73 1.73 0 0 1-.369-.2c-.1-.07-.289-.016-.391.025-.038.015-.271.121-.176.188Z"/>
        <path fill="#ececec" d="M229.834 64.917a1.309 1.309 0 0 0 .748.05.641.641 0 0 0 .484-.409.341.341 0 0 0-.144-.4.611.611 0 0 0-.368-.041 2.445 2.445 0 0 0-.339.066c-.38.106-.83.362-.842.807a.507.507 0 0 0 .2.445.737.737 0 0 0 .692.028c.343-.138.633-.52.4-.876a.925.925 0 0 0-1.083-.225.851.851 0 0 0-.567.715.938.938 0 0 0 .276.762 1.137 1.137 0 0 0 1.232.09 1.241 1.241 0 0 0 .744-.956c.012-.134-.165-.149-.262-.135a.548.548 0 0 0-.229.078c-.043.028-.109.073-.114.13a.86.86 0 0 1-.034.182.655.655 0 0 1-.028.078.492.492 0 0 1-.033.066 1.077 1.077 0 0 1-.107.153c.027-.032-.022.022-.032.032a1.265 1.265 0 0 1-.078.068l-.042.028-.044.027c-.031.019 0 .015.013-.007-.012.017-.055.025-.074.033-.054.023.018-.01.021-.007s-.048.013-.058.016c-.056.015.019-.008.023 0l-.05.006c-.055.008 0 .01.007 0h-.08.008l-.04-.008c-.012 0-.06-.018-.023 0a.63.63 0 0 1-.134-.069c.032.022-.015-.013-.025-.022a.657.657 0 0 1-.059-.059.665.665 0 0 1-.046-.059c0-.007-.04-.061-.027-.039a.815.815 0 0 1-.061-.139.771.771 0 0 1-.036-.149.491.491 0 0 1-.008-.067v-.056a.821.821 0 0 1 .019-.148l.017-.063c.006-.021.036-.081.016-.044a.691.691 0 0 1 .079-.12c-.032.039 0 0 .018-.013l.025-.021a.204.204 0 0 0-.021.016l.021-.013c.041-.028-.017.013-.021.01s.077-.026.013-.008-.006 0 .006 0c.043-.009-.083.008-.017 0h.038-.02.046c.02 0 .025.006.037.009.058.01-.025-.012.008 0a.735.735 0 0 1 .076.034.274.274 0 0 1 .1.084.265.265 0 0 1 .069.12.237.237 0 0 1 .008.141.277.277 0 0 1-.058.125c0 .008-.028.034 0 0l-.027.028-.029.025c.064-.064 0 .013-.007 0s.059-.026.018-.01.023-.007.027-.009c-.061.019.063-.01.02 0s.062 0 .024 0h.015c.009 0 .041.023 0 0s-.017 0-.052-.037a.352.352 0 0 1-.09-.267.538.538 0 0 1 .038-.163c.013-.033-.021.035.009-.017l.02-.034.023-.032c.031-.041-.023.017.021-.022l.035-.031c.052-.047-.041.023.019-.015l.04-.024c.063-.04-.055.022.015-.008l.043-.018.033-.013-.023.008.115-.031c.015 0 .031-.008.047-.01-.08.012-.007 0 .012 0l.047-.006c.063-.011 0 0-.017 0-.039 0-.031-.005-.014 0-.033-.006-.01-.013 0 .007a.205.205 0 0 1 .016.041c0 .011.009.077.01.048a.37.37 0 0 1-.013.081s-.017.049-.006.023-.01.017-.013.021l-.009.014c-.012.016-.013.017 0 0s.011-.013 0 0c.031-.022.039-.028.022-.017s.027-.013.032-.015a.14.14 0 0 1 .05-.011h-.073c.021 0 .023 0 0 0a1.71 1.71 0 0 1-.262-.068.494.494 0 0 0-.427.115.144.144 0 0 0-.059.134c.014.053.072.072.118.087Z"/>
        <path fill="#c6c6c5" d="M20.5 148.147a1.031 1.031 0 0 1-.6.685c-.1.036-.291.121-.253.264s.249.132.352.1l2.3-.648-.177-.339a12.823 12.823 0 0 1-2.115.817q-.537.155-1.084.261c-.189.037-.379.071-.57.1-.123.016-.259.044-.354-.056l-.083.245a7.586 7.586 0 0 1 3.851-1.217c.107 0 .335-.092.337-.228a.569.569 0 0 0-.259-.51.409.409 0 0 0-.364.007 1.335 1.335 0 0 0-.592.513c-.08.127.069.211.176.223a.431.431 0 0 0 .395-.177.622.622 0 0 1 .277-.248l-.364.007a.281.281 0 0 1 .123.244l.337-.228a8.529 8.529 0 0 0-4.307 1.378c-.069.045-.159.165-.083.245a1.044 1.044 0 0 0 .967.181 13.976 13.976 0 0 0 1.376-.281 13.835 13.835 0 0 0 2.591-.961c.316-.155.122-.424-.177-.34l-2.3.649.1.367a1.686 1.686 0 0 0 1.113-1.11c.076-.255-.537-.179-.609.058Z"/>
        <path fill="#c6c6c5" d="M128.5 117.364c.272 0 .623-.412.216-.412-.272 0-.623.412-.216.412Z"/>
        <path fill="#c6c6c5" d="M127.808 117.086a1.549 1.549 0 0 1 .2-.487c.023-.038.048-.075.074-.112l.039-.053c0-.007.044-.054.018-.024a1.89 1.89 0 0 1 .206-.2l-.547.021a3.55 3.55 0 0 1 0 .652q-.015.166-.045.333a.92.92 0 0 1-.071.268c-.007.012-.045.052-.013.023-.044.039.05-.035 0 0 .006 0 .122-.045.068-.032.054-.009.065-.012.032-.008h.059l-.025-.006c-.016-.007.037.025-.007 0 0 0-.047-.033-.028-.017s-.023-.028-.027-.033c-.02-.023 0 .013-.009-.018s-.011-.032-.014-.049 0-.053 0-.02a.222.222 0 0 1 .006-.051.392.392 0 0 1 .013-.049c-.014.04.006 0 .01-.014s.012-.019-.008.006l.018-.018c.014-.014.007-.009-.022.015.026-.016.018-.012-.023.012.084-.04.248-.152.156-.261s-.3-.064-.4-.016a.542.542 0 0 0-.353.508.41.41 0 0 0 .354.362.779.779 0 0 0 .759-.267.824.824 0 0 0 .119-.323 3.387 3.387 0 0 0 .054-.345 3.945 3.945 0 0 0 0-.813c-.009-.09-.168-.1-.227-.1a.521.521 0 0 0-.32.122 2.031 2.031 0 0 0-.652 1.068c-.032.136.178.159.266.147.121-.016.307-.077.34-.215Z"/>
        <path fill="#c6c6c5" d="m126.668 114.722-.288-.722c-.046-.113-.206-.108-.3-.089a.505.505 0 0 0-.188.071c-.042.029-.11.077-.113.134a2.116 2.116 0 0 0 .36 1.3c.052.077.212.063.282.049a.41.41 0 0 0 .28-.158l.155-.3c.064-.122-.056-.19-.168-.193a.537.537 0 0 0-.237.046.332.332 0 0 0-.16.123l-.155.3.562-.109a1.937 1.937 0 0 1-.313-1.126l-.605.115.288.717c.05.125.24.113.346.082a.463.463 0 0 0 .2-.105c.032-.033.078-.088.057-.138Z"/>
        <path fill="#c6c6c5" d="m110.905 122.005-.158.282.6-.132-.127-.8c-.007-.039-.084-.047-.108-.049a.667.667 0 0 0-.222.027c-.09.025-.263.071-.274.184l-.061.61-.03.293a.906.906 0 0 1-.015.118c0 .015-.011.028-.015.042s-.008.017 0 0c.026-.018.03-.021.011-.01l.126-.062h-.012l.161-.043.052-.006.118.008c.01 0 .029.01.027.018l-.006-.024c0-.016-.01.01 0 0s-.029.027-.01.01l-.1.066h.005l-.305.082-.118-.008c-.026-.015-.033-.017-.019 0 .033.03.118.026.155.024a.792.792 0 0 0 .236-.052c.047-.018.261-.107.177-.183a.251.251 0 0 0-.179-.035.768.768 0 0 0-.366.117.158.158 0 0 0-.084.168c.036.112.218.081.3.067a.55.55 0 0 0 .416-.236.768.768 0 0 0 .039-.243l.03-.294.059-.587-.6.162.127.8c.006.038.084.048.108.049a.691.691 0 0 0 .181-.018.473.473 0 0 0 .311-.163l.158-.282c.021-.038-.025-.062-.052-.071a.449.449 0 0 0-.193 0 .812.812 0 0 0-.23.073.269.269 0 0 0-.122.1Z"/>
        <path fill="#c6c6c5" d="m134.949 98.863-.819-.765a.344.344 0 0 0-.37-.056c-.091.033-.26.146-.208.269a3.83 3.83 0 0 0 1 1.4.319.319 0 0 0 .205.045.442.442 0 0 0 .227-.083c.11-.088.147-.208.034-.307l-.041-.037-.018-.017-.026-.025-.031-.03a3.655 3.655 0 0 1-.136-.143 3.644 3.644 0 0 1-.247-.307 3.59 3.59 0 0 1-.206-.322 2.36 2.36 0 0 1-.047-.086l-.026-.049-.011-.023-.016-.033-.019-.04-.043-.1-.579.213.819.764a.357.357 0 0 0 .409.042.316.316 0 0 0 .156-.141.152.152 0 0 0-.012-.165Z"/>
        <path fill="#c6c6c5" d="m83.717 133.491-.794-.786a.349.349 0 0 0-.329-.024c-.086.032-.212.117-.209.225a3.721 3.721 0 0 0 .59 1.941c.114.177.42.095.53-.038a2.122 2.122 0 0 0 .466-1.626c-.019-.15-.251-.173-.361-.139a.29.29 0 0 0-.243.3 1.69 1.69 0 0 1-.367 1.268l.531-.038a3.3 3.3 0 0 1-.531-1.707l-.538.2.794.786c.107.106.331.05.434-.032a.2.2 0 0 0 .028-.33Z"/>
        <path fill="#c6c6c5" d="M65.458 141.986a.74.74 0 0 0 .123-.918.245.245 0 0 0-.17-.079.494.494 0 0 0-.2.029c-.095.034-.253.135-.211.26a.918.918 0 0 1 .041.194v.065a.8.8 0 0 1-.013.108c-.006.033-.015.064-.023.1s.019-.045 0 .011l-.019.046a.73.73 0 0 1-.047.087c-.013.021-.022.033 0 .006a.826.826 0 0 1-.037.046h.552a1.357 1.357 0 0 1-.111-.315 1.843 1.843 0 0 1-.024-.166v-.124a1.387 1.387 0 0 1 .051-.32l.012-.04c-.007.021-.006.019 0 0s.02-.052.032-.078a1.392 1.392 0 0 1 .078-.148c.076-.125-.066-.227-.179-.235a.423.423 0 0 0-.395.18 1.5 1.5 0 0 0-.07 1.413.233.233 0 0 0 .233.127.434.434 0 0 0 .319-.128 1.031 1.031 0 0 0 .21-.982l-.58.211s.025.047.014.023.007.02.009.025a.44.44 0 0 1 .024.086l.006.036c.008.053 0-.022 0 .008v.09c0 .03-.01.053-.016.079-.014.053.012-.021 0 .006l-.019.041a.372.372 0 0 1-.021.039c-.024.04 0 0 0 0l-.061.066a.16.16 0 0 0 .073.274.452.452 0 0 0 .427-.114Z"/>
        <path fill="#c6c6c5" d="M46.189 153.729c-1.7-2.542-3.419-5.169-3.925-8.242l-.6.162q1.538 3.748 3.247 7.423c.115.247.7.1.6-.162l-2.829-7.548-.6.162q2.464 5.217 4.608 10.575l.579-.211c-1.829-3.168-2.216-7.048-4.621-9.9-.136-.162-.689-.036-.579.211l3.47 7.767c.113.254.708.088.6-.162l-3.8-9.11c-.108-.26-.707-.087-.6.162l3.8 9.11.6-.162-3.47-7.766-.579.211c2.4 2.846 2.794 6.735 4.621 9.9.115.2.673.024.579-.211q-2.142-5.358-4.608-10.576c-.116-.246-.7-.1-.6.162l2.829 7.548.6-.162q-1.71-3.673-3.247-7.423c-.106-.256-.65-.116-.6.162.511 3.106 2.258 5.773 3.975 8.341.145.217.723-.008.554-.261Z"/>
        <path fill="#ececec" d="M236.335 83.018c-2.789-1.343-4.667-3.807-6.152-6.449-1.724-3.067-3.122-6.331-4.629-9.507l-.9.526 5.613 8.672c1.548 2.392 2.978 5.126 5.42 6.732a.523.523 0 0 0 .631-.818c-2.479-2.25-5.029-4.572-6.492-7.643-1.364-2.863-2.034-6.368-5.1-7.961-.594-.309-1.122.59-.526.9 3.121 1.62 3.565 5.533 5.118 8.347 1.54 2.791 3.932 4.976 6.265 7.093l.632-.818c-2.431-1.6-3.857-4.52-5.4-6.9l-5.262-8.13a.522.522 0 0 0-.9.526c1.577 3.322 3.023 6.758 4.876 9.938a15.258 15.258 0 0 0 6.28 6.392c.6.289 1.13-.609.525-.9Z"/>
        <path fill="#c6c6c5" d="m31.919 144.092-4.288 1.423c-.161.053-.4.3-.125.387a3.8 3.8 0 0 0 3.593-.716c.16-.137.122-.3-.09-.334a3.8 3.8 0 0 0-2.613.511.187.187 0 0 0-.08.256c.069.1.23.086.329.064a10.757 10.757 0 0 0 3.489-1.461.175.175 0 0 0 .059-.274c-.094-.1-.278-.06-.386-.017a22.532 22.532 0 0 1-3.882 1.15l.249.32a10.6 10.6 0 0 1 2.53-.992l-.338-.221a3.256 3.256 0 0 1-1.4 1.39c-.314.16-.121.44.182.358 1.148-.307 2.268-.7 3.387-1.1l-.249-.32a18.9 18.9 0 0 1-5.242 2.183c-.3.074-.339.428.021.4a22.444 22.444 0 0 0 3.116-.458 3.854 3.854 0 0 0 2.287-1.054c.045-.055.088-.145.028-.209a7.751 7.751 0 0 0-1.318-1.128 1.3 1.3 0 0 0-1.408-.094 6.247 6.247 0 0 0-1.046.985 5.057 5.057 0 0 1-1.448.93l.327.29a4.724 4.724 0 0 1 1.637-.865l-.357-.166a2.269 2.269 0 0 1-.289 1.013c-.118.213.212.251.339.221a15.583 15.583 0 0 0 1.926-.582c.39-.145 1.244-.346 1.172-.905-.015-.115-.189-.129-.272-.127a3.017 3.017 0 0 0-1.71.587c-.263.193.024.382.249.319a3.618 3.618 0 0 0 2.026-1.412c.193-.279.292-.689-.173-.73a1.885 1.885 0 0 0-.681.134 7.346 7.346 0 0 0-.73.27c-.107.046-.23.176-.147.294s.3.083.408.036a3.8 3.8 0 0 1 .86-.293c.173-.028.056-.006 0 .066-.045.054-.079.127-.12.183a2.943 2.943 0 0 1-.239.284 2.822 2.822 0 0 1-1.3.782l.249.319a2.141 2.141 0 0 1 1.254-.423l-.271-.127c.019.145-.4.248-.5.289q-.352.141-.711.261c-.454.152-.915.28-1.382.389l.339.22a2.555 2.555 0 0 0 .325-1.121c.01-.183-.228-.205-.356-.167a5.544 5.544 0 0 0-1.928 1c-.3.241.1.389.327.291a6.26 6.26 0 0 0 2.157-1.591 1.281 1.281 0 0 1 .466-.391c.209-.068.423.081.589.192a7.393 7.393 0 0 1 1.193 1.027l.027-.209a3.493 3.493 0 0 1-2.091.869 21.075 21.075 0 0 1-2.751.386l.021.4a19.952 19.952 0 0 0 5.534-2.316c.276-.168-.03-.4-.249-.32-1.119.4-2.24.789-3.387 1.1l.182.358a3.939 3.939 0 0 0 1.712-1.665c.111-.208-.206-.26-.338-.221a11.839 11.839 0 0 0-2.821 1.127.186.186 0 0 0-.081.255c.07.1.229.084.33.064a23.471 23.471 0 0 0 4.038-1.207l-.327-.291a9.816 9.816 0 0 1-3.2 1.326l.249.319a2.9 2.9 0 0 1 2-.347l-.089-.334a2.946 2.946 0 0 1-2.845.58l-.125.387 4.288-1.423c.109-.036.289-.129.25-.274s-.247-.148-.354-.112Z"/>
        <path fill="#c6c6c5" d="M11.354 151.342c.326.283.8.076 1.111-.122.419-.267.831-.545 1.246-.818a.189.189 0 0 0 .032-.313.4.4 0 0 0-.433.037l-1.91 1.229c-.269.173.027.429.256.346a28.234 28.234 0 0 0 3.691-1.642c.1-.054.215-.162.156-.286s-.23-.125-.345-.1a10.017 10.017 0 0 0-3.311 1.385.191.191 0 0 0 .1.359 5.084 5.084 0 0 0 3.112-.892.186.186 0 0 0-.026-.343 2.7 2.7 0 0 0-2.213.034 6.617 6.617 0 0 0-1.869 1.352c-.186.171-.071.375.174.36a4.638 4.638 0 0 0 1.653-.5 4.861 4.861 0 0 1 1.561-.548c.131-.013.317-.093.332-.245s-.159-.21-.279-.2a5.037 5.037 0 0 0-1.651.527 4.366 4.366 0 0 1-1.563.52l.174.36c.873-.8 2.065-1.881 3.332-1.254l-.026-.342a4.115 4.115 0 0 1-2.5.728l.1.359a9.109 9.109 0 0 1 3.021-1.247l-.19-.386a27.142 27.142 0 0 1-3.534 1.583l.256.346 1.91-1.229-.4-.276-.852.559c-.131.086-.259.178-.393.258-.095.056-.169.116-.246.049-.2-.175-.729.121-.465.35Z"/>
        <path fill="#1d1d1b" d="M150.341 118.748c2.581 6.6 7.416 12.689 13.814 15.929 6.943 3.515 14.937 1.683 21.6-1.65a29.821 29.821 0 0 0 8.725-6.5 57.957 57.957 0 0 0 6.523-9.48c1.666-2.778 3.594-6.9 7.3-7.133a11.475 11.475 0 0 1 4.1.967c2.088.661 4.2 1.249 6.331 1.75a70.845 70.845 0 0 0 12.084 1.8 46.34 46.34 0 0 0 11.533-.493c5.717-1.132 11-4.558 15.331-8.329 4.3-3.738 8.442-8.537 10.048-14.116a61.111 61.111 0 0 0 1.57-10.283 46.424 46.424 0 0 0 .059-10.969 37.926 37.926 0 0 0-3.385-10.9q-2.658-5.807-5.755-11.4a63.352 63.352 0 0 0-5.751-9.264 64.582 64.582 0 0 0-6.7-6.916c-2.23-2.045-4.525-4.038-6.905-5.909a19.245 19.245 0 0 0-6.586-3.189c-5.9-1.723-12.255-1.919-18.363-1.784-6.244.137-12.86.351-18.713 2.73-6.281 2.552-10.532 7.544-12.91 13.793-2.1 5.513-3.061 11.7-7.671 15.821-2.9 2.591-6.733 4.33-10.225 5.967a25.308 25.308 0 0 1-6.279 2.239c-2.466.458-4.97.6-7.441 1.02-2.5.429-4.977.841-7.488 1.193a33.793 33.793 0 0 0-8.216 2.49 19.751 19.751 0 0 0-5.915 3.889 6.381 6.381 0 0 0-1.829 7.149 7.354 7.354 0 0 0 6.831 5.061 9.077 9.077 0 0 1 3.35.412 11.784 11.784 0 0 1 2.661 1.763 22.814 22.814 0 0 1 5.225 6.188c1.126 1.987 2.073 4.445 1.192 6.7-.244.624.763.895 1 .277 1.669-4.269-1.986-9.18-4.755-12.085a16.225 16.225 0 0 0-4.972-3.816 6.646 6.646 0 0 0-2.673-.449c-1.915-.043-3.725-.255-5.174-1.655-2.427-2.343-2.844-6.161-.388-8.556a19.039 19.039 0 0 1 6.5-4.187 32.254 32.254 0 0 1 7.646-2.2c2.451-.3 4.846-.75 7.278-1.167 2.348-.4 4.73-.534 7.076-.954a22.89 22.89 0 0 0 5.642-1.836c5.825-2.626 12.154-5.528 15.334-11.383 2.71-5 3.378-10.817 6.236-15.757 3.827-6.613 10.582-9.892 17.95-10.894a96.54 96.54 0 0 1 17.29-.649c5.49.251 11.674.828 16.463 3.781a49.261 49.261 0 0 1 6.449 5.252 86.7 86.7 0 0 1 6.836 6.638 46.95 46.95 0 0 1 5.7 8.339q3.07 5.328 5.744 10.874a49.2 49.2 0 0 1 4.27 11.176 38.864 38.864 0 0 1 .53 10.9A93.622 93.622 0 0 1 267.036 90a20.611 20.611 0 0 1-3.331 7.4 41.079 41.079 0 0 1-13.628 12.376 27.1 27.1 0 0 1-7.85 3.129 44.638 44.638 0 0 1-11.4.484 69.644 69.644 0 0 1-12.489-1.924 87.175 87.175 0 0 1-5.873-1.658 13.653 13.653 0 0 0-3.681-.939c-2.662-.082-4.782 1.718-6.249 3.772-2.179 3.051-3.842 6.453-5.967 9.545a31.287 31.287 0 0 1-18.094 12.482c-4.075 1.088-8.223 1.392-12.215-.172a25.013 25.013 0 0 1-9.23-6.746 30.57 30.57 0 0 1-5.688-9.276c-.242-.617-1.25-.349-1 .277Z"/>
        <path fill="#1d1d1b" d="M162.467 92.036q-23.4 10.882-47.083 21.143-24.438 10.621-49.148 20.606-12.74 5.12-25.587 9.97c-.622.233-.352 1.241.277 1 15.782-5.925 31.416-12.243 46.97-18.739q24.775-10.347 49.285-21.32 12.946-5.79 25.811-11.764c.608-.283.079-1.181-.525-.9Z"/>
        <path fill="#1d1d1b" d="M165.892 99.377A19.231 19.231 0 0 1 167.342 82c1.684-2.812 4.115-5.7 7.264-6.884 3.181-1.193 6.68-.577 9.827.405 3.04.949 6.759 2.1 9.02 4.457 2.292 2.393 2.585 5.723 2.318 8.861-.307 3.614-.914 7.131-2.839 10.267a12.755 12.755 0 0 1-7.521 5.977c-6.7 1.868-16.936 2.09-19.566-6.069-.205-.636-1.211-.364-1 .277 2.3 7.128 10.446 8.694 16.966 7.642 3.76-.607 7.246-1.616 9.9-4.482a18.884 18.884 0 0 0 4.654-9.77c.586-3.481 1.059-7.305-.354-10.649-1.339-3.17-4.152-4.757-7.2-6.007-3.536-1.45-7.378-2.841-11.263-2.574a12.688 12.688 0 0 0-8.828 4.879c-5.021 5.872-6.857 14.09-3.827 21.326.255.609 1.264.341 1-.277Z"/>
        <path fill="#1d1d1b" d="M167.984 105.332a36.714 36.714 0 0 1-2.252-5.268q-1.226-3.681-2.72-7.252l-.952.4a86.208 86.208 0 0 1 5.7 12.863c.219.629 1.226.359 1-.277a87.909 87.909 0 0 0-5.8-13.112c-.275-.5-1.185-.152-.953.4 1.776 4.231 2.966 8.685 5.077 12.768.309.6 1.208.07.9-.525Z"/>
        <path fill="#1d1d1b" d="M168.11 105.105c-2.824 2.323-6.736 2.74-10.111 3.833-4.079 1.322-8.028 3.255-11.991 4.893q-12.133 5.013-24.293 9.968-23.654 9.628-47.437 18.931-14.175 5.537-28.4 10.953c-.621.236-.351 1.244.277 1q24.93-9.5 49.72-19.365 24.39-9.716 48.645-19.76 3.549-1.466 7.095-2.935c2.2-.912 4.388-1.95 6.657-2.685 3.581-1.16 7.575-1.637 10.571-4.1.518-.426-.223-1.16-.737-.737Z"/>
        <path fill="#1d1d1b" d="M236.336 93.358a43.784 43.784 0 0 1 7.919-3.834c.625-.227.355-1.235-.277-1a45.11 45.11 0 0 0-8.168 3.939c-.57.35-.047 1.252.526.9Z"/>
        <path fill="#1d1d1b" d="M244.382 89.3c-.833-2.723-2.216-5.252-3.15-7.94a10.95 10.95 0 0 1-.841-4.016c.062-1.195.71-2.169.627-3.422a12.161 12.161 0 0 0-3.99-7.556c-1.162-1.088-2.79-1.556-3.9-2.651a10.4 10.4 0 0 1-1.823-3.052c-1.234-2.648-2.02-5.576-3.484-8.109a.474.474 0 0 0-.531-.216l-5.364 2.183c-.879.358-2.958.71-3.173 1.859a3.9 3.9 0 0 0 .614 2.053c.455 1.023.946 2.03 1.429 3.04 1.244 2.6 2.277 5.262 3.458 7.875l8.107 17.93 2.765 6.115c.249.551 1.059.073.812-.474l-6.241-13.8-3.89-8.6c-.746-1.65-1.349-3.32-2.076-4.973-1.024-2.332-2.18-4.6-3.248-6.914a6.528 6.528 0 0 1-.581-1.3c-.21-1.113 1.007-1.377 1.827-1.711l5.811-2.366-.531-.216a63.943 63.943 0 0 1 2.92 6.842 22.741 22.741 0 0 0 1.771 3.509 7 7 0 0 0 2.78 2.288 11.444 11.444 0 0 1 5.543 7.76c.208 1.374-.446 2.376-.558 3.675a9.474 9.474 0 0 0 .517 3.434c.917 3.094 2.551 5.918 3.493 9 .177.577 1.084.331.907-.25Z"/>
        <path fill="#1d1d1b" d="M234.7 93.218a.521.521 0 0 0 0-1.042.521.521 0 0 0 0 1.042Z"/>
        <path fill="#1d1d1b" d="M237.249 82.552a44.856 44.856 0 0 1-6.161-7.713c-2.118-3.057-4.094-6.207-6.091-9.344-.324-.509-1.138-.038-.812.474 2.04 3.206 4.06 6.424 6.231 9.545a45.178 45.178 0 0 0 6.169 7.7c.445.408 1.112-.255.664-.665Z"/>
        <path fill="#1d1d1b" d="M237.462 81.828a1.062 1.062 0 0 0 1.066-.075 2.621 2.621 0 0 0 .69-.718 2.739 2.739 0 0 0 .456-.889 1.472 1.472 0 0 0-.09-.987 1.279 1.279 0 0 0-1.755-.468 1.881 1.881 0 0 0-.936 1.127 1.794 1.794 0 0 0 .217 1.61.484.484 0 0 0 .644.168.475.475 0 0 0 .168-.643 1.514 1.514 0 0 1-.131-.214c-.025-.048.015-.022.014.036a.266.266 0 0 0-.019-.052 1.536 1.536 0 0 1-.036-.133c0-.018-.007-.036-.011-.054-.016-.077.007.035.006.043a.662.662 0 0 0-.008-.125v-.181c.007-.1-.023.112 0 .013a2.062 2.062 0 0 1 .06-.231c.006-.018.014-.035.019-.053.017-.058-.044.087-.015.034s.04-.085.062-.126.043-.073.066-.108l.032-.046c.045-.065-.016.027-.022.029.024-.009.065-.074.083-.093s.07-.061.1-.094-.081.052-.03.023c.02-.011.038-.027.057-.039s.063-.038.095-.055a.234.234 0 0 0 .05-.025c-.035.041-.088.033-.035.016s.089-.03.134-.041c0 0 .126-.022.05-.012s.017 0 .033 0h.095q.082.007-.012 0c.038-.011.158.067.065.01.021.013.044.025.066.037.083.047-.056-.063 0 .008 0 .006.04.036.043.048-.011-.048-.04-.063-.019-.017.006.013.063.09.02.031s0 0 .006.02c.014.044.016.1.034.144-.006-.015-.007-.108-.007-.025v.1a.5.5 0 0 0 0 .066c-.01-.084.012-.069 0-.027-.017.058-.037.118-.052.176s.032-.062 0 0l-.035.074c-.031.061-.065.12-.1.179-.071.116-.15.229-.23.34-.015.02-.067.086-.005.009l-.061.073c-.042.049-.085.1-.132.141l-.07.065c-.064.059.037-.02-.008.007-.026.015-.05.034-.077.049s-.1.054-.037.023-.032.008-.039.01c-.079.031.061 0 .012 0-.09-.006-.009.03.011.01-.012.011-.144-.056-.018 0a.481.481 0 0 0-.643.169.476.476 0 0 0 .169.643Z"/>
        <path fill="#1d1d1b" d="M235.935 77.218a1.634 1.634 0 0 0 1.157.887 1.658 1.658 0 0 0 .8-.028 1.208 1.208 0 0 0 .753-.591 1.528 1.528 0 0 0-.573-1.726 1.484 1.484 0 0 0-1.7-.3 1.281 1.281 0 0 0-.558.714 1.075 1.075 0 0 0-.025.5.964.964 0 0 0 .228.447.471.471 0 0 0 .665 0 .484.484 0 0 0 0-.665c.1.122.026.021 0-.014.068.105.031.087.023.043a.31.31 0 0 0-.011-.051c.037.131.01.1.011.063v-.063c.008.109-.018.1-.008.062.006-.025.011-.049.018-.073s.014-.035.019-.052c-.035.12-.038.083-.02.052l.058-.1c.045-.07-.068.071-.025.033.014-.013.025-.029.038-.042l.033-.032.035-.03c-.063.048-.079.061-.05.04a.961.961 0 0 0 .1-.057c.048-.031-.12.04-.039.018l.043-.013c.062-.016.055.016-.03 0a.368.368 0 0 0 .058-.005h.114c.051.005.038 0-.04-.006.024.02.094.021.124.031.014 0 .056.027.068.023-.032.01-.088-.042-.032-.013s.087.044.128.069l.075.049c.031.021.081.084 0 0 .064.068.142.124.207.194.012.014.07.1.086.1l-.037-.049.035.048.049.076c0 .008.072.133.072.133s-.035-.1-.013-.029c.01.028.02.056.028.085l.014.056c.023.1 0-.09 0-.025v.07-.007c0-.044.006-.046 0-.007 0 .011-.032.1 0 .024s-.009.007-.016.02c-.041.076.012-.029.02-.025l-.064.061c0-.008.1-.063.024-.021-.025.015-.05.032-.076.046s-.037.016-.053.025c.112-.067.061-.025.021-.011a1.018 1.018 0 0 1-.117.032c-.017 0-.1.016-.01.005s.007 0-.01 0a.972.972 0 0 1-.121 0h-.097l.076.01a1.214 1.214 0 0 1-.282-.076s.11.052.044.018c-.021-.011-.044-.021-.065-.033-.044-.023-.084-.051-.125-.077-.061-.039.033.025.037.03-.019-.021-.045-.037-.065-.056s-.062-.063-.093-.1c-.062-.066.064.095.014.019-.013-.021-.028-.04-.04-.061a1.071 1.071 0 0 1-.068-.13.467.467 0 0 0-.281-.216.482.482 0 0 0-.362.047.475.475 0 0 0-.216.281.541.541 0 0 0 .047.362Z"/>
        <path fill="#1d1d1b" d="M234.454 74.717a.686.686 0 0 0 .443.454.8.8 0 0 0 .5-.022 1.678 1.678 0 0 0 .793-.715 7.965 7.965 0 0 0 .55-.923 1.955 1.955 0 0 0 .3-1.207 1.042 1.042 0 0 0-.7-.775 1.324 1.324 0 0 0-1 .062 2.185 2.185 0 0 0-.82.749 4.076 4.076 0 0 0-.54.958 1.48 1.48 0 0 0 .842 2 .47.47 0 0 0 .25-.907l-.072-.022c.021.007.077.045.009 0l-.063-.04c.013.009.045.05.022.014a.226.226 0 0 0-.053-.054c-.05-.036.033.059 0 0s-.053-.089-.078-.135.017.069 0 0c0-.025-.016-.05-.023-.075s-.019-.145-.014-.05v-.157c0-.011.01-.092 0-.023 0-.032.012-.064.019-.1a1.973 1.973 0 0 1 .311-.652c.06-.093.123-.184.188-.275.053-.075.022-.031.009-.015l.058-.071a1.974 1.974 0 0 1 .139-.15 1.166 1.166 0 0 1 .118-.1c-.061.045.075-.041.091-.05s.08-.037.01-.009a.424.424 0 0 1 .05-.018.4.4 0 0 0 .07-.017c.046-.02-.086 0 0 0 .041 0 .085.005.126 0 .061 0-.073-.028-.019 0a.39.39 0 0 0 .069.019.42.42 0 0 1 .05.017c-.1-.036-.037-.017-.018 0s.039.024.058.037c-.048-.034-.042-.039-.007 0l-.013-.014a.179.179 0 0 1 .025.045c-.056-.105 0-.024-.009 0 .013-.065 0 0 0 .019s-.013.088 0 .019c-.006.032-.015.065-.024.1s-.015.048-.024.071-.042.1-.018.05a6.875 6.875 0 0 1-.366.7 7.082 7.082 0 0 1-.375.58c-.017.023-.128.162-.068.1l-.047.05c-.016.016-.089.068-.034.032s0 0-.011 0c-.032.017-.061.034-.093.05l.033-.018c-.058.032-.038.007.02 0-.078.005.033.005.044.008a.308.308 0 0 1 .2.2.48.48 0 0 0-.578-.328.474.474 0 0 0-.328.578Z"/>
        <path fill="#1d1d1b" d="M233.2 72.507a1.66 1.66 0 0 0 2.138-1.665 1.727 1.727 0 0 0-.944-1.349 1.561 1.561 0 0 0-1.654.169 1.721 1.721 0 0 0-.653 1.681.473.473 0 0 0 .578.329.483.483 0 0 0 .329-.579c-.016-.083 0 .022 0 .032a.44.44 0 0 0 0-.062v-.141c0-.064-.019.095 0 .033 0-.021.007-.041.012-.061.01-.046.026-.09.039-.135.028-.1-.036.07-.007.01l.028-.056c.019-.038.04-.074.062-.109.012-.018.025-.035.036-.053.033-.053-.058.067-.016.02s.068-.079.106-.115c.014-.013.118-.095.06-.055s.055-.035.068-.043a.969.969 0 0 0 .124-.065c-.01.009-.1.035-.025.012l.074-.023.06-.014c.02 0 .083-.027.015 0s.012 0 .031 0h.066a.289.289 0 0 0 .064 0c-.01 0-.113-.022-.029 0 .052.011.1.026.155.04s.05-.006-.023-.012a.229.229 0 0 1 .059.028 1.227 1.227 0 0 1 .111.064.421.421 0 0 0 .054.036c-.009 0-.084-.071-.018-.013a1.539 1.539 0 0 1 .117.112c.015.015.029.032.043.048.04.045.018-.006-.013-.018.024.01.057.086.07.109s.061.086.059.115c0-.04-.029-.078-.012-.023.01.031.021.061.029.092l.014.062c.01.042-.009.058 0-.03 0 .041.007.087.007.129v.064-.03c0-.001-.032.132-.037.145a.4.4 0 0 0-.02.056c-.014-.032.043-.087.01-.032-.02.035-.037.07-.059.1 0 0-.034.049-.033.05s.073-.084.008-.014c-.03.033-.06.066-.093.1l-.045.04c-.076.069.086-.055 0 0-.042.027-.083.055-.128.079-.017.009-.036.017-.053.027-.075.04.07-.022.015-.006s-.084.03-.128.042l-.072.016c-.089.022 0-.014.022 0-.023-.014-.118.007-.149.006h-.059c-.091 0 .1.026.008 0-.049-.013-.1-.024-.145-.041a.474.474 0 0 0-.578.329.482.482 0 0 0 .328.578Z"/>
        <path fill="#1d1d1b" d="M230.8 68.559a1.53 1.53 0 0 0 1.489.122 1.46 1.46 0 0 0 .917-1.268 1.633 1.633 0 0 0-.778-1.413 1.405 1.405 0 0 0-1.578.069 1.587 1.587 0 0 0-.612 1.728.47.47 0 1 0 .906-.25c-.014-.041-.023-.083-.034-.125-.024-.092.006.119 0 .024v-.064c0-.026.015-.166 0-.078s0 0 0-.013.012-.051.018-.075c.012-.041.032-.081.042-.123-.027.117-.026.06 0 .018l.031-.057c.022-.037.049-.072.071-.109.032-.052-.079.091-.017.024l.053-.058a.884.884 0 0 0 .095-.088l-.055.042.042-.03.054-.035c.021-.012.149-.072.07-.039s0 0 .015 0 .049-.015.074-.021.052-.008.075-.016c-.1.034-.088.009-.047.009h.143c.043 0-.125-.027-.036 0l.062.014.061.019a.468.468 0 0 1 .048.018l-.065-.027a.8.8 0 0 0 .123.067.47.47 0 0 0 .054.037c-.084-.033-.064-.055-.024-.018s.064.058.093.089l.044.049c.061.067-.056-.084-.01-.013.026.04.053.079.076.121l.029.058c.043.081-.027-.088-.011-.029.011.041.028.081.039.123 0 .02.009.042.014.062.022.09-.007-.109 0-.023v.14c0 .047-.027.082.008-.036-.006.021-.008.043-.012.064-.01.041-.026.081-.037.122-.015.057.056-.112.014-.036-.014.025-.026.049-.041.073l-.033.05c-.047.072.066-.07.023-.03s-.053.059-.082.086l-.044.039c-.065.058.08-.051.029-.022s-.08.053-.123.076l-.053.027c-.079.041.1-.037.023-.01-.046.016-.091.032-.138.044-.023 0-.047.011-.071.015-.044.008-.106-.007.03 0-.048 0-.1.007-.144.006h-.06c-.108 0 .105.022.019 0a1.4 1.4 0 0 1-.138-.035c-.014 0-.03-.013-.045-.016l.047.02-.042-.022a.959.959 0 0 1-.121-.078.468.468 0 0 0-.362-.048.47.47 0 0 0-.113.859Z"/>
        <path fill="#1d1d1b" d="M228.448 65.432a2.315 2.315 0 0 0 2.822.425c.556-.33.977-1.095.454-1.653a1.59 1.59 0 0 0-1.589-.282 2.053 2.053 0 0 0-1.3 1.214.471.471 0 0 0 .328.578.483.483 0 0 0 .578-.328c-.035.088 0 0 .022-.038s.042-.075.065-.11c.01-.015.022-.03.031-.045.036-.057-.052.056-.006.008.029-.031.056-.065.086-.095a1.274 1.274 0 0 1 .094-.087c.012-.01.075-.057.025-.021s0 0 .011-.007c.079-.05.158-.093.24-.137.046-.025-.023.01-.028.011l.069-.025c.041-.014.082-.026.123-.037s.072-.014.108-.023c.066-.017-.085 0-.017 0 .025 0 .049 0 .073-.006h.202c.012 0 .07.013.01 0s0 0 .01 0c.026.006.051.011.076.018l.057.018c.048.01-.058-.038.013.007l.049.03c.06.034-.06-.043-.008 0s-.011-.016-.015-.02c.019.019.009.055.007.012-.008-.162-.019 0-.015 0-.022 0 .043-.115 0-.018-.024.05-.015.019 0-.007-.014.019-.027.047-.039.067s-.044.056-.011.016-.01.009-.014.013l-.057.057c-.005.005-.055.05-.013.014s-.018.012-.03.02c-.036.024-.073.046-.11.066s-.076.038-.114.057c-.06.03.076-.025.011-.006-.017 0-.034.013-.051.019-.087.029-.175.045-.264.066-.053.013.031 0 .035 0l-.073.007c-.043 0-.085 0-.128.006s-.073 0-.109 0h-.073c-.013 0-.095-.008-.029 0s-.011 0-.028 0l-.072-.014c-.047-.01-.094-.023-.141-.037s-.092-.032-.138-.047c-.064-.021.071.036.011 0l-.065-.032a1.212 1.212 0 0 1-.127-.071l-.046-.029s-.1-.065-.042-.026 0 0-.009-.008l-.069-.061a1.574 1.574 0 0 1-.114-.117.473.473 0 0 0-.665 0 .481.481 0 0 0 0 .664Z"/>
        <path fill="#1d1d1b" d="m140.456 102.47 2.254-4.8a45.669 45.669 0 0 1 2.181-4.523c.039-.064.447-.59.2-.457h.025a1.353 1.353 0 0 1 .292-.042l2.976-.426c.661-.095.38-1.1-.277-1l-3.018.432c-.424.061-.565.215-.855.617a13.155 13.155 0 0 0-1.138 2.155l-1.149 2.445-2.386 5.078c-.284.6.614 1.133.9.526Z"/>
        <path fill="#1d1d1b" d="m129.753 72.456 4.757-10.2c.684-1.465 1.278-3.495 2.717-4.414 1.4-.894 3.472-.953 5.079-1.177A63.4 63.4 0 0 0 152.7 54.8a25.452 25.452 0 0 0 7.49-3.853c9.305-6.882 13.819-17.973 20.53-27.035 3.992-5.391 8.952-10.3 15.463-12.425.634-.207.363-1.214-.277-1-11.442 3.734-17.578 14.887-23.587 24.451-3.2 5.088-6.67 10.162-11.311 14.052a25.27 25.27 0 0 1-8.149 4.669 56.062 56.062 0 0 1-10.373 1.941 20.232 20.232 0 0 0-5.123 1.014 5.974 5.974 0 0 0-2.925 3.344c-1.887 3.98-3.723 7.985-5.584 11.977-.282.6.616 1.134.9.526Z"/>
        <path fill="#1d1d1b" d="M182.345 21.511c1.533-3.587 4.473-6.157 7.757-8.135a54.51 54.51 0 0 1 11.575-5.122 44.126 44.126 0 0 1 25.984-.47 64.922 64.922 0 0 1 11.974 4.927 73.049 73.049 0 0 1 10.87 6.737c6.883 5.325 10.819 13.6 13.925 21.537 3.576 9.142 5.578 19.1 3.751 28.865-.123.656.881.937 1 .277 1.664-8.894.281-17.963-2.653-26.443a92.556 92.556 0 0 0-5.345-12.3 38.55 38.55 0 0 0-7.638-10.717 56.193 56.193 0 0 0-10.84-7.467 73.759 73.759 0 0 0-12.239-5.615 45.171 45.171 0 0 0-26.442-1.094 57.232 57.232 0 0 0-13.6 5.5c-3.747 2.124-7.245 4.952-8.975 9-.261.609.637 1.141.9.525Z"/>
        <path fill="#1d1d1b" d="M151.037 118.094a36.847 36.847 0 0 0-1.823-5.144.523.523 0 0 0-.712-.187.534.534 0 0 0-.187.713 34.974 34.974 0 0 1 1.717 4.895.522.522 0 0 0 1-.277Z"/>
        <path fill="#1d1d1b" d="M266.193 94.018a.521.521 0 0 0 0-1.042.521.521 0 0 0 0 1.042Z"/>
        <path fill="#1d1d1b" d="m190.586 77.443 18.8-7.639c2.057-.836 5.4-1.425 5.754-4.049a32.832 32.832 0 0 0 .078-4.151c.013-1.659.045-3.318.037-4.976-.009-2.007-.143-4.28-1.448-5.917-1.551-1.948-4.292-1.964-6.561-2.222a35.018 35.018 0 0 0-9.455-.085 25.148 25.148 0 0 0-7.846 2.766 64.738 64.738 0 0 0-13.008 9.674 73.476 73.476 0 0 0-10.593 12.044 57.663 57.663 0 0 0-7.293 14.163c-.527 1.536-.964 4.226 1.346 4.483 2.391.265 3.139-2.332 3.434-4.154a17.142 17.142 0 0 1 9.933-13.031A16.954 16.954 0 0 1 191.2 77.11c.507.434 1.248-.3.737-.737a17.83 17.83 0 0 0-23.632.356 18.294 18.294 0 0 0-3.777 5.027 24.572 24.572 0 0 0-1.881 6.375 3.077 3.077 0 0 1-1.135 2.094 1.167 1.167 0 0 1-1.905-.963 10.912 10.912 0 0 1 1.139-3.82 55.152 55.152 0 0 1 3.2-6.758 72.807 72.807 0 0 1 19.819-22.2c4.126-3.135 8.673-6.069 13.857-7a31.469 31.469 0 0 1 8.9-.031c2.678.286 6.085.2 7.169 3.2.915 2.529.5 5.587.485 8.218l-.019 2.439a6.769 6.769 0 0 1-.29 2.988c-.743 1.392-3.361 1.93-4.764 2.5l-18.8 7.639c-.613.249-.345 1.258.277 1Z"/>
        <path fill="#1d1d1b" d="M45.592 154.185c-.226 3.132-5 3.566-7.248 4.649-4.125 1.987-8.334 3.663-12.536 5.466-.93.4-1.848.835-2.807 1.163a14.2 14.2 0 0 1-2.985.517 2.418 2.418 0 0 1-1.269.005 12.92 12.92 0 0 1-2.595-1.66q-1.442-1.014-2.79-2.151a3.089 3.089 0 0 1-1.392-1.951c-.117-.622-.15-1.275-.224-1.9l-.839-7.143c-.064-.542-.922-.548-.858 0l.784 6.666a28.717 28.717 0 0 0 .344 2.856 3.213 3.213 0 0 0 1.233 1.788 40.746 40.746 0 0 0 4.818 3.591 3.394 3.394 0 0 0 2.475.811 17.155 17.155 0 0 0 4.641-1.027q2.687-1.106 5.379-2.19 2.874-1.156 5.684-2.463c1.737-.807 3.416-1.753 5.226-2.388 2.409-.845 5.6-1.591 5.816-4.635.04-.55-.818-.548-.857 0Z"/>
        <path fill="#1d1d1b" d="M41.419 147.208c-1.894-1.206-3.995-2.472-6.334-2.2-2.635.305-5.32 1.375-7.869 2.094q-8.307 2.346-16.584 4.8a.429.429 0 0 0 .228.827q7.567-2.243 15.16-4.4c2.531-.718 5.059-1.449 7.6-2.131a6.5 6.5 0 0 1 4.054-.022 16.184 16.184 0 0 1 3.313 1.77c.466.3.9-.444.432-.74Z"/>
        <path fill="#1d1d1b" d="M142.581 93.965c-1.773.914-2.937 2.5-4.251 3.944a14.257 14.257 0 0 1-5.52 3.544 25.093 25.093 0 0 0-5.5 2.632 20.5 20.5 0 0 0-4.494 5.044c-.388.549.515 1.07.9.526a17.565 17.565 0 0 1 4.752-5.095 39.7 39.7 0 0 1 5.592-2.5 13.707 13.707 0 0 0 4.707-3.092c1.377-1.45 2.514-3.16 4.335-4.1.6-.308.069-1.207-.526-.9Z"/>
        <path fill="#1d1d1b" d="M148.351 96.855a1.894 1.894 0 0 1-1 1.316 16.173 16.173 0 0 1-2 1.036 48.671 48.671 0 0 1-4.747 1.929c-.63.218-.359 1.225.277 1a51.148 51.148 0 0 0 5.415-2.233c1.317-.634 2.973-1.39 3.095-3.052.049-.669-.993-.666-1.042 0Z"/>
        <path fill="#1d1d1b" d="M33.412 145.9a3.665 3.665 0 0 0-.518-2.271 1.26 1.26 0 0 0-.985-.674 6.34 6.34 0 0 0-1.19.087c-1.475.172-3.059.66-3.718 2.126a2.467 2.467 0 0 0 .035 2.272.521.521 0 0 0 .9-.525 1.509 1.509 0 0 1 .143-1.555 2.648 2.648 0 0 1 1.573-1.067 6.677 6.677 0 0 1 1.068-.209c.2-.023.395-.041.592-.058a1.626 1.626 0 0 1 .55-.032c.1.038.153.189.2.276a2.512 2.512 0 0 1 .222.533 2.859 2.859 0 0 1 .086 1.1.524.524 0 0 0 .521.521.533.533 0 0 0 .521-.521Z"/>
        <path fill="#1d1d1b" d="m30.073 145.342-1.656-3.2a.527.527 0 0 0-.818-.105l-.814.674a1.047 1.047 0 0 0-.465.823c.017.707.8 1.023 1.4 1.045a2.348 2.348 0 0 0 2.344-1.863.541.541 0 0 0-.364-.641 3.564 3.564 0 0 0-3.625.808.526.526 0 0 0 .368.889 5.007 5.007 0 0 0 3.951-2.235.526.526 0 0 0-.588-.765l-3 1a.534.534 0 0 0-.364.641.527.527 0 0 0 .641.364l3-1-.588-.766a3.924 3.924 0 0 1-3.052 1.719l.369.89a2.513 2.513 0 0 1 2.611-.541l-.364-.64a1.887 1.887 0 0 1-.056.245.477.477 0 0 1-.067.157 1.157 1.157 0 0 1-.282.352 1.538 1.538 0 0 1-.359.232 1.731 1.731 0 0 1-.163.059 2.078 2.078 0 0 1-.19.046 1.6 1.6 0 0 1-.25.006.635.635 0 0 0-.068-.006.978.978 0 0 0-.1-.022c-.088-.024-.094-.061-.17-.071s.021-.026 0 .009c-.005.007.007.051.007.061 0 .125-.057.115-.012.092a.81.81 0 0 0 .112-.1c.093-.079.187-.156.281-.234l.595-.493-.818-.105 1.656 3.2a.521.521 0 1 0 .9-.526Z"/>
        <path fill="#1d1d1b" d="M23.659 148.663c.231-.758-.438-1.344-1.112-1.51a4.457 4.457 0 0 0-.972-.063 1.487 1.487 0 0 1-.358-.039.369.369 0 0 1-.146-.054.332.332 0 0 1-.062-.051.536.536 0 0 0-.713-.186 5.4 5.4 0 0 0-2.282 2.259c-.314.592.585 1.119.9.526a4.45 4.45 0 0 1 1.909-1.886l-.713-.187a1.87 1.87 0 0 0 1.692.662 1.484 1.484 0 0 1 .631.073.576.576 0 0 1 .24.165c-.042-.044 0 .061-.007-.012.008.146.037-.131-.01.026-.2.643.81.918 1 .277Z"/>
        <path fill="#1d1d1b" d="M21.411 147.68a18.481 18.481 0 0 1-2.1-2.816l-.713.713a1.971 1.971 0 0 0 2.049.122l-.632-.818a2.856 2.856 0 0 1-2.41.687l.364.364c.009.058 0-.125 0-.149s.018-.209.007-.146a1.86 1.86 0 0 1 .072-.278c.024-.06.027-.072.01-.037a1.5 1.5 0 0 1 .427-.595 1.657 1.657 0 0 1 1.4-.326 1.989 1.989 0 0 1 .766.32.556.556 0 0 1 .135.112c-.031-.036.071.065.011.024a.105.105 0 0 1 0-.078c-.017.058-.017.063 0 .014-.033.051-.036.058-.008.022a.625.625 0 0 1-.057.058.418.418 0 0 1-.1.066c-.058.028-.068.034-.031.02a1.235 1.235 0 0 1-.108.034 2.231 2.231 0 0 1-.384.03 2.741 2.741 0 0 0-1.132.213.525.525 0 0 0-.187.712.533.533 0 0 0 .713.187 2.7 2.7 0 0 1 .884-.082 1.752 1.752 0 0 0 .965-.348 1.147 1.147 0 0 0 .477-.886 1.21 1.21 0 0 0-.6-.963 2.821 2.821 0 0 0-3.629.278 2.47 2.47 0 0 0-.635 2.075.5.5 0 0 0 .364.364 3.941 3.941 0 0 0 3.424-.956.519.519 0 0 0 .041-.684.527.527 0 0 0-.672-.134.981.981 0 0 1-.268.086c.061-.011-.051 0-.069 0a1.334 1.334 0 0 1-.179 0c-.043 0 0 0-.068-.013a1.3 1.3 0 0 1-.172-.05c.063.024-.1-.052-.092-.047-.052-.03-.1-.064-.149-.1-.432-.317-.968.291-.713.713a19.81 19.81 0 0 0 2.263 3.026.52.52 0 0 0 .736-.736Z"/>
        <path fill="#1d1d1b" d="M15.219 151.045a1.083 1.083 0 0 0 .458-1.366 1.377 1.377 0 0 0-1.55-.828 4.429 4.429 0 0 0-1.7.7A6.982 6.982 0 0 0 11 150.716a.521.521 0 0 0 .737.737 5.939 5.939 0 0 1 .982-.858q.273-.186.563-.343a5.116 5.116 0 0 1 .555-.261 2.525 2.525 0 0 1 .318-.1.651.651 0 0 1 .241-.024.844.844 0 0 1 .087 0c-.035 0-.034 0 0 0s.092.027.138.041c-.031-.009-.026 0 .015.016l-.036-.024a.731.731 0 0 1 .084.083c-.058-.063-.023-.021.007.025.047.073 0-.042 0 0 0 .013.038.149.022.065s0 .029 0 .046c.013.1.033-.082 0 .01-.012.037-.058.121 0 .009-.049.092.054-.089-.006.006.035-.056.057-.039-.02 0a.525.525 0 0 0-.187.713.534.534 0 0 0 .713.187Z"/>
        <path fill="#1d1d1b" d="M14.2 150.1q.045.034-.03-.024l-.092-.076a6.947 6.947 0 0 1-.129-.113c-.1-.09-.2-.185-.287-.282a3.943 3.943 0 0 1-.439-.545 4.505 4.505 0 0 1-.637-1.353l-.5.659a1.593 1.593 0 0 1 .665.139 1.619 1.619 0 0 1 .6.473l.105-.818a3.763 3.763 0 0 1-.731.383 4.081 4.081 0 0 1-.462.136 3.314 3.314 0 0 1-.336.063 3.764 3.764 0 0 1-.9 0 1.018 1.018 0 0 0-.1-.017 1.277 1.277 0 0 1-.221-.054c0-.013.073.076.075.084.023.077-.009.1.02 0 .012-.034.011-.034 0 0 .016-.032.033-.064.052-.095s.113-.16.078-.116a3.085 3.085 0 0 1 .261-.287 2.46 2.46 0 0 1 .606-.447 2.81 2.81 0 0 1 1.439-.361.521.521 0 1 0 0-1.042 3.911 3.911 0 0 0-3.008 1.357 1.873 1.873 0 0 0-.455.816.916.916 0 0 0 .431 1 2.369 2.369 0 0 0 .943.216 4.018 4.018 0 0 0 .87-.019 4.574 4.574 0 0 0 1.965-.713.531.531 0 0 0 .105-.818 2.621 2.621 0 0 0-2-.918.526.526 0 0 0-.5.66A5.807 5.807 0 0 0 13.672 151a.524.524 0 0 0 .712-.187.533.533 0 0 0-.187-.713Z"/>
        <path fill="#1d1d1b" d="m23.474 166.29.183 1.375c.059.449.088.917.188 1.359a1.2 1.2 0 0 0 .767.9 1.519 1.519 0 0 0 1.07-.1c.657-.279 1.575-.952 1.394-1.773-.189-.854-1.191-.826-1.841-.6q-1.45.5-2.9 1.01a.529.529 0 0 0-.23.871 2.539 2.539 0 0 0 2.131 1.125 1.462 1.462 0 0 0 1.316-1.718.522.522 0 0 0-1 .277c.015.064.018.07.008.019v.033c.026-.081-.046.136-.016.065s-.092.137-.029.055a.742.742 0 0 1-.115.116c.051-.042-.074.047-.075.047s-.141.063-.079.041a.839.839 0 0 1-.162.042c.077-.011-.089 0-.11-.005a2.074 2.074 0 0 1-1.132-.834l-.229.871 2.022-.7c.326-.113.65-.233.978-.34.048-.016.1-.03.146-.043.025-.006.142-.031.11-.026s.1-.008.137-.008h.075c.082 0-.071-.017 0 0 .022.006.044.011.066.019-.012 0-.069-.038-.027 0 .023.017-.045-.06-.066-.091s.033-.068-.008.01c.014-.027-.04.05-.048.059a1.7 1.7 0 0 1-.573.455 1.544 1.544 0 0 1-.157.08c.046-.02-.07.025-.087.03-.033.01-.166.04-.14.036.049 0-.154-.008-.04.009-.034 0-.135-.012-.055-.009-.008 0-.064-.046-.028-.014s-.023-.025-.023-.026c.013.025-.02-.049-.024-.06a1.308 1.308 0 0 1-.047-.215c-.126-.773-.208-1.556-.311-2.333a.538.538 0 0 0-.521-.521c-.253 0-.559.24-.521.521Z"/>
        <path fill="#1d1d1b" d="m29.969 163.305.665 1.887.317.9a1.81 1.81 0 0 0 .434.82c.575.5 1.228-.083 1.7-.434.491-.367 1.279-.876.889-1.6a1.772 1.772 0 0 0-1.592-.683 4.369 4.369 0 0 0-1.7.357 8.885 8.885 0 0 0-1.642.867.878.878 0 0 0-.45.773.86.86 0 0 0 .612.734 2.568 2.568 0 0 0 .882.109 10.562 10.562 0 0 0 1.1-.037 11.43 11.43 0 0 0 2.209-.407.521.521 0 0 0-.277-1 10.22 10.22 0 0 1-2.775.408 6.079 6.079 0 0 1-.675-.017c.082.008-.11-.028-.131-.036.058.022-.023-.015-.02-.018l.03.018a.227.227 0 0 1 .059.288c-.047.151-.048.068.018.055a.649.649 0 0 0 .133-.082l.27-.162c.2-.113.392-.222.594-.323a3.219 3.219 0 0 1 2.3-.4 1.336 1.336 0 0 0 .152.069c-.042.019-.025-.226-.01-.221 0 0-.127.123-.149.142-.094.076-.19.15-.287.223q-.264.2-.536.389c-.019.013-.249.155-.248.164 0-.008.238.059.241.058.019 0-.02-.034-.016-.023-.208-.479-.352-1-.526-1.491l-.564-1.6a.532.532 0 0 0-.64-.363.524.524 0 0 0-.364.64Z"/>
        <path fill="#1d1d1b" d="M36.575 160.83a6.629 6.629 0 0 1 .984 2.558.522.522 0 0 0 .64.363 3.264 3.264 0 0 0 1.287-1.071 1.124 1.124 0 0 1 .466-.348.538.538 0 0 1 .24-.035c-.054 0 .06.039.019.009s.074.085.072.082l-.081-.632a5.443 5.443 0 0 1-4.7 2.754l.521.521a2.475 2.475 0 0 1 1.208-1.854 2.769 2.769 0 0 1 1.051-.389 2.407 2.407 0 0 1 .555-.006 2.845 2.845 0 0 1 .327.071.721.721 0 0 0 .5-.047l-.263.071h.033l-.263-.072-.173-.4.134-.23-.023.023.23-.134-.036.01a.522.522 0 0 0 .277 1.005.632.632 0 1 0-.476-1.165l.4-.053a3.634 3.634 0 0 0-4.524 3.163.527.527 0 0 0 .521.521 6.5 6.5 0 0 0 5.6-3.27.542.542 0 0 0-.081-.631 1.377 1.377 0 0 0-1.8-.111 3.064 3.064 0 0 0-.685.66 1.662 1.662 0 0 1-.608.547l.641.364a7.364 7.364 0 0 0-1.089-2.806c-.363-.561-1.265-.04-.9.525Z"/>
        <path fill="#1d1d1b" d="M28.808 158.319a16.75 16.75 0 0 1-.773 1.627c-.074.135-.147.272-.228.4a2.059 2.059 0 0 1-.112.169c.055-.073-.034.035-.047.049a.9.9 0 0 1-.071.067c.041-.031.036-.029-.014 0s-.058.032 0 .007a.512.512 0 0 1-.077.02c.073-.009.079-.011.02-.008s-.054 0 .019 0a.5.5 0 0 1-.076-.021c.058.026.071.031.037.012s-.024-.01.028.028c-.04-.04-.037-.033.009.023-.042-.114.031.082.013.081 0 0 .137-.307.161-.355q.206-.411.433-.81a18.246 18.246 0 0 1 1.005-1.575.522.522 0 0 0-.187-.712.534.534 0 0 0-.712.187q-.507.711-.945 1.467-.222.386-.425.781a2.67 2.67 0 0 0-.365.938 1 1 0 0 0 1.262.964c.581-.128.895-.694 1.157-1.173a18.514 18.514 0 0 0 .893-1.9.522.522 0 0 0-.364-.64.536.536 0 0 0-.641.363Z"/>
        <path fill="#1d1d1b" d="M22.6 161.88c-.049.179-.1.358-.157.533a2.95 2.95 0 0 1-.037.1c-.006.015-.013.031-.018.047-.02.056.02-.052.021-.048 0 .046-.068.139-.092.179l-.047.075c-.052.085.031-.031.011-.01-.046.048-.087.1-.135.145-.028.027-.057.051-.085.076-.078.067.023-.013 0 0-.072.046-.14.1-.212.144s-.156.1-.237.142c-.022.013-.126.066-.053.029-.032.016-.057 0-.024.011s.066.008.094.02l.022.01a.243.243 0 0 1 .138.208c-.008 0 .021.047 0-.015.006.02-.024.075 0 .027a.539.539 0 0 0 .022-.068c-.027.079.011-.018.026-.046.033-.064.068-.126.1-.19.208-.4.384-.807.555-1.22.039-.1.078-.191.118-.286-.039.092.015-.034.028-.064l.067-.151c.114-.252.239-.5.371-.742a.521.521 0 1 0-.9-.526 15.193 15.193 0 0 0-.681 1.471l-.067.163-.026.062c.039-.093.008-.018 0 0-.052.117-.1.235-.157.35-.116.248-.259.484-.37.733a.932.932 0 0 0 .09 1.069.915.915 0 0 0 1.083.1 2.874 2.874 0 0 0 .98-.731 3.484 3.484 0 0 0 .578-1.325.521.521 0 0 0-1-.277Z"/>
        <path fill="#1d1d1b" d="M18.093 155.051c-.126.3-.238.6-.355.906l-.074.185c-.047.118.045-.093 0 0l-.034.076a2.394 2.394 0 0 1-.162.3l-.041.061c-.057.085-.006-.017.022-.027-.032.012-.09.1-.116.127s-.037.034-.055.051c-.082.077.008-.024.026-.017a1.462 1.462 0 0 0-.157.1c-.05.03-.1.056-.155.081-.09.043-.035-.006.009 0a.447.447 0 0 0-.125.048 4.588 4.588 0 0 1-.488.137l.641.641c.194-.5.332-1.018.508-1.525.016-.047.033-.093.051-.14l.027-.07c.04-.1-.052.114-.005.011s.1-.208.152-.31a6.645 6.645 0 0 1 .506-.771.523.523 0 0 0-.187-.713.536.536 0 0 0-.713.187 5.7 5.7 0 0 0-.826 1.5c-.182.515-.321 1.043-.518 1.553-.152.393.29.722.641.641a2.627 2.627 0 0 0 1.676-1 3.856 3.856 0 0 0 .377-.788c.126-.321.243-.645.378-.964a.521.521 0 0 0-.364-.64.537.537 0 0 0-.641.363Z"/>
        <path fill="#1d1d1b" d="M24.681 152.666a6.693 6.693 0 0 0-.7 1.4c-.094.24-.182.481-.28.719-.019.044-.164.444-.212.437l.052-.066c-.025.026-.017.021.026-.015a.436.436 0 0 1 .433-.048c.069.03.18.138.088.037-.057-.061.084.113.03.039l-.1-.133a.905.905 0 0 0-.09-.106 1.169 1.169 0 0 0-.988-.35l.5.66q.218-.56.446-1.114c.018-.044.021-.05 0 0l.042-.1.083-.19c.052-.117.105-.235.159-.351.279-.606.572-1.207.851-1.813a.536.536 0 0 0-.187-.713.525.525 0 0 0-.712.187c-.585 1.268-1.181 2.518-1.688 3.82a.522.522 0 0 0 .5.659.979.979 0 0 1 .132-.011c.081 0 .088.022.013 0 .031.01.065.019.1.028-.134-.039-.042-.016 0 .012s-.089-.092-.017-.009c.017.02.038.038.056.058s.031.041.049.058c.041.041-.088-.114-.026-.032a.836.836 0 0 0 .423.35.614.614 0 0 0 .6-.164 1.5 1.5 0 0 0 .283-.475c.118-.266.224-.537.329-.808a6.535 6.535 0 0 1 .7-1.433.525.525 0 0 0-.187-.712.532.532 0 0 0-.713.186Z"/>
        <path fill="#1d1d1b" d="M32.707 149.718a6.544 6.544 0 0 1-.546.9c.049-.067.025-.034-.012.012a2.82 2.82 0 0 1-.071.083c-.042.049-.087.1-.132.144-.1.1-.2.184-.307.276-.048.043.087-.063.01-.008l-.085.061c-.057.04-.116.079-.176.117q-.191.119-.389.222c-.314.167-.638.315-.96.464l.765.588a7.5 7.5 0 0 1 .313-1.09c.013-.036.028-.071.042-.106-.051.125-.006.017.007-.012.035-.076.072-.151.112-.225a3.879 3.879 0 0 1 .231-.366c.067-.1-.029.03 0 0s.051-.062.077-.092c.046-.053.094-.1.143-.155a4.674 4.674 0 0 1 .354-.319c.1-.083-.09.066.018-.014l.1-.071a11.266 11.266 0 0 1 .757-.485.521.521 0 1 0-.526-.9 5.788 5.788 0 0 0-1.8 1.486 5.384 5.384 0 0 0-.831 2.075.523.523 0 0 0 .765.588 8.488 8.488 0 0 0 1.812-1.018 4.906 4.906 0 0 0 1.231-1.622.521.521 0 0 0-.9-.525Z"/>
        <path fill="#1d1d1b" d="M33.769 151.369a3.225 3.225 0 0 0 .39-2.14 1.907 1.907 0 0 0-1.2-1.385 1.526 1.526 0 0 0-1.672.336 1.758 1.758 0 0 0-.2 1.939 2.826 2.826 0 0 0 1.76 1.307.525.525 0 0 0 .641-.364.534.534 0 0 0-.364-.641 3.238 3.238 0 0 1-.174-.06c-.031-.011-.206-.067-.085-.031a1.62 1.62 0 0 1-.329-.168c-.052-.031-.1-.064-.154-.1-.025-.018-.1-.062-.007 0a.443.443 0 0 1-.062-.051 1.534 1.534 0 0 1-.117-.111l-.055-.059a1.52 1.52 0 0 1-.052-.061l.032.041a.613.613 0 0 1-.093-.144l-.042-.081c-.032-.062-.016.005.01.023-.026-.018-.037-.109-.045-.14s-.012-.048-.016-.072-.01-.048-.013-.072l.009.066c-.016-.012-.007-.142-.006-.164a.364.364 0 0 1 0-.09s-.027.135 0 .032c.011-.046.02-.093.035-.138a.3.3 0 0 1 .024-.067c-.031.07-.034.08-.009.029l.017-.031c.014-.026.032-.049.047-.074.036-.059-.066.068-.015.022l.063-.064c.046-.051.015.026-.031.02.02 0 .087-.054.107-.067.071-.045-.024.014-.039.014a.391.391 0 0 0 .087-.03c.024-.007.053-.009.076-.018.06-.025-.113 0-.047 0 .047 0 .094-.006.141 0h.063c.09 0-.035 0-.043-.007.028.024.121.026.158.036l.062.02c.02.007.109.021.029.01s0 0 .028.016l.058.032c.038.022.075.047.112.071.082.053-.029-.017-.026-.021l.075.065c.035.033.065.078.1.108.053.043-.068-.1-.01-.014l.036.054c.023.038.043.076.063.116.045.088.006.014 0 0 .014.04.029.081.041.123a.759.759 0 0 1 .046.21v.011c0 .032 0 .072.005.108a1.967 1.967 0 0 1-.007.217s-.017.143 0 .061-.009.048-.012.062a2.913 2.913 0 0 1-.125.45l-.031.084-.025.062c.021-.049.024-.056.008-.022-.036.073-.069.147-.107.219a.521.521 0 1 0 .9.526Z"/>
        <path fill="#1d1d1b" d="M23.713 153.322c.46.23.925.452 1.395.662s1.064.591 1.574.268a1.7 1.7 0 0 0 .579-1.324 2.91 2.91 0 0 0-.169-1.247 2.968 2.968 0 0 0-3.11-1.946c-.48.054-1.14.184-1.3.716a.978.978 0 0 0 .316.914c.175.218.356.432.541.641q.558.629 1.172 1.2a.521.521 0 1 0 .737-.737 17.679 17.679 0 0 1-1.652-1.766c-.036-.044-.1-.148-.119-.151v.018a.33.33 0 0 1-.081.311c.005 0-.065.021.011 0l.038-.013.122-.038c.083-.023.166-.04.25-.055-.087.016 0 0 .014 0 .043 0 .085-.007.128-.009h.23c.019 0 .216.019.117.006a2.192 2.192 0 0 1 .277.056 2.553 2.553 0 0 1 .316.104c-.079-.033.021.012.04.021a2.274 2.274 0 0 1 .286.166c.01.007.126.093.059.04a2.29 2.29 0 0 1 .328.325c-.049-.059.005.006.012.016.025.035.049.07.072.106a2.362 2.362 0 0 1 .138.245l.044.093c-.032-.074 0 .006 0 .019.027.081.055.161.077.244.017.067.031.134.044.2.02.1.007.037 0 .014.006.051.01.1.013.153a2.429 2.429 0 0 1 0 .256c0 .032-.02.209-.007.116a2.108 2.108 0 0 1-.052.251l-.029.1c-.005.016-.066.145-.016.053-.006.011-.047.079-.047.081-.013-.033.1-.071.107-.077-.006 0 .059-.014.059-.008a.716.716 0 0 1-.1-.032c-.223-.09-.442-.193-.661-.292q-.629-.285-1.246-.595a.533.533 0 0 0-.712.187.525.525 0 0 0 .187.713Z"/>
        <path fill="#1d1d1b" d="M18.092 155.449a1.258 1.258 0 0 0 1.072.6 1.181 1.181 0 0 0 .956-.519 1.545 1.545 0 0 0-.05-1.718 2.1 2.1 0 0 0-2.126-.637 2.505 2.505 0 0 0-1.008.386 1.317 1.317 0 0 0-.576 1.116 1.715 1.715 0 0 0 .557 1.192 3.656 3.656 0 0 0 1.088.638.537.537 0 0 0 .713-.187.527.527 0 0 0-.187-.713 4.454 4.454 0 0 1-.762-.383.347.347 0 0 1-.066-.046l.042.033-.062-.052a1.7 1.7 0 0 1-.129-.126l-.013-.015c-.036-.044-.032-.037.013.02-.02-.012-.038-.056-.051-.076s-.031-.052-.045-.079l-.024-.05c-.016-.035-.01-.022.017.04-.029-.018-.041-.138-.049-.175-.027-.115 0 .09 0 .014v-.123c0-.047 0-.047 0 0l-.005.035.016-.068a.425.425 0 0 1 .022-.066c-.03.07-.033.08-.007.029a.548.548 0 0 1 .038-.06s-.088.088-.01.019l.068-.063c.053-.051-.1.064 0 0l.064-.039c.033-.018.068-.034.1-.051.088-.044-.011 0-.02.008a.748.748 0 0 1 .216-.075 3.96 3.96 0 0 1 .373-.088c.1-.019-.01 0-.024 0a.748.748 0 0 1 .115-.012q.105-.007.21-.006c.057 0 .113 0 .17.009.128.009-.116-.025.009 0l.072.015a2.1 2.1 0 0 1 .176.053c.116.041-.1-.057.01.006.031.019.065.035.1.054a.277.277 0 0 1 .062.041l-.046-.037.049.042.04.038c.039.042.043.089-.012-.021.02.04.052.076.073.116a.375.375 0 0 0 .025.049c-.076-.1-.03-.076-.012-.022a1.061 1.061 0 0 1 .036.134c.012.06-.012.1 0-.028a.509.509 0 0 0 0 .055v.137c0 .1.024-.11.008-.044-.008.03-.012.061-.02.091l-.014.051a.41.41 0 0 1-.018.049c.035-.08.044-.1.027-.065s-.051.081-.072.121c.059-.114.057-.07.017-.029s-.088.041.029-.016c-.014.007-.028.019-.042.028-.113.068.09-.02.007 0l-.052.015c-.1.034.1.007 0 0-.059 0-.108-.031 0 .01a.872.872 0 0 0-.1-.024c-.109-.028.072.044.012.007-.02-.012-.1-.04-.1-.063 0 0 .076.076.027.014a.767.767 0 0 1-.047-.051c.046.061.053.067.023.021a.521.521 0 0 0-.9.525Z"/>
        <path fill="#1d1d1b" d="m22.2 161.637.882.415a.985.985 0 0 0 .714.121.813.813 0 0 0 .514-.525 1.662 1.662 0 0 0 .085-.459 1.774 1.774 0 0 0-.006-.357 2.042 2.042 0 0 0-.293-.9 1.6 1.6 0 0 0-1.493-.749 1.515 1.515 0 0 0-.859.364 1.258 1.258 0 0 0-.4.827 1.386 1.386 0 0 0 1.012 1.451.521.521 0 1 0 .277-1c-.037-.008-.071-.022-.108-.031.131.033.093.041.044.015l-.048-.028c-.015-.01-.029-.022-.045-.032.127.08.076.062.046.032a.767.767 0 0 1-.085-.089s.086.124.034.043l-.03-.048c-.019-.032-.034-.067-.052-.1.084.153.019.043 0-.014a1.177 1.177 0 0 1-.024-.121l.019.139a.924.924 0 0 1 0-.223l-.019.139a.769.769 0 0 1 .024-.108l.021-.063c.009.006-.068.134-.019.053.014-.023.091-.133.029-.053s-.011.017.005 0 .033-.031.049-.047c.058-.056-.093.063-.043.032l.048-.032c.033-.02.068-.035.1-.053-.129.072-.086.035-.038.019l.055-.017a1.122 1.122 0 0 1 .126-.025l-.138.019a1.161 1.161 0 0 1 .306 0l-.138-.019a1.265 1.265 0 0 1 .162.036c.031.009.06.022.09.032-.152-.049-.078-.034-.038-.014s.055.031.081.048l.039.026-.067-.052a.6.6 0 0 1 .146.139c.079.09-.06-.091-.007-.011l.052.079c.017.027.031.054.046.082s.058.128.019.035.006.021.012.039.019.061.027.092a1.521 1.521 0 0 1 .04.2l-.018-.139a1.871 1.871 0 0 1 0 .467l.018-.139a1.539 1.539 0 0 1-.043.2.671.671 0 0 0 .023-.055c-.027.045-.013.03.042-.046-.036.038-.019.026.053-.035q.139-.049.051-.024l.139-.019a.273.273 0 0 1-.064 0l.139.018a.639.639 0 0 1-.063-.013c-.066-.012.006 0 .031.017a1.066 1.066 0 0 0-.128-.059l-.277-.131-.539-.254a.563.563 0 0 0-.4-.052.521.521 0 0 0-.124.952Z"/>
        <path fill="#1d1d1b" d="M28.379 158.344a2.483 2.483 0 0 0 .707.567 1.3 1.3 0 0 0 .953.086 1 1 0 0 0 .7-.744 1.294 1.294 0 0 0-.327-1.057 3.514 3.514 0 0 0-.578-.552 2.394 2.394 0 0 0-.857-.482 1.347 1.347 0 0 0-1.563.6 1.03 1.03 0 0 0 1.095 1.466.525.525 0 0 0 .364-.641.533.533 0 0 0-.641-.364c-.083.019.056-.006.059-.007-.057 0-.014-.027.063.013a.33.33 0 0 0-.049-.013c-.007 0 .114.048.066.027-.023-.011-.062-.049 0 0s.015.014 0 0a.154.154 0 0 0-.028-.029c.058.028.062.092.018.017-.007-.011-.012-.026-.02-.036-.038-.047.033.109.021.048a.747.747 0 0 0-.024-.093c.045.105.006.106.011.057a.333.333 0 0 0 0-.055c.013.081-.019.114 0 .059.022-.083-.055.084-.016.034a.275.275 0 0 0 .031-.052c.02-.045-.028.045-.036.046a.414.414 0 0 0 .041-.042c.054-.061-.021.023-.036.025a.6.6 0 0 0 .1-.062s-.105.036-.055.023c.025-.006.048-.017.073-.024l.06-.015c.053-.015.038.022-.046 0a.579.579 0 0 0 .109-.006c.02 0 .168.013.071 0a.2.2 0 0 0-.008 0l.1.026c.017 0 .035.013.053.018.07.018-.083-.042-.019-.01.039.02.079.038.118.06s.087.052.129.08l.063.043c.012.009.1.077.039.029l.067.056.116.1c.075.067.151.134.221.206.036.036.07.075.1.113.055.062-.016-.009-.01-.015l.032.046c.027.041.048.085.073.127s-.02-.039-.018-.043a.967.967 0 0 0 .026.1c0-.008 0-.106-.01-.056-.005.035.021.079 0 .014v-.036c-.014.043-.012.044 0 0 .039-.069.006-.009 0 0-.064.067.038-.035.031-.034l-.04.042c0-.014.11-.067.036-.029-.019.009-.1.046-.017.013s-.07.009-.081.017c0 0 .113 0 .063-.009a.66.66 0 0 0-.077 0 .407.407 0 0 0-.061 0c.1-.017.09.019.034 0l-.062-.019c-.058-.017.085.05 0 0l-.144-.088c-.051-.031.032.02.03.024l-.087-.074c-.086-.076-.165-.159-.245-.242a.521.521 0 0 0-.736.737Z"/>
        <path fill="#1d1d1b" d="M34.264 157.219a7.145 7.145 0 0 0 1.961.868 1.427 1.427 0 0 0 1.111-.032.946.946 0 0 0 .37-1.16 2.9 2.9 0 0 0-1.4-1.488 1.818 1.818 0 0 0-2.055.032 1.022 1.022 0 0 0 .589 1.762.521.521 0 1 0 0-1.042c-.085 0 .052.01.057.012-.077-.021.048.025.052.027-.111-.054.062.059 0 .006s.033.034.033.044-.049-.113-.01-.01-.005-.051-.014-.07c.043.092.007.1.01.053a.542.542 0 0 0 0-.057c0-.083 0 .046-.007.054a.313.313 0 0 0 .014-.055c.017-.079-.009.04-.021.047s.028-.044.029-.049c0 .044-.074.087-.028.041.078-.08-.077.038.011-.011a.347.347 0 0 1 .064-.035c-.01 0-.1.032-.023.012l.071-.02c.088-.027-.008.006-.027 0a.714.714 0 0 0 .152-.006h.077c.127 0-.109-.025.016 0a2.245 2.245 0 0 1 .3.082c.035.012.169.074.066.024.062.03.124.059.184.092a2.761 2.761 0 0 1 .278.175c.078.055.007 0-.007-.007l.064.052c.052.045.1.091.152.139a2.678 2.678 0 0 1 .219.245c-.071-.089.02.033.039.061.038.057.071.115.105.175.015.026.027.084 0-.013l.026.078c.016.043.044.052 0-.021.007.012-.006.071 0 .076-.008 0 .027-.128 0-.028a.209.209 0 0 1 .056-.1c.015-.015.1-.05.023-.019.057-.023.08-.016.011-.01s.134.006.013 0h-.065c-.039 0-.079.018.025.007a.368.368 0 0 1-.075-.013 3.675 3.675 0 0 1-.366-.1 6.997 6.997 0 0 1-.423-.142c-.073-.028-.146-.056-.218-.086.02.008.088.038-.005 0l-.107-.048a6.768 6.768 0 0 1-.8-.44.526.526 0 0 0-.713.187.532.532 0 0 0 .187.713Z"/>
        <path fill="#1d1d1b" d="M35.333 157a2.957 2.957 0 0 0-.367.719c-.044.112-.084.226-.127.34-.019.053-.041.106-.061.159-.027.072.036-.076 0-.007l-.045.1a1.494 1.494 0 0 1-.077.142l-.043.067c-.032.05-.012.027.008-.008a.654.654 0 0 1-.123.135c-.019.018-.041.035-.059.054-.048.05.07-.045.012-.008s-.1.063-.15.091c-.076.041.015-.015.02-.008l-.071.021c-.08.027.025.007.03 0-.011.014-.076 0-.092 0-.061.007.088.025.028.006-.03-.01-.062-.016-.092-.026l.364.641q.113-.343.241-.681c.04-.105.081-.21.124-.314l.055-.133c-.041.1.035-.08.042-.1q.28-.639.618-1.251a.521.521 0 1 0-.9-.526 15.992 15.992 0 0 0-1.186 2.725.53.53 0 0 0 .364.641 1.537 1.537 0 0 0 1.688-.773 4.05 4.05 0 0 0 .358-.814l.075-.2c.005-.013.05-.123.021-.056s.025-.053.025-.054a2.057 2.057 0 0 1 .216-.36.522.522 0 0 0-.187-.713.537.537 0 0 0-.713.187Z"/>
        <path fill="#1d1d1b" d="M45.736 154.044a58.705 58.705 0 0 1-4.05-8.863l-.252.33c.9.054 1.37 1.153 1.755 1.826q.709 1.242 1.343 2.525a47.09 47.09 0 0 1 2.28 5.47l.384-.295a6.723 6.723 0 0 1-2.37-2.992c-.124-.308-.628-.173-.5.139a7.356 7.356 0 0 0 2.609 3.3.263.263 0 0 0 .383-.295 48.179 48.179 0 0 0-2.58-6.089c-.49-.964-1-1.931-1.575-2.845a2.283 2.283 0 0 0-1.726-1.269.261.261 0 0 0-.251.33 59.513 59.513 0 0 0 4.1 8.988.261.261 0 0 0 .45-.264Z"/>
        <path fill="#1d1d1b" d="M54.363 149.961q-1.638-3.9-3.564-7.662c-.306-.6-1.2-.07-.9.526q1.869 3.641 3.459 7.413a.54.54 0 0 0 .642.362.524.524 0 0 0 .364-.641Z"/>
        <path fill="#1d1d1b" d="M64.644 145.767a19.145 19.145 0 0 1-3.9-8.857c-.108-.66-1.112-.38-1.005.277a20.169 20.169 0 0 0 4.171 9.317c.418.524 1.151-.218.737-.737Z"/>
        <path fill="#1d1d1b" d="M74.294 141.294a39.767 39.767 0 0 1-3.955-9.273.522.522 0 0 0-1 .277 40.9 40.9 0 0 0 4.061 9.522.521.521 0 0 0 .9-.526Z"/>
        <path fill="#1d1d1b" d="M66.991 141.513a.879.879 0 0 0 .172-.291.419.419 0 0 0 .014-.047A1.057 1.057 0 0 0 67.2 141a.861.861 0 0 0-.115-.426.884.884 0 0 0-.723-.448.826.826 0 0 0-.43.121.942.942 0 0 0-.265.213 1.4 1.4 0 0 0-.136.181 1.437 1.437 0 0 0-.1.218 1.231 1.231 0 0 0-.07.342 1.067 1.067 0 0 0 .036.369 1.161 1.161 0 0 0 .238.436.522.522 0 0 0 .368.152.521.521 0 0 0 .521-.52l-.024-.138a.511.511 0 0 0-.134-.23l-.007-.009.081.1a.6.6 0 0 1-.07-.12l.053.125a.655.655 0 0 1-.042-.156l.019.138a.724.724 0 0 1 0-.174l-.019.138a.75.75 0 0 1 .049-.18l-.052.124a.7.7 0 0 1 .087-.15l-.081.1a.585.585 0 0 1 .106-.1l-.105.081a.606.606 0 0 1 .138-.078l-.124.052a.234.234 0 0 1 .058-.014l-.139.018a.388.388 0 0 1 .059 0l-.139-.019a.323.323 0 0 1 .075.022l-.124-.053a.448.448 0 0 1 .07.042l-.106-.082a.465.465 0 0 1 .074.073l-.081-.105a.415.415 0 0 1 .052.089l-.052-.125a.431.431 0 0 1 .024.087l-.019-.138a.386.386 0 0 1 0 .068l.018-.139a.282.282 0 0 1-.015.057l.053-.125a.35.35 0 0 1-.031.053l.081-.1-.006.008a.581.581 0 0 0-.153.368.531.531 0 0 0 .153.369.523.523 0 0 0 .368.152.507.507 0 0 0 .368-.152Z"/>
        <path fill="#1d1d1b" d="M83.066 138.743a25.043 25.043 0 0 1-4.352-8.75.521.521 0 0 0-1 .277 26.328 26.328 0 0 0 4.62 9.21c.41.529 1.143-.213.736-.737Z"/>
        <path fill="#1d1d1b" d="M90.353 136.525a15.741 15.741 0 0 1-2.629-7.641c-.046-.665-1.088-.67-1.042 0a16.807 16.807 0 0 0 2.771 8.166c.371.555 1.273.034.9-.525Z"/>
        <path fill="#1d1d1b" d="m83.925 134.728 1.246-1.164a.53.53 0 0 0 0-.737 1.567 1.567 0 0 0-2.171-.014.521.521 0 0 0 .737.736 1.012 1.012 0 0 1 .085-.075l-.1.081a1.026 1.026 0 0 1 .213-.123l-.124.053a1.092 1.092 0 0 1 .256-.07l-.138.019a1.2 1.2 0 0 1 .305 0l-.138-.018a1.092 1.092 0 0 1 .256.07l-.124-.053a1.026 1.026 0 0 1 .213.123l-.106-.081a.935.935 0 0 1 .1.089v-.737l-1.246 1.165a.525.525 0 0 0 0 .736.531.531 0 0 0 .737 0Z"/>
        <path fill="#1d1d1b" d="M97.462 132.243a44.5 44.5 0 0 1-3.084-7.585c-.194-.64-1.2-.367-1 .277a46.01 46.01 0 0 0 3.189 7.834c.309.6 1.209.07.9-.526Z"/>
        <path fill="#1d1d1b" d="M104.438 129.756a22.96 22.96 0 0 1-3.32-8c-.136-.656-1.141-.378-1 .277a23.774 23.774 0 0 0 3.425 8.252c.368.557 1.271.036.9-.526Z"/>
        <path fill="#1d1d1b" d="M97.788 127.545a1.921 1.921 0 0 0 1.818.426.54.54 0 0 0 .311-.239.521.521 0 0 0-.588-.765 1.444 1.444 0 0 1-.215.046l.138-.018a1.446 1.446 0 0 1-.36 0l.139.019a1.5 1.5 0 0 1-.366-.1l.124.053a1.462 1.462 0 0 1-.293-.172l.105.081-.076-.064a.548.548 0 0 0-.369-.153.53.53 0 0 0-.368.153.519.519 0 0 0 0 .736Z"/>
        <path fill="#1d1d1b" d="M110.345 126.7a5.324 5.324 0 0 1-1.683-3.056c-.371-1.466-.648-2.959-.965-4.438-.14-.655-1.145-.378-1 .277.332 1.553.61 3.131 1.024 4.665a6.014 6.014 0 0 0 1.891 3.289.538.538 0 0 0 .737 0 .525.525 0 0 0 0-.737Z"/>
        <path fill="#1d1d1b" d="M117.793 124.283a37.37 37.37 0 0 1-4.462-8.881c-.217-.631-1.224-.36-1.005.277a38.416 38.416 0 0 0 4.567 9.13c.375.551 1.278.03.9-.526Z"/>
        <path fill="#1d1d1b" d="m111.75 121.673-.006-.011.053.124a.077.077 0 0 1-.008-.027l.018.139a.1.1 0 0 1 0-.025l-.018.139v-.017l-.052.125a.128.128 0 0 1 .011-.02l-.081.105a.17.17 0 0 1 .019-.019l-.105.082a.163.163 0 0 1 .034-.019l-.124.052a.273.273 0 0 1 .056-.015l-.138.019a.3.3 0 0 1 .073 0l-.138-.019a.248.248 0 0 1 .059.017l-.124-.053a.187.187 0 0 1 .039.022l-.106-.081a.154.154 0 0 1 .026.025l-.081-.1a.135.135 0 0 1 .016.029l-.052-.125a.167.167 0 0 1 .011.044l-.019-.139a.281.281 0 0 1 0 .071l.019-.139a.376.376 0 0 1-.02.073l.052-.125a.432.432 0 0 1-.056.095l.081-.1a.853.853 0 0 1-.15.144l.105-.081a2.06 2.06 0 0 1-.09.064.385.385 0 0 0-.146.134.4.4 0 0 0-.094.177.408.408 0 0 0-.009.208.39.39 0 0 0 .062.194l.081.105a.521.521 0 0 0 .23.134l.139.019a.529.529 0 0 0 .263-.071 2.641 2.641 0 0 0 .239-.182 1.216 1.216 0 0 0 .192-.219.419.419 0 0 0 .042-.067.918.918 0 0 0 .078-.189.852.852 0 0 0 .027-.207 1.211 1.211 0 0 0-.021-.171.191.191 0 0 0-.006-.033.646.646 0 0 0-.181-.3.727.727 0 0 0-.305-.168 1.1 1.1 0 0 0-.181-.025.413.413 0 0 0-.05 0 .776.776 0 0 0-.339.094.614.614 0 0 0-.289.362.486.486 0 0 0-.024.177.646.646 0 0 0 .085.3.4.4 0 0 0 .134.147.539.539 0 0 0 .579.04l.105-.081a.521.521 0 0 0 .134-.23l.019-.139a.523.523 0 0 0-.071-.262Z"/>
        <path fill="#1d1d1b" d="M124.124 122.111a19.853 19.853 0 0 1-3.766-8.229c-.135-.656-1.139-.378-1.005.277a20.984 20.984 0 0 0 4.034 8.689c.412.528 1.144-.214.737-.737Z"/>
        <path fill="#1d1d1b" d="M129.245 120.016a5.364 5.364 0 0 1-2.86-3.1c-.783-1.67-1.366-3.448-2.023-5.171-.237-.62-1.245-.351-1 .277.719 1.882 1.348 3.835 2.237 5.646a6.1 6.1 0 0 0 3.374 3.355c.637.213.911-.793.277-1Z"/>
        <path fill="#1d1d1b" d="M132.741 118.6c-1.445-.815-2.189-2.535-2.864-3.972a30.24 30.24 0 0 1-1.9-5.307.521.521 0 0 0-1 .277 31.6 31.6 0 0 0 2.074 5.714c.747 1.568 1.591 3.3 3.164 4.188a.521.521 0 0 0 .525-.9Z"/>
        <path fill="#1d1d1b" d="m128.643 116.342-.248.089a.388.388 0 0 0-.177.093.4.4 0 0 0-.135.146.593.593 0 0 0-.052.4l.052.125a.54.54 0 0 0 .187.187l.125.052a.521.521 0 0 0 .277 0l.248-.088a.4.4 0 0 0 .177-.094.539.539 0 0 0 .187-.547l-.052-.125a.54.54 0 0 0-.187-.187l-.125-.052a.521.521 0 0 0-.277 0Z"/>
        <path fill="#1d1d1b" d="m126.771 113.779-.34.716a.579.579 0 0 0-.052.4.393.393 0 0 0 .093.177.4.4 0 0 0 .146.134.529.529 0 0 0 .4.053.515.515 0 0 0 .311-.24l.26-.548a.593.593 0 0 0 .052-.4.4.4 0 0 0-.093-.178.409.409 0 0 0-.146-.134.524.524 0 0 0-.4-.052.51.51 0 0 0-.311.239l-.26.548.9.526.339-.717a.374.374 0 0 0 .062-.193.467.467 0 0 0-.1-.385.392.392 0 0 0-.146-.134.529.529 0 0 0-.4-.053.509.509 0 0 0-.311.24Z"/>
        <path fill="#1d1d1b" d="M137.345 116.527a18.742 18.742 0 0 1-4.719-8.99c-.14-.656-1.144-.379-1 .277a19.775 19.775 0 0 0 4.987 9.45c.462.487 1.2-.25.737-.737Z"/>
        <path fill="#1d1d1b" d="M142.323 115.367a29.575 29.575 0 0 1-5.245-10.118.522.522 0 0 0-1 .277 30.9 30.9 0 0 0 5.513 10.578c.418.524 1.151-.218.737-.737Z"/>
        <path fill="#1d1d1b" d="M146.065 113.123c-1.471-.7-1.929-2.557-2.458-3.953l-2.184-5.764c-.236-.622-1.244-.352-1 .276l2.4 6.323c.571 1.509 1.154 3.276 2.725 4.018.6.285 1.133-.613.526-.9Z"/>
        <path fill="#1d1d1b" d="m140.854 110.381.039-.031-.1.082a1.16 1.16 0 0 1 .257-.15l-.125.052a1.292 1.292 0 0 1 .311-.085l-.138.019a1.226 1.226 0 0 1 .136-.01l-.368-.152.016.018-.082-.106a.233.233 0 0 1 .02.034l-.053-.124a.156.156 0 0 1 .01.037l-.019-.139a.2.2 0 0 1 0 .055l.019-.139a.264.264 0 0 1-.015.055l.053-.125a.316.316 0 0 1-.033.056l.082-.106a.182.182 0 0 1-.034.034l.106-.081a.265.265 0 0 1-.04.024l.125-.053a.158.158 0 0 1-.037.011l.138-.019a.177.177 0 0 1-.04 0 .385.385 0 0 0-.2.045.394.394 0 0 0-.168.107.4.4 0 0 0-.108.168.407.407 0 0 0-.045.2.527.527 0 0 0 .153.368l.1.082a.519.519 0 0 0 .263.071h.025a.937.937 0 0 0 .158-.021.678.678 0 0 0 .168-.067.73.73 0 0 0 .251-.243.307.307 0 0 0 .027-.046.838.838 0 0 0 .068-.17.925.925 0 0 0 .023-.182.177.177 0 0 0 0-.023.976.976 0 0 0-.023-.161.854.854 0 0 0-.032-.081.734.734 0 0 0-.037-.083.628.628 0 0 0-.159-.177l-.053-.041a.386.386 0 0 0-.194-.061.376.376 0 0 0-.081-.009h-.038l-.086.008a1.684 1.684 0 0 0-.444.1 2.151 2.151 0 0 0-.279.131 2 2 0 0 0-.252.187.575.575 0 0 0-.153.368.522.522 0 0 0 .521.521l.139-.019a.508.508 0 0 0 .229-.134Z"/>
        <path fill="#1d1d1b" d="M150.091 111.936a98.4 98.4 0 0 1-3.5-10.789.522.522 0 0 0-1 .277 98.188 98.188 0 0 0 3.5 10.789c.24.618 1.248.349 1-.277Z"/>
        <path fill="#1d1d1b" d="M153.512 110.062a1.151 1.151 0 0 1-.513-.754c-.153-.441-.291-.889-.429-1.336q-.4-1.293-.744-2.6-.7-2.667-1.167-5.387c-.113-.66-1.118-.38-1 .277q.519 3.014 1.322 5.968.4 1.45.861 2.881a2.767 2.767 0 0 0 1.149 1.853c.6.294 1.128-.6.525-.9Z"/>
        <path fill="#1d1d1b" d="M149.81 106.726a1.049 1.049 0 0 1 0-.231l-.019.139a.433.433 0 0 1 .028-.107l-.053.124a.323.323 0 0 1 .036-.062l-.082.106a.3.3 0 0 1 .047-.047l-.1.081a.156.156 0 0 1 .028-.016l-.124.052a.189.189 0 0 1 .034-.009l-.138.019a.17.17 0 0 1 .045 0l-.139-.019a.239.239 0 0 1 .054.015l-.124-.053a.231.231 0 0 1 .052.031l-.106-.082a.2.2 0 0 1 .038.038l-.081-.106a.2.2 0 0 1 .018.032l-.052-.125a.167.167 0 0 1 .008.03l-.019-.139a.089.089 0 0 1 0 .023l.019-.139-.007.022.053-.125a.107.107 0 0 1-.013.021l.082-.105-.013.013a.387.387 0 0 0-.108.168.479.479 0 0 0 0 .4.387.387 0 0 0 .108.168l.106.081a.516.516 0 0 0 .263.071l.138-.018a.53.53 0 0 0 .23-.134.632.632 0 0 0 .1-.133.472.472 0 0 0 .03-.069.593.593 0 0 0 .029-.069.934.934 0 0 0 .022-.153.622.622 0 0 0-.084-.326l-.009-.014a1.17 1.17 0 0 0-.091-.119.281.281 0 0 0-.031-.029 1 1 0 0 0-.136-.1l-.019-.01a1.768 1.768 0 0 0-.142-.059.189.189 0 0 0-.041-.01.806.806 0 0 0-.179-.019.766.766 0 0 0-.173.027.662.662 0 0 0-.262.152.24.24 0 0 0-.04.038.9.9 0 0 0-.111.149.823.823 0 0 0-.088.225 1.865 1.865 0 0 0-.027.2v.068c0 .046 0 .092.007.138a.407.407 0 0 0 .045.2.47.47 0 0 0 .276.276.394.394 0 0 0 .2.044l.139-.018a.53.53 0 0 0 .23-.134l.081-.106a.516.516 0 0 0 .071-.263Z"/>
        <path fill="#1d1d1b" d="M157.84 108.483c-.777-.461-1.029-1.511-1.339-2.3a91.46 91.46 0 0 1-1.091-2.9 30.1 30.1 0 0 1-1.548-6.056c-.086-.656-1.129-.664-1.042 0a32.28 32.28 0 0 0 1.734 6.75c.4 1.112.827 2.214 1.266 3.311a3.9 3.9 0 0 0 1.494 2.1.522.522 0 0 0 .526-.9Z"/>
        <path fill="#1d1d1b" d="M161.2 106.335a4.062 4.062 0 0 1-1.336-1.923c-.322-.808-.591-1.641-.881-2.462l-1.964-5.562c-.222-.628-1.229-.358-1 .277l2.167 6.138c.565 1.6 1.023 3.415 2.493 4.432.553.382 1.075-.521.526-.9Z"/>
        <path fill="#1d1d1b" d="M164.831 105.309a34.326 34.326 0 0 1-4.136-10c-.155-.652-1.16-.376-1 .277a35.259 35.259 0 0 0 4.241 10.246c.35.57 1.252.048.9-.526Z"/>
        <path fill="#1d1d1b" d="M237.307 80.474c-13.492 4.8-26.584 10.654-40.124 15.322-6.791 2.341-13.673 4.087-20.626 5.853a167.838 167.838 0 0 0-19.714 6.418c-6.371 2.489-12.562 5.378-18.837 8.093-6.726 2.912-13.53 5.642-20.348 8.329-12.731 5.018-25.356 10.3-38.134 15.195-14.2 5.438-28.772 10.265-42.292 17.294-.3.154-.034.6.264.45 12.053-6.267 24.971-10.738 37.655-15.526 12.927-4.881 25.653-10.247 38.516-15.287 6.634-2.6 13.262-5.218 19.833-7.974 6.39-2.679 12.66-5.635 19.059-8.289a185.247 185.247 0 0 1 19.629-6.977c6.808-1.963 13.738-3.375 20.5-5.534 15.2-4.857 29.737-11.522 44.763-16.864.314-.111.179-.616-.139-.5Z"/>
        <path fill="#1d1d1b" d="M236.031 75.844c-14.161 7.293-29 13.144-43.98 18.51-15.006 5.374-30.176 10.282-45.147 15.756-7.3 2.67-14.557 5.476-21.707 8.533-6.279 2.684-12.365 5.772-18.608 8.528a123.672 123.672 0 0 1-8.34 3.3c-1.778.636-3.64 1.133-5.385 1.851-1.086.447-2.131 1.027-3.2 1.515-5.66 2.581-11.476 4.817-17.294 7.011-13.215 4.983-26.588 9.583-39.6 15.079q-2.067.873-4.118 1.783c-.306.136-.041.586.263.451 12.86-5.712 26.183-10.329 39.365-15.227 6-2.229 12-4.486 17.89-6.993 2.583-1.1 5.107-2.508 7.756-3.423 3.19-1.1 6.38-2.192 9.512-3.454 5.667-2.285 11.092-5.115 16.662-7.621 7.319-3.292 14.77-6.283 22.282-9.1 14.851-5.576 29.939-10.485 44.9-15.743 14.851-5.219 29.614-10.791 43.782-17.682q2.632-1.281 5.233-2.622c.3-.153.035-.6-.264-.45Z"/>
        <path fill="#1d1d1b" d="M234.2 73.654c-12.919 6.639-26.326 12.073-39.771 17.531-6.529 2.651-13.079 5.161-19.749 7.44-6.777 2.316-13.594 4.517-20.329 6.953-14.475 5.235-28.662 11.37-42.877 17.267-13.861 5.75-27.7 11.546-41.634 17.125q-10.681 4.278-21.439 8.363c-3.612 1.368-7.275 2.626-10.83 4.137-3.632 1.543-7.163 3.316-10.817 4.807a56.6 56.6 0 0 1-5.382 1.9.261.261 0 0 0 .139.5c7.419-2.182 14.236-6.065 21.473-8.758q11.016-4.1 21.942-8.437c14.027-5.554 27.954-11.356 41.886-17.144 14.445-6 28.877-12.073 43.474-17.695 13.094-5.043 26.669-8.761 39.663-14.072 13.145-5.373 26.392-10.5 39.148-16.77q2.7-1.325 5.366-2.7c.3-.153.035-.6-.263-.45Z"/>
        <path fill="#1d1d1b" d="M233.046 71.237C217.612 78.953 200.981 83.78 185.1 90.43c-8.027 3.36-15.852 7.175-23.81 10.691-7.988 3.53-16.2 6.517-24.338 9.671-3.908 1.513-7.669 3.283-11.424 5.138a145.13 145.13 0 0 1-12.306 5.37c-8.381 3.219-16.674 6.658-24.984 10.053-7.609 3.108-15.316 5.973-22.92 9.087-6.293 2.576-12.535 5.367-19.029 7.412-3.939 1.24-7.973 2.234-11.944 3.37-4.733 1.354-9.46 2.726-14.2 4.052-.647.181-1.3.362-1.944.535a.261.261 0 0 0 .139.5c8.328-2.212 16.539-4.855 24.873-7.045a140.3 140.3 0 0 0 17.938-6.542c7.034-2.917 14.165-5.584 21.228-8.432 8.376-3.378 16.708-6.867 25.105-10.194 4.025-1.595 8.133-3.022 12.1-4.768 3.986-1.755 7.825-3.821 11.779-5.644 7.892-3.639 16.237-6.255 24.265-9.573s15.873-7.132 23.822-10.671c15.79-7.03 32.424-11.938 48.175-19.05q2.873-1.3 5.691-2.7c.3-.15.036-.6-.263-.45Z"/>
        <path fill="#1d1d1b" d="M231.244 67.11c-28.344 12.52-56.574 25.316-84.969 37.728-28.135 12.3-56.55 23.842-85.035 35.3-7.759 3.119-15.459 6.619-23.545 8.819a29.814 29.814 0 0 0-4.869 1.587 26.612 26.612 0 0 0-4.1 2.742 9.257 9.257 0 0 1-2.426 1.344 1.8 1.8 0 0 1-2.37-1.109c-.328-.628-.484-1.791.414-2.126q1.728.787.806 1.6a1.775 1.775 0 0 1-.772.4c-2.1.455-1.8-2.908.194-2.542.328.061.469-.442.139-.5-1.868-.343-3.447 2.5-1.487 3.444 1.513.726 3.787-1.122 2.486-2.637a1.394 1.394 0 0 0-2.135.211 2.2 2.2 0 0 0 .155 2.791c.285.4.747 1.084 1.226 1.235A3.582 3.582 0 0 0 26.8 155a19.926 19.926 0 0 0 4.115-2.708c3.237-2.339 7.414-2.874 11.136-4.106 4.1-1.357 8.093-3.006 12.092-4.628 8.086-3.281 16.193-6.508 24.295-9.749q24.549-9.82 48.866-20.194c16.3-6.982 32.526-14.143 48.728-21.354 16.445-7.319 32.868-14.688 49.325-21.98q3.074-1.362 6.149-2.72c.306-.136.041-.585-.263-.451Z"/>
        <path fill="#1d1d1b" d="M22.071 158.946c-.132.767-.848 1.268-1 2.024a1.392 1.392 0 0 0 .647 1.515.908.908 0 0 0 1.179-1.016 1.377 1.377 0 0 0-1.339-1.085 1.454 1.454 0 0 0-1.313 1.2 2.237 2.237 0 0 0 .552 1.972 4.164 4.164 0 0 0 .923.771 2.872 2.872 0 0 0 1.131.516c.79.1 1.37-.627 1.578-1.309a2.547 2.547 0 0 0-.526-2.419 2.579 2.579 0 0 0-2.325-.782c-.331.053-.191.556.138.5a2 2 0 0 1 2.3 1.837 1.737 1.737 0 0 1-.641 1.533c-.513.338-1.15-.155-1.573-.452a2.466 2.466 0 0 1-1.038-1.308 1.4 1.4 0 0 1 .289-1.31.78.78 0 0 1 1.15.059.568.568 0 0 1 .175.515c-.055.215-.28.4-.49.273-.45-.259-.343-.936-.14-1.3a5.241 5.241 0 0 0 .827-1.6c.056-.329-.446-.47-.5-.139Z"/>
        <path fill="#1d1d1b" d="M28.966 157.079a16.63 16.63 0 0 0-2.409 2.351q-.255.306-.5.624a1.037 1.037 0 0 0-.316.721c.051.479.637.755 1.039.887a2.315 2.315 0 0 0 2.523-.679 2.1 2.1 0 0 0 .161-2.441 1.935 1.935 0 0 0-2.491-.591.261.261 0 0 0 .263.45 1.4 1.4 0 0 1 1.692.3 1.528 1.528 0 0 1 .043 1.856 1.756 1.756 0 0 1-1.912.641c-.2-.051-.9-.28-.776-.569a2.645 2.645 0 0 1 .375-.508c.151-.191.307-.378.466-.562a16.7 16.7 0 0 1 2.207-2.113c.262-.209-.109-.576-.369-.369Z"/>
        <path fill="#1d1d1b" d="M37.864 156.082a3.679 3.679 0 0 0-3.51.967 3.3 3.3 0 0 0-.937 1.622c-.061.292.226.595.441.76a1.646 1.646 0 0 0 .779.321 1.775 1.775 0 0 0 1.747-2.522 2.3 2.3 0 0 0-1.5-1.279 1.715 1.715 0 0 0-1.921.439 1.366 1.366 0 0 0 .424 1.716 2.824 2.824 0 0 0 2.6.067c.32-.1.184-.6-.138-.5-.687.21-1.716.546-2.274-.1a.89.89 0 0 1-.234-.748c.084-.35.484-.444.8-.448a1.9 1.9 0 0 1 1.733.978 1.414 1.414 0 0 1-.365 1.712 1.109 1.109 0 0 1-1.617-.423l.026.2a3.16 3.16 0 0 1 3.813-2.254.261.261 0 0 0 .138-.5Z"/>
        <path fill="#1d1d1b" d="M229.164 65.352C215.7 70.611 202.5 76.512 189.34 82.47c-13.229 5.987-26.446 12-39.7 17.936-26.313 11.784-52.73 23.391-79.412 34.318-7.514 3.077-15.084 5.987-22.7 8.806q-2.78 1.029-5.542 2.1a46.5 46.5 0 0 0-5.009 2.027c-1.429.763-2.471 2.091-3.909 2.828l-.674.277q-1.657.356-.1-.924a.609.609 0 0 1 .813.405q.525.54-.164.231c-.247.012-1.33-.373-1.393-.6q.258-1.268 1.091-.856-.331 1.864-.952-.209l-.261.261.836.478c.122.308.627.174.5-.139a1.212 1.212 0 0 0-1.339-.86.269.269 0 0 0-.261.26 1.748 1.748 0 0 0 1.926 1.789c1.023-.158.975-1.285.258-1.807-.669-.487-2.653-.951-2.854.322-.21 1.327 2.217 1.873 3.084 2.032a.269.269 0 0 0 .294-.12c.995-1.708-2.851-2.544-3.182-.34a.275.275 0 0 0 .12.294c2.225 1.422 4.563-1.828 6.255-2.774a36.632 36.632 0 0 1 4.6-1.891q2.646-1.037 5.307-2.028c6.776-2.523 13.535-5.067 20.238-7.779 13.027-5.272 25.945-10.825 38.854-16.378 26.277-11.3 52.342-23.084 78.4-34.886 14.836-6.714 29.665-13.461 44.836-19.388.309-.121.175-.625-.138-.5Z"/>
    </g>
</svg>
