<?xml version="1.0" encoding="UTF-8"?>
<svg data-bbox="0 0 133.76 118.527" viewBox="0 0 133.765 118.527" height="1.646in" width="1.858in" xmlns="http://www.w3.org/2000/svg" data-type="color">
    <g>
        <path fill="#d60b52" d="M66.151 118.527C41.421 101.913 6.421 88.913.421 54.913c-3-25 10-59 40-53 12 2 16 17 23 26 9-13 22-27 38.855-27.913a67.627 67.627 0 0 1 11.876 1.267c7.688 1.687 15.341 6.6 18.443 20a46.085 46.085 0 0 1 1.1 10.868c1.721 32.775-31.279 49.775-50.595 71.846a222.656 222.656 0 0 1-16.949 14.546Z" data-color="1"/>
    </g>
</svg>
