<?xml version="1.0" encoding="UTF-8"?>
<svg data-bbox="0.919 0.607 220.454 236.425" viewBox="0 0 222 238" height="238" width="222" xmlns="http://www.w3.org/2000/svg" data-type="ugc">
    <g>
        <path fill="#575756" d="M25.154 7.957a78.789 78.789 0 0 0 11.884 21.287l-.551-4.271-.357.532 3.043-1.745c-.413-.006-4.344-7.083-4.845-7.874-1.836-2.9-3.6-5.836-5.324-8.8-1.639-2.819-5.4-1.872-6.441.842L18.454 18.61c-.964 2.506-1.941 4.678-.4 7.113 1.387 2.192 4.135 3.624 5.888 5.587a44.124 44.124 0 0 1 6.013 9.128c3.206 6.162 5.436 12.763 8.4 19.037 2.169 4.59 4.832 11.643 10.864 11.52 2.554-.052 4.546-3 3.043-5.3-4.8-7.366-9.259-14.933-13.3-22.739q-2.931-5.656-5.576-11.44c-2.028-4.438-5.265-9.635-3.569-14.6l-6.441.842a17.029 17.029 0 0 1 2.77 15.174c-.8 2.828 1.789 4.715 4.334 4.335 5.688-.849 9.211-5.332 12.243-9.831l-6.567-1.779-1.641 12.72c-.345 2.668-.7 4.729 1.381 6.688a3.642 3.642 0 0 0 4.983 0l.33-.258c3.571-2.79-1.449-7.745-4.984-4.984l-.329.258h4.983c.2.191 1.246-6.061 1.315-6.6l1.01-7.828c.487-3.775-4.834-4.35-6.567-1.778-2.08 3.086-4.118 6.008-8.03 6.592l4.335 4.333a23.694 23.694 0 0 0-3.481-20.6 3.577 3.577 0 0 0-6.441.842c-3 8.789 3.63 18.943 7.4 26.6a264.044 264.044 0 0 0 15.758 27.607l3.043-5.3c-2.018.041-5.455-9.479-6.168-11.115-1.791-4.111-3.384-8.308-5.265-12.38a61.854 61.854 0 0 0-6.324-10.98 40.709 40.709 0 0 0-3.606-4.292c-1.17-1.193-3.369-2.346-4.138-3.82l.355 2.715c.973-4.835 3.511-9.664 5.284-14.275l-6.441.842C25.192 14.551 36.1 38.168 42.573 28.53c.951-1.416.38-3.073-.551-4.27A67.934 67.934 0 0 1 31.95 6.083c-1.561-4.217-8.376-2.393-6.8 1.874Z"/>
        <path fill="#575756" d="M57.66 77c17.27 3.606 34.466 1.719 51.916 1.247 18.689-.506 37.4 1.139 55.884 3.8 9.255 1.332 18.473 2.908 27.669 4.6 6.326 1.166 12.707 3.717 17.8-1.428 4.23-4.278 7.195-9.835 5.521-15.912-1.509-5.476-8.249-11.248-7.14-17.11l-6.44.842c1.472 2.055 13.343 18.183 11.208 20.018-3.445 2.962 1.56 7.928 4.984 4.984 3.663-3.149 2.318-7.767.432-11.536a127.433 127.433 0 0 0-10.539-17.023c-1.586-2.214-5.825-2.415-6.441.842-.993 5.247.905 9.483 3.545 13.935 1.369 2.309 3.376 4.881 3.74 7.6.357 2.669-2.013 8.254-4.961 9.4s-8.774-1.218-11.723-1.755q-6.649-1.213-13.317-2.324a565.38 565.38 0 0 0-23.024-3.35 311.549 311.549 0 0 0-49.106-2.576c-16.125.566-32.174 2.277-48.13-1.055-4.426-.924-6.318 5.869-1.874 6.8Z"/>
        <path fill="#3c3c3b" d="M38.189 21.432a79.551 79.551 0 0 0 31.469 8.826c3.364.232 3.386-4.348.734-5.423a79.063 79.063 0 0 0-28.922-5.771l1.393 5.145c16.427-7.168 33.98.653 49.4 6.688 16.253 6.36 33.154 10.077 50.21 13.559 3.469.708 4.953-4.614 1.468-5.325C124.9 35.244 106.6 30.625 88.488 23.5 72.9 17.373 56.236 12.39 40.076 19.441c-2.635 1.15-1.137 5.114 1.394 5.145a74.66 74.66 0 0 1 27.454 5.574l.734-5.424a72.594 72.594 0 0 1-28.682-8.072c-3.149-1.635-5.945 3.129-2.787 4.768Z"/>
        <path fill="#3c3c3b" d="M142.3 44.871c18.084 8.512 38.008 8.923 57.629 8.936 3.553 0 3.558-5.52 0-5.522-18.544-.012-37.72-.123-54.842-8.182-3.2-1.5-6 3.255-2.787 4.768Z"/>
        <path fill="#3c3c3b" d="M44.109 38.606c14.862-.265 29.683-1.441 44.174 2.552a435.02 435.02 0 0 1 42.932 14.184c3.31 1.3 4.745-4.041 1.468-5.325a397.864 397.864 0 0 0-44.758-14.674c-14.349-3.726-29.146-2.521-43.816-2.259-3.55.064-3.561 5.586 0 5.522Z"/>
        <path fill="#3c3c3b" d="M131.6 55.546a230.266 230.266 0 0 0 73.145 10.987c3.551-.042 3.561-5.564 0-5.521a225.367 225.367 0 0 1-71.677-10.79c-3.391-1.088-4.844 4.241-1.468 5.324Z"/>
        <path fill="#3c3c3b" d="M44.7 49.566c7.778 2.253 15.606 1.653 23.582 1.177a68.349 68.349 0 0 1 24.26 2.765c17.021 5.023 33.988 10.239 50.98 15.359 3.41 1.027 4.867-4.3 1.468-5.325-16.992-5.12-33.956-10.345-50.98-15.359a67.988 67.988 0 0 0-22.15-3.153c-8.659.316-17.21 1.669-25.7-.788-3.42-.991-4.88 4.336-1.468 5.324Z"/>
        <path fill="#3c3c3b" d="M143.75 68.259c9.752 2.582 19.993 2.693 30.006 3.34l31.863 2.058c3.549.229 3.535-5.294 0-5.522L175.688 66.2c-10.142-.655-20.6-.654-30.471-3.268-3.438-.91-4.905 4.415-1.467 5.325Z"/>
        <path fill="#3c3c3b" d="M55.587 74.546C67.872 73.7 80.271 72.3 92.594 72.4c12.261.1 24.568 1.564 36.785 2.521 25.921 2.029 51.977 3.525 77.674 7.63 3.477.555 4.973-4.765 1.468-5.325-25.548-4.08-51.416-5.656-77.186-7.674-12.282-.962-24.622-2.359-36.942-2.645-12.911-.3-25.936 1.234-38.806 2.118-3.526.242-3.552 5.766 0 5.522Z"/>
        <path fill="#d9d9d9" d="M45.85 17.364c3.813.2 3.336 9.863 3.689 12.51.382 2.867 1.126 5.335 3.256 7.38a2.8 2.8 0 0 0 4.336-.558c1.939-2.82-.051-6.947-1.193-9.758a38.465 38.465 0 0 0-2.454-5.062c-1.11-1.886-3.268-3.92-3.274-6.231-.008-3.553-5.53-3.56-5.522 0 .008 3.193 1.645 5.223 3.294 7.821a33.8 33.8 0 0 1 2.9 5.589c.274.686 1.919 4.219 1.482 4.854l4.336-.559c-3.407-3.271-1.833-10.659-3.112-14.99-1.113-3.769-3.742-6.31-7.737-6.518-3.551-.185-3.541 5.337 0 5.522Z"/>
        <path fill="#d9d9d9" d="M57.615 15.628A117.852 117.852 0 0 1 60.7 28.7c.541 3.12.163 6.43 2.923 8.39a2.741 2.741 0 0 0 2.787 0c3.083-1.69 1.833-5.18 1.224-7.943l-3.46-15.7c-.765-3.469-6.09-2-5.325 1.468l2.076 9.419c.219.991 1.449 8.671 2.7 7.986h2.787c.354.251.02-2.6 0-2.749q-.415-2.736-.967-5.448c-.682-3.362-1.536-6.673-2.5-9.964-1-3.4-6.33-1.954-5.325 1.468Z"/>
        <path fill="#d9d9d9" d="M68.171 15.52a13.49 13.49 0 0 0 2.937 5.154 12.644 12.644 0 0 0 1.852 1.549 6.825 6.825 0 0 0 1.458.89q-.246-1.327-.323.07c.158 2.395-.5 4.773-.174 7.249A25.705 25.705 0 0 0 76 37.37c1.225 2.842 6.167.8 5.046-2.127a61.622 61.622 0 0 1-4.087-18.928c-.189-3.535-5.712-3.557-5.522 0a66.442 66.442 0 0 0 4.284 20.4l5.047-2.128a17.781 17.781 0 0 1-1.537-7.776c.072-1.711.757-3.588.458-5.294-.61-3.487-5-3.979-6.191-7.461-1.145-3.342-6.48-1.906-5.324 1.468Z"/>
        <path fill="#d9d9d9" d="M97.364 25.761a47.225 47.225 0 0 1 4.364 17.554l5.423-.734a127.008 127.008 0 0 1-4.95-20.105L97.155 24.6a40.481 40.481 0 0 1 5.42 19.47c.081 3.548 5.6 3.561 5.522 0a46.516 46.516 0 0 0-6.174-22.257c-1.627-2.848-5.6-.839-5.047 2.127a127.144 127.144 0 0 0 4.95 20.105c.992 2.752 5.6 2.573 5.423-.734a54.423 54.423 0 0 0-5.117-20.341c-1.5-3.219-6.261-.418-4.768 2.787Z"/>
        <path fill="#d9d9d9" d="m109.841 26.442 2.07 10.308c.574 2.855 2.249 7.172 1.916 10.06l1.368-2.384-.306.151 4.055 1.65a86.039 86.039 0 0 1-5.136-17.741c-.618-3.493-5.94-2.013-5.325 1.468A86.042 86.042 0 0 0 113.62 47.7a2.819 2.819 0 0 0 4.056 1.65c3.084-1.524 1.166-6.068.675-8.513l-3.185-15.858c-.7-3.481-6.023-2.008-5.325 1.468Z"/>
        <path fill="#d9d9d9" d="M128.583 35.219q3.081 9.173 6.813 18.1c1.35 3.23 6.7 1.812 5.324-1.468q-3.732-8.928-6.813-18.1c-1.126-3.351-6.461-1.914-5.324 1.468Z"/>
        <path fill="#d9d9d9" d="M140.083 31.444c-1.213 3.037-.642 6.038-.194 9.181q.919 6.457 1.864 12.912l5.324-1.468a80.631 80.631 0 0 1-4.1-21.018c-.207-3.532-5.73-3.556-5.522 0a86.309 86.309 0 0 0 4.3 22.486c1.155 3.45 5.823 1.983 5.324-1.468l-1.4-9.684c-.448-3.1-1.474-6.463-.272-9.473 1.318-3.3-4.021-4.734-5.325-1.468Z"/>
        <path fill="#d9d9d9" d="M151.05 39.908a152.04 152.04 0 0 0 .081 17.707l5.423-.734-2.242-14.542c-.539-3.5-5.861-2.014-5.324 1.468l2.242 14.542c.472 3.064 5.617 2.357 5.423-.734a152.04 152.04 0 0 1-.081-17.707c.191-3.551-5.332-3.541-5.522 0Z"/>
        <path fill="#d9d9d9" d="M167.152 45.425c2.4 3.708.606 9.082 1.259 13.272.545 3.5 5.867 2.014 5.325-1.468-.79-5.068 1.2-9.929-1.816-14.591-1.924-2.974-6.706-.209-4.768 2.787Z"/>
        <path fill="#d9d9d9" d="M174.628 43.05a44.512 44.512 0 0 0 .623 18.6c.858 3.446 6.184 1.986 5.325-1.468a37.633 37.633 0 0 1-.623-15.66c.6-3.476-4.72-4.969-5.325-1.468Z"/>
        <path fill="#d9d9d9" d="M185.573 49.282a30.644 30.644 0 0 0-.413 13.373c.642 3.49 5.965 2.012 5.324-1.468a24.039 24.039 0 0 1 .416-10.437c.884-3.444-4.44-4.913-5.325-1.468Z"/>
        <path fill="#d9d9d9" d="M191.641 48.012a40.711 40.711 0 0 0-.781 13.21c.377 3.5 5.9 3.534 5.522 0a36.074 36.074 0 0 1 .584-11.742c.762-3.463-4.56-4.942-5.325-1.468Z"/>
        <path fill="#d9d9d9" d="M197.584 45.757a28.883 28.883 0 0 0 1.612 13.3c1.217 3.308 6.555 1.878 5.325-1.468a25.235 25.235 0 0 1-1.415-11.832c.4-3.525-5.126-3.5-5.522 0Z"/>
        <path fill="#d9d9d9" d="m44.551 39.606 7.369 15.54c2.624 5.536 6.273 11.291 6.24 17.565l4.155-2.384c-2.624-1.789-5.178-3.938-6.579-6.867-1.306-2.732-1.421-5.893-2.256-8.773a32.586 32.586 0 0 0-2.244-5.619c-1.457-2.875-4.676-5.872-4.385-9.291.3-3.54-5.222-3.52-5.522 0-.3 3.568 1.343 5.923 3.2 8.8a31.357 31.357 0 0 1 4.353 10.7c1.572 7.089 4.58 11.685 10.647 15.821 1.774 1.209 4.144-.405 4.154-2.384.032-6.178-2.77-11.442-5.357-16.9l-9.007-18.995c-1.521-3.209-6.283-.41-4.768 2.787Z"/>
        <path fill="#d9d9d9" d="M54.522 38.1c9.436 8.1 11.072 22.889 14.062 34.267.638 2.427 3.757 2.55 5.047.659 2.642-3.873-.831-10.75-2.515-14.42-3.357-7.306-8.088-14.006-7.333-22.431.317-3.538-5.207-3.517-5.522 0-.543 6.063 1.348 11.563 3.942 16.966 1.214 2.529 2.618 4.964 3.8 7.509.737 1.589 4.014 7.9 2.861 9.594l5.046.66c-3.262-12.41-5.173-27.858-15.483-36.7-2.684-2.3-6.607 1.585-3.9 3.9Z"/>
        <path fill="#d9d9d9" d="M66.774 38.625 74.2 60.1c1.134 3.281 2.266 11.743 7.552 10.154 5.24-1.575 2.332-8.094 1.212-11.441q-3.731-11.157-8.111-22.077c-1.3-3.262-6.643-1.839-5.325 1.468a425.474 425.474 0 0 1 5.342 14.074q1.269 3.544 2.471 7.111c.6 1.775.808 5.674 2.9 4.987s-.11-3.984-.719-5.744l-2.474-7.159L72.1 37.157c-1.154-3.338-6.49-1.9-5.324 1.468Z"/>
        <path fill="#d9d9d9" d="M84.851 45.307c3.484 6.3 4.781 13.26 6.009 20.277.55 3.146.952 8.3 5.531 6.97 4.121-1.2 4.131-6.064 2.308-9.125-1.706-2.862-3.658-5.25-5-8.358a85.1 85.1 0 0 1-3.446-10.348c-.981-3.408-6.311-1.959-5.325 1.468a90.719 90.719 0 0 0 3.838 11.351 37.148 37.148 0 0 0 2.994 5.63q.855 1.253 1.79 2.447 4.239 5.011 3.1 1.188c.227-3.857-1.514-8.955-2.472-12.679a49 49 0 0 0-4.56-11.608c-1.72-3.111-6.491-.328-4.768 2.787Z"/>
        <path fill="#d9d9d9" d="m96.71 49.089 5.461 21.934 5.325-1.468q-3.769-11.747-7.54-23.492c-1.081-3.371-6.414-1.93-5.324 1.468l7.539 23.492c1.082 3.372 6.188 2 5.325-1.468l-5.461-21.934c-.858-3.446-6.185-1.986-5.325 1.468Z"/>
        <path fill="#d9d9d9" d="M106.778 52.289c3.094 6.035 2.53 13.133 4.363 19.56.814 2.854 4.33 2.367 5.324 0 1.412-3.361.3-6.728-.558-10.107l-3.632-14.249c-.877-3.441-6.2-1.983-5.325 1.468l2.777 10.9c.786 3.083 2.7 7.453 1.414 10.524h5.324c-1.992-6.988-1.537-14.281-4.919-20.879-1.622-3.163-6.388-.372-4.768 2.787Z"/>
        <path fill="#d9d9d9" d="M117.918 53.442q2.428 10.979 5.541 21.777l5.324-1.468a95.3 95.3 0 0 1-5.106-18.715c-.582-3.5-5.9-2.014-5.325 1.468a95.252 95.252 0 0 0 5.107 18.715c1.25 3.243 6.33 2.02 5.324-1.468q-3.112-10.8-5.54-21.777c-.767-3.468-6.092-2-5.325 1.468Z"/>
        <path fill="#d9d9d9" d="M128.054 57.931a22.748 22.748 0 0 0 1.985 6.5 23.452 23.452 0 0 1 1.889 9.13l2.761-2.761-.5.06 1.953.808c-1.483-1.176-2.079-5.35-2.491-7.026a49.253 49.253 0 0 1-1.253-8.047c-.266-3.521-5.791-3.55-5.522 0a55.886 55.886 0 0 0 2.42 12.939c.81 2.519 1.859 7.2 5.4 6.788a2.827 2.827 0 0 0 2.761-2.761 28.161 28.161 0 0 0-1.1-7.966c-.783-2.571-2.465-4.981-2.771-7.664-.4-3.49-5.926-3.531-5.522 0Z"/>
        <path fill="#d9d9d9" d="M137.05 60.172a55.928 55.928 0 0 0 .676 9.111c.4 2.534.737 5.9 2.182 8.073a2.9 2.9 0 0 0 3.118 1.269c2.979-.516 5.188-2.424 4.93-5.457-.384-4.517-1.321-9.06-1.976-13.547-.511-3.5-5.832-2.013-5.324 1.468l.988 6.774c.309 2.118.981 4.494.854 6.633l.808-1.952a8.965 8.965 0 0 1-1.748.756l3.118 1.269c-1.148-1.73-1.317-4.735-1.626-6.754a48.729 48.729 0 0 1-.478-7.643c.02-3.554-5.5-3.558-5.522 0Z"/>
        <path fill="#d9d9d9" d="M150.55 58.769c-1.59 3.054-3.2 6.282-3.346 9.791-.109 2.655.714 5.895 3.921 5.987 7.614.217 2.585-12.87 1.616-16.452-.926-3.426-6.254-1.972-5.324 1.468.488 1.806.952 3.617 1.377 5.438q.318 1.367.609 2.738l.192.916q-.1 1.719 1.2.34l1.952.808c-.587-.512.386-3.359.592-3.966a30.7 30.7 0 0 1 1.976-4.28c1.638-3.149-3.125-5.944-4.768-2.788Z"/>
        <path fill="#d9d9d9" d="M156.17 62.264c-.112 3.341-.492 6.8-.283 10.136.164 2.627 1.494 4.861 4.136 5.534 3.445.878 4.915-4.446 1.468-5.325-.561-.143.171-9.442.2-10.345.12-3.554-5.4-3.55-5.522 0Z"/>
        <path fill="#d9d9d9" d="M165.172 60.338a16.9 16.9 0 0 0-.328 13.4 2.856 2.856 0 0 0 3.4 1.928c1.3-.343 2.5-2.021 1.929-3.4a11.571 11.571 0 0 1-.229-9.149 2.858 2.858 0 0 0-.991-3.777c-1.156-.693-3.191-.378-3.777.99Z"/>
        <path fill="#d9d9d9" d="M171.3 62.987a30.44 30.44 0 0 0 .228 13.33c.833 3.453 6.159 1.991 5.325-1.467a23.808 23.808 0 0 1-.228-10.4c.7-3.469-4.625-4.954-5.325-1.467Z"/>
        <path fill="#d9d9d9" d="m177.467 66.3.68 9.647c.248 3.525 5.772 3.552 5.522 0l-.68-9.647c-.248-3.525-5.772-3.552-5.522 0Z"/>
        <path fill="#d9d9d9" d="M182.221 70.227a83.62 83.62 0 0 1 2.555 10.841c.582 3.5 5.905 2.014 5.325-1.468a83.46 83.46 0 0 0-2.556-10.841c-1.04-3.387-6.372-1.942-5.324 1.468Z"/>
        <path fill="#d9d9d9" d="M191.372 66.828a21.1 21.1 0 0 0 .041 14.182c1.191 3.321 6.529 1.889 5.325-1.468A16.213 16.213 0 0 1 196.7 68.3c1.181-3.359-4.152-4.8-5.324-1.467Z"/>
        <path fill="#d9d9d9" d="M196.473 68.256a32.091 32.091 0 0 0 1.369 9.608c1.026 3.392 6.358 1.947 5.325-1.468a26.79 26.79 0 0 1-1.167-8.14c.034-3.554-5.488-3.557-5.522 0Z"/>
        <path fill="#d9d9d9" d="M202.347 68.433q1.089 6.382 1.893 12.8c.431 3.481 5.958 3.524 5.522 0q-.887-7.161-2.09-14.273c-.6-3.5-5.918-2.014-5.325 1.468Z"/>
        <path fill="#c6c6c5" d="M117.263 83.1a931.334 931.334 0 0 0-44.212 107.033c-.783 2.291 2.842 3.275 3.621 1a923.411 923.411 0 0 1 43.833-106.14c1.055-2.163-2.182-4.069-3.242-1.895Z"/>
        <path fill="#c6c6c5" d="M68.84 183.358c-10.624.563-20.575 4.147-30.4 7.988-10.12 3.956-20.031 8.414-29.737 13.3-1.622.817-.9 3.654.947 3.5 10.333-.869 19.452-6.223 28.591-10.7l15.888-7.788c5.8-2.841 12.142-7.136 18.795-6.772L71.044 181c-.171 2.431-10.712 5.034-12.819 5.74-4.489 1.507-9.04 2.782-13.64 3.9-2.346.572-1.352 4.194 1 3.62a163.676 163.676 0 0 0 20.756-6.483c3.5-1.365 8.152-2.412 8.46-6.781a1.907 1.907 0 0 0-1.877-1.877c-4.666-.255-8.613 1.406-12.745 3.391-5.612 2.7-11.182 5.481-16.772 8.22-10.544 5.169-21.83 12.649-33.757 13.651l.948 3.5c9.417-4.738 19.021-9.081 28.841-12.919 9.485-3.708 19.138-7.31 29.4-7.854 2.4-.127 2.419-3.883 0-3.755Z"/>
        <path fill="#c6c6c5" d="M72.448 185.577c-6.141 14.423-11.8 28.992-17.234 43.695-.741 2.007 2.425 3.294 3.432 1.447 2.556-4.69 5.628-8.933 8.078-13.736a94.132 94.132 0 0 0 8.089-24.232 1.879 1.879 0 0 0-3.621-1 259.484 259.484 0 0 0-10.974 38c-.49 2.358 3.129 3.366 3.621 1a259.4 259.4 0 0 1 10.974-38l-3.621-1a93.266 93.266 0 0 1-8.522 24.9c-2.212 4.241-4.992 8-7.266 12.173l3.431 1.446c5.318-14.4 10.841-28.675 16.855-42.8.936-2.2-2.3-4.114-3.242-1.9Z"/>
        <path fill="#c6c6c5" d="M80.791 189.348c1.4 6.9 5.926 13.766 8.921 20.119 3.2 6.785 5.976 14.094 10.395 20.2 1.394 1.925 4.422.27 3.243-1.9q-6.95-12.752-14.056-25.422c-1.182-2.108-4.427-.217-3.242 1.9q7.105 12.669 14.055 25.426l3.243-1.9c-4.046-5.588-6.615-12.18-9.544-18.392-3.094-6.564-7.952-13.9-9.395-21.029-.479-2.367-4.1-1.365-3.62 1Z"/>
        <path fill="#c6c6c5" d="M78.973 188.675a17.608 17.608 0 0 1-7.859-3.653 1.908 1.908 0 0 0-2.948.38c-2.7 4.505 4.909 8.785 8.654 8.258a5.166 5.166 0 0 0 4.494-3.919c.5-2.53-1.36-4.541-3.191-5.971-1.324-1.035-3.8-.15-3.137 1.826l3.082 9.2c.764 2.279 4.391 1.3 3.621-1l-3.083-9.2-3.138 1.827c1.12.875 3.615 3.373.6 3.549-.678.039-5.152-1.864-4.664-2.677l-2.949.38a21.5 21.5 0 0 0 9.516 4.619c2.359.475 3.369-3.144 1-3.621Z"/>
        <path fill="#1d1d1b" d="M21.738 15.1a71.875 71.875 0 0 1 2.826-6.968q.677-1.437 1.415-2.842c.361-.688 1.3-3.132 2.145-3 .808.121 1.576 2.21 1.976 2.91l1.969 3.458 3.815 6.7 3.815 6.7a20.321 20.321 0 0 1 2.78 6.593c.393 2.415-.557 4.509-1.367 6.72a12.263 12.263 0 0 0-.669 6.348c.744 4.536 3.526 8.62 5.726 12.56 1.213 2.173 2.433 4.342 3.639 6.519a11.956 11.956 0 0 1 1.741 5.127 2.884 2.884 0 0 1-3.909 3.1c-2.241-.7-3.405-3.057-4.444-4.969q-3.647-6.711-7.287-13.424c-5.3-9.765-11.068-19.48-14.4-30.143-.276-.885-1.673-.507-1.394.385C23.41 31.43 29.06 41.051 34.306 50.716c2.714 5 5.364 10.04 8.147 15C43.505 67.591 44.8 69.5 46.9 70.3a4.475 4.475 0 0 0 5.155-1.128c2.4-2.985-.041-7.386-1.582-10.147l-4.227-7.57a48.694 48.694 0 0 1-3.68-7.363 11.6 11.6 0 0 1-.2-7.917c.843-2.429 1.907-4.649 1.6-7.29a18.233 18.233 0 0 0-2.48-6.6c-1.379-2.493-2.816-4.956-4.225-7.432L32.331 6.2c-.819-1.438-1.59-2.916-2.462-4.322C29.42 1.156 28.846.5 27.9.622c-1.028.138-1.618 1.131-2.087 1.946a66.672 66.672 0 0 0-2.11 4.015 75.035 75.035 0 0 0-3.363 8.132c-.307.88 1.09 1.259 1.394.384Z"/>
        <path fill="#1d1d1b" d="M204.7 52.385a7.811 7.811 0 0 1 3.035-4.785l-.876-.113c5.561 6.512 7.948 14.915 9.932 23.074.259 1.063.577 2.137.754 3.218a2.863 2.863 0 0 1-1.376 3.109c-.941.642-1.98 1.16-2.97 1.723l-1.209.688a6.629 6.629 0 0 1-1.614.916c-1.138.178-1.063-.684-1.268-1.44L208.6 76.9l-.885-3.274-2.024-7.484a.724.724 0 0 0-1.394.385c1.22 4.511 2.286 9.1 3.668 13.563.458 1.481 1.43 2.192 2.939 1.473a58.59 58.59 0 0 0 5.679-3.229 4.459 4.459 0 0 0 2.481-3.71 23.555 23.555 0 0 0-1.175-5.651 88.116 88.116 0 0 0-3.5-11.4 39.355 39.355 0 0 0-6.512-11.112.725.725 0 0 0-.876-.113 9.3 9.3 0 0 0-3.7 5.649c-.191.908 1.2 1.3 1.394.385Z"/>
        <path fill="#1d1d1b" d="M52.738 71.91 50.73 70.4c-1.07-.807-2.629.785-1.854 1.855 5.3 7.318 15.1 7.7 23.339 7.555 12.18-.215 24.356-.164 36.53.266a648.459 648.459 0 0 1 72.656 6.66c9.811 1.462 22.53 4.8 30.622-2.984 1.26-1.211-.659-3.126-1.917-1.917-6.776 6.514-17.8 3.834-26.037 2.58q-17.337-2.637-34.8-4.351a651.411 651.411 0 0 0-70.061-3.072c-5.34.054-10.764.439-16.081-.231-4.474-.564-9.157-2.072-11.91-5.874l-1.855 1.854 2.008 1.509c1.393 1.051 2.745-1.3 1.368-2.34Z"/>
        <path fill="#1d1d1b" d="m100.657 76.135-2.638 6.635c-.25.631.558 1.079 1.062.817 1.4-.728 3.3-.592 4.812-1.312a2.982 2.982 0 0 0 1.633-1.911 2.8 2.8 0 0 0-.867-2.631 2.764 2.764 0 0 0-3.066-.6.728.728 0 0 0-.259.989.741.741 0 0 0 .989.259 1.017 1.017 0 0 1 .672 0 1.7 1.7 0 0 1 .728.463 1.523 1.523 0 0 1 .4.709 1.065 1.065 0 0 1-.07.662c-.034.067-.072.13-.109.194-.008.013-.093.135-.047.073s-.031.037-.032.038c-.046.053-.095.1-.145.152l-.078.07c-.087.077.076-.053-.018.016a2.779 2.779 0 0 1-.4.238 1.964 1.964 0 0 1-.375.152 14.6 14.6 0 0 1-2.06.45 8.528 8.528 0 0 0-2.441.742l1.062.817 2.637-6.636a.726.726 0 0 0-.5-.889.74.74 0 0 0-.89.505Z"/>
        <path fill="#1d1d1b" d="M162.974 81.714A32.787 32.787 0 0 0 160.247 89a.729.729 0 0 0 .889.889l4.007-1.273 1.965-.625a10.891 10.891 0 0 0 1.709-.6 1.72 1.72 0 0 0 .968-1.266 2.747 2.747 0 0 0-.485-1.725 5.231 5.231 0 0 0-2.215-2.014 5.294 5.294 0 0 0-3.479-.415c-.907.2-.523 1.6.385 1.394a3.772 3.772 0 0 1 2.757.48 3.867 3.867 0 0 1 1.057.917c.172.218.684.905.534 1.207-.049.1-.24.17-.331.21a9.3 9.3 0 0 1-.91.3l-2.117.673-4.234 1.345.89.889a31.154 31.154 0 0 1 2.581-6.937c.426-.826-.821-1.558-1.248-.73Z"/>
        <path fill="#1d1d1b" d="M165.082 82.592a2.3 2.3 0 0 1 1.565-1.686 2.52 2.52 0 0 1 1.173-.127c.273.042.968.234 1.035.562.072.353-.731.8-.962.962l-1.87 1.356-3.739 2.713a.727.727 0 0 0 .557 1.322 5.721 5.721 0 0 0 3.768-3.179l-1.347-.365a5.844 5.844 0 0 1-1.6 4.245l1.208.7a30.912 30.912 0 0 1 2.06-4.972l-1.347-.364a18.09 18.09 0 0 1 .016 4.231.727.727 0 0 0 .723.723.739.739 0 0 0 .722-.723 18.144 18.144 0 0 0-.015-4.231.757.757 0 0 0-.531-.7.733.733 0 0 0-.816.333 33.05 33.05 0 0 0-2.206 5.317.728.728 0 0 0 1.208.7 7.308 7.308 0 0 0 2.02-5.267c-.022-.654-1.039-1.064-1.347-.365a4.354 4.354 0 0 1-2.9 2.514l.557 1.322 3.673-2.665 1.8-1.308a5.637 5.637 0 0 0 1.519-1.336c.808-1.233-.205-2.4-1.379-2.814a3.892 3.892 0 0 0-2.909.234 3.636 3.636 0 0 0-2.032 2.476c-.19.908 1.2 1.3 1.394.384Z"/>
        <path fill="#1d1d1b" d="M166.4 87.56a75.771 75.771 0 0 1-9.687-3.467l-.173 1.321a3.833 3.833 0 0 1 2.976.172c.83.414 1.563-.833.73-1.249a5.305 5.305 0 0 0-4.09-.317c-.525.177-.788 1.052-.173 1.322a78.61 78.61 0 0 0 10.033 3.612.723.723 0 0 0 .384-1.394Z"/>
        <path fill="#1d1d1b" d="M104.239 76.739A1.522 1.522 0 0 1 103 75.9l-.432 1.062a4.519 4.519 0 0 1 4.679.958l.146-1.135-4.716 3.234 1.062.817a3.466 3.466 0 0 1 1.167-2.184l-1.208-.7a6.774 6.774 0 0 1-3.8 4.2l.73 1.248 2.733-1.567a.731.731 0 0 0-.173-1.321 14.819 14.819 0 0 0-9.986 1.156l.989.989a4.077 4.077 0 0 1 1.495-1.865c.472-.3 1.459-.653 1.836-.023.311.518-.115 1.245-.55 1.536a3.714 3.714 0 0 1-2.641.224c-.91-.159-1.3 1.234-.384 1.394 1.375.24 2.979.343 4.112-.635a2.706 2.706 0 0 0 .785-3.1 2.429 2.429 0 0 0-3.009-1.044 4.976 4.976 0 0 0-2.893 2.787.73.73 0 0 0 .989.989 13.229 13.229 0 0 1 8.879-1.02l-.173-1.322L99.9 82.15c-.826.474-.1 1.615.73 1.248a8.154 8.154 0 0 0 4.461-5.065.729.729 0 0 0-1.208-.7 4.675 4.675 0 0 0-1.539 2.822c-.083.556.483 1.214 1.062.817l4.716-3.235a.732.732 0 0 0 .146-1.135 5.962 5.962 0 0 0-6.085-1.33.734.734 0 0 0-.432 1.062 3.01 3.01 0 0 0 2.484 1.555c.928.073.923-1.373 0-1.446Z"/>
        <path fill="#1d1d1b" d="M119.617 83.523 90.13 154.584l-8.424 20.3c-.357.858 1.042 1.232 1.394.384l29.486-71.06 8.425-20.3c.356-.859-1.042-1.233-1.394-.385Z"/>
        <path fill="#1d1d1b" d="m115.5 81.815-32.844 79.4-9.356 22.614c-.355.859 1.043 1.233 1.394.384l32.845-79.395 9.355-22.618c.355-.859-1.043-1.233-1.4-.384Z"/>
        <path fill="#1d1d1b" d="M90.508 135.312c-.614 1.412-1.241 2.819-1.843 4.236-.448 1.053-.509 2.093.577 2.746a38.384 38.384 0 0 0 4.291 1.918 24.954 24.954 0 0 0 3.836 1.457c2.021.52 5.47.6 6.454-1.751.977-2.332-2.465-4.124-4.081-4.954a18.564 18.564 0 0 0-8.9-2.032.732.732 0 0 0-.512 1.234 51.967 51.967 0 0 0 8.318 7.58c1.041.76 2.7 2.35 4.13 1.765a1.611 1.611 0 0 0 .7-.567c.058-.079.153-.343.229-.386.216-.12.331.088.509.289a27.644 27.644 0 0 1 1.828 2.618l.432-1.062a21.741 21.741 0 0 0-7.7 4.254l1.234.512a9.335 9.335 0 0 1 7.986-8.909l-.915-.7c-.148 1.535-.292 3.35-1.33 4.588a2.577 2.577 0 0 1-3.476.66l.259.989a2.327 2.327 0 0 1 1.955-1.054.723.723 0 0 0 0-1.446 3.849 3.849 0 0 0-3.2 1.77.74.74 0 0 0 .259.989 3.91 3.91 0 0 0 4.879-.531c1.65-1.482 1.9-3.893 2.1-5.965.05-.522-.5-.754-.915-.7a10.761 10.761 0 0 0-9.048 10.3.732.732 0 0 0 1.234.511 19.959 19.959 0 0 1 7.061-3.882.729.729 0 0 0 .432-1.062c-.608-.872-1.2-1.762-1.827-2.619a2.417 2.417 0 0 0-1.605-1.151c-.784-.074-1.034.452-1.453.962-.52.634-1.7-.489-2.23-.861a50.271 50.271 0 0 1-8.821-7.923l-.511 1.234a17.023 17.023 0 0 1 7.6 1.556 15.643 15.643 0 0 1 3.141 1.906c.51.407 1.234 1 .789 1.706a2.742 2.742 0 0 1-1.67.9c-2.588.572-5.356-1-7.636-2.006l-2.046-.9a3.685 3.685 0 0 1-.932-.418c-.422-.383-.226-.721-.036-1.162.561-1.306 1.134-2.607 1.7-3.91.367-.845-.878-1.582-1.249-.73Z"/>
        <path fill="#1d1d1b" d="M83.189 170.936a67.328 67.328 0 0 0-5.9 16.387c-.2.907 1.2 1.294 1.394.384a65.839 65.839 0 0 1 5.756-16.042c.424-.826-.823-1.558-1.249-.729Z"/>
        <path fill="#1d1d1b" d="M71.254 181.408q-24.341 9.376-49.12 17.556-7.1 2.34-14.221 4.579c-.885.279-.507 1.675.384 1.395q24.883-7.827 49.363-16.861 7.008-2.587 13.979-5.275c.859-.331.486-1.729-.385-1.394Z"/>
        <path fill="#1d1d1b" d="M70.482 182.481c-.285 2.02-1.692 3.58-2.34 5.471-.541 1.576-.586 3.535.651 4.806 1.355 1.392 3.612 1.377 5.406 1.594l7.245.88c.4.048.712-.371.723-.723.091-2.846-.066-6.5-2.5-8.429a6.672 6.672 0 0 0-4.494-1.135c-1.519.042-3.42.372-4.626-.782L70.4 185.3l3.587-1.847q.836-.432 1.673-.862c.523-.268 1.015-.592 1.589-.265a4.99 4.99 0 0 1 1.147 1.137 15.877 15.877 0 0 1 1.046 1.366A17.633 17.633 0 0 1 81.176 188l.7-.915-5.358.056c-1.547.016-3.117.112-4.662.006-1.033-.072-2.368-.284-2.968-1.24-.853-1.359.371-3.059 1.142-4.153.537-.763-.716-1.486-1.248-.73-.982 1.394-2.03 3.163-1.456 4.927a3.917 3.917 0 0 0 3.065 2.442 22.426 22.426 0 0 0 5.055.205l6.43-.067c.42 0 .884-.467.7-.915a19.284 19.284 0 0 0-2.016-3.718 8.8 8.8 0 0 0-2.763-2.929c-1.31-.655-2.547.2-3.7.8l-4.427 2.281a.728.728 0 0 0-.147 1.135 5.473 5.473 0 0 0 4.071 1.26c1.519-.022 3.241-.325 4.644.415 2.567 1.356 2.563 5.158 2.483 7.649l.723-.723-6.172-.749c-1-.122-2.008-.228-3.007-.368a4.462 4.462 0 0 1-2.3-.789c-1.255-1.059-.713-3.072-.1-4.324.751-1.535 1.766-2.961 2.01-4.691.128-.91-1.265-1.3-1.394-.384Z"/>
        <path fill="#1d1d1b" d="M76.35 189.908A453.692 453.692 0 0 0 54.577 230.8l1.135-.146a.932.932 0 0 1 1.121-.185l.465.1c.543.1 1.085.224 1.627.335l3.022.622a.743.743 0 0 0 .89-.5l7.32-21.686 3.661-10.844c1.133-3.356 2.417-6.7 2.682-10.262.069-.929-1.377-.924-1.446 0-.271 3.655-1.707 7.143-2.869 10.585L68.6 209.417l-7.162 21.215.89-.5-3.72-.765a7.957 7.957 0 0 0-2.916-.387 1.612 1.612 0 0 0-1.006 2.7.729.729 0 0 0 1.135-.146A454.064 454.064 0 0 1 77.6 190.638a.723.723 0 0 0-1.248-.73Z"/>
        <path fill="#1d1d1b" d="M81.7 188.126a302.185 302.185 0 0 1 20.553 39.681c.365.853 1.611.117 1.249-.73A302.116 302.116 0 0 0 82.95 187.4c-.487-.791-1.738-.066-1.248.729Z"/>
        <path fill="#1d1d1b" d="M80.643 193.476a278.8 278.8 0 0 1 21 40.193c.221.523 1 .419 1.249 0l1.942-3.235a.723.723 0 0 0-1.248-.729l-1.943 3.235h1.249a278.907 278.907 0 0 0-21-40.194c-.5-.785-1.747-.06-1.249.73Z"/>
        <path fill="#1d1d1b" d="M11.587 208.435q23.094-9.155 46.787-16.682 6.815-2.161 13.672-4.186a.723.723 0 0 0-.384-1.394q-23.824 7.04-47.116 15.729-6.7 2.5-13.344 5.139c-.854.339-.482 1.737.385 1.394Z"/>
        <path fill="#1d1d1b" d="M7.818 202.569a10 10 0 0 1 6.3 2.729c1.174 1.122 2.837 3.5 1.671 5.172-.7 1-2.316.661-3.355.568a34.272 34.272 0 0 1-4.309-.669 35.582 35.582 0 0 1-4.08-1.159 4.292 4.292 0 0 1-1.384-.648c-.684-.578-.064-1.3.425-1.764a17.078 17.078 0 0 1 7.577-4.062l-.7-.186c.759.943-.772 2.788-.976 3.8a2.433 2.433 0 0 0 1.015 2.8l.557-1.322a32.231 32.231 0 0 1-7.14-2.789l-.365 1.347a54.767 54.767 0 0 1 13.329 1.095v-1.394l-7.342 1.8a.726.726 0 0 0 .192 1.42l9.173.525-.723-.723a2.126 2.126 0 0 1-3.164 1.542c-.787-.5-1.513.749-.73 1.248a3.583 3.583 0 0 0 5.34-2.79.735.735 0 0 0-.723-.723l-9.176-.526.193 1.42 7.341-1.8a.728.728 0 0 0 0-1.394 56.325 56.325 0 0 0-13.713-1.146.729.729 0 0 0-.365 1.347 33.912 33.912 0 0 0 7.486 2.934.726.726 0 0 0 .557-1.321c-1.056-.568.129-2.373.431-3.08a3.018 3.018 0 0 0-.178-3.294.716.716 0 0 0-.7-.186 17.526 17.526 0 0 0-8.51 4.731c-.936 1.034-1.263 2.47-.146 3.5s3.024 1.387 4.439 1.772a36.978 36.978 0 0 0 5.278 1.02c1.523.184 3.5.587 4.872-.322 2.084-1.386 1.439-4.565.209-6.3a11.407 11.407 0 0 0-8.6-4.626c-.929-.055-.926 1.391 0 1.446Z"/>
        <path fill="#1d1d1b" d="M54.639 226.355 52.9 230.49c-.474 1.128-1.39 2.571-1.009 3.843.364 1.213 1.811 1.562 2.878 1.878a20.238 20.238 0 0 0 4.033.751 19.343 19.343 0 0 0 4.124-.09 3.141 3.141 0 0 0 1.687-.528 2.072 2.072 0 0 0 .668-1.588c.03-.659-.029-1.332-.048-1.991a16.727 16.727 0 0 0-.106-2.076 2.6 2.6 0 0 0-2.124-2.2 23 23 0 0 0-4.488-.348 51.342 51.342 0 0 0-5.069.139c-.761.058-1.042 1.247-.192 1.42a53.641 53.641 0 0 1 8.675 2.545l-.173-1.322a7.3 7.3 0 0 1-7 .8c-.7-.286-1.171.732-.7 1.208 1.066 1.086 2.607 1.138 4.037 1.091 1.089-.037 2.854-.349 3.558.738l.259-.989a14.623 14.623 0 0 1-7.669 1.217l.723.723a2.812 2.812 0 0 1 1.416-2.311.723.723 0 0 0-.729-1.248 4.307 4.307 0 0 0-2.134 3.559.74.74 0 0 0 .723.723 16.022 16.022 0 0 0 8.4-1.415.727.727 0 0 0 .259-.989c-.858-1.325-2.353-1.52-3.817-1.488-1.262.027-3.018.371-4-.633l-.7 1.208a8.627 8.627 0 0 0 8.115-.943.734.734 0 0 0-.173-1.321 53.659 53.659 0 0 0-8.674-2.545l-.193 1.42a50.668 50.668 0 0 1 7.142-.047c.788.051 2.1-.047 2.753.493a1.51 1.51 0 0 1 .4 1.153c.03.595.036 1.192.053 1.787.015.54.077 1.1.038 1.641-.044.617-.477.615-1.017.685a18.828 18.828 0 0 1-3.365.12 18.274 18.274 0 0 1-3.355-.49q-.74-.179-1.464-.416c-.381-.125-1.082-.258-1.312-.631-.259-.421.121-1.122.286-1.518.257-.617.518-1.233.777-1.85l1.645-3.917a.727.727 0 0 0-.5-.889.74.74 0 0 0-.89.5Z"/>
        <path fill="#1d1d1b" d="m99.324 229.184-2.143 5.246a.726.726 0 0 0 .7.915c3-.272 6.279-.633 8.571-2.8a7.681 7.681 0 0 0 1.946-7.867.736.736 0 0 0-1.062-.432 7.113 7.113 0 0 0-3.923 5.389c-.012.09-.024.18-.034.27l-.008.077c-.024.183-.021.207.008.072.156-.116-.167.016-.186.022a.982.982 0 0 1-.724-.086 1.175 1.175 0 0 1-.3-1.6 2.451 2.451 0 0 1 1.882-1.19c.39-.067 1.6-.218 1.843.282.072.149-.369.508-.517.656q-.558.557-1.13 1.1a59.252 59.252 0 0 1-4.963 4.209l1.088.624a12.388 12.388 0 0 1 2.33-5.937.74.74 0 0 0-.259-.989 5.152 5.152 0 0 0-3.655-1.3 3.032 3.032 0 0 0-2.49 1.96c-.772 2.357 2.095 3.658 3.964 2.879a7.1 7.1 0 0 0 2.707-2.39c.716-.917 1.454-1.989 1.084-3.211a1.932 1.932 0 0 0-2.834-1.146 3.958 3.958 0 0 0-2.417 2.337c-.352 1.539 1.161 2.294 2.237 2.973l4.242 2.679c.789.5 1.515-.753.73-1.249l-5.038-3.181c-.6-.379-1.052-.747-.455-1.381.314-.333 1.439-1.241 1.919-.969.658.373.034 1.4-.236 1.783a10.286 10.286 0 0 1-1.612 1.865 2.394 2.394 0 0 1-1.814.694c-.486-.059-1.079-.334-1.142-.879-.084-.734.754-1.285 1.394-1.341a4.112 4.112 0 0 1 2.686 1.126l-.259-.989a13.81 13.81 0 0 0-2.528 6.667.727.727 0 0 0 1.088.625 62.189 62.189 0 0 0 5.753-4.913c.733-.71 1.921-1.585 1.5-2.753a2.467 2.467 0 0 0-2.3-1.33c-2.065-.083-4.5 1.147-4.421 3.5a2.379 2.379 0 0 0 1.6 2.215 2.2 2.2 0 0 0 2.419-.584c.336-.409.26-1.071.389-1.575a5.732 5.732 0 0 1 3.114-3.761l-1.068-.43a6.238 6.238 0 0 1-1.689 6.565c-1.982 1.784-4.9 2.038-7.434 2.268l.7.915 2.143-5.246a.729.729 0 0 0-.505-.889.739.739 0 0 0-.889.5Z"/>
        <path stroke-width="1.446" stroke-miterlimit="10" stroke="#1d1d1b" fill="none" d="M53.814 44.505q-2.114-4.575-4.371-9.082a32.372 32.372 0 0 1-8.08 3.378 14.01 14.01 0 0 1 3.1 3.691"/>
        <path stroke-width="1.446" stroke-miterlimit="10" stroke="#1d1d1b" fill="none" d="M53.814 44.505q5.414 11.73 9.822 23.89"/>
        <path stroke-width="1.446" stroke-miterlimit="10" stroke="#1d1d1b" fill="none" d="M53.51 70.492q-2.836-9.684-5.675-19.368a37.132 37.132 0 0 0-3.373-8.632"/>
        <path stroke-width="1.446" stroke-miterlimit="10" stroke="#1d1d1b" fill="none" d="m55.33 72.247 9.23-1.3c-.3-.854-.615-1.7-.924-2.554"/>
        <path stroke-width="1.446" stroke-miterlimit="10" stroke="#1d1d1b" fill="none" d="m56.721 38.131 4.531-1.65a1.24 1.24 0 0 1 1.974.909c.8 2.369 1.632 4.724 2.493 7.07"/>
        <path stroke-width="1.446" stroke-miterlimit="10" stroke="#1d1d1b" fill="none" d="M68.708 68.535c.143.523.3 1.044.436 1.569a10.461 10.461 0 0 1 6.394-1.092c-.1-.234-.195-.468-.292-.7"/>
        <path stroke-width="1.446" stroke-miterlimit="10" stroke="#1d1d1b" fill="none" d="M56.721 38.131a151.095 151.095 0 0 1 3.289 6.611"/>
        <path stroke-width="1.446" stroke-miterlimit="10" stroke="#1d1d1b" fill="none" d="M60.01 44.742a151.065 151.065 0 0 1 8.7 23.793"/>
        <path stroke-width="1.446" stroke-miterlimit="10" stroke="#1d1d1b" fill="none" d="m56.721 38.131-1.063.387"/>
        <path stroke-width="1.446" stroke-miterlimit="10" stroke="#1d1d1b" fill="none" d="M55.967 36.683c.258.479.5.966.754 1.448"/>
        <path stroke-width="1.446" stroke-miterlimit="10" stroke="#1d1d1b" fill="none" d="M75.246 68.309c-3.3-7.9-6.578-15.815-9.527-23.849"/>
        <path stroke-width="1.446" stroke-miterlimit="10" stroke="#1d1d1b" fill="none" d="M80.635 72.22a5.646 5.646 0 0 1 3.072-.1c1.037.092 2.311-.182 2.64-1.169a2.745 2.745 0 0 0-.126-1.6c-.165-.577-.342-1.15-.51-1.726"/>
        <path stroke-width="1.446" stroke-miterlimit="10" stroke="#1d1d1b" fill="none" d="m74.232 37-6.36-.185q1.055 3.717 2.184 7.411"/>
        <path stroke-width="1.446" stroke-miterlimit="10" stroke="#1d1d1b" fill="none" d="M79.814 72.551q-.852-2.207-1.679-4.423"/>
        <path stroke-width="1.446" stroke-miterlimit="10" stroke="#1d1d1b" fill="none" d="M78.322 44.389a474.54 474.54 0 0 0-2.244-6.36v-.008"/>
        <path stroke-width="1.446" stroke-miterlimit="10" stroke="#1d1d1b" fill="none" d="M78.322 44.389q3.994 11.52 7.389 23.235"/>
        <path stroke-width="1.446" stroke-miterlimit="10" stroke="#1d1d1b" fill="none" d="M78.135 68.128q-4.41-11.82-8.079-23.9"/>
        <path stroke-width="1.446" stroke-miterlimit="10" stroke="#1d1d1b" fill="none" d="M76.075 38.021a1.654 1.654 0 0 0-.427-.738 1.688 1.688 0 0 0-1.057-.271L74.232 37"/>
        <path stroke-width="1.446" stroke-miterlimit="10" stroke="#1d1d1b" fill="none" d="M98.669 67.267c.212.36.416.726.632 1.084a1.669 1.669 0 0 1 .346 1.076 1.646 1.646 0 0 1-.445.764c-1.986 2.312-5.9-.343-7.888 1.969-.309-1.678-.6-3.247-.9-4.749"/>
        <path stroke-width="1.446" stroke-miterlimit="10" stroke="#1d1d1b" fill="none" d="M98.669 67.267a111.16 111.16 0 0 1-9.634-21.195"/>
        <path stroke-width="1.446" stroke-miterlimit="10" stroke="#1d1d1b" fill="none" d="M90.418 67.411a118.073 118.073 0 0 0-6.259-22.289"/>
        <path stroke-width="1.446" stroke-miterlimit="10" stroke="#1d1d1b" fill="none" d="M82.927 42.035c.44 1.07.844 2.089 1.232 3.087"/>
        <path stroke-width="1.446" stroke-miterlimit="10" stroke="#1d1d1b" fill="none" d="M89.035 46.072a91.772 91.772 0 0 1-.8-2.481 1.107 1.107 0 0 0-1.277-1.027l-2.7-.075"/>
        <path stroke-width="1.446" stroke-miterlimit="10" stroke="#1d1d1b" fill="none" d="M101.294 49.145q-.4-1.314-.809-2.629c-.1-.331-.243-.7-.568-.824a1.145 1.145 0 0 0-.786.1l-3.031 1.17"/>
        <path stroke-width="1.446" stroke-miterlimit="10" stroke="#1d1d1b" fill="none" d="M101.294 49.145 106.91 67.4"/>
        <path stroke-width="1.446" stroke-miterlimit="10" stroke="#1d1d1b" fill="none" d="M101.1 67.281q.648 2.52 1.3 5.039l5.435-1.9-.929-3.019"/>
        <path stroke-width="1.446" stroke-miterlimit="10" stroke="#1d1d1b" fill="none" d="m96.1 46.962-.524.2"/>
        <path stroke-width="1.446" stroke-miterlimit="10" stroke="#1d1d1b" fill="none" d="m95.961 46.388.136.574"/>
        <path stroke-width="1.446" stroke-miterlimit="10" stroke="#1d1d1b" fill="none" d="M96.3 47.805q2.309 9.761 4.8 19.476"/>
        <path stroke-width="1.446" stroke-miterlimit="10" stroke="#1d1d1b" fill="none" d="m96.3 47.805-.2-.843"/>
        <path stroke-width="1.446" stroke-miterlimit="10" stroke="#1d1d1b" fill="none" d="m117.189 67.9-3-14.9a8.522 8.522 0 0 0-.028-.126"/>
        <path stroke-width="1.446" stroke-miterlimit="10" stroke="#1d1d1b" fill="none" d="M111.33 67.578q.752 2.3 1.545 4.588l4.846-1.619-.532-2.643"/>
        <path stroke-width="1.446" stroke-miterlimit="10" stroke="#1d1d1b" fill="none" d="M106.465 50.611q2.121 8.568 4.865 16.967"/>
        <path stroke-width="1.446" stroke-miterlimit="10" stroke="#1d1d1b" fill="none" d="m106.3 49.922.169.689"/>
        <path stroke-width="1.446" stroke-miterlimit="10" stroke="#1d1d1b" fill="none" d="M106.179 50c.039-.024.079-.048.117-.073"/>
        <path stroke-width="1.446" stroke-miterlimit="10" stroke="#1d1d1b" fill="none" d="M114.16 52.882c-.254-1.125-1.217-4.1-1.217-4.1-1.927-1.222-4.544-.185-6.647 1.142"/>
        <path stroke-width="1.446" stroke-miterlimit="10" stroke="#1d1d1b" fill="none" d="M105.958 48.543c.11.461.226.92.338 1.379"/>
        <path stroke-width="1.446" stroke-miterlimit="10" stroke="#1d1d1b" fill="none" d="M123.376 55.655a15.247 15.247 0 0 1-.511-2.323 6.244 6.244 0 0 0-.637-2.218c-1.555-.479-3.525 1.021-4.72-.083.063.877.2 1.888.382 2.972"/>
        <path stroke-width="1.446" stroke-miterlimit="10" stroke="#1d1d1b" fill="none" d="M121.03 68.179c.333 1.494.615 2.87.793 4.02a1.642 1.642 0 0 0 .386.982 1.5 1.5 0 0 0 .84.319 9.008 9.008 0 0 0 3.584-.208 1.363 1.363 0 0 0 .879-.525 1.4 1.4 0 0 0 .038-1.021 23.4 23.4 0 0 0-.97-3.1"/>
        <path stroke-width="1.446" stroke-miterlimit="10" stroke="#1d1d1b" fill="none" d="M117.89 54c.709 4.245 2.155 9.754 3.14 14.176"/>
        <path stroke-width="1.446" stroke-miterlimit="10" stroke="#1d1d1b" fill="none" d="M123.376 55.655a4.121 4.121 0 0 1 .135 1.38c-.488 4.03 1.607 7.753 3.069 11.61"/>
        <path stroke-width="1.446" stroke-miterlimit="10" stroke="#1d1d1b" fill="none" d="M133.614 58.675v-.019c-.11-.975-.3-2.14-1.206-2.524-1.167-.5-2.272.749-3.484 1.177"/>
        <path stroke-width="1.446" stroke-miterlimit="10" stroke="#1d1d1b" fill="none" d="M129.681 68.937a39.574 39.574 0 0 0 1.435 4.082 1.78 1.78 0 0 0 .495.768 1.836 1.836 0 0 0 1.4.16l4.412-.683a1.035 1.035 0 0 0 .778-.372c.186-.314-.006-.707-.191-1.022a32.03 32.03 0 0 1-1.16-2.181"/>
        <path stroke-width="1.446" stroke-miterlimit="10" stroke="#1d1d1b" fill="none" d="M127.039 56.75c.964 1.913 1.107 4.149 1.391 6.289a39.712 39.712 0 0 0 1.251 5.9"/>
        <path stroke-width="1.446" stroke-miterlimit="10" stroke="#1d1d1b" fill="none" d="M127.039 56.75c-.071-.14-.135-.284-.215-.421"/>
        <path stroke-width="1.446" stroke-miterlimit="10" stroke="#1d1d1b" fill="none" d="M128.1 57.445a2.158 2.158 0 0 0 .823-.136"/>
        <path stroke-width="1.446" stroke-miterlimit="10" stroke="#1d1d1b" fill="none" d="M133.614 58.675a33.725 33.725 0 0 0 3.239 11.014"/>
        <path stroke-width="1.446" stroke-miterlimit="10" stroke="#1d1d1b" fill="none" d="M139.027 69.935q.66 5.1 1.5 10.18a8.923 8.923 0 0 1 5.582-2.183q.126-3.573-.036-7.148"/>
        <path stroke-width="1.446" stroke-miterlimit="10" stroke="#1d1d1b" fill="none" d="M145.226 61.8q.644 4.469.842 8.987"/>
        <path stroke-width="1.446" stroke-miterlimit="10" stroke="#1d1d1b" fill="none" d="M137.753 58.293c.047.531.106 1.061.156 1.591"/>
        <path stroke-width="1.446" stroke-miterlimit="10" stroke="#1d1d1b" fill="none" d="M137.909 59.884q.474 5.035 1.118 10.051"/>
        <path stroke-width="1.446" stroke-miterlimit="10" stroke="#1d1d1b" fill="none" d="M145.226 61.8c-.064-.442-.124-.883-.194-1.324a2.477 2.477 0 0 0-.656-1.566c-1.451-1.23-4.288 1.452-5.314-.15"/>
        <path stroke-width="1.446" stroke-miterlimit="10" stroke="#1d1d1b" fill="none" d="M149.036 60.162c-.134.816-.22 1.64-.284 2.465"/>
        <path stroke-width="1.446" stroke-miterlimit="10" stroke="#1d1d1b" fill="none" d="M148.562 59.076a6.043 6.043 0 0 0 5.1-.772l.347 5.379"/>
        <path stroke-width="1.446" stroke-miterlimit="10" stroke="#1d1d1b" fill="none" d="M148.752 62.627a29.4 29.4 0 0 0 .6 8.574"/>
        <path stroke-width="1.446" stroke-miterlimit="10" stroke="#1d1d1b" fill="none" d="M149.353 71.2c.186.846.4 1.686.66 2.511l6.876-.21a7.572 7.572 0 0 1-1.095-1.454"/>
        <path stroke-width="1.446" stroke-miterlimit="10" stroke="#1d1d1b" fill="none" d="M155.794 72.048c-1.316-2.253-1.571-5.121-1.743-7.792l-.037-.573"/>
        <path stroke-width="1.446" stroke-miterlimit="10" stroke="#1d1d1b" fill="none" d="M157.776 64.344q.21 4.038.653 8.059"/>
        <path stroke-width="1.446" stroke-miterlimit="10" stroke="#1d1d1b" fill="none" d="M157.776 64.344q-.178-3.45-.19-6.906"/>
        <path stroke-width="1.446" stroke-miterlimit="10" stroke="#1d1d1b" fill="none" d="M162.484 72.953c.206.651.422 1.3.657 1.939a1.131 1.131 0 0 1 .1.612c-.063.294-.344.481-.6.637l-3.448 2.077c-.3-1.932-.549-3.872-.765-5.815"/>
        <path stroke-width="1.446" stroke-miterlimit="10" stroke="#1d1d1b" fill="none" d="M162.484 72.953a45.78 45.78 0 0 1-1.78-8.083"/>
        <path stroke-width="1.446" stroke-miterlimit="10" stroke="#1d1d1b" fill="none" d="M160.7 64.87a47.815 47.815 0 0 1-.3-3.229l-2.734-.1"/>
        <path stroke-width="1.446" stroke-miterlimit="10" stroke="#1d1d1b" fill="none" d="M169.369 66.39a6.1 6.1 0 0 0 .077-2.072c-.22-1.3-1.491-2.56-2.738-2.135"/>
        <path stroke-width="1.446" stroke-miterlimit="10" stroke="#1d1d1b" fill="none" d="M169.756 73.945c-.125-.569-.314-1.144-.464-1.683a9.869 9.869 0 0 1-.262-4.035c.088-.612.232-1.225.339-1.837"/>
        <path stroke-width="1.446" stroke-miterlimit="10" stroke="#1d1d1b" fill="none" d="M164.745 73.262a5.206 5.206 0 0 0 .751 2.553c.847 1.286 2.939 1.836 3.919.649a2.837 2.837 0 0 0 .341-2.519"/>
        <path stroke-width="1.446" stroke-miterlimit="10" stroke="#1d1d1b" fill="none" d="m164.973 65.636.1-2.6"/>
        <path stroke-width="1.446" stroke-miterlimit="10" stroke="#1d1d1b" fill="none" d="M164.973 65.636q-.114 2.852-.23 5.7a17.9 17.9 0 0 0 0 1.924"/>
        <path stroke-width="1.446" stroke-miterlimit="10" stroke="#1d1d1b" fill="none" d="M169.456 44.908c.056-.226.111-.451.172-.675"/>
        <path stroke-width="1.446" stroke-miterlimit="10" stroke="#1d1d1b" fill="none" d="M169.333 58.869c.111.483.229.963.364 1.44a2.7 2.7 0 0 0 2.075-.932"/>
        <path stroke-width="1.446" stroke-miterlimit="10" stroke="#1d1d1b" fill="none" d="M169.333 58.869a30.252 30.252 0 0 1-.133-12.838"/>
        <path stroke-width="1.446" stroke-miterlimit="10" stroke="#1d1d1b" fill="none" d="M171.772 59.377a3.714 3.714 0 0 0 .687-1.017 9 9 0 0 0 .552-3.527 60.332 60.332 0 0 0-.143-7.219"/>
        <path stroke-width="1.446" stroke-miterlimit="10" stroke="#1d1d1b" fill="none" d="M169.2 46.031q.117-.564.256-1.123"/>
        <path stroke-width="1.446" stroke-miterlimit="10" stroke="#1d1d1b" fill="none" d="m169.456 44.908 2.785-.946a23.69 23.69 0 0 1 .627 3.652"/>
        <path stroke-width="1.446" stroke-miterlimit="10" stroke="#1d1d1b" fill="none" d="m169.05 45.046.406-.138"/>
        <path stroke-width="1.446" stroke-miterlimit="10" stroke="#1d1d1b" fill="none" d="M173.154 74.4a4.246 4.246 0 0 0 .883 1.932c.805.923 2.485 1.169 3.181.161l-.131-1.568"/>
        <path stroke-width="1.446" stroke-miterlimit="10" stroke="#1d1d1b" fill="none" d="M173.81 64.719a3.627 3.627 0 0 0 2.407-.2l.242 2.9"/>
        <path stroke-width="1.446" stroke-miterlimit="10" stroke="#1d1d1b" fill="none" d="M172.432 66.87c.051 2.012.27 4.024.493 6.026a14.642 14.642 0 0 0 .229 1.508"/>
        <path stroke-width="1.446" stroke-miterlimit="10" stroke="#1d1d1b" fill="none" d="M172.432 66.87a28.479 28.479 0 0 1 .061-2.892"/>
        <path stroke-width="1.446" stroke-miterlimit="10" stroke="#1d1d1b" fill="none" d="m177.087 74.929-.628-7.514"/>
        <path stroke-width="1.446" stroke-miterlimit="10" stroke="#1d1d1b" fill="none" d="M176.076 60.273c.13 1.1.272 2.207.439 3.307a2.5 2.5 0 0 0 2.555-2.164c0-.176-.006-.347-.009-.522"/>
        <path stroke-width="1.446" stroke-miterlimit="10" stroke="#1d1d1b" fill="none" d="M179.061 60.894c-.083-4.66-.208-8.815-.147-11.8"/>
        <path stroke-width="1.446" stroke-miterlimit="10" stroke="#1d1d1b" fill="none" d="M176.954 45.446a4.007 4.007 0 0 1 2.473-.733 13.5 13.5 0 0 0-.513 4.381"/>
        <path stroke-width="1.446" stroke-miterlimit="10" stroke="#1d1d1b" fill="none" d="M175.367 48.371c0-1.279.014-2.557.06-3.835"/>
        <path stroke-width="1.446" stroke-miterlimit="10" stroke="#1d1d1b" fill="none" d="M176.076 60.273a102.481 102.481 0 0 1-.709-11.9"/>
        <path stroke-width="1.446" stroke-miterlimit="10" stroke="#1d1d1b" fill="none" d="m180.316 67.837 1.359 7.687"/>
        <path stroke-width="1.446" stroke-miterlimit="10" stroke="#1d1d1b" fill="none" d="M178.353 75.094a4.308 4.308 0 0 0 .916 2.647c.706.73 2.19.735 2.545-.217a2.287 2.287 0 0 0 0-1.193l-.142-.807"/>
        <path stroke-width="1.446" stroke-miterlimit="10" stroke="#1d1d1b" fill="none" d="M177.959 67.6a60.538 60.538 0 0 0 .375 7.3l.019.19"/>
        <path stroke-width="1.446" stroke-miterlimit="10" stroke="#1d1d1b" fill="none" d="m180.316 67.837-.859-4.865"/>
        <path stroke-width="1.446" stroke-miterlimit="10" stroke="#1d1d1b" fill="none" d="M177.959 67.6a23.226 23.226 0 0 1 .6-4.814"/>
        <path stroke-width="1.446" stroke-miterlimit="10" stroke="#1d1d1b" fill="none" d="M187.046 60.717c-1.228-3.428-1.094-7.389-.866-11.117"/>
        <path stroke-width="1.446" stroke-miterlimit="10" stroke="#1d1d1b" fill="none" d="M190.459 58.675c.1 1.942-.143 4.277-1.929 4.938a11.914 11.914 0 0 1-1.484-2.9"/>
        <path stroke-width="1.446" stroke-miterlimit="10" stroke="#1d1d1b" fill="none" d="M190.459 58.675c0-.094-.01-.188-.016-.28q-.3-4.2-.605-8.4a6.769 6.769 0 0 0-.054-.525"/>
        <path stroke-width="1.446" stroke-miterlimit="10" stroke="#1d1d1b" fill="none" d="M185.284 48.076c1.274.6 3.093-.643 4.07.372a1.807 1.807 0 0 1 .43 1.026"/>
        <path stroke-width="1.446" stroke-miterlimit="10" stroke="#1d1d1b" fill="none" d="m186.192 49.412-.012.188"/>
        <path stroke-width="1.446" stroke-miterlimit="10" stroke="#1d1d1b" fill="none" d="m184.908 75.933 1.431 9.28c.53-2.142 2.508-3.742 2.873-5.918a6.106 6.106 0 0 0-.317-2.878"/>
        <path stroke-width="1.446" stroke-miterlimit="10" stroke="#1d1d1b" fill="none" d="M183.2 67.4a1.079 1.079 0 0 0 .392-.039"/>
        <path stroke-width="1.446" stroke-miterlimit="10" stroke="#1d1d1b" fill="none" d="M183.337 65.745q.126.809.25 1.619"/>
        <path stroke-width="1.446" stroke-miterlimit="10" stroke="#1d1d1b" fill="none" d="M186.868 68.3a16.992 16.992 0 0 0 1.01 5.415c.324.894.727 1.794 1.017 2.7"/>
        <path stroke-width="1.446" stroke-miterlimit="10" stroke="#1d1d1b" fill="none" d="m183.7 68.112 1.206 7.821"/>
        <path stroke-width="1.446" stroke-miterlimit="10" stroke="#1d1d1b" fill="none" d="M186.868 68.3c-.008-.357-.009-.714.006-1.07a1.563 1.563 0 0 0-.329-1.3c-.909-.763-1.828 1.139-2.958 1.439"/>
        <path stroke-width="1.446" stroke-miterlimit="10" stroke="#1d1d1b" fill="none" d="m183.7 68.112-.115-.748"/>
        <path stroke-width="1.446" stroke-miterlimit="10" stroke="#1d1d1b" fill="none" d="M189.726 68.42q.426 4.14 1.189 8.236"/>
        <path stroke-width="1.446" stroke-miterlimit="10" stroke="#1d1d1b" fill="none" d="m193.374 68.513.453 8.472"/>
        <path stroke-width="1.446" stroke-miterlimit="10" stroke="#1d1d1b" fill="none" d="M190.915 76.656q.564 3.021 1.309 6a2.4 2.4 0 0 0 .589 1.243.841.841 0 0 0 1.226-.035 1.222 1.222 0 0 0 .116-.737l-.328-6.146"/>
        <path stroke-width="1.446" stroke-miterlimit="10" stroke="#1d1d1b" fill="none" d="M193.374 68.513v-.043a1.455 1.455 0 0 0-.2-.8c-.615-.834-2.225.236-2.906-.545"/>
        <path stroke-width="1.446" stroke-miterlimit="10" stroke="#1d1d1b" fill="none" d="M189.541 66.445q.083.989.185 1.975"/>
        <path stroke-width="1.446" stroke-miterlimit="10" stroke="#1d1d1b" fill="none" d="m193.166 46.741 1.908-.121c-.029.8-.03 1.6-.018 2.4"/>
        <path stroke-width="1.446" stroke-miterlimit="10" stroke="#1d1d1b" fill="none" d="M196.294 58.93a46.17 46.17 0 0 1-1.238-9.912"/>
        <path stroke-width="1.446" stroke-miterlimit="10" stroke="#1d1d1b" fill="none" d="M191.559 58.751c.009.047.012.095.021.141a1.554 1.554 0 0 0 .616 1.152 1.621 1.621 0 0 0 1.037.062l3.215-.517c-.055-.219-.1-.44-.154-.659"/>
        <path stroke-width="1.446" stroke-miterlimit="10" stroke="#1d1d1b" fill="none" d="M192.747 49.328a16.158 16.158 0 0 0-1.188 9.423"/>
        <path stroke-width="1.446" stroke-miterlimit="10" stroke="#1d1d1b" fill="none" d="m196.081 67.2.276 1.346"/>
        <path stroke-width="1.446" stroke-miterlimit="10" stroke="#1d1d1b" fill="none" d="M196.357 68.549q.912 4.452 1.826 8.9"/>
        <path stroke-width="1.446" stroke-miterlimit="10" stroke="#1d1d1b" fill="none" d="M201.506 68.548a2.623 2.623 0 0 0-.258-.556c-.927-1.473-3.057-1.412-4.782-1.176"/>
        <path stroke-width="1.446" stroke-miterlimit="10" stroke="#1d1d1b" fill="none" d="m198.183 77.452.467 2.278a3.5 3.5 0 0 1-.125 2.542l5.29-1.167c-1.031-.6-1.285-1.954-1.418-3.14-.015-.133-.024-.267-.039-.4"/>
        <path stroke-width="1.446" stroke-miterlimit="10" stroke="#1d1d1b" fill="none" d="M202.358 77.566q-.4-3.642-.6-7.3a6.506 6.506 0 0 0-.25-1.716"/>
        <path stroke-width="1.446" stroke-miterlimit="10" stroke="#1d1d1b" fill="none" d="M197.514 48.734c-.018-.357-.044-.714-.059-1.071"/>
        <path stroke-width="1.446" stroke-miterlimit="10" stroke="#1d1d1b" fill="none" d="m198.155 47.242 2.181-1.085a.651.651 0 0 1 .372-.1c.317.048.37.478.349.8q-.049.72-.062 1.443"/>
        <path stroke-width="1.446" stroke-miterlimit="10" stroke="#1d1d1b" fill="none" d="M198.446 58.946c.068.512.128 1.025.2 1.535l4.014-1.595"/>
        <path stroke-width="1.446" stroke-miterlimit="10" stroke="#1d1d1b" fill="none" d="M198.446 58.946q-.672-5.085-.932-10.212"/>
        <path stroke-width="1.446" stroke-miterlimit="10" stroke="#1d1d1b" fill="none" d="M201 48.3a30.024 30.024 0 0 0 1.7 10.572l-.035.014"/>
        <path stroke-width="1.446" stroke-miterlimit="10" stroke="#1d1d1b" fill="none" d="M204.652 77.118a36.12 36.12 0 0 0-1.737-8.582"/>
        <path stroke-width="1.446" stroke-miterlimit="10" stroke="#1d1d1b" fill="none" d="M202.915 68.536c-.1-.294-.19-.589-.295-.881l3.51-.67a.593.593 0 0 1 .832.626l.139.875"/>
        <path stroke-width="1.446" stroke-miterlimit="10" stroke="#1d1d1b" fill="none" d="m207.1 68.486.291 1.834a108.527 108.527 0 0 1 1.573 13.6l-4.242.052"/>
        <path stroke-width="1.446" stroke-miterlimit="10" stroke="#1d1d1b" fill="none" d="M204.652 77.118q.125 1.6.105 3.211a2.08 2.08 0 0 0 .2 1.151 1.764 1.764 0 0 0 .728.577 6.885 6.885 0 0 0 3.093.738"/>
        <path stroke-width="1.446" stroke-miterlimit="10" stroke="#1d1d1b" fill="none" d="m39.986 8.642 4.859 8.131"/>
        <path stroke-width="1.446" stroke-miterlimit="10" stroke="#1d1d1b" fill="none" d="M53.877 17.309a106.545 106.545 0 0 1 3.43 15.417"/>
        <path stroke-width="1.446" stroke-miterlimit="10" stroke="#1d1d1b" fill="none" d="M53.877 17.309c-.13-.431-.258-.863-.393-1.292a5.666 5.666 0 0 0-1.3-2.5 5.83 5.83 0 0 0-2.867-1.2l-7.605-1.647"/>
        <path stroke-width="1.446" stroke-miterlimit="10" stroke="#1d1d1b" fill="none" d="M51.537 32.739c.1.62.194 1.242.262 1.867a35.991 35.991 0 0 0 5.595-1.3c-.027-.193-.059-.385-.087-.578"/>
        <path stroke-width="1.446" stroke-miterlimit="10" stroke="#1d1d1b" fill="none" d="m44.845 16.773.255.427a67.849 67.849 0 0 1 4.042 7.455 33.988 33.988 0 0 1 2.395 8.084"/>
        <path stroke-width="1.446" stroke-miterlimit="10" stroke="#1d1d1b" fill="none" d="M57.992 17.372 61.629 32.8"/>
        <path stroke-width="1.446" stroke-miterlimit="10" stroke="#1d1d1b" fill="none" d="m56.97 13.038 1.022 4.334"/>
        <path stroke-width="1.446" stroke-miterlimit="10" stroke="#1d1d1b" fill="none" d="M65.405 17.6c-.136-.609-.261-1.22-.4-1.828-.33-1.412-.889-3.054-2.285-3.446a4.134 4.134 0 0 0-1.6-.019l-2.938.35"/>
        <path stroke-width="1.446" stroke-miterlimit="10" stroke="#1d1d1b" fill="none" d="M65.405 17.6q1.721 7.68 2.836 15.478"/>
        <path stroke-width="1.446" stroke-miterlimit="10" stroke="#1d1d1b" fill="none" d="m61.629 32.8.576 2.443a2.127 2.127 0 0 0 .571 1.2 1.994 1.994 0 0 0 1.193.347 15.088 15.088 0 0 0 4.06-.327.762.762 0 0 0 .548-.306.778.778 0 0 0 .036-.464c-.113-.871-.248-1.738-.372-2.607"/>
        <path stroke-width="1.446" stroke-miterlimit="10" stroke="#1d1d1b" fill="none" d="M73.337 33.5a28.129 28.129 0 0 0 .895 3.5"/>
        <path stroke-width="1.446" stroke-miterlimit="10" stroke="#1d1d1b" fill="none" d="m70.494 15.836.292-.1"/>
        <path stroke-width="1.446" stroke-miterlimit="10" stroke="#1d1d1b" fill="none" d="M78.563 19.445c0-.075-.011-.15-.015-.225a6.079 6.079 0 0 0-.376-2.231 3.948 3.948 0 0 0-3.513-2.049 10.855 10.855 0 0 0-3.873.8"/>
        <path stroke-width="1.446" stroke-miterlimit="10" stroke="#1d1d1b" fill="none" d="m70.584 14.287.2 1.448"/>
        <path stroke-width="1.446" stroke-miterlimit="10" stroke="#1d1d1b" fill="none" d="m71.118 18.122 1.56 11.2c.194 1.395.392 2.794.659 4.177"/>
        <path stroke-width="1.446" stroke-miterlimit="10" stroke="#1d1d1b" fill="none" d="M78.563 19.445a66.369 66.369 0 0 0 2.544 15.092"/>
        <path stroke-width="1.446" stroke-miterlimit="10" stroke="#1d1d1b" fill="none" d="m76.075 38.021-.56.049a1.254 1.254 0 0 1-.707-.07 1.234 1.234 0 0 1-.493-.739c-.03-.085-.054-.171-.083-.256"/>
        <path stroke-width="1.446" stroke-miterlimit="10" stroke="#1d1d1b" fill="none" d="m70.786 15.735.332 2.387"/>
        <path stroke-width="1.446" stroke-miterlimit="10" stroke="#1d1d1b" fill="none" d="m76.075 38.021 5.956-.522a66.34 66.34 0 0 1-.924-2.962"/>
        <path stroke-width="1.446" stroke-miterlimit="10" stroke="#1d1d1b" fill="none" d="M96.309 23.1a30.154 30.154 0 0 1 5.348 1.52 7.667 7.667 0 0 1 3.357 2.142 6.286 6.286 0 0 1 1.018 2.051"/>
        <path stroke-width="1.446" stroke-miterlimit="10" stroke="#1d1d1b" fill="none" d="M100.292 39.49a145.625 145.625 0 0 0-4.274-14.36"/>
        <path stroke-width="1.446" stroke-miterlimit="10" stroke="#1d1d1b" fill="none" d="M96.018 25.13a144.309 144.309 0 0 0-1.406-3.82"/>
        <path stroke-width="1.446" stroke-miterlimit="10" stroke="#1d1d1b" fill="none" d="M106.032 28.816c.12.378.222.763.318 1.146a63.883 63.883 0 0 1 1.8 12.06"/>
        <path stroke-width="1.446" stroke-miterlimit="10" stroke="#1d1d1b" fill="none" d="M100.292 39.49q.81 3.34 1.464 6.716a.915.915 0 0 0 1.18.932l3.976-.247a1.485 1.485 0 0 0 1.119-.4 1.463 1.463 0 0 0 .21-.915c0-1.186-.03-2.373-.093-3.558"/>
        <path stroke-width="1.446" stroke-miterlimit="10" stroke="#1d1d1b" fill="none" d="M112.51 43.443a7.278 7.278 0 0 0 .311 1.942 2.37 2.37 0 0 0 1.748 1.659 2.283 2.283 0 0 0 2.228-1.422 3.692 3.692 0 0 0 .237-.689"/>
        <path stroke-width="1.446" stroke-miterlimit="10" stroke="#1d1d1b" fill="none" d="M116.3 32.123c-.275-2.014-.6-4.023-.948-6.024a1.592 1.592 0 0 0-.332-.857c-.384-.4-1.037-.3-1.575-.165l-3.719.92"/>
        <path stroke-width="1.446" stroke-miterlimit="10" stroke="#1d1d1b" fill="none" d="M117.034 44.933a8.3 8.3 0 0 0 .154-2.092 90.983 90.983 0 0 0-.886-10.718"/>
        <path stroke-width="1.446" stroke-miterlimit="10" stroke="#1d1d1b" fill="none" d="M112.51 43.443c-.012-.187-.024-.375-.039-.562a31.042 31.042 0 0 0-1.033-5.225l-1.958-7.593"/>
        <path stroke-width="1.446" stroke-miterlimit="10" stroke="#1d1d1b" fill="none" d="m108.245 25.277 1.235 4.786"/>
        <path stroke-width="1.446" stroke-miterlimit="10" stroke="#1d1d1b" fill="none" d="M129.4 35.2a55.876 55.876 0 0 1 5.109 15.7"/>
        <path stroke-width="1.446" stroke-miterlimit="10" stroke="#1d1d1b" fill="none" d="M139.03 52.273c-.83 1.225-1.924 2.482-3.368 2.389a.81.81 0 0 1-.464-.147 1.008 1.008 0 0 1-.27-.7 55.295 55.295 0 0 0-.419-2.92"/>
        <path stroke-width="1.446" stroke-miterlimit="10" stroke="#1d1d1b" fill="none" d="M129.071 34.537c.113.218.214.443.324.664"/>
        <path stroke-width="1.446" stroke-miterlimit="10" stroke="#1d1d1b" fill="none" d="M131.288 33.647a1.368 1.368 0 0 1 1.741.267 4.062 4.062 0 0 1 .833 1.718c.055.179.117.356.173.535"/>
        <path stroke-width="1.446" stroke-miterlimit="10" stroke="#1d1d1b" fill="none" d="M139.03 52.273a19 19 0 0 0 .184-.278 1.408 1.408 0 0 0 .135-1.74 123.452 123.452 0 0 1-5.314-14.088"/>
        <path stroke-width="1.446" stroke-miterlimit="10" stroke="#1d1d1b" fill="none" d="M142.867 53.261c.182.391.369.779.569 1.163a4.236 4.236 0 0 0 1.814 2.076 1.618 1.618 0 0 0 2.255-.924 2.35 2.35 0 0 0-.019-.69l-.074-.59"/>
        <path stroke-width="1.446" stroke-miterlimit="10" stroke="#1d1d1b" fill="none" d="M145.434 38.587a11.374 11.374 0 0 0-1.079-4.1 4.064 4.064 0 0 0-3.588-2.283c-.724.047-1.45.349-2.155.332"/>
        <path stroke-width="1.446" stroke-miterlimit="10" stroke="#1d1d1b" fill="none" d="m138.557 31.862.055.679"/>
        <path stroke-width="1.446" stroke-miterlimit="10" stroke="#1d1d1b" fill="none" d="M142.867 53.261c-2.331-5-3.268-10.51-3.838-16.059"/>
        <path stroke-width="1.446" stroke-miterlimit="10" stroke="#1d1d1b" fill="none" d="M138.612 32.541a1.891 1.891 0 0 1-.515-.074"/>
        <path stroke-width="1.446" stroke-miterlimit="10" stroke="#1d1d1b" fill="none" d="m147.412 54.294-1.949-15.48-.029-.227"/>
        <path stroke-width="1.446" stroke-miterlimit="10" stroke="#1d1d1b" fill="none" d="M139.029 37.2a219.015 219.015 0 0 1-.417-4.661"/>
        <path stroke-width="1.446" stroke-miterlimit="10" stroke="#1d1d1b" fill="none" d="M151.707 40.083a7.4 7.4 0 0 1 .281-1.617"/>
        <path stroke-width="1.446" stroke-miterlimit="10" stroke="#1d1d1b" fill="none" d="M155.761 41.165a6.358 6.358 0 0 0-.406-2.19 6.553 6.553 0 0 1-2.636 1.367"/>
        <path stroke-width="1.446" stroke-miterlimit="10" stroke="#1d1d1b" fill="none" d="M152.461 40.415c.088-.019.171-.051.258-.073"/>
        <path stroke-width="1.446" stroke-miterlimit="10" stroke="#1d1d1b" fill="none" d="M152.53 55.371a6.022 6.022 0 0 1 .018-.968 40.047 40.047 0 0 0-.335-9.185 23.836 23.836 0 0 1-.506-5.135"/>
        <path stroke-width="1.446" stroke-miterlimit="10" stroke="#1d1d1b" fill="none" d="M157.1 56.321a1.445 1.445 0 0 1-.429.98 2.271 2.271 0 0 1-2.41 0 2.873 2.873 0 0 1-1.577-1.283 1.977 1.977 0 0 1-.149-.643"/>
        <path stroke-width="1.446" stroke-miterlimit="10" stroke="#1d1d1b" fill="none" d="M157.1 56.321a4.819 4.819 0 0 0-.18-1.494 42.426 42.426 0 0 1-1.197-11.627c.024-.674.061-1.359.038-2.034"/>
        <path stroke-width="1.446" stroke-miterlimit="10" stroke="#1d1d1b" fill="none" d="M207.659 68.478a16.765 16.765 0 0 0 3.075 4.591"/>
        <path stroke-width="1.446" stroke-miterlimit="10" stroke="#1d1d1b" fill="none" d="M207.659 68.478a40.248 40.248 0 0 1-2.743-9.667"/>
        <path stroke-width="1.446" stroke-miterlimit="10" stroke="#1d1d1b" fill="none" d="M204.916 58.811q-.1-.53-.193-1.055a7.969 7.969 0 0 1-.021-4.082"/>
        <path stroke-width="1.446" stroke-miterlimit="10" stroke="#1d1d1b" fill="none" d="M84.159 45.122a68.432 68.432 0 0 0-5.837-.733"/>
        <path stroke-width="1.446" stroke-miterlimit="10" stroke="#1d1d1b" fill="none" d="M53.814 44.505a48.1 48.1 0 0 0 6.2.237"/>
        <path stroke-width="1.446" stroke-miterlimit="10" stroke="#1d1d1b" fill="none" d="M89.035 46.072c2.312.5 4.74 1.081 7.263 1.733"/>
        <path stroke-width="1.446" stroke-miterlimit="10" stroke="#1d1d1b" fill="none" d="M70.056 44.228c-1.5.055-2.932.143-4.337.232"/>
        <path stroke-width="1.446" stroke-miterlimit="10" stroke="#1d1d1b" fill="none" d="M44.462 42.492c-.65-.2-1.311-.422-2-.663"/>
        <path stroke-width="1.446" stroke-miterlimit="10" stroke="#1d1d1b" fill="none" d="M127.039 56.75q-1.824-.541-3.663-1.095"/>
        <path stroke-width="1.446" stroke-miterlimit="10" stroke="#1d1d1b" fill="none" d="M183.7 68.112c1.055.073 2.11.133 3.166.186"/>
        <path stroke-width="1.446" stroke-miterlimit="10" stroke="#1d1d1b" fill="none" d="M106.465 50.611q-2.62-.759-5.171-1.466"/>
        <path stroke-width="1.446" stroke-miterlimit="10" stroke="#1d1d1b" fill="none" d="M196.357 68.549q-1.493-.011-2.983-.036"/>
        <path stroke-width="1.446" stroke-miterlimit="10" stroke="#1d1d1b" fill="none" d="M160.7 64.87q2.135.387 4.269.766"/>
        <path stroke-width="1.446" stroke-miterlimit="10" stroke="#1d1d1b" fill="none" d="M180.316 67.837q1.692.157 3.386.275"/>
        <path stroke-width="1.446" stroke-miterlimit="10" stroke="#1d1d1b" fill="none" d="M202.915 68.536c-.47 0-.939.009-1.409.012"/>
        <path stroke-width="1.446" stroke-miterlimit="10" stroke="#1d1d1b" fill="none" d="m117.89 54-3.73-1.121"/>
        <path stroke-width="1.446" stroke-miterlimit="10" stroke="#1d1d1b" fill="none" d="m207.659 68.478 1.852-.027"/>
        <path stroke-width="1.446" stroke-miterlimit="10" stroke="#1d1d1b" fill="none" d="M148.752 62.627a174.415 174.415 0 0 1-3.526-.83"/>
        <path stroke-width="1.446" stroke-miterlimit="10" stroke="#1d1d1b" fill="none" d="m207.659 68.478-.558.008"/>
        <path stroke-width="1.446" stroke-miterlimit="10" stroke="#1d1d1b" fill="none" d="M157.776 64.344q-1.631-.291-3.261-.571c-.164-.027-.336-.061-.5-.09"/>
        <path stroke-width="1.446" stroke-miterlimit="10" stroke="#1d1d1b" fill="none" d="M172.432 66.87q-1.533-.23-3.063-.48"/>
        <path stroke-width="1.446" stroke-miterlimit="10" stroke="#1d1d1b" fill="none" d="m127.039 56.75 1.882.559"/>
        <path stroke-width="1.446" stroke-miterlimit="10" stroke="#1d1d1b" fill="none" d="M137.909 59.884q-2.119-.584-4.295-1.209"/>
        <path stroke-width="1.446" stroke-miterlimit="10" stroke="#1d1d1b" fill="none" d="m177.959 67.6-.074-.008c-.476-.053-.951-.117-1.426-.176"/>
        <path stroke-width="1.446" stroke-miterlimit="10" stroke="#1d1d1b" fill="none" d="M204.652 77.118a9.984 9.984 0 0 1-2.294.448"/>
        <path stroke-width="1.446" stroke-miterlimit="10" stroke="#1d1d1b" fill="none" d="M129.681 68.937q-1.551-.151-3.1-.292"/>
        <path stroke-width="1.446" stroke-miterlimit="10" stroke="#1d1d1b" fill="none" d="M63.636 68.4c1.681.108 3.373.148 5.072.14"/>
        <path stroke-width="1.446" stroke-miterlimit="10" stroke="#1d1d1b" fill="none" d="M184.908 75.933q-1.617-.2-3.233-.409"/>
        <path stroke-width="1.446" stroke-miterlimit="10" stroke="#1d1d1b" fill="none" d="M193.827 76.985q2.131.237 4.265.458l.091.009"/>
        <path stroke-width="1.446" stroke-miterlimit="10" stroke="#1d1d1b" fill="none" d="M75.246 68.309q1.445-.082 2.889-.181"/>
        <path stroke-width="1.446" stroke-miterlimit="10" stroke="#1d1d1b" fill="none" d="M98.669 67.267q1.217 0 2.432.014"/>
        <path stroke-width="1.446" stroke-miterlimit="10" stroke="#1d1d1b" fill="none" d="M85.711 67.624c1.57-.09 3.139-.158 4.707-.213"/>
        <path stroke-width="1.446" stroke-miterlimit="10" stroke="#1d1d1b" fill="none" d="M85.373 67.641c.113-.006.226-.01.338-.017"/>
        <path stroke-width="1.446" stroke-miterlimit="10" stroke="#1d1d1b" fill="none" d="m178.353 75.094-1.266-.165"/>
        <path stroke-width="1.446" stroke-miterlimit="10" stroke="#1d1d1b" fill="none" d="M188.9 76.417c.673.08 1.347.161 2.02.239"/>
        <path stroke-width="1.446" stroke-miterlimit="10" stroke="#1d1d1b" fill="none" d="M146.068 70.784q1.643.206 3.285.417"/>
        <path stroke-width="1.446" stroke-miterlimit="10" stroke="#1d1d1b" fill="none" d="M121.03 68.179q-1.92-.147-3.841-.275"/>
        <path stroke-width="1.446" stroke-miterlimit="10" stroke="#1d1d1b" fill="none" d="M106.91 67.4q2.211.07 4.42.178"/>
        <path stroke-width="1.446" stroke-miterlimit="10" stroke="#1d1d1b" fill="none" d="m162.484 72.953 2.261.309"/>
        <path stroke-width="1.446" stroke-miterlimit="10" stroke="#1d1d1b" fill="none" d="m158.429 72.4-2.635-.355"/>
        <path stroke-width="1.446" stroke-miterlimit="10" stroke="#1d1d1b" fill="none" d="M173.154 74.4q-1.7-.228-3.4-.459"/>
        <path stroke-width="1.446" stroke-miterlimit="10" stroke="#1d1d1b" fill="none" d="M136.853 69.689q1.087.121 2.174.246"/>
        <path stroke-width="1.446" stroke-miterlimit="10" stroke="#1d1d1b" fill="none" d="M42.354 32.9c3.056-.064 6.119-.127 9.183-.158"/>
        <path stroke-width="1.446" stroke-miterlimit="10" stroke="#1d1d1b" fill="none" d="M139.03 52.273h.013c1.267.355 2.544.676 3.824.985"/>
        <path stroke-width="1.446" stroke-miterlimit="10" stroke="#1d1d1b" fill="none" d="M68.241 33.082q2.553.162 5.1.415"/>
        <path stroke-width="1.446" stroke-miterlimit="10" stroke="#1d1d1b" fill="none" d="M112.51 43.443q-2.18-.712-4.362-1.421"/>
        <path stroke-width="1.446" stroke-miterlimit="10" stroke="#1d1d1b" fill="none" d="M100.292 39.49a155.491 155.491 0 0 0-16.2-4.4c-.993-.2-1.988-.382-2.985-.552"/>
        <path stroke-width="1.446" stroke-miterlimit="10" stroke="#1d1d1b" fill="none" d="M117.034 44.933c2.927.972 5.85 1.955 8.762 2.969s5.793 2.044 8.713 2.993"/>
        <path stroke-width="1.446" stroke-miterlimit="10" stroke="#1d1d1b" fill="none" d="m176.076 60.273-4.3-.9"/>
        <path stroke-width="1.446" stroke-miterlimit="10" stroke="#1d1d1b" fill="none" d="m157.1 56.321 12.238 2.548"/>
        <path stroke-width="1.446" stroke-miterlimit="10" stroke="#1d1d1b" fill="none" d="M202.662 58.886q1.128-.032 2.254-.075"/>
        <path stroke-width="1.446" stroke-miterlimit="10" stroke="#1d1d1b" fill="none" d="M196.294 58.93q1.075.017 2.152.016"/>
        <path stroke-width="1.446" stroke-miterlimit="10" stroke="#1d1d1b" fill="none" d="M57.307 32.726q2.163.017 4.322.071"/>
        <path stroke-width="1.446" stroke-miterlimit="10" stroke="#1d1d1b" fill="none" d="m179.061 60.894.267.056c2.482.516 5.473.716 7.718-.233"/>
        <path stroke-width="1.446" stroke-miterlimit="10" stroke="#1d1d1b" fill="none" d="M209.088 58.614q-2.081.116-4.172.2"/>
        <path stroke-width="1.446" stroke-miterlimit="10" stroke="#1d1d1b" fill="none" d="m152.53 55.371-1.379-.287q-1.871-.39-3.739-.79"/>
        <path stroke-width="1.446" stroke-miterlimit="10" stroke="#1d1d1b" fill="none" d="M190.459 58.675c-.306-.022-.613-.038-.919-.064"/>
        <path stroke-width="1.446" stroke-miterlimit="10" stroke="#1d1d1b" fill="none" d="M190.459 58.675c.367.027.733.054 1.1.076"/>
        <path stroke-width="1.446" stroke-miterlimit="10" stroke="#1d1d1b" fill="none" d="M44.845 16.773a53.848 53.848 0 0 1-8.784-1.728"/>
        <path stroke-width="1.446" stroke-miterlimit="10" stroke="#1d1d1b" fill="none" d="M57.992 17.372c-1.387-.02-2.756-.036-4.115-.063"/>
        <path stroke-width="1.446" stroke-miterlimit="10" stroke="#1d1d1b" fill="none" d="M71.118 18.122a62.39 62.39 0 0 0-2.776-.313c-1-.086-1.973-.15-2.937-.205"/>
        <path stroke-width="1.446" stroke-miterlimit="10" stroke="#1d1d1b" fill="none" d="M155.761 41.165q-1.515-.426-3.042-.823"/>
        <path stroke-width="1.446" stroke-miterlimit="10" stroke="#1d1d1b" fill="none" d="M129.4 35.2c-4.472-.945-8.865-1.931-13.093-3.078"/>
        <path stroke-width="1.446" stroke-miterlimit="10" stroke="#1d1d1b" fill="none" d="M151.707 40.083q.506.127 1.012.259"/>
        <path stroke-width="1.446" stroke-miterlimit="10" stroke="#1d1d1b" fill="none" d="M169.2 46.031a24.693 24.693 0 0 1-1.41-.789l-4.219-1.622c-2.56-.9-5.17-1.714-7.81-2.455"/>
        <path stroke-width="1.446" stroke-miterlimit="10" stroke="#1d1d1b" fill="none" d="M134.035 36.167q2.49.514 4.994 1.035"/>
        <path stroke-width="1.446" stroke-miterlimit="10" stroke="#1d1d1b" fill="none" d="M145.434 38.587q3.147.708 6.273 1.5"/>
        <path stroke-width="1.446" stroke-miterlimit="10" stroke="#1d1d1b" fill="none" d="M104.567 28.234q.726.3 1.465.582"/>
        <path stroke-width="1.446" stroke-miterlimit="10" stroke="#1d1d1b" fill="none" d="M201 48.3c2.929-.371 5.859-.729 8.8-.935"/>
        <path stroke-width="1.446" stroke-miterlimit="10" stroke="#1d1d1b" fill="none" d="M178.914 49.094a47.044 47.044 0 0 0 7.266.506"/>
        <path stroke-width="1.446" stroke-miterlimit="10" stroke="#1d1d1b" fill="none" d="M96.018 25.13c-2.326-.794-4.666-1.609-7.18-2.652a64.33 64.33 0 0 0-10.275-3.033"/>
        <path stroke-width="1.446" stroke-miterlimit="10" stroke="#1d1d1b" fill="none" d="M189.784 49.474c1.761-.1 3.518-.263 5.272-.456"/>
        <path stroke-width="1.446" stroke-miterlimit="10" stroke="#1d1d1b" fill="none" d="M109.48 30.063q-1.752-.592-3.448-1.247"/>
        <path stroke-width="1.446" stroke-miterlimit="10" stroke="#1d1d1b" fill="none" d="M175.367 48.371q-1.268-.327-2.5-.757"/>
        <path stroke-width="1.446" stroke-miterlimit="10" stroke="#1d1d1b" fill="none" d="M195.056 49.018q1.23-.135 2.458-.284"/>
        <path fill="#1d1d1b" d="M77.1 35.154a1.157 1.157 0 0 0 0-2.313 1.157 1.157 0 0 0 0 2.313Z"/>
        <path fill="#1d1d1b" d="M74.853 19.043a1.157 1.157 0 0 0 0-2.313 1.157 1.157 0 0 0 0 2.313Z"/>
        <path fill="#1d1d1b" d="M61.907 16.35a1.157 1.157 0 0 0 0-2.313 1.157 1.157 0 0 0 0 2.313Z"/>
        <path fill="#1d1d1b" d="M64.773 34.728a1.157 1.157 0 0 0 0-2.313 1.157 1.157 0 0 0 0 2.313Z"/>
        <path fill="#1d1d1b" d="M48.617 16.639a1.157 1.157 0 0 0 0-2.313 1.157 1.157 0 0 0 0 2.313Z"/>
        <path fill="#1d1d1b" d="M54.731 32.57a1.158 1.158 0 0 0 0-2.314 1.158 1.158 0 0 0 0 2.314Z"/>
        <path fill="#1d1d1b" d="M100.7 27.76a1.157 1.157 0 0 0 0-2.313 1.157 1.157 0 0 0 0 2.313Z"/>
        <path fill="#1d1d1b" d="M104.372 43.123a1.157 1.157 0 0 0 0-2.313 1.157 1.157 0 0 0 0 2.313Z"/>
        <path fill="#1d1d1b" d="M113.076 30.216a1.157 1.157 0 0 0 0-2.313 1.157 1.157 0 0 0 0 2.313Z"/>
        <path fill="#1d1d1b" d="M115.747 45.835a1.158 1.158 0 0 0 0-2.314 1.158 1.158 0 0 0 0 2.314Z"/>
        <path fill="#1d1d1b" d="M132.278 37.738a1.157 1.157 0 0 0 0-2.313 1.157 1.157 0 0 0 0 2.313Z"/>
        <path fill="#1d1d1b" d="M137.2 51.164a1.157 1.157 0 0 0 0-2.313 1.157 1.157 0 0 0 0 2.313Z"/>
        <path fill="#1d1d1b" d="M141.763 38.549a1.158 1.158 0 0 0 0-2.314 1.158 1.158 0 0 0 0 2.314Z"/>
        <path fill="#1d1d1b" d="M144.546 54.436a1.157 1.157 0 0 0 0-2.313 1.157 1.157 0 0 0 0 2.313Z"/>
        <path fill="#1d1d1b" d="M154.2 41.924a1.157 1.157 0 0 0 0-2.313 1.157 1.157 0 0 0 0 2.313Z"/>
        <path fill="#1d1d1b" d="M153.985 55.9a1.157 1.157 0 0 0 0-2.313 1.157 1.157 0 0 0 0 2.313Z"/>
        <path fill="#1d1d1b" d="M170.594 47.61a1.157 1.157 0 0 0 0-2.313 1.157 1.157 0 0 0 0 2.313Z"/>
        <path fill="#1d1d1b" d="M170.656 57.681a1.157 1.157 0 0 0 0-2.313 1.157 1.157 0 0 0 0 2.313Z"/>
        <path fill="#1d1d1b" d="M177.05 48.727a1.157 1.157 0 0 0 0-2.313 1.157 1.157 0 0 0 0 2.313Z"/>
        <path fill="#1d1d1b" d="M177.275 61.1a1.157 1.157 0 0 0 0-2.313 1.157 1.157 0 0 0 0 2.313Z"/>
        <path fill="#1d1d1b" d="M188.1 51.623a1.157 1.157 0 0 0 0-2.313 1.157 1.157 0 0 0 0 2.313Z"/>
        <path fill="#1d1d1b" d="M187.746 59.931a1.157 1.157 0 0 0 0-2.313 1.157 1.157 0 0 0 0 2.313Z"/>
        <path fill="#1d1d1b" d="M194.413 50.324a1.157 1.157 0 0 0 0-2.313 1.157 1.157 0 0 0 0 2.313Z"/>
        <path fill="#1d1d1b" d="M193.488 59.014a1.157 1.157 0 0 0 0-2.313 1.157 1.157 0 0 0 0 2.313Z"/>
        <path fill="#1d1d1b" d="M199.585 49.789a1.157 1.157 0 0 0 0-2.313 1.157 1.157 0 0 0 0 2.313Z"/>
        <path fill="#1d1d1b" d="M200.037 58.638a1.157 1.157 0 0 0 0-2.313 1.157 1.157 0 0 0 0 2.313Z"/>
        <path fill="#1d1d1b" d="M204.583 71.042a1.157 1.157 0 0 0 0-2.313 1.157 1.157 0 0 0 0 2.313Z"/>
        <path fill="#1d1d1b" d="M198.807 69.058a1.157 1.157 0 0 0 0-2.313 1.157 1.157 0 0 0 0 2.313Z"/>
        <path fill="#1d1d1b" d="M199.585 80.1a1.157 1.157 0 0 0 0-2.313 1.157 1.157 0 0 0 0 2.313Z"/>
        <path fill="#1d1d1b" d="M192.172 70.635a1.157 1.157 0 0 0 0-2.313 1.157 1.157 0 0 0 0 2.313Z"/>
        <path fill="#1d1d1b" d="M192.358 78.137a1.157 1.157 0 0 0 0-2.313 1.157 1.157 0 0 0 0 2.313Z"/>
        <path fill="#1d1d1b" d="M185.151 69.166a1.157 1.157 0 0 0 0-2.313 1.157 1.157 0 0 0 0 2.313Z"/>
        <path fill="#1d1d1b" d="M185.793 77.062a1.157 1.157 0 0 0 0-2.313 1.157 1.157 0 0 0 0 2.313Z"/>
        <path fill="#1d1d1b" d="M178.877 67.387a1.157 1.157 0 0 0 0-2.313 1.157 1.157 0 0 0 0 2.313Z"/>
        <path fill="#1d1d1b" d="M180.558 74.271a1.157 1.157 0 0 0 0-2.313 1.157 1.157 0 0 0 0 2.313Z"/>
        <path fill="#1d1d1b" d="M175.024 67.232a1.157 1.157 0 0 0 0-2.313 1.157 1.157 0 0 0 0 2.313Z"/>
        <path fill="#1d1d1b" d="M173.644 75.527a1.157 1.157 0 0 0 0-2.313 1.157 1.157 0 0 0 0 2.313Z"/>
        <path fill="#1d1d1b" d="M166.715 66.878a1.158 1.158 0 0 0 0-2.314 1.158 1.158 0 0 0 0 2.314Z"/>
        <path fill="#1d1d1b" d="M166.975 74.2a1.157 1.157 0 0 0 0-2.313 1.157 1.157 0 0 0 0 2.313Z"/>
        <path fill="#1d1d1b" d="M160.282 66.477a1.157 1.157 0 0 0 0-2.313 1.157 1.157 0 0 0 0 2.313Z"/>
        <path fill="#1d1d1b" d="M160.748 74.3a1.157 1.157 0 0 0 0-2.313 1.157 1.157 0 0 0 0 2.313Z"/>
        <path fill="#1d1d1b" d="M151.254 64.38a1.157 1.157 0 0 0 0-2.313 1.157 1.157 0 0 0 0 2.313Z"/>
        <path fill="#1d1d1b" d="M152.423 72.5a1.158 1.158 0 0 0 0-2.314 1.158 1.158 0 0 0 0 2.314Z"/>
        <path fill="#1d1d1b" d="M142.328 62.532a1.157 1.157 0 0 0 0-2.313 1.157 1.157 0 0 0 0 2.313Z"/>
        <path fill="#1d1d1b" d="M141.317 72.424a1.157 1.157 0 0 0 0-2.313 1.157 1.157 0 0 0 0 2.313Z"/>
        <path fill="#1d1d1b" d="M131.951 60.7a1.157 1.157 0 0 0 0-2.313 1.157 1.157 0 0 0 0 2.313Z"/>
        <path fill="#1d1d1b" d="M133.944 70.808a1.157 1.157 0 0 0 0-2.313 1.157 1.157 0 0 0 0 2.313Z"/>
        <path fill="#1d1d1b" d="M120.838 55.677a1.157 1.157 0 0 0 0-2.313 1.157 1.157 0 0 0 0 2.313Z"/>
        <path fill="#1d1d1b" d="M123.671 69.226a1.157 1.157 0 0 0 0-2.313 1.157 1.157 0 0 0 0 2.313Z"/>
        <path fill="#1d1d1b" d="M109.977 53.026a1.157 1.157 0 0 0 0-2.313 1.157 1.157 0 0 0 0 2.313Z"/>
        <path fill="#1d1d1b" d="M113.878 65.988a1.157 1.157 0 0 0 0-2.313 1.157 1.157 0 0 0 0 2.313Z"/>
        <path fill="#1d1d1b" d="M100.626 51.208a1.157 1.157 0 0 0 0-2.313 1.157 1.157 0 0 0 0 2.313Z"/>
        <path fill="#1d1d1b" d="M104.239 67.35a1.157 1.157 0 0 0 0-2.313 1.157 1.157 0 0 0 0 2.313Z"/>
        <path fill="#1d1d1b" d="M86.319 46.922a1.158 1.158 0 0 0 0-2.314 1.158 1.158 0 0 0 0 2.314Z"/>
        <path fill="#1d1d1b" d="M94.248 68.566a1.157 1.157 0 0 0 0-2.313 1.157 1.157 0 0 0 0 2.313Z"/>
        <path fill="#1d1d1b" d="M74.432 44.258a1.158 1.158 0 0 0 0-2.314 1.158 1.158 0 0 0 0 2.314Z"/>
        <path fill="#1d1d1b" d="M81.309 67.94a1.157 1.157 0 0 0 0-2.313 1.157 1.157 0 0 0 0 2.313Z"/>
        <path fill="#1d1d1b" d="M61.918 43.6a1.157 1.157 0 0 0 0-2.313 1.157 1.157 0 0 0 0 2.313Z"/>
        <path fill="#1d1d1b" d="M70.907 68.16a1.157 1.157 0 0 0 0-2.313 1.157 1.157 0 0 0 0 2.313Z"/>
        <path fill="#1d1d1b" d="M49.039 43.826a1.157 1.157 0 0 0 0-2.313 1.157 1.157 0 0 0 0 2.313Z"/>
        <path fill="#1d1d1b" d="M57.554 66.648a1.157 1.157 0 0 0 0-2.313 1.157 1.157 0 0 0 0 2.313Z"/>
    </g>
</svg>
