<?xml version="1.0" encoding="UTF-8"?>
<svg data-bbox="0.519 0.22 63.667 36.115" viewBox="0 0 65 37" height="37" width="65" xmlns="http://www.w3.org/2000/svg" data-type="color">
    <g>
        <path fill="#ff0000" d="M54.83 22.445a3.755 3.755 0 0 0-3.162.626 1.994 1.994 0 0 0 .179 3.118 2.555 2.555 0 0 0 3.071.3 2.676 2.676 0 0 0 .852-3.2 1.278 1.278 0 1 0-2.464.679c.028.1.115.431.115.427.051.347-.047.049.05 0a.175.175 0 0 1 .108-.076h-.053c0-.029.254.1.053-.009.061.033-.147-.1-.1-.135a.834.834 0 0 1-.29.924 2.216 2.216 0 0 1 .272-.155 1.212 1.212 0 0 1 .694-.043 1.308 1.308 0 0 0 1.572-.893 1.292 1.292 0 0 0-.893-1.572Z" data-color="1"/>
        <path fill="#4d4d4d" d="M51.652 17.679a6.128 6.128 0 0 1 7.418 4.759c.826 3.392-.243 5.685-3.513 7-3.091 1.239-10.432 1.945-7.918-3.934 1.121-2.623 2.43-5.185 3.64-7.767a1.3 1.3 0 0 0-1.443-1.878c-6.377 1.445-7.083 13.317-2 16.57 2.418 1.546 7.6 2.732 9.95.61 1.268-1.144 2.354-2.759 3.535-4.029a8.972 8.972 0 0 0 2.03-5.157c.649-6.288-7.051-11.68-12.019-6.838-2.271 2.214-4.8 5.639-3.754 9.006 1.147 3.682 5.2 4.521 8.54 4.8l-.34-2.51a15.5 15.5 0 0 1-4.36.6q-2.542.547-2.1-2.012a1.732 1.732 0 0 1 .436-2.63c.83-1.447 4.342-5.091 5.018-2.116l1.878-1.444c-3.336-2.022-5.221-3.208-6.88 1.064-.926 2.384-1.3 6.294 1.568 7.552 2.258.989 7.325-.67 8.385-2.954 1.526-3.285-3.056-7.047-5.316-8.586a1.288 1.288 0 0 0-1.923 1.1 2.857 2.857 0 0 1-.816 2.29c-.992 1.324 1.22 2.57 2.207 1.29q2.028-2.628 3.838-5.4l-2.336-.985a8.459 8.459 0 0 0 .223 4.136c.214.717 2.539 5.213 1.811 5.8l1.549-.2.123-1.84-2.139-1.236c-.62 2.41-3.413 5.773-.511 7.919 2.853 2.111 3.83-1.715 6.079-2.243l-1.443-1.878a20.574 20.574 0 0 1-3.913 4.605c-1.235 1.092.579 2.894 1.807 1.807a22.82 22.82 0 0 0 4.313-5.121 1.293 1.293 0 0 0-1.443-1.878c-1.273.3-1.632 1.169-2.648 1.781-2.035 1.226-.038-3.294.224-4.313.3-1.174-1.262-2.239-2.136-1.243-1.561 1.779-1.849 4.493.394 5.854a1.32 1.32 0 0 0 1.549-.2c2.916-2.343-1.906-8.116-1.377-11.062a1.285 1.285 0 0 0-2.336-.985 83.436 83.436 0 0 1-3.838 5.4l2.207 1.29a5.552 5.552 0 0 0 1.165-3.58L53.114 20c1.959 1.334 6.637 5.817 1.339 6.685-2.6.427-3.529-1.84-2.349-3.743 1.061-1.713 1.652-.988 3.253-.018a1.292 1.292 0 0 0 1.877-1.443c-1.652-7.265-8.688-.375-10.889 2.905a4.1 4.1 0 0 0 .647 5.741c2.559 2.09 6.537 1.405 9.466.654a1.284 1.284 0 0 0-.34-2.51c-3.084-.261-6.765-1.177-5.985-5.2a10.549 10.549 0 0 1 4.057-5.138c2-.995 4.46.478 5.642 2.043 1.645 2.177 1.062 5.386-.539 7.408a28.668 28.668 0 0 1-2.3 2.47c-1.813 1.765-3.856 1.994-6.361 1.07-3.367-1.242-3.991-4.555-3.285-7.672.417-1.841 1.046-4.444 3.168-4.924l-1.444-1.878c-1.346 2.874-2.957 5.732-4.06 8.708a5.323 5.323 0 0 0 .38 5.2c3.009 4.347 8.87 2.632 12.781.731 4.271-2.076 4.565-6.588 2.9-10.772a8.707 8.707 0 0 0-10.1-5.1c-1.61.332-.929 2.8.679 2.464Z" data-color="2"/>
        <path fill="#f2f2f2" d="M1.288 13.78c.539 2.827 2.267 5.279 5.414 5.269 3.126-.01 5.147-2.356 6.781-4.718 1.187-1.717-.811-4.453-2.824-3.672L4.677 12.98l2.433 4.179a41.719 41.719 0 0 0 6.113-6.684C14.467 8.8 12.37 5.991 10.4 6.8a18.678 18.678 0 0 0-6.432 4.252c-2.248 2.314 1.205 5.76 3.532 3.537l6.79-6.478a4.986 4.986 0 0 0 .871-.83l.119-.11q.9-.749-1.777-.307c-.282.135.077-.471-.258.125a4.852 4.852 0 0 0-.308 1.056 21.165 21.165 0 0 0-.6 4.709c-.149 5.694.766 11.4-.408 17.044a5.744 5.744 0 0 0 .151 3.629 3.6 3.6 0 0 0 1.342 1.578 3.66 3.66 0 0 0 2.869.262 34.31 34.31 0 0 1 8.832-.105c2.628.247 5.4.465 7.924-.5A5.864 5.864 0 0 0 36.3 32.3c.8-1.483.247-3.293.034-4.858L33.422 6.049c-.378-2.784-5.07-2.13-4.91.665.243 4.262 4.77 6.2 8.586 6.059a4.463 4.463 0 0 0 4.359-3.845c.284-1.745.408-4.6-1.113-5.777-1.029-.794-1.91-.542-3.062-.443a5.909 5.909 0 0 1-2.469-.631 16.279 16.279 0 0 0-5.862-1c-3.823.037-7.724 1.29-11.543.669a2.539 2.539 0 0 0-3.164 2.411l.118 14.482c.017 2.131-.2 4.479.548 6.513.633 1.717 2.227 2.978 2.743 4.694l.643-2.433-.19.148 1.1-.643-.235.057H20.3l.157.084-1.257 4.658a82.335 82.335 0 0 1 10.193.672c1.769.227 2.646-1.771 2.41-3.165-.666-3.944-.149-8 .107-11.963a47.77 47.77 0 0 0 .09-5.97c-.11-1.825-.045-4.883-1.855-5.941-1.93-1.129-3.836.712-5.758 1-1.953.292-4.016-.745-5.529.987-1.306 1.495-.5 3.707-.532 5.506-.037 2.051-.369 4.08-.57 6.117a16.655 16.655 0 0 0 .283 6.614c.891 2.729 3.951 2.733 6.324 3.176a2.547 2.547 0 0 0 3.165-2.411q.566-7.293.8-14.6c.079-2.444-3.5-3.451-4.658-1.262a37.561 37.561 0 0 0-3.28 10.706h4.821l-.317-.944c-1.02-3.035-5.851-1.733-4.821 1.329l.317.944c.723 2.152 4.327 2.595 4.821 0 .619-3.245 1.225-6.567 2.78-9.516l-4.659-1.262q-.236 7.311-.8 14.6l3.168-2.407-2.2-.409c-.326-.061-.651-.12-.976-.183q-.2-.035-.4-.078-.395-.087.163.057l.643 1.1c-.867-2.23-.212-5.2.058-7.5.15-1.279.3-2.561.336-3.85.017-.6.012-1.2-.03-1.8-.029-.412-.08-.82-.135-1.23a17.685 17.685 0 0 0-.078-.556q-.089-.761-.1.633l-.9.9.265-.114-1.262.341a30.436 30.436 0 0 0 4.422-.034 17.8 17.8 0 0 0 4.311-1.584l-1.926.252.33.047-1.494-1.149c-.331-.452.061.451.1.687.057.382.1.765.13 1.15.078.912.107 1.827.107 2.742 0 1.923-.142 3.842-.281 5.758a47.536 47.536 0 0 0 .2 11.446l2.411-3.164a82.335 82.335 0 0 0-10.194-.672 2.521 2.521 0 0 0-1.262 4.659 3.2 3.2 0 0 0 3.894-.428 2.439 2.439 0 0 0 .643-2.432c-.549-1.829-1.848-2.989-2.681-4.636-.824-1.628-.421-3.968-.435-5.741l-.115-13.983-3.165 2.411c3.937.639 7.675-.19 11.6-.442a12.912 12.912 0 0 1 5.181.542 21.556 21.556 0 0 0 2.736.91 7.386 7.386 0 0 0 1.511.167 9.913 9.913 0 0 0 1.086-.123q.854-.136-.025-.1l-1.497-1.145.146.266-.341-1.261a15.105 15.105 0 0 1 .094 2.349c-.016.329-.266 1.058.275.111l.253-.068a4.653 4.653 0 0 1-.737-.023c-.424-.045-2.808-.313-2.849-1.036l-4.912.664L31.608 29.5c.027.2-.019.783.113.886q.939-1.161.3-.733a5.116 5.116 0 0 1-.534.28 6.366 6.366 0 0 1-1.615.387 22.257 22.257 0 0 1-4.748-.159 39.544 39.544 0 0 0-10.867.407l1.926.252c1.05.589.289 1.09.514.587.063-.143.14-.626.2-.866a21.082 21.082 0 0 0 .414-2.775c.178-1.968.251-3.95.262-5.925.022-3.795-.72-7.829 0-11.582.374-1.956 1.342-3.83.322-5.776a3.69 3.69 0 0 0-4.979-1.7c-1.672.879-3.056 2.662-4.411 3.954l-4.537 4.317L7.5 14.589a12.716 12.716 0 0 1 4.226-2.966l-2.82-3.672a36.022 36.022 0 0 1-5.332 5.672c-1.827 1.588.108 5.077 2.433 4.177l5.982-2.322-2.824-3.67a5.678 5.678 0 0 1-2.458 2.261c-.287.129-.263-.317-.1.071a8.079 8.079 0 0 1-.5-1.689 2.524 2.524 0 0 0-3.076-1.746 2.553 2.553 0 0 0-1.743 3.075Z" data-color="3"/>
        <path fill="#ff0000" d="M22.146 13.854a2.894 2.894 0 0 1 .686 1.16c.177.462.317.937.455 1.412a.5.5 0 0 0 .964 0q.444-1.33.771-2.695a6.254 6.254 0 0 0 .292-2.688 1.735 1.735 0 0 0-1.632-1.471 1.145 1.145 0 0 0-.947.593 1.586 1.586 0 0 0-.173.549 2.66 2.66 0 0 0-.023.281v.117c0 .039 0 .026.019-.042l.22-.129-.063.015h.266c.089.018-.044-.064-.078-.095a1.344 1.344 0 0 0-.738-.35 1.628 1.628 0 0 0-1.1.209 2.05 2.05 0 0 0-.9 2.031 1.479 1.479 0 0 0 .716.87c.272.2.539.4.8.611a5.224 5.224 0 0 1 1.391 1.52c.256.494 1.122.149.914-.385A11.929 11.929 0 0 0 23.1 13.6a12.032 12.032 0 0 0-.551-.847 9.54 9.54 0 0 0-.275-.361c-.045-.058-.1-.113-.141-.172l-.037-.05c-.052-.119-.066-.111-.043.021l-.18.18q-.161-.085-.123 0a1.017 1.017 0 0 1 .071.149c.046.1.086.208.132.31a5.4 5.4 0 0 0 .342.641 6.193 6.193 0 0 0 .925 1.147c.337.331 1.012 0 .835-.486l-.371-1.032-.167-.46a1.786 1.786 0 0 1-.178-.54l-.069.253c-.026.053-.049.019.023.009a.6.6 0 0 0 .191-.084 1.182 1.182 0 0 0 .355-.316 2.227 2.227 0 0 0 .349-.805l-.482.367h.064l-.252-.068c-.056-.027-.046-.1-.012.079.012.063.025.125.033.188a3.261 3.261 0 0 1 .016.593 3.033 3.033 0 0 1-.25 1.052l.932.253q-.016-.752-.085-1.5c-.059-.635-1.059-.641-1 0q.069.748.085 1.5c.009.456.721.732.931.252a4.232 4.232 0 0 0 .388-1.935c-.028-.559-.124-1.4-.85-1.415a.509.509 0 0 0-.482.368c-.056.215-.094.447-.3.548-.315.151-.579.321-.581.714a3.517 3.517 0 0 0 .34 1.1l.416 1.151.836-.487A6.092 6.092 0 0 1 22.681 12a.978.978 0 0 0-.919-.628.751.751 0 0 0-.7.8 1.725 1.725 0 0 0 .511.931 8.6 8.6 0 0 1 .52.762 10.722 10.722 0 0 1 .928 1.773l.914-.385a6.606 6.606 0 0 0-1.908-2.011q-.269-.21-.544-.41c-.138-.1-.317-.175-.344-.349a1 1 0 0 1 .535-.95.588.588 0 0 1 .481.013c.2.112.288.309.528.372a.657.657 0 0 0 .711-.275 1.268 1.268 0 0 0 .148-.685c.006-.121.019-.334.157-.378.169-.053.365.135.454.252a1.819 1.819 0 0 1 .174 1.395 27.249 27.249 0 0 1-1.037 3.939h.964a15.984 15.984 0 0 0-.518-1.573 3.763 3.763 0 0 0-.879-1.442c-.48-.426-1.19.279-.708.708Z" data-color="1"/>
        <path d="M12.2 14.978c.934 6.985-1.132 13.909-.125 20.895a.633.633 0 0 0 .925.377c7.275-4.7 15.694-3.969 23.905-3.017a.635.635 0 0 0 .608-.8A107.448 107.448 0 0 1 34.9 20.962c-.1-.6-1.713-7.246-.994-7.918 1.137-1.063 1.66.167 3.172.471 4.43.891 4.734-4.775 6.016-8.163a.637.637 0 0 0-.44-.775C39.215 3.594 36.113.989 32.706.311c-1.87-.372-3.73.489-5.511.871a38.6 38.6 0 0 1-9.195.89c-2.263-.063-4.864-1.125-6.8.344-.189.144-.2.78-.238.828-1.033 1.324-1.711 3.072-3.109 4.241-2.03 1.7-4.773 2.952-7.025 4.336a.644.644 0 0 0-.289.711 14.372 14.372 0 0 0 6.591 8.625.646.646 0 0 0 .862-.226 23.088 23.088 0 0 1 5.157-5.361c.634-.487.007-1.582-.636-1.088-1.334 1.026-3.42 4.19-4.7 4.542-2.013.55-3.791-1.976-4.6-3.288-1.267-2.068-1.134-2.769.693-4.329C5.762 9.822 8.29 9.071 10.108 7.4c1.392-1.28 1.783-3.834 3.625-4.425 1.258-.4 3.8.375 5.126.381a37.511 37.511 0 0 0 4.278-.234c3.75-.408 7.416-1.821 11.21-.669C36.138 3 40.864 4.985 41.24 6.7c.359 1.636-2.681 5.444-3.828 5.6-.992.135-3.234-1.315-4.1-1.67a.633.633 0 0 0-.8.608 106.811 106.811 0 0 0 2.412 16.276c.766 3.288 1.341 4.322-2.463 3.977a48.056 48.056 0 0 0-8.8-.138A27.272 27.272 0 0 0 18.1 32.4a19.383 19.383 0 0 0-2.341.881c-1.864.815-2.338 1.49-2.8-.94-1.046-5.541 1.257-11.654.494-17.361-.106-.792-1.367-.8-1.26 0Z" fill="#000000" data-color="4"/>
        <path d="M53.208 14.636c-5.572-1.119-8.572 4.011-9.178 8.853-.306 2.447-.685 5.8 1.249 7.737 2.027 2.029 6.351 2.471 9.067 2.587 6.605.284 10.187-4.975 9.813-11.181-.4-6.67-5.628-9.453-12.02-8.759-.8.087-.807 1.348 0 1.26 5.073-.551 10.151 1.154 10.719 6.867.534 5.37-1.929 10.5-7.9 10.586a17.174 17.174 0 0 1-5.983-1.005c-3.087-1.173-3.922-2.764-3.874-5.836.068-4.383 1.961-11.058 7.768-9.892.792.159 1.131-1.055.335-1.215Z" fill="#000000" data-color="4"/>
        <path fill="#3c3c3b" d="M55 21.37c-1.593-.087-3.745.774-4.189 2.443a3.314 3.314 0 0 0 2.657 3.794A1.96 1.96 0 0 0 55.191 27a4.768 4.768 0 0 0 1.428-1.914c.2-.886-.167-4.264-1.786-3.691-.76.268-.433 1.486.334 1.214-.232.083-.095.132-.01.418a4.629 4.629 0 0 1 .138.717 1.73 1.73 0 0 1-.157 1.407c-.405.549-.95 1.43-1.727 1.158-1.1-.385-1.968-1.934-.966-2.862A3.947 3.947 0 0 1 55 22.63c.81.044.808-1.216 0-1.26Z" data-color="5"/>
    </g>
</svg>
