<?xml version="1.0" encoding="UTF-8"?>
<svg data-bbox="1.383 0.843 151.615 94.248" viewBox="0 0 154 96" height="96" width="154" xmlns="http://www.w3.org/2000/svg" data-type="ugc">
    <g>
        <path fill="#ed1c24" d="M19.2 39.744a26.086 26.086 0 0 0-13.477-3.595 2.5 2.5 0 0 0 0 5 26.6 26.6 0 0 1 3.192.172c-.607-.066.1.019.181.031.28.046.56.1.839.152q.733.146 1.455.338a24.474 24.474 0 0 1 2.829.951c-.546-.219.287.131.381.174a24.773 24.773 0 0 1 2.077 1.095 2.5 2.5 0 0 0 2.523-4.318Z"/>
        <path fill="#fbb03b" d="M55.191 20.839a28.107 28.107 0 0 0-9.929-19.292 2.571 2.571 0 0 0-3.536 0 2.519 2.519 0 0 0 0 3.535 25.256 25.256 0 0 1 3.406 3.382 17.4 17.4 0 0 1 1.245 1.7q.682 1.032 1.264 2.125a19.863 19.863 0 0 1 1.677 4.1q.334 1.119.564 2.265c.081.4.153.81.213 1.217-.048-.323.021.188.032.289.025.228.045.456.064.684a2.566 2.566 0 0 0 2.5 2.5 2.519 2.519 0 0 0 2.5-2.5Z"/>
        <path fill="#8cc63f" d="M126.388 33.336a26.294 26.294 0 0 1 2.544-2.68c.444-.4.908-.782 1.37-1.166.231-.192-.333.244.048-.036.108-.08.214-.16.322-.238q.405-.294.82-.572a26.112 26.112 0 0 1 3.118-1.793c.3-.146.6-.283.907-.42.253-.114.146-.059-.046.017.155-.061.309-.125.464-.186.59-.23 1.189-.435 1.794-.623a2.5 2.5 0 0 0-1.329-4.821 28.612 28.612 0 0 0-13.548 8.982 2.557 2.557 0 0 0 0 3.535 2.529 2.529 0 0 0 3.536 0Z"/>
        <path fill="#22b573" d="M131.8 62.466a27.9 27.9 0 0 1 5.019 3.084l-.506-.391a28.246 28.246 0 0 1 2.96 2.657 2.5 2.5 0 0 0 3.535-3.535 29.646 29.646 0 0 0-8.484-6.133 2.684 2.684 0 0 0-1.924-.248 2.5 2.5 0 0 0-.6 4.57Z"/>
        <path fill="#0071bc" d="M110.028 78.9a21.328 21.328 0 0 0 5.954 13.256 2.5 2.5 0 0 0 3.536-3.535 18.304 18.304 0 0 1-1-1.106c-.08-.1-.158-.193-.236-.29-.384-.471.194.28-.008-.011-.141-.2-.292-.4-.432-.609a18.623 18.623 0 0 1-1.514-2.678 1.983 1.983 0 0 1-.153-.341c-.021.026.186.464.036.081-.09-.232-.181-.464-.264-.7q-.251-.7-.443-1.426-.2-.766-.342-1.548c-.021-.123-.038-.246-.061-.368-.066-.354.051.468.013.109-.03-.278-.06-.556-.083-.835a2.5 2.5 0 0 0-5 0Z"/>
        <path fill="#93278f" d="m70.8 80.953-.814 9.39a2.51 2.51 0 0 0 2.5 2.5 2.564 2.564 0 0 0 2.5-2.5l.814-9.39a2.511 2.511 0 0 0-2.5-2.5 2.564 2.564 0 0 0-2.5 2.5Z"/>
        <path fill="#ed1e79" d="M34.75 72.988a57.511 57.511 0 0 0-10.85 6.765 2.5 2.5 0 0 0-.732 1.768 2.544 2.544 0 0 0 .732 1.768 2.515 2.515 0 0 0 1.768.732 2.92 2.92 0 0 0 1.767-.732q.327-.253-.062.046l.3-.227c.2-.15.4-.3.6-.448q.6-.444 1.219-.87 1.233-.854 2.51-1.638a54.615 54.615 0 0 1 5.272-2.846 2.513 2.513 0 0 0 .9-3.421 2.568 2.568 0 0 0-3.421-.9Z"/>
        <path fill="#fcee21" d="M89.552 18.29c.072.518-.039-.438-.046-.53q-.039-.479-.053-.96a19.263 19.263 0 0 1 .127-2.879c-.051.446.028-.172.048-.287q.159-.95.411-1.88t.589-1.83c.007-.018.294-.729.109-.295.126-.295.262-.585.4-.872A19.629 19.629 0 0 1 93.175 5.5a2.506 2.506 0 0 0-.9-3.42 2.578 2.578 0 0 0-3.421.9 22.248 22.248 0 0 0-4.123 16.64 2.506 2.506 0 0 0 3.075 1.746 2.581 2.581 0 0 0 1.746-3.076Z"/>
        <path fill="#1d1d1b" d="M29.633 21.833a36.048 36.048 0 0 1-14.2-2.535 2.511 2.511 0 0 0-3.076 1.747 2.571 2.571 0 0 0 1.746 3.075 41.084 41.084 0 0 0 15.527 2.713 2.5 2.5 0 1 0 0-5Z"/>
        <path fill="#1d1d1b" d="M71.636 26.573a34.355 34.355 0 0 0-2.53-19.32 2.517 2.517 0 0 0-3.42-.9 2.563 2.563 0 0 0-.9 3.421 28.459 28.459 0 0 1 2.025 15.467 2.58 2.58 0 0 0 1.746 3.075 2.52 2.52 0 0 0 3.076-1.746Z"/>
        <path fill="#1d1d1b" d="M105.321 23.631c-.048.447.06-.233.086-.326s.266-.7.088-.314c.1-.221.236-.421.354-.632.246-.443-.128.074.2-.269a6.262 6.262 0 0 1 2.126-1.594 10.745 10.745 0 0 1 2.678-.932 23.1 23.1 0 0 0 3.068-.609 14.782 14.782 0 0 0 5.575-3.983c.761-.79 1.492-1.608 2.249-2.4.363-.381.732-.758 1.115-1.119.184-.173.375-.338.562-.508a8.08 8.08 0 0 1 .282-.239c-.192.141-.171.125.062-.045a2.576 2.576 0 0 0 .9-3.421 2.52 2.52 0 0 0-3.421-.9 41.359 41.359 0 0 0-5.187 5c-.437.456-.883.905-1.351 1.331a9.751 9.751 0 0 1-.9.749 9.283 9.283 0 0 1-.836.524c-.087.048-.708.326-.266.152a5.4 5.4 0 0 1-.668.212 5.26 5.26 0 0 1-.456.094c.286-.043.233-.037-.157.017-5.175.668-10.49 3.562-11.1 9.215a2.516 2.516 0 0 0 2.5 2.5 2.557 2.557 0 0 0 2.5-2.5Z"/>
        <path fill="#1d1d1b" d="M138.281 43.473c2.965-2.035 4.938-4.929 7.024-7.793.217-.3.438-.594.66-.89q.246-.321-.082.105l.209-.263c.1-.13.21-.26.317-.388a16.636 16.636 0 0 1 1.575-1.665c.119-.108.241-.215.364-.318.083-.069.166-.137.25-.2q-.444.339-.122.1c.313-.211.619-.422.949-.606.142-.079.287-.154.433-.225q.147-.072.3-.138-.518.215-.137.064c.381-.124.756-.25 1.147-.342a2.524 2.524 0 0 0 1.746-3.076 2.554 2.554 0 0 0-3.076-1.746c-3.647.864-6.172 3.493-8.341 6.381-.481.64-.945 1.294-1.413 1.944q-.354.493-.713.982l-.365.487c-.3.4.319-.39-.088.112-.511.629-1.03 1.247-1.6 1.822-.285.287-.58.564-.886.828a4.819 4.819 0 0 1-.47.386c.589-.384-.086.046-.2.124a2.5 2.5 0 0 0 2.523 4.318Z"/>
        <path fill="#1d1d1b" d="M127.147 76.477c-.222-.169-.292-.23-.031-.022q.168.133.335.27.3.245.591.5.615.535 1.2 1.11a31.51 31.51 0 0 1 2.237 2.5c.215.263-.277-.371-.075-.1l.257.344q.255.347.5.7.463.674.884 1.375a27.027 27.027 0 0 1 1.541 2.976 2.509 2.509 0 0 0 3.421.9 2.576 2.576 0 0 0 .9-3.42 29.58 29.58 0 0 0-9.23-11.446 2.5 2.5 0 0 0-1.926-.252 2.548 2.548 0 0 0-1.494 1.149 2.517 2.517 0 0 0-.257 1.921 2.942 2.942 0 0 0 1.149 1.5Z"/>
        <path fill="#1d1d1b" d="M90.838 78.051v13.238a2.5 2.5 0 1 0 5 0V78.051a2.5 2.5 0 0 0-5 0Z"/>
        <path fill="#1d1d1b" d="M53.315 79.617c.213-.278-.012.017-.109.139q-.181.228-.366.455-.332.407-.673.8-.723.84-1.489 1.641a41.792 41.792 0 0 1-3.318 3.1q-.4.338-.813.664c-.042.034-.523.406-.3.235s-.319.237-.3.227q-.89.66-1.813 1.272a42.026 42.026 0 0 1-3.922 2.3 2.517 2.517 0 0 0-.9 3.42 2.557 2.557 0 0 0 3.42.9 44.579 44.579 0 0 0 14.9-12.632 2.507 2.507 0 0 0-.9-3.421 2.579 2.579 0 0 0-3.421.9Z"/>
        <path fill="#1d1d1b" d="M21.151 57.627a22.343 22.343 0 0 0-19.042 4.46 2.517 2.517 0 0 0 0 3.536 2.559 2.559 0 0 0 3.535 0 17.283 17.283 0 0 1 14.177-3.175 2.5 2.5 0 1 0 1.33-4.821Z"/>
    </g>
</svg>
