<?xml version="1.0" encoding="UTF-8"?>
<svg data-bbox="0.279 0.226 74.733 47.172" viewBox="0 0 75.288 47.555" height="47.555" width="75.288" xmlns="http://www.w3.org/2000/svg" data-type="color">
    <g>
        <path fill="#f2f2f2" d="M4.484 11.348q13.981-.318 27.959.32l-1.262-4.659a14.078 14.078 0 0 0-5.151 7.878 68 68 0 0 0-1.741 10.2q-.264 2.505-.357 5.024a3.617 3.617 0 0 0-.035 1.2q-.129.8.4-.187.817-.741.13-.436a3.761 3.761 0 0 0-1.894.947 3.424 3.424 0 0 0-.738 4.208 6.714 6.714 0 0 0 .963 1.259c.026.029.51.576.527.571-.089.028-.248-.494-.247-.514l1.836-2.411q-4.9.759-9.828 1.283-2.446.26-4.9.462-1.227.1-2.454.188a6.411 6.411 0 0 1-2.146.057l1.1.643c.07.057.108.9.013-.323-.045-.573-.092-1.145-.135-1.718q-.138-1.842-.252-3.684-.212-3.441-.338-6.885T5.77 17.88q-.018-1.724-.016-3.447 0-.984.01-1.969c0-.328.006-.657.01-.985q.051-.846-.033-.273l-.9.9c-.385.22-.022.091.259.119.4.04.817.027 1.219.041l1.95.065 4.387.147 8.531.285-1.764-4.269c-2.02 1.623-4.752 2.176-7.2 2.813a24.1 24.1 0 0 0-7.97 3.206C2 16.1 3.308 19.8 6.183 19.083a59.366 59.366 0 0 0 15.048-6.025A2.52 2.52 0 0 0 19.969 8.4l-6.285-.075a51.465 51.465 0 0 0-5.719 0A5.768 5.768 0 0 0 3.3 10.864c-1.012 1.726-.785 4.064-.771 5.988A74 74 0 0 0 6.757 40.94c.906 2.562 4.925 2.289 4.91-.665-.051-10.484-.094-21.087 2.631-31.292l-4.911-.664.713 22.928a2.5 2.5 0 0 0 5 0c.191-5.352.342-10.975 2.652-15.917l-4.659-1.262A44.768 44.768 0 0 1 12.8 27.7l4.911.665c.268-8.433.631-16.924 3.383-24.979A2.527 2.527 0 0 0 19.343.305a2.55 2.55 0 0 0-3.075 1.747c-2.061 5.771-4.124 11.55-5.756 17.461a85.134 85.134 0 0 0-2.007 8.68 17.154 17.154 0 0 0 .35 8.753c.652 1.793 3.6 2.737 4.57.6l4.407-9.769L19.985 23l1.025-2.272c.1-.231.753-1.221.422-1.158H20.1l-.11-.071-1.146-2.819a163.007 163.007 0 0 1-4.008 17.995L19.658 36A146.671 146.671 0 0 1 25.3 11.811a2.5 2.5 0 1 0-4.821-1.329l-7.891 22.031c-.751 2.1 1.889 3.889 3.672 2.823 2.24-1.336 3.24-3.563 4.176-5.888Q22 25.56 23.56 21.669l6.481-16.135-4.911-.665a59.576 59.576 0 0 1-5.716 24.057l4.569 1.926L25 27.766c1-3.065-3.823-4.378-4.822-1.329l-1.011 3.086c-.87 2.654 3.341 4.5 4.569 1.926a65.607 65.607 0 0 0 6.4-26.58 2.489 2.489 0 0 0-2.167-2.455A2.548 2.548 0 0 0 25.22 4.2L19.274 19l-2.856 7.111c-.615 1.531-1.161 3.992-2.681 4.9l3.672 2.823L25.3 11.811l-4.821-1.329a146.573 146.573 0 0 0-5.638 24.193 2.584 2.584 0 0 0 1.747 3.075 2.536 2.536 0 0 0 3.07-1.75 163.465 163.465 0 0 0 4.008-17.995 2.61 2.61 0 0 0-1.149-2.823c-4.492-2.674-6.613 4.77-7.875 7.566L9.107 35.019l4.57.6a13.235 13.235 0 0 1-.157-7.162c.554-2.874 1.271-5.717 2.07-8.531 1.59-5.592 3.545-11.07 5.5-16.542l-4.822-1.332c-2.887 8.449-3.281 17.46-3.562 26.308-.088 2.759 4.4 3.478 4.91.664a48.951 48.951 0 0 0 .473-14.956 2.613 2.613 0 0 0-1.835-2.41 2.513 2.513 0 0 0-2.823 1.148c-2.714 5.807-3.11 12.128-3.335 18.441h5l-.709-22.928c-.085-2.769-4.165-3.456-4.91-.665-2.839 10.632-2.864 21.7-2.81 32.621l4.911-.664a69.584 69.584 0 0 1-4-20.417c-.069-1.714-.093-3.439-.019-5.153a3 3 0 0 1 .07-.611C7.86 13.2 8.7 13.275 9 13.271c3.654-.045 7.318.085 10.972.128l-1.265-4.658a54.288 54.288 0 0 1-13.853 5.52l1.926 4.57c2.358-1.66 5.127-2.262 7.87-2.989a21.628 21.628 0 0 0 8.309-3.812c1.8-1.442.205-4.2-1.768-4.268l-14.868-.5c-1.211-.041-2.582-.247-3.7.348A3.624 3.624 0 0 0 .791 10.8c-.175 2.5-.046 5.067-.014 7.574q.1 7.385.591 14.758.123 1.842.272 3.682a7.179 7.179 0 0 0 .768 3.3c1.425 2.332 4.485 1.637 6.754 1.461 5.7-.445 11.385-1.127 17.038-2a2.528 2.528 0 0 0 1.835-2.41 4.39 4.39 0 0 0-1.389-3.214 3.744 3.744 0 0 0-.356-.378c-.522-.441.06-.053-.037.049-2.183 2.274-.722 2.052.346 1.572 3.04-1.368 2.3-5.446 2.514-8.189a68.751 68.751 0 0 1 1.287-8.83c.531-2.511 1.164-5.193 3.308-6.848 1.9-1.468 1.4-4.537-1.262-4.659q-13.971-.639-27.959-.32c-3.213.074-3.224 5.074 0 5Z" data-color="1"/>
        <path fill="#f2f2f2" d="M30.75 40.759a90.978 90.978 0 0 1 17.522 2.8 2.548 2.548 0 0 0 3.076-1.746l7.924-27.132c.581-1.988-1.28-3.367-3.075-3.075a35.162 35.162 0 0 1-11.252.009 38.262 38.262 0 0 1-5.694-1.392 22.01 22.01 0 0 0-4.977-1.5 4.256 4.256 0 0 0-4.227 2.119c-.948 1.773-.356 4.436-.266 6.363l.619 13.147.686 14.637h5a88.052 88.052 0 0 1 .907-17.67c.756-5.686 1.6-11.362 2.411-17.041h-4.825c1.772 10.078 2.36 20.506.536 30.621l4.91.665a112.216 112.216 0 0 1 5.721-26.537L40.925 13.7l-4.188 22 4.911.665a31.174 31.174 0 0 1 5.963-19.786l-4.659-1.262q-.838 12.848-2.307 25.642c-.324 2.819 4.253 3.362 4.91.664a104.9 104.9 0 0 1 6.759-19.413l-4.57-1.927q-1.17 5.931-2.668 11.789l4.91.664a14.733 14.733 0 0 1 3.884-12.054l-4.27-1.768c.075.637-.067.094.239.148.01 0 .541.022.429.027.055 0 .024.683.079-.093l-.732 1.768c-.145.145-1.015.165-.929.084-.046.043.054 1.053.038 1.2a40.338 40.338 0 0 1-.831 4.323q-.479 2.182-1.072 4.338-.312 1.133-.656 2.258-.136.45-.279.9-.106.336-.217.671-.209.57.174-.222l1.1-.643a6.183 6.183 0 0 1-1.81-.088l-2.242-.14-4.733-.295-4.484-.281a9.891 9.891 0 0 1-3.363-.523l.9 3.421 3.1-5.81a2.553 2.553 0 0 0-.9-3.42 3.29 3.29 0 0 0-4.983 2.892c.2 3.2 5.2 3.219 5 0l-.011.167-.643 1.1-.847.359-1.262-.341.222.136-.9-3.42-3.1 5.809a2.524 2.524 0 0 0 .9 3.421 17.3 17.3 0 0 0 6.136 1.221l7.224.451 3.488.218a10.78 10.78 0 0 0 3.462 0c2.317-.63 2.722-3.633 3.288-5.606q.907-3.165 1.571-6.393c.429-2.087 1.063-4.381.661-6.513a4.821 4.821 0 0 0-4.173-4 3.46 3.46 0 0 0-4.044 3.961 4.632 4.632 0 0 0 9.2-1.091c-.238-2.007-2.632-3.48-4.268-1.768a19.493 19.493 0 0 0-5.346 15.6 2.538 2.538 0 0 0 2.168 2.46 2.5 2.5 0 0 0 2.746-1.795q1.5-5.858 2.669-11.789a2.525 2.525 0 0 0-1.448-2.949A2.48 2.48 0 0 0 48 19.69a111.422 111.422 0 0 0-7.266 20.61l4.911.665q1.467-12.792 2.307-25.642a2.524 2.524 0 0 0-1.835-2.411 2.61 2.61 0 0 0-2.824 1.149 35.594 35.594 0 0 0-6.645 22.31c.12 2.675 4.359 3.566 4.911.665l4.187-22.007a2.5 2.5 0 0 0-4.821-1.33 117.643 117.643 0 0 0-5.9 27.867c-.248 2.782 4.41 3.44 4.911.665 1.995-11.06 1.4-22.258-.535-33.28-.413-2.35-4.477-2.424-4.822 0-.838 5.9-1.709 11.8-2.5 17.706a90.911 90.911 0 0 0-1 18.334c.22 3.182 5.151 3.237 5 0q-.722-15.381-1.441-30.763l-.047-.992q.073-.88-.334.191a.683.683 0 0 1-.576.275q.459.05.228-.024c.73.3 1.561.482 2.307.767a38.152 38.152 0 0 0 6.951 1.92 42.6 42.6 0 0 0 14.355.066l-3.075-3.075-7.921 27.129 3.074-1.746a98.058 98.058 0 0 0-18.852-2.98c-3.214-.193-3.2 4.808 0 5Z" data-color="1"/>
        <path fill="#cccccc" d="M33.962 36.707h3.457c1.11 0 2.252-.078 3.359.009l-.664-.089a.873.873 0 0 1 .208.048l-.6-.252.091.045-.506-.391.076.062-.391-.506.058.083-.252-.6.034.11-.09-.665v.116l.089-.665a12.32 12.32 0 0 1-.543 2.161l.252-.6-.054.11.391-.506a.492.492 0 0 1-.162.165l.506-.39-.1.049.6-.252a.9.9 0 0 1-.223.052l.664-.089a9.17 9.17 0 0 1-1.887-.092l.664.089a12.368 12.368 0 0 1-3.055-.841l.6.252a12.421 12.421 0 0 1-1.941-1.053 2.517 2.517 0 0 0-3.42.9 2.559 2.559 0 0 0 .9 3.421 14.228 14.228 0 0 0 3.838 1.772 13.157 13.157 0 0 0 4.19.565 3.245 3.245 0 0 0 3.124-2.4 17.021 17.021 0 0 0 .488-1.983 3.028 3.028 0 0 0-.543-2.488 2.926 2.926 0 0 0-2.007-1.1 16.957 16.957 0 0 0-2.277-.054h-4.871a2.5 2.5 0 0 0 0 5Z" data-color="2"/>
        <path fill="#cccccc" d="M17.993 20.262a10.246 10.246 0 0 0 2.3-.416 10.146 10.146 0 0 0 2.117-.947 2.6 2.6 0 0 0 1.149-1.494 1.9 1.9 0 0 0 .045-1 1.858 1.858 0 0 0-.3-.93 2.525 2.525 0 0 0-1.494-1.148 2.581 2.581 0 0 0-1.927.252 7.546 7.546 0 0 1-.944.481l.6-.252a7.424 7.424 0 0 1-1.826.5l.664-.09a8.404 8.404 0 0 1-.389.042 1.888 1.888 0 0 0-.963.215 2.249 2.249 0 0 0-1.316 1.325 1.878 1.878 0 0 0-.216.963 2.527 2.527 0 0 0 .733 1.768 2.453 2.453 0 0 0 1.767.732Z" data-color="2"/>
        <path fill="#ff0000" d="m65.291 9.481 7.738.043-1.729-3.01a198.156 198.156 0 0 0-11 18.953l3.727 1.009a125.473 125.473 0 0 1 3.2-18.83c.621-2.5-3.236-3.564-3.858-1.063a132.6 132.6 0 0 0-3.345 19.893c-.181 1.976 2.854 2.725 3.727 1.009a197.928 197.928 0 0 1 11-18.952 2.016 2.016 0 0 0-1.727-3.009l-7.738-.043c-2.575-.014-2.578 3.986 0 4Z" data-color="3"/>
        <path fill="#ff0000" d="M62.733 36.237a1.44 1.44 0 0 1 .173-.093l-.478.2a1.341 1.341 0 0 1 .277-.077l-.531.072a1.407 1.407 0 0 1 .337 0l-.532-.071a1.65 1.65 0 0 1 .38.1l-.477-.2a1.81 1.81 0 0 1 .387.227l-.4-.312a1.747 1.747 0 0 1 .247.247l-.312-.405a1.641 1.641 0 0 1 .18.3l-.2-.477a1.738 1.738 0 0 1 .118.436l-.071-.532a2.054 2.054 0 0 1 0 .457l.072-.532a2.4 2.4 0 0 1-.152.56l.2-.478a2.625 2.625 0 0 1-.329.557l.313-.405a2.814 2.814 0 0 1-.433.426l.405-.313a3.6 3.6 0 0 1-.775.447l.478-.2a5.6 5.6 0 0 1-1.3.348l.531-.072a1.672 1.672 0 0 1-.406.011l.532.072a1.14 1.14 0 0 1-.163-.04l.478.2a.72.72 0 0 1-.144-.079l.4.313a.536.536 0 0 1-.08-.078l.313.4a.862.862 0 0 1-.085-.139l.2.477a1.131 1.131 0 0 1-.059-.214l.071.532a3.691 3.691 0 0 1 .022-.939l-.071.532a4 4 0 0 1 .249-.951l-.2.477a2.872 2.872 0 0 1 .34-.6l-.312.4a2.3 2.3 0 0 1 .363-.369l-.4.313a1.922 1.922 0 0 1 .4-.237l-.478.2a1.466 1.466 0 0 1 .312-.083l-.532.071a1.662 1.662 0 0 1 .417 0l-.531-.071a1.911 1.911 0 0 1 .45.128l-.478-.2a1.95 1.95 0 0 1 .359.21l-.4-.313a1.678 1.678 0 0 1 .283.282l-.313-.405a1.378 1.378 0 0 1 .148.258l-.2-.477a1.157 1.157 0 0 1 .064.241l-.071-.532a1.145 1.145 0 0 1 0 .255l.071-.532a1.318 1.318 0 0 1-.044.175 2 2 0 0 0 2.938 2.259 2.183 2.183 0 0 0 .919-1.2A2.965 2.965 0 0 0 65.3 36a2.494 2.494 0 0 0-.042-.414 2.865 2.865 0 0 0-.066-.408 3.259 3.259 0 0 0-.81-1.372 3.756 3.756 0 0 0-2.579-1.088 4.065 4.065 0 0 0-3.78 3.472 7.629 7.629 0 0 0-.152 1.323 4.261 4.261 0 0 0 .054.657 2.464 2.464 0 0 0 .365 1.076 2.676 2.676 0 0 0 2.3 1.218 6.241 6.241 0 0 0 1.425-.224 5.638 5.638 0 0 0 2.539-1.383 4.394 4.394 0 0 0 1.273-2.863 3.6 3.6 0 0 0-.421-1.834 3.55 3.55 0 0 0-2.06-1.673 3.607 3.607 0 0 0-.891-.151 3.033 3.033 0 0 0-1.748.451 2.107 2.107 0 0 0-.919 1.2A2.043 2.043 0 0 0 60 35.52a2 2 0 0 0 2.736.717Z" data-color="3"/>
        <path d="m29.936 12.12-1.493 13.748-.721 6.632-.346 3.191a18.408 18.408 0 0 0-.3 3.442 3.173 3.173 0 0 0 2.6 2.736c2.111.623 4.35.952 6.5 1.414l6.842 1.468 3.176.682a10.443 10.443 0 0 0 3.07.492c1.808-.18 2.038-2.089 2.447-3.515q.958-3.348 1.907-6.7 1.863-6.582 3.679-13.177c.617-2.238 1.235-4.476 1.838-6.718.383-1.424.733-3.237-.789-4.136a7.357 7.357 0 0 0-2.506-.625l-3.39-.587-6.78-1.175-7.507-1.3-3.874-.672a13.122 13.122 0 0 0-3.089-.429c-2.148.16-2.051 2.244-2.11 3.892l-.269 7.617c-.045 1.252 1.9 1.251 1.946 0l.2-5.709.085-2.379c.008-.228-.095-1.141.061-1.317.353-.4 1.255-.038 1.692.038l11.139 1.929 11.139 1.93c.614.106 2.105.094 2.449.692.273.474-.266 1.7-.4 2.2q-.783 2.88-1.575 5.758-1.584 5.756-3.2 11.5-.741 2.634-1.491 5.265-.34 1.2-.682 2.392l-.411 1.435c-.1.346-.244 1.583-.535 1.791-.491.354-1.978-.25-2.519-.367l-2.688-.576-5.865-1.259-5.375-1.153c-.859-.185-1.752-.316-2.592-.575-1.025-.315-1.228-.817-1.142-1.846.72-8.686 1.886-17.359 2.827-26.024.135-1.243-1.812-1.233-1.946 0Z" fill="#000000" data-color="4"/>
        <path fill="#1d1d1b" d="M36.393 13.761c.568-.343 1.187.118 1.7.384a7.016 7.016 0 0 0 1.851.69 30.147 30.147 0 0 0 4.08.415 27.346 27.346 0 0 1 8.153 1.376c1.1.427 1.583-1.351.489-1.774a30.221 30.221 0 0 0-8.939-1.462 12.28 12.28 0 0 1-4.456-.7c-1.245-.6-2.458-1.327-3.8-.515a.92.92 0 0 0 .929 1.588Z" data-color="5"/>
        <path fill="#1d1d1b" d="M32.806 19.416a.92.92 0 0 0 0-1.839.92.92 0 0 0 0 1.839Z" data-color="5"/>
        <path fill="#1d1d1b" d="M32.807 19.428a22.3 22.3 0 0 1 4.019.12.921.921 0 0 0 .65-.269.937.937 0 0 0 .27-.651.948.948 0 0 0-.92-.92 22.3 22.3 0 0 0-4.019-.12.92.92 0 0 0 0 1.84Z" data-color="5"/>
        <path fill="#1d1d1b" d="M41.61 19.281V21.9a5.638 5.638 0 0 0 .215 2.477c.412.808 1.341.874 2.131 1.038l2.606.542 1.226.256a4.963 4.963 0 0 0 1.253.194c1.028-.062 1.322-.992 1.572-1.829q.358-1.2.607-2.422a4.189 4.189 0 0 0 .163-1.239 1.215 1.215 0 0 0-.9-1.045c-.91-.267-1.894-.385-2.825-.572l-2.875-.578a.943.943 0 0 0-1.132.642.928.928 0 0 0 .649 1.136l2.951.594 1.438.289a8.579 8.579 0 0 1 1.407.3l-.406-.237q-.09-.749-.14-.3l-.028.148-.1.52q-.1.481-.219.959a27.154 27.154 0 0 1-.491 1.749c-.007.022-.063.254-.079.23q.213-.309.375-.165l-.112-.022a4.544 4.544 0 0 0-1-.207l-1.916-.4-1.839-.382a4.887 4.887 0 0 1-.819-.175c0 .006.107.114.135.112v-4.237a.921.921 0 0 0-1.84 0Z" data-color="5"/>
        <path fill="#1d1d1b" d="M34.484 26.531a1.564 1.564 0 0 0 .164 1.986.92.92 0 0 0 1.115.144 12.583 12.583 0 0 1 3.026-1.76 1.549 1.549 0 0 1 .835-.206 2.46 2.46 0 0 1 .652.4q.844.558 1.687 1.121l1.687 1.121a2.532 2.532 0 0 0 1.7.633 7.577 7.577 0 0 0 3.217-1.57c.951-.685.034-2.282-.929-1.588a11.051 11.051 0 0 1-1.525.933 2.651 2.651 0 0 1-.8.352c-.27.016-.476-.183-.724-.348l-3.374-2.243a3.192 3.192 0 0 0-1.518-.66 3.978 3.978 0 0 0-1.795.448 13.761 13.761 0 0 0-3.058 1.777l1.115.144.123.243a.926.926 0 0 0-.33-1.258.941.941 0 0 0-1.258.33Z" data-color="5"/>
        <path fill="#1d1d1b" d="M32.811 32.528c1.972.216 3.942-.068 5.918-.033a8.835 8.835 0 0 1 2.749.421c.464.16.886.4 1.334.6a5.929 5.929 0 0 0 .616.244 2.648 2.648 0 0 0 .412.1q.45.119-.165-.269V33.1c-.369 1.872-1.014 3.726-1.522 5.566l-.193.7c-.027.1-.055.2-.086.3-.052.147-.009.1.129-.132a6.734 6.734 0 0 0-1.338-.213q-1.4-.24-2.786-.548t-2.755-.673a57.539 57.539 0 0 1-1.365-.39 2.529 2.529 0 0 1-.678-.208l.082.149a17.656 17.656 0 0 1-.028-.459 20.359 20.359 0 0 1 .471-5.465c.258-1.154-1.515-1.646-1.774-.489a22.9 22.9 0 0 0-.546 4.114 20.111 20.111 0 0 0 .022 2.069 1.833 1.833 0 0 0 .735 1.624 7.6 7.6 0 0 0 1.908.638q1.024.294 2.057.549 2.067.512 4.168.873c1.189.2 2.821.721 3.4-.731a39.052 39.052 0 0 0 1.124-4.019l.58-2.1c.178-.644.37-1.354-.221-1.854-.458-.386-1.166-.392-1.7-.652a10.7 10.7 0 0 0-1.787-.729c-2.863-.793-5.848-.013-8.756-.33a.926.926 0 0 0-.92.919.941.941 0 0 0 .92.92Z" data-color="5"/>
        <path d="m27.9 11.078-1.467 23.167c-.052.821-.1 1.644-.156 2.465-.079 1.1-.161 1.772-1.363 1.947a55.069 55.069 0 0 1-5.647.244l-11.487.46c-.775.031-1.991.379-2.446-.352a7.707 7.707 0 0 1-.269-2.473q-.32-2.967-.631-5.936-.6-5.69-1.16-11.383-.274-2.722-.532-5.446L2.459 10.8c-.062-.646-.444-1.987-.129-2.611.377-.744 1.77-.473 2.492-.474h21.627c.589 0 2.137-.307 2.6.053s-.15 2.537-.221 3.06l-.87 6.368c-.167 1.224 1.707 1.754 1.876.517l.9-6.6c.185-1.353.965-3.62-.233-4.721s-3.6-.619-5.041-.619H4.822c-1.6 0-3.594-.229-4.274 1.592-.624 1.675.012 3.945.177 5.666q.665 6.93 1.375 13.858.355 3.464.725 6.927.171 1.608.345 3.215A11.739 11.739 0 0 0 3.589 40c.647 1.622 2.526 1.37 3.941 1.314l6.992-.28 6.992-.28c1.632-.066 3.8.192 5.271-.683 1.815-1.079 1.464-3.78 1.578-5.583l.483-7.64 1-15.773c.079-1.25-1.867-1.245-1.946 0Z" fill="#000000" data-color="4"/>
        <path fill="#1d1d1b" d="M22.066 9.814c-1.344-.812-2.558-.086-3.8.515a12.258 12.258 0 0 1-4.456.7 30.209 30.209 0 0 0-8.938 1.462c-1.093.422-.619 2.2.489 1.774a27.366 27.366 0 0 1 8.152-1.376 29.988 29.988 0 0 0 4.08-.415 7.1 7.1 0 0 0 1.851-.69c.51-.264 1.126-.728 1.7-.384a.92.92 0 0 0 .929-1.588Z" data-color="5"/>
        <path fill="#1d1d1b" d="M11.723 16.229a22.3 22.3 0 0 0-4.023.121 1 1 0 0 0-.65.269.929.929 0 0 0-.269.65c.02.449.408.982.919.92a22.3 22.3 0 0 1 4.019-.12.926.926 0 0 0 .92-.92.943.943 0 0 0-.92-.92Z" data-color="5"/>
        <path fill="#1d1d1b" d="M22.08 13.922v3.857s-.011.386-.006.387.125-.106.127-.115a5.017 5.017 0 0 1-.733.155l-1.916.4-1.839.382c-.332.069-.664.14-1 .208-.2.041-.264-.022.007.113s.176.1.1-.141a27.154 27.154 0 0 1-.691-2.634q-.055-.26-.105-.519l-.043-.223q-.049-.45-.14.3l-.405.236a8.532 8.532 0 0 1 1.407-.3l1.437-.29 2.951-.593a.92.92 0 1 0-.489-1.774l-5.07 1.02a2.192 2.192 0 0 0-1.171.435 1.376 1.376 0 0 0-.32 1.31 24.461 24.461 0 0 0 .568 2.509c.2.735.36 1.785 1.071 2.211.742.446 1.756.04 2.534-.122l2.529-.526 1.226-.255a2.962 2.962 0 0 0 1.108-.372c.879-.6.7-1.8.7-2.723v-2.936a.921.921 0 0 0-1.84 0Z" data-color="5"/>
        <path fill="#1d1d1b" d="m21.458 25.1.123-.243 1.115-.143a13.684 13.684 0 0 0-3.058-1.777 3.965 3.965 0 0 0-1.794-.449 3.192 3.192 0 0 0-1.519.66q-1.687 1.119-3.374 2.243c-.248.165-.453.364-.723.348a2.656 2.656 0 0 1-.806-.352 10.955 10.955 0 0 1-1.522-.933c-.962-.693-1.881.9-.928 1.589a7.577 7.577 0 0 0 3.216 1.569 2.527 2.527 0 0 0 1.7-.633l1.687-1.121 1.687-1.121a2.487 2.487 0 0 1 .652-.4 1.549 1.549 0 0 1 .835.206 12.583 12.583 0 0 1 3.026 1.76.917.917 0 0 0 1.115-.144 1.563 1.563 0 0 0 .164-1.986.95.95 0 0 0-1.258-.33.924.924 0 0 0-.33 1.258Z" data-color="5"/>
        <path fill="#1d1d1b" d="M20.719 28.33c-2.576.281-5.166-.276-7.736.117a8.2 8.2 0 0 0-1.814.485 13.313 13.313 0 0 1-1.759.753c-.64.155-1.183.323-1.328 1.056a5.122 5.122 0 0 0 .426 2.088l1.16 4.2a3.243 3.243 0 0 0 .7 1.615 2.048 2.048 0 0 0 1.822.286 57.887 57.887 0 0 0 8.3-1.879c.687-.209 1.392-.425 1.632-1.184a7.46 7.46 0 0 0 .142-2.189 22.712 22.712 0 0 0-.562-4.8c-.258-1.155-2.032-.666-1.774.489a20.359 20.359 0 0 1 .471 5.465c0 .115-.012.23-.02.344-.027.167 0 .155.075-.034-.225.074-.453.14-.679.208q-.679.2-1.365.391-1.37.373-2.755.682t-2.785.549a12.5 12.5 0 0 0-1.339.212l.15.2c-.038-.125-.073-.25-.107-.376l-.193-.7c-.508-1.839-1.153-3.694-1.522-5.566v.489q-.615.389-.165.269a2.648 2.648 0 0 0 .412-.1 5.929 5.929 0 0 0 .616-.244c.448-.2.87-.442 1.334-.6a8.835 8.835 0 0 1 2.749-.421c1.976-.034 3.946.249 5.918.033a.947.947 0 0 0 .92-.919.926.926 0 0 0-.92-.92Z" data-color="5"/>
    </g>
</svg>
