<?xml version="1.0" encoding="UTF-8"?>
<svg data-bbox="0.216 0.187 52.519 50.032" viewBox="0 0 53.471 50.334" height="50.334" width="53.471" xmlns="http://www.w3.org/2000/svg" data-type="color">
    <g>
        <path fill="#1d70b7" d="M35.457 8.508c-.939-.576-5.775 1.939-7.228 1.989a11.16 11.16 0 0 1-6.688-2.053l-1.919 3.282c4.317 2.563 9.739 4.6 13.546.073a1.927 1.927 0 0 0-1.343-3.244 199.105 199.105 0 0 0-13.732-.492v3.8a140.986 140.986 0 0 0 17.289-1.874 1.918 1.918 0 0 0 .454-3.473l-1.26-.6-.454 3.473c1.914-.768 3.037-1.621 4.885-.473a18.33 18.33 0 0 1 4.212 4.652c1.69 2.616 2.43 5.042 5.153 6.777a1.914 1.914 0 0 0 2.6-2.6c-2.588-4.117-7.09-9.2-12.343-9.513-4.52-.271-9.894 3.579-11.784 7.531a1.926 1.926 0 0 0 2.146 2.791 39.723 39.723 0 0 1 8.047-1.1l-1.344-3.244a35.366 35.366 0 0 0-5.145 6.84l3.474.454.077-2.7c.55-2.2-2.234-3.136-3.473-1.464C27.738 21.237 16.7 31.976 27.2 33.319c.888.113 1.542-.685 1.832-1.4.883-2.159 1.734-6.12 3.768-7.441l-2.792-2.146c-.861 3.732-3.612 7.355-5.474 10.654-1.017 1.8 1.61 4.056 2.985 2.3l6.846-8.729-2.984-2.3A99.2 99.2 0 0 0 27.2 33.5c-.793 2.013 2.465 3.336 3.474 1.464l5.187-9.629-3.282-1.919c-1.837 3.9-6.292 9.644-5.264 14.12a1.919 1.919 0 0 0 3.176.838l6.1-5.676-2.984-2.3-4.695 7.483c-1.054 1.68.99 3.451 2.6 2.6 4.842-2.558 9.5-7.665 10.585-13.12a1.941 1.941 0 0 0-1.833-2.406c-1.487-.178-3.354-2.869-4.374-3.863a1.926 1.926 0 0 0-3.244 1.344c-.356 3 1.744 5.529.878 8.7a1.916 1.916 0 0 0 2.337 2.338l5.384-1.832-2.145-2.795c-2.292 3.438-6.46 9.388-11.25 8.628-1.96-.311-3.538 2.4-1.465 3.473a70.783 70.783 0 0 0 8.2 3.6c2.3.843 3.291-2.829 1.01-3.665a62.85 62.85 0 0 1-7.295-3.217l-1.464 3.473c7.079 1.123 11.977-5.025 15.543-10.373a1.919 1.919 0 0 0-2.146-2.792l-5.384 1.832 2.337 2.337a10.084 10.084 0 0 0 .575-4.323c-.271-1.925-1.57-3.248-1.317-5.386L33.2 23.778c2.215 2.156 3.909 4.6 7.062 4.976l-1.832-2.406c-.892 4.479-4.848 8.741-8.838 10.849l2.6 2.6 4.694-7.483c1.177-1.875-1.438-3.741-2.984-2.3l-6.1 5.677 3.176.838c-.574-2.5 3.831-8.962 4.881-11.19 1.028-2.181-2.106-4.1-3.282-1.919l-5.187 9.63 3.473 1.465a89.488 89.488 0 0 1 3.8-8.333c.933-1.8-1.584-4.088-2.984-2.3L24.835 32.6l2.985 2.3c2.071-3.671 4.9-7.422 5.857-11.562.353-1.529-1.334-3.093-2.791-2.146-3.218 2.09-4.126 6.319-5.515 9.713l1.829-1.387c-1.566-.2 1.85-3.71 2.454-4.526l4.25-5.734-3.473-1.464a9.71 9.71 0 0 0-.077 4.721 1.92 1.92 0 0 0 3.473.454 31.368 31.368 0 0 1 4.555-6.069 1.922 1.922 0 0 0-1.344-3.244 44.607 44.607 0 0 0-9.057 1.233l2.146 2.791c1.509-3.155 5.507-5.743 8.911-5.192 3.851.624 6.678 4.035 8.653 7.175l2.6-2.6c-2.368-1.509-2.935-4.371-4.506-6.5-1.315-1.782-3.079-3.414-4.518-5.093-2.5-2.92-4.872-1.066-8.155.252-1.349.541-2.087 2.691-.454 3.473l1.26.6.454-3.473a132.863 132.863 0 0 1-16.279 1.741c-2.421.149-2.469 3.8 0 3.8 4.588.006 9.155.17 13.732.492l-1.344-3.244c-2.654 3.153-6.183.971-8.94-.667-2.12-1.259-3.95 1.946-1.919 3.282a14.766 14.766 0 0 0 15.4.717c2.659-1.5 6.208-4.845 2.349-7.216-2.09-1.284-4 2-1.918 3.281Z" data-color="1"/>
        <path fill="#1d70b7" d="M7.994 10c-4.965 2.92-6.2 8.015-6.953 13.424-.8 5.792-.97 11.288 1.776 16.592.913 1.766 3.453.815 3.541-.959.221-4.464-.9-8.516-2.29-12.729l-1.832 2.4 3.171 2.553 1.327-2.337c-4.618 1.108-3.153 7.353 1.479 6.2l-2.146-2.791c-1.378 2.91-1.486 5.314 1.654 6.876a25.285 25.285 0 0 0 3.6.969c1.073.341 4.93 3.089 1.85 1.235-1.742-1.048-2.435-2.792-4.161-4l-1.917 3.285c.83.4 3.99 3.284 2.747 1.4a31.219 31.219 0 0 0-2.51-2.754l-2.687 2.687c7.479 5.891 14.488 11.812 23.424 5.375a1.919 1.919 0 0 0-.959-3.541c-1.006-.119-1.553-6.454-1.7-7.3-.354-1.981-3.118-1.622-3.665 0a25.1 25.1 0 0 0-1.334 7.994h3.8a47.373 47.373 0 0 1-.344-8.811l-3.733.505c.847 2.848 1.481 9.637 4.075 11.44 2.128 1.479 4.726-.591 6.4-1.782 1.1-.781 3.38-3.311 4.753-3.053.382.072 1.209 1.463 1.835 1.693 2.939 1.076 5.2-3.219 7.786-3.788l-1.464-3.474c-2.106 1.455-4.406 3.754-6.77 4.675-3.036 1.183-2.211-.375-3.9-1.578-2.535-1.807-4.381-.855-7.281-.328l2.406 1.832c.263-3.917.99-6.627-1.344-9.625-.626-.8-2.141-2.22-1.682-3.635s.608-.851 1.579-1.51c1.2-.818 2.223-.953 3.2-2.257a9.847 9.847 0 0 0 1.137-8.429c-1.39-3.606-5.644-1.841-8.226-4.223a1.927 1.927 0 0 0-3.244 1.343c-.617 4.794 4.172 5.513 7.808 4.668a1.922 1.922 0 0 0 .839-3.176 13.3 13.3 0 0 0-7.159-4.293c-1.63-.391-8.823.232-9.306-.367l-.839 3.176c4.31-1.116 7.875-3.066 9.439-7.4.758-2.1-2.356-3.206-3.473-1.465L15.31 6.105l-1.832 2.4c2.427-.1 6.052 1.756 8.773 1.883 3.065.144 5.621 1.59 8.585 1.773 4.474.276 7.768-2.937 8.645-7.1.5-2.386-3.161-3.406-3.665-1.01-1.405 6.681-7.809 2.708-12.054 2.533-3.586-.146-6.807-2.024-10.284-1.874a1.919 1.919 0 0 0-1.833 2.405c1.626 4.9 6.231 2.8 8.336-.482l-3.473-1.465c-1.121 3.108-3.975 4.02-6.784 4.748a1.926 1.926 0 0 0-.839 3.176c1.32 1.633 3.127 1.112 5.08 1.022 4.293-.2 8.383.2 11.386 3.637l.838-3.176-3-1-3.244 1.344c2.055 1.9 6.582 1.821 7.464 4.3 1.028 2.885-4.323 4.44-5.431 6.525-1.117 2.1-1.7 5.21-.41 7.387.548.926 1.812 1.264 2.292 2 1.221 1.882.456 4.548.306 6.781a1.925 1.925 0 0 0 2.406 1.833c1.445-.263 2.2-.842 3.251-.118.708.489.574 1.372 1.074 1.956a4.483 4.483 0 0 0 2.647 1.577c3.976.687 8.98-4.562 11.884-6.567a1.909 1.909 0 0 0-1.464-3.473 8.837 8.837 0 0 0-3.664 1.528c-.424.3-3.434 2.406-1.665 2.31-.5.027-2.255-2.085-3.52-2.11-2.633-.053-4.52 2.407-6.434 3.8q-1.244.894-2.57 1.665l-.076-1.506c-1.259-1.7-1.635-5.5-2.244-7.547a1.91 1.91 0 0 0-3.733.506 47.353 47.353 0 0 0 .344 8.811c.31 2.346 3.776 2.528 3.8 0a21.9 21.9 0 0 1 1.2-6.983h-3.663c.713 3.995.411 9.5 5.369 10.092l-.959-3.541c-3.549 2.555-6.623 3.229-10.565 1.093a60.635 60.635 0 0 1-8.254-5.874 1.9 1.9 0 0 0-2.687 2.687c1.758 2.055 7.029 7.375 9.923 3.788 2.806-3.478-3.124-7.24-5.555-8.4a1.9 1.9 0 0 0-1.918 3.281c2.178 1.52 2.076 4.384 5.048 5.155 1.656.429 5.038.14 6.18-1.357 4.415-5.792-9.825-8.444-8.972-10.244A1.927 1.927 0 0 0 7.2 31.48l.542 1.129a1.944 1.944 0 0 0 1.327-2.337 6.23 6.23 0 0 0-6.836-5.343A1.922 1.922 0 0 0 .4 27.334c1.289 3.9 2.361 7.553 2.154 11.719l3.546-.959c-3.246-6.272-3.006-20.8 3.814-24.816 2.107-1.239.2-4.525-1.918-3.282Z" data-color="1"/>
        <path fill="#ececec" d="M15.6 5.812c5.966 2.564 12.41 2.216 18.786 2.312 2.2.033 2.5-3.082.5-3.732-2.979-.97-5.506-2.686-8.376-3.811-2.279-.893-4.756-.048-7.066.37-2.094.378-1.631 3.885.505 3.732A68.6 68.6 0 0 1 28.4 4.56c1.967.1 4.518.878 6.4.093 2.216-.93 1.24-4.609-1.018-3.665C32.077 1.7 28.934.763 27.1.705a69.552 69.552 0 0 0-7.146.178l.5 3.732a21.138 21.138 0 0 1 3.246-.587c1.681-.006 2.878.938 4.273 1.644a41.329 41.329 0 0 0 5.909 2.384l.505-3.732c-5.559-.084-11.653.448-16.873-1.793-2.224-.955-4.162 2.318-1.914 3.281Z" data-color="2"/>
        <path fill="#008d36" d="M3.006 41.912c.462-.151.875.443 1.19.733A7.029 7.029 0 0 0 5.934 43.9a3.459 3.459 0 0 0 4.034-.538 2.57 2.57 0 0 0-1.014-3.946 7.8 7.8 0 0 0-4.525-.725 1.962 1.962 0 0 0-1.9 1.9 1.912 1.912 0 0 0 1.9 1.9c.595-.078 2.422-.153 2.6.2l-.191-1.464-.042.286.488-.839c.309-.362.521.145.233-.217a6.835 6.835 0 0 0-.629-.5 11.286 11.286 0 0 0-1.355-1.143A4.085 4.085 0 0 0 2 38.248c-2.314.757-1.323 4.429 1.011 3.664Z" data-color="3"/>
        <path fill="#ececec" d="M27.061 49.431a7.784 7.784 0 0 0 4.374-.525 10.046 10.046 0 0 0 1.729-.955c.2-.134 1.875-1.319 1.363-1.426l-1.136-.873.007.163c-.178 2.44 3.623 2.429 3.8 0 .155-2.113-1.691-3.825-3.771-2.774-1.755.887-3.109 3.043-5.356 2.726a1.968 1.968 0 0 0-2.338 1.327 1.912 1.912 0 0 0 1.328 2.337Z" data-color="2"/>
        <path fill="#2dab66" d="m6.436 16.953-3.06 4.685 3.541.959a12.347 12.347 0 0 1 3.339-7.192L7.272 13.1c-1.79 3.478-6.317 7.23-4.506 11.524a7.649 7.649 0 0 0 2.911 3.155c1.153.8 3.59 2.372 3.317 4.185-.059.392-.955.627-.979 1.2-.139 3.407 1.884 3.7 4.622 5.43 3.749 2.37 3.154 7.351 7.607 9.212 1.4.586 2.665-1.08 2.337-2.338-1.326-5.09-1.5-10.213-1.567-15.443l-3.244 1.34a26.254 26.254 0 0 1 3.654 4.784l2.985-2.3c-1.18-1.415-3.513-4.316-2.258-6.39.379-.626 1.55-1.03 2.116-1.53a15.639 15.639 0 0 0 2.272-3.1c.933-1.272 2.976-1.99 2.483-4.074a1.937 1.937 0 0 0-2.337-1.327c-3.45.727-5.8-.474-8.051-3.064-.583-.67-.854-1.443-1.655-1.947-2.364-1.488-6.138-.4-8.569.216a1.933 1.933 0 0 0-1.136 2.791c.5 1.166 3.334 7.27.751 8.248L10.363 25c-.347-2.365 2.987-6.2 4.3-7.85l-2.985-2.3c-1.366 2.052-6.2 7-2.945 9.455 3.551 2.672 10.086-4.383 12.444-6.152l-2.6-2.6c.037-.052-4.377 4.984-3.031 2.992l-3.286-1.923a31.171 31.171 0 0 0-2.343 7.814A1.91 1.91 0 0 0 13.39 25.9l4.11-6.07-3.282-1.918C10.955 23.269 7.9 28.61 6.07 34.638c-.611 2.011 2.594 3.468 3.473 1.465a23.132 23.132 0 0 1 7.874-9.885l-2.791-2.146A95.3 95.3 0 0 1 10.251 34.1c-1.1 2.174 2.146 4.095 3.282 1.918l8.593-16.468-3.473-1.465c-1.788 4.96-3.746 9.873-4.827 15.047-.425 2.032 2.37 3.425 3.473 1.464 2.036-3.621 3.895-7.3 5.6-11.092l-3.281-1.918a54.835 54.835 0 0 0-4.254 15.627c-.274 2.277 3.033 2.35 3.733.505 1.9-5 4.027-9.968 5.733-15.034-.782 2.323 2.887 3.32 3.664 1.01a3.478 3.478 0 0 0-4.819-4.317c-1.859.769-2.512 2.568-3.281 4.252-1.92 4.206-3.323 8.759-4.962 13.079l3.733.5A48.321 48.321 0 0 1 22.9 23.5c.966-2.211-2.274-4.156-3.281-1.918a137.56 137.56 0 0 1-5.6 11.092l3.474 1.464c1.08-5.171 3.039-10.088 4.826-15.046.73-2.024-2.482-3.364-3.473-1.464L10.251 34.1l3.282 1.918a103.923 103.923 0 0 0 4.757-10.936 1.918 1.918 0 0 0-2.79-2.146 26.705 26.705 0 0 0-9.239 11.248l3.473 1.465c1.731-5.7 4.684-10.759 7.766-15.818 1.286-2.11-1.923-3.924-3.282-1.918l-4.11 6.069 3.474 1.465a27.294 27.294 0 0 1 1.96-6.907 1.9 1.9 0 0 0-3.282-1.918c-1.3 1.927-2.02 5.86.95 6.8 3.294 1.042 7.017-3.727 8.644-5.956 1.1-1.5-1.1-3.726-2.6-2.6-2.136 1.6-5.152 3.213-6.94 5.208-.93 1.039-1.175 2.213.125.471.9-1.2 1.687-2.534 2.517-3.782 1.177-1.768-1.632-4-2.984-2.3-2.649 3.332-5.926 7.1-5.274 11.547a1.9 1.9 0 0 0 2.338 1.327c6.256-2.368 3.514-9.168 1.52-13.83L9.42 16.3c3.019-.76 4.594-1.12 6.694 1.039a13.7 13.7 0 0 0 3.2 2.7 11.622 11.622 0 0 0 8.386 1.053l-2.337-1.328c-.07-.294 1.7-3.3-.732-1.191a10.253 10.253 0 0 0-1.174 1.468c-1.023 1.233-.224 1.552-1.945 3.214a25.837 25.837 0 0 0-2.363 1.875c-3.045 3.668.038 8.358 2.578 11.4 1.4 1.675 4.076-.482 2.984-2.3a30.417 30.417 0 0 0-4.248-5.553 1.92 1.92 0 0 0-3.244 1.344c.07 5.572.292 11.039 1.7 16.454l2.338-2.338c-2.505-1.047-2.617-5.76-4.767-7.611a19.777 19.777 0 0 0-4.041-2.18c-.827-.433-.709 1.27-.571.244.052-.388.925-1 1.125-1.42a5.326 5.326 0 0 0-1.352-5.9c-1.955-2.023-3.425-1.621-3.96-4.815-.458-2.732-.34-2.31.94-4.162a29.218 29.218 0 0 0 1.926-3.274c.943-1.833-1.47-3.98-2.985-2.3A16.96 16.96 0 0 0 3.117 22.6c-.246 2.015 2.614 2.379 3.541.959l3.059-4.685c1.341-2.053-1.948-3.96-3.281-1.918Z" data-color="4"/>
        <path fill="#f29100" d="M39.494 38.206a35.429 35.429 0 0 1 4.415-4.1l-2.688-2.687q-4.2 3.975-8.062 8.271a1.915 1.915 0 0 0 1.848 3.176 31.509 31.509 0 0 0 9.693-4.65l-2.3-2.984-1.48 1.217 2.3 2.984c1.649-1.488 4.831-3.5 5.694-5.608.856-2.093-.044-4.6.691-6.85.656-2.01-2.618-3.462-3.473-1.464-.666 1.554-2.735 2.524-3.668 3.989a9.7 9.7 0 0 0-1.264 4.113l3.732-.505c-.264-1.758.166-3.545-.3-5.278-.452-1.665-.929-3.21-1.3-4.871-.861-3.838-3.11-2.045-5.955-2.885l1.123 2.791 2.2-1.036a1.9 1.9 0 0 0 0-3.8 6.082 6.082 0 0 0-5.478 2.918 1.915 1.915 0 0 0 1.136 2.791c.329.1 3.4.338 3.4.332-.48-.465-.123 1.795-.07 1.987.408 1.482 1.208 2.31 1.4 4.011.151 1.353-.024 2.678.183 4.051.349 2.324 3.48 1.393 3.732-.506.4-3 3.336-3.661 4.416-6.184l-3.473-1.465c-.648 1.988-.28 3.646-.657 5.566-.428 2.182-3.1 3.728-4.751 5.216-1.605 1.448.471 4.109 2.3 2.984a8.28 8.28 0 0 0 2.25-1.811c1.417-1.5-.473-4.283-2.3-2.985A28.593 28.593 0 0 1 34 39.2l1.849 3.176q3.867-4.3 8.063-8.271c1.824-1.725-.818-4.153-2.688-2.687a35.351 35.351 0 0 0-4.414 4.1c-1.643 1.806 1.037 4.5 2.687 2.687Z" data-color="5"/>
        <path fill="#2dab66" d="M34.026 15.641a24.349 24.349 0 0 0 8.909-5.395l-3.176-.839a9.7 9.7 0 0 1-2.231 8.356h2.687c-.659-.794 4.14-5.068 4.731-5.522l-2.791-1.136c.5 3.278-.581 6.427.028 9.727a1.913 1.913 0 0 0 3.176.839l1.772-1.882-3.243-1.344c.078 2.423.09 4.839.035 7.263l3.733-.5c-.546-1.616-1-3.2-1.405-4.857-.508-2.1-3.725-1.623-3.733.5a16.619 16.619 0 0 0 .613 4.622 1.923 1.923 0 0 0 3.473.454 52.928 52.928 0 0 1 4.146-5.97l-3.176-.839c.431 1.113 2.383 6.03.992 6.784l2.859 1.641a34.3 34.3 0 0 1-.174-5.372c.095-2.105-3.348-2.635-3.733-.5l-1.569 8.678c-.432 2.391 3.23 3.417 3.665 1.01l1.569-8.678-3.733-.5a34.183 34.183 0 0 0 .175 5.372 1.927 1.927 0 0 0 2.859 1.64c3.75-2.033 1.95-7.989.754-11.075-.456-1.179-2.186-2.068-3.176-.839a60.431 60.431 0 0 0-4.739 6.74l3.473.454a8.453 8.453 0 0 1-.477-3.612l-3.733.505c.4 1.658.859 3.242 1.405 4.857a1.91 1.91 0 0 0 3.733-.505c.054-2.424.042-4.84-.036-7.263a1.922 1.922 0 0 0-3.244-1.355l-1.772 1.882 3.176.839c-.6-3.233.475-6.453-.029-9.727a1.906 1.906 0 0 0-2.791-1.136c-3.041 2.337-8.857 7.444-5.5 11.492a1.906 1.906 0 0 0 2.687 0A13.868 13.868 0 0 0 43.424 8.4c-.27-1.472-2.216-1.745-3.176-.838a19.5 19.5 0 0 1-7.232 4.418c-2.294.8-1.307 4.474 1.01 3.664Z" data-color="4"/>
        <path fill="#008d36" d="m2.226 22.118.108 2.256a1.9 1.9 0 0 0 3.8 0l.9-3.166-3.474-.454a85.22 85.22 0 0 1 1.242 6.05c.333 1.981 3.13 1.622 3.664 0a14.03 14.03 0 0 1 3.142-5.918l-3.176-.839a4.7 4.7 0 0 1-1.192 4.221h3.282a3.864 3.864 0 0 1 3.773-2.9l-2.146-2.791a47.549 47.549 0 0 1-2.8 4.162c-1.357 1.809 1.46 3.655 2.984 2.3a28.651 28.651 0 0 1 7.992-5.533l-2.145-2.791-4.448 5.8c-1.371 1.788 1.464 3.665 2.984 2.3a21.6 21.6 0 0 1 6-3.822l-2.6-2.6a35.3 35.3 0 0 1-2.06 3.771c-.822 1.312.572 3.413 2.146 2.791l8.263-3.255c2.248-.888 1.269-4.564-1.011-3.665L19.2 21.293l2.146 2.792a35.473 35.473 0 0 0 2.06-3.771 1.918 1.918 0 0 0-2.6-2.6 25.08 25.08 0 0 0-6.774 4.416l2.984 2.3 4.448-5.8c.971-1.267-.662-3.4-2.146-2.792a34.051 34.051 0 0 0-9.669 6.511l2.984 2.3a47.726 47.726 0 0 0 2.8-4.163 1.924 1.924 0 0 0-2.148-2.786C9 18.522 4.666 21.4 7.24 26.187a1.926 1.926 0 0 0 3.282 0 8.726 8.726 0 0 0 1.576-7.15c-.229-1.446-2.258-1.78-3.176-.839A18.487 18.487 0 0 0 4.8 25.793h3.668a85.444 85.444 0 0 0-1.241-6.05 1.92 1.92 0 0 0-3.473-.454 13.481 13.481 0 0 0-1.42 5.085h3.8l-.107-2.256c-.116-2.435-3.917-2.449-3.8 0Z" data-color="3"/>
        <path fill="#93c01f" d="M11.8 34.557a54.893 54.893 0 0 0 3.18 10.279c1.227 2.575 3.324 2.488 5.876 2.16 1.248-.161 2.6-1.554 1.641-2.859-1.108-1.5-3.845-4.021-4.058-5.905-.221-1.948-3.259-2.788-3.733-.505-.523 2.519.839 5.11 1.648 7.475.64 1.869 1.446 3.753 3.625 4.057 2.392.334 3.426-3.327 1.01-3.665-1.025-.142-2.811-5.93-2.618-6.857l-3.733-.505c.344 3.034 2.821 5.438 4.577 7.823l1.641-2.855c-.473.06-1.961.47-2.426.2-.5-.293-.953-2.815-1.148-3.419a97.225 97.225 0 0 1-1.816-6.425c-.59-2.372-4.256-1.367-3.665 1.01Z" data-color="6"/>
        <path fill="#93c01f" d="M35.2 42.379c3.17-2.136 8.448-5.037 8.822-9.291.424-4.832-2.095-8.98-4.15-13.094l-.682 2.6c.95-.564 1.541 5.5 1.642 6.192.153 1.048.555 2.1.674 3.132.39 3.374-4.521 6.59-6.717 8.852a1.909 1.909 0 0 0 2.3 2.984c3.059-1.6 6.841-3.559 8.934-6.423 1.9-2.605 1.851-5.878 1.642-8.952-.166-2.427-3.968-2.445-3.8 0 .225 3.292.191 5.848-2.569 8.239a31.729 31.729 0 0 1-6.125 3.854l2.3 2.985c2.363-2.434 5.814-4.979 7.551-7.9 1.554-2.613-.283-6.075-.632-8.795-.464-3.626-1.89-10.557-7.123-7.452a1.945 1.945 0 0 0-.682 2.6c1.417 2.836 3.262 5.605 3.243 8.873-.024 4.382-3.357 6.16-6.551 8.313-2.017 1.36-.117 4.653 1.918 3.281Z" data-color="6"/>
        <path fill="#dddb00" d="M40.952 37.3a30.392 30.392 0 0 0 1.921-5.3 16.807 16.807 0 0 0-.006-5.459L39.393 28a17.7 17.7 0 0 1 2.4 4.425 10.221 10.221 0 0 1 .509 2.221c.06.565-.04 1.975-.005 1.947-1.912 1.525.793 4.2 2.687 2.688 1.628-1.3 1.27-4.3.936-6.108a18.474 18.474 0 0 0-3.244-7.091 1.91 1.91 0 0 0-3.476 1.467c.483 3.331-.8 5.743-1.915 8.74-.854 2.3 2.818 3.286 3.665 1.01Z" data-color="7"/>
        <path fill="#dddb00" d="M8.483 27.526a45.11 45.11 0 0 0 .108 4.665 1.91 1.91 0 0 0 3.733.5 27.989 27.989 0 0 1 3.649-6.673l-3.541-.96a47.7 47.7 0 0 1-.426 6.32c-.216 1.612 2.24 2.539 3.244 1.344l1.186-1.412-3.176-1.843-.974 4.4a1.909 1.909 0 0 0 3.473 1.464l3.052-5.131-3.541-.959c-.115 1.773-1.6 3.395-2.039 5.159a9.4 9.4 0 0 0 .049 5.561c.643 1.57 1.919 2.9 2.641 4.485a9.839 9.839 0 0 0 2.555 3.776c1.847 1.586 4.547-1.091 2.688-2.687-1.411-1.212-2.972-4.457-3.756-6.3-1.765-4.143 1.421-6.263 1.663-10 .125-1.94-2.621-2.505-3.541-.959l-3.053 5.134 3.474 1.464.973-4.4c.378-1.7-1.869-3.4-3.176-1.849l-1.186 1.411 3.244 1.344a47.531 47.531 0 0 0 .427-6.32c0-2.018-2.49-2.406-3.541-.959a31.53 31.53 0 0 0-4.033 7.581l3.733.506a45.11 45.11 0 0 1-.109-4.665c.068-2.447-3.732-2.445-3.8 0Z" data-color="7"/>
        <path fill="#1d1d1b" d="M16.156 5.064c-.366 1.888 2.524 1.9 3.706 1.862a30.811 30.811 0 0 1 3.838-.137c1.393.125 2.74.578 4.127.758a32.044 32.044 0 0 0 3.624.22 9.151 9.151 0 0 0 2.888-.216 3.624 3.624 0 0 0 1.7-1.273c.5-.584 1.166-1.553 1.935-1.781a.38.38 0 0 0-.2-.733c-1.04.309-1.788 1.448-2.476 2.216-1.332 1.488-3.8 1.069-5.613.971-2.1-.112-4.093-.795-6.176-.935-.8-.053-6.9.689-6.623-.75.093-.478-.64-.682-.733-.2Z" data-color="8"/>
        <path fill="#1d1d1b" d="M25.827 48.219a5.775 5.775 0 0 0 2.791-.706 14.676 14.676 0 0 0 2.426-2.02 7.143 7.143 0 0 1 2.977-1.583c.721-.173 1.052.248 1.533.707l1.37 1.307c.354.337.892-.2.537-.538l-1.37-1.306a3.522 3.522 0 0 0-1.188-.937c-.951-.308-2.257.385-3.06.848a16.894 16.894 0 0 0-2.608 2.146 5.091 5.091 0 0 1-3.408 1.322.38.38 0 0 0 0 .76Z" data-color="8"/>
        <path fill="#1d1d1b" d="M7.088 38.372a2.92 2.92 0 0 1-1.861-.023c-.4-.137-.684.509-.293.7l3.389 1.611c.263.124.535.237.788.38.208.118.233.261.245.489a8.682 8.682 0 0 1-.1 1.857l.468-.265a5.221 5.221 0 0 1-1.9-1.545 3 3 0 0 0-2.34-1.064.392.392 0 0 0-.38.38.382.382 0 0 0 .38.38 2.624 2.624 0 0 1 2.066 1.112 4.835 4.835 0 0 0 1.972 1.47.381.381 0 0 0 .467-.265 9.609 9.609 0 0 0 .129-2.06 1.37 1.37 0 0 0-.267-.863 2.024 2.024 0 0 0-.718-.462l-3.815-1.816-.293.694a3.617 3.617 0 0 0 2.265.018c.464-.147.266-.881-.2-.733Z" data-color="8"/>
        <path fill="#1d1d1b" d="M16.326 7.8c-6.24-.129-11.382 4.338-13.788 9.828C.05 23.3-.71 30.887 1.61 36.73c4.525 11.4 18.848 14.6 29.721 11.818a26 26 0 0 0 8.469-4.105c2.264-1.572 4.76-3.2 6.15-5.661a49.5 49.5 0 0 0 2.112-4.692c.856-1.98 1.708-3.967 2.454-5.992 1.762-4.78.243-9.568-2.385-13.746a45.613 45.613 0 0 0-5.3-7.359 19.484 19.484 0 0 0-6.5-4.32C30.874.36 23.929-.462 18.254 1.563 11.28 4.052 6.694 10.2 3.508 16.6c-.217.436.438.822.656.383C6.924 11.437 10.652 6.115 16.3 3.23 21.2.727 27.141.794 32.375 2.14a23.588 23.588 0 0 1 6.919 2.939 19.448 19.448 0 0 1 5.357 5.521c3.041 4.313 6.914 9.5 5.82 15.151a24.854 24.854 0 0 1-1.6 4.482 203.783 203.783 0 0 1-2.381 5.569 14.5 14.5 0 0 1-2.69 4.537 32.951 32.951 0 0 1-6.889 5.113c-5.33 3.127-11.625 3.609-17.65 2.907A21.439 21.439 0 0 1 4.97 40.938C.459 35.429.309 27.693 2.125 21.077c1.789-6.518 6.918-12.669 14.2-12.519a.38.38 0 0 0 0-.76Z" data-color="8"/>
        <path fill="#1d1d1b" d="m9.9 13.872 6.219-.082c1-.014 2.3-.25 2.885.708.445.726.36 1.59.914 2.274.859 1.063 2.418 1.367 3.692 1.548a13.858 13.858 0 0 0 5.234-.3l-.429-.558a9.2 9.2 0 0 0-1.131 3.641c-.073.839.21 1.721-.3 2.393-.413.55-.468.48-1.061.454-.363-.015-.725-.052-1.088-.056a2.954 2.954 0 0 0-2.4.815c-.735.86-.461 2.068-1.01 2.994-.49.826-1.5 1.061-1.391 2.194a6.283 6.283 0 0 0 1.645 2.929 14.011 14.011 0 0 0 1.41 1.5 4.078 4.078 0 0 1 .671.618c.409.634.057 1.337-.6.916-.922-.592-1.278-1.674-2.528-1.6a.387.387 0 0 0-.38.38l-.094 4.508c-.027 1.279.333 3.479-.6 4.494a.385.385 0 0 0 .168.635 12.23 12.23 0 0 1 1.821.846q.365.212.714.448.7 1.593-.56 1.507a5.079 5.079 0 0 1-2.745-.6 5.656 5.656 0 0 1-2.285-2.178 7.8 7.8 0 0 1-.714-3.043c-.238-1.7-1.253-2.426-2.755-3.074a16.951 16.951 0 0 1-5.772-3.932l.059.461a3.328 3.328 0 0 1 2.718-1.524.385.385 0 0 0 .366-.481c-.47-1.654-.537-3.915-2.47-4.409a6.1 6.1 0 0 1-4.714-4.164c-.727-2.406.435-4.625 1.976-6.42 1.683-1.96 3.623-3.726 5.444-5.555a.38.38 0 0 0-.537-.538 79.882 79.882 0 0 0-5.827 6.016 7.672 7.672 0 0 0-2.012 5.6 6.828 6.828 0 0 0 2.629 4.586 6.4 6.4 0 0 0 2.49 1.134 2.06 2.06 0 0 1 1.622 1.61c.225.78.444 1.563.666 2.344l.367-.481a4.1 4.1 0 0 0-3.374 1.9.386.386 0 0 0 .059.461 16.864 16.864 0 0 0 3.286 2.723c1.233.771 2.677 1.156 3.888 1.936 1.552 1 .991 3.021 1.611 4.544a6.225 6.225 0 0 0 1.961 2.544c1.292 1 4.1 2.1 5.581.833 1.957-1.677-2.226-3.414-3.289-3.814l.167.635c.911-.985.771-2.351.8-3.607l.124-5.932-.38.38c1.261-.079 1.752 1.729 3.061 1.827a1.139 1.139 0 0 0 1.278-.947c.153-1.034-1.021-1.792-1.646-2.4a13.043 13.043 0 0 1-1.778-2.144c-.612-.921-1.058-1.7-.061-2.55.884-.757.873-1.632 1.138-2.707.512-2.075 2.622-1.24 4.159-1.395a1.3 1.3 0 0 0 1.336-1.471 9.79 9.79 0 0 1 .944-5.4.384.384 0 0 0-.429-.558 12.588 12.588 0 0 1-6.355-.013 2.676 2.676 0 0 1-2.205-2.141 2.785 2.785 0 0 0-.652-1.509c-.838-.8-2.273-.612-3.311-.6l-6.22.087a.38.38 0 0 0 0 .76Z" data-color="8"/>
        <path fill="#1d1d1b" d="m28.2 15.01 4.627-.112 2.192-.053 1.217-.03.731-.018 1.1.949c.4 1.135-1.526 2.813-2.092 3.624a3.567 3.567 0 0 0-.78 2.474 2.324 2.324 0 0 0 1.1 1.741 2.007 2.007 0 0 0 1.065.186c.7-.03 1.124-.267 1.555.454.365.611.471 1.062 1.208 1.369a2.119 2.119 0 0 0 2.106-.249l-.558-.227c.749 3.02-.534 5.983-2.473 8.278-1.477 1.749-3.92 3.079-4.32 5.519a2.847 2.847 0 0 0 2.52 3.493c2.273.2 3.8-1.521 5.356-2.879 1-.874 2.277-1.315 3.261-2.183a7.842 7.842 0 0 0 1.762-3.126 60.141 60.141 0 0 0 3.177-8.4c.494-2.033.79-4.626-.506-6.44a3.4 3.4 0 0 0-2.178-1.322 4.829 4.829 0 0 1-3.411-2.605c-1.2-2.156-1.629-5.225-4.046-6.461a2.916 2.916 0 0 0-3.157.342c-1.468.975-2.893 2.026-4.336 3.038-.4.279-.018.938.384.657L36.74 10.9c1.236-.867 2.486-2.062 4.039-1.05 1.88 1.225 2.3 3.8 3.257 5.663a5.614 5.614 0 0 0 3.6 3.188c1.423.352 2.317.817 2.75 2.307a8.57 8.57 0 0 1-.016 3.962A36.93 36.93 0 0 1 48 31.705c-.431 1.051-.85 2.108-1.293 3.155a4.631 4.631 0 0 1-1.459 2.127c-.48.351-1.042.587-1.55.895-1.768 1.068-3 3.124-5.067 3.656-1.385.356-2.944-.151-3.039-1.81a4.629 4.629 0 0 1 1.762-3.444c3.14-3.049 6.228-6.648 5.056-11.368a.381.381 0 0 0-.558-.227 1.342 1.342 0 0 1-1.918-.226c-.3-.363-.282-.8-.559-1.16-.366-.481-.889-.44-1.431-.394-.869.073-1.683.089-1.952-.955a2.853 2.853 0 0 1 .735-2.317 12.9 12.9 0 0 0 1.845-2.632c.591-1.469.113-2.948-1.6-2.968-2.916-.033-5.851.142-8.767.213a.38.38 0 0 0 0 .76Z" data-color="8"/>
    </g>
</svg>
